<?xml version="1.0" standalone="no"?>
<!DOCTYPE svg PUBLIC "-//W3C//DTD SVG 1.1//EN" "http://www.w3.org/Graphics/SVG/1.1/DTD/svg11.dtd" >
<svg xmlns="http://www.w3.org/2000/svg" xmlns:xlink="http://www.w3.org/1999/xlink" version="1.1">
<metadata>
Created by FontForge 20170731 at Mon Apr 22 03:11:55 2019
 By Aleksey,,,
Copyright (c) 2019 by Oleh Lishchuk. All rights reserved. |DCNT
</metadata>
<defs>
<font id="MazzardM-Medium" horiz-adv-x="600" >
  <font-face 
    font-family="Mazzard M Medium"
    font-weight="500"
    font-stretch="normal"
    units-per-em="1000"
    panose-1="0 0 0 0 0 0 0 0 0 0"
    ascent="755"
    descent="-245"
    x-height="450"
    cap-height="675"
    bbox="-106 -238 1175 954"
    underline-thickness="50"
    underline-position="-275"
    unicode-range="U+000D-FB04"
  />
<missing-glyph horiz-adv-x="333" 
 />
    <glyph glyph-name="f_f" unicode="ff" horiz-adv-x="577" 
d="M85 0v370h-72v80h72v137q0 59 41 98q41 40 103 40h60v-87h-54q-26 0 -43 -18t-17 -45v-125h186v137q0 59 41 98q41 40 103 40h60v-87h-54q-26 0 -43 -18t-17 -45v-125h114v-80h-114v-370h-90v370h-186v-370h-90z" />
    <glyph glyph-name="fi" unicode="fi" horiz-adv-x="503" 
d="M175 575v-125h114v-80h-114v-370h-90v370h-72v80h72v137q0 59 41 98q41 40 103 40h60v-87h-54q-26 0 -43 -18t-17 -45zM447 0h-90v450h90v-450zM343 595q-4 38 36 54t66 -12q27 -27 12 -64.5t-55 -37.5q-25 0 -42 17t-17 43z" />
    <glyph glyph-name="fl" unicode="fl" horiz-adv-x="503" 
d="M175 575v-125h114v-80h-114v-370h-90v370h-72v80h72v137q0 59 41 98q41 40 103 40h60v-87h-54q-26 0 -43 -18t-17 -45zM447 0h-90v725h90v-725z" />
    <glyph glyph-name="f_f_i" unicode="ffi" horiz-adv-x="779" 
d="M85 0v370h-72v80h72v137q0 59 41 98q41 40 103 40h60v-87h-54q-26 0 -43 -18t-17 -45v-125h186v137q0 59 41 98q41 40 103 40h60v-87h-54q-26 0 -43 -18t-17 -45v-125h273v-450h-91v370h-182v-370h-90v370h-186v-370h-90zM619 595q-4 38 36 54t66 -12q27 -27 12 -64.5
t-55 -37.5q-25 0 -42 17t-17 43z" />
    <glyph glyph-name="f_f_l" unicode="ffl" horiz-adv-x="779" 
d="M85 370h-72v80h72v137q0 59 41 98q41 40 103 40h60v-87h-54q-26 0 -43 -18t-17 -45v-125h186v137q0 59 41 98q41 40 103 40h60v-87h-54q-26 0 -43 -18t-17 -45v-125h114v-80h-114v-370h-90v370h-186v-370h-90v370zM633 0v725h91v-725h-91z" />
    <glyph glyph-name="afii10104_afii10104" unicode="&#x457;&#x457;" horiz-adv-x="404" 
d="M146 0h-90v450h90v-450zM-46 600q0 26 17 43t43 17q25 0 42 -17.5t17 -42.5t-17 -42t-42 -17q-26 0 -43 17t-17 42zM348 0h-90v450h90v-450zM143 600q0 26 17.5 43t42.5 17t41.5 -17t16.5 -43q0 -25 -16.5 -42t-41.5 -17q-26 0 -43 17t-17 42zM390 541q-25 0 -42 17
t-17 42t17 42.5t42 17.5t42 -17t17 -43t-16.5 -42.5t-42.5 -16.5z" />
    <glyph glyph-name=".notdef" horiz-adv-x="333" 
 />
    <glyph glyph-name="uni0000" horiz-adv-x="0" 
 />
    <glyph glyph-name="uni0000" horiz-adv-x="0" 
 />
    <glyph glyph-name="uni000D" unicode="&#xd;" horiz-adv-x="250" 
 />
    <glyph glyph-name="space" unicode=" " horiz-adv-x="256" 
 />
    <glyph glyph-name="exclam" unicode="!" horiz-adv-x="218" 
d="M65 5q-17 18 -17 44t17 43q18 18 44 18t43 -18q17 -17 17 -43t-17 -44q-17 -17 -43 -17t-44 17zM150 207h-82l-11 468h104z" />
    <glyph glyph-name="quotedbl" unicode="&#x22;" horiz-adv-x="345" 
d="M135 464h-71l-9 211h89zM281 464h-72l-9 211h90z" />
    <glyph glyph-name="numbersign" unicode="#" horiz-adv-x="666" 
d="M157 179h-135v79h148l29 159h-133l1 79h145l32 179h80l-32 -179h137l32 179h81l-32 -179h135l-1 -79h-147l-29 -159h132v-79h-145l-32 -179h-81l32 179h-137l-32 -179h-80zM279 417l-29 -159h137l29 159h-137z" />
    <glyph glyph-name="dollar" unicode="$" horiz-adv-x="594" 
d="M261 -122v112q-82 10 -140 53t-76 107l99 30q9 -41 53 -68.5t105 -27.5q63 0 104.5 28.5t41.5 73.5q0 29 -23 52q-20 20 -43 30t-66 20q-121 35 -161 57q-91 49 -91 146q0 79 53 132q55 53 140 62v112h71v-112q74 -10 127.5 -50.5t69.5 -98.5l-99 -29q-9 36 -46.5 60
t-87.5 24q-54 0 -91.5 -27t-37.5 -67q0 -43 52 -70q27 -13 55 -21l75 -21q70 -19 107 -38q45 -21 68.5 -57t27.5 -96q0 -86 -60 -142t-157 -63v-111h-70z" />
    <glyph glyph-name="percent" unicode="%" horiz-adv-x="820" 
d="M174 0l-54 45l528 630l54 -45zM33 517q0 73 49 121q49 49 121 49q73 0 121 -49q49 -48 49 -121t-49 -121q-48 -48 -121 -48q-71 0 -121 48q-49 49 -49 121zM119 517q0 -35 24.5 -59t59.5 -24t59.5 24t24.5 59t-24.5 59.5t-59.5 24.5t-59.5 -24t-24.5 -60zM447 158
q0 72 49 120q49 49 121 49q73 0 121 -49q49 -48 49 -120q0 -73 -49 -122q-48 -48 -121 -48q-71 0 -121 48q-49 49 -49 122zM557 217q-24 -24 -24 -59t24 -60q25 -24 60 -24t59 24q24 25 24 60t-24 59t-59 24t-60 -24z" />
    <glyph glyph-name="ampersand" unicode="&#x26;" horiz-adv-x="671" 
d="M274 -12q-100 0 -165 61q-66 61 -66 149q0 59 31 102.5t93 81.5q-52 77 -52 146q0 72 46 115q47 44 117 44q72 0 122 -45t50 -111q0 -55 -34 -93.5t-108 -79.5l17 -18l133 -136q30 65 30 142h90q0 -118 -55 -209l134 -137h-133l-61 62q-80 -74 -189 -74zM401 127
l-140 144l-37 39q-86 -53 -86 -116q0 -49 39.5 -82t99.5 -33q70 0 124 48zM250 427q32 17 57 32q53 33 53 73q0 28 -22.5 46.5t-55.5 18.5q-32 0 -52.5 -19.5t-20.5 -51.5q0 -41 41 -99z" />
    <glyph glyph-name="quotesingle" unicode="'" horiz-adv-x="191" 
d="M135 464h-71l-9 211h89z" />
    <glyph glyph-name="parenleft" unicode="(" horiz-adv-x="296" 
d="M180 758l15 17h88l-17 -21q-9 -11 -36 -61q-53 -92 -82 -230q-32 -162 -1 -326q33 -161 121 -292l15 -20h-88l-1 1q-81 93 -121 244q-28 106 -28 230q0 178 53 308q43 106 82 150z" />
    <glyph glyph-name="parenright" unicode=")" horiz-adv-x="296" 
d="M28 755l-15 20h88l16 -18q10 -11 36 -56q29 -49 46 -94q19 -48 36 -133q16 -80 16 -173q0 -166 -48 -295q-20 -54 -43 -94q-30 -54 -58 -86l-1 -1h-88l16 21q12 15 37 61q55 96 81 230q34 160 1 326q-30 158 -120 292z" />
    <glyph glyph-name="asterisk" unicode="*" horiz-adv-x="427" 
d="M186 458l-96 -75l-45 77l113 46l-113 46l45 77l96 -76l-17 122h89l-17 -122l97 76l44 -77l-113 -46l113 -46l-44 -77l-97 75l17 -121h-89z" />
    <glyph glyph-name="plus" unicode="+" 
d="M257 297h-189v86h189v189h86v-189h189v-86h-189v-189h-86v189z" />
    <glyph glyph-name="comma" unicode="," horiz-adv-x="201" 
d="M165 23q0 -26 -10 -51t-22.5 -41.5t-27.5 -30t-23 -19t-11 -6.5l-29 30q1 1 5.5 6.5t7.5 9.5q6 8 21 32q13 22 13 36q-22 3 -37 20.5t-15 41.5t17.5 41t43.5 17q29 0 48 -24t19 -62z" />
    <glyph glyph-name="hyphen" unicode="-" horiz-adv-x="386" 
d="M63 184v83h260v-83h-260z" />
    <glyph glyph-name="period" unicode="." horiz-adv-x="195" 
d="M54 5q-17 18 -17 44t17 43q18 18 44 18t43 -18q17 -17 17 -43t-17 -44q-17 -17 -43 -17t-44 17z" />
    <glyph glyph-name="slash" unicode="/" horiz-adv-x="529" 
d="M87 -175h-87l442 950h87z" />
    <glyph glyph-name="zero" unicode="0" horiz-adv-x="618" 
d="M53 228v219q0 104 73 171q74 69 183 69t183 -69q73 -67 73 -171v-219q0 -103 -73 -172q-74 -68 -183 -68t-183 68q-73 69 -73 172zM309 595q-67 0 -114 -42q-46 -42 -46 -104v-223q0 -61 46 -103q47 -42 114 -42t114 41q46 42 46 104v223q0 62 -46 104q-47 42 -114 42z
" />
    <glyph glyph-name="one" unicode="1" horiz-adv-x="427" 
d="M218 553l-130 -67l-41 85l200 104h67v-675h-96v553z" />
    <glyph glyph-name="two" unicode="2" horiz-adv-x="560" 
d="M404 480q0 46 -39 81q-37 34 -93 34q-48 0 -87 -29t-59 -80l-90 43q33 73 95.5 115.5t140.5 42.5q96 0 164 -60t68 -144q0 -53 -34 -106.5t-109 -125.5l-165 -158h316v-93h-466v72l253 243q55 54 80 92t25 73z" />
    <glyph glyph-name="three" unicode="3" horiz-adv-x="567" 
d="M405 493q0 43 -39 72q-39 30 -98 30q-48 0 -84.5 -20t-52.5 -53l-87 43q28 57 87.5 89.5t136.5 32.5q102 0 169 -55t67 -136q0 -94 -89 -147q49 -25 77.5 -68t28.5 -94q0 -85 -71 -142q-70 -57 -177 -57q-84 0 -148.5 38t-89.5 101l93 34q14 -36 53 -58t92 -22
q63 0 105.5 31.5t42.5 79.5q0 45 -42 77q-41 31 -103 31h-51v89h36q61 0 102.5 29.5t41.5 74.5z" />
    <glyph glyph-name="four" unicode="4" horiz-adv-x="628" 
d="M405 0v136h-366v93l371 446h91v-446h94v-93h-94v-136h-96zM405 529l-250 -300h250v300z" />
    <glyph glyph-name="five" unicode="5" horiz-adv-x="582" 
d="M283 -12q-84 0 -149 42.5t-93 114.5l95 27q20 -42 59 -66.5t89 -24.5q65 0 109 38t44 93q0 58 -47 97q-46 39 -117 39h-183l34 327h357v-89h-277l-15 -150h88q111 0 184 -64q75 -64 75 -160t-73 -160q-71 -64 -180 -64z" />
    <glyph glyph-name="six" unicode="6" horiz-adv-x="591" 
d="M534 565l-89 -44q-21 34 -57.5 54t-80.5 20q-67 0 -113 -42q-45 -42 -45 -104v-72q61 54 153 54q106 0 176 -64q72 -65 72 -159q0 -92 -72 -157q-71 -63 -176 -63q-106 0 -178 63q-71 65 -71 159v237q0 104 73 171q74 69 183 69q74 0 133 -32.5t92 -89.5zM302 339
q-64 0 -107 -37t-43 -91q0 -56 43 -93t107 -37q62 0 105 36q43 37 43 91q0 56 -43 93q-44 38 -105 38z" />
    <glyph glyph-name="seven" unicode="7" horiz-adv-x="510" 
d="M129 0l245 586h-353v89h455v-93l-242 -582h-105z" />
    <glyph glyph-name="eight" unicode="8" horiz-adv-x="587" 
d="M46 186q0 53 29 96t81 70q-94 53 -94 151q0 79 66 131q68 53 166 53q97 0 164 -53q67 -52 67 -132q0 -96 -94 -151q52 -27 81 -70t29 -96q0 -84 -71 -141q-71 -56 -176 -56q-106 0 -177 57t-71 141zM294 81q63 0 105 32t42 80q0 49 -42 81t-105 32q-64 0 -106.5 -32
t-42.5 -80t42 -81q44 -32 107 -32zM162 495q0 -43 38 -71.5t94 -28.5t93.5 28.5t37.5 71.5q0 42 -38 71t-93 29q-56 0 -94 -29t-38 -71z" />
    <glyph glyph-name="nine" unicode="9" horiz-adv-x="591" 
d="M46 116l89 44q20 -37 58.5 -58t86.5 -21q71 0 118 41q47 42 47 104v67q-61 -60 -151 -60q-105 0 -176 65q-70 64 -70 162t70 162q71 65 176 65q104 0 175 -65t71 -159v-236q0 -102 -75 -171q-74 -68 -185 -68q-78 0 -140 34t-94 94zM440 459q0 58 -42 97t-104 39
t-105 -39q-42 -38 -42 -95q0 -58 42 -97q43 -39 105 -39t104 39t42 95z" />
    <glyph glyph-name="colon" unicode=":" horiz-adv-x="195" 
d="M54 5q-17 18 -17 44t17 43q18 18 44 18t43 -18q17 -17 17 -43t-17 -44q-17 -17 -43 -17t-44 17zM54 357q-17 18 -17 44t17 43q18 18 44 18t43 -18q17 -17 17 -43t-17 -44q-17 -17 -43 -17t-44 17z" />
    <glyph glyph-name="semicolon" unicode=";" horiz-adv-x="195" 
d="M54 357q-17 18 -17 44t17 43q18 18 44 18t43 -18q17 -17 17 -43t-17 -44q-17 -17 -43 -17t-44 17zM164 23q0 -85 -94 -148l-29 30q1 1 5.5 6.5t7.5 9.5q6 8 21 32q13 22 13 36q-22 3 -36.5 20.5t-14.5 41.5t17.5 41t43.5 17q29 0 47.5 -24t18.5 -62z" />
    <glyph glyph-name="less" unicode="&#x3c;" 
d="M517 90l-454 211v74l454 212v-95l-331 -154l331 -155v-93z" />
    <glyph glyph-name="equal" unicode="=" 
d="M68 405v85h464v-85h-464zM68 185v85h464v-85h-464z" />
    <glyph glyph-name="greater" unicode="&#x3e;" 
d="M537 375v-74l-454 -211v93l331 155l-331 154v95z" />
    <glyph glyph-name="question" unicode="?" horiz-adv-x="534" 
d="M398 484q0 48 -42 79q-40 33 -100 33q-51 0 -89.5 -26.5t-51.5 -68.5l-96 27q23 73 86 115q65 44 149 44q100 0 170 -59q69 -58 69 -145q0 -41 -17.5 -78t-44.5 -60q-55 -46 -96 -61l-18 -6l-5 -71h-86l-10 121q40 13 63 24q35 17 56 31q26 19 44.5 46.5t18.5 54.5z
M226 5q-17 18 -17 44t17 43q17 18 43 18t43 -18q18 -17 18 -43t-18 -44q-17 -17 -43 -17t-43 17z" />
    <glyph glyph-name="at" unicode="@" horiz-adv-x="901" 
d="M451 637q175 0 293 -115q119 -114 119 -274q0 -99 -47 -161t-120 -62q-81 0 -119 67q-54 -67 -142 -67q-80 0 -134 57q-53 58 -53 143t53 143q54 57 134 57q73 0 126 -50v40h76v-263q0 -22 17.5 -37.5t42.5 -15.5q40 0 64.5 40t24.5 105q0 130 -97 223t-238 93
q-143 0 -240 -96q-96 -96 -96 -239q0 -142 95 -239q96 -96 236 -96q85 0 153 41l31 -69q-85 -49 -186 -49q-172 0 -289 118q-116 119 -116 294q0 176 118 294t294 118zM360 313q-33 -36 -33 -88t33 -88q34 -36 84 -36t83 36q34 35 34 88t-34 88q-33 36 -83 36t-84 -36z" />
    <glyph glyph-name="A" unicode="A" horiz-adv-x="697" 
d="M119 0h-105l294 675h81l293 -675h-104l-62 144h-335zM476 236l-127 297l-128 -297h255z" />
    <glyph glyph-name="B" unicode="B" horiz-adv-x="664" 
d="M410 0h-341v675h322q85 0 141 -51q57 -51 57 -128q0 -86 -72 -140q48 -24 75.5 -68t27.5 -97q0 -81 -60 -137q-60 -54 -150 -54zM410 303h-241v-210h241q46 0 76.5 30t30.5 75t-30.5 75t-76.5 30zM391 582h-222v-186h222q41 0 68 26.5t27 66.5t-27 66.5t-68 26.5z" />
    <glyph glyph-name="C" unicode="C" horiz-adv-x="745" 
d="M46 337q0 150 100 250t249 100q101 0 183 -48t125 -132l-96 -37q-33 57 -88.5 89t-123.5 32q-106 0 -176 -73q-70 -71 -70 -181q0 -108 70 -181q71 -72 176 -72q68 0 123.5 32t88.5 89l96 -37q-43 -84 -125 -132t-183 -48q-149 0 -249 100t-100 249z" />
    <glyph glyph-name="D" unicode="D" horiz-adv-x="733" 
d="M338 0h-269v675h269q148 0 249 -98t101 -240t-101 -240q-100 -97 -249 -97zM338 582h-169v-489h169q105 0 175 70q71 71 71 174q0 104 -71 175q-70 70 -175 70z" />
    <glyph glyph-name="E" unicode="E" 
d="M69 675h490v-93h-390v-194h339v-93h-339v-202h395v-93h-495v675z" />
    <glyph glyph-name="F" unicode="F" horiz-adv-x="592" 
d="M69 675h490v-93h-390v-192h339v-92h-339v-298h-100v675z" />
    <glyph glyph-name="G" unicode="G" horiz-adv-x="785" 
d="M46 337q0 149 101 250q101 100 254 100q102 0 184.5 -48t127.5 -132l-97 -37q-32 57 -89 89t-126 32q-107 0 -180 -73q-72 -72 -72 -181q0 -107 69 -181q71 -72 172 -72q87 0 152 52q66 53 84 134h-251v93h363q2 -26 2 -30q-1 -146 -101 -246q-99 -99 -246 -99
q-148 0 -248 100q-99 100 -99 249z" />
    <glyph glyph-name="H" unicode="H" horiz-adv-x="718" 
d="M169 0h-100v675h100v-287h379v287h100v-675h-100v295h-379v-295z" />
    <glyph glyph-name="I" unicode="I" horiz-adv-x="239" 
d="M169 0h-100v675h100v-675z" />
    <glyph glyph-name="J" unicode="J" horiz-adv-x="568" 
d="M507 675v-431q0 -110 -76 -183q-74 -73 -187 -73q-71 0 -129 30.5t-94 85.5l83 54q21 -36 58.5 -57t82.5 -21q73 2 118 47q48 47 48 117v431h96z" />
    <glyph glyph-name="K" unicode="K" horiz-adv-x="623" 
d="M609 0h-127l-312 345l292 330h128l-292 -330zM69 0v675h100v-675h-100z" />
    <glyph glyph-name="L" unicode="L" horiz-adv-x="554" 
d="M69 675h100v-582h358v-93h-458v675z" />
    <glyph glyph-name="M" unicode="M" horiz-adv-x="862" 
d="M169 0h-100v675h100l262 -461l262 461h100v-675h-100v484l-229 -402h-66l-229 403v-485z" />
    <glyph glyph-name="N" unicode="N" horiz-adv-x="721" 
d="M166 0h-97v675h88l399 -504v504h96v-675h-88l-398 502v-502z" />
    <glyph glyph-name="O" unicode="O" horiz-adv-x="790" 
d="M46 337q0 150 100 250t249 100t249 -100q101 -101 101 -250q0 -148 -101 -249q-100 -100 -249 -100t-249 100t-100 249zM149 337q0 -108 70 -181q71 -72 176 -72q104 0 175 72q71 74 71 181q0 108 -71 181q-70 73 -175 73q-106 0 -176 -73q-70 -71 -70 -181z" />
    <glyph glyph-name="P" unicode="P" horiz-adv-x="632" 
d="M169 253v-253h-100v675h298q95 0 159 -61q64 -60 64 -150t-64 -151q-64 -60 -159 -60h-198zM367 582h-198v-237h198q51 0 85.5 34t34.5 85t-34.5 84.5t-85.5 33.5z" />
    <glyph glyph-name="Q" unicode="Q" horiz-adv-x="792" 
d="M395 -12q-149 0 -249 100t-100 249q0 150 100 250t249 100t249 -100q101 -101 101 -250q0 -133 -83 -231l87 -87l-68 -67l-92 91q-85 -55 -194 -55zM149 337q0 -108 70 -181q71 -72 176 -72q67 0 122 31l-112 112l68 68l116 -116q52 65 52 158q0 108 -71 181
q-70 73 -175 73q-106 0 -176 -73q-70 -71 -70 -181z" />
    <glyph glyph-name="R" unicode="R" horiz-adv-x="653" 
d="M69 675h308q95 0 159 -61q64 -60 64 -150q0 -66 -37 -119t-100 -77l163 -268h-112l-153 253h-192v-253h-100v675zM377 582h-208v-237h208q51 0 85 34t34 85t-34 84.5t-85 33.5z" />
    <glyph glyph-name="S" unicode="S" horiz-adv-x="594" 
d="M525 536l-99 -29q-9 36 -46.5 60t-87.5 24q-54 0 -91.5 -27t-37.5 -67q0 -43 52 -70q27 -13 55 -21l75 -21q70 -19 107 -38q45 -21 68.5 -57t27.5 -96q0 -93 -69 -150q-70 -56 -178 -56q-98 0 -167 45q-70 47 -89 117l99 30q9 -41 53 -68.5t105 -27.5q63 0 104.5 28.5
t41.5 73.5q0 29 -23 52q-20 20 -43 30t-66 20q-121 35 -161 57q-91 49 -91 146q0 87 63 141q64 55 163 55q89 0 153 -43t82 -108z" />
    <glyph glyph-name="T" unicode="T" horiz-adv-x="638" 
d="M269 582h-244v93h588v-93h-244v-582h-100v582z" />
    <glyph glyph-name="U" unicode="U" horiz-adv-x="698" 
d="M538 270v405h100v-405q0 -120 -83 -201t-206 -81q-125 0 -207 81q-83 81 -83 201v405h100v-405q0 -81 54 -135q55 -54 136 -54t135 54t54 135z" />
    <glyph glyph-name="V" unicode="V" horiz-adv-x="687" 
d="M384 0h-81l-289 675h105l225 -532l224 532h105z" />
    <glyph glyph-name="W" unicode="W" horiz-adv-x="976" 
d="M326 0h-81l-231 675h103l168 -516l163 516h80l164 -516l167 516h103l-231 -675h-81l-162 501z" />
    <glyph glyph-name="X" unicode="X" horiz-adv-x="658" 
d="M270 344l-246 331h119l186 -251l186 251h120l-246 -331l255 -344h-119l-196 263l-195 -263h-120z" />
    <glyph glyph-name="Y" unicode="Y" horiz-adv-x="651" 
d="M275 274l-261 401h115l195 -306l198 306h115l-262 -397l-1 -278h-99v274z" />
    <glyph glyph-name="Z" unicode="Z" horiz-adv-x="616" 
d="M579 93v-93h-537v77l395 505h-392v93h532v-77l-396 -505h398z" />
    <glyph glyph-name="bracketleft" unicode="[" horiz-adv-x="290" 
d="M144 -96h133v-79h-221v950h221v-79h-133v-792z" />
    <glyph glyph-name="backslash" unicode="\" horiz-adv-x="529" 
d="M87 775l442 -950h-87l-442 950h87z" />
    <glyph glyph-name="bracketright" unicode="]" horiz-adv-x="290" 
d="M234 -175h-221v79h133v792h-133v79h221v-950z" />
    <glyph glyph-name="asciicircum" unicode="^" 
d="M68 375l195 300h74l195 -299h-100l-132 197l-132 -198h-100z" />
    <glyph glyph-name="underscore" unicode="_" horiz-adv-x="256" 
d="M0 -133v83h256v-83h-256z" />
    <glyph glyph-name="grave" unicode="`" horiz-adv-x="312" 
d="M234 679l-188 89l45 81l174 -115z" />
    <glyph glyph-name="a" unicode="a" horiz-adv-x="552" 
d="M257 462q87 0 149 -59v47h90v-450h-90v47q-62 -59 -149 -59q-93 0 -158 68q-63 67 -63 169q0 101 63 169q65 68 158 68zM364 329q-39 42 -97 42q-57 0 -98 -42q-39 -42 -39 -104t39 -104q41 -42 98 -42q58 0 97 42q40 41 40 104t-40 104z" />
    <glyph glyph-name="b" unicode="b" horiz-adv-x="552" 
d="M56 0v725h90v-322q62 59 149 59q94 0 157 -68q64 -67 64 -169t-64 -169q-63 -68 -157 -68q-87 0 -149 59v-47h-90zM382 329q-39 42 -97 42q-57 0 -98 -42q-39 -42 -39 -104t39 -104q41 -42 98 -42q58 0 97 42q40 41 40 104t-40 104z" />
    <glyph glyph-name="c" unicode="c" horiz-adv-x="516" 
d="M490 320l-91 -28q-17 36 -51 57.5t-76 21.5q-62 0 -102 -42q-40 -41 -40 -104t40 -104q40 -42 102 -42q42 0 76 21.5t51 57.5l91 -27q-27 -66 -85.5 -104.5t-132.5 -38.5q-101 0 -169 68q-67 67 -67 169t67 169q68 68 169 68q75 0 133 -38t85 -104z" />
    <glyph glyph-name="d" unicode="d" horiz-adv-x="552" 
d="M257 462q87 0 149 -59v322h90v-725h-90v47q-62 -59 -149 -59q-93 0 -158 68q-63 67 -63 169q0 101 63 169q65 68 158 68zM364 329q-39 42 -97 42q-57 0 -98 -42q-39 -42 -39 -104t39 -104q41 -42 98 -42q58 0 97 42q40 41 40 104t-40 104z" />
    <glyph glyph-name="e" unicode="e" horiz-adv-x="532" 
d="M501 192h-372q11 -52 51.5 -85.5t96.5 -33.5q75 0 119 56l88 -27q-30 -52 -85.5 -83t-121.5 -31q-102 0 -172 68q-69 68 -69 169q0 102 67 169q68 68 167 68q98 0 166 -68q67 -67 67 -169q0 -19 -2 -33zM130 264h280q-12 51 -51 82t-91 31q-50 0 -88.5 -31.5t-49.5 -81.5
z" />
    <glyph glyph-name="f" unicode="f" horiz-adv-x="301" 
d="M175 575v-125h114v-80h-114v-370h-90v370h-72v80h72v137q0 59 41 98q41 40 103 40h60v-87h-54q-26 0 -43 -18t-17 -45z" />
    <glyph glyph-name="g" unicode="g" horiz-adv-x="552" 
d="M257 -12q-93 0 -158 68q-63 67 -63 169q0 101 63 169q65 68 158 68q87 0 149 -59v47h90v-461q0 -97 -66 -161q-65 -65 -162 -65q-71 0 -131 36t-84 93l91 27q14 -29 48 -47.5t73 -18.5q59 0 100 39t41 97v58q-62 -59 -149 -59zM267 371q-59 0 -99 -42q-39 -42 -39 -104
t39 -104q40 -42 99 -42q58 0 97 42q40 41 40 104t-40 104q-39 42 -97 42z" />
    <glyph glyph-name="h" unicode="h" horiz-adv-x="534" 
d="M56 0v725h90v-340q51 77 150 77q78 0 131 -51q52 -49 52 -127v-284h-91v259q0 50 -33.5 83t-84.5 33q-53 0 -88.5 -33.5t-35.5 -83.5v-258h-90z" />
    <glyph glyph-name="i" unicode="i" horiz-adv-x="202" 
d="M146 0h-90v450h90v-450zM101 654q25 0 42 -17t17 -42q0 -40 -37 -55t-65 12q-27 28 -12 65t55 37z" />
    <glyph glyph-name="j" unicode="j" horiz-adv-x="208" 
d="M61 450h91v-538q0 -58 -42 -97q-40 -40 -102 -40h-42v87h35q25 0 42.5 18t17.5 44v526zM107 654q25 0 42 -17t17 -42q0 -26 -17 -43t-42 -17q-26 0 -43 17t-17 43t17 42.5t43 16.5z" />
    <glyph glyph-name="k" unicode="k" horiz-adv-x="458" 
d="M56 0v725h90v-483l170 208h111l-177 -217l196 -233h-112l-188 225v-225h-90z" />
    <glyph glyph-name="l" unicode="l" horiz-adv-x="202" 
d="M146 0h-90v725h90v-725z" />
    <glyph glyph-name="m" unicode="m" horiz-adv-x="814" 
d="M146 0h-90v450h90v-57q46 69 137 69q47 0 85.5 -21.5t60.5 -58.5q47 80 151 80q77 0 128 -48t51 -120v-294h-90v269q0 45 -30 75.5t-76 30.5q-47 0 -78.5 -30.5t-31.5 -76.5v-268h-91v269q0 45 -30 75.5t-75 30.5q-47 0 -79 -30.5t-32 -76.5v-268z" />
    <glyph glyph-name="n" unicode="n" horiz-adv-x="528" 
d="M56 0v450h90v-65q51 77 147 77q78 0 129 -51q51 -49 51 -126v-285h-91v259q0 50 -33 83t-82 33q-51 0 -86 -33.5t-35 -83.5v-258h-90z" />
    <glyph glyph-name="o" unicode="o" horiz-adv-x="544" 
d="M103 56q-67 67 -67 169t67 169q68 68 169 68t169 -68t68 -169t-68 -169t-169 -68t-169 68zM170 329q-40 -41 -40 -104t40 -104q40 -42 102 -42q60 0 101 42q41 43 41 104t-41 104q-41 42 -101 42q-62 0 -102 -42z" />
    <glyph glyph-name="p" unicode="p" horiz-adv-x="552" 
d="M146 -225h-90v675h90v-47q62 59 149 59q94 0 157 -68q64 -67 64 -169t-64 -169q-63 -68 -157 -68q-87 0 -149 59v-272zM382 329q-39 42 -97 42q-57 0 -98 -42q-39 -42 -39 -104t39 -104q41 -42 98 -42q58 0 97 42q40 41 40 104t-40 104z" />
    <glyph glyph-name="q" unicode="q" horiz-adv-x="552" 
d="M257 462q87 0 149 -59v47h90v-675h-90v272q-62 -59 -149 -59q-93 0 -158 68q-63 67 -63 169q0 101 63 169q65 68 158 68zM364 329q-39 42 -97 42q-57 0 -98 -42q-39 -42 -39 -104t39 -104q41 -42 98 -42q58 0 97 42q40 41 40 104t-40 104z" />
    <glyph glyph-name="r" unicode="r" horiz-adv-x="323" 
d="M146 450v-65q51 77 147 77q11 0 14 -1v-101q-15 7 -40 7q-52 0 -86.5 -33t-34.5 -83v-251h-90v450h90z" />
    <glyph glyph-name="s" unicode="s" horiz-adv-x="415" 
d="M375 347l-84 -15q-17 50 -88 50q-33 0 -54 -13.5t-21 -34.5q0 -28 44 -45l101 -35q110 -39 110 -129q0 -65 -48 -101t-125 -36q-76 0 -124 34t-57 92l86 13q5 -27 31.5 -43t65.5 -16q37 0 61 15t24 39q0 33 -55 52l-100 33q-101 35 -101 120q0 65 46 100t123 35
q69 0 113 -31t52 -84z" />
    <glyph glyph-name="t" unicode="t" horiz-adv-x="321" 
d="M12 370v80h68v90h91v-90h122v-80h-122v-221q0 -26 17 -44t42 -18h63v-87h-69q-61 0 -103 39q-41 41 -41 99v232h-68z" />
    <glyph glyph-name="u" unicode="u" horiz-adv-x="528" 
d="M55 166v284h91v-259q0 -50 33 -83t82 -33q52 0 86 34q35 35 35 83v258h90v-450h-90v65q-51 -77 -147 -77q-78 0 -129 51t-51 127z" />
    <glyph glyph-name="v" unicode="v" horiz-adv-x="486" 
d="M201 0l-190 450h94l138 -334l138 334h94l-190 -450h-84z" />
    <glyph glyph-name="w" unicode="w" horiz-adv-x="676" 
d="M241 0h-80l-150 450h92l98 -310l97 310h81l98 -310l97 310h91l-149 -450h-81l-96 300z" />
    <glyph glyph-name="x" unicode="x" horiz-adv-x="477" 
d="M358 0l-119 158l-119 -158h-107l173 231l-164 219h106l111 -147l111 147h106l-164 -219l172 -231h-106z" />
    <glyph glyph-name="y" unicode="y" horiz-adv-x="469" 
d="M161 -53l26 65l-176 438h94l128 -326l131 326h94l-219 -534q-30 -73 -75 -107t-112 -34h-16v87h16q75 0 109 85z" />
    <glyph glyph-name="z" unicode="z" horiz-adv-x="438" 
d="M34 0v69l242 298h-238v83h362v-69l-243 -298h247v-83h-370z" />
    <glyph glyph-name="braceleft" unicode="{" horiz-adv-x="332" 
d="M248 775h71v-79h-67q-28 0 -46 -18t-18 -44v-208q0 -50 -23 -83t-62 -43q39 -10 62 -43t23 -83v-208q0 -26 18 -44t46 -18h67v-79h-71q-63 0 -106 43q-42 44 -42 107v206q0 25 -20.5 45t-45.5 28l-22 6v80q10 2 30 10q58 26 58 69v206q0 63 42 107q43 43 106 43z" />
    <glyph glyph-name="bar" unicode="|" horiz-adv-x="188" 
d="M134 -175h-79v950h79v-950z" />
    <glyph glyph-name="braceright" unicode="}" horiz-adv-x="332" 
d="M13 696v79h71q64 0 106 -43q42 -44 42 -107v-206q0 -25 20.5 -45t45.5 -28l22 -6v-80q-10 -2 -31 -11q-57 -22 -57 -68v-206q0 -63 -42 -107q-42 -43 -106 -43h-71v79h67q28 0 46.5 18t18.5 44v208q0 50 23 83t62 43q-39 10 -62 43t-23 83v208q0 26 -18.5 44t-46.5 18
h-67z" />
    <glyph glyph-name="asciitilde" unicode="~" 
d="M381 261q-39 0 -94.5 32.5t-72.5 32.5q-24 0 -40 -17t-16 -42h-90q0 64 44 106q43 43 106 43q39 0 95 -32.5t73 -32.5q24 0 40 17t16 42h90q0 -62 -45 -106q-43 -43 -106 -43z" />
    <glyph glyph-name="exclamdown" unicode="&#xa1;" horiz-adv-x="218" 
d="M65 357q-17 18 -17 44t17 43q18 18 44 18t43 -18q17 -17 17 -43t-17 -44q-17 -17 -43 -17t-44 17zM57 -203l11 446h82l11 -446h-104z" />
    <glyph glyph-name="cent" unicode="&#xa2;" horiz-adv-x="516" 
d="M237 -4v107q-87 12 -145 77q-56 67 -56 158q0 92 56 157q58 65 145 77v108h70v-108q63 -9 111.5 -46t71.5 -94l-91 -28q-17 36 -51 58t-76 22q-62 0 -102 -42q-40 -41 -40 -104q0 -62 40 -105q40 -42 102 -42q42 0 76 22t51 58l91 -28q-23 -57 -71.5 -94t-111.5 -46v-107
h-70z" />
    <glyph glyph-name="sterling" unicode="&#xa3;" horiz-adv-x="570" 
d="M520 0h-488v93h83v190h-67v70h67v128q0 89 61 147q62 59 148 59q77 0 139 -46q63 -47 84 -115l-96 -27q-13 42 -48.5 69.5t-77.5 27.5q-47 0 -81 -33t-34 -80v-130h195v-70h-195v-190h310v-93z" />
    <glyph glyph-name="currency" unicode="&#xa4;" horiz-adv-x="561" 
d="M110 113l-55 56l72 72q-28 41 -28 97q0 52 28 98l-72 72l56 56l72 -73q44 27 97 27q54 0 98 -27l73 73l55 -56l-73 -73q28 -43 28 -97t-27 -97l72 -72l-55 -56l-72 72q-43 -28 -99 -28q-55 0 -98 28zM382 338q0 43 -29.5 72t-72.5 29t-72.5 -29t-29.5 -72t29.5 -72.5
t72.5 -29.5t72.5 29t29.5 73z" />
    <glyph glyph-name="yen" unicode="&#xa5;" horiz-adv-x="651" 
d="M275 275l-261 400h115l195 -306l198 306h115l-263 -397v-12h133v-70h-133v-53h133v-71h-133v-72h-99v72h-133v71h133v53h-133v70h133v9z" />
    <glyph glyph-name="brokenbar" unicode="&#xa6;" horiz-adv-x="188" 
d="M134 775v-393h-79v393h79zM55 -175v394h79v-394h-79z" />
    <glyph glyph-name="section" unicode="&#xa7;" horiz-adv-x="457" 
d="M232 -182q-76 0 -132 41q-55 40 -69 107l83 31q8 -45 40 -72.5t77 -27.5q46 0 77.5 28t31.5 68q0 58 -58 82l-128 55q-49 21 -77 61.5t-28 88.5q0 70 55 119q-55 46 -55 120q0 75 52 123q52 49 130 49q69 0 120.5 -38t66.5 -99l-82 -31q-9 40 -37.5 65t-65.5 25
q-41 0 -68.5 -28t-27.5 -67q0 -26 14 -49t35 -32l131 -53q51 -22 80.5 -63t29.5 -91q0 -68 -56 -118q56 -47 56 -119q0 -75 -56 -125t-139 -50zM278 314l-100 41q-16 -7 -28.5 -30.5t-12.5 -47.5q0 -55 46 -75l110 -46q47 29 47 76q0 56 -62 82z" />
    <glyph glyph-name="dieresis" unicode="&#xa8;" horiz-adv-x="407" 
d="M46 738q0 26 17 43t43 17q25 0 42 -17.5t17 -42.5t-17 -42t-42 -17q-26 0 -43 17t-17 42zM242 738q0 26 17 43t43 17q25 0 42 -17.5t17 -42.5t-17 -42t-42 -17q-26 0 -43 17t-17 42z" />
    <glyph glyph-name="copyright" unicode="&#xa9;" horiz-adv-x="780" 
d="M390 683q142 0 243 -102q102 -101 102 -243t-101 -245q-101 -101 -244 -101t-244 101q-101 103 -101 245q0 143 101 244t244 101zM85 338q0 -127 89 -216q91 -89 216 -89q126 0 215 89q90 88 90 216q0 126 -90 215q-89 90 -215 90t-216 -90q-89 -89 -89 -215zM205 338
q0 80 54 132q55 53 135 53q54 0 99 -26t69 -71l-62 -23q-36 59 -106 59q-52 0 -88 -36q-35 -35 -35 -88q0 -52 35 -89q36 -36 88 -36q70 0 106 59l62 -23q-24 -45 -69 -71t-99 -26q-80 0 -135 53q-54 53 -54 133z" />
    <glyph glyph-name="ordfeminine" unicode="&#xaa;" horiz-adv-x="377" 
d="M167 680q62 0 104 -45v40h73v-315h-73v40q-42 -45 -104 -45q-63 0 -106 46q-42 47 -42 116t42 116q44 47 106 47zM96 518q0 -39 25 -65.5t61 -26.5t61.5 26.5t25.5 65.5q0 37 -25.5 63.5t-61.5 26.5t-61 -26t-25 -64z" />
    <glyph glyph-name="guillemotleft" unicode="&#xab;" horiz-adv-x="500" 
d="M205 48l-177 177l177 177l55 -56l-121 -121l121 -121zM400 48l-176 177l176 177l56 -56l-121 -121l121 -121z" />
    <glyph glyph-name="logicalnot" unicode="&#xac;" 
d="M451 160v135h-383v85h464v-220h-81z" />
    <glyph glyph-name="uni00AD" unicode="&#xad;" horiz-adv-x="386" 
d="M63 184v83h260v-83h-260z" />
    <glyph glyph-name="registered" unicode="&#xae;" horiz-adv-x="780" 
d="M390 683q142 0 243 -102q102 -101 102 -243t-101 -245q-101 -101 -244 -101t-244 101q-101 103 -101 245q0 143 101 244t244 101zM695 338q0 126 -90 215q-89 90 -215 90t-216 -90q-89 -89 -89 -215q0 -127 89 -216q91 -89 216 -89q126 0 215 89q90 88 90 216zM317 157
h-64v362h167q53 0 89 -34t36 -84q0 -35 -19 -64t-51 -43l82 -137h-72l-74 126h-94v-126zM420 460h-103v-118h103q25 0 42 17t17 42t-17 42t-42 17z" />
    <glyph glyph-name="overscore" unicode="&#xaf;" horiz-adv-x="356" 
d="M310 707h-264v76h264v-76z" />
    <glyph glyph-name="degree" unicode="&#xb0;" horiz-adv-x="397" 
d="M33 572q0 70 48 117q48 48 118 48q71 0 117 -48q48 -47 48 -117t-47 -119q-47 -47 -118 -47q-70 0 -119 47q-47 49 -47 119zM119 572q0 -34 23 -57t57 -23q33 0 56 23t23 57q0 33 -23 56t-56 23q-34 0 -57 -23t-23 -56z" />
    <glyph glyph-name="plusminus" unicode="&#xb1;" 
d="M257 361h-189v86h189v189h86v-189h189v-86h-189v-162h-86v162zM68 56v85h464v-85h-464z" />
    <glyph glyph-name="twosuperior" unicode="&#xb2;" horiz-adv-x="308" 
d="M215 614q0 23 -19.5 39.5t-45.5 16.5q-50 0 -76 -57l-57 28q18 41 53 64.5t80 23.5q54 0 91 -33q38 -33 38 -80q0 -55 -79 -127l-80 -76h164v-59h-260v45l137 130q54 53 54 85z" />
    <glyph glyph-name="threesuperior" unicode="&#xb3;" horiz-adv-x="314" 
d="M217 619q0 21 -19.5 36t-48.5 15q-53 0 -70 -39l-55 20q16 36 50.5 57t78.5 21q55 0 92 -31t37 -78q0 -50 -51 -74q60 -26 60 -83q0 -49 -40 -82q-40 -32 -98 -32q-47 0 -83 22.5t-50 59.5l58 20q6 -19 26 -30.5t47 -11.5q33 0 54 16t21 39q0 24 -20.5 39.5t-52.5 15.5
h-28v48h20q30 0 51 15t21 37z" />
    <glyph glyph-name="acute" unicode="&#xb4;" horiz-adv-x="312" 
d="M78 678l-32 56l175 114l44 -81z" />
    <glyph glyph-name="mu" unicode="&#xb5;" horiz-adv-x="528" 
d="M235 -12q-49 0 -89 22v-235h-90l-1 390v285h91v-259q0 -50 33 -83t82 -33q52 0 86 34q35 35 35 83v258h90v-450h-90v65q-51 -77 -147 -77z" />
    <glyph glyph-name="paragraph" unicode="&#xb6;" horiz-adv-x="649" 
d="M235 675h386v-70h-102v-780h-78v780h-127v-780h-79v461q-84 0 -139 55q-56 56 -56 139t56 139t139 56z" />
    <glyph glyph-name="middot" unicode="&#xb7;" horiz-adv-x="195" 
d="M54 294q-17 18 -17 44t17 43q18 17 44 17t43 -17t17 -43t-17 -44q-17 -17 -43 -17t-44 17z" />
    <glyph glyph-name="cedilla" unicode="&#xb8;" horiz-adv-x="296" 
d="M104 -82l19 82h71l-10 -44q14 -3 20 -5q16 -5 33.5 -25t17.5 -45q0 -39 -32 -64t-80 -25q-54 0 -89 26l-11 8l16 48q25 -25 68 -25q24 0 41 9.5t17 23.5q0 13 -19 22t-42 12z" />
    <glyph glyph-name="onesuperior" unicode="&#xb9;" horiz-adv-x="234" 
d="M116 651l-70 -35l-23 53l111 56h44v-371h-62v297z" />
    <glyph glyph-name="ordmasculine" unicode="&#xba;" horiz-adv-x="372" 
d="M67 402q-48 46 -48 115t48 115q49 47 119 47t119 -47q48 -46 48 -115t-48 -115q-49 -47 -119 -47t-119 47zM187 426q38 0 64 26.5t26 64.5t-26.5 64.5t-64.5 26.5t-64 -26.5t-26 -64.5t26 -64.5t65 -26.5z" />
    <glyph glyph-name="guillemotright" unicode="&#xbb;" horiz-adv-x="500" 
d="M295 402l176 -177l-176 -177l-56 56l122 121l-122 121zM99 402l177 -177l-177 -177l-55 56l121 121l-121 121z" />
    <glyph glyph-name="onequarter" unicode="&#xbc;" horiz-adv-x="767" 
d="M638 278l-121 -146h121v146zM638 0v73h-195v59l199 240h59v-240h49v-59h-49v-73h-63zM116 304v297l-70 -35l-23 53l111 56h44v-371h-62zM646 675l-474 -675h-82l474 675h82z" />
    <glyph glyph-name="onehalf" unicode="&#xbd;" horiz-adv-x="794" 
d="M116 304v297l-70 -35l-23 53l111 56h44v-371h-62zM646 675l-474 -675h-82l474 675h82zM701 260q0 23 -19.5 39.5t-45.5 16.5q-54 0 -76 -57l-57 28q17 41 52.5 65t80.5 24q54 0 91 -34q38 -33 38 -79q0 -57 -79 -127l-80 -77h164v-59h-260v45l137 131q54 52 54 84z" />
    <glyph glyph-name="threequarters" unicode="&#xbe;" horiz-adv-x="841" 
d="M518 73v59l199 240h58v-240h49v-59h-49v-73h-62v73h-195zM244 0h-82l474 675h82zM153 299q-47 0 -83 22.5t-50 59.5l58 20q6 -19 26 -30.5t47 -11.5q33 0 54 16t21 39q0 24 -20.5 39.5t-52.5 15.5h-28v48h20q30 0 51 15t21 37q0 21 -19.5 36t-48.5 15q-53 0 -70 -39
l-55 20q16 36 50.5 57t78.5 21q55 0 92 -31t37 -78q0 -48 -51 -74q60 -26 60 -83q0 -49 -40 -82q-40 -32 -98 -32zM713 278l-122 -146h122v146z" />
    <glyph glyph-name="questiondown" unicode="&#xbf;" horiz-adv-x="512" 
d="M133 -21q0 -43 38.5 -72.5t93.5 -29.5q47 0 83 26t49 69l96 -27q-22 -72 -84 -115.5t-143 -43.5q-96 0 -163 56q-66 56 -66 137q-1 122 150 187l17 6l5 71h86l11 -121q-39 -13 -60 -23q-109 -44 -113 -120zM295 444q18 -17 18 -43t-18 -44q-17 -17 -43 -17t-44 17
q-17 18 -17 44t17 43q18 18 44 18t43 -18z" />
    <glyph glyph-name="Agrave" unicode="&#xc0;" horiz-adv-x="697" 
d="M119 0h-105l294 675h81l293 -675h-104l-62 144h-335zM476 236l-127 297l-128 -297h255zM393 747l-188 89l44 82l175 -115z" />
    <glyph glyph-name="Aacute" unicode="&#xc1;" horiz-adv-x="697" 
d="M119 0h-105l294 675h81l293 -675h-104l-62 144h-335zM476 236l-127 297l-128 -297h255zM301 746l-31 56l175 115l44 -82z" />
    <glyph glyph-name="Acircumflex" unicode="&#xc2;" horiz-adv-x="697" 
d="M119 0h-105l294 675h81l293 -675h-104l-62 144h-335zM476 236l-127 297l-128 -297h255zM235 745l-40 52l149 118h8l149 -118l-39 -51l-114 74z" />
    <glyph glyph-name="Atilde" unicode="&#xc3;" horiz-adv-x="697" 
d="M181 144l-62 -144h-105l294 675h81l293 -675h-104l-62 144h-335zM476 236l-127 297l-128 -297h255zM270 761h-72q0 44 28.5 74.5t69.5 30.5q29 0 57 -22q29 -21 41 -21q13 0 22.5 11t9.5 28h73q0 -45 -28.5 -75.5t-69.5 -30.5q-29 0 -58 21q-28 22 -40 22
q-14 0 -23.5 -11t-9.5 -27z" />
    <glyph glyph-name="Adieresis" unicode="&#xc4;" horiz-adv-x="697" 
d="M181 144l-62 -144h-105l294 675h81l293 -675h-104l-62 144h-335zM476 236l-127 297l-128 -297h255zM446 866q26 0 43 -17t17 -43q0 -25 -17 -41.5t-43 -16.5q-25 0 -42 16.5t-17 41.5t17 42.5t42 17.5zM191 806q0 40 37.5 55.5t64.5 -13.5q28 -26 12 -64.5t-54 -35.5
q-26 0 -43 16.5t-17 41.5z" />
    <glyph glyph-name="Aring" unicode="&#xc5;" horiz-adv-x="697" 
d="M181 144l-62 -144h-105l294 675h81l293 -675h-104l-62 144h-335zM349 954q44 0 75 -31t31 -76q0 -44 -31 -75t-75 -31q-45 0 -76 31t-31 75q0 45 31 76t76 31zM476 236l-127 297l-128 -297h255zM349 806q17 0 29 12t12 29q0 18 -12 30t-29 12q-18 0 -30 -12t-12 -30
q0 -17 12 -29t30 -12z" />
    <glyph glyph-name="AE" unicode="&#xc6;" horiz-adv-x="963" 
d="M217 144l-89 -144h-114l422 675h486v-93h-346v-194h295v-93h-295v-202h351v-93h-451v144h-259zM274 236h202v327z" />
    <glyph glyph-name="Ccedilla" unicode="&#xc7;" horiz-adv-x="745" 
d="M46 337q0 150 100 250t249 100q101 0 183 -48t125 -132l-96 -37q-33 57 -88.5 89t-123.5 32q-106 0 -176 -73q-70 -71 -70 -181q0 -108 70 -181q71 -72 176 -72q68 0 123.5 32t88.5 89l96 -37q-40 -74 -109 -121t-156 -57l-8 -34q14 -3 20 -5q16 -5 33.5 -25t17.5 -45
q0 -39 -32 -64t-80 -25q-54 0 -89 26l-11 8l16 48q25 -25 68 -25q24 0 41 9.5t17 23.5q0 13 -19 22t-42 12l-20 2l16 71q-137 10 -230 109q-90 97 -90 239z" />
    <glyph glyph-name="Egrave" unicode="&#xc8;" 
d="M69 675h490v-93h-390v-194h339v-93h-339v-202h395v-93h-495v675zM386 803l-31 -56l-188 89l44 82z" />
    <glyph glyph-name="Eacute" unicode="&#xc9;" 
d="M69 675h490v-93h-390v-194h339v-93h-339v-202h395v-93h-495v675zM263 746l-31 56l175 115l44 -82z" />
    <glyph glyph-name="Ecircumflex" unicode="&#xca;" 
d="M69 675h490v-93h-390v-194h339v-93h-339v-202h395v-93h-495v675zM196 745l-39 52l149 118h8l149 -118l-40 -51l-113 74z" />
    <glyph glyph-name="Edieresis" unicode="&#xcb;" 
d="M69 675h490v-93h-390v-194h339v-93h-339v-202h395v-93h-495v675zM349 806q0 26 17 43t42 17t42 -17t17 -43q0 -25 -16.5 -41.5t-42.5 -16.5t-42.5 16.5t-16.5 41.5zM153 806q0 26 17 43t42 17t42 -17t17 -43q0 -25 -16.5 -41.5t-42.5 -16.5t-42.5 16.5t-16.5 41.5z" />
    <glyph glyph-name="Igrave" unicode="&#xcc;" horiz-adv-x="239" 
d="M169 0h-100v675h100v-675zM164 747l-188 89l44 82l175 -115z" />
    <glyph glyph-name="Iacute" unicode="&#xcd;" horiz-adv-x="239" 
d="M169 0h-100v675h100v-675zM72 746l-31 56l175 115l44 -82z" />
    <glyph glyph-name="Icircumflex" unicode="&#xce;" horiz-adv-x="239" 
d="M169 0h-100v675h100v-675zM119 820l-114 -75l-39 52l149 118h8l149 -118l-39 -51z" />
    <glyph glyph-name="Idieresis" unicode="&#xcf;" horiz-adv-x="239" 
d="M169 0h-100v675h100v-675zM-38 806q0 26 17 43t43 17q25 0 42 -17.5t17 -42.5t-17 -41.5t-42 -16.5q-26 0 -43 16.5t-17 41.5zM277 806q0 -25 -17 -41.5t-43 -16.5q-39 -3 -54.5 35.5t12.5 64.5q27 29 64.5 13.5t37.5 -55.5z" />
    <glyph glyph-name="Eth" unicode="&#xd0;" horiz-adv-x="748" 
d="M10 296v83h74v296h269q149 0 249 -97t100 -240q0 -144 -100 -241t-249 -97h-269v296h-74zM184 582v-203h199v-83h-199v-203h169q105 0 175 70q71 71 71 175q0 102 -71 173t-175 71h-169z" />
    <glyph glyph-name="Ntilde" unicode="&#xd1;" horiz-adv-x="721" 
d="M166 0h-97v675h88l399 -504v504h96v-675h-88l-398 502v-502zM282 761h-72q0 44 28.5 74.5t69.5 30.5q30 0 58 -22q29 -21 40 -21q13 0 23 11t10 28h72q0 -45 -28 -75.5t-70 -30.5q-29 0 -58 21q-28 22 -40 22q-14 0 -23.5 -11t-9.5 -27z" />
    <glyph glyph-name="Ograve" unicode="&#xd2;" horiz-adv-x="790" 
d="M46 337q0 150 100 250t249 100t249 -100q101 -101 101 -250q0 -148 -101 -249q-100 -100 -249 -100t-249 100t-100 249zM149 337q0 -108 70 -181q71 -72 176 -72q104 0 175 72q71 74 71 181q0 108 -71 181q-70 73 -175 73q-106 0 -176 -73q-70 -71 -70 -181zM440 747
l-188 89l44 82l175 -115z" />
    <glyph glyph-name="Oacute" unicode="&#xd3;" horiz-adv-x="790" 
d="M46 337q0 150 100 250t249 100t249 -100q101 -101 101 -250q0 -148 -101 -249q-100 -100 -249 -100t-249 100t-100 249zM149 337q0 -108 70 -181q71 -72 176 -72q104 0 175 72q71 74 71 181q0 108 -71 181q-70 73 -175 73q-106 0 -176 -73q-70 -71 -70 -181zM348 746
l-31 56l175 115l44 -82z" />
    <glyph glyph-name="Ocircumflex" unicode="&#xd4;" horiz-adv-x="790" 
d="M46 337q0 150 100 250t249 100t249 -100q101 -101 101 -250q0 -148 -101 -249q-100 -100 -249 -100t-249 100t-100 249zM149 337q0 -108 70 -181q71 -72 176 -72q104 0 175 72q71 74 71 181q0 108 -71 181q-70 73 -175 73q-106 0 -176 -73q-70 -71 -70 -181zM395 820
l-114 -75l-39 52l149 118h8l149 -118l-39 -51z" />
    <glyph glyph-name="Otilde" unicode="&#xd5;" horiz-adv-x="790" 
d="M46 337q0 150 100 250t249 100t249 -100q101 -101 101 -250q0 -148 -101 -249q-100 -100 -249 -100t-249 100t-100 249zM149 337q0 -108 70 -181q71 -72 176 -72q104 0 175 72q71 74 71 181q0 108 -71 181q-70 73 -175 73q-106 0 -176 -73q-70 -71 -70 -181zM317 761h-72
q0 44 28 74.5t69 30.5q30 0 58 -22q28 -21 40 -21q14 0 23.5 11t9.5 28h72q0 -45 -28 -75.5t-69 -30.5q-31 0 -59 21q-28 22 -39 22q-14 0 -23.5 -11t-9.5 -27z" />
    <glyph glyph-name="Odieresis" unicode="&#xd6;" horiz-adv-x="790" 
d="M46 337q0 150 100 250t249 100t249 -100q101 -101 101 -250q0 -148 -101 -249q-100 -100 -249 -100t-249 100t-100 249zM149 337q0 -108 70 -181q71 -72 176 -72q104 0 175 72q71 74 71 181q0 108 -71 181q-70 73 -175 73q-106 0 -176 -73q-70 -71 -70 -181zM238 806
q0 26 17 43t43 17q25 0 42 -17.5t17 -42.5t-17 -41.5t-42 -16.5q-26 0 -43 16.5t-17 41.5zM434 806q0 26 17 43t42 17t42 -17t17 -43q0 -25 -16.5 -41.5t-42.5 -16.5t-42.5 16.5t-16.5 41.5z" />
    <glyph glyph-name="multiply" unicode="&#xd7;" 
d="M239 338l-153 153l60 61l154 -154l154 154l60 -61l-153 -153l153 -154l-60 -60l-154 153l-154 -153l-60 60z" />
    <glyph glyph-name="Oslash" unicode="&#xd8;" horiz-adv-x="790" 
d="M135 31l28 41q-117 100 -117 266q0 149 100 249t249 100q92 0 169 -41l29 41l64 -45l-29 -41q55 -48 85.5 -116.5t30.5 -146.5q0 -150 -100 -250t-249 -100q-94 0 -167 40l-29 -41zM570 518l-285 -408q50 -26 110 -26q104 0 175 72q71 74 71 182q0 106 -71 180zM221 156
l286 409q-55 26 -112 26q-106 0 -176 -73q-70 -71 -70 -180q0 -110 72 -182z" />
    <glyph glyph-name="Ugrave" unicode="&#xd9;" horiz-adv-x="698" 
d="M538 270v405h100v-405q0 -120 -83 -201t-206 -81q-125 0 -207 81q-83 81 -83 201v405h100v-405q0 -81 54 -135q55 -54 136 -54t135 54t54 135zM394 747l-188 89l44 82l175 -115z" />
    <glyph glyph-name="Uacute" unicode="&#xda;" horiz-adv-x="698" 
d="M538 270v405h100v-405q0 -120 -83 -201t-206 -81q-125 0 -207 81q-83 81 -83 201v405h100v-405q0 -81 54 -135q55 -54 136 -54t135 54t54 135zM301 746l-31 56l175 115l44 -82z" />
    <glyph glyph-name="Ucircumflex" unicode="&#xdb;" horiz-adv-x="698" 
d="M538 270v405h100v-405q0 -120 -83 -201t-206 -81q-125 0 -207 81q-83 81 -83 201v405h100v-405q0 -81 54 -135q55 -54 136 -54t135 54t54 135zM349 820l-114 -75l-39 52l149 118h8l149 -118l-40 -51z" />
    <glyph glyph-name="Udieresis" unicode="&#xdc;" horiz-adv-x="698" 
d="M538 270v405h100v-405q0 -120 -83 -201t-206 -81q-125 0 -207 81q-83 81 -83 201v405h100v-405q0 -81 54 -135q55 -54 136 -54t135 54t54 135zM192 806q-3 39 36 55t65 -13q28 -26 12 -64.5t-54 -35.5q-26 0 -42.5 16.5t-16.5 41.5zM388 806q-3 39 36 55t65 -13
q28 -26 12 -64.5t-54 -35.5q-26 0 -42.5 16.5t-16.5 41.5z" />
    <glyph glyph-name="Yacute" unicode="&#xdd;" horiz-adv-x="651" 
d="M275 274l-261 401h115l195 -306l198 306h115l-262 -397l-1 -278h-99v274zM466 835l-188 -89l-31 56l175 115z" />
    <glyph glyph-name="Thorn" unicode="&#xde;" horiz-adv-x="632" 
d="M69 0v675h100v-126h198q97 0 159 -61q64 -60 64 -150q0 -91 -64 -152q-63 -60 -159 -60h-198v-126h-100zM367 456h-198v-237h198q51 0 85.5 34t34.5 85q0 50 -34.5 84t-85.5 34z" />
    <glyph glyph-name="germandbls" unicode="&#xdf;" horiz-adv-x="550" 
d="M251 646q-45 0 -75 -29t-30 -73v-544h-90v557q0 77 55 128t137 51q78 0 133 -47q54 -47 54 -112q2 -34 -20.5 -65.5t-45 -56t-20.5 -39.5q0 -30 59 -74q23 -16 38 -29.5t33.5 -36t28 -51.5t9.5 -64q0 -169 -240 -169v91q78 0 111.5 18.5t33.5 61.5q0 27 -12.5 49.5
t-31 37.5t-40 31.5t-40 32.5t-31 40.5t-12.5 54.5q-1 34 21 67.5t44 59.5t20 42q0 27 -26.5 47.5t-62.5 20.5z" />
    <glyph glyph-name="agrave" unicode="&#xe0;" horiz-adv-x="552" 
d="M257 -12q-93 0 -158 68q-63 67 -63 169q0 101 63 169q65 68 158 68q87 0 149 -59v47h90v-450h-90v47q-62 -59 -149 -59zM169 329q-39 -42 -39 -104t39 -104q41 -42 98 -42q58 0 97 42q40 41 40 104t-40 104q-39 42 -97 42q-57 0 -98 -42zM353 596l-31 -56l-188 90l44 81z
" />
    <glyph glyph-name="aacute" unicode="&#xe1;" horiz-adv-x="552" 
d="M257 -12q-93 0 -158 68q-63 67 -63 169q0 101 63 169q65 68 158 68q87 0 149 -59v47h90v-450h-90v47q-62 -59 -149 -59zM169 329q-39 -42 -39 -104t39 -104q41 -42 98 -42q58 0 97 42q40 41 40 104t-40 104q-39 42 -97 42q-57 0 -98 -42zM418 629l-188 -90l-31 56
l175 115z" />
    <glyph glyph-name="acircumflex" unicode="&#xe2;" horiz-adv-x="552" 
d="M257 -12q-93 0 -158 68q-63 67 -63 169q0 101 63 169q65 68 158 68q87 0 149 -59v47h90v-450h-90v47q-62 -59 -149 -59zM169 329q-39 -42 -39 -104t39 -104q41 -42 98 -42q58 0 97 42q40 41 40 104t-40 104q-39 42 -97 42q-57 0 -98 -42zM163 539l-39 52l149 118h8
l149 -118l-40 -52l-113 75z" />
    <glyph glyph-name="atilde" unicode="&#xe3;" horiz-adv-x="552" 
d="M257 -12q-93 0 -158 68q-63 67 -63 169q0 101 63 169q65 68 158 68q87 0 149 -59v47h90v-450h-90v47q-62 -59 -149 -59zM169 329q-39 -42 -39 -104t39 -104q41 -42 98 -42q58 0 97 42q40 41 40 104t-40 104q-39 42 -97 42q-57 0 -98 -42zM199 555h-73q0 44 28.5 74.5
t69.5 30.5q30 0 58 -22q28 -21 40 -21q14 0 23.5 11t9.5 27h72q0 -45 -28 -75t-69 -30q-30 0 -59 21q-28 22 -40 22q-14 0 -23 -11t-9 -27z" />
    <glyph glyph-name="adieresis" unicode="&#xe4;" horiz-adv-x="552" 
d="M257 462q87 0 149 -59v47h90v-450h-90v47q-62 -59 -149 -59q-93 0 -158 68q-63 67 -63 169q0 101 63 169q65 68 158 68zM364 329q-39 42 -97 42q-57 0 -98 -42q-39 -42 -39 -104t39 -104q41 -42 98 -42q58 0 97 42q40 41 40 104t-40 104zM333 557q-17 17 -17 43t17 43
t42 17t42 -17t17 -43t-17 -43q-17 -16 -42 -16t-42 16zM221 557q-17 -16 -42 -16t-42 16q-17 17 -17 43t17 43t42 17t42 -17t17 -43t-17 -43z" />
    <glyph glyph-name="aring" unicode="&#xe5;" horiz-adv-x="552" 
d="M257 462q87 0 149 -59v47h90v-450h-90v47q-62 -59 -149 -59q-93 0 -158 68q-63 67 -63 169q0 101 63 169q65 68 158 68zM169 329q-39 -42 -39 -104t39 -104q41 -42 98 -42q58 0 97 42q40 41 40 104t-40 104q-39 42 -97 42q-57 0 -98 -42zM201 565q-30 31 -30 76t30 76
q31 31 76 31t76 -31t31 -76t-31 -76q-31 -30 -76 -30t-76 30zM277 600q25 0 35.5 20.5t0 41t-35.5 20.5q-17 0 -29 -12t-12 -29t12 -29t29 -12z" />
    <glyph glyph-name="ae" unicode="&#xe6;" horiz-adv-x="902" 
d="M257 -12q-93 0 -158 68q-63 67 -63 169q0 101 63 169q65 68 158 68q87 0 149 -59v47h90v-50q65 62 154 62q94 0 159 -68t65 -169q0 -3 -2 -33h-373q11 -54 51.5 -86.5t97.5 -32.5q75 0 119 56l87 -27q-29 -53 -81.5 -83.5t-116.5 -30.5q-94 0 -160 63v-51h-90v47
q-62 -59 -149 -59zM169 329q-39 -42 -39 -104t39 -104q41 -42 98 -42q58 0 97 42q40 41 40 104t-40 104q-39 42 -97 42q-57 0 -98 -42zM500 264h281q-12 50 -51.5 81.5t-91.5 31.5q-49 0 -87.5 -31.5t-50.5 -81.5z" />
    <glyph glyph-name="ccedilla" unicode="&#xe7;" horiz-adv-x="516" 
d="M222 -82l17 72q-88 10 -146 76q-57 66 -57 159q0 102 67 169q68 68 169 68q75 0 133 -38t85 -104l-91 -28q-17 36 -51 57.5t-76 21.5q-62 0 -102 -42q-40 -41 -40 -104t40 -104q40 -42 102 -42q42 0 76 21.5t51 57.5l91 -27q-23 -57 -70.5 -94t-109.5 -46l-8 -35
q14 -3 20 -5q16 -5 33.5 -25t17.5 -45q0 -39 -32 -64t-80 -25q-54 0 -89 26l-11 8l16 48q25 -25 68 -25q24 0 41 9.5t17 23.5q0 13 -19 22t-42 12z" />
    <glyph glyph-name="egrave" unicode="&#xe8;" horiz-adv-x="532" 
d="M501 192h-372q11 -52 51.5 -85.5t96.5 -33.5q75 0 119 56l88 -27q-30 -52 -85.5 -83t-121.5 -31q-102 0 -172 68q-69 68 -69 169q0 102 67 169q68 68 167 68q98 0 166 -68q67 -67 67 -169q0 -19 -2 -33zM130 264h280q-12 51 -51 82t-91 31q-50 0 -88.5 -31.5t-49.5 -81.5
zM316 540l-188 90l44 81l175 -115z" />
    <glyph glyph-name="eacute" unicode="&#xe9;" horiz-adv-x="532" 
d="M501 192h-372q11 -52 51.5 -85.5t96.5 -33.5q75 0 119 56l88 -27q-30 -52 -85.5 -83t-121.5 -31q-102 0 -172 68q-69 68 -69 169q0 102 67 169q68 68 167 68q98 0 166 -68q67 -67 67 -169q0 -19 -2 -33zM130 264h280q-12 51 -51 82t-91 31q-50 0 -88.5 -31.5t-49.5 -81.5
zM224 539l-31 56l174 115l45 -81z" />
    <glyph glyph-name="ecircumflex" unicode="&#xea;" horiz-adv-x="532" 
d="M501 192h-372q11 -52 51.5 -85.5t96.5 -33.5q75 0 119 56l88 -27q-30 -52 -85.5 -83t-121.5 -31q-102 0 -172 68q-69 68 -69 169q0 102 67 169q68 68 167 68q98 0 166 -68q67 -67 67 -169q0 -19 -2 -33zM130 264h280q-12 51 -51 82t-91 31q-50 0 -88.5 -31.5t-49.5 -81.5
zM271 614l-114 -75l-39 52l149 118h8l149 -118l-40 -52z" />
    <glyph glyph-name="edieresis" unicode="&#xeb;" horiz-adv-x="532" 
d="M501 192h-372q11 -52 51.5 -85.5t96.5 -33.5q75 0 119 56l88 -27q-30 -52 -85.5 -83t-121.5 -31q-102 0 -172 68q-69 68 -69 169q0 102 67 169q68 68 167 68q98 0 166 -68q67 -67 67 -169q0 -19 -2 -33zM130 264h280q-12 51 -51 82t-91 31q-50 0 -88.5 -31.5t-49.5 -81.5
zM131 557q-17 17 -17 43t17 43t42 17t42 -17t17 -43t-17 -43q-17 -16 -42 -16t-42 16zM327 557q-17 17 -17 43t17 43t42 17t42 -17t17 -43t-17 -43q-17 -16 -42 -16t-42 16z" />
    <glyph glyph-name="igrave" unicode="&#xec;" horiz-adv-x="202" 
d="M146 0h-90v450h90v-450zM-36 630l44 81l175 -115l-31 -55z" />
    <glyph glyph-name="iacute" unicode="&#xed;" horiz-adv-x="202" 
d="M146 0h-90v450h90v-450zM16 595l174 115l45 -81l-188 -89z" />
    <glyph glyph-name="icircumflex" unicode="&#xee;" horiz-adv-x="202" 
d="M146 0h-90v450h90v-450zM-13 539l-40 52l150 118h8l149 -118l-40 -52l-113 75z" />
    <glyph glyph-name="idieresis" unicode="&#xef;" horiz-adv-x="202" 
d="M146 0h-90v450h90v-450zM-46 600q0 26 17 43t43 17q25 0 42 -17.5t17 -42.5t-17 -42t-42 -17q-26 0 -43 17t-17 42zM188 660q26 0 43 -17t17 -43q0 -25 -17 -42t-43 -17q-25 0 -42 17t-17 42t17 42.5t42 17.5z" />
    <glyph glyph-name="eth" unicode="&#xf0;" horiz-adv-x="544" 
d="M272 462q64 0 123 -32q-33 121 -126 161l-54 -85l-63 41l41 64q-39 6 -86 6v90q78 0 139 -14l46 72l63 -40l-36 -57q97 -46 143.5 -153.5t46.5 -289.5q0 -101 -68 -169t-169 -68t-169 68q-67 67 -67 169t67 169q68 68 169 68zM170 329q-40 -41 -40 -104t40 -104
q40 -42 102 -42q60 0 101 42q41 43 41 104t-41 104q-41 42 -101 42q-62 0 -102 -42z" />
    <glyph glyph-name="ntilde" unicode="&#xf1;" horiz-adv-x="528" 
d="M56 0v450h90v-65q51 77 147 77q78 0 129 -51q51 -49 51 -126v-285h-91v259q0 50 -33 83t-82 33q-51 0 -86 -33.5t-35 -83.5v-258h-90zM190 555h-72q0 44 28 74.5t69 30.5q30 0 58 -22q29 -21 40 -21q14 0 23.5 11t9.5 27h72q0 -45 -28 -75t-69 -30q-31 0 -59 21
q-28 22 -39 22q-14 0 -23.5 -11t-9.5 -27z" />
    <glyph glyph-name="ograve" unicode="&#xf2;" horiz-adv-x="544" 
d="M103 56q-67 67 -67 169t67 169q68 68 169 68t169 -68t68 -169t-68 -169t-169 -68t-169 68zM170 329q-40 -41 -40 -104t40 -104q40 -42 102 -42q60 0 101 42q41 43 41 104t-41 104q-41 42 -101 42q-62 0 -102 -42zM317 540l-188 90l44 81l175 -115z" />
    <glyph glyph-name="oacute" unicode="&#xf3;" horiz-adv-x="544" 
d="M103 56q-67 67 -67 169t67 169q68 68 169 68t169 -68t68 -169t-68 -169t-169 -68t-169 68zM170 329q-40 -41 -40 -104t40 -104q40 -42 102 -42q60 0 101 42q41 43 41 104t-41 104q-41 42 -101 42q-62 0 -102 -42zM225 539l-31 56l175 115l44 -81z" />
    <glyph glyph-name="ocircumflex" unicode="&#xf4;" horiz-adv-x="544" 
d="M103 56q-67 67 -67 169t67 169q68 68 169 68t169 -68t68 -169t-68 -169t-169 -68t-169 68zM170 329q-40 -41 -40 -104t40 -104q40 -42 102 -42q60 0 101 42q41 43 41 104t-41 104q-41 42 -101 42q-62 0 -102 -42zM272 614l-114 -75l-39 52l149 118h8l149 -118l-40 -52z
" />
    <glyph glyph-name="otilde" unicode="&#xf5;" horiz-adv-x="544" 
d="M103 56q-67 67 -67 169t67 169q68 68 169 68t169 -68t68 -169t-68 -169t-169 -68t-169 68zM170 329q-40 -41 -40 -104t40 -104q40 -42 102 -42q60 0 101 42q41 43 41 104t-41 104q-41 42 -101 42q-62 0 -102 -42zM194 555h-73q0 44 28.5 74.5t69.5 30.5q30 0 58 -22
q28 -21 40 -21q14 0 23.5 11t9.5 27h72q0 -45 -28 -75t-69 -30q-31 0 -59 21q-28 22 -40 22q-14 0 -23 -11t-9 -27z" />
    <glyph glyph-name="odieresis" unicode="&#xf6;" horiz-adv-x="544" 
d="M103 56q-67 67 -67 169t67 169q68 68 169 68t169 -68t68 -169t-68 -169t-169 -68t-169 68zM170 329q-40 -41 -40 -104t40 -104q40 -42 102 -42q60 0 101 42q41 43 41 104t-41 104q-41 42 -101 42q-62 0 -102 -42zM131 557q-16 18 -16 43.5t17 42.5t42 17t42 -17t17 -43
t-17 -43q-16 -16 -42 -16t-43 16zM327 557q-16 18 -16 43.5t17 42.5t42 17t42 -17t17 -43t-17 -43q-16 -16 -42 -16t-43 16z" />
    <glyph glyph-name="divide" unicode="&#xf7;" 
d="M68 295v85h464v-85h-464zM256 107q-17 17 -17 43t17 43q18 18 44 18t43 -18q18 -17 18 -43t-18 -43q-17 -17 -43 -17t-44 17zM256 481q-17 18 -17 44t17 43q18 17 44 17t43 -17q18 -17 18 -43t-18 -44q-17 -17 -43 -17t-44 17z" />
    <glyph glyph-name="oslash" unicode="&#xf8;" horiz-adv-x="544" 
d="M272 462q57 0 102 -22l16 22l64 -45l-15 -21q70 -67 70 -171q0 -101 -68 -169t-169 -68q-54 0 -102 23l-16 -23l-64 45l15 22q-69 68 -69 170t67 169q68 68 169 68zM383 316l-159 -228q22 -9 48 -9q60 0 101 42q41 43 41 104q0 54 -31 91zM161 134l159 228q-22 9 -48 9
q-62 0 -102 -42q-40 -41 -40 -104q0 -54 31 -91z" />
    <glyph glyph-name="ugrave" unicode="&#xf9;" horiz-adv-x="528" 
d="M235 -12q-78 0 -129 51t-51 127v284h91v-259q0 -50 33 -83t82 -33q52 0 86 34q35 35 35 83v258h90v-450h-90v65q-51 -77 -147 -77zM339 596l-31 -56l-188 90l44 81z" />
    <glyph glyph-name="uacute" unicode="&#xfa;" horiz-adv-x="528" 
d="M55 166v284h91v-259q0 -50 33 -83t82 -33q52 0 86 34q35 35 35 83v258h90v-450h-90v65q-51 -77 -147 -77q-78 0 -129 51t-51 127zM404 629l-188 -90l-31 56l175 115z" />
    <glyph glyph-name="ucircumflex" unicode="&#xfb;" horiz-adv-x="528" 
d="M55 166v284h91v-259q0 -50 33 -83t82 -33q52 0 86 34q35 35 35 83v258h90v-450h-90v65q-51 -77 -147 -77q-78 0 -129 51t-51 127zM263 614l-113 -75l-40 52l150 118h7l149 -118l-39 -52z" />
    <glyph glyph-name="udieresis" unicode="&#xfc;" horiz-adv-x="528" 
d="M55 166v284h91v-259q0 -50 33 -83t82 -33q52 0 86 34q35 35 35 83v258h90v-450h-90v65q-51 -77 -147 -77q-78 0 -129 51t-51 127zM302 600q0 26 17 43t43 17q25 0 42 -17.5t17 -42.5t-17 -42t-42 -17q-26 0 -43 17t-17 42zM166 541q-26 0 -43 17t-17 42q0 26 17 43t43 17
q25 0 42 -17.5t17 -42.5t-17 -42t-42 -17z" />
    <glyph glyph-name="yacute" unicode="&#xfd;" horiz-adv-x="469" 
d="M187 12l-176 438h94l128 -326l131 326h94l-219 -534q-30 -73 -75 -107t-112 -34h-16v87h16q75 0 109 85zM187 539l-31 56l175 115l44 -81z" />
    <glyph glyph-name="thorn" unicode="&#xfe;" horiz-adv-x="552" 
d="M146 -225h-90v950h90v-323q62 60 150 60q94 0 157 -68q64 -67 64 -169t-64 -169q-63 -68 -157 -68q-88 0 -150 60v-273zM382 329q-39 42 -97 42q-57 0 -98 -42q-39 -42 -39 -104t39 -104q41 -42 98 -42q58 0 97 42q40 41 40 104t-40 104z" />
    <glyph glyph-name="ydieresis" unicode="&#xff;" horiz-adv-x="469" 
d="M187 12l-176 438h94l128 -326l131 326h94l-219 -534q-30 -73 -75 -107t-112 -34h-16v87h16q75 0 109 85zM332 660q26 0 43 -17t17 -43q0 -25 -17 -42t-43 -17q-25 0 -42 17t-17 42t17 42.5t42 17.5zM137 541q-26 0 -43 17t-17 42q0 40 37.5 55.5t64.5 -13.5
q28 -26 12 -65t-54 -36z" />
    <glyph glyph-name="Amacron" unicode="&#x100;" horiz-adv-x="697" 
d="M119 0h-105l294 675h81l293 -675h-104l-62 144h-335zM476 236l-127 297l-128 -297h255zM217 775v77h263v-77h-263z" />
    <glyph glyph-name="amacron" unicode="&#x101;" horiz-adv-x="552" 
d="M257 462q87 0 149 -59v47h90v-450h-90v47q-62 -59 -149 -59q-93 0 -158 68q-63 67 -63 169q0 101 63 169q65 68 158 68zM364 329q-39 42 -97 42q-57 0 -98 -42q-39 -42 -39 -104t39 -104q41 -42 98 -42q58 0 97 42q40 41 40 104t-40 104zM409 645v-76h-264v76h264z" />
    <glyph glyph-name="Abreve" unicode="&#x102;" horiz-adv-x="697" 
d="M181 144l-62 -144h-105l294 675h81l293 -675h-104l-62 144h-335zM476 236l-127 297l-128 -297h255zM209 881h72q0 -30 19.5 -50.5t48.5 -20.5t48 20.5t19 50.5h72q0 -59 -40 -99t-99 -40q-60 0 -100 40t-40 99z" />
    <glyph glyph-name="abreve" unicode="&#x103;" horiz-adv-x="552" 
d="M257 -12q-93 0 -158 68q-63 67 -63 169q0 101 63 169q65 68 158 68q87 0 149 -59v47h90v-450h-90v47q-62 -59 -149 -59zM169 329q-39 -42 -39 -104t39 -104q41 -42 98 -42q58 0 97 42q40 41 40 104t-40 104q-39 42 -97 42q-57 0 -98 -42zM137 675h73q0 -30 19.5 -50.5
t48.5 -20.5q28 0 47.5 20.5t19.5 50.5h72q0 -59 -40 -99t-100 -40t-100 40t-40 99z" />
    <glyph glyph-name="Aogonek" unicode="&#x104;" horiz-adv-x="697" 
d="M119 0h-105l294 675h81l293 -675h-14q-4 -3 -15 -14q-10 -11 -25 -35q-15 -26 -15 -47q0 -18 11 -28.5t27 -10.5q27 0 45 20l6 7l31 -37q-5 -6 -14 -14q-8 -9 -35 -23q-26 -15 -53 -15q-38 0 -63.5 24t-25.5 61q0 25 14 53t30 45l15 14h-23l-62 144h-335zM476 236
l-127 297l-128 -297h255z" />
    <glyph glyph-name="aogonek" unicode="&#x105;" horiz-adv-x="552" 
d="M257 -12q-93 0 -158 68q-63 67 -63 169q0 101 63 169q65 68 158 68q87 0 149 -59v47h90v-450h-12q-4 -3 -15 -14q-10 -11 -25 -35q-15 -25 -15 -47q0 -18 11 -28.5t27 -10.5q27 0 45 20l6 7l31 -37q-5 -6 -14 -14q-8 -9 -35 -23q-26 -15 -53 -15q-38 0 -63 24t-25 61
q0 25 13.5 53t29.5 45l15 14h-11v47q-62 -59 -149 -59zM169 329q-39 -42 -39 -104t39 -104q41 -42 98 -42q58 0 97 42q40 41 40 104t-40 104q-39 42 -97 42q-57 0 -98 -42z" />
    <glyph glyph-name="Cacute" unicode="&#x106;" horiz-adv-x="745" 
d="M46 337q0 150 100 250t249 100q101 0 183 -48t125 -132l-96 -37q-33 57 -88.5 89t-123.5 32q-106 0 -176 -73q-70 -71 -70 -181q0 -108 70 -181q71 -72 176 -72q68 0 123.5 32t88.5 89l96 -37q-43 -84 -125 -132t-183 -48q-149 0 -249 100t-100 249zM345 746l-31 56
l175 115l44 -82z" />
    <glyph glyph-name="cacute" unicode="&#x107;" horiz-adv-x="516" 
d="M490 320l-91 -28q-17 36 -51 57.5t-76 21.5q-62 0 -102 -42q-40 -41 -40 -104t40 -104q40 -42 102 -42q42 0 76 21.5t51 57.5l91 -27q-27 -66 -85.5 -104.5t-132.5 -38.5q-101 0 -169 68q-67 67 -67 169t67 169q68 68 169 68q75 0 133 -38t85 -104zM225 539l-31 56
l175 115l44 -81z" />
    <glyph glyph-name="Ccircumflex" unicode="&#x108;" horiz-adv-x="745" 
d="M46 337q0 150 100 250t249 100q101 0 183 -48t125 -132l-96 -37q-33 57 -88.5 89t-123.5 32q-106 0 -176 -73q-70 -71 -70 -181q0 -108 70 -181q71 -72 176 -72q68 0 123.5 32t88.5 89l96 -37q-43 -84 -125 -132t-183 -48q-149 0 -249 100t-100 249zM392 820l-114 -75
l-39 52l149 118h8l149 -118l-39 -51z" />
    <glyph glyph-name="ccircumflex" unicode="&#x109;" horiz-adv-x="516" 
d="M490 320l-91 -28q-17 36 -51 57.5t-76 21.5q-62 0 -102 -42q-40 -41 -40 -104t40 -104q40 -42 102 -42q42 0 76 21.5t51 57.5l91 -27q-27 -66 -85.5 -104.5t-132.5 -38.5q-101 0 -169 68q-67 67 -67 169t67 169q68 68 169 68q75 0 133 -38t85 -104zM272 614l-114 -75
l-39 52l149 118h8l149 -118l-39 -52z" />
    <glyph glyph-name="Cdotaccent" unicode="&#x10a;" horiz-adv-x="745" 
d="M46 337q0 150 100 250t249 100q101 0 183 -48t125 -132l-96 -37q-33 57 -88.5 89t-123.5 32q-106 0 -176 -73q-70 -71 -70 -181q0 -108 70 -181q71 -72 176 -72q68 0 123.5 32t88.5 89l96 -37q-43 -84 -125 -132t-183 -48q-149 0 -249 100t-100 249zM330 809q0 26 18 44
t44 18q27 0 44.5 -18t17.5 -44q0 -27 -17.5 -44.5t-44.5 -17.5q-26 0 -44 17.5t-18 44.5z" />
    <glyph glyph-name="cdotaccent" unicode="&#x10b;" horiz-adv-x="516" 
d="M490 320l-91 -28q-17 36 -51 57.5t-76 21.5q-62 0 -102 -42q-40 -41 -40 -104t40 -104q40 -42 102 -42q42 0 76 21.5t51 57.5l91 -27q-27 -66 -85.5 -104.5t-132.5 -38.5q-101 0 -169 68q-67 67 -67 169t67 169q68 68 169 68q75 0 133 -38t85 -104zM210 602q0 27 18 45
t44 18q27 0 44.5 -18t17.5 -45q0 -26 -17.5 -44t-44.5 -18q-26 0 -44 18t-18 44z" />
    <glyph glyph-name="Ccaron" unicode="&#x10c;" horiz-adv-x="745" 
d="M46 337q0 150 100 250t249 100q101 0 183 -48t125 -132l-96 -37q-33 57 -88.5 89t-123.5 32q-106 0 -176 -73q-70 -71 -70 -181q0 -108 70 -181q71 -72 176 -72q68 0 123.5 32t88.5 89l96 -37q-43 -84 -125 -132t-183 -48q-149 0 -249 100t-100 249zM392 840l114 75
l40 -51l-150 -118h-8l-149 118l39 52z" />
    <glyph glyph-name="ccaron" unicode="&#x10d;" horiz-adv-x="516" 
d="M490 320l-91 -28q-17 36 -51 57.5t-76 21.5q-62 0 -102 -42q-40 -41 -40 -104t40 -104q40 -42 102 -42q42 0 76 21.5t51 57.5l91 -27q-27 -66 -85.5 -104.5t-132.5 -38.5q-101 0 -169 68q-67 67 -67 169t67 169q68 68 169 68q75 0 133 -38t85 -104zM272 634l114 75
l39 -52l-149 -117h-8l-149 117l39 53z" />
    <glyph glyph-name="Dcaron" unicode="&#x10e;" horiz-adv-x="733" 
d="M338 0h-269v675h269q148 0 249 -98t101 -240t-101 -240q-100 -97 -249 -97zM338 582h-169v-489h169q105 0 175 70q71 71 71 174t-71 174t-175 71zM249 746l-150 118l40 52l114 -76l114 75l39 -51l-150 -118h-7z" />
    <glyph glyph-name="dcaron" unicode="&#x10f;" horiz-adv-x="670" 
d="M257 462q89 0 149 -65v328h90v-725h-90v53q-60 -65 -149 -65q-93 0 -158 68q-63 67 -63 169q0 101 63 169q65 68 158 68zM605 737q24 0 39.5 -18.5t15.5 -48.5q0 -20 -8.5 -39t-18.5 -31t-23.5 -23t-19.5 -14.5t-9 -5.5l-24 25l11 10q8 7 18 21.5t10 22.5
q-18 3 -30.5 17.5t-12.5 34.5t15 34.5t37 14.5zM366 329q-39 42 -98 42q-58 0 -99 -42q-39 -42 -39 -104t39 -104q41 -42 99 -42q59 0 98 42q40 41 40 104t-40 104z" />
    <glyph glyph-name="Dcroat" unicode="&#x110;" horiz-adv-x="748" 
d="M10 296v83h74v296h269q149 0 249 -97t100 -240q0 -144 -100 -241t-249 -97h-269v296h-74zM184 582v-203h199v-83h-199v-203h169q105 0 175 70q71 71 71 175q0 102 -71 173t-175 71h-169z" />
    <glyph glyph-name="dslash" unicode="&#x111;" horiz-adv-x="552" 
d="M257 462q87 0 149 -59v145h-155v75h155v102h90v-102h49v-75h-49v-548h-90v47q-62 -59 -149 -59q-93 0 -158 68q-63 67 -63 169q0 101 63 169q65 68 158 68zM364 329q-39 42 -97 42q-57 0 -98 -42q-39 -42 -39 -104t39 -104q41 -42 98 -42q58 0 97 42q40 41 40 104
t-40 104z" />
    <glyph glyph-name="Emacron" unicode="&#x112;" 
d="M69 675h490v-93h-390v-194h339v-93h-339v-202h395v-93h-495v675zM178 775v77h264v-77h-264z" />
    <glyph glyph-name="emacron" unicode="&#x113;" horiz-adv-x="532" 
d="M501 192h-372q11 -52 51.5 -85.5t96.5 -33.5q75 0 119 56l88 -27q-30 -52 -85.5 -83t-121.5 -31q-102 0 -172 68q-69 68 -69 169q0 102 67 169q68 68 167 68q98 0 166 -68q67 -67 67 -169q0 -19 -2 -33zM130 264h280q-12 51 -51 82t-91 31q-50 0 -88.5 -31.5t-49.5 -81.5
zM403 569h-264v76h264v-76z" />
    <glyph glyph-name="Ebreve" unicode="&#x114;" 
d="M69 675h490v-93h-390v-194h339v-93h-339v-202h395v-93h-495v675zM170 881h73q0 -30 19.5 -50.5t48.5 -20.5q28 0 47.5 20.5t19.5 50.5h72q0 -59 -40 -99t-100 -40t-100 40t-40 99z" />
    <glyph glyph-name="ebreve" unicode="&#x115;" horiz-adv-x="532" 
d="M501 192h-372q11 -52 51.5 -85.5t96.5 -33.5q75 0 119 56l88 -27q-30 -52 -85.5 -83t-121.5 -31q-102 0 -172 68q-69 68 -69 169q0 102 67 169q68 68 167 68q98 0 166 -68q67 -67 67 -169q0 -19 -2 -33zM130 264h280q-12 51 -51 82t-91 31q-50 0 -88.5 -31.5t-49.5 -81.5
zM131 675h73q0 -30 19.5 -50.5t48.5 -20.5q28 0 47 20.5t19 50.5h73q0 -59 -40 -99t-100 -40t-100 40t-40 99z" />
    <glyph glyph-name="Edotaccent" unicode="&#x116;" 
d="M69 675h490v-93h-390v-194h339v-93h-339v-202h395v-93h-495v675zM248 809q0 26 17.5 44t44.5 18q26 0 44 -18t18 -44q0 -27 -18 -44.5t-44 -17.5q-27 0 -44.5 17.5t-17.5 44.5z" />
    <glyph glyph-name="edotaccent" unicode="&#x117;" horiz-adv-x="532" 
d="M501 192h-372q11 -52 51.5 -85.5t96.5 -33.5q75 0 119 56l88 -27q-30 -52 -85.5 -83t-121.5 -31q-102 0 -172 68q-69 68 -69 169q0 102 67 169q68 68 167 68q98 0 166 -68q67 -67 67 -169q0 -19 -2 -33zM130 264h280q-12 51 -51 82t-91 31q-50 0 -88.5 -31.5t-49.5 -81.5
zM209 602q0 27 17.5 45t44.5 18q26 0 44 -18t18 -45q0 -26 -18 -44t-44 -18q-27 0 -44.5 18t-17.5 44z" />
    <glyph glyph-name="Eogonek" unicode="&#x118;" 
d="M463 0h-394v675h490v-93h-390v-194h339v-93h-339v-202h395v-93h-34q-4 -3 -15 -14q-10 -11 -25 -35q-15 -26 -15 -47q0 -18 11 -28.5t27 -10.5q27 0 45 20l6 7l31 -37q-5 -6 -14 -14q-8 -9 -35 -23q-26 -15 -53 -15q-38 0 -63.5 24t-25.5 61q0 25 14 53t30 45z" />
    <glyph glyph-name="eogonek" unicode="&#x119;" horiz-adv-x="532" 
d="M260 -12q-97 6 -161 73q-63 67 -63 164q0 102 67 169q68 68 167 68q98 0 166 -68q67 -67 67 -169q0 -19 -2 -33h-372q11 -52 51.5 -85.5t96.5 -33.5q75 0 119 56l88 -27q-50 -86 -151 -108q-49 -49 -49 -90q0 -18 10.5 -28.5t26.5 -10.5q27 0 45 20l7 7l30 -37
q-5 -6 -14 -14q-8 -9 -35 -23q-26 -15 -53 -15q-38 0 -63 24t-25 61q0 50 47 100zM130 264h280q-12 51 -51 82t-91 31q-50 0 -88.5 -31.5t-49.5 -81.5z" />
    <glyph glyph-name="Ecaron" unicode="&#x11a;" 
d="M69 675h490v-93h-390v-194h339v-93h-339v-202h395v-93h-495v675zM306 746l-149 118l39 52l114 -76l114 75l39 -51l-149 -118h-8z" />
    <glyph glyph-name="ecaron" unicode="&#x11b;" horiz-adv-x="532" 
d="M501 192h-372q11 -52 51.5 -85.5t96.5 -33.5q75 0 119 56l88 -27q-30 -52 -85.5 -83t-121.5 -31q-102 0 -172 68q-69 68 -69 169q0 102 67 169q68 68 167 68q98 0 166 -68q67 -67 67 -169q0 -19 -2 -33zM130 264h280q-12 51 -51 82t-91 31q-50 0 -88.5 -31.5t-49.5 -81.5
zM271 634l114 75l39 -52l-149 -117h-8l-149 117l39 53z" />
    <glyph glyph-name="Gcircumflex" unicode="&#x11c;" horiz-adv-x="786" 
d="M46 337q0 149 101 250q101 100 254 100q102 0 184.5 -48t127.5 -132l-97 -37q-32 57 -89 89t-126 32q-107 0 -180 -73q-72 -72 -72 -181q0 -107 69 -181q71 -72 172 -72q87 0 152 52q66 53 84 134h-251v93h363q2 -26 2 -30q-1 -146 -101 -246q-99 -99 -246 -99
q-148 0 -248 100q-99 100 -99 249zM392 820l-114 -75l-39 52l149 118h8l149 -118l-39 -51z" />
    <glyph glyph-name="gcircumflex" unicode="&#x11d;" horiz-adv-x="552" 
d="M257 462q87 0 149 -59v47h90v-461q0 -97 -66 -161q-65 -65 -162 -65q-71 0 -131 36t-84 93l91 27q14 -29 48 -47.5t73 -18.5q59 0 100 39t41 97v58q-62 -59 -149 -59q-93 0 -158 68q-63 67 -63 169q0 101 63 169q65 68 158 68zM267 371q-59 0 -99 -42q-39 -42 -39 -104
t39 -104q40 -42 99 -42q58 0 97 42q40 41 40 104t-40 104q-39 42 -97 42zM270 614l-114 -75l-40 52l150 118h8l149 -118l-40 -52z" />
    <glyph glyph-name="Gbreve" unicode="&#x11e;" horiz-adv-x="786" 
d="M46 337q0 149 101 250q101 100 254 100q102 0 184.5 -48t127.5 -132l-97 -37q-32 57 -89 89t-126 32q-107 0 -180 -73q-72 -72 -72 -181q0 -107 69 -181q71 -72 172 -72q87 0 152 52q66 53 84 134h-251v93h363q2 -26 2 -30q-1 -146 -101 -246q-99 -99 -246 -99
q-148 0 -248 100q-99 100 -99 249zM253 881h72q0 -30 19.5 -50.5t48.5 -20.5q28 0 47.5 20.5t19.5 50.5h72q0 -59 -40 -99t-100 -40q-59 0 -99 40t-40 99z" />
    <glyph glyph-name="gbreve" unicode="&#x11f;" horiz-adv-x="552" 
d="M257 -12q-93 0 -158 68q-63 67 -63 169q0 101 63 169q65 68 158 68q87 0 149 -59v47h90v-461q0 -97 -66 -161q-65 -65 -162 -65q-71 0 -131 36t-84 93l91 27q14 -29 48 -47.5t73 -18.5q59 0 100 39t41 97v58q-62 -59 -149 -59zM267 371q-59 0 -99 -42q-39 -42 -39 -104
t39 -104q40 -42 99 -42q58 0 97 42q40 41 40 104t-40 104q-39 42 -97 42zM130 675h73q0 -30 19.5 -50.5t47.5 -20.5q29 0 48 20.5t19 50.5h73q0 -59 -40 -99t-100 -40t-100 40t-40 99z" />
    <glyph glyph-name="Gdotaccent" unicode="&#x120;" horiz-adv-x="786" 
d="M46 337q0 149 101 250q101 100 254 100q102 0 184.5 -48t127.5 -132l-97 -37q-32 57 -89 89t-126 32q-107 0 -180 -73q-72 -72 -72 -181q0 -107 69 -181q71 -72 172 -72q87 0 152 52q66 53 84 134h-251v93h363q2 -26 2 -30q-1 -146 -101 -246q-99 -99 -246 -99
q-148 0 -248 100q-99 100 -99 249zM330 809q0 26 18 44t44 18q27 0 44.5 -18t17.5 -44q0 -27 -17.5 -44.5t-44.5 -17.5q-26 0 -44 17.5t-18 44.5z" />
    <glyph glyph-name="gdotaccent" unicode="&#x121;" horiz-adv-x="552" 
d="M257 -12q-93 0 -158 68q-63 67 -63 169q0 101 63 169q65 68 158 68q87 0 149 -59v47h90v-461q0 -97 -66 -161q-65 -65 -162 -65q-71 0 -131 36t-84 93l91 27q14 -29 48 -47.5t73 -18.5q59 0 100 39t41 97v58q-62 -59 -149 -59zM267 79q58 0 97 42q40 41 40 104t-40 104
q-39 42 -97 42q-59 0 -99 -42q-39 -42 -39 -104t39 -104q40 -42 99 -42zM270 540q-27 0 -44.5 18t-17.5 44q0 27 17.5 45t44.5 18q26 0 44 -18t18 -45q0 -26 -18 -44t-44 -18z" />
    <glyph glyph-name="uni0122" unicode="&#x122;" horiz-adv-x="786" 
d="M46 337q0 149 101 250q101 100 254 100q102 0 184.5 -48t127.5 -132l-97 -37q-32 57 -89 89t-126 32q-107 0 -180 -73q-72 -72 -72 -181q0 -107 69 -181q71 -72 172 -72q87 0 152 52q66 53 84 134h-251v93h363q2 -26 2 -30q-1 -146 -101 -246q-99 -99 -246 -99
q-148 0 -248 100q-99 100 -99 249zM461 -118q0 -20 -8.5 -39.5t-18.5 -31.5t-23.5 -23t-19.5 -14.5t-9 -5.5l-24 25l11 10q8 7 18 21.5t10 22.5q-18 3 -30.5 17.5t-12.5 34.5t14.5 34.5t36.5 14.5q24 0 40 -18t16 -48z" />
    <glyph glyph-name="uni0123" unicode="&#x123;" horiz-adv-x="552" 
d="M257 -12q-93 0 -158 68q-63 67 -63 169q0 101 63 169q65 68 158 68q87 0 149 -59v47h90v-461q0 -97 -66 -161q-65 -65 -162 -65q-71 0 -131 36t-84 93l91 27q14 -29 48 -47.5t73 -18.5q59 0 100 39t41 97v58q-62 -59 -149 -59zM267 371q-59 0 -99 -42q-39 -42 -39 -104
t39 -104q40 -42 99 -42q58 0 97 42q40 41 40 104t-40 104q-39 42 -97 42zM213 601q0 10 2 20.5t6 19t9 16.5t10.5 14.5t11.5 12.5t11.5 10l11 8t9 6.5t6.5 3.5l3 2l24 -25l-12 -10q-28 -28 -28 -44q18 -2 30.5 -17t12.5 -34q0 -21 -14.5 -35t-36.5 -14q-24 0 -40 18t-16 48z
" />
    <glyph glyph-name="Hcircumflex" unicode="&#x124;" horiz-adv-x="718" 
d="M169 0h-100v675h100v-287h379v287h100v-675h-100v295h-379v-295zM245 745l-40 52l149 118h8l149 -118l-39 -51l-114 74z" />
    <glyph glyph-name="hcircumflex" unicode="&#x125;" horiz-adv-x="534" 
d="M146 258v-258h-90v725h90v-340q51 77 150 77q78 0 131 -51q52 -49 52 -127v-284h-91v259q0 50 -33.5 83t-84.5 33q-53 0 -88.5 -33.5t-35.5 -83.5zM102 844l-114 -75l-40 52l150 118h8l149 -118l-40 -52z" />
    <glyph glyph-name="Hbar" unicode="&#x126;" horiz-adv-x="739" 
d="M655 675v-109h74v-83h-74v-483h-101v295h-378v-295h-100v483h-66v83h66v109h100v-109h378v109h101zM554 388v95h-378v-95h378z" />
    <glyph glyph-name="hbar" unicode="&#x127;" horiz-adv-x="534" 
d="M146 725v-102h155v-75h-155v-163q51 77 150 77q78 0 131 -51q52 -49 52 -127v-284h-91v259q0 50 -33.5 83t-84.5 33q-53 0 -88.5 -33.5t-35.5 -83.5v-258h-90v548h-49v75h49v102h90z" />
    <glyph glyph-name="Itilde" unicode="&#x128;" horiz-adv-x="239" 
d="M169 0h-100v675h100v-675zM41 761h-72q0 44 28 74.5t69 30.5q31 0 59 -22q28 -21 40 -21q13 0 22.5 11t9.5 28h72q0 -45 -28 -75.5t-69 -30.5q-30 0 -59 21q-28 22 -39 22q-14 0 -23.5 -11t-9.5 -27z" />
    <glyph glyph-name="itilde" unicode="&#x129;" horiz-adv-x="209" 
d="M150 0h-90v450h90v-450zM26 555h-72q0 44 28.5 74.5t69.5 30.5q30 0 58 -22q29 -21 40 -21q14 0 23.5 11t9.5 27h72q0 -45 -28 -75t-69 -30q-30 0 -59 21q-28 22 -40 22q-14 0 -23.5 -11t-9.5 -27z" />
    <glyph glyph-name="Imacron" unicode="&#x12a;" horiz-adv-x="239" 
d="M169 0h-100v675h100v-675zM251 775h-263v77h263v-77z" />
    <glyph glyph-name="imacron" unicode="&#x12b;" horiz-adv-x="202" 
d="M146 0h-90v450h90v-450zM-31 569v76h264v-76h-264z" />
    <glyph glyph-name="Ibreve" unicode="&#x12c;" horiz-adv-x="239" 
d="M169 0h-100v675h100v-675zM-20 881h72q0 -30 19.5 -50.5t48.5 -20.5q28 0 47.5 20.5t19.5 50.5h72q0 -59 -40 -99t-100 -40t-100 40q-39 40 -39 99z" />
    <glyph glyph-name="ibreve" unicode="&#x12d;" horiz-adv-x="202" 
d="M146 0h-90v450h90v-450zM-39 675h73q0 -30 19.5 -50.5t47.5 -20.5q29 0 48 20.5t19 50.5h73q0 -59 -40 -99t-100 -40t-100 40t-40 99z" />
    <glyph glyph-name="Iogonek" unicode="&#x12e;" horiz-adv-x="239" 
d="M34 -112q0 25 13.5 53t30.5 45l15 14h-24v675h100v-675h-9q-4 -3 -15 -14q-10 -11 -25 -35q-15 -25 -15 -47q0 -34 30 -38q1 -1 7 -1q26 0 46 20l6 7l30 -37q-5 -6 -14 -14q-8 -9 -35 -23q-25 -15 -53 -15q-38 0 -63 24t-25 61z" />
    <glyph glyph-name="iogonek" unicode="&#x12f;" horiz-adv-x="202" 
d="M102 -197q-38 0 -63 24t-25 61q0 25 14 53t30 45l15 14h-17v450h90v-450h-6q-4 -3 -15 -14q-10 -11 -25 -35q-15 -25 -15 -47q0 -18 10.5 -28.5t26.5 -10.5q28 0 46 20l6 7l31 -37q-5 -6 -14 -14q-8 -9 -35 -23q-27 -15 -54 -15zM101 535q-25 0 -42.5 17.5t-17.5 42.5
t17 42t43 17q23 0 39.5 -14t19.5 -37q0 -31 -15.5 -49.5t-43.5 -18.5z" />
    <glyph glyph-name="Idot" unicode="&#x130;" horiz-adv-x="239" 
d="M169 0h-100v675h100v-675zM57 809q0 26 18 44t44 18q27 0 44.5 -18t17.5 -44q0 -27 -17.5 -44.5t-44.5 -17.5q-26 0 -44 17.5t-18 44.5z" />
    <glyph glyph-name="dotlessi" unicode="&#x131;" horiz-adv-x="202" 
d="M146 0h-90v450h90v-450z" />
    <glyph glyph-name="IJ" unicode="&#x132;" horiz-adv-x="807" 
d="M169 0h-100v675h100v-675zM746 675v-431q0 -110 -76 -183q-74 -73 -187 -73q-72 0 -130.5 31t-92.5 85l83 54q21 -36 58.5 -57t82.5 -21q73 2 118 47q48 47 48 117v431h96z" />
    <glyph glyph-name="ij" unicode="&#x133;" horiz-adv-x="409" 
d="M146 0h-90v450h90v-450zM101 654q25 0 42 -17t17 -42q0 -40 -37 -55t-65 12q-27 28 -12 65t55 37zM263 450h91v-538q0 -58 -42 -97q-40 -40 -102 -40h-42v87h35q25 0 42.5 18t17.5 44v526zM249 595q-4 38 36 54t66 -12q27 -27 12 -64.5t-55 -37.5q-25 0 -42 17t-17 43z
" />
    <glyph glyph-name="Jcircumflex" unicode="&#x134;" horiz-adv-x="568" 
d="M507 675v-431q0 -110 -76 -183q-74 -73 -187 -73q-71 0 -129 30.5t-94 85.5l83 54q21 -36 58.5 -57t82.5 -21q73 2 118 47q48 47 48 117v431h96zM455 820l-114 -75l-39 52l149 118h8l149 -118l-39 -51z" />
    <glyph glyph-name="jcircumflex" unicode="&#x135;" horiz-adv-x="207" 
d="M62 450h90v-538q0 -58 -42 -97q-40 -40 -102 -40h-42v87h36q25 0 42.5 18t17.5 44v526zM107 614l-114 -75l-40 52l150 118h8l149 -118l-40 -52z" />
    <glyph glyph-name="uni0136" unicode="&#x136;" horiz-adv-x="623" 
d="M482 0l-312 345l292 330h128l-292 -330l311 -345h-127zM69 0v675h100v-675h-100zM317 -52q24 0 40 -18t16 -48q0 -20 -8.5 -39.5t-18.5 -31.5t-23.5 -23t-19.5 -14.5t-9 -5.5l-25 25l11 10q29 26 29 44q-18 3 -30.5 17.5t-12.5 34.5t14.5 34.5t36.5 14.5z" />
    <glyph glyph-name="uni0137" unicode="&#x137;" horiz-adv-x="458" 
d="M146 0h-90v725h90v-483l170 208h111l-177 -217l196 -233h-112l-188 225v-225zM238 -52q25 0 40.5 -18t15.5 -48q0 -20 -8.5 -39.5t-18.5 -31.5t-23.5 -23t-19.5 -14.5t-9 -5.5l-24 25l11 10q8 7 18 21.5t10 22.5q-18 3 -30.5 17.5t-12.5 34.5t14.5 34.5t36.5 14.5z" />
    <glyph glyph-name="Lacute" unicode="&#x139;" horiz-adv-x="554" 
d="M527 0h-458v675h100v-582h358v-93zM42 802l175 115l44 -82l-188 -89z" />
    <glyph glyph-name="lacute" unicode="&#x13a;" horiz-adv-x="202" 
d="M146 0h-90v725h90v-725zM53 769l-31 56l175 115l44 -81z" />
    <glyph glyph-name="uni013B" unicode="&#x13b;" horiz-adv-x="554" 
d="M69 0v675h100v-582h358v-93h-458zM257 -101q0 21 14.5 35t36.5 14q24 0 40 -18t16 -48q0 -20 -8.5 -39.5t-19 -31.5t-24 -23t-19.5 -14.5t-9 -5.5l-24 25l11 10q29 26 29 44q-18 3 -30.5 17.5t-12.5 34.5z" />
    <glyph glyph-name="uni013C" unicode="&#x13c;" horiz-adv-x="202" 
d="M146 0h-90v725h90v-725zM155 -118q0 -20 -8.5 -39.5t-19 -31.5t-24 -23t-19.5 -14.5t-9 -5.5l-24 25l11 10q29 26 29 44q-18 3 -30.5 17.5t-12.5 34.5t14.5 34.5t36.5 14.5q24 0 40 -18t16 -48z" />
    <glyph glyph-name="Lcaron" unicode="&#x13d;" horiz-adv-x="554" 
d="M69 0v675h100v-582h358v-93h-458zM312 638q0 21 14.5 35t36.5 14q24 0 40 -18t16 -48q0 -65 -75 -111l-5 -3l-24 25l11 10q8 7 18.5 22t10.5 23q-18 2 -30.5 17t-12.5 34z" />
    <glyph glyph-name="lcaron" unicode="&#x13e;" horiz-adv-x="320" 
d="M146 0h-90v725h90v-725zM255 737q24 0 39.5 -18.5t15.5 -48.5q0 -20 -8.5 -39t-18.5 -31t-23.5 -23t-19.5 -14.5t-9 -5.5l-24 25l11 10q8 7 18 21.5t10 22.5q-18 3 -30.5 17.5t-12.5 34.5t15 34.5t37 14.5z" />
    <glyph glyph-name="Ldot" unicode="&#x13f;" horiz-adv-x="554" 
d="M69 0v675h100v-582h358v-93h-458zM440 294q-17 -17 -43 -17t-44 17q-17 18 -17 44t17 43q18 17 44 17t43 -17q18 -17 18 -43t-18 -44z" />
    <glyph glyph-name="ldot" unicode="&#x140;" horiz-adv-x="397" 
d="M146 0h-90v725h90v-725zM299 398q26 0 43.5 -17t17.5 -43t-17.5 -43.5t-43.5 -17.5t-43 17.5t-17 43.5t17.5 43t42.5 17z" />
    <glyph glyph-name="Lslash" unicode="&#x141;" horiz-adv-x="581" 
d="M96 227l-43 -26l-42 71l85 50v353h100v-293l120 71l41 -71l-161 -96v-193h358v-93h-458v227z" />
    <glyph glyph-name="lslash" unicode="&#x142;" horiz-adv-x="210" 
d="M150 725v-325l60 34v-86l-60 -34v-314h-90v263l-60 -34v85l60 34v377h90z" />
    <glyph glyph-name="Nacute" unicode="&#x143;" horiz-adv-x="721" 
d="M69 0v675h88l399 -504v504h96v-675h-88l-398 502v-502h-97zM501 835l-188 -89l-31 56l175 115z" />
    <glyph glyph-name="nacute" unicode="&#x144;" horiz-adv-x="528" 
d="M146 258v-258h-90v450h90v-65q51 77 147 77q78 0 129 -51q51 -49 51 -126v-285h-91v259q0 50 -33 83t-82 33q-51 0 -86 -33.5t-35 -83.5zM409 629l-188 -90l-31 56l175 115z" />
    <glyph glyph-name="uni0145" unicode="&#x145;" horiz-adv-x="721" 
d="M166 0h-97v675h88l399 -504v504h96v-675h-88l-398 502v-502zM356 -153q-18 3 -30.5 17.5t-12.5 34.5t14.5 34.5t36.5 14.5q24 0 40 -18t16 -48q0 -20 -8.5 -39.5t-19 -31.5t-24 -23t-19.5 -14.5t-9 -5.5l-24 25l11 10q29 26 29 44z" />
    <glyph glyph-name="uni0146" unicode="&#x146;" horiz-adv-x="528" 
d="M146 0h-90v450h90v-65q51 77 147 77q78 0 129 -51q51 -49 51 -126v-285h-91v259q0 50 -33 83t-82 33q-51 0 -86 -33.5t-35 -83.5v-258zM262 -153q-18 3 -30.5 17.5t-12.5 34.5t14.5 34.5t36.5 14.5q24 0 40 -18t16 -48q0 -20 -8.5 -39.5t-18.5 -31.5t-23.5 -23
t-19.5 -14.5t-9 -5.5l-25 25l11 10q29 26 29 44z" />
    <glyph glyph-name="Ncaron" unicode="&#x147;" horiz-adv-x="721" 
d="M166 0h-97v675h88l399 -504v504h96v-675h-88l-398 502v-502zM357 746l-150 118l40 52l113 -76l114 75l40 -51l-150 -118h-7z" />
    <glyph glyph-name="ncaron" unicode="&#x148;" horiz-adv-x="528" 
d="M56 0v450h90v-65q51 77 147 77q78 0 129 -51q51 -49 51 -126v-285h-91v259q0 50 -33 83t-82 33q-51 0 -86 -33.5t-35 -83.5v-258h-90zM272 540h-8l-149 117l39 53l114 -76l114 75l39 -52z" />
    <glyph glyph-name="Eng" unicode="&#x14a;" horiz-adv-x="721" 
d="M556 675h96v-657q0 -110 -76 -183q-74 -73 -187 -73l1 93q69 0 116 44t50 112l-390 491v-502h-97v675h88l399 -503v503z" />
    <glyph glyph-name="eng" unicode="&#x14b;" horiz-adv-x="528" 
d="M56 0v450h90v-65q51 77 147 77q78 0 129 -51q51 -49 51 -126v-373q0 -58 -41 -97q-40 -40 -102 -40h-43v87h36q25 0 42 18t17 44v335q0 50 -33 83t-82 33q-51 0 -86 -33.5t-35 -83.5v-258h-90z" />
    <glyph glyph-name="Omacron" unicode="&#x14c;" horiz-adv-x="790" 
d="M46 337q0 150 100 250t249 100t249 -100q101 -101 101 -250q0 -148 -101 -249q-100 -100 -249 -100t-249 100t-100 249zM149 337q0 -108 70 -181q71 -72 176 -72q104 0 175 72q71 74 71 181q0 108 -71 181q-70 73 -175 73q-106 0 -176 -73q-70 -71 -70 -181zM527 775
h-263v77h263v-77z" />
    <glyph glyph-name="omacron" unicode="&#x14d;" horiz-adv-x="544" 
d="M103 56q-67 67 -67 169t67 169q68 68 169 68t169 -68t68 -169t-68 -169t-169 -68t-169 68zM170 329q-40 -41 -40 -104t40 -104q40 -42 102 -42q60 0 101 42q41 43 41 104t-41 104q-41 42 -101 42q-62 0 -102 -42zM404 569h-264v76h264v-76z" />
    <glyph glyph-name="Obreve" unicode="&#x14e;" horiz-adv-x="790" 
d="M46 337q0 150 100 250t249 100t249 -100q101 -101 101 -250q0 -148 -101 -249q-100 -100 -249 -100t-249 100t-100 249zM149 337q0 -108 70 -181q71 -72 176 -72q104 0 175 72q71 74 71 181q0 108 -71 181q-70 73 -175 73q-106 0 -176 -73q-70 -71 -70 -181zM256 881h72
q0 -30 19.5 -50.5t48.5 -20.5q28 0 47.5 20.5t19.5 50.5h72q0 -59 -40 -99t-100 -40t-100 40q-39 40 -39 99z" />
    <glyph glyph-name="obreve" unicode="&#x14f;" horiz-adv-x="544" 
d="M103 56q-67 67 -67 169t67 169q68 68 169 68t169 -68t68 -169t-68 -169t-169 -68t-169 68zM170 329q-40 -41 -40 -104t40 -104q40 -42 102 -42q60 0 101 42q41 43 41 104t-41 104q-41 42 -101 42q-62 0 -102 -42zM132 675h73q0 -30 19.5 -50.5t48.5 -20.5q28 0 47.5 20.5
t19.5 50.5h72q0 -59 -40 -99t-100 -40t-100 40t-40 99z" />
    <glyph glyph-name="Ohungarumlaut" unicode="&#x150;" horiz-adv-x="790" 
d="M46 337q0 150 100 250t249 100t249 -100q101 -101 101 -250q0 -148 -101 -249q-100 -100 -249 -100t-249 100t-100 249zM149 337q0 -108 70 -181q71 -72 176 -72q104 0 175 72q71 74 71 181q0 108 -71 181q-70 73 -175 73q-106 0 -176 -73q-70 -71 -70 -181zM307 739
l-47 43l121 152l68 -63zM481 739l-48 43l122 152l68 -63z" />
    <glyph glyph-name="ohungarumlaut" unicode="&#x151;" horiz-adv-x="544" 
d="M103 56q-67 67 -67 169t67 169q68 68 169 68t169 -68t68 -169t-68 -169t-169 -68t-169 68zM170 329q-40 -41 -40 -104t40 -104q40 -42 102 -42q60 0 101 42q41 43 41 104t-41 104q-41 42 -101 42q-62 0 -102 -42zM184 533l-48 43l122 152l68 -63zM358 533l-48 43l121 151
l68 -62z" />
    <glyph glyph-name="OE" unicode="&#x152;" horiz-adv-x="1172" 
d="M395 -12q-149 0 -249 100t-100 249q0 150 100 250t249 100q153 0 254 -104v92h482v-93h-382v-194h331v-93h-331v-202h387v-93h-487v92q-101 -104 -254 -104zM149 337q0 -108 70 -181q71 -72 176 -72q104 0 175 72q71 74 71 181q0 108 -71 181q-70 73 -175 73
q-106 0 -176 -73q-70 -71 -70 -181z" />
    <glyph glyph-name="oe" unicode="&#x153;" horiz-adv-x="911" 
d="M272 462q121 0 190 -93q70 93 189 93q99 0 165 -68q66 -67 66 -169q0 -19 -2 -33h-373q11 -52 52 -85.5t97 -33.5q75 0 119 56l88 -27q-31 -53 -85 -83.5t-120 -30.5q-124 0 -195 93q-69 -93 -191 -93q-101 0 -169 68q-67 67 -67 169t67 169q68 68 169 68zM170 121
q40 -42 102 -42q60 0 101 42q41 43 41 104t-41 104q-41 42 -101 42q-62 0 -102 -42q-40 -41 -40 -104t40 -104zM508 264h281q-12 50 -51 81.5t-91 31.5q-50 0 -88.5 -31.5t-50.5 -81.5z" />
    <glyph glyph-name="Racute" unicode="&#x154;" horiz-adv-x="653" 
d="M69 675h308q95 0 159 -61q64 -60 64 -150q0 -66 -37 -119t-100 -77l163 -268h-112l-153 253h-192v-253h-100v675zM377 582h-208v-237h208q51 0 85 34t34 85t-34 84.5t-85 33.5zM425 835l-188 -89l-31 56l175 115z" />
    <glyph glyph-name="racute" unicode="&#x155;" horiz-adv-x="323" 
d="M146 450v-65q51 77 147 77q11 0 14 -1v-101q-15 7 -40 7q-52 0 -86.5 -33t-34.5 -83v-251h-90v450h90zM128 539l-31 56l174 115l45 -81z" />
    <glyph glyph-name="uni0156" unicode="&#x156;" horiz-adv-x="653" 
d="M69 675h308q95 0 159 -61q64 -60 64 -150q0 -66 -37 -119t-100 -77l163 -268h-112l-153 253h-192v-253h-100v675zM377 582h-208v-237h208q51 0 85 34t34 85t-34 84.5t-85 33.5zM335 -153q-18 3 -30.5 17.5t-12.5 34.5t14.5 34.5t36.5 14.5q24 0 40 -18t16 -48
q0 -20 -8.5 -39.5t-18.5 -31.5t-23.5 -23t-19.5 -14.5t-9 -5.5l-24 25l11 10q8 7 18 21.5t10 22.5z" />
    <glyph glyph-name="uni0157" unicode="&#x157;" horiz-adv-x="323" 
d="M146 450v-65q51 77 147 77q11 0 14 -1v-101q-15 7 -40 7q-52 0 -86.5 -33t-34.5 -83v-251h-90v450h90zM161 -118q0 -20 -8.5 -39.5t-18.5 -31.5t-23.5 -23t-19.5 -14.5t-9 -5.5l-24 25l11 10q8 7 18 21.5t10 22.5q-18 3 -30.5 17.5t-12.5 34.5t14.5 34.5t36.5 14.5
q25 0 40.5 -18t15.5 -48z" />
    <glyph glyph-name="Rcaron" unicode="&#x158;" horiz-adv-x="653" 
d="M69 675h308q95 0 159 -61q64 -60 64 -150q0 -66 -37 -119t-100 -77l163 -268h-112l-153 253h-192v-253h-100v675zM377 582h-208v-237h208q51 0 85 34t34 85t-34 84.5t-85 33.5zM280 746l-149 118l40 52l113 -76l114 75l40 -51l-150 -118h-8z" />
    <glyph glyph-name="rcaron" unicode="&#x159;" horiz-adv-x="323" 
d="M146 450v-65q51 77 147 77q11 0 14 -1v-101q-15 7 -40 7q-52 0 -86.5 -33t-34.5 -83v-251h-90v450h90zM175 634l114 75l39 -52l-149 -117h-8l-149 117l39 53z" />
    <glyph glyph-name="Sacute" unicode="&#x15a;" horiz-adv-x="594" 
d="M525 536l-99 -29q-9 36 -46.5 60t-87.5 24q-54 0 -91.5 -27t-37.5 -67q0 -43 52 -70q27 -13 55 -21l75 -21q70 -19 107 -38q45 -21 68.5 -57t27.5 -96q0 -93 -69 -150q-70 -56 -178 -56q-98 0 -167 45q-70 47 -89 117l99 30q9 -41 53 -68.5t105 -27.5q63 0 104.5 28.5
t41.5 73.5q0 29 -23 52q-20 20 -43 30t-66 20q-121 35 -161 57q-91 49 -91 146q0 87 63 141q64 55 163 55q89 0 153 -43t82 -108zM249 746l-31 56l175 115l44 -82z" />
    <glyph glyph-name="sacute" unicode="&#x15b;" horiz-adv-x="415" 
d="M375 347l-84 -15q-17 50 -88 50q-33 0 -54 -13.5t-21 -34.5q0 -28 44 -45l101 -35q110 -39 110 -129q0 -65 -48 -101t-125 -36q-76 0 -124 34t-57 92l86 13q5 -27 31.5 -43t65.5 -16q37 0 61 15t24 39q0 33 -55 52l-100 33q-101 35 -101 120q0 65 46 100t123 35
q69 0 113 -31t52 -84zM159 539l-31 56l175 115l44 -81z" />
    <glyph glyph-name="Scircumflex" unicode="&#x15c;" horiz-adv-x="594" 
d="M525 536l-99 -29q-9 36 -46.5 60t-87.5 24q-54 0 -91.5 -27t-37.5 -67q0 -43 52 -70q27 -13 55 -21l75 -21q70 -19 107 -38q45 -21 68.5 -57t27.5 -96q0 -93 -69 -150q-70 -56 -178 -56q-98 0 -167 45q-70 47 -89 117l99 30q9 -41 53 -68.5t105 -27.5q63 0 104.5 28.5
t41.5 73.5q0 29 -23 52q-20 20 -43 30t-66 20q-121 35 -161 57q-91 49 -91 146q0 87 63 141q64 55 163 55q89 0 153 -43t82 -108zM297 820l-114 -75l-40 52l150 118h8l149 -118l-40 -51z" />
    <glyph glyph-name="scircumflex" unicode="&#x15d;" horiz-adv-x="415" 
d="M375 347l-84 -15q-17 50 -88 50q-33 0 -54 -13.5t-21 -34.5q0 -28 44 -45l101 -35q110 -39 110 -129q0 -65 -48 -101t-125 -36q-76 0 -124 34t-57 92l86 13q5 -27 31.5 -43t65.5 -16q37 0 61 15t24 39q0 33 -55 52l-100 33q-101 35 -101 120q0 65 46 100t123 35
q69 0 113 -31t52 -84zM206 614l-114 -75l-39 52l149 118h8l149 -118l-39 -52z" />
    <glyph glyph-name="Scedilla" unicode="&#x15e;" horiz-adv-x="594" 
d="M45 150l99 30q9 -41 53 -68.5t105 -27.5q63 0 104.5 28.5t41.5 73.5q0 29 -23 52q-20 20 -43 30t-66 20q-121 35 -161 57q-91 49 -91 146q0 87 63 141q64 55 163 55q89 0 153 -43t82 -108l-99 -29q-9 36 -46.5 60t-87.5 24q-54 0 -91.5 -27t-37.5 -67q0 -43 52 -70
q27 -13 55 -21l75 -21q70 -19 107 -38q45 -21 68.5 -57t27.5 -96q0 -81 -53 -135.5t-143 -66.5l-9 -36q14 -3 20 -5q16 -5 33.5 -25t17.5 -45q0 -39 -32 -64t-80 -25q-56 0 -88 26l-12 8l17 48q24 -25 67 -25q25 0 41.5 9.5t16.5 23.5q0 13 -18.5 22t-41.5 12l-21 2l17 71
q-89 4 -153 50q-62 45 -82 111z" />
    <glyph glyph-name="scedilla" unicode="&#x15f;" horiz-adv-x="415" 
d="M29 114l86 13q5 -27 31.5 -43t65.5 -16q37 0 61 15t24 39q0 33 -55 52l-100 33q-101 35 -101 120q0 65 46 100t123 35q69 0 113 -31t52 -84l-84 -15q-17 50 -88 50q-33 0 -54 -13.5t-21 -34.5q0 -28 44 -45l101 -35q110 -39 110 -129q0 -55 -34 -89.5t-93 -43.5l-9 -36
q14 -3 20 -5q16 -5 33.5 -25t17.5 -45q0 -39 -32 -64t-80 -25q-56 0 -88 26l-12 8l16 48q25 -25 68 -25q25 0 41.5 9.5t16.5 23.5q0 13 -18.5 22t-41.5 12l-21 2l16 71q-65 6 -105.5 39.5t-48.5 85.5z" />
    <glyph glyph-name="Scaron" unicode="&#x160;" horiz-adv-x="594" 
d="M525 536l-99 -29q-9 36 -46.5 60t-87.5 24q-54 0 -91.5 -27t-37.5 -67q0 -43 52 -70q27 -13 55 -21l75 -21q70 -19 107 -38q45 -21 68.5 -57t27.5 -96q0 -93 -69 -150q-70 -56 -178 -56q-98 0 -167 45q-70 47 -89 117l99 30q9 -41 53 -68.5t105 -27.5q63 0 104.5 28.5
t41.5 73.5q0 29 -23 52q-20 20 -43 30t-66 20q-121 35 -161 57q-91 49 -91 146q0 87 63 141q64 55 163 55q89 0 153 -43t82 -108zM297 840l114 75l39 -51l-149 -118h-8l-150 118l40 52z" />
    <glyph glyph-name="scaron" unicode="&#x161;" horiz-adv-x="415" 
d="M375 347l-84 -15q-17 50 -88 50q-33 0 -54 -13.5t-21 -34.5q0 -28 44 -45l101 -35q110 -39 110 -129q0 -65 -48 -101t-125 -36q-76 0 -124 34t-57 92l86 13q5 -27 31.5 -43t65.5 -16q37 0 61 15t24 39q0 33 -55 52l-100 33q-101 35 -101 120q0 65 46 100t123 35
q69 0 113 -31t52 -84zM206 634l114 75l40 -52l-150 -117h-8l-149 117l39 53z" />
    <glyph glyph-name="uni0162" unicode="&#x162;" horiz-adv-x="638" 
d="M269 0v582h-244v93h588v-93h-244v-582h-100zM314 -153q-18 3 -30.5 17.5t-12.5 34.5t14.5 34.5t36.5 14.5q24 0 40 -18t16 -48q0 -20 -8.5 -39.5t-18.5 -31.5t-23.5 -23t-19.5 -14.5t-9 -5.5l-24 25l11 10q8 7 18 21.5t10 22.5z" />
    <glyph glyph-name="uni0163" unicode="&#x163;" horiz-adv-x="321" 
d="M12 370v80h68v90h91v-90h122v-80h-122v-221q0 -26 17 -44t42 -18h63v-87h-69q-61 0 -103 39q-41 41 -41 99v232h-68zM244 -118q0 -20 -8.5 -39.5t-19 -31.5t-24 -23t-19.5 -14.5t-9 -5.5l-24 25l11 10q29 26 29 44q-18 3 -30.5 17.5t-12.5 34.5t14.5 34.5t36.5 14.5
q24 0 40 -18t16 -48z" />
    <glyph glyph-name="Tcaron" unicode="&#x164;" horiz-adv-x="638" 
d="M25 675h588v-93h-244v-582h-100v582h-244v93zM315 746l-149 118l39 52l114 -76l114 75l39 -51l-149 -118h-8z" />
    <glyph glyph-name="tcaron" unicode="&#x165;" horiz-adv-x="344" 
d="M12 370v80h68v90h91v-90h122v-80h-122v-221q0 -26 17 -44t42 -18h63v-87h-69q-61 0 -103 39q-41 41 -41 99v232h-68zM329 625q0 -28 -16 -54t-30 -37.5t-28 -19.5l-5 -3l-24 25l11 10q8 7 18 22t10 23q-18 2 -30.5 17t-12.5 34q0 21 15 35t37 14q24 0 39.5 -18t15.5 -48z
" />
    <glyph glyph-name="Tbar" unicode="&#x166;" horiz-adv-x="638" 
d="M495 284h-126v-284h-100v284h-126v87h126v211h-244v93h588v-93h-244v-211h126v-87z" />
    <glyph glyph-name="tbar" unicode="&#x167;" horiz-adv-x="321" 
d="M80 370h-68v80h68v90h91v-90h122v-80h-122v-92h84v-74h-84v-55q0 -26 17 -44t42 -18h63v-87h-69q-61 0 -103 39q-41 41 -41 99v66h-55v74h55v92z" />
    <glyph glyph-name="Utilde" unicode="&#x168;" horiz-adv-x="698" 
d="M538 270v405h100v-405q0 -120 -83 -201t-206 -81q-125 0 -207 81q-83 81 -83 201v405h100v-405q0 -81 54 -135q55 -54 136 -54t135 54t54 135zM270 761h-72q0 44 28.5 74.5t69.5 30.5q30 0 58 -22q29 -21 40 -21q14 0 23.5 11t9.5 28h72q0 -45 -28 -75.5t-69 -30.5
q-30 0 -59 21q-28 22 -40 22q-14 0 -23.5 -11t-9.5 -27z" />
    <glyph glyph-name="utilde" unicode="&#x169;" horiz-adv-x="528" 
d="M55 166v284h91v-259q0 -50 33 -83t82 -33q52 0 86 34q35 35 35 83v258h90v-450h-90v65q-51 -77 -147 -77q-78 0 -129 51t-51 127zM185 555h-72q0 44 28.5 74.5t69.5 30.5q30 0 58 -22q29 -21 40 -21q13 0 23 11t10 27h72q0 -45 -28 -75t-70 -30q-30 0 -59 21
q-28 22 -39 22q-14 0 -23.5 -11t-9.5 -27z" />
    <glyph glyph-name="Umacron" unicode="&#x16a;" horiz-adv-x="698" 
d="M538 270v405h100v-405q0 -120 -83 -201t-206 -81q-125 0 -207 81q-83 81 -83 201v405h100v-405q0 -81 54 -135q55 -54 136 -54t135 54t54 135zM481 775h-264v77h264v-77z" />
    <glyph glyph-name="umacron" unicode="&#x16b;" horiz-adv-x="528" 
d="M235 -12q-78 0 -129 51t-51 127v284h91v-259q0 -50 33 -83t82 -33q52 0 86 34q35 35 35 83v258h90v-450h-90v65q-51 -77 -147 -77zM396 645v-76h-264v76h264z" />
    <glyph glyph-name="Ubreve" unicode="&#x16c;" horiz-adv-x="698" 
d="M538 270v405h100v-405q0 -120 -83 -201t-206 -81q-125 0 -207 81q-83 81 -83 201v405h100v-405q0 -81 54 -135q55 -54 136 -54t135 54t54 135zM209 881h73q0 -30 19.5 -50.5t47.5 -20.5q29 0 48 20.5t19 50.5h73q0 -59 -40 -99t-100 -40t-100 40t-40 99z" />
    <glyph glyph-name="ubreve" unicode="&#x16d;" horiz-adv-x="528" 
d="M55 166v284h91v-259q0 -50 33 -83t82 -33q52 0 86 34q35 35 35 83v258h90v-450h-90v65q-51 -77 -147 -77q-78 0 -129 51t-51 127zM124 675h72q0 -30 19.5 -50.5t48.5 -20.5t48 20.5t19 50.5h73q0 -59 -40 -99t-100 -40t-100 40t-40 99z" />
    <glyph glyph-name="Uring" unicode="&#x16e;" horiz-adv-x="698" 
d="M538 270v405h100v-405q0 -120 -83 -201t-206 -81q-125 0 -207 81q-83 81 -83 201v405h100v-405q0 -81 54 -135q55 -54 136 -54t135 54t54 135zM243 847q0 45 30.5 76t75.5 31q44 0 75 -31t31 -76q0 -44 -31 -75t-75 -31q-45 0 -75.5 31t-30.5 75zM308 847q0 -17 12 -29
t29 -12t29 12t12 29q0 18 -12 30t-29 12t-29 -12t-12 -30z" />
    <glyph glyph-name="uring" unicode="&#x16f;" horiz-adv-x="528" 
d="M235 -12q-78 0 -129 51t-51 127v284h91v-259q0 -50 33 -83t82 -33q52 0 86 34q35 35 35 83v258h90v-450h-90v65q-51 -77 -147 -77zM264 535q-45 0 -76 30.5t-31 75.5t31 76t76 31q44 0 75 -31t31 -76t-31 -75.5t-75 -30.5zM264 682q-25 0 -35.5 -20.5t0 -41t35.5 -20.5
q17 0 29 12t12 29t-12 29t-29 12z" />
    <glyph glyph-name="Uhungarumlaut" unicode="&#x170;" horiz-adv-x="698" 
d="M538 270v405h100v-405q0 -120 -83 -201t-206 -81q-125 0 -207 81q-83 81 -83 201v405h100v-405q0 -81 54 -135q55 -54 136 -54t135 54t54 135zM261 739l-48 43l122 152l68 -63zM434 739l-47 43l121 152l68 -63z" />
    <glyph glyph-name="uhungarumlaut" unicode="&#x171;" horiz-adv-x="528" 
d="M55 166v284h91v-259q0 -50 33 -83t82 -33q52 0 86 34q35 35 35 83v258h90v-450h-90v65q-51 -77 -147 -77q-78 0 -129 51t-51 127zM175 533l-47 43l121 152l68 -63zM491 665l-142 -132l-47 43l121 151z" />
    <glyph glyph-name="Uogonek" unicode="&#x172;" horiz-adv-x="698" 
d="M59 270v405h100v-405q0 -81 54 -135q55 -54 136 -54t135 54t54 135v405h100v-405q0 -101 -61 -177q-60 -75 -157 -97q-51 -51 -51 -92q0 -18 10.5 -28.5t26.5 -10.5q26 0 46 20l6 7l31 -37q-5 -6 -14 -14q-8 -9 -35 -23q-27 -15 -54 -15q-38 0 -63 24t-25 61q0 47 47 100
q-120 1 -204 82q-82 81 -82 200z" />
    <glyph glyph-name="uogonek" unicode="&#x173;" horiz-adv-x="528" 
d="M55 166v284h91v-259q0 -50 33 -83t82 -33q52 0 86 34q35 35 35 83v258h90v-450h-8l-16 -14q-10 -11 -25 -35q-15 -25 -15 -47q0 -18 11 -28.5t27 -10.5q26 0 46 20l6 7l30 -37q-5 -6 -14 -14q-8 -9 -35 -23q-26 -15 -53 -15q-38 0 -63 24t-25 61q0 25 14 53t30 45l15 14
h-15v65q-51 -77 -147 -77q-78 0 -129 51t-51 127z" />
    <glyph glyph-name="Wcircumflex" unicode="&#x174;" horiz-adv-x="976" 
d="M326 0h-81l-231 675h103l168 -516l163 516h80l164 -516l167 516h103l-231 -675h-81l-162 501zM374 745l-40 52l150 118h7l150 -118l-40 -51l-113 74z" />
    <glyph glyph-name="wcircumflex" unicode="&#x175;" horiz-adv-x="677" 
d="M161 0l-150 450h92l98 -310l97 310h81l98 -310l97 310h91l-149 -450h-81l-96 300l-98 -300h-80zM338 614l-114 -75l-39 52l149 118h8l149 -118l-39 -52z" />
    <glyph glyph-name="Ycircumflex" unicode="&#x176;" horiz-adv-x="651" 
d="M275 274l-261 401h115l195 -306l198 306h115l-262 -397l-1 -278h-99v274zM212 745l-40 52l150 118h7l150 -118l-40 -51l-114 74z" />
    <glyph glyph-name="ycircumflex" unicode="&#x177;" horiz-adv-x="469" 
d="M187 12l-176 438h94l128 -326l131 326h94l-219 -534q-30 -73 -75 -107t-112 -34h-16v87h16q75 0 109 85zM121 539l-40 52l149 118h8l149 -118l-39 -52l-114 75z" />
    <glyph glyph-name="Ydieresis" unicode="&#x178;" horiz-adv-x="651" 
d="M275 274l-261 401h115l195 -306l198 306h115l-262 -397l-1 -278h-99v274zM424 866q25 0 42 -17.5t17 -42.5t-17 -41.5t-42 -16.5q-26 0 -43 16.5t-17 41.5q0 26 17 43t43 17zM228 866q25 0 42 -17.5t17 -42.5t-17 -41.5t-42 -16.5q-26 0 -43 16.5t-17 41.5q0 26 17 43
t43 17z" />
    <glyph glyph-name="Zacute" unicode="&#x179;" horiz-adv-x="616" 
d="M579 93v-93h-537v77l395 505h-392v93h532v-77l-396 -505h398zM451 835l-188 -89l-31 56l175 115z" />
    <glyph glyph-name="zacute" unicode="&#x17a;" horiz-adv-x="438" 
d="M404 83v-83h-370v69l242 298h-238v83h362v-69l-243 -298h247zM172 539l-31 56l175 115l44 -81z" />
    <glyph glyph-name="Zdotaccent" unicode="&#x17b;" horiz-adv-x="616" 
d="M579 0h-537v77l395 505h-392v93h532v-77l-396 -505h398v-93zM248 809q0 26 18 44t45 18q26 0 44 -18t18 -44q0 -27 -18 -44.5t-44 -17.5q-27 0 -45 17.5t-18 44.5z" />
    <glyph glyph-name="zdotaccent" unicode="&#x17c;" horiz-adv-x="438" 
d="M34 0v69l242 298h-238v83h362v-69l-243 -298h247v-83h-370zM220 540q-27 0 -45 18t-18 44q0 27 18 45t45 18q26 0 44 -18t18 -45q0 -26 -18 -44t-44 -18z" />
    <glyph glyph-name="Zcaron" unicode="&#x17d;" horiz-adv-x="616" 
d="M579 0h-537v77l395 505h-392v93h532v-77l-396 -505h398v-93zM307 746l-150 118l40 52l114 -76l114 75l39 -51l-150 -118h-7z" />
    <glyph glyph-name="zcaron" unicode="&#x17e;" horiz-adv-x="438" 
d="M404 83v-83h-370v69l242 298h-238v83h362v-69l-243 -298h247zM215 540l-149 117l40 53l113 -76l114 75l40 -52l-150 -117h-8z" />
    <glyph glyph-name="uni018F" unicode="&#x18f;" horiz-adv-x="787" 
d="M395 687q149 0 249 -100t100 -249q0 -150 -100 -250t-249 -100t-249 100t-100 250q0 22 3 43h588q-14 93 -81 151q-68 59 -161 59q-119 0 -190 -89l-97 39q47 69 122 107.5t165 38.5zM636 288h-482q15 -90 82 -147q68 -57 159 -57t159 57q67 57 82 147z" />
    <glyph glyph-name="florin" unicode="&#x192;" horiz-adv-x="314" 
d="M-46 -225h-60l15 87h54q26 0 46.5 18t24.5 45l71 404h-72l14 79h72l32 179q11 60 58 98q49 40 110 40h60l-16 -87h-53q-26 0 -46.5 -18t-24.5 -45l-29 -167h113l-14 -79h-113l-74 -416q-11 -60 -59 -98q-47 -40 -109 -40z" />
    <glyph glyph-name="uni01DD" unicode="&#x1dd;" horiz-adv-x="532" 
d="M31 258h372q-11 52 -51.5 85.5t-96.5 33.5q-75 0 -119 -56l-88 27q30 53 85 83.5t122 30.5q102 0 172 -68q69 -68 69 -169q0 -102 -67 -169q-68 -68 -167 -68q-98 0 -166 68q-67 67 -67 169q0 19 2 33zM402 186h-280q12 -50 51 -81.5t91 -31.5q50 0 88.5 31.5t49.5 81.5z
" />
    <glyph glyph-name="Aringacute" unicode="&#x1fa;" horiz-adv-x="697" 
d="M181 144l-62 -144h-105l290 666q-28 12 -45 38t-17 58q0 45 31 76t76 31q40 0 68 -25l152 100l44 -81l-161 -77q3 -12 3 -24q0 -32 -17 -58t-45 -39l289 -665h-104l-62 144h-335zM476 236l-127 297l-128 -297h255zM349 721q17 0 29 12t12 29q0 18 -12 30t-29 12
q-18 0 -30 -12t-12 -30q0 -17 12 -29t30 -12z" />
    <glyph glyph-name="aringacute" unicode="&#x1fb;" horiz-adv-x="552" 
d="M257 462q87 0 149 -59v47h90v-450h-90v47q-62 -59 -149 -59q-93 0 -158 68q-63 67 -63 169q0 101 63 169q65 68 158 68zM169 329q-39 -42 -39 -104t39 -104q41 -42 98 -42q58 0 97 42q40 41 40 104t-40 104q-39 42 -97 42q-57 0 -98 -42zM277 748q37 0 65 -21l148 97
l44 -81l-154 -74q4 -11 4 -28q0 -45 -31 -76q-31 -30 -76 -30t-76 30q-30 31 -30 76t30.5 76t75.5 31zM277 600q25 0 35.5 20.5t0 41t-35.5 20.5q-17 0 -29 -12t-12 -29t12 -29t29 -12z" />
    <glyph glyph-name="AEacute" unicode="&#x1fc;" horiz-adv-x="963" 
d="M128 0h-114l422 675h486v-93h-346v-194h295v-93h-295v-202h351v-93h-451v144h-259zM274 236h202v327zM676 835l-188 -89l-31 56l174 115z" />
    <glyph glyph-name="aeacute" unicode="&#x1fd;" horiz-adv-x="902" 
d="M257 -12q-93 0 -158 68q-63 67 -63 169q0 101 63 169q65 68 158 68q87 0 149 -59v47h90v-50q65 62 154 62q94 0 159 -68t65 -169q0 -3 -2 -33h-373q11 -54 51.5 -86.5t97.5 -32.5q75 0 119 56l87 -27q-29 -53 -81.5 -83.5t-116.5 -30.5q-94 0 -160 63v-51h-90v47
q-62 -59 -149 -59zM169 329q-39 -42 -39 -104t39 -104q41 -42 98 -42q58 0 97 42q40 41 40 104t-40 104q-39 42 -97 42q-57 0 -98 -42zM500 264h281q-12 50 -51.5 81.5t-91.5 31.5q-49 0 -87.5 -31.5t-50.5 -81.5zM587 629l-188 -90l-31 56l175 115z" />
    <glyph glyph-name="Oslashacute" unicode="&#x1fe;" horiz-adv-x="790" 
d="M135 31l28 41q-117 100 -117 266q0 149 100 249t249 100q92 0 169 -41l29 41l64 -45l-29 -41q55 -48 85.5 -116.5t30.5 -146.5q0 -150 -100 -250t-249 -100q-94 0 -167 40l-29 -41zM570 518l-285 -408q50 -26 110 -26q104 0 175 72q71 74 71 182q0 106 -71 180zM221 156
l286 409q-55 26 -112 26q-106 0 -176 -73q-70 -71 -70 -180q0 -110 72 -182zM348 746l-31 56l175 115l44 -82z" />
    <glyph glyph-name="oslashacute" unicode="&#x1ff;" horiz-adv-x="544" 
d="M272 462q57 0 102 -22l16 22l64 -45l-15 -21q70 -67 70 -171q0 -101 -68 -169t-169 -68q-54 0 -102 23l-16 -23l-64 45l15 22q-69 68 -69 170t67 169q68 68 169 68zM383 316l-159 -228q22 -9 48 -9q60 0 101 42q41 43 41 104q0 54 -31 91zM161 134l159 228q-22 9 -48 9
q-62 0 -102 -42q-40 -41 -40 -104q0 -54 31 -91zM225 539l-31 56l175 115l44 -81z" />
    <glyph glyph-name="uni0218" unicode="&#x218;" horiz-adv-x="594" 
d="M525 536l-99 -29q-9 36 -46.5 60t-87.5 24q-54 0 -91.5 -27t-37.5 -67q0 -43 52 -70q27 -13 55 -21l75 -21q70 -19 107 -38q45 -21 68.5 -57t27.5 -96q0 -93 -69 -150q-70 -56 -178 -56q-98 0 -167 45q-70 47 -89 117l99 30q9 -41 53 -68.5t105 -27.5q63 0 104.5 28.5
t41.5 73.5q0 29 -23 52q-20 20 -43 30t-66 20q-121 35 -161 57q-91 49 -91 146q0 87 63 141q64 55 163 55q89 0 153 -43t82 -108zM378 -118q0 -20 -8.5 -39.5t-18.5 -31.5t-23.5 -23t-19.5 -14.5t-9 -5.5l-25 25l11 10q29 26 29 44q-18 3 -30.5 17.5t-12.5 34.5t14.5 34.5
t36.5 14.5q24 0 40 -18t16 -48z" />
    <glyph glyph-name="uni0219" unicode="&#x219;" horiz-adv-x="415" 
d="M375 347l-84 -15q-17 50 -88 50q-33 0 -54 -13.5t-21 -34.5q0 -28 44 -45l101 -35q110 -39 110 -129q0 -65 -48 -101t-125 -36q-76 0 -124 34t-57 92l86 13q5 -27 31.5 -43t65.5 -16q37 0 61 15t24 39q0 33 -55 52l-100 33q-101 35 -101 120q0 65 46 100t123 35
q69 0 113 -31t52 -84zM282 -118q0 -20 -8.5 -39.5t-19 -31.5t-24 -23t-19.5 -14.5t-9 -5.5l-24 25l11 10q29 26 29 44q-18 3 -30.5 17.5t-12.5 34.5t14.5 34.5t36.5 14.5q24 0 40 -18t16 -48z" />
    <glyph glyph-name="uni021A" unicode="&#x21a;" horiz-adv-x="638" 
d="M269 0v582h-244v93h588v-93h-244v-582h-100zM314 -153q-18 3 -30.5 17.5t-12.5 34.5t14.5 34.5t36.5 14.5q24 0 40 -18t16 -48q0 -20 -8.5 -39.5t-18.5 -31.5t-23.5 -23t-19.5 -14.5t-9 -5.5l-24 25l11 10q8 7 18 21.5t10 22.5z" />
    <glyph glyph-name="uni021B" unicode="&#x21b;" horiz-adv-x="321" 
d="M12 370v80h68v90h91v-90h122v-80h-122v-221q0 -26 17 -44t42 -18h63v-87h-69q-61 0 -103 39q-41 41 -41 99v232h-68zM244 -118q0 -20 -8.5 -39.5t-19 -31.5t-24 -23t-19.5 -14.5t-9 -5.5l-24 25l11 10q29 26 29 44q-18 3 -30.5 17.5t-12.5 34.5t14.5 34.5t36.5 14.5
q24 0 40 -18t16 -48z" />
    <glyph glyph-name="uni0237" unicode="&#x237;" horiz-adv-x="208" 
d="M62 450h90v-538q0 -58 -42 -97q-40 -40 -102 -40h-42v87h36q25 0 42.5 18t17.5 44v526z" />
    <glyph glyph-name="uni0259" unicode="&#x259;" horiz-adv-x="532" 
d="M31 258h372q-11 52 -51.5 85.5t-96.5 33.5q-75 0 -119 -56l-88 27q30 53 85 83.5t122 30.5q102 0 172 -68q69 -68 69 -169q0 -102 -67 -169q-68 -68 -167 -68q-98 0 -166 68q-67 67 -67 169q0 19 2 33zM402 186h-280q12 -50 51 -81.5t91 -31.5q50 0 88.5 31.5t49.5 81.5z
" />
    <glyph glyph-name="circumflex" unicode="&#x2c6;" horiz-adv-x="399" 
d="M200 752l-114 -75l-40 52l150 118h8l149 -118l-40 -51z" />
    <glyph glyph-name="caron" unicode="&#x2c7;" horiz-adv-x="399" 
d="M200 772l114 75l39 -51l-149 -118h-8l-150 118l40 52z" />
    <glyph glyph-name="breve" unicode="&#x2d8;" horiz-adv-x="372" 
d="M46 813h73q0 -30 19.5 -50.5t48.5 -20.5q28 0 47.5 20.5t19.5 50.5h72q0 -59 -40 -99t-100 -40t-100 40t-40 99z" />
    <glyph glyph-name="dotaccent" unicode="&#x2d9;" horiz-adv-x="217" 
d="M46 740q0 27 18 45t45 18q26 0 44 -18t18 -45q0 -26 -18 -44t-44 -18q-27 0 -45 18t-18 44z" />
    <glyph glyph-name="ring" unicode="&#x2da;" horiz-adv-x="306" 
d="M153 886q44 0 75 -31t31 -76t-31 -75.5t-75 -30.5q-45 0 -76 30.5t-31 75.5t31 76t76 31zM112 779q0 -17 12 -29t29 -12t29 12t12 29q0 25 -20.5 35.5t-41 0t-20.5 -35.5z" />
    <glyph glyph-name="ogonek" unicode="&#x2db;" horiz-adv-x="283" 
d="M90 -14l15 14h67q-4 -3 -15 -14q-10 -11 -25 -35q-15 -25 -15 -47q0 -18 11 -28.5t27 -10.5q27 0 45 20l6 7l31 -37q-5 -6 -14 -14q-8 -9 -35 -23q-25 -15 -53 -15q-38 0 -63.5 24t-25.5 61q0 25 14 53t30 45z" />
    <glyph glyph-name="tilde" unicode="&#x2dc;" horiz-adv-x="394" 
d="M119 693h-73q0 44 28.5 74.5t69.5 30.5q30 0 58 -22q29 -21 40 -21q14 0 23.5 11t9.5 27h72q0 -45 -28 -75t-69 -30q-30 0 -59 21q-28 22 -40 22q-14 0 -23 -11t-9 -27z" />
    <glyph glyph-name="hungarumlaut" unicode="&#x2dd;" horiz-adv-x="456" 
d="M94 671l-48 43l122 152l68 -63zM268 671l-48 43l121 151l68 -62z" />
    <glyph glyph-name="uni0394" unicode="&#x394;" horiz-adv-x="688" 
d="M674 0h-660l290 675h80zM530 93l-185 439l-187 -439h372z" />
    <glyph glyph-name="uni03A9" unicode="&#x3a9;" horiz-adv-x="793" 
d="M47 348q0 146 99 242q100 97 250 97q148 0 249 -98q100 -97 100 -242q0 -157 -112 -254h114v-93h-270v93q74 26 119 90q46 65 46 151q0 109 -71 183t-175 74q-105 0 -176 -74q-70 -73 -70 -182q0 -88 46 -153q47 -67 123 -89v-93h-268v93h109q-113 98 -113 255z" />
    <glyph glyph-name="uni0400" unicode="&#x400;" 
d="M69 675h490v-93h-390v-194h339v-93h-339v-202h395v-93h-495v675zM386 803l-31 -56l-188 89l44 82z" />
    <glyph glyph-name="uni0401" unicode="&#x401;" 
d="M69 675h490v-93h-390v-194h339v-93h-339v-202h395v-93h-495v675zM349 806q0 26 17 43t42 17t42 -17t17 -43q0 -25 -16.5 -41.5t-42.5 -16.5t-42.5 16.5t-16.5 41.5zM153 806q0 26 17 43t42 17t42 -17t17 -43q0 -25 -16.5 -41.5t-42.5 -16.5t-42.5 16.5t-16.5 41.5z" />
    <glyph glyph-name="uni0402" unicode="&#x402;" horiz-adv-x="847" 
d="M269 0v582h-244v93h588v-93h-244v-175q70 18 143 18q131 0 203 -58t72 -164q0 -107 -72 -161t-190 -54l-1 93q164 0 164 122q0 130 -177 130q-76 0 -142 -19v-314h-100z" />
    <glyph glyph-name="uni0403" unicode="&#x403;" horiz-adv-x="530" 
d="M169 582v-582h-100v675h436v-93h-336zM422 835l-187 -89l-32 56l175 115z" />
    <glyph glyph-name="uni0404" unicode="&#x404;" horiz-adv-x="745" 
d="M46 338q0 149 100 249t249 100q101 0 183 -48.5t125 -132.5l-96 -36q-33 57 -88.5 89t-123.5 32q-91 0 -158 -57t-84 -146h327v-93h-328q14 -94 81 -152q68 -59 162 -59q68 0 123.5 32t88.5 89l96 -37q-43 -82 -125 -131t-183 -49q-149 0 -249 100t-100 250z" />
    <glyph glyph-name="uni0405" unicode="&#x405;" horiz-adv-x="594" 
d="M525 536l-99 -29q-9 36 -46.5 60t-87.5 24q-54 0 -91.5 -27t-37.5 -67q0 -43 52 -70q27 -13 55 -21l75 -21q70 -19 107 -38q45 -21 68.5 -57t27.5 -96q0 -93 -69 -150q-70 -56 -178 -56q-98 0 -167 45q-70 47 -89 117l99 30q9 -41 53 -68.5t105 -27.5q63 0 104.5 28.5
t41.5 73.5q0 29 -23 52q-20 20 -43 30t-66 20q-121 35 -161 57q-91 49 -91 146q0 87 63 141q64 55 163 55q89 0 153 -43t82 -108z" />
    <glyph glyph-name="uni0406" unicode="&#x406;" horiz-adv-x="239" 
d="M169 0h-100v675h100v-675z" />
    <glyph glyph-name="uni0407" unicode="&#x407;" horiz-adv-x="239" 
d="M169 0h-100v675h100v-675zM-38 806q0 26 17 43t43 17q25 0 42 -17.5t17 -42.5t-17 -41.5t-42 -16.5q-26 0 -43 16.5t-17 41.5zM277 806q0 -25 -17 -41.5t-43 -16.5q-39 -3 -54.5 35.5t12.5 64.5q27 29 64.5 13.5t37.5 -55.5z" />
    <glyph glyph-name="uni0408" unicode="&#x408;" horiz-adv-x="568" 
d="M507 675v-431q0 -110 -76 -183q-74 -73 -187 -73q-71 0 -129 30.5t-94 85.5l83 54q21 -36 58.5 -57t82.5 -21q73 2 118 47q48 47 48 117v431h96z" />
    <glyph glyph-name="uni0409" unicode="&#x409;" horiz-adv-x="1092" 
d="M40 0h-26v93h26q50 0 77 55q28 55 28 199v328h487v-255h196q95 0 158 -60q64 -60 64 -150t-64 -150q-63 -60 -158 -60h-296v582h-287v-235q0 -347 -205 -347zM632 327v-234h196q51 0 84.5 33.5t33.5 83.5t-33.5 83.5t-84.5 33.5h-196z" />
    <glyph glyph-name="uni040A" unicode="&#x40a;" horiz-adv-x="1109" 
d="M169 0h-100v675h100v-272h379v272h100v-272h197q96 0 158 -58q64 -57 64 -143t-64 -144q-62 -58 -158 -58h-297v311h-379v-311zM845 311h-197v-218h197q51 0 84.5 31t33.5 78t-33.5 78t-84.5 31z" />
    <glyph glyph-name="uni040B" unicode="&#x40b;" horiz-adv-x="847" 
d="M269 0v582h-244v93h588v-93h-244v-172q61 15 133 15q136 0 210.5 -58t74.5 -166v-201h-99v201q0 132 -185 132q-61 0 -134 -15v-318h-100z" />
    <glyph glyph-name="uni040C" unicode="&#x40c;" horiz-adv-x="623" 
d="M609 0h-127l-312 345l292 330h128l-292 -330zM69 0v675h100v-675h-100zM451 835l-188 -89l-31 56l175 115z" />
    <glyph glyph-name="uni040D" unicode="&#x40d;" horiz-adv-x="721" 
d="M69 0v675h100v-507l391 507h92v-675h-100v506l-391 -506h-92zM436 803l-31 -56l-188 89l44 82z" />
    <glyph glyph-name="uni040E" unicode="&#x40e;" horiz-adv-x="663" 
d="M301 172l-287 503h110l228 -402l190 402h107l-241 -507q-81 -168 -221 -168h-68v93h61q72 0 121 79zM333 733q-77 0 -127 46q-51 47 -51 117h83q0 -36 27 -60t67 -24q39 0 65 24t26 60h83q0 -70 -50 -117q-49 -46 -123 -46z" />
    <glyph glyph-name="uni040F" unicode="&#x40f;" horiz-adv-x="703" 
d="M69 0v675h100v-582h365v582h100v-675h-233v-164h-99v164h-233z" />
    <glyph glyph-name="uni0410" unicode="&#x410;" horiz-adv-x="697" 
d="M119 0h-105l294 675h81l293 -675h-104l-62 144h-335zM476 236l-127 297l-128 -297h255z" />
    <glyph glyph-name="uni0411" unicode="&#x411;" horiz-adv-x="638" 
d="M69 675h458v-93h-358v-162h197q95 0 158 -60q64 -60 64 -150t-64 -150q-63 -60 -158 -60h-297v675zM169 327v-234h197q51 0 84.5 33.5t33.5 83.5t-33.5 83.5t-84.5 33.5h-197z" />
    <glyph glyph-name="uni0412" unicode="&#x412;" horiz-adv-x="664" 
d="M410 0h-341v675h322q85 0 141 -51q57 -51 57 -128q0 -86 -72 -140q48 -24 75.5 -68t27.5 -97q0 -81 -60 -137q-60 -54 -150 -54zM410 303h-241v-210h241q46 0 76.5 30t30.5 75t-30.5 75t-76.5 30zM391 582h-222v-186h222q41 0 68 26.5t27 66.5t-27 66.5t-68 26.5z" />
    <glyph glyph-name="uni0413" unicode="&#x413;" horiz-adv-x="530" 
d="M169 582v-582h-100v675h436v-93h-336z" />
    <glyph glyph-name="uni0414" unicode="&#x414;" horiz-adv-x="798" 
d="M122 0v-164h-101v257h78q78 25 78 251v331h490v-582h109v-257h-99v164h-555zM226 93h341v489h-290v-234q0 -170 -51 -255z" />
    <glyph glyph-name="uni0415" unicode="&#x415;" 
d="M69 675h490v-93h-390v-194h339v-93h-339v-202h395v-93h-495v675z" />
    <glyph glyph-name="uni0416" unicode="&#x416;" horiz-adv-x="965" 
d="M433 345l-294 -345h-125l295 345l-275 330h124l275 -330v330h100v-329l274 329h124l-274 -330l294 -345h-125l-293 344v-344h-100v345z" />
    <glyph glyph-name="uni0417" unicode="&#x417;" horiz-adv-x="619" 
d="M310 -12q-196 0 -272 166l97 36q46 -106 174 -106q72 0 118 32t46 82q0 43 -33 73q-31 31 -79 31h-129v92h127q42 0 70 27t28 66q0 46 -41.5 75t-107.5 29q-121 0 -170 -106l-96 36q73 166 267 166q109 0 180 -54q71 -53 71 -136q0 -93 -83 -147q46 -27 72.5 -69
t26.5 -92q0 -88 -75 -145q-76 -56 -191 -56z" />
    <glyph glyph-name="uni0418" unicode="&#x418;" horiz-adv-x="721" 
d="M161 0h-92v675h100v-507l391 507h92v-675h-100v506z" />
    <glyph glyph-name="uni0419" unicode="&#x419;" horiz-adv-x="721" 
d="M161 0h-92v675h100v-507l391 507h92v-675h-100v506zM188 896h83q0 -36 27 -60t67 -24q39 0 65 24t26 60h83q0 -70 -50 -117q-49 -46 -124 -46q-73 0 -125 45t-52 118z" />
    <glyph glyph-name="uni041A" unicode="&#x41a;" horiz-adv-x="623" 
d="M609 0h-127l-312 345l292 330h128l-292 -330zM69 0v675h100v-675h-100z" />
    <glyph glyph-name="uni041B" unicode="&#x41b;" horiz-adv-x="701" 
d="M40 0h-26v93h26q34 0 54 19q51 47 51 235v328h487v-675h-100v582h-287v-235q0 -347 -205 -347z" />
    <glyph glyph-name="uni041C" unicode="&#x41c;" horiz-adv-x="862" 
d="M169 0h-100v675h100l262 -461l262 461h100v-675h-100v484l-229 -402h-66l-229 403v-485z" />
    <glyph glyph-name="uni041D" unicode="&#x41d;" horiz-adv-x="718" 
d="M169 0h-100v675h100v-287h379v287h100v-675h-100v295h-379v-295z" />
    <glyph glyph-name="uni041E" unicode="&#x41e;" horiz-adv-x="790" 
d="M46 337q0 150 100 250t249 100t249 -100q101 -101 101 -250q0 -148 -101 -249q-100 -100 -249 -100t-249 100t-100 249zM149 337q0 -108 70 -181q71 -72 176 -72q104 0 175 72q71 74 71 181q0 108 -71 181q-70 73 -175 73q-106 0 -176 -73q-70 -71 -70 -181z" />
    <glyph glyph-name="uni041F" unicode="&#x41f;" horiz-adv-x="718" 
d="M169 582v-582h-100v675h579v-675h-100v582h-379z" />
    <glyph glyph-name="uni0420" unicode="&#x420;" horiz-adv-x="633" 
d="M169 253v-253h-100v675h298q95 0 159 -61q64 -60 64 -150t-64 -151q-64 -60 -159 -60h-198zM367 582h-198v-237h198q51 0 85.5 34t34.5 85t-34.5 84.5t-85.5 33.5z" />
    <glyph glyph-name="uni0421" unicode="&#x421;" horiz-adv-x="745" 
d="M46 337q0 150 100 250t249 100q101 0 183 -48t125 -132l-96 -37q-33 57 -88.5 89t-123.5 32q-106 0 -176 -73q-70 -71 -70 -181q0 -108 70 -181q71 -72 176 -72q68 0 123.5 32t88.5 89l96 -37q-43 -84 -125 -132t-183 -48q-149 0 -249 100t-100 249z" />
    <glyph glyph-name="uni0422" unicode="&#x422;" horiz-adv-x="638" 
d="M269 582h-244v93h588v-93h-244v-582h-100v582z" />
    <glyph glyph-name="uni0423" unicode="&#x423;" horiz-adv-x="663" 
d="M301 172l-287 503h110l228 -402l190 402h107l-241 -507q-81 -168 -221 -168h-68v93h61q72 0 121 79z" />
    <glyph glyph-name="uni0424" unicode="&#x424;" horiz-adv-x="829" 
d="M46 338q0 118 90 198q92 80 228 81v70h100v-70q138 -1 228 -81q91 -79 91 -198q0 -121 -91 -200q-89 -78 -228 -80v-70h-100v70q-138 2 -228 80q-90 79 -90 200zM464 521v-367q95 0 154 52q61 52 61 132t-61 131q-59 52 -154 52zM364 154v367q-95 -2 -155 -53t-60 -130
q0 -78 60 -131q60 -51 155 -53z" />
    <glyph glyph-name="uni0425" unicode="&#x425;" horiz-adv-x="658" 
d="M270 344l-246 331h119l186 -251l186 251h120l-246 -331l255 -344h-119l-196 263l-195 -263h-120z" />
    <glyph glyph-name="uni0426" unicode="&#x426;" horiz-adv-x="765" 
d="M69 0v675h100v-582h365v582h100v-582h109v-257h-100v164h-574z" />
    <glyph glyph-name="uni0427" unicode="&#x427;" horiz-adv-x="661" 
d="M336 250q-139 0 -216.5 58.5t-77.5 165.5v201h100v-201q0 -132 193 -132q78 0 157 19v314h100v-675h-100v269q-76 -19 -156 -19z" />
    <glyph glyph-name="uni0428" unicode="&#x428;" horiz-adv-x="1033" 
d="M69 0v675h100v-582h294v582h100v-582h301v582h100v-675h-895z" />
    <glyph glyph-name="uni0429" unicode="&#x429;" horiz-adv-x="1095" 
d="M69 675h100v-582h294v582h100v-582h301v582h100v-582h109v-257h-100v164h-904v675z" />
    <glyph glyph-name="uni042A" unicode="&#x42a;" horiz-adv-x="818" 
d="M257 0v582h-232v93h332v-255h197q95 0 158 -60q64 -60 64 -150t-64 -150q-63 -60 -158 -60h-297zM357 327v-234h197q51 0 84.5 33.5t33.5 83.5t-33.5 83.5t-84.5 33.5h-197z" />
    <glyph glyph-name="uni042B" unicode="&#x42b;" horiz-adv-x="853" 
d="M366 0h-297v675h100v-255h197q95 0 158 -60q64 -60 64 -150t-64 -150q-63 -60 -158 -60zM169 327v-234h197q51 0 84.5 33.5t33.5 83.5q0 49 -30 80.5t-80 36.5h-8h-197zM783 0h-100v675h100v-675z" />
    <glyph glyph-name="uni042C" unicode="&#x42c;" horiz-adv-x="630" 
d="M69 0v675h100v-255h197q95 0 158 -60q64 -60 64 -150t-64 -150q-63 -60 -158 -60h-297zM169 327v-234h197q50 0 81.5 30t36.5 79q0 55 -32.5 90t-85.5 35h-197z" />
    <glyph glyph-name="uni042D" unicode="&#x42d;" horiz-adv-x="745" 
d="M42 168l96 37q32 -57 88 -89t124 -32q93 0 161 59q69 59 82 152h-294v93h293q-17 89 -84 146q-68 57 -158 57q-68 0 -124 -32t-88 -89l-96 36q45 84 126.5 132.5t181.5 48.5q149 0 249 -100q101 -101 101 -249q0 -149 -101 -250q-100 -100 -249 -100q-101 0 -182 48
t-126 132z" />
    <glyph glyph-name="uni042E" unicode="&#x42e;" horiz-adv-x="1034" 
d="M69 0v675h100v-287h123q17 131 113 215q97 84 233 84q150 0 250 -100t100 -249q0 -150 -100 -250t-250 -100q-137 0 -235 86q-97 86 -112 221h-122v-295h-100zM392 338q0 -109 70 -182q70 -72 176 -72t176 72q70 73 70 182t-70 180q-70 73 -176 73t-176 -73
q-70 -71 -70 -180z" />
    <glyph glyph-name="uni042F" unicode="&#x42f;" horiz-adv-x="653" 
d="M308 254l-153 -254h-112l160 265q-67 20 -108.5 74t-41.5 125q0 90 64 150q64 61 160 61h307v-675h-100v254h-176zM277 346h207v236h-207q-52 0 -86 -34t-34 -84t34 -84t86 -34z" />
    <glyph glyph-name="uni0430" unicode="&#x430;" horiz-adv-x="552" 
d="M257 462q87 0 149 -59v47h90v-450h-90v47q-62 -59 -149 -59q-93 0 -158 68q-63 67 -63 169q0 101 63 169q65 68 158 68zM364 329q-39 42 -97 42q-57 0 -98 -42q-39 -42 -39 -104t39 -104q41 -42 98 -42q58 0 97 42q40 41 40 104t-40 104z" />
    <glyph glyph-name="uni0431" unicode="&#x431;" horiz-adv-x="563" 
d="M39 337q0 154 63.5 235t191.5 98q117 16 139 62l42 -53q-11 -35 -58 -61t-102 -36q-94 -13 -138.5 -67.5t-46.5 -152.5q24 46 67.5 73t99.5 27q97 0 163 -69q67 -68 67 -169q0 -102 -67 -169q-66 -67 -166 -67q-110 0 -183 88q-72 88 -72 261zM196 329q-39 -42 -39 -104
t39 -104q40 -42 99 -42t98 42q40 41 40 104t-40 104q-39 42 -98 42t-99 -42z" />
    <glyph glyph-name="uni0432" unicode="&#x432;" horiz-adv-x="484" 
d="M56 450h237q55 0 95.5 -31t45.5 -81q0 -62 -42 -99q63 -36 63 -104q0 -59 -41 -97t-104 -38h-254v450zM146 195v-108h164q22 0 36.5 15.5t14.5 38.5t-14.5 38.5t-36.5 15.5h-164zM293 363h-147v-92h147q20 0 33.5 13t13.5 33t-13.5 33t-33.5 13z" />
    <glyph glyph-name="uni0433" unicode="&#x433;" horiz-adv-x="360" 
d="M146 363v-363h-90v450h292v-87h-202z" />
    <glyph glyph-name="uni0434" unicode="&#x434;" horiz-adv-x="583" 
d="M108 0v-138h-91v225h69q34 35 34 150v213h364v-363h82v-225h-91v138h-367zM183 87h211v276h-184v-131q0 -88 -27 -145z" />
    <glyph glyph-name="uni0435" unicode="&#x435;" horiz-adv-x="532" 
d="M501 192h-372q11 -52 51.5 -85.5t96.5 -33.5q75 0 119 56l88 -27q-30 -52 -85.5 -83t-121.5 -31q-102 0 -172 68q-69 68 -69 169q0 102 67 169q68 68 167 68q98 0 166 -68q67 -67 67 -169q0 -19 -2 -33zM130 264h280q-12 51 -51 82t-91 31q-50 0 -88.5 -31.5t-49.5 -81.5
z" />
    <glyph glyph-name="uni0436" unicode="&#x436;" horiz-adv-x="668" 
d="M121 0h-108l177 233l-159 217h106l152 -206v206h90v-206l152 206h106l-159 -217l178 -233h-109l-168 222v-222h-90v222z" />
    <glyph glyph-name="uni0437" unicode="&#x437;" horiz-adv-x="465" 
d="M29 118l91 24q24 -67 109 -67q48 0 79 20t31 49q0 21 -16 35t-40 14h-110v76h105q22 0 37 13t15 31q0 26 -28 44t-71 18q-84 0 -109 -67l-91 23q20 61 75 96t129 35q81 0 135 -39t54 -98q0 -57 -51 -92q59 -36 59 -101q0 -62 -57 -103q-58 -41 -144 -41q-75 0 -129 34.5
t-73 95.5z" />
    <glyph glyph-name="uni0438" unicode="&#x438;" horiz-adv-x="531" 
d="M385 297l-254 -297h-75v450h90v-300l254 300h76v-450h-91v297z" />
    <glyph glyph-name="uni0439" unicode="&#x439;" horiz-adv-x="531" 
d="M56 0v450h90v-300l254 300h76v-450h-91v297l-254 -297h-75zM112 679h79q0 -31 21.5 -51.5t53.5 -20.5t53 20.5t21 51.5h79q0 -61 -44 -105q-43 -43 -109 -43q-67 0 -110 43q-44 44 -44 105z" />
    <glyph glyph-name="uni043A" unicode="&#x43a;" horiz-adv-x="462" 
d="M146 229v-229h-90v450h90v-213l174 213h111l-177 -217l196 -233h-112z" />
    <glyph glyph-name="uni043B" unicode="&#x43b;" horiz-adv-x="519" 
d="M50 0h-33v87h26q30 0 45 32t15 110v221h360v-450h-90v363h-180v-153q0 -105 -38 -157.5t-105 -52.5z" />
    <glyph glyph-name="uni043C" unicode="&#x43c;" horiz-adv-x="611" 
d="M146 281v-281h-90v450h90l159 -277l159 277h91v-450h-91v278l-131 -226h-56z" />
    <glyph glyph-name="uni043D" unicode="&#x43d;" horiz-adv-x="531" 
d="M146 186v-186h-90v450h90v-178h238v178h91v-450h-91v186h-238z" />
    <glyph glyph-name="uni043E" unicode="&#x43e;" horiz-adv-x="544" 
d="M103 56q-67 67 -67 169t67 169q68 68 169 68t169 -68t68 -169t-68 -169t-169 -68t-169 68zM170 329q-40 -41 -40 -104t40 -104q40 -42 102 -42q60 0 101 42q41 43 41 104t-41 104q-41 42 -101 42q-62 0 -102 -42z" />
    <glyph glyph-name="uni043F" unicode="&#x43f;" horiz-adv-x="523" 
d="M146 363v-363h-90v450h411v-450h-90v363h-231z" />
    <glyph glyph-name="uni0440" unicode="&#x440;" horiz-adv-x="552" 
d="M146 -225h-90v675h90v-47q62 59 149 59q94 0 157 -68q64 -67 64 -169t-64 -169q-63 -68 -157 -68q-87 0 -149 59v-272zM382 329q-39 42 -97 42q-57 0 -98 -42q-39 -42 -39 -104t39 -104q41 -42 98 -42q58 0 97 42q40 41 40 104t-40 104z" />
    <glyph glyph-name="uni0441" unicode="&#x441;" horiz-adv-x="516" 
d="M490 320l-91 -28q-17 36 -51 57.5t-76 21.5q-62 0 -102 -42q-40 -41 -40 -104t40 -104q40 -42 102 -42q42 0 76 21.5t51 57.5l91 -27q-27 -66 -85.5 -104.5t-132.5 -38.5q-101 0 -169 68q-67 67 -67 169t67 169q68 68 169 68q75 0 133 -38t85 -104z" />
    <glyph glyph-name="uni0442" unicode="&#x442;" horiz-adv-x="433" 
d="M171 0v363h-158v87h407v-87h-158v-363h-91z" />
    <glyph glyph-name="uni0443" unicode="&#x443;" horiz-adv-x="469" 
d="M161 -53l26 65l-176 438h94l128 -326l131 326h94l-219 -534q-30 -73 -75 -107t-112 -34h-16v87h16q75 0 109 85z" />
    <glyph glyph-name="uni0444" unicode="&#x444;" horiz-adv-x="687" 
d="M413 -12q-14 0 -24 2v-215h-91v215q-10 -2 -24 -2q-101 0 -169 68q-67 67 -67 169t67 169q68 68 169 68q14 0 24 -2v265h91v-265q10 2 24 2q101 0 169 -68t68 -169t-68 -169t-169 -68zM274 371q-62 0 -102 -42q-41 -43 -41 -104t41 -104q40 -42 102 -42q6 0 24 2v288
q-18 2 -24 2zM413 371q-2 0 -24 -2v-288q22 -2 24 -2q61 0 102 42q41 43 41 104t-41 104q-41 42 -102 42z" />
    <glyph glyph-name="uni0445" unicode="&#x445;" horiz-adv-x="477" 
d="M358 0l-119 158l-119 -158h-107l173 231l-164 219h106l111 -147l111 147h106l-164 -219l172 -231h-106z" />
    <glyph glyph-name="uni0446" unicode="&#x446;" horiz-adv-x="561" 
d="M56 0v450h90v-363h226v363h91v-363h81v-225h-91v138h-397z" />
    <glyph glyph-name="uni0447" unicode="&#x447;" horiz-adv-x="481" 
d="M36 307v143h94v-143q0 -61 88 -61q32 0 117 9v195h90v-450h-90v168q-88 -9 -122 -9q-80 0 -128.5 41t-48.5 107z" />
    <glyph glyph-name="uni0448" unicode="&#x448;" horiz-adv-x="747" 
d="M56 0v450h90v-363h182v363h91v-363h183v363h90v-450h-636z" />
    <glyph glyph-name="uni0449" unicode="&#x449;" horiz-adv-x="790" 
d="M56 450h90v-363h182v363h91v-363h183v363h90v-363h81v-225h-90v138h-627v450z" />
    <glyph glyph-name="uni044A" unicode="&#x44a;" horiz-adv-x="577" 
d="M169 0v363h-156v87h246v-154h138q65 0 108 -42t43 -106q0 -63 -43 -106q-43 -42 -108 -42h-228zM397 210h-138v-123h138q24 0 40.5 17.5t16.5 43.5t-16.5 44t-40.5 18z" />
    <glyph glyph-name="uni044B" unicode="&#x44b;" horiz-adv-x="642" 
d="M284 0h-228v450h90v-154h138q64 0 108 -42q43 -42 43 -106q0 -60 -39 -101.5t-99 -46.5h-13zM586 0h-90v450h90v-450zM284 210h-138v-123h138q24 0 40.5 17.5t16.5 43.5t-16.5 44t-40.5 18z" />
    <glyph glyph-name="uni044C" unicode="&#x44c;" horiz-adv-x="464" 
d="M284 0h-228v450h90v-154h138q62 0 104 -37.5t47 -97.5q0 -72 -40.5 -116.5t-110.5 -44.5zM146 210v-123h138q24 0 40.5 17.5t16.5 43.5t-16.5 44t-40.5 18h-138z" />
    <glyph glyph-name="uni044D" unicode="&#x44d;" horiz-adv-x="519" 
d="M29 131l91 27q17 -36 51 -57.5t76 -21.5q51 0 89 30t49 78h-185v83h184q-14 45 -51.5 73t-85.5 28q-42 0 -76 -21.5t-51 -57.5l-91 27q27 66 85.5 104.5t132.5 38.5q100 0 168 -68t68 -169t-68 -169t-168 -68q-74 0 -132.5 38.5t-85.5 104.5z" />
    <glyph glyph-name="uni044E" unicode="&#x44e;" horiz-adv-x="733" 
d="M56 0v450h90v-178h91q15 85 78 137q65 53 151 53q99 0 165 -68q67 -67 67 -169t-67 -169q-66 -68 -165 -68q-89 0 -153 55q-63 54 -77 143h-90v-186h-90zM564 329q-39 42 -98 42q-58 0 -99 -42q-40 -41 -40 -104t40 -104q41 -42 99 -42q59 0 98 42q40 41 40 104t-40 104z
" />
    <glyph glyph-name="uni044F" unicode="&#x44f;" horiz-adv-x="494" 
d="M141 0h-107l112 160q-48 14 -77 52.5t-29 89.5q0 63 43 105q43 43 108 43h248v-450h-91v154h-100zM191 241h157v122h-157q-24 0 -40.5 -17.5t-16.5 -43.5t16.5 -43.5t40.5 -17.5z" />
    <glyph glyph-name="uni0450" unicode="&#x450;" horiz-adv-x="532" 
d="M501 192h-372q11 -52 51.5 -85.5t96.5 -33.5q75 0 119 56l88 -27q-30 -52 -85.5 -83t-121.5 -31q-102 0 -172 68q-69 68 -69 169q0 102 67 169q68 68 167 68q98 0 166 -68q67 -67 67 -169q0 -19 -2 -33zM130 264h280q-12 51 -51 82t-91 31q-50 0 -88.5 -31.5t-49.5 -81.5
zM316 540l-188 90l44 81l175 -115z" />
    <glyph glyph-name="uni0451" unicode="&#x451;" horiz-adv-x="532" 
d="M501 192h-372q11 -52 51.5 -85.5t96.5 -33.5q75 0 119 56l88 -27q-30 -52 -85.5 -83t-121.5 -31q-102 0 -172 68q-69 68 -69 169q0 102 67 169q68 68 167 68q98 0 166 -68q67 -67 67 -169q0 -19 -2 -33zM130 264h280q-12 51 -51 82t-91 31q-50 0 -88.5 -31.5t-49.5 -81.5
zM131 557q-17 17 -17 43t17 43t42 17t42 -17t17 -43t-17 -43q-17 -16 -42 -16t-42 16zM327 557q-17 17 -17 43t17 43t42 17t42 -17t17 -43t-17 -43q-17 -16 -42 -16t-42 16z" />
    <glyph glyph-name="uni0452" unicode="&#x452;" horiz-adv-x="534" 
d="M146 725v-102h155v-75h-155v-163q51 77 150 77q78 0 131 -51q52 -49 52 -127v-372q0 -58 -42 -97q-40 -40 -102 -40h-42v87h36q25 0 42 18t17 44v335q0 50 -33.5 83t-84.5 33q-53 0 -88.5 -33.5t-35.5 -83.5v-258h-90v548h-49v75h49v102h90z" />
    <glyph glyph-name="uni0453" unicode="&#x453;" horiz-adv-x="360" 
d="M146 363v-363h-90v450h292v-87h-202zM341 629l-188 -90l-31 56l175 115z" />
    <glyph glyph-name="uni0454" unicode="&#x454;" horiz-adv-x="519" 
d="M272 -12q-101 0 -169 68q-67 67 -67 169t67 169q68 68 169 68q74 0 132.5 -38.5t85.5 -104.5l-91 -27q-17 36 -51 57.5t-76 21.5q-48 0 -85.5 -28t-51.5 -73h199v-83h-200q11 -48 49 -78t89 -30q42 0 76 21.5t51 57.5l91 -27q-27 -66 -85.5 -104.5t-132.5 -38.5z" />
    <glyph glyph-name="uni0455" unicode="&#x455;" horiz-adv-x="415" 
d="M375 347l-84 -15q-17 50 -88 50q-33 0 -54 -13.5t-21 -34.5q0 -28 44 -45l101 -35q110 -39 110 -129q0 -65 -48 -101t-125 -36q-76 0 -124 34t-57 92l86 13q5 -27 31.5 -43t65.5 -16q37 0 61 15t24 39q0 33 -55 52l-100 33q-101 35 -101 120q0 65 46 100t123 35
q69 0 113 -31t52 -84z" />
    <glyph glyph-name="uni0456" unicode="&#x456;" horiz-adv-x="202" 
d="M146 0h-90v450h90v-450zM101 654q25 0 42 -17t17 -42q0 -40 -37 -55t-65 12q-27 28 -12 65t55 37z" />
    <glyph glyph-name="uni0457" unicode="&#x457;" horiz-adv-x="202" 
d="M146 0h-90v450h90v-450zM-46 600q0 26 17 43t43 17q25 0 42 -17.5t17 -42.5t-17 -42t-42 -17q-26 0 -43 17t-17 42zM188 660q26 0 43 -17t17 -43q0 -25 -17 -42t-43 -17q-25 0 -42 17t-17 42t17 42.5t42 17.5z" />
    <glyph glyph-name="uni0458" unicode="&#x458;" horiz-adv-x="208" 
d="M61 450h91v-538q0 -58 -42 -97q-40 -40 -102 -40h-42v87h35q25 0 42.5 18t17.5 44v526zM107 654q25 0 42 -17t17 -42q0 -26 -17 -43t-42 -17q-26 0 -43 17t-17 43t17 42.5t43 16.5z" />
    <glyph glyph-name="uni0459" unicode="&#x459;" horiz-adv-x="780" 
d="M50 0h-33v87h26q30 0 45 32t15 110v221h360v-154h138q65 0 108 -42t43 -106q0 -63 -43 -106q-43 -42 -108 -42h-228v363h-180v-153q0 -105 -38 -157.5t-105 -52.5zM601 210h-138v-123h138q24 0 40.5 17.5t16.5 43.5t-16.5 44t-40.5 18z" />
    <glyph glyph-name="uni045A" unicode="&#x45a;" horiz-adv-x="792" 
d="M146 197v-197h-90v450h90v-166h238v166h91v-166h138q64 0 108 -41q43 -40 43 -101q0 -62 -43 -102t-108 -40h-229v197h-238zM613 197h-138v-110h138q24 0 40.5 15.5t16.5 39.5t-16.5 39.5t-40.5 15.5z" />
    <glyph glyph-name="uni045B" unicode="&#x45b;" horiz-adv-x="534" 
d="M146 725v-102h155v-75h-155v-163q51 77 150 77q78 0 131 -51q52 -49 52 -127v-284h-91v259q0 50 -33.5 83t-84.5 33q-53 0 -88.5 -33.5t-35.5 -83.5v-258h-90v548h-49v75h49v102h90z" />
    <glyph glyph-name="uni045C" unicode="&#x45c;" horiz-adv-x="462" 
d="M146 229v-229h-90v450h90v-213l174 213h111l-177 -217l196 -233h-112zM177 539l-31 56l175 115l44 -81z" />
    <glyph glyph-name="uni045D" unicode="&#x45d;" horiz-adv-x="531" 
d="M385 297l-254 -297h-75v450h90v-300l254 300h76v-450h-91v297zM341 596l-31 -56l-188 90l44 81z" />
    <glyph glyph-name="uni045E" unicode="&#x45e;" horiz-adv-x="469" 
d="M187 12l-176 438h94l128 -326l131 326h94l-219 -534q-30 -73 -75 -107t-112 -34h-16v87h16q75 0 109 85zM81 679h79q0 -31 21.5 -51.5t53.5 -20.5t53 20.5t21 51.5h79q0 -61 -44 -105q-43 -43 -109 -43q-67 0 -110 43q-44 44 -44 105z" />
    <glyph glyph-name="uni045F" unicode="&#x45f;" horiz-adv-x="518" 
d="M56 0v450h90v-363h226v363h91v-450h-160v-138h-90v138h-157z" />
    <glyph glyph-name="uni0490" unicode="&#x490;" horiz-adv-x="511" 
d="M169 582v-582h-100v675h317v145h100v-238h-317z" />
    <glyph glyph-name="uni0491" unicode="&#x491;" horiz-adv-x="360" 
d="M146 363v-363h-90v450h201v113h90v-200h-201z" />
    <glyph glyph-name="uni04D8" unicode="&#x4d8;" horiz-adv-x="787" 
d="M395 687q149 0 249 -100t100 -249q0 -150 -100 -250t-249 -100t-249 100t-100 250q0 22 3 43h588q-14 93 -81 151q-68 59 -161 59q-119 0 -190 -89l-97 39q47 69 122 107.5t165 38.5zM636 288h-482q15 -90 82 -147q68 -57 159 -57t159 57q67 57 82 147z" />
    <glyph glyph-name="uni04D9" unicode="&#x4d9;" horiz-adv-x="532" 
d="M31 258h372q-11 52 -51.5 85.5t-96.5 33.5q-75 0 -119 -56l-88 27q30 53 85 83.5t122 30.5q102 0 172 -68q69 -68 69 -169q0 -102 -67 -169q-68 -68 -167 -68q-98 0 -166 68q-67 67 -67 169q0 19 2 33zM402 186h-280q12 -50 51 -81.5t91 -31.5q50 0 88.5 31.5t49.5 81.5z
" />
    <glyph glyph-name="Wgrave" unicode="&#x1e80;" horiz-adv-x="976" 
d="M326 0h-81l-231 675h103l168 -516l163 516h80l164 -516l167 516h103l-231 -675h-81l-162 501zM532 747l-187 89l44 82l175 -115z" />
    <glyph glyph-name="wgrave" unicode="&#x1e81;" horiz-adv-x="677" 
d="M161 0l-150 450h92l98 -310l97 310h81l98 -310l97 310h91l-149 -450h-81l-96 300l-98 -300h-80zM239 711l175 -115l-31 -56l-188 90z" />
    <glyph glyph-name="Wacute" unicode="&#x1e82;" horiz-adv-x="976" 
d="M326 0h-81l-231 675h103l168 -516l163 516h80l164 -516l167 516h103l-231 -675h-81l-162 501zM628 835l-188 -89l-31 56l175 115z" />
    <glyph glyph-name="wacute" unicode="&#x1e83;" horiz-adv-x="677" 
d="M161 0l-150 450h92l98 -310l97 310h81l98 -310l97 310h91l-149 -450h-81l-96 300l-98 -300h-80zM479 629l-188 -90l-31 56l175 115z" />
    <glyph glyph-name="Wdieresis" unicode="&#x1e84;" horiz-adv-x="976" 
d="M326 0h-81l-231 675h103l168 -516l163 516h80l164 -516l167 516h103l-231 -675h-81l-162 501zM526 806q0 26 17 43t43 17q25 0 42 -17.5t17 -42.5t-17 -41.5t-42 -16.5q-26 0 -43 16.5t-17 41.5zM390 866q25 0 42 -17.5t17 -42.5t-17 -41.5t-42 -16.5q-26 0 -43 16.5
t-17 41.5q0 26 17 43t43 17z" />
    <glyph glyph-name="wdieresis" unicode="&#x1e85;" horiz-adv-x="677" 
d="M161 0l-150 450h92l98 -310l97 310h81l98 -310l97 310h91l-149 -450h-81l-96 300l-98 -300h-80zM436 660q26 0 43 -17t17 -43q0 -25 -17 -42t-43 -17q-25 0 -42 17t-17 42t17 42.5t42 17.5zM241 541q-26 0 -43 17t-17 42q0 40 37.5 55.5t64.5 -13.5q28 -26 12 -65
t-54 -36z" />
    <glyph glyph-name="Germandbls" unicode="&#x1e9e;" horiz-adv-x="628" 
d="M167 436v-436h-98v438q0 102 72 169q74 68 182 68h252v-73l-116 -181q58 -20 95 -75q38 -56 38 -123q0 -101 -82 -168q-80 -67 -201 -67v98q77 0 130 39q53 41 53 99q0 59 -52 98q-50 40 -129 40l138 219h-125q-66 0 -112 -42q-45 -41 -45 -103z" />
    <glyph glyph-name="Ygrave" unicode="&#x1ef2;" horiz-adv-x="651" 
d="M275 274l-261 401h115l195 -306l198 306h115l-262 -397l-1 -278h-99v274zM401 803l-31 -56l-188 89l45 82z" />
    <glyph glyph-name="ygrave" unicode="&#x1ef3;" horiz-adv-x="469" 
d="M187 12l-176 438h94l128 -326l131 326h94l-219 -534q-30 -73 -75 -107t-112 -34h-16v87h16q75 0 109 85zM279 540l-188 90l44 81l175 -115z" />
    <glyph glyph-name="figuredash" unicode="&#x2012;" 
d="M68 295v85h464v-85h-464z" />
    <glyph glyph-name="endash" unicode="&#x2013;" 
d="M63 184v83h474v-83h-474z" />
    <glyph glyph-name="emdash" unicode="&#x2014;" horiz-adv-x="1000" 
d="M63 184v83h874v-83h-874z" />
    <glyph glyph-name="quoteleft" unicode="&#x2018;" horiz-adv-x="201" 
d="M37 598q0 86 94 149l29 -30q-1 -1 -5.5 -6.5t-7.5 -9.5q-6 -8 -21 -32q-13 -22 -13 -36q22 -3 36.5 -20.5t14.5 -41.5t-17.5 -41t-43.5 -17q-29 0 -47.5 23.5t-18.5 61.5z" />
    <glyph glyph-name="quoteright" unicode="&#x2019;" horiz-adv-x="201" 
d="M165 651q0 -26 -10 -51t-22.5 -41.5t-27.5 -30t-23 -19t-11 -6.5l-29 30l13 15q9 10 21 31q13 22 13 38q-22 3 -37 20.5t-15 40.5q0 25 17.5 42t43.5 17q29 0 48 -24t19 -62z" />
    <glyph glyph-name="quotesinglbase" unicode="&#x201a;" horiz-adv-x="201" 
d="M165 24q0 -27 -10 -52t-22.5 -41.5t-27.5 -30t-23 -19t-11 -6.5l-29 30q1 1 5.5 6.5t7.5 9.5q6 8 21 32q13 22 13 36q-22 3 -37 20.5t-15 41.5t17.5 41t43.5 17q29 0 48 -23.5t19 -61.5z" />
    <glyph glyph-name="quotereversed" unicode="&#x201b;" horiz-adv-x="201" 
d="M37 656q0 36 18.5 58.5t47.5 22.5q26 0 43.5 -17t17.5 -42q0 -23 -14.5 -40.5t-36.5 -20.5q0 -24 35 -59l12 -11l-29 -30q-41 27 -59 50q-35 41 -35 89z" />
    <glyph glyph-name="quotedblleft" unicode="&#x201c;" horiz-adv-x="359" 
d="M194 598q0 27 10 52t22.5 41.5t27.5 30t23 19t11 6.5l29 -30q-1 -1 -5.5 -6.5t-7.5 -9.5q-6 -8 -21 -32q-13 -22 -13 -36q22 -3 37 -20.5t15 -41.5t-17.5 -41t-43.5 -17q-29 0 -48 23.5t-19 61.5zM37 598q0 86 94 149l29 -30q-1 -1 -5.5 -6.5t-7.5 -9.5q-6 -8 -21 -32
q-13 -22 -13 -36q22 -3 36.5 -20.5t14.5 -41.5t-17.5 -41t-43.5 -17q-29 0 -47.5 23.5t-18.5 61.5z" />
    <glyph glyph-name="quotedblright" unicode="&#x201d;" horiz-adv-x="359" 
d="M165 651q0 -26 -10 -51t-22.5 -41.5t-27.5 -30t-23 -19t-11 -6.5l-29 30l13 15q9 10 21 31q13 22 13 38q-22 3 -37 20.5t-15 40.5q0 25 17.5 42t43.5 17q29 0 48 -24t19 -62zM322 651q0 -26 -10 -51t-22.5 -41.5t-27.5 -30t-23 -19t-11 -6.5l-29 30l13 15q9 10 21 31
q13 22 13 38q-22 3 -36.5 20.5t-14.5 40.5q0 25 17.5 42t43.5 17q29 0 47.5 -24t18.5 -62z" />
    <glyph glyph-name="quotedblbase" unicode="&#x201e;" horiz-adv-x="359" 
d="M165 24q0 -27 -10 -52t-22.5 -41.5t-27.5 -30t-23 -19t-11 -6.5l-29 30q1 1 5.5 6.5t7.5 9.5q6 8 21 32q13 22 13 36q-22 3 -37 20.5t-15 41.5t17.5 41t43.5 17q29 0 48 -23.5t19 -61.5zM322 24q0 -27 -10 -52t-22.5 -41.5t-27.5 -30t-23 -19t-11 -6.5l-29 30
q1 1 5.5 6.5t7.5 9.5q6 8 21 32q13 22 13 36q-22 3 -36.5 20.5t-14.5 41.5t17.5 41t43.5 17q29 0 47.5 -23.5t18.5 -61.5z" />
    <glyph glyph-name="uni201F" unicode="&#x201f;" horiz-adv-x="359" 
d="M194 656q0 36 18.5 58.5t48.5 22.5q26 0 43.5 -17t17.5 -42q0 -23 -15 -40.5t-37 -20.5q0 -24 35 -59l12 -11l-29 -30q-4 2 -11 6.5t-22.5 17.5t-28 28t-22.5 38.5t-10 48.5zM37 656q0 36 18.5 58.5t47.5 22.5q26 0 43.5 -17t17.5 -42q0 -23 -14.5 -40.5t-36.5 -20.5
q0 -24 35 -59l12 -11l-29 -30q-41 27 -59 50q-35 41 -35 89z" />
    <glyph glyph-name="dagger" unicode="&#x2020;" horiz-adv-x="461" 
d="M22 411v73h169v191h79v-191h168v-73h-168v-511h-79v511h-169z" />
    <glyph glyph-name="daggerdbl" unicode="&#x2021;" horiz-adv-x="461" 
d="M193 93h-171v70h171v248h-171v71h171v193h75v-193h170v-71h-170v-248h170v-70h-170v-193h-75v193z" />
    <glyph glyph-name="bullet" unicode="&#x2022;" horiz-adv-x="316" 
d="M158 346q53 0 87.5 -34.5t34.5 -86.5t-35 -86.5t-87 -34.5t-86.5 34.5t-34.5 86.5t34.5 86.5t86.5 34.5z" />
    <glyph glyph-name="ellipsis" unicode="&#x2026;" horiz-adv-x="585" 
d="M54 5q-17 18 -17 44t17 43q18 18 44 18t43 -18q17 -17 17 -43t-17 -44q-17 -17 -43 -17t-44 17zM249 5q-17 18 -17 44t17 43q18 18 44 18t43 -18q17 -17 17 -43t-17 -44q-17 -17 -43 -17t-44 17zM444 5q-17 18 -17 44t17 43q18 18 44 18t43 -18q18 -17 18 -43t-18 -44
q-17 -17 -43 -17t-44 17z" />
    <glyph glyph-name="perthousand" unicode="&#x2030;" horiz-adv-x="1208" 
d="M174 0l-54 45l528 630l54 -45zM33 517q0 73 49 121q49 49 121 49q73 0 121 -49q49 -48 49 -121t-49 -121q-48 -48 -121 -48q-71 0 -121 48q-49 49 -49 121zM119 517q0 -35 24.5 -59t59.5 -24t59.5 24t24.5 59t-24.5 59.5t-59.5 24.5t-59.5 -24t-24.5 -60zM447 158
q0 72 49 120q49 49 121 49q73 0 121 -49q49 -48 49 -120q0 -73 -49 -122q-48 -48 -121 -48q-71 0 -121 48q-49 49 -49 122zM557 217q-24 -24 -24 -59t24 -60q25 -24 60 -24t59 24q24 25 24 60t-24 59t-59 24t-60 -24zM836 158q0 72 48 120q49 49 121 49q73 0 121 -49
q49 -48 49 -120q0 -73 -49 -122q-48 -48 -121 -48q-71 0 -121 48q-48 49 -48 122zM946 217q-24 -24 -24 -59t24 -60q24 -24 59 -24t59 24q25 25 25 60t-25 59q-24 24 -59 24t-59 -24z" />
    <glyph glyph-name="guilsinglleft" unicode="&#x2039;" horiz-adv-x="304" 
d="M205 48l-177 177l177 177l55 -56l-121 -121l121 -121z" />
    <glyph glyph-name="guilsinglright" unicode="&#x203a;" horiz-adv-x="304" 
d="M99 402l177 -177l-177 -177l-55 56l121 121l-121 121z" />
    <glyph glyph-name="fraction" unicode="&#x2044;" horiz-adv-x="560" 
d="M86 0h-86l474 675h86z" />
    <glyph glyph-name="Euro" unicode="&#x20ac;" horiz-adv-x="809" 
d="M112 382h-89v71h105q34 105 124 169q91 65 207 65q100 0 181.5 -48.5t126.5 -131.5l-97 -37q-33 57 -88 89t-123 32q-72 0 -131.5 -37.5t-89.5 -100.5h251v-71h-273q-3 -21 -3 -44q0 -28 4 -45h272v-71h-251q30 -63 89.5 -100.5t131.5 -37.5q68 0 123.5 31.5t87.5 88.5
l97 -36q-43 -84 -125 -132t-183 -48q-118 0 -207 64q-90 65 -124 170h-105v71h90q-3 23 -3 45q0 6 2 44z" />
    <glyph glyph-name="uni20B4" unicode="&#x20b4;" horiz-adv-x="614" 
d="M275 370h-237v70h366q46 31 46 66q0 33 -38 59t-91 26q-50 0 -87.5 -24t-46.5 -60l-100 30q19 64 83 107t153 43q96 0 161 -50t65 -121q0 -42 -27 -76h55v-70h-139q-12 -8 -36 -20.5t-52.5 -26t-38.5 -18.5h266v-70h-380q-32 -27 -32 -58q0 -39 42 -66q43 -27 105 -27
q61 0 104.5 27.5t52.5 68.5l98 -30q-19 -70 -88 -116q-68 -46 -167 -46q-107 0 -177 52t-70 130q0 34 19 65h-46v70h118q29 21 119 65z" />
    <glyph glyph-name="uni2113" unicode="&#x2113;" horiz-adv-x="470" 
d="M119 205l-77 -36v96q35 14 77 39v253q0 79 41 129q40 51 105 51q64 0 106 -51q43 -49 43 -125q0 -161 -205 -302v-118q0 -27 15.5 -45t40.5 -18q22 0 46.5 16t36.5 35l12 17l57 -57q-23 -28 -30 -36q-56 -62 -130 -65q-58 0 -98 46t-40 113v58zM209 561v-196
q115 94 115 193q0 38 -16.5 63t-41.5 25t-41 -23.5t-16 -61.5z" />
    <glyph glyph-name="uni2116" unicode="&#x2116;" horiz-adv-x="1094" 
d="M166 502v-502h-97v675h88l399 -504v504h96v-675h-88zM718 521q0 71 47 118q48 48 119 48q72 0 118 -48q47 -47 47 -118q0 -70 -47 -117t-118 -47q-70 0 -119 47q-47 47 -47 117zM1040 208h-313v85h313v-85zM804 521q0 -33 23 -55.5t57 -22.5q33 0 56 22.5t23 55.5
q0 34 -23 57t-56 23q-34 0 -57 -23t-23 -57z" />
    <glyph glyph-name="uni2117" unicode="&#x2117;" horiz-adv-x="780" 
d="M390 683q142 0 243 -102q102 -101 102 -243t-101 -245q-101 -101 -244 -101t-244 101q-101 103 -101 245q0 143 101 244t244 101zM695 338q0 126 -90 215q-89 90 -215 90t-216 -90q-89 -89 -89 -215q0 -127 89 -216q91 -89 216 -89q126 0 215 89q90 88 90 216zM341 157
h-64v362h161q54 0 89 -34q37 -34 37 -84t-37 -84q-35 -34 -89 -34h-97v-126zM438 460h-97v-118h97q26 0 42.5 17t16.5 42t-16.5 42t-42.5 17z" />
    <glyph glyph-name="trademark" unicode="&#x2122;" horiz-adv-x="744" 
d="M403 338h-56v337h56l127 -223l127 223h56v-337h-56v234l-109 -195h-37l-108 193v-232zM128 338v284h-117v53h291v-53h-117v-284h-57z" />
    <glyph glyph-name="estimated" unicode="&#x212e;" horiz-adv-x="780" 
d="M735 338h-535v-240q84 -66 190 -66q86 0 157.5 44t113.5 120h43q-40 -91 -127 -148q-85 -55 -187 -55q-143 0 -243 100q-101 101 -101 245q0 143 100 243q101 101 244 101t244 -101t101 -243zM200 577v-201h380v201q-84 66 -190 66t-190 -66z" />
    <glyph glyph-name="uni2150" unicode="&#x2150;" horiz-adv-x="794" 
d="M116 304v297l-70 -35l-23 53l111 56h44v-371h-62zM646 675l-474 -675h-82l474 675h82zM573 0l137 315h-191v57h256v-61l-133 -311h-69z" />
    <glyph glyph-name="uni2151" unicode="&#x2151;" horiz-adv-x="798" 
d="M564 253q0 -28 21 -46.5t52 -18.5t51.5 18.5t20.5 45.5t-21 45.5t-52 18.5t-51.5 -18t-20.5 -45zM499 65l55 26q22 -36 73 -36q36 0 60.5 20.5t24.5 49.5v46q-26 -42 -81 -42q-54 0 -94 35q-38 36 -38 89t39 87q40 36 98 36t98 -35q40 -34 40 -86v-129q0 -56 -42 -93
q-40 -37 -103 -37q-43 0 -78 18.5t-52 50.5zM116 304v297l-70 -35l-23 53l111 56h44v-371h-62zM646 675l-474 -675h-82l474 675h82z" />
    <glyph glyph-name="uni2152" unicode="&#x2152;" horiz-adv-x="1066" 
d="M818 244v-116q0 -31 23 -52t57 -21t57.5 21t23.5 52v116q0 31 -23.5 51.5t-57.5 20.5t-57 -20.5t-23 -51.5zM612 0v298l-70 -35l-23 52l111 57h44v-372h-62zM756 128v115q0 58 40 95q41 38 102 38t102 -38t41 -95v-115q0 -56 -41 -94t-102 -38t-102 38q-40 37 -40 94z
M116 304v297l-70 -35l-23 53l111 56h44v-371h-62zM646 675l-474 -675h-82l474 675h82z" />
    <glyph glyph-name="onethird" unicode="&#x2153;" horiz-adv-x="797" 
d="M116 304v297l-70 -35l-23 53l111 56h44v-371h-62zM646 675l-474 -675h-82l474 675h82zM632 316q-50 0 -70 -38l-55 20q16 35 51 56.5t78 21.5q55 0 92 -31.5t37 -78.5q0 -49 -51 -73q60 -25 60 -84q0 -49 -39 -81t-98 -32q-48 0 -84 22t-50 59l58 21q7 -19 27 -31t47 -12
q32 0 53.5 16t21.5 40q0 23 -21 39t-52 16h-28v47h19q31 0 51.5 15t20.5 37t-19 36.5t-49 14.5z" />
    <glyph glyph-name="twothirds" unicode="&#x2154;" horiz-adv-x="871" 
d="M215 564q0 23 -19.5 39.5t-45.5 16.5q-50 0 -76 -57l-57 28q18 41 53 64.5t80 23.5q54 0 91 -33q38 -33 38 -80q0 -55 -79 -127l-80 -76h164v-59h-260v45l137 130q54 53 54 85zM245 0h-82l475 675h81zM706 316q-53 0 -70 -38l-55 20q16 35 51 56.5t78 21.5q55 0 92 -31.5
t37 -78.5q0 -49 -51 -73q60 -25 60 -84q0 -50 -40 -81q-40 -32 -98 -32q-47 0 -83 22.5t-50 58.5l58 21q6 -19 26 -31t47 -12q33 0 54.5 16t21.5 40q0 23 -21.5 39t-52.5 16h-28v47h20q30 0 51 15t21 37t-19.5 36.5t-48.5 14.5z" />
    <glyph glyph-name="uni2155" unicode="&#x2155;" horiz-adv-x="803" 
d="M116 304v297l-70 -35l-23 53l111 56h44v-371h-62zM646 675l-474 -675h-82l474 675h82zM640 -4q-48 0 -85 24.5t-52 66.5l62 17q22 -49 75 -49q32 0 54 19t22 46q0 28 -24 47t-59 19h-103l19 186h200v-57h-148l-8 -72h54q57 0 95 -35t38 -88t-41 -89q-41 -35 -99 -35z" />
    <glyph glyph-name="uni2156" unicode="&#x2156;" horiz-adv-x="877" 
d="M215 564q0 23 -19.5 39.5t-45.5 16.5q-50 0 -76 -57l-57 28q18 41 53 64.5t80 23.5q54 0 91 -33q38 -33 38 -80q0 -55 -79 -127l-80 -76h164v-59h-260v45l137 130q54 53 54 85zM245 0h-82l475 675h81zM854 120q0 -53 -41 -89q-41 -35 -99 -35q-48 0 -85.5 24.5
t-52.5 66.5l63 17q19 -49 74 -49q32 0 54.5 19t22.5 46q0 28 -24.5 47t-59.5 19h-102l19 186h200v-57h-149l-7 -72h54q57 0 94 -36q39 -35 39 -87z" />
    <glyph glyph-name="uni2157" unicode="&#x2157;" horiz-adv-x="890" 
d="M217 569q0 21 -19.5 36t-48.5 15q-53 0 -70 -39l-55 20q16 36 50.5 57t78.5 21q55 0 92 -31t37 -78q0 -50 -51 -74q60 -26 60 -83q0 -49 -40 -82q-40 -32 -98 -32q-47 0 -83 22.5t-50 59.5l58 20q6 -19 26 -30.5t47 -11.5q33 0 54 16t21 39q0 24 -20.5 39.5t-52.5 15.5
h-28v48h20q30 0 51 15t21 37zM258 0h-81l474 675h81zM867 120q0 -53 -41 -89q-41 -35 -99 -35q-48 0 -85.5 24.5t-52.5 66.5l63 17q22 -49 75 -49q32 0 54 19t22 46q0 28 -24 47t-60 19h-102l19 186h200v-57h-148l-8 -72h54q56 0 94 -36q39 -35 39 -87z" />
    <glyph glyph-name="uni2158" unicode="&#x2158;" horiz-adv-x="912" 
d="M20 376v60l199 239h58v-239h50v-60h-50v-72h-62v72h-195zM281 0h-82l474 675h82zM612 87l62 17q22 -49 75 -49q32 0 54 19t22 46q0 28 -24 47t-59 19h-102l19 186h199v-57h-148l-8 -72h54q57 0 95 -35t38 -88t-40 -89q-41 -35 -99 -35q-49 0 -86 24.5t-52 66.5zM215 581
l-121 -145h121v145z" />
    <glyph glyph-name="uni2159" unicode="&#x2159;" horiz-adv-x="806" 
d="M700 161q-21 18 -52 18t-53 -18q-21 -18 -21 -44t21 -44q22 -18 53 -18t52 18t21 44t-21 44zM778 306l-55 -27q-22 37 -71 37q-35 0 -58 -20t-23 -50v-46q27 38 83 38q55 0 93 -35q39 -34 39 -86q0 -53 -40 -87q-38 -34 -98 -34q-59 0 -99 34t-40 87v128q0 55 41 93
t102 38q41 0 74.5 -19t51.5 -51zM116 304v297l-70 -35l-23 53l111 56h44v-371h-62zM646 675l-474 -675h-82l474 675h82z" />
    <glyph glyph-name="uni215A" unicode="&#x215a;" horiz-adv-x="876" 
d="M770 161q-21 18 -52 18t-53 -18q-21 -18 -21 -44t21 -44q22 -18 53 -18t52 18q22 18 22 44t-22 44zM849 306l-56 -27q-22 37 -71 37q-34 0 -57 -20t-23 -50v-46q27 38 82 38t93 -35q39 -34 39 -86q0 -53 -40 -87q-38 -34 -98 -34q-59 0 -99 34q-39 34 -39 87v128
q0 56 40 93q41 38 102 38q42 0 76 -19t51 -51zM297 424q0 -53 -41 -89q-40 -36 -99 -36q-48 0 -85.5 24.5t-52.5 66.5l62 17q23 -48 75 -48q32 0 54 18.5t22 45.5q0 28 -24 47.5t-59 19.5h-102l19 185h200v-57h-149l-8 -71h54q57 0 95 -36q39 -35 39 -87zM716 675l-474 -675
h-82l474 675h82z" />
    <glyph glyph-name="oneeighth" unicode="&#x215b;" horiz-adv-x="805" 
d="M718 110q0 23 -21 38.5t-52 15.5q-49 2 -69 -33.5t15 -59.5q34 -26 82.5 -11.5t44.5 50.5zM580 269q0 -21 18.5 -34.5t46.5 -13.5q27 0 45 13.5t18 34.5q0 20 -18 33.5t-45 13.5q-28 0 -46.5 -13.5t-18.5 -33.5zM516 274q0 43 37 72.5t92 29.5q54 0 91 -29.5t37 -72.5
q0 -49 -47 -81q57 -32 57 -89q0 -46 -40 -77q-38 -31 -98 -31t-99.5 31t-39.5 78q0 56 56 89q-46 28 -46 80zM116 304v297l-70 -35l-23 53l111 56h44v-371h-62zM646 675l-474 -675h-82l474 675h82z" />
    <glyph glyph-name="threeeighths" unicode="&#x215c;" horiz-adv-x="897" 
d="M593 105q0 56 56 89q-46 30 -46 80q0 43 37 72.5t91 29.5q55 0 92 -29.5t37 -72.5q0 -51 -47 -80q57 -33 57 -90q0 -46 -40 -77t-99 -31t-98.5 31t-39.5 78zM732 675l-474 -675h-81l474 675h81zM153 299q-47 0 -83 22.5t-50 59.5l58 20q6 -19 26 -30.5t47 -11.5
q33 0 54 16t21 39q0 24 -20.5 39.5t-52.5 15.5h-28v48h20q30 0 51 15t21 37q0 21 -19.5 36t-48.5 15q-53 0 -70 -39l-55 20q16 36 50.5 57t78.5 21q55 0 92 -31t37 -78q0 -50 -51 -74q60 -26 60 -83q0 -49 -40 -82q-40 -32 -98 -32zM805 110q0 23 -21 38.5t-53 15.5
t-53 -15.5t-21 -38.5t21 -39t53 -16t53 15.5t21 39.5zM667 269q0 -21 18 -34.5t46 -13.5t46 13.5t18 34.5q0 20 -18 33.5t-46 13.5t-46 -13.5t-18 -33.5z" />
    <glyph glyph-name="fiveeighths" unicode="&#x215d;" horiz-adv-x="880" 
d="M788 110q0 23 -21 38.5t-52 15.5q-49 2 -68 -33.5t15 -59.5q32 -26 81 -11.5t45 50.5zM650 269q0 -21 18.5 -34.5t46.5 -13.5q27 0 45.5 13.5t18.5 34.5q0 20 -18.5 33.5t-45.5 13.5q-28 0 -46.5 -13.5t-18.5 -33.5zM586 274q0 43 37 72.5t92 29.5q54 0 91 -29.5
t37 -72.5q0 -49 -47 -81q57 -32 57 -89q0 -46 -40 -77q-38 -31 -98 -31t-99.5 31t-39.5 78q0 56 57 89q-47 29 -47 80zM297 424q0 -53 -41 -89q-40 -36 -99 -36q-48 0 -85.5 24.5t-52.5 66.5l62 17q23 -48 75 -48q32 0 54 18.5t22 45.5q0 28 -24 47.5t-59 19.5h-102l19 185
h200v-57h-149l-8 -71h54q57 0 95 -36q39 -35 39 -87zM716 675l-474 -675h-82l474 675h82z" />
    <glyph glyph-name="seveneighths" unicode="&#x215e;" horiz-adv-x="834" 
d="M742 110q0 23 -21 38.5t-53 15.5t-53 -15.5t-21 -38.5t21 -39t53 -16t53 15.5t21 39.5zM604 269q0 -21 18 -34.5t46 -13.5t46 13.5t18 34.5q0 20 -18 33.5t-46 13.5t-46 -13.5t-18 -33.5zM539 274q0 43 37 72.5t92 29.5t92 -29.5t37 -72.5q0 -49 -47 -81q56 -32 56 -89
q0 -46 -40 -77q-38 -31 -98 -31q-59 0 -98.5 31t-39.5 78q0 57 56 89q-47 29 -47 80zM65 304l136 314h-190v57h255v-60l-132 -311h-69zM669 675l-474 -675h-82l475 675h81z" />
    <glyph glyph-name="uni215F" unicode="&#x215f;" horiz-adv-x="646" 
d="M116 304v297l-70 -35l-23 53l111 56h44v-371h-62zM646 675l-474 -675h-82l474 675h82z" />
    <glyph glyph-name="arrowleft" unicode="&#x2190;" horiz-adv-x="653" 
d="M296 96l-241 242l241 241l55 -55l-141 -145h389v-83h-389l141 -145z" />
    <glyph glyph-name="arrowup" unicode="&#x2191;" horiz-adv-x="653" 
d="M85 368l242 241l241 -241l-54 -54l-146 140v-388h-83v388l-145 -140z" />
    <glyph glyph-name="arrowright" unicode="&#x2192;" horiz-adv-x="653" 
d="M357 579l242 -241l-242 -242l-54 55l140 145h-388v83h388l-140 145z" />
    <glyph glyph-name="arrowdown" unicode="&#x2193;" horiz-adv-x="653" 
d="M568 307l-241 -241l-242 241l55 55l145 -141v388h83v-388l146 141z" />
    <glyph glyph-name="uni2196" unicode="&#x2196;" horiz-adv-x="653" 
d="M134 189v341h342v-77l-203 -4l275 -274l-58 -59l-275 275l-3 -202h-78z" />
    <glyph glyph-name="uni2197" unicode="&#x2197;" horiz-adv-x="653" 
d="M207 530h341v-341h-77l-3 202l-275 -275l-59 59l275 274l-202 4v77z" />
    <glyph glyph-name="uni2198" unicode="&#x2198;" horiz-adv-x="653" 
d="M548 457v-341h-341v77l202 3l-275 275l59 59l275 -275l3 202h77z" />
    <glyph glyph-name="uni2199" unicode="&#x2199;" horiz-adv-x="653" 
d="M476 116h-342v341h78l3 -202l275 275l58 -59l-275 -275l203 -3v-77z" />
    <glyph glyph-name="emptyset" unicode="&#x2205;" horiz-adv-x="791" 
d="M395 687q91 0 171 -44l31 44h87l-60 -85q57 -49 89 -118t32 -146q0 -145 -103 -248q-102 -102 -247 -102q-92 0 -170 45l-31 -45h-87l60 85q-57 49 -89 118t-32 147q0 144 102 246q102 103 247 103zM212 138l308 439q-56 31 -125 31q-112 0 -191 -79t-79 -191
q0 -118 87 -200zM395 67q113 0 192 79t79 192q0 118 -88 199l-307 -439q56 -31 124 -31z" />
    <glyph glyph-name="product" unicode="&#x220f;" horiz-adv-x="639" 
d="M165 585v-760h-96v850h500v-850h-96v760h-308z" />
    <glyph glyph-name="summation" unicode="&#x2211;" horiz-adv-x="498" 
d="M469 -85v-90h-439v77l210 348l-210 348v77h439v-90h-327l203 -335l-203 -335h327z" />
    <glyph glyph-name="minus" unicode="&#x2212;" 
d="M68 295v85h464v-85h-464z" />
    <glyph glyph-name="integral" unicode="&#x222b;" horiz-adv-x="286" 
d="M10 -175v87h28q26 0 43 18t17 45v612q0 59 41 98q41 40 103 40h34v-87h-28q-26 0 -43 -18t-17 -45v-612q0 -59 -42 -98q-40 -40 -102 -40h-34z" />
    <glyph glyph-name="approxequal" unicode="&#x2248;" 
d="M381 362q-45 0 -95 32q-50 33 -71 33q-25 0 -41 -16.5t-16 -42.5h-90q0 64 44 106q43 43 106 43q39 0 95 -32.5t73 -32.5q24 0 40 17t16 42h90q-1 -62 -45 -106q-43 -43 -106 -43zM381 160q-45 0 -95 33t-71 33q-25 0 -41 -17t-16 -43h-90q0 63 44 107q43 43 106 43
q39 0 95 -33t73 -33q24 0 40 17t16 42h90q-1 -62 -45 -106q-43 -43 -106 -43z" />
    <glyph glyph-name="notequal" unicode="&#x2260;" 
d="M376 405l-63 -135h219v-85h-258l-53 -113h-86l52 113h-119v85h159l62 135h-221v85h261l52 113h87l-53 -113h117v-85h-156z" />
    <glyph glyph-name="lessequal" unicode="&#x2264;" 
d="M532 173l-464 204v74l464 204v-93l-334 -148l334 -147v-94zM68 35v85h464v-85h-464z" />
    <glyph glyph-name="greaterequal" unicode="&#x2265;" 
d="M532 451v-74l-464 -204v94l334 147l-334 148v93zM68 120h464v-85h-464v85z" />
    <glyph glyph-name="uni23F4" unicode="&#x23f4;" horiz-adv-x="371" 
d="M291 121l-246 217l246 217v-434z" />
    <glyph glyph-name="uni23F5" unicode="&#x23f5;" horiz-adv-x="371" 
d="M80 555l246 -217l-246 -217v434z" />
    <glyph glyph-name="uni23F6" unicode="&#x23f6;" horiz-adv-x="454" 
d="M10 215l217 246l217 -246h-434z" />
    <glyph glyph-name="uni23F7" unicode="&#x23f7;" horiz-adv-x="454" 
d="M444 461l-217 -246l-217 246h434z" />
    <glyph glyph-name="filledbox" unicode="&#x25a0;" horiz-adv-x="814" 
d="M744 0h-675v675h675v-675z" />
    <glyph glyph-name="H22073" unicode="&#x25a1;" horiz-adv-x="814" 
d="M744 0h-675v675h675v-675zM666 79v517h-518v-517h518z" />
    <glyph glyph-name="uni25A2" unicode="&#x25a2;" horiz-adv-x="814" 
d="M744 0h-675v675h675v-675zM666 79v517h-518v-517h518z" />
    <glyph glyph-name="triagup" unicode="&#x25b2;" horiz-adv-x="863" 
d="M30 0l402 695l401 -695h-803z" />
    <glyph glyph-name="uni25B3" unicode="&#x25b3;" horiz-adv-x="863" 
d="M432 695l401 -695h-803zM167 79h530l-265 459z" />
    <glyph glyph-name="triagdn" unicode="&#x25bc;" horiz-adv-x="863" 
d="M833 675l-401 -695l-402 695h803z" />
    <glyph glyph-name="uni25BD" unicode="&#x25bd;" horiz-adv-x="863" 
d="M30 675h803l-401 -695zM432 137l265 459h-530z" />
    <glyph glyph-name="uni25C6" unicode="&#x25c6;" horiz-adv-x="775" 
d="M388 -20l-358 358l358 357l357 -357z" />
    <glyph glyph-name="uni25C7" unicode="&#x25c7;" horiz-adv-x="775" 
d="M388 -20l-358 358l358 357l357 -357zM388 91l246 247l-246 246l-247 -246z" />
    <glyph glyph-name="lozenge" unicode="&#x25ca;" horiz-adv-x="629" 
d="M30 338l195 337h56l195 -337l-195 -338h-56zM253 110l132 228l-132 227l-132 -227z" />
    <glyph glyph-name="circle" unicode="&#x25cb;" horiz-adv-x="791" 
d="M46 338q0 144 102 246q102 103 247 103t247 -103q103 -102 103 -246q0 -145 -103 -248q-102 -102 -247 -102t-247 102q-102 104 -102 248zM395 67q113 0 192 79t79 192q0 111 -80 191q-79 79 -191 79t-191 -79t-79 -191q0 -113 79 -192t191 -79z" />
    <glyph glyph-name="H18533" unicode="&#x25cf;" horiz-adv-x="791" 
d="M46 338q0 144 102 246q102 103 247 103t247 -103q103 -102 103 -246q0 -145 -103 -248q-102 -102 -247 -102t-247 102q-102 104 -102 248z" />
    <glyph glyph-name="uni25D0" unicode="&#x25d0;" horiz-adv-x="791" 
d="M46 338q0 144 102 246q102 103 247 103t247 -103q103 -102 103 -246q0 -145 -103 -248q-102 -102 -247 -102t-247 102q-102 104 -102 248zM395 608v-541q113 0 192 79t79 192q0 111 -80 191q-79 79 -191 79z" />
    <glyph glyph-name="uni25D1" unicode="&#x25d1;" horiz-adv-x="791" 
d="M745 338q0 -145 -103 -248q-102 -102 -247 -102q-143 0 -247 102q-102 104 -102 248t102 246q103 103 247 103q145 0 247 -103q103 -102 103 -246zM395 67v541q-112 0 -191 -79t-79 -191q0 -113 79 -192t191 -79z" />
    <glyph glyph-name="uni25D2" unicode="&#x25d2;" horiz-adv-x="791" 
d="M395 -12q-143 0 -247 102q-102 104 -102 248t102 246q103 103 247 103q145 0 247 -103q103 -102 103 -246q0 -145 -103 -248q-102 -102 -247 -102zM125 338h541q0 111 -80 191q-79 79 -191 79t-191 -79t-79 -191z" />
    <glyph glyph-name="uni25D3" unicode="&#x25d3;" horiz-adv-x="791" 
d="M395 687q145 0 247 -103q103 -102 103 -246q0 -145 -103 -248q-102 -102 -247 -102q-143 0 -247 102q-102 104 -102 248t102 246q103 103 247 103zM666 338h-541q0 -113 79 -192t191 -79q113 0 192 79t79 192z" />
    <glyph glyph-name="uni25D4" unicode="&#x25d4;" horiz-adv-x="791" 
d="M46 338q0 144 102 246q102 103 247 103t247 -103q103 -102 103 -246q0 -145 -103 -248q-102 -102 -247 -102t-247 102q-102 104 -102 248zM395 67q113 0 192 79t79 192h-271v270q-112 0 -191 -79t-79 -191q0 -113 79 -192t191 -79z" />
    <glyph glyph-name="uni25D5" unicode="&#x25d5;" horiz-adv-x="791" 
d="M46 338q0 144 102 246q102 103 247 103t247 -103q103 -102 103 -246q0 -145 -103 -248q-102 -102 -247 -102t-247 102q-102 104 -102 248zM125 338h270v270q-112 0 -191 -79t-79 -191z" />
    <glyph glyph-name="uni25D6" unicode="&#x25d6;" horiz-adv-x="465" 
d="M46 338q0 144 102 246q102 103 247 103v-699q-145 0 -247 102q-102 104 -102 248z" />
    <glyph glyph-name="uni25D7" unicode="&#x25d7;" horiz-adv-x="465" 
d="M419 338q0 -145 -103 -248q-102 -102 -247 -102v699q145 0 247 -103q103 -102 103 -246z" />
    <glyph glyph-name="uni25EF" unicode="&#x25ef;" horiz-adv-x="791" 
d="M46 338q0 144 102 246q102 103 247 103t247 -103q103 -102 103 -246q0 -145 -103 -248q-102 -102 -247 -102t-247 102q-102 104 -102 248zM395 67q113 0 192 79t79 192q0 111 -80 191q-79 79 -191 79t-191 -79t-79 -191q0 -113 79 -192t191 -79z" />
    <glyph glyph-name="uni2639" unicode="&#x2639;" horiz-adv-x="765" 
d="M197 453q0 26 18 44t44 18q27 0 45 -18t18 -44q0 -27 -18 -45t-45 -18q-26 0 -44 18t-18 45zM445 453q0 26 18 44t44 18q27 0 45 -18t18 -44q0 -27 -18 -45t-45 -18q-26 0 -44 18t-18 45zM220 143h-40q0 79 58 131q59 53 145 53q85 0 144 -53t59 -131h-40q0 61 -47 102
t-116 41t-116 -41t-47 -102zM140 95q-100 100 -100 243q0 142 100 242t243 100q142 0 242 -100t100 -242q0 -143 -100 -243t-242 -100q-143 0 -243 100zM167 553q-89 -89 -89 -215q0 -125 89 -216q91 -89 216 -89q126 0 215 89q89 91 89 216q0 126 -89 215t-215 89
q-125 0 -216 -89z" />
    <glyph glyph-name="smileface" unicode="&#x263a;" horiz-adv-x="765" 
d="M197 453q0 26 18 44t44 18q27 0 45 -18t18 -44q0 -27 -18 -45t-45 -18q-26 0 -44 18t-18 45zM445 453q0 26 18 44t44 18q27 0 45 -18t18 -44q0 -27 -18 -45t-45 -18q-26 0 -44 18t-18 45zM180 297h40q0 -61 47 -102t116 -41t116 41t47 102h40q0 -79 -59 -132
q-58 -52 -144 -52q-87 0 -145 52t-58 132zM140 95q-100 100 -100 243q0 142 100 242t243 100q142 0 242 -100t100 -242q0 -143 -100 -243t-242 -100q-143 0 -243 100zM167 553q-89 -89 -89 -215q0 -125 89 -216q91 -89 216 -89q126 0 215 89q89 91 89 216q0 126 -89 215
t-215 89q-125 0 -216 -89z" />
    <glyph glyph-name="invsmileface" unicode="&#x263b;" horiz-adv-x="765" 
d="M197 453q0 -27 18 -45t44 -18q27 0 45 18t18 45q0 26 -18 44t-45 18q-26 0 -44 -18t-18 -44zM445 453q0 -27 18 -45t44 -18q27 0 45 18t18 45q0 26 -18 44t-45 18q-26 0 -44 -18t-18 -44zM220 297h-40q0 -80 58 -132t145 -52q86 0 144 52q59 53 59 132h-40
q0 -61 -47 -102t-116 -41t-116 41t-47 102zM140 95q-100 100 -100 243q0 142 100 242t243 100q142 0 242 -100t100 -242q0 -143 -100 -243t-242 -100q-143 0 -243 100z" />
    <glyph glyph-name="commaaccent" horiz-adv-x="209" 
d="M159 -118q0 -20 -8.5 -39.5t-19 -31.5t-24 -23t-19.5 -14.5t-9 -5.5l-24 25q40 33 40 54q-19 3 -31.5 17.5t-12.5 34.5t15 34.5t37 14.5q24 0 40 -18t16 -48z" />
    <glyph glyph-name="zero.fitted" 
d="M45 228v219q0 104 73 171q74 69 183 69t181 -69q73 -67 73 -171v-219q0 -103 -73 -172q-73 -68 -181 -68q-109 0 -183 68q-73 69 -73 172zM142 449v-223q0 -62 46 -104q47 -41 113 -41q67 0 112 42q46 42 46 103v223q0 62 -46 104q-45 42 -112 42t-113 -42t-46 -104z" />
    <glyph glyph-name="one.fitted" 
d="M292 554l-147 -77l-41 85l216 113h67v-586h163v-89h-420v89h162v465z" />
    <glyph glyph-name="two.fitted" 
d="M424 480q0 46 -39 81q-37 34 -93 34q-48 0 -87 -29t-59 -80l-89 43q31 72 94 115t141 43q96 0 164 -60t68 -144q0 -52 -34 -106t-108 -126l-166 -158h316v-93h-466v72l253 243q55 53 80 91t25 74z" />
    <glyph glyph-name="three.fitted" 
d="M421 493q0 43 -39 72q-39 30 -98 30q-47 0 -83.5 -20t-52.5 -53l-88 43q29 57 89 89.5t135 32.5q102 0 169 -55q68 -56 68 -136q0 -45 -23.5 -83.5t-65.5 -63.5q49 -25 77.5 -68t28.5 -94q0 -85 -72 -142q-70 -57 -177 -57q-84 0 -148.5 38t-89.5 101l93 34
q14 -36 53 -58t92 -22q64 0 106.5 31.5t42.5 79.5q0 45 -42 77q-41 31 -103 31h-51v89h36q61 0 102 29.5t41 74.5z" />
    <glyph glyph-name="four.fitted" 
d="M391 0v136h-355v93l360 446h91v-446h93v-93h-93v-136h-96zM391 527l-241 -298h241v298z" />
    <glyph glyph-name="five.fitted" 
d="M293 -12q-84 0 -149.5 42.5t-93.5 114.5l96 27q19 -42 58 -66.5t89 -24.5q65 0 109 38t44 93q0 58 -47 97q-46 39 -116 39h-183l33 327h357v-89h-276l-15 -150h87q112 0 185 -64q75 -64 75 -160t-73 -160q-71 -64 -180 -64z" />
    <glyph glyph-name="six.fitted" 
d="M538 565l-89 -44q-20 34 -56.5 54t-80.5 20q-68 0 -114 -42q-45 -42 -45 -104v-72q61 54 153 54q106 0 176 -64q72 -65 72 -159q0 -92 -72 -157q-70 -63 -176 -63t-178 63q-71 65 -71 159v237q0 104 73 171q73 69 184 69q72 0 132 -32.5t92 -89.5zM157 211q0 -55 42 -93
q43 -37 107 -37q63 0 105 36q43 37 43 91q0 56 -43 93q-43 38 -105 38q-63 0 -106 -37t-43 -91z" />
    <glyph glyph-name="seven.fitted" 
d="M176 0l245 586h-353v89h454v-93l-241 -582h-105z" />
    <glyph glyph-name="eight.fitted" 
d="M301 -12q-107 0 -178 57q-70 57 -70 141q0 108 109 166q-93 54 -93 151q0 79 66 131q68 53 166 53q97 0 164 -53q66 -52 66 -132q0 -96 -93 -150q51 -27 80.5 -71.5t29.5 -95.5q0 -84 -71 -141q-71 -56 -176 -56zM301 81q63 0 105 32t42 80q0 49 -42 81t-105 32
q-64 0 -106.5 -32t-42.5 -80t42 -81q44 -32 107 -32zM169 495q0 -43 38 -71.5t94 -28.5t93.5 28.5t37.5 71.5q0 42 -38 71t-93 29q-56 0 -94 -29t-38 -71z" />
    <glyph glyph-name="nine.fitted" 
d="M50 116l89 44q20 -37 58.5 -58t86.5 -21q71 0 118 41q47 42 47 104v68q-58 -61 -151 -61q-104 0 -175 65t-71 162t71 162t175 65t175 -65t71 -159v-237q0 -101 -75 -170q-74 -68 -185 -68q-77 0 -139 34t-95 94zM444 459q0 58 -42 97t-104 39t-104 -39q-42 -38 -42 -95
q0 -58 42 -97t104 -39t104 39t42 95z" />
    <glyph glyph-name="zero.sup" horiz-adv-x="336" 
d="M25 482v115q0 56 41 94t102 38t102 -38t41 -94v-115q0 -56 -41 -95q-41 -38 -102 -38t-102 38q-41 39 -41 95zM88 597v-116q0 -31 23 -51.5t57 -20.5t57.5 20.5t23.5 51.5v116q0 31 -23.5 52t-57.5 21t-57 -21t-23 -52z" />
    <glyph glyph-name="one.sup" horiz-adv-x="234" 
d="M116 651l-70 -35l-23 53l111 56h44v-371h-62v297z" />
    <glyph glyph-name="two.sup" horiz-adv-x="308" 
d="M215 614q0 23 -19.5 39.5t-45.5 16.5q-50 0 -76 -57l-57 28q18 41 53 64.5t80 23.5q54 0 91 -33q38 -33 38 -80q0 -55 -79 -127l-80 -76h164v-59h-260v45l137 130q54 53 54 85z" />
    <glyph glyph-name="three.sup" horiz-adv-x="314" 
d="M217 619q0 21 -19.5 36t-48.5 15q-53 0 -70 -39l-55 20q16 36 50.5 57t78.5 21q55 0 92 -31t37 -78q0 -50 -51 -74q60 -26 60 -83q0 -49 -40 -82q-40 -32 -98 -32q-47 0 -83 22.5t-50 59.5l58 20q6 -19 26 -30.5t47 -11.5q33 0 54 16t21 39q0 24 -20.5 39.5t-52.5 15.5
h-28v48h20q30 0 51 15t21 37z" />
    <glyph glyph-name="four.sup" horiz-adv-x="344" 
d="M215 354v72h-195v60l199 239h58v-239h50v-60h-50v-72h-62zM215 631l-121 -145h121v145z" />
    <glyph glyph-name="five.sup" horiz-adv-x="320" 
d="M297 474q0 -53 -41 -89q-40 -36 -99 -36q-48 0 -85.5 24.5t-52.5 66.5l62 17q23 -48 75 -48q32 0 54 18.5t22 45.5q0 28 -24 47.5t-59 19.5h-102l19 185h200v-57h-149l-8 -71h54q57 0 95 -36q39 -35 39 -87z" />
    <glyph glyph-name="six.sup" horiz-adv-x="323" 
d="M295 659l-56 -27q-23 38 -71 38q-34 0 -57 -20.5t-23 -49.5v-47q28 39 82 39q55 0 94 -36q39 -34 39 -86t-40 -86q-41 -35 -98 -35q-58 0 -99 35q-40 34 -40 86v129q0 56 40 93t102 37q42 0 76 -18.5t51 -51.5zM165 532q-32 0 -53 -17.5t-21 -43.5t21 -44t53 -18
q31 0 52 18t21 44t-21 43.5t-52 17.5z" />
    <glyph glyph-name="seven.sup" horiz-adv-x="285" 
d="M65 354l136 314h-190v57h255v-60l-132 -311h-69z" />
    <glyph glyph-name="eight.sup" horiz-adv-x="322" 
d="M23 458q0 56 56 89q-47 29 -47 80q0 44 37 73t92 29t91.5 -29t36.5 -73q0 -51 -47 -80q57 -33 57 -90q0 -46 -40 -77q-38 -31 -98 -31q-59 0 -98.5 31t-39.5 78zM87 464q0 -24 21 -39.5t53 -15.5t53 15.5t21 38.5t-21 38.5t-53 15.5t-53 -15t-21 -38zM115 656
q-18 -14 -18 -34t18 -34q18 -13 46 -13t46 13q18 14 18 34t-18 34t-46 14t-46 -14z" />
    <glyph glyph-name="nine.sup" horiz-adv-x="322" 
d="M23 418l55 27q22 -36 73 -36q37 0 61 20t24 50v45q-26 -41 -81 -41q-54 0 -94 35q-38 36 -38 89q0 52 39.5 87t97.5 35t98 -35q40 -34 40 -86v-128q0 -56 -42 -94q-41 -37 -103 -37q-42 0 -77 19t-53 50zM109 560q21 -18 52 -18t51 18q21 19 21 46t-21 45q-21 19 -52 19
t-52 -19q-20 -18 -20 -45t21 -46z" />
    <glyph glyph-name="zero.sub" horiz-adv-x="336" 
d="M25 28v115q0 57 41 95t102 38t102 -38t41 -95v-115q0 -56 -41 -94t-102 -38t-102 38t-41 94zM88 144v-116q0 -31 23 -52t57 -21t57.5 21t23.5 52v116q0 31 -23.5 51.5t-57.5 20.5t-57 -20.5t-23 -51.5z" />
    <glyph glyph-name="one.sub" horiz-adv-x="234" 
d="M116 198l-70 -35l-23 52l111 57h44v-372h-62v298z" />
    <glyph glyph-name="two.sub" horiz-adv-x="308" 
d="M215 160q0 23 -19.5 39.5t-45.5 16.5q-52 0 -76 -57l-57 28q18 41 53.5 65t79.5 24q54 0 91 -34q38 -33 38 -79q0 -57 -79 -127l-80 -77h164v-59h-260v45l137 131q54 52 54 84z" />
    <glyph glyph-name="three.sub" horiz-adv-x="314" 
d="M149 216q-53 0 -70 -38l-55 20q16 35 50.5 56.5t78.5 21.5q55 0 92 -31.5t37 -78.5q0 -49 -51 -73q60 -25 60 -84q0 -50 -40 -81q-40 -32 -98 -32q-48 0 -83.5 22t-49.5 59l58 21q6 -19 26 -31t47 -12q33 0 54 16t21 40q0 23 -21 39t-52 16h-28v47h20q30 0 51 15t21 37
t-19.5 36.5t-48.5 14.5z" />
    <glyph glyph-name="four.sub" horiz-adv-x="344" 
d="M215 -100v73h-195v59l199 240h58v-240h50v-59h-50v-73h-62zM215 178l-122 -146h122v146z" />
    <glyph glyph-name="five.sub" horiz-adv-x="320" 
d="M297 20q0 -53 -41 -88q-40 -36 -99 -36q-49 0 -86 24.5t-52 65.5l62 18q22 -49 75 -49q32 0 54 18.5t22 46.5t-24 47t-59 19h-102l19 186h200v-57h-149l-8 -72h54q57 0 95 -36q39 -35 39 -87z" />
    <glyph glyph-name="six.sub" horiz-adv-x="323" 
d="M295 206l-56 -27q-22 37 -71 37q-34 0 -57 -20t-23 -50v-46q27 38 82 38q54 0 94 -35q39 -35 39 -86q0 -52 -40 -86q-40 -35 -98 -35t-99 35q-40 34 -40 86v128q0 56 40 93q41 38 102 38q42 0 75.5 -18.5t51.5 -51.5zM165 79q-32 0 -53 -18t-21 -44t21 -44t53 -18
q31 0 52 18t21 44t-21 44t-52 18z" />
    <glyph glyph-name="seven.sub" horiz-adv-x="285" 
d="M65 -100l136 315h-190v57h255v-61l-132 -311h-69z" />
    <glyph glyph-name="eight.sub" horiz-adv-x="322" 
d="M23 5q0 58 56 88q-47 32 -47 81q0 43 37 72.5t92 29.5q54 0 91 -29.5t37 -72.5q0 -50 -46 -80q56 -33 56 -90q0 -46 -40 -77q-38 -31 -98 -31q-59 0 -98.5 31t-39.5 78zM235 10q0 23 -21 38.5t-53 15.5t-53 -15.5t-21 -38.5t21 -39t53 -16t53 15.5t21 39.5zM97 169
q0 -21 18 -34.5t46 -13.5t46 13.5t18 34.5q0 20 -18 33.5t-46 13.5t-46 -13.5t-18 -33.5z" />
    <glyph glyph-name="nine.sub" horiz-adv-x="322" 
d="M23 -35l55 26q22 -36 73 -36q36 0 60.5 20.5t24.5 49.5v46q-26 -42 -81 -42q-54 0 -94 35q-38 36 -38 89t39 87q41 36 98 36q58 0 98 -35q40 -34 40 -86v-129q0 -54 -42 -92q-41 -38 -103 -38q-43 0 -78 18.5t-52 50.5zM88 153q0 -28 21 -46.5t52 -18.5t51.5 18.5
t20.5 45.5t-21 45.5t-52 18.5t-51.5 -18t-20.5 -45z" />
    <glyph glyph-name="exclamdown.case" horiz-adv-x="218" 
d="M65 582q-17 18 -17 44t17 43q18 18 44 18t43 -18q17 -17 17 -43t-17 -44q-17 -17 -43 -17t-44 17zM57 0l11 468h82l11 -468h-104z" />
    <glyph glyph-name="questiondown.case" horiz-adv-x="530" 
d="M133 191q0 -47 41 -79t100 -32q52 0 90 26t51 69l96 -28q-23 -73 -86 -115q-65 -44 -149 -44q-102 0 -170 58q-69 58 -69 146q0 41 17.5 78t44.5 60q57 47 96 60l18 7l5 72h87l10 -121q-36 -12 -64 -25q-26 -11 -55 -31q-63 -45 -63 -101zM304 669q18 -17 18 -43t-18 -43
q-17 -17 -43 -17t-44 17q-17 17 -17 43t17 43q18 18 44 18t43 -18z" />
    <glyph glyph-name="dagger.case" horiz-adv-x="461" 
d="M22 411v73h169v191h79v-191h168v-73h-168v-411h-79v411h-169z" />
    <glyph glyph-name="daggerdbl.case" horiz-adv-x="461" 
d="M193 185h-171v70h171v165h-171v70h171v185h75v-185h170v-70h-170v-165h170v-70h-170v-185h-75v185z" />
    <glyph glyph-name="slash.case" horiz-adv-x="494" 
d="M87 -100h-87l407 875h87z" />
    <glyph glyph-name="backslash.case" horiz-adv-x="494" 
d="M87 775l407 -875h-87l-407 875h87z" />
    <glyph glyph-name="parenleft.case" horiz-adv-x="296" 
d="M180 759l15 16h88l-17 -20q-11 -13 -36 -55q-53 -86 -82 -211q-32 -151 -1 -301q32 -147 121 -270l15 -18h-88l-1 1q-81 84 -122 230q-27 97 -27 207q0 166 53 283q45 101 82 138z" />
    <glyph glyph-name="parenright.case" horiz-adv-x="296" 
d="M28 756l-15 19h88l16 -17q11 -10 36 -51q28 -45 46 -87q19 -46 36 -123q16 -74 16 -159q0 -154 -48 -271q-18 -46 -43 -86q-25 -42 -58 -80l-1 -1h-88l16 20q14 16 37 55q55 90 81 212q34 147 1 301q-31 150 -120 268z" />
    <glyph glyph-name="bracketleft.case" horiz-adv-x="290" 
d="M144 -22h133v-78h-221v875h221v-79h-133v-718z" />
    <glyph glyph-name="bracketright.case" horiz-adv-x="290" 
d="M234 -100h-221v79h133v717h-133v79h221v-875z" />
    <glyph glyph-name="braceleft.case" horiz-adv-x="332" 
d="M248 775h71v-79h-67q-28 0 -46.5 -18t-17.5 -44l-1 -170q0 -51 -23 -83.5t-62 -42.5q39 -12 62 -44t23 -82v-170q0 -27 18.5 -45t46.5 -18h67v-79h-71q-63 0 -106 43q-42 43 -42 107v169q0 25 -20.5 45t-45.5 28l-22 6v80q10 2 30 10q58 26 58 69v168q0 63 42 107
q43 43 106 43z" />
    <glyph glyph-name="braceright.case" horiz-adv-x="332" 
d="M13 696v79h71q64 0 106 -43q42 -44 42 -107v-168q0 -25 20.5 -45t45.5 -28l22 -6v-80q-10 -2 -31 -11q-57 -22 -57 -69v-168q0 -64 -43 -107q-42 -43 -105 -43h-71v79h67q28 0 46.5 18t18.5 45v170q0 50 23 83t62 43q-39 10 -62 42.5t-23 83.5v170q0 26 -18.5 44
t-46.5 18h-67z" />
    <glyph glyph-name="guillemotleft.case" horiz-adv-x="499" 
d="M205 161l-177 177l177 176l55 -55l-121 -121l121 -122zM400 161l-176 177l176 176l55 -55l-121 -121l121 -122z" />
    <glyph glyph-name="guillemotright.case" horiz-adv-x="500" 
d="M294 514l177 -176l-177 -177l-55 55l121 122l-121 121zM99 514l177 -176l-177 -177l-55 55l121 122l-121 121z" />
    <glyph glyph-name="guilsinglleft.case" horiz-adv-x="304" 
d="M205 161l-177 177l177 176l55 -55l-121 -121l121 -122z" />
    <glyph glyph-name="guilsinglright.case" horiz-adv-x="304" 
d="M99 514l177 -176l-177 -177l-55 55l121 122l-121 121z" />
    <glyph glyph-name="hyphen.case" horiz-adv-x="386" 
d="M63 296v83h260v-83h-260z" />
    <glyph glyph-name="endash.case" 
d="M63 296v83h474v-83h-474z" />
    <glyph glyph-name="emdash.case" horiz-adv-x="1000" 
d="M63 296v83h874v-83h-874z" />
    <glyph glyph-name="bar.case" horiz-adv-x="188" 
d="M134 -100h-79v875h79v-875z" />
    <glyph glyph-name="brokenbar.case" horiz-adv-x="188" 
d="M134 775v-355h-79v355h79zM55 -100v357h79v-357h-79z" />
    <glyph glyph-name="zero.dnom" horiz-adv-x="336" 
d="M25 128v115q0 57 41 95t102 38t102 -38t41 -95v-115q0 -56 -41 -94t-102 -38t-102 38t-41 94zM88 244v-116q0 -31 23 -52t57 -21t57.5 21t23.5 52v116q0 31 -23.5 51.5t-57.5 20.5t-57 -20.5t-23 -51.5z" />
    <glyph glyph-name="one.dnom" horiz-adv-x="234" 
d="M116 298l-70 -35l-23 52l111 57h44v-372h-62v298z" />
    <glyph glyph-name="two.dnom" horiz-adv-x="308" 
d="M215 260q0 23 -19.5 39.5t-45.5 16.5q-52 0 -76 -57l-57 28q18 41 53.5 65t79.5 24q54 0 91 -34q38 -33 38 -79q0 -57 -79 -127l-80 -77h164v-59h-260v45l137 131q54 52 54 84z" />
    <glyph glyph-name="three.dnom" horiz-adv-x="314" 
d="M149 316q-53 0 -70 -38l-55 20q16 35 50.5 56.5t78.5 21.5q55 0 92 -31.5t37 -78.5q0 -49 -51 -73q60 -25 60 -84q0 -50 -40 -81q-40 -32 -98 -32q-48 0 -83.5 22t-49.5 59l58 21q6 -19 26 -31t47 -12q33 0 54 16t21 40q0 23 -21 39t-52 16h-28v47h20q30 0 51 15t21 37
t-19.5 36.5t-48.5 14.5z" />
    <glyph glyph-name="four.dnom" horiz-adv-x="344" 
d="M215 0v73h-195v59l199 240h58v-240h50v-59h-50v-73h-62zM215 278l-122 -146h122v146z" />
    <glyph glyph-name="five.dnom" horiz-adv-x="320" 
d="M297 120q0 -53 -41 -89q-41 -35 -99 -35q-49 0 -86 24.5t-52 66.5l62 17q22 -49 75 -49q32 0 54 19t22 46q0 28 -24 47t-59 19h-102l19 186h200v-57h-149l-8 -72h54q57 0 95 -36q39 -35 39 -87z" />
    <glyph glyph-name="six.dnom" horiz-adv-x="323" 
d="M295 306l-56 -27q-22 37 -71 37q-34 0 -57 -20t-23 -50v-46q27 38 82 38q54 0 94 -35q39 -35 39 -86q0 -53 -40 -87q-38 -34 -98 -34q-59 0 -99 34t-40 87v128q0 56 40 93q41 38 102 38q42 0 75.5 -18.5t51.5 -51.5zM165 179q-32 0 -53 -18t-21 -44t21 -44t53 -18
q31 0 52 18t21 44t-21 44t-52 18z" />
    <glyph glyph-name="seven.dnom" horiz-adv-x="285" 
d="M65 0l136 315h-190v57h255v-61l-132 -311h-69z" />
    <glyph glyph-name="eight.dnom" horiz-adv-x="322" 
d="M23 105q0 58 56 88q-47 32 -47 81q0 43 37 72.5t92 29.5q54 0 91 -29.5t37 -72.5q0 -50 -46 -80q56 -33 56 -90q0 -46 -40 -77q-38 -31 -98 -31q-59 0 -98.5 31t-39.5 78zM235 110q0 23 -21 38.5t-53 15.5t-53 -15.5t-21 -38.5t21 -39t53 -16t53 15.5t21 39.5zM97 269
q0 -21 18 -34.5t46 -13.5t46 13.5t18 34.5q0 20 -18 33.5t-46 13.5t-46 -13.5t-18 -33.5z" />
    <glyph glyph-name="nine.dnom" horiz-adv-x="322" 
d="M23 65l55 26q22 -36 73 -36q36 0 60.5 20.5t24.5 49.5v46q-26 -42 -81 -42q-54 0 -94 35q-38 36 -38 89t39 87q40 36 98 36t98 -35q40 -34 40 -86v-129q0 -56 -42 -93q-40 -37 -103 -37q-43 0 -78 18.5t-52 50.5zM88 253q0 -28 21 -46.5t52 -18.5t51.5 18.5t20.5 45.5
t-21 45.5t-52 18.5t-51.5 -18t-20.5 -45z" />
    <glyph glyph-name="logo" horiz-adv-x="430" 
d="M20 518v102h23q71 0 121 -50t50 -121t-50 -121t-121 -50h-23v103q91 0 91 68q0 69 -91 69zM216 518v102h23q71 0 121 -50t50 -121t-50 -121t-121 -50h-23v103q92 0 92 68q0 69 -92 69zM53 216h-27v20h74v-20h-27v-116h-20v116zM139 160l-36 76h23l23 -50l24 50h23
l-36 -76v-60h-21v60zM228 100h-20v136h38q18 0 31 -12.5t13 -30.5t-13 -30.5t-31 -12.5h-18v-50zM246 216h-18v-46h18q10 0 16.5 6.5t6.5 16.5q0 9 -6.5 16t-16.5 7zM363 100h-60v136h60v-20h-39v-48h31v-20h-31v-28h39v-20z" />
    <glyph glyph-name="bullet.case" horiz-adv-x="316" 
d="M71 251q-34 34 -34 87q0 52 34 86q35 35 87 35t87 -35t35 -86q0 -52 -35 -87t-87 -35t-87 35z" />
    <glyph glyph-name="zero.num" horiz-adv-x="336" 
d="M25 432v115q0 56 41 94t102 38t102 -38t41 -94v-115q0 -56 -41 -95q-41 -38 -102 -38t-102 38q-41 39 -41 95zM88 547v-116q0 -31 23 -51.5t57 -20.5t57.5 20.5t23.5 51.5v116q0 31 -23.5 52t-57.5 21t-57 -21t-23 -52z" />
    <glyph glyph-name="one.num" horiz-adv-x="234" 
d="M116 601l-70 -35l-23 53l111 56h44v-371h-62v297z" />
    <glyph glyph-name="two.num" horiz-adv-x="308" 
d="M215 564q0 23 -19.5 39.5t-45.5 16.5q-50 0 -76 -57l-57 28q18 41 53 64.5t80 23.5q54 0 91 -33q38 -33 38 -80q0 -55 -79 -127l-80 -76h164v-59h-260v45l137 130q54 53 54 85z" />
    <glyph glyph-name="three.num" horiz-adv-x="314" 
d="M217 569q0 21 -19.5 36t-48.5 15q-53 0 -70 -39l-55 20q16 36 50.5 57t78.5 21q55 0 92 -31t37 -78q0 -50 -51 -74q60 -26 60 -83q0 -49 -40 -82q-40 -32 -98 -32q-47 0 -83 22.5t-50 59.5l58 20q6 -19 26 -30.5t47 -11.5q33 0 54 16t21 39q0 24 -20.5 39.5t-52.5 15.5
h-28v48h20q30 0 51 15t21 37z" />
    <glyph glyph-name="four.num" horiz-adv-x="344" 
d="M215 304v72h-195v60l199 239h58v-239h50v-60h-50v-72h-62zM215 581l-121 -145h121v145z" />
    <glyph glyph-name="five.num" horiz-adv-x="320" 
d="M297 424q0 -53 -41 -89q-40 -36 -99 -36q-48 0 -85.5 24.5t-52.5 66.5l62 17q23 -48 75 -48q32 0 54 18.5t22 45.5q0 28 -24 47.5t-59 19.5h-102l19 185h200v-57h-149l-8 -71h54q57 0 95 -36q39 -35 39 -87z" />
    <glyph glyph-name="six.num" horiz-adv-x="323" 
d="M295 609l-56 -27q-23 38 -71 38q-34 0 -57 -20.5t-23 -49.5v-47q28 39 82 39q55 0 94 -36q39 -34 39 -86t-40 -86q-41 -35 -98 -35q-58 0 -99 35q-40 34 -40 86v129q0 56 40 93t102 37q42 0 76 -18.5t51 -51.5zM165 482q-32 0 -53 -17.5t-21 -43.5t21 -44t53 -18
q31 0 52 18t21 44t-21 43.5t-52 17.5z" />
    <glyph glyph-name="seven.num" horiz-adv-x="285" 
d="M65 304l136 314h-190v57h255v-60l-132 -311h-69z" />
    <glyph glyph-name="eight.num" horiz-adv-x="322" 
d="M23 408q0 56 56 89q-47 29 -47 80q0 44 37 73t92 29t91.5 -29t36.5 -73q0 -51 -47 -80q57 -33 57 -90q0 -46 -40 -77q-38 -31 -98 -31q-59 0 -98.5 31t-39.5 78zM87 414q0 -24 21 -39.5t53 -15.5t53 15.5t21 38.5t-21 38.5t-53 15.5t-53 -15t-21 -38zM115 606
q-18 -14 -18 -34t18 -34q18 -13 46 -13t46 13q18 14 18 34t-18 34t-46 14t-46 -14z" />
    <glyph glyph-name="nine.num" horiz-adv-x="322" 
d="M23 368l55 27q22 -36 73 -36q37 0 61 20t24 50v45q-26 -41 -81 -41q-54 0 -94 35q-38 36 -38 89q0 52 39.5 87t97.5 35t98 -35q40 -34 40 -86v-128q0 -56 -42 -94q-41 -37 -103 -37q-42 0 -77 19t-53 50zM109 510q21 -18 52 -18t51 18q21 19 21 46t-21 45q-21 19 -52 19
t-52 -19q-20 -18 -20 -45t21 -46z" />
    <glyph glyph-name="afii10021.1" horiz-adv-x="798" 
d="M776 0h-755v93h78q78 25 78 251v331h490v-582h109v-93zM226 93h341v489h-290v-234q0 -170 -51 -255z" />
    <glyph glyph-name="afii10040.1" horiz-adv-x="765" 
d="M69 675h100v-582h365v582h100v-582h109v-93h-674v675z" />
    <glyph glyph-name="afii10043.1" horiz-adv-x="1095" 
d="M69 0v675h100v-582h294v582h100v-582h301v582h100v-582h109v-93h-1004z" />
    <glyph glyph-name="germandbls.1" horiz-adv-x="534" 
d="M147 363v-363h-91v565q0 71 53 121q52 49 132 49h35v-91h-35q-40 0 -67 -23t-27 -58v-113h308v-65l-104 -142q69 -27 109.5 -89.5t40.5 -142.5q0 -107 -76 -177q-77 -71 -189 -71v91q74 0 124 45t50 112t-50 112q-49 46 -124 46v68l94 126h-183z" />
    <glyph glyph-name="R.1" horiz-adv-x="648" 
d="M69 675h308q95 0 159 -58q64 -57 64 -142q0 -56 -29.5 -102t-80.5 -72q71 -49 88 -131l36 -170h-99l-32 151q-10 48 -49 79.5t-88 31.5h-177v-262h-100v675zM377 582h-208v-227h208q51 0 85 32.5t34 81.5q0 48 -34 80.5t-85 32.5z" />
    <glyph glyph-name="Racute.1" horiz-adv-x="653" 
d="M169 0h-100v675h308q95 0 159 -58q64 -57 64 -142q0 -56 -29.5 -102t-80.5 -72q71 -49 88 -131l36 -170h-99l-32 151q-10 48 -49 79.5t-88 31.5h-177v-262zM377 582h-208v-227h208q51 0 85 32.5t34 81.5q0 48 -34 80.5t-85 32.5zM425 835l-188 -89l-31 56l175 115z" />
    <glyph glyph-name="Rcaron.1" horiz-adv-x="653" 
d="M169 262v-262h-100v675h308q95 0 159 -58q64 -57 64 -142q0 -56 -29.5 -102t-80.5 -72q71 -49 88 -131l36 -170h-99l-32 151q-10 48 -49 79.5t-88 31.5h-177zM377 582h-208v-227h208q51 0 85 32.5t34 81.5q0 48 -34 80.5t-85 32.5zM280 746h-8l-149 118l39 52l114 -76
l114 75l39 -51z" />
    <glyph glyph-name="Rcommaaccent.1" horiz-adv-x="653" 
d="M169 0h-100v675h308q95 0 159 -58q64 -57 64 -142q0 -56 -29.5 -102t-80.5 -72q71 -49 88 -131l36 -170h-99l-32 151q-10 48 -49 79.5t-88 31.5h-177v-262zM377 582h-208v-227h208q51 0 85 32.5t34 81.5q0 48 -34 80.5t-85 32.5zM343 -52q24 0 40 -18t16 -48
q0 -20 -8.5 -39.5t-18.5 -31.5t-23.5 -23t-19.5 -14.5t-9 -5.5l-24 25l11 10q8 7 18 21.5t10 22.5q-18 3 -30.5 17.5t-12.5 34.5t14.5 34.5t36.5 14.5z" />
    <glyph glyph-name="u.1" horiz-adv-x="528" 
d="M55 197v253h90v-245q0 -54 34.5 -90t85.5 -36q50 0 84 36t34 90v245h90v-253q0 -90 -60 -150q-59 -59 -149 -59q-88 0 -149 59q-60 60 -60 150z" />
    <glyph glyph-name="uacute.1" horiz-adv-x="528" 
d="M55 197v253h90v-245q0 -54 34.5 -90t85.5 -36q50 0 84 36t34 90v245h90v-253q0 -90 -60 -150q-59 -59 -149 -59q-88 0 -149 59q-60 60 -60 150zM218 539l-31 56l175 115l44 -81z" />
    <glyph glyph-name="ubreve.1" horiz-adv-x="528" 
d="M55 197v253h90v-245q0 -54 34.5 -90t85.5 -36q50 0 84 36t34 90v245h90v-253q0 -90 -60 -150q-59 -59 -149 -59q-88 0 -149 59q-60 60 -60 150zM126 675h72q0 -30 19.5 -50.5t48.5 -20.5q28 0 47.5 20.5t19.5 50.5h72q0 -59 -40 -99t-100 -40t-100 40q-39 40 -39 99z" />
    <glyph glyph-name="ucircumflex.1" horiz-adv-x="528" 
d="M55 197v253h90v-245q0 -54 34.5 -90t85.5 -36q50 0 84 36t34 90v245h90v-253q0 -90 -60 -150q-59 -59 -149 -59q-88 0 -149 59q-60 60 -60 150zM265 614l-114 -75l-39 52l149 118h8l149 -118l-39 -52z" />
    <glyph glyph-name="udieresis.1" horiz-adv-x="528" 
d="M55 197v253h90v-245q0 -54 34.5 -90t85.5 -36q50 0 84 36t34 90v245h90v-253q0 -90 -60 -150q-59 -59 -149 -59q-88 0 -149 59q-60 60 -60 150zM168 660q25 0 42 -17.5t17 -42.5t-17 -42t-42 -17q-26 0 -43 16.5t-17 42.5t17 43t43 17zM423 600q0 -25 -17 -42t-43 -17
q-25 -2 -42.5 16.5t-17 42t17.5 43.5q27 27 64.5 12t37.5 -55z" />
    <glyph glyph-name="ugrave.1" horiz-adv-x="528" 
d="M55 197v253h90v-245q0 -54 34.5 -90t85.5 -36q50 0 84 36t34 90v245h90v-253q0 -90 -60 -150q-59 -59 -149 -59q-88 0 -149 59q-60 60 -60 150zM310 540l-188 90l44 81l175 -115z" />
    <glyph glyph-name="uhungarumlaut.1" horiz-adv-x="528" 
d="M55 197v253h90v-245q0 -54 34.5 -90t85.5 -36q50 0 84 36t34 90v245h90v-253q0 -90 -60 -150q-59 -59 -149 -59q-88 0 -149 59q-60 60 -60 150zM177 533l-47 43l121 152l68 -63zM351 533l-48 43l122 151l68 -62z" />
    <glyph glyph-name="umacron.1" horiz-adv-x="528" 
d="M55 197v253h90v-245q0 -54 34.5 -90t85.5 -36q50 0 84 36t34 90v245h90v-253q0 -90 -60 -150q-59 -59 -149 -59q-88 0 -149 59q-60 60 -60 150zM397 569h-263v76h263v-76z" />
    <glyph glyph-name="uogonek.1" horiz-adv-x="528" 
d="M55 197v253h90v-245q0 -54 34.5 -90t85.5 -36q50 0 84 36t34 90v245h90v-253q0 -90 -60 -150q-59 -59 -149 -59q-88 0 -149 59q-60 60 -60 150zM237 -14l15 14h67l-16 -14q-10 -11 -25 -35q-15 -25 -15 -47q0 -18 11 -28.5t27 -10.5q27 0 45 20l7 7l30 -37q-5 -6 -14 -14
q-8 -9 -35 -23q-25 -15 -53 -15q-38 0 -63 24t-25 61q0 25 13.5 53t30.5 45z" />
    <glyph glyph-name="uring.1" horiz-adv-x="528" 
d="M55 197v253h90v-245q0 -54 34.5 -90t85.5 -36q50 0 84 36t34 90v245h90v-253q0 -90 -60 -150q-59 -59 -149 -59q-88 0 -149 59q-60 60 -60 150zM189 565q-30 31 -30 76t30 76q31 31 76 31t76 -31t31 -76t-31 -76q-31 -30 -76 -30t-76 30zM265 600q25 0 35.5 20.5t0 41
t-35.5 20.5q-17 0 -29 -12t-12 -29t12 -29t29 -12z" />
    <glyph glyph-name="utilde.1" horiz-adv-x="528" 
d="M55 197v253h90v-245q0 -54 34.5 -90t85.5 -36q50 0 84 36t34 90v245h90v-253q0 -90 -60 -150q-59 -59 -149 -59q-88 0 -149 59q-60 60 -60 150zM187 555h-72q0 44 28 74.5t69 30.5q30 0 58 -22q28 -21 40 -21q14 0 23.5 11t9.5 27h72q0 -45 -28 -75t-69 -30q-30 0 -59 21
q-28 22 -39 22q-14 0 -23.5 -11t-9.5 -27z" />
    <glyph glyph-name="y.1" horiz-adv-x="469" 
d="M187 13l-176 437h94l127 -325l132 325h94l-277 -675h-90z" />
    <glyph glyph-name="yacute.1" horiz-adv-x="469" 
d="M187 13l-176 437h94l127 -325l132 325h94l-277 -675h-90zM375 629l-188 -90l-31 56l175 115z" />
    <glyph glyph-name="ycircumflex.1" horiz-adv-x="469" 
d="M91 -225l96 238l-176 437h94l127 -325l132 325h94l-277 -675h-90zM234 614l-113 -75l-40 52l149 118h8l149 -118l-39 -52z" />
    <glyph glyph-name="ydieresis.1" horiz-adv-x="469" 
d="M187 13l-176 437h94l127 -325l132 325h94l-277 -675h-90zM332 541q-25 0 -42 17t-17 42t17 42.5t42 17.5q26 0 43 -17t17 -43q0 -25 -17 -42t-43 -17zM137 541q-26 0 -43 17t-17 42q0 40 37.5 55.5t64.5 -13.5q28 -26 12 -65t-54 -36z" />
    <glyph glyph-name="ygrave.1" horiz-adv-x="469" 
d="M187 13l-176 437h94l127 -325l132 325h94l-277 -675h-90zM310 596l-31 -56l-188 90l44 81z" />
    <glyph glyph-name="afii10085.1" horiz-adv-x="469" 
d="M187 13l-176 437h94l127 -325l132 325h94l-277 -675h-90z" />
    <glyph glyph-name="afii10110.1" horiz-adv-x="469" 
d="M91 -225l96 238l-176 437h94l127 -325l132 325h94l-277 -675h-90zM81 679h79q0 -31 21.5 -51.5t53.5 -20.5t53 20.5t21 51.5h79q0 -61 -44 -105q-43 -43 -109 -43q-67 0 -110 43q-44 44 -44 105z" />
    <glyph glyph-name="g.1" horiz-adv-x="552" 
d="M257 -12q-93 0 -158 68q-63 67 -63 169q0 101 63 169q65 68 158 68q87 0 149 -59v47h90v-461q0 -97 -66 -161q-65 -65 -162 -65q-40 0 -89 17l34 82q29 -9 52 -9q59 0 100 39t41 97v58q-62 -59 -149 -59zM267 79q58 0 97 42q40 41 40 104t-40 104q-39 42 -97 42
q-59 0 -99 -42q-39 -42 -39 -104t39 -104q40 -42 99 -42z" />
    <glyph glyph-name="gbreve.1" horiz-adv-x="552" 
d="M257 -12q-93 0 -158 68q-63 67 -63 169q0 101 63 169q65 68 158 68q87 0 149 -59v47h90v-461q0 -97 -66 -161q-65 -65 -162 -65q-40 0 -89 17l34 82q29 -9 52 -9q59 0 100 39t41 97v58q-62 -59 -149 -59zM267 371q-59 0 -99 -42q-39 -42 -39 -104t39 -104q40 -42 99 -42
q58 0 97 42q40 41 40 104t-40 104q-39 42 -97 42zM130 675h73q0 -30 19.5 -50.5t47.5 -20.5q29 0 48 20.5t19 50.5h73q0 -59 -40 -99t-100 -40t-100 40t-40 99z" />
    <glyph glyph-name="gcircumflex.1" horiz-adv-x="552" 
d="M257 -12q-93 0 -158 68q-63 67 -63 169q0 101 63 169q65 68 158 68q87 0 149 -59v47h90v-461q0 -97 -66 -161q-65 -65 -162 -65q-40 0 -89 17l34 82q29 -9 52 -9q59 0 100 39t41 97v58q-62 -59 -149 -59zM267 371q-59 0 -99 -42q-39 -42 -39 -104t39 -104q40 -42 99 -42
q58 0 97 42q40 41 40 104t-40 104q-39 42 -97 42zM270 614l-114 -75l-40 52l150 118h8l149 -118l-40 -52z" />
    <glyph glyph-name="gcommaaccent.1" horiz-adv-x="552" 
d="M257 462q87 0 149 -59v47h90v-461q0 -97 -66 -161q-65 -65 -162 -65q-40 0 -89 17l34 82q29 -9 52 -9q59 0 100 39t41 97v58q-62 -59 -149 -59q-93 0 -158 68q-63 67 -63 169q0 101 63 169q65 68 158 68zM267 371q-59 0 -99 -42q-39 -42 -39 -104t39 -104q40 -42 99 -42
q58 0 97 42q40 41 40 104t-40 104q-39 42 -97 42zM213 601q0 10 2 20.5t6 19t9 16.5t10.5 14.5t11.5 12.5t11.5 10l11 8t9 6.5t6.5 3.5l3 2l24 -25l-12 -10q-28 -28 -28 -44q18 -2 30.5 -17t12.5 -34q0 -21 -14.5 -35t-36.5 -14q-24 0 -40 18t-16 48z" />
    <glyph glyph-name="gdotaccent.1" horiz-adv-x="552" 
d="M257 -12q-93 0 -158 68q-63 67 -63 169q0 101 63 169q65 68 158 68q87 0 149 -59v47h90v-461q0 -97 -66 -161q-65 -65 -162 -65q-40 0 -89 17l34 82q29 -9 52 -9q59 0 100 39t41 97v58q-62 -59 -149 -59zM267 371q-59 0 -99 -42q-39 -42 -39 -104t39 -104q40 -42 99 -42
q58 0 97 42q40 41 40 104t-40 104q-39 42 -97 42zM270 540q-27 0 -44.5 18t-17.5 44q0 27 17.5 45t44.5 18q26 0 44 -18t18 -45q0 -26 -18 -44t-44 -18z" />
    <glyph glyph-name="t.1" horiz-adv-x="321" 
d="M12 370v49l108 117h51v-86h122v-80h-122v-221q0 -26 17 -44t42 -18h63v-87h-69q-61 0 -103 39q-41 41 -41 99v232h-68z" />
    <glyph glyph-name="tbar.1" horiz-adv-x="321" 
d="M80 370h-68v49l108 117h51v-86h122v-80h-122v-92h84v-74h-84v-55q0 -26 17 -44t42 -18h63v-87h-69q-61 0 -103 39q-41 41 -41 99v66h-55v74h55v92z" />
    <glyph glyph-name="tcaron.1" horiz-adv-x="344" 
d="M12 370v49l108 117h51v-86h122v-80h-122v-221q0 -26 17 -44t42 -18h63v-87h-69q-61 0 -103 39q-41 41 -41 99v232h-68zM329 625q0 -28 -16 -54t-30 -37.5t-28 -19.5l-5 -3l-24 25l11 10q8 7 18 22t10 23q-18 2 -30.5 17t-12.5 34q0 21 15 35t37 14q24 0 39.5 -18
t15.5 -48z" />
    <glyph glyph-name="tcommaaccent.1" horiz-adv-x="321" 
d="M12 370v49l108 117h51v-86h122v-80h-122v-221q0 -26 17 -44t42 -18h63v-87h-69q-61 0 -103 39q-41 41 -41 99v232h-68zM244 -118q0 -20 -8.5 -39.5t-19 -31.5t-24 -23t-19.5 -14.5t-9 -5.5l-24 25l11 10q29 26 29 44q-18 3 -30.5 17.5t-12.5 34.5t14.5 34.5t36.5 14.5
q24 0 40 -18t16 -48z" />
    <glyph glyph-name="uni021B.1" horiz-adv-x="321" 
d="M12 370v49l108 117h51v-86h122v-80h-122v-221q0 -26 17 -44t42 -18h63v-87h-69q-61 0 -103 39q-41 41 -41 99v232h-68zM244 -118q0 -20 -8.5 -39.5t-19 -31.5t-24 -23t-19.5 -14.5t-9 -5.5l-24 25l11 10q29 26 29 44q-18 3 -30.5 17.5t-12.5 34.5t14.5 34.5t36.5 14.5
q24 0 40 -18t16 -48z" />
    </font>
</defs>
</svg>
