<?xml version="1.0" standalone="no"?>
<!DOCTYPE svg PUBLIC "-//W3C//DTD SVG 1.1//EN" "http://www.w3.org/Graphics/SVG/1.1/DTD/svg11.dtd" >
<svg xmlns="http://www.w3.org/2000/svg" xmlns:xlink="http://www.w3.org/1999/xlink" version="1.1">
<metadata>
Created by FontForge 20170731 at Mon Apr 22 02:51:01 2019
 By Aleksey,,,
Copyright (c) 2019 by Oleh Lishchuk. All rights reserved. |DCNT
</metadata>
<defs>
<font id="MazzardM-Bold" horiz-adv-x="600" >
  <font-face 
    font-family="Mazzard M"
    font-weight="700"
    font-stretch="normal"
    units-per-em="1000"
    panose-1="0 0 0 0 0 0 0 0 0 0"
    ascent="755"
    descent="-245"
    x-height="450"
    cap-height="675"
    bbox="-88 -247 1222 965"
    underline-thickness="50"
    underline-position="-275"
    unicode-range="U+000D-FB04"
  />
<missing-glyph horiz-adv-x="333" 
 />
    <glyph glyph-name="f_f" unicode="ff" horiz-adv-x="589" 
d="M73 340h-65v110h65v126q0 62 48 106q47 43 119 43h61v-123h-50q-20 0 -34.5 -13t-14.5 -32v-107h150v126q0 62 48 106q47 43 119 43h61v-123h-49q-21 0 -35 -13t-14 -32v-107h99v-110h-99v-340h-130v340h-150v-340h-129v340z" />
    <glyph glyph-name="fi" unicode="fi" horiz-adv-x="515" 
d="M202 557v-107h100v-110h-100v-340h-129v340h-65v110h65v126q0 62 48 106q47 43 119 43h61v-123h-50q-20 0 -34.5 -13t-14.5 -32zM478 0h-130v450h130v-450zM355 537q-22 22 -22 58q0 35 22 57q23 23 58 23q34 0 57 -23t23 -57q0 -35 -23 -58q-22 -22 -57 -22
q-36 0 -58 22z" />
    <glyph glyph-name="fl" unicode="fl" horiz-adv-x="515" 
d="M202 557v-107h100v-110h-100v-340h-129v340h-65v110h65v126q0 62 48 106q47 43 119 43h61v-123h-50q-20 0 -34.5 -13t-14.5 -32zM478 0h-130v725h130v-725z" />
    <glyph glyph-name="f_f_i" unicode="ffi" horiz-adv-x="795" 
d="M73 0v340h-65v110h65v126q0 62 48 106q47 43 119 43h61v-123h-50q-20 0 -34.5 -13t-14.5 -32v-107h150v126q0 62 48 106q47 43 119 43h61v-123h-49q-21 0 -35 -13t-14 -32v-107h275v-450h-130v340h-145v-340h-130v340h-150v-340h-129zM635 538q-23 23 -23 57t23 57t57 23
t57 -23t23 -57q0 -35 -23 -58q-24 -22 -57.5 -22t-56.5 23z" />
    <glyph glyph-name="f_f_l" unicode="ffl" horiz-adv-x="795" 
d="M73 0v340h-65v110h65v126q0 62 48 106q47 43 119 43h61v-123h-50q-20 0 -34.5 -13t-14.5 -32v-107h150v126q0 62 48 106q47 43 119 43h61v-123h-49q-21 0 -35 -13t-14 -32v-107h99v-110h-99v-340h-130v340h-150v-340h-129zM627 0v725h130v-725h-130z" />
    <glyph glyph-name="afii10104_afii10104" unicode="&#x457;&#x457;" horiz-adv-x="426" 
d="M171 0h-129v450h129v-450zM-26 550q-20 21 -20 51t20 50q20 21 49 21t48 -21q20 -20 20 -50t-20 -51q-19 -20 -48 -20t-49 20zM384 0h-129v450h129v-450zM165 550q-20 21 -20 51t20 50q20 21 49 21t48 -21q20 -20 20 -50t-20 -51q-19 -20 -48 -20t-49 20zM354 550
q-20 21 -20 51t20 50q20 21 49 21t49 -21q20 -20 20 -50t-20 -51q-20 -20 -49 -20t-49 20z" />
    <glyph glyph-name=".notdef" horiz-adv-x="333" 
 />
    <glyph glyph-name="uni0000" horiz-adv-x="0" 
 />
    <glyph glyph-name="uni0000" horiz-adv-x="0" 
 />
    <glyph glyph-name="uni000D" unicode="&#xd;" horiz-adv-x="250" 
 />
    <glyph glyph-name="space" unicode=" " horiz-adv-x="235" 
 />
    <glyph glyph-name="exclam" unicode="!" horiz-adv-x="223" 
d="M37 63q-4 49 45.5 69t81.5 -16q36 -32 16 -81.5t-69 -45.5q-31 0 -52.5 21.5t-21.5 52.5zM167 217h-111l-17 458h145z" />
    <glyph glyph-name="quotedbl" unicode="&#x22;" horiz-adv-x="361" 
d="M150 453h-95l-11 222h117zM305 453h-94l-11 222h116z" />
    <glyph glyph-name="numbersign" unicode="#" horiz-adv-x="658" 
d="M17 165l-1 103h140l25 139h-119v103h137l29 165h105l-29 -165h111l29 165h105l-29 -165h122l-1 -103h-139l-25 -139h119v-103h-137l-29 -165h-105l29 165h-111l-29 -165h-105l29 165h-121zM286 407l-25 -139h111l25 139h-111z" />
    <glyph glyph-name="dollar" unicode="$" horiz-adv-x="583" 
d="M248 -118v109q-83 12 -141 57t-76 111l143 35q8 -32 42.5 -53t82.5 -21q46 0 77.5 19.5t31.5 49.5q6 25 -38 51q-8 4 -27 12q-21 8 -26 9l-28 9l-59 18l-53 21q-31 12 -52 28q-82 61 -75 145q0 81 52 136t137 66v109h92v-110q72 -11 124 -53t68 -100l-141 -34
q-7 25 -35 42.5t-64 17.5q-38 0 -64 -18t-26 -46q0 -35 62 -59q18 -7 99 -31q63 -18 103 -42q88 -45 93 -158q0 -87 -57 -144t-154 -68v-108h-91z" />
    <glyph glyph-name="percent" unicode="%" horiz-adv-x="854" 
d="M207 0l-73 61l516 614l73 -61zM205 687q77 0 128 -52q52 -52 52 -129t-52 -129q-51 -52 -128 -52q-76 0 -128 52q-51 53 -51 129t51 129q52 52 128 52zM158 553q-19 -19 -19 -47t19 -47t47 -19t47 19t19 47t-19 47t-47 19t-47 -19zM469 169q0 77 51 129q52 52 128 52
q77 0 128 -52q52 -52 52 -129q0 -78 -52 -130q-51 -51 -128 -51q-76 0 -128 51q-51 52 -51 130zM601 216q-19 -19 -19 -47t19 -47t47 -19t47 19t19 47t-19 47t-47 19t-47 -19z" />
    <glyph glyph-name="ampersand" unicode="&#x26;" horiz-adv-x="676" 
d="M275 -12q-104 0 -175 62q-70 63 -70 154q0 107 115 179q-44 73 -44 135q0 75 49 121q50 48 126 48q78 0 130 -49q53 -48 53 -120q0 -54 -31 -93t-94 -77l113 -117q25 54 25 122h125q0 -123 -60 -216l131 -137h-176l-42 44q-79 -56 -175 -56zM364 134l-120 126
q-13 13 -22 24q-59 -39 -59 -83q0 -38 33 -64t83 -26q47 0 85 23zM256 443q43 23 61.5 39.5t18.5 36.5q0 19 -16 32t-39 13t-37.5 -14t-14.5 -36q0 -30 27 -71z" />
    <glyph glyph-name="quotesingle" unicode="'" horiz-adv-x="199" 
d="M150 453h-95l-11 222h117z" />
    <glyph glyph-name="parenleft" unicode="(" horiz-adv-x="310" 
d="M162 757l15 18h123l-16 -21q-3 -5 -34 -61q-54 -104 -79 -229q-30 -163 0 -326q30 -159 114 -292l15 -21h-123l-1 1q-78 93 -118 253q-25 103 -25 222q0 177 51 306q42 107 78 150z" />
    <glyph glyph-name="parenright" unicode=")" horiz-adv-x="310" 
d="M24 755l-14 20h123q7 -7 15 -19q8 -10 34 -56q21 -36 44 -94q18 -46 34 -133q16 -80 16 -172q0 -83 -14 -165q-13 -77 -32 -129q-17 -50 -41 -94q-28 -53 -55 -87l-1 -1h-123l15 21q7 10 34 61q54 104 78 230q32 164 1 326q-27 155 -114 292z" />
    <glyph glyph-name="asterisk" unicode="*" horiz-adv-x="424" 
d="M177 441l-87 -74l-56 96l108 39l-108 39l56 95l87 -74l-20 113h110l-20 -113l87 74l55 -95l-107 -39l107 -39l-55 -96l-87 74l20 -112h-110z" />
    <glyph glyph-name="plus" unicode="+" 
d="M240 274h-180v120h180v180h120v-180h180v-120h-180v-180h-120v180z" />
    <glyph glyph-name="comma" unicode="," horiz-adv-x="211" 
d="M184 36q0 -90 -110 -164l-39 40q51 50 51 75q-26 5 -43 26.5t-17 49.5q0 31 21.5 51.5t53.5 20.5q36 0 59.5 -28.5t23.5 -70.5z" />
    <glyph glyph-name="hyphen" unicode="-" horiz-adv-x="383" 
d="M55 168v114h273v-114h-273z" />
    <glyph glyph-name="period" unicode="." horiz-adv-x="203" 
d="M26 65q0 32 21.5 53.5t53.5 21.5q33 0 54.5 -21.5t21.5 -53.5q0 -33 -21.5 -54.5t-54.5 -21.5q-32 0 -53.5 21.5t-21.5 54.5z" />
    <glyph glyph-name="slash" unicode="/" horiz-adv-x="555" 
d="M114 -175h-114l442 950h114z" />
    <glyph glyph-name="zero" unicode="0" 
d="M37 231v213q0 104 75 173q74 70 188 70t188 -70q75 -69 75 -173v-213q0 -103 -75 -174q-75 -69 -188 -69t-188 69q-75 71 -75 174zM174 446v-217q0 -47 36 -78q38 -32 90 -32t89 32q37 31 37 78v217q0 47 -37 78q-37 32 -89 32t-90 -32q-36 -32 -36 -78z" />
    <glyph glyph-name="one" unicode="1" horiz-adv-x="442" 
d="M207 512l-114 -55l-54 118l207 100h98v-675h-137v512z" />
    <glyph glyph-name="two" unicode="2" horiz-adv-x="559" 
d="M372 474q0 34 -29 58t-70 24q-84 0 -122 -94l-127 61q34 76 100 120t149 44q101 0 171 -61t70 -147q0 -103 -146 -237l-117 -111h269v-131h-480v102l244 231q88 84 88 141z" />
    <glyph glyph-name="three" unicode="3" horiz-adv-x="567" 
d="M372 480q0 33 -30.5 54.5t-77.5 21.5q-83 0 -111 -58l-123 53q30 62 94 99t145 37q104 0 175 -59t71 -144q0 -84 -72 -133q89 -56 89 -152q0 -91 -74 -151t-183 -60q-92 0 -160.5 42.5t-92.5 114.5l131 46q8 -32 41 -52t78 -20q51 0 84.5 24t33.5 61q0 36 -33.5 59.5
t-81.5 23.5h-52v115h35q48 0 81 22t33 56z" />
    <glyph glyph-name="four" unicode="4" horiz-adv-x="617" 
d="M372 0v126h-342v132l349 417h130v-418h83v-131h-83v-126h-137zM372 471l-178 -214h178v214z" />
    <glyph glyph-name="five" unicode="5" horiz-adv-x="581" 
d="M546 219q0 -99 -74 -165t-185 -66q-91 0 -162 48q-69 49 -97 130l138 37q15 -39 47 -61.5t74 -22.5q48 0 83 29q34 28 34 70q0 45 -38.5 75t-95.5 30h-190l36 352h371v-126h-258l-10 -100h71q108 0 182 -66t74 -164z" />
    <glyph glyph-name="six" unicode="6" horiz-adv-x="582" 
d="M538 553l-125 -60q-35 63 -113 63q-54 0 -89.5 -31t-35.5 -76v-50q52 37 126 37q104 0 177 -65q72 -65 72 -161q0 -95 -73 -159q-73 -63 -182 -63q-111 0 -184 64t-73 160v235q0 103 75 171q75 69 188 69q78 0 142 -36.5t95 -97.5zM295 304q-49 0 -82 -26.5t-33 -64.5
q0 -40 33 -67t82 -27q48 0 80.5 26.5t32.5 64.5q0 40 -32.5 67t-80.5 27z" />
    <glyph glyph-name="seven" unicode="7" horiz-adv-x="518" 
d="M104 0l246 549h-332v126h478v-133l-242 -542h-150z" />
    <glyph glyph-name="eight" unicode="8" horiz-adv-x="581" 
d="M291 -12q-111 0 -184 58t-73 145q0 101 93 160q-79 55 -79 144q0 81 69 136q71 56 174 56q102 0 172 -56q70 -55 70 -137q0 -87 -78 -144q92 -60 92 -160q0 -86 -73 -144t-183 -58zM177 204q0 -36 32 -60.5t82 -24.5q49 0 81 24t32 60t-32 59.5t-81 23.5q-50 0 -82 -23.5
t-32 -58.5zM191 484q0 -31 28.5 -51.5t71.5 -20.5t71 20.5t28 51.5q0 30 -28.5 51t-70.5 21q-43 0 -71.5 -21t-28.5 -51z" />
    <glyph glyph-name="nine" unicode="9" horiz-adv-x="584" 
d="M33 123l124 60q34 -64 119 -64q57 0 95.5 31t38.5 76v45q-48 -39 -124 -39q-103 0 -176 65q-71 66 -71 163q0 98 72 162q74 65 182 65q107 0 181 -65q73 -64 73 -160v-234q0 -103 -77 -172q-77 -68 -192 -68q-81 0 -147.5 37t-97.5 98zM293 363q48 0 79.5 27.5t31.5 68.5
t-31.5 69t-79.5 28q-47 0 -79 -27.5t-32 -67.5q0 -42 32 -70t79 -28z" />
    <glyph glyph-name="colon" unicode=":" horiz-adv-x="203" 
d="M26 65q0 32 21.5 53.5t53.5 21.5q33 0 54.5 -21.5t21.5 -53.5q0 -33 -21.5 -54.5t-54.5 -21.5q-32 0 -53.5 21.5t-21.5 54.5zM26 386q0 32 21.5 54t53.5 22q33 0 54.5 -22t21.5 -54q0 -33 -21.5 -54.5t-54.5 -21.5q-32 0 -53.5 21.5t-21.5 54.5z" />
    <glyph glyph-name="semicolon" unicode=";" horiz-adv-x="205" 
d="M101 463q33 0 54.5 -22t21.5 -54t-21.5 -54t-54.5 -22q-32 0 -53.5 22t-21.5 54t21.5 54t53.5 22zM185 36q0 -90 -110 -164l-39 40q50 49 52 75q-26 5 -43.5 26.5t-17.5 49.5q0 31 21.5 51.5t53.5 20.5q36 0 59.5 -28.5t23.5 -70.5z" />
    <glyph glyph-name="less" unicode="&#x3c;" 
d="M525 67l-470 219v103l470 219v-132l-298 -139l298 -139v-131z" />
    <glyph glyph-name="equal" unicode="=" 
d="M60 387v119h480v-119h-480zM60 169v120h480v-120h-480z" />
    <glyph glyph-name="greater" unicode="&#x3e;" 
d="M545 389v-103l-470 -219v131l298 139l-298 139v132z" />
    <glyph glyph-name="question" unicode="?" horiz-adv-x="563" 
d="M387 470q0 37 -33.5 62t-82.5 25q-42 0 -74 -21.5t-43 -55.5l-137 38q23 76 91.5 122.5t160.5 46.5q107 0 181 -62q73 -61 73 -156q0 -44 -17.5 -80.5t-46 -59t-50 -34.5t-44.5 -20l-18 -5l-7 -53h-118l-15 125q2 1 10 2.5t21.5 5.5t31.5 11q32 11 54 24q26 16 44.5 39
t18.5 46zM226 8q-22 22 -22 55t22 55t55 22t54 -22q22 -22 22 -55t-22 -55q-21 -22 -54 -22t-55 22z" />
    <glyph glyph-name="at" unicode="@" horiz-adv-x="883" 
d="M441 637q175 0 294 -114q120 -114 120 -272q0 -99 -50 -163q-50 -62 -128 -62q-83 0 -131 63q-53 -63 -133 -63q-75 0 -128 57q-51 57 -51 142t51 142q53 57 128 57q60 0 105 -36v27h109v-241q0 -20 15 -34t35 -14q33 0 53 33t20 87q0 117 -90 201q-88 84 -219 84
q-132 0 -220 -88q-88 -87 -88 -218t87 -219q87 -87 216 -87q75 0 131 32l35 -95q-74 -43 -170 -43q-171 0 -288 118q-116 119 -116 294q0 176 118 294t295 118zM348 225q0 -38 24.5 -64.5t60.5 -26.5t60.5 26.5t24.5 64.5q0 39 -24.5 65t-60.5 26t-60.5 -26t-24.5 -65z" />
    <glyph glyph-name="A" unicode="A" horiz-adv-x="705" 
d="M157 0h-149l286 675h117l286 -675h-149l-49 119h-293zM446 248l-93 224l-93 -224h186z" />
    <glyph glyph-name="B" unicode="B" horiz-adv-x="653" 
d="M398 0h-348v675h329q91 0 152 -54q61 -52 61 -132q0 -83 -63 -135q91 -57 91 -160q0 -84 -64 -139t-158 -55zM397 283h-204v-152h204q31 0 52.5 22t21.5 54t-21.5 54t-52.5 22zM377 543h-184v-135h184q26 0 44.5 16t21.5 42q1 2 1 10q0 29 -19 48t-48 19z" />
    <glyph glyph-name="C" unicode="C" horiz-adv-x="734" 
d="M388 687q105 0 190 -51.5t128 -139.5l-138 -51q-27 49 -74 77t-106 28q-89 0 -147 -61t-58 -151q0 -91 58 -152t147 -61q59 0 106 28t74 77l138 -51q-43 -88 -128 -139.5t-190 -51.5q-152 0 -253 100q-101 101 -101 249t101 249q103 101 253 101z" />
    <glyph glyph-name="D" unicode="D" horiz-adv-x="713" 
d="M326 0h-276v675h276q150 0 251 -98q102 -97 102 -240t-102 -240q-100 -97 -251 -97zM326 543h-133v-412h133q87 0 146 59q59 61 59 147q0 88 -59 147t-146 59z" />
    <glyph glyph-name="E" unicode="E" horiz-adv-x="585" 
d="M50 675h501v-132h-358v-137h304v-131h-304v-144h363v-131h-506v675z" />
    <glyph glyph-name="F" unicode="F" horiz-adv-x="577" 
d="M50 675h501v-132h-358v-138h304v-131h-304v-274h-143v675z" />
    <glyph glyph-name="G" unicode="G" horiz-adv-x="771" 
d="M34 337q0 150 103 250t256 100q105 0 191 -51q87 -52 130 -140l-138 -51q-26 49 -75 77t-108 28q-90 0 -150 -61t-60 -151t57 -152q58 -61 144 -61q65 0 117 35.5t71 94.5h-205v122h367q0 -5 1.5 -18.5t1.5 -17.5q-2 -153 -101 -252q-101 -101 -250 -101q-150 0 -251 100
q-101 101 -101 249z" />
    <glyph glyph-name="H" unicode="H" horiz-adv-x="694" 
d="M193 0h-143v675h143v-268h309v268h142v-675h-142v275h-309v-275z" />
    <glyph glyph-name="I" unicode="I" horiz-adv-x="243" 
d="M193 0h-143v675h143v-675z" />
    <glyph glyph-name="J" unicode="J" horiz-adv-x="562" 
d="M519 675v-425q0 -112 -79 -187q-78 -75 -196 -75q-75 0 -135.5 31t-96.5 88l118 77q36 -65 116 -65q57 0 97 38q39 37 39 94v424h137z" />
    <glyph glyph-name="K" unicode="K" horiz-adv-x="637" 
d="M50 0v675h143v-285l236 285h181l-273 -330l292 -345h-181l-255 301v-301h-143z" />
    <glyph glyph-name="L" unicode="L" horiz-adv-x="547" 
d="M50 675h143v-544h332v-131h-475v675z" />
    <glyph glyph-name="M" unicode="M" horiz-adv-x="849" 
d="M191 0h-141v675h141l233 -412l234 412h141v-675h-141v410l-187 -336h-94l-186 334v-408z" />
    <glyph glyph-name="N" unicode="N" horiz-adv-x="700" 
d="M187 0h-137v675h127l336 -430v430h137v-675h-126l-337 430v-430z" />
    <glyph glyph-name="O" unicode="O" horiz-adv-x="775" 
d="M135 88q-101 101 -101 249t101 249q103 101 253 101q151 0 252 -101t101 -249t-101 -249q-100 -100 -252 -100t-253 100zM183 338q0 -91 58 -152t147 -61q88 0 146 61q59 62 59 152q0 89 -59 151q-58 61 -146 61q-89 0 -147 -61t-58 -151z" />
    <glyph glyph-name="P" unicode="P" horiz-adv-x="625" 
d="M193 227v-227h-143v675h305q103 0 171 -64q69 -64 69 -160q0 -95 -69 -160q-68 -64 -171 -64h-162zM355 543h-162v-185h162q39 0 65.5 26.5t26.5 66.5t-26.5 66t-65.5 26z" />
    <glyph glyph-name="Q" unicode="Q" horiz-adv-x="777" 
d="M388 -12q-152 0 -253 100q-101 101 -101 249t101 249q103 101 253 101q151 0 252 -101t101 -249q0 -121 -71 -215l75 -75l-94 -93l-81 81q-83 -47 -182 -47zM183 338q0 -91 58 -152t147 -61q42 0 77 15l-96 96l94 93l102 -102q28 49 28 111q0 89 -59 151q-58 61 -146 61
q-89 0 -147 -61t-58 -151z" />
    <glyph glyph-name="R" unicode="R" horiz-adv-x="649" 
d="M50 675h314q104 0 171 -64q69 -64 69 -160q0 -65 -33.5 -117.5t-90.5 -80.5l149 -253h-159l-134 227h-143v-227h-143v675zM364 543h-171v-185h171q40 0 66 26.5t26 66.5t-26 66t-66 26z" />
    <glyph glyph-name="S" unicode="S" horiz-adv-x="583" 
d="M523 530l-141 -34q-7 25 -35 42.5t-64 17.5q-38 0 -64 -18t-26 -46q0 -35 62 -59q18 -7 99 -31q63 -18 103 -42q88 -45 93 -158q0 -98 -70 -156t-181 -58q-101 0 -175 48q-72 48 -93 123l143 35q8 -32 42.5 -53t82.5 -21q46 0 77.5 19.5t31.5 49.5q6 25 -38 51
q-8 4 -27 12q-21 8 -26 9l-28 9l-59 18l-53 21q-31 12 -52 28q-82 61 -75 145q0 91 64 148q65 57 167 57q91 0 157 -45q67 -43 85 -112z" />
    <glyph glyph-name="T" unicode="T" horiz-adv-x="615" 
d="M236 543h-215v132h572v-132h-215v-543h-142v543z" />
    <glyph glyph-name="U" unicode="U" horiz-adv-x="681" 
d="M495 273v402h143v-402q0 -120 -86 -203q-85 -82 -212 -82t-212 82t-85 203v402h143v-402q0 -66 44 -110t110 -44q67 0 111 44t44 110z" />
    <glyph glyph-name="V" unicode="V" horiz-adv-x="695" 
d="M406 0h-117l-281 675h149l191 -470l190 470h149z" />
    <glyph glyph-name="W" unicode="W" horiz-adv-x="968" 
d="M352 0h-117l-227 675h146l138 -446l134 446h117l135 -445l137 445h146l-227 -675h-117l-132 427z" />
    <glyph glyph-name="X" unicode="X" horiz-adv-x="680" 
d="M255 344l-238 331h170l153 -213l153 213h170l-238 -331l248 -344h-170l-163 226l-162 -226h-170z" />
    <glyph glyph-name="Y" unicode="Y" horiz-adv-x="669" 
d="M262 277l-254 398h163l161 -265l166 265h163l-257 -394v-281h-142v277z" />
    <glyph glyph-name="Z" unicode="Z" horiz-adv-x="608" 
d="M576 131v-131h-541v110l340 433h-337v132h535v-110l-340 -434h343z" />
    <glyph glyph-name="bracketleft" unicode="[" horiz-adv-x="316" 
d="M170 -62h136v-113h-259v950h259v-113h-136v-724z" />
    <glyph glyph-name="backslash" unicode="\" horiz-adv-x="555" 
d="M114 775l442 -950h-114l-442 950h114z" />
    <glyph glyph-name="bracketright" unicode="]" horiz-adv-x="316" 
d="M270 -175h-260v113h137v724h-137v113h260v-950z" />
    <glyph glyph-name="asciicircum" unicode="^" 
d="M60 341l189 334h103l188 -333h-137l-103 178l-104 -179h-136z" />
    <glyph glyph-name="underscore" unicode="_" horiz-adv-x="235" 
d="M0 -162v112h235v-112h-235z" />
    <glyph glyph-name="grave" unicode="`" horiz-adv-x="320" 
d="M243 675l-207 92l59 104l189 -125z" />
    <glyph glyph-name="a" unicode="a" horiz-adv-x="528" 
d="M237 462q70 0 124 -42v30h129v-450h-129v31q-54 -42 -124 -42q-91 0 -152 67t-61 169t61 169q62 68 152 68zM159 226q0 -46 29 -77.5t71 -31.5t71 31.5t29 77.5q0 45 -29 76.5t-71 31.5t-71 -31.5t-29 -76.5z" />
    <glyph glyph-name="b" unicode="b" horiz-adv-x="528" 
d="M38 0v725h129v-305q54 42 124 42q90 0 152 -68t62 -169q0 -102 -61 -169t-153 -67q-70 0 -124 42v-31h-129zM269 334q-41 0 -70.5 -31.5t-29.5 -76.5q0 -46 29 -77.5t71 -31.5t71 31.5t29 77.5q0 45 -29 76.5t-71 31.5z" />
    <glyph glyph-name="c" unicode="c" horiz-adv-x="506" 
d="M492 307l-131 -39q-11 30 -37.5 48t-59.5 18q-44 0 -74.5 -31.5t-30.5 -76.5q0 -46 30.5 -77.5t74.5 -31.5q33 0 59.5 17.5t37.5 47.5l131 -38q-27 -71 -88 -113t-140 -42q-104 0 -172 67q-68 68 -68 169t68 169q70 68 172 68q78 0 140 -42.5t88 -112.5z" />
    <glyph glyph-name="d" unicode="d" horiz-adv-x="528" 
d="M237 462q70 0 124 -42v305h129v-725h-129v31q-54 -42 -124 -42q-91 0 -152 67t-61 169t61 169q62 68 152 68zM159 226q0 -46 29 -77.5t71 -31.5t71 31.5t29 77.5q0 45 -29 76.5t-71 31.5t-71 -31.5t-29 -76.5z" />
    <glyph glyph-name="e" unicode="e" horiz-adv-x="519" 
d="M496 178h-335q11 -36 41 -57.5t69 -21.5q54 0 89 41l125 -29q-30 -57 -87.5 -89.5t-128.5 -32.5q-105 0 -175 67t-70 169q0 101 68 169q70 68 170 68q101 0 169 -68q69 -68 69 -169q0 -30 -4 -47zM161 275h207q-11 34 -40 55t-65 21q-34 0 -62.5 -21t-39.5 -55z" />
    <glyph glyph-name="f" unicode="f" horiz-adv-x="310" 
d="M202 557v-107h100v-110h-100v-340h-129v340h-65v110h65v126q0 62 48 106q47 43 119 43h61v-123h-50q-20 0 -34.5 -13t-14.5 -32z" />
    <glyph glyph-name="g" unicode="g" horiz-adv-x="528" 
d="M237 -11q-91 0 -152 67t-61 169t61 169q62 68 152 68q70 0 124 -42v30h129v-467q0 -95 -66 -156q-64 -63 -163 -63q-78 0 -140 40q-62 41 -83 102l128 30q11 -22 36.5 -36t55.5 -14q44 0 73.5 27.5t29.5 67.5v50q-54 -42 -124 -42zM159 224q0 -45 29 -76t71 -31t71 31
t29 76q0 46 -29 78t-71 32t-71 -32t-29 -78z" />
    <glyph glyph-name="h" unicode="h" horiz-adv-x="506" 
d="M38 0v725h130v-321q46 58 126 58q74 0 124 -50q51 -50 51 -123v-289h-130v255q0 37 -24.5 61.5t-60.5 24.5q-37 0 -61.5 -24.5t-24.5 -61.5v-255h-130z" />
    <glyph glyph-name="i" unicode="i" horiz-adv-x="205" 
d="M168 0h-130v450h130v-450zM45 537q-22 22 -22 58q0 35 22 57q23 23 58 23q34 0 57 -23t23 -57q0 -35 -23 -58q-22 -22 -57 -22q-36 0 -58 22z" />
    <glyph glyph-name="j" unicode="j" horiz-adv-x="211" 
d="M43 450h129v-526q0 -63 -49 -106q-47 -43 -119 -43h-45v124h34q21 0 35.5 12.5t14.5 31.5v507zM108 675q34 0 57 -23t23 -57t-23 -57t-57 -23q-35 0 -58 23t-23 57t23 57t58 23z" />
    <glyph glyph-name="k" unicode="k" horiz-adv-x="471" 
d="M38 0v725h130v-451l127 176h154l-157 -217l172 -233h-155l-141 192v-192h-130z" />
    <glyph glyph-name="l" unicode="l" horiz-adv-x="205" 
d="M168 0h-130v725h130v-725z" />
    <glyph glyph-name="m" unicode="m" horiz-adv-x="768" 
d="M168 0h-130v450h130v-41q43 52 117 52q88 0 136 -69q43 69 136 69q73 0 123 -48t50 -119v-294h-130v260q0 35 -21.5 58t-53.5 23t-54 -23.5t-22 -57.5v-260h-130v260q0 35 -21.5 58t-53.5 23t-54 -23.5t-22 -57.5v-260z" />
    <glyph glyph-name="n" unicode="n" horiz-adv-x="501" 
d="M38 0v450h130v-45q46 57 123 57q72 0 122 -50t50 -123v-289h-130v255q0 37 -23.5 61.5t-58.5 24.5t-59 -24.5t-24 -61.5v-255h-130z" />
    <glyph glyph-name="o" unicode="o" horiz-adv-x="529" 
d="M92 56q-68 68 -68 169t68 169q70 68 172 68t172 -68q69 -68 69 -169t-69 -169q-68 -67 -172 -67t-172 67zM264 117q45 0 75.5 31t30.5 77t-30.5 77.5t-75.5 31.5q-44 0 -74.5 -31.5t-30.5 -77.5t30.5 -77t74.5 -31z" />
    <glyph glyph-name="p" unicode="p" horiz-adv-x="528" 
d="M167 -225h-129v675h129v-30q54 42 124 42q90 0 152 -68t62 -169t-62 -169q-61 -67 -152 -67q-70 0 -124 42v-256zM269 334q-41 0 -71 -32q-29 -32 -29 -78q0 -45 29.5 -76t70.5 -31q42 0 71 31t29 76q0 46 -29 78t-71 32z" />
    <glyph glyph-name="q" unicode="q" horiz-adv-x="528" 
d="M237 462q70 0 124 -42v30h129v-675h-129v256q-54 -42 -124 -42q-91 0 -152 67t-61 169t61 169q62 68 152 68zM159 224q0 -45 29 -76t71 -31t71 31t29 76q0 46 -29 78t-71 32t-71 -32t-29 -78z" />
    <glyph glyph-name="r" unicode="r" horiz-adv-x="317" 
d="M168 450v-47q44 59 123 59q12 0 15 -1v-138q-20 12 -47 12q-39 0 -65 -26t-26 -66v-243h-130v450h130z" />
    <glyph glyph-name="s" unicode="s" horiz-adv-x="418" 
d="M391 339l-119 -20q-12 38 -67 38q-52 0 -52 -29q0 -18 36 -30l80 -26q69 -22 99 -54.5t30 -83.5q0 -70 -50 -107.5t-136 -37.5q-84 0 -134 35t-59 99l119 17q10 -45 77 -45q26 0 42.5 9t16.5 24q0 22 -45 35l-82 24q-63 18 -91 48.5t-28 81.5q0 72 49 108.5t133 36.5
q78 0 125.5 -32.5t55.5 -90.5z" />
    <glyph glyph-name="t" unicode="t" horiz-adv-x="325" 
d="M8 337v113h62v87h129v-87h105v-113h-105v-168q0 -20 14 -33.5t35 -13.5h56v-122h-77q-65 0 -112 41q-45 41 -45 102v194h-62z" />
    <glyph glyph-name="u" unicode="u" horiz-adv-x="501" 
d="M38 161v289h130v-254q0 -37 23.5 -62t58.5 -25t59 25t24 62v254h130v-450h-130v46q-47 -57 -123 -57q-74 0 -123 49t-49 123z" />
    <glyph glyph-name="v" unicode="v" horiz-adv-x="497" 
d="M186 0l-180 450h134l109 -289l108 289h134l-180 -450h-125z" />
    <glyph glyph-name="w" unicode="w" horiz-adv-x="674" 
d="M267 0h-119l-142 450h131l70 -251l71 251h119l71 -249l69 249h131l-142 -450h-119l-69 236z" />
    <glyph glyph-name="x" unicode="x" horiz-adv-x="496" 
d="M338 0l-90 131l-90 -131h-152l164 232l-154 218h152l80 -117l80 117h152l-154 -218l164 -232h-152z" />
    <glyph glyph-name="y" unicode="y" horiz-adv-x="480" 
d="M167 -22l9 25l-170 447h134l98 -277l102 277h134l-199 -515q-32 -83 -85 -121.5t-135 -38.5h-14v124h15q83 0 111 79z" />
    <glyph glyph-name="z" unicode="z" horiz-adv-x="428" 
d="M27 0v90l191 242h-187v118h365v-89l-190 -243h195v-118h-374z" />
    <glyph glyph-name="braceleft" unicode="{" horiz-adv-x="352" 
d="M278 775h64v-113h-57q-28 0 -46 -16.5t-18 -42.5v-156q0 -59 -24.5 -97t-69.5 -50q45 -12 69.5 -50t24.5 -97v-156q0 -26 18 -42.5t46 -16.5h57v-113h-64q-77 0 -129 52q-51 53 -51 129v155q0 24 -20.5 44.5t-45.5 30.5l-22 8v112l24 8q15 6 39 27q25 22 25 48v155
q0 76 51 129q52 52 129 52z" />
    <glyph glyph-name="bar" unicode="|" horiz-adv-x="190" 
d="M146 -175h-102v950h102v-950z" />
    <glyph glyph-name="braceright" unicode="}" horiz-adv-x="352" 
d="M10 662v113h64q77 0 128 -52q52 -52 52 -129v-155q0 -24 20.5 -44.5t45.5 -30.5l22 -8v-112l-25 -9q-13 -5 -39 -27q-24 -21 -24 -47v-155q0 -77 -52 -129q-51 -52 -128 -52h-64v113h57q28 0 46.5 17t18.5 42v156q0 58 25 96.5t68 50.5q-43 12 -68 50.5t-25 96.5v156
q0 25 -18.5 42t-46.5 17h-57z" />
    <glyph glyph-name="asciitilde" unicode="~" 
d="M378 249q-46 0 -93 28q-47 29 -63 29q-19 0 -32.5 -14.5t-13.5 -35.5h-116q0 73 47 123q48 50 115 50q45 -1 93 -30q47 -28 64 -28q19 0 32 14.5t13 35.5h116q0 -73 -47 -123q-46 -49 -115 -49z" />
    <glyph glyph-name="exclamdown" unicode="&#xa1;" horiz-adv-x="223" 
d="M58 333q-21 22 -21 54t21 53q21 22 53 22t53 -22q22 -21 22 -53t-22 -54q-21 -21 -53 -21t-53 21zM39 -203l17 441h111l17 -441h-145z" />
    <glyph glyph-name="cent" unicode="&#xa2;" horiz-adv-x="506" 
d="M218 -3v108q-85 15 -140 79q-54 64 -54 154q0 88 54 153q55 64 140 79v108h93v-108q63 -12 111 -52t70 -99l-131 -38q-11 30 -37.5 47.5t-59.5 17.5q-44 0 -74.5 -31t-30.5 -76q0 -47 30.5 -78.5t74.5 -31.5q33 0 59.5 18t37.5 48l131 -39q-22 -59 -70 -99t-111 -52v-108
h-93z" />
    <glyph glyph-name="sterling" unicode="&#xa3;" horiz-adv-x="591" 
d="M537 0h-509v132h75v143h-58v89h58v104q0 94 65 156q66 63 161 63q83 0 150 -49q68 -48 90 -121l-137 -38q-10 33 -39 55.5t-63 22.5q-37 0 -64 -26t-27 -62v-105h185v-89h-185v-143h298v-132z" />
    <glyph glyph-name="currency" unicode="&#xa4;" horiz-adv-x="539" 
d="M116 114l-72 71l68 67q-22 39 -22 86t22 86l-68 67l72 72l67 -68q37 21 86 21t86 -21l68 68l71 -72l-68 -68q21 -38 21 -85q0 -48 -20 -86l67 -67l-71 -72l-67 68q-88 -46 -173 -1zM269 260q32 0 54.5 22.5t22.5 55.5q0 32 -22 54.5t-55 22.5q-32 0 -54.5 -22t-22.5 -55
t22 -55.5t55 -22.5z" />
    <glyph glyph-name="yen" unicode="&#xa5;" horiz-adv-x="669" 
d="M255 289l-247 386h163l161 -263l166 263h163l-252 -386h115v-90h-120v-40h120v-89h-120v-70h-142v70h-120v89h120v40h-120v90h113z" />
    <glyph glyph-name="brokenbar" unicode="&#xa6;" horiz-adv-x="190" 
d="M146 775v-395h-102v395h102zM44 -175v395h102v-395h-102z" />
    <glyph glyph-name="section" unicode="&#xa7;" horiz-adv-x="459" 
d="M233 -185q-81 0 -140 45q-59 44 -74 115l119 38q7 -38 33 -62t62 -24q35 0 59.5 22t24.5 53q0 43 -43 61l-125 54q-53 21 -82.5 63.5t-29.5 93.5q0 65 46 115q-46 47 -46 118q0 79 55 131t140 52q74 0 128.5 -41t71.5 -108l-117 -39q-8 34 -30 55t-52 21q-31 0 -52 -21.5
t-21 -51.5q0 -20 10.5 -37t25.5 -23l127 -51q55 -22 86.5 -65.5t31.5 -96.5q0 -64 -48 -114q48 -48 48 -117q0 -81 -60 -133q-59 -53 -148 -53zM272 295l-89 36q-8 -3 -16 -21t-8 -36q0 -42 32 -56l98 -41q28 21 28 55q0 44 -45 63z" />
    <glyph glyph-name="dieresis" unicode="&#xa8;" horiz-adv-x="416" 
d="M57 696q-21 21 -21 52t21 51q21 21 52 21t51 -21q21 -20 21 -51t-21 -52q-20 -20 -51 -20t-52 20zM256 696q-20 21 -20 52t20 51q21 21 52 21t51 -21q21 -20 21 -51t-21 -52q-20 -20 -51 -20t-52 20z" />
    <glyph glyph-name="copyright" unicode="&#xa9;" horiz-adv-x="760" 
d="M34 338q0 143 101 244q102 102 245 102q144 0 244 -102q102 -101 102 -244q0 -144 -102 -246q-101 -101 -244 -101q-142 0 -245 101q-101 103 -101 246zM84 338q0 -122 86 -210q87 -87 210 -87q122 0 209 87q88 87 88 210q0 122 -88 209q-87 87 -209 87q-123 0 -210 -87
q-86 -88 -86 -209zM384 530q60 0 107.5 -28.5t71.5 -77.5l-84 -31q-30 55 -95 55q-46 0 -77 -31.5t-31 -78.5t31 -78.5t77 -31.5q66 0 95 54l84 -31q-25 -49 -72.5 -77.5t-106.5 -28.5q-85 0 -141 55q-56 56 -56 138q0 81 56 137q56 55 141 55z" />
    <glyph glyph-name="ordfeminine" unicode="&#xaa;" horiz-adv-x="362" 
d="M155 680q48 0 85 -31v25h100v-315h-100v26q-38 -30 -85 -30q-62 0 -102 46q-41 47 -41 116t41 116t102 47zM117 518q0 -28 17.5 -47t42.5 -19q26 0 43.5 19t17.5 47q0 27 -18 46t-43 19t-42.5 -19t-17.5 -46z" />
    <glyph glyph-name="guillemotleft" unicode="&#xab;" horiz-adv-x="526" 
d="M206 39l-185 186l185 186l76 -76l-110 -110l110 -110zM418 39l-186 186l186 186l75 -76l-109 -110l109 -110z" />
    <glyph glyph-name="logicalnot" unicode="&#xac;" 
d="M427 146v132h-367v120h480v-252h-113z" />
    <glyph glyph-name="uni00AD" unicode="&#xad;" horiz-adv-x="383" 
d="M55 168v114h273v-114h-273z" />
    <glyph glyph-name="registered" unicode="&#xae;" horiz-adv-x="760" 
d="M34 338q0 143 101 244q102 102 245 102q144 0 244 -102q102 -101 102 -244q0 -144 -102 -246q-101 -101 -244 -101q-142 0 -245 101q-101 103 -101 246zM380 41q122 0 209 87t87 210q0 122 -87 209t-209 87q-123 0 -210 -87q-86 -88 -86 -209q0 -122 86 -210
q87 -87 210 -87zM317 151h-86v374h176q60 0 98 -37q39 -36 39 -91q0 -75 -67 -111l79 -135h-96l-69 118h-74v-118zM407 446h-90v-97h90q20 0 34 13.5t14 34.5t-14 35t-34 14z" />
    <glyph glyph-name="overscore" unicode="&#xaf;" horiz-adv-x="347" 
d="M311 704h-275v100h275v-100z" />
    <glyph glyph-name="degree" unicode="&#xb0;" horiz-adv-x="411" 
d="M205 737q77 0 128 -52q52 -52 52 -129t-52 -129q-51 -51 -128 -51q-75 0 -128 51q-51 53 -51 129t51 129q52 52 128 52zM158 603q-19 -19 -19 -47t19 -47t47 -19t47 19t19 47t-19 47t-47 19t-47 -19z" />
    <glyph glyph-name="plusminus" unicode="&#xb1;" 
d="M240 345h-180v120h180v180h120v-180h180v-120h-180v-144h-120v144zM60 38v120h480v-120h-480z" />
    <glyph glyph-name="twosuperior" unicode="&#xb2;" horiz-adv-x="307" 
d="M198 611q0 16 -14 27.5t-34 11.5q-42 0 -63 -49l-77 38q20 42 57 66t83 24q58 0 96 -34q39 -33 39 -81q0 -56 -81 -130l-55 -51h139v-79h-267v60l132 125q45 41 45 72z" />
    <glyph glyph-name="threesuperior" unicode="&#xb3;" horiz-adv-x="313" 
d="M200 613q0 15 -15 26t-38 11q-43 0 -57 -30l-74 25q16 38 53 61t84 23q57 0 95.5 -32.5t38.5 -82.5q0 -44 -41 -67q50 -26 50 -79q0 -52 -40.5 -85.5t-101.5 -33.5q-52 0 -90 25t-51 66l77 27q4 -17 20.5 -28t40.5 -11q25 0 42 12.5t17 30.5q0 17 -16.5 29t-41.5 12h-28
v62h18q24 0 41 11t17 28z" />
    <glyph glyph-name="acute" unicode="&#xb4;" horiz-adv-x="320" 
d="M78 675l-42 71l189 125l59 -104z" />
    <glyph glyph-name="mu" unicode="&#xb5;" horiz-adv-x="501" 
d="M210 -11q-25 0 -52 8v-222h-120v675h130v-254q0 -37 23.5 -62t58.5 -25t59 25t24 62v254h130v-450h-130v46q-47 -57 -123 -57z" />
    <glyph glyph-name="paragraph" unicode="&#xb6;" horiz-adv-x="659" 
d="M235 675h402v-93h-94v-757h-102v757h-105v-757h-101v442q-89 0 -147 58t-58 146q0 87 58 145q59 59 147 59z" />
    <glyph glyph-name="middot" unicode="&#xb7;" horiz-adv-x="203" 
d="M26 338q0 32 21.5 54t53.5 22q33 0 54.5 -22t21.5 -54q0 -33 -21.5 -54.5t-54.5 -21.5q-32 0 -53.5 21.5t-21.5 54.5z" />
    <glyph glyph-name="cedilla" unicode="&#xb8;" horiz-adv-x="303" 
d="M96 -80l19 80h92l-8 -36q3 -1 7.5 -2t16 -7t20.5 -14t16.5 -23.5t7.5 -33.5q0 -43 -35 -71t-87 -28q-57 0 -97 28l-12 9l17 59q26 -23 68 -23q23 0 39.5 8.5t16.5 20.5t-19.5 21t-41.5 10z" />
    <glyph glyph-name="onesuperior" unicode="&#xb9;" horiz-adv-x="242" 
d="M110 629l-61 -29l-31 70l116 55h59v-371h-83v275z" />
    <glyph glyph-name="ordmasculine" unicode="&#xba;" horiz-adv-x="363" 
d="M182 679q71 0 120 -47q49 -46 49 -115q0 -70 -49 -116q-49 -47 -120 -47q-72 0 -122 47q-48 47 -48 116t48 115q50 47 122 47zM182 451q26 0 45 19.5t19 46.5q0 26 -19 45.5t-45 19.5q-28 0 -47 -19t-19 -46t19 -46.5t47 -19.5z" />
    <glyph glyph-name="guillemotright" unicode="&#xbb;" horiz-adv-x="526" 
d="M319 411l186 -186l-186 -186l-75 76l109 110l-109 110zM108 411l186 -186l-186 -186l-76 76l110 110l-110 110z" />
    <glyph glyph-name="onequarter" unicode="&#xbc;" horiz-adv-x="793" 
d="M676 675l-473 -675h-111l474 675h110zM470 67v80l188 225h79v-225h42v-80h-42v-67h-84v67h-183zM110 579l-61 -29l-31 70l116 55h59v-371h-83v275zM653 248l-84 -101h84v101z" />
    <glyph glyph-name="onehalf" unicode="&#xbd;" horiz-adv-x="821" 
d="M203 0h-111l474 675h110zM601 247l-77 38q20 42 57.5 66.5t82.5 24.5q57 0 95 -34q40 -34 40 -81q0 -58 -81 -130l-56 -52h140v-79h-267v61l132 124q45 43 45 73q0 16 -14 27t-34 11q-42 0 -63 -49zM49 550l-31 70l116 55h59v-371h-83v275z" />
    <glyph glyph-name="threequarters" unicode="&#xbe;" horiz-adv-x="854" 
d="M263 0h-111l474 675h110zM531 67v80l188 225h79v-225h43v-80h-43v-67h-84v67h-183zM154 299q-52 0 -90 25t-51 66l77 27q4 -17 20.5 -28t40.5 -11q25 0 42 12.5t17 30.5q0 17 -16.5 29t-41.5 12h-28v62h18q24 0 41 11t17 28q0 15 -15 26t-38 11q-43 0 -57 -30l-74 25
q16 38 53 61t84 23q57 0 95.5 -32.5t38.5 -82.5q0 -44 -41 -67q21 -11 32 -26q18 -23 18 -53q0 -52 -40.5 -85.5t-101.5 -33.5zM714 248l-84 -101h84v101z" />
    <glyph glyph-name="questiondown" unicode="&#xbf;" horiz-adv-x="543" 
d="M173 -10q0 -32 31 -55t76 -23q40 0 69.5 21.5t39.5 57.5l137 -38q-22 -76 -88 -122q-67 -47 -155 -47q-105 0 -176 59q-70 58 -70 147q0 40 17 75.5t42 55.5q48 39 92 52l17 5l7 58h117l15 -130q-17 -2 -60 -18q-35 -13 -52 -22q-59 -33 -59 -76zM271 308q-33 0 -55 22
t-22 55t22 55t55 22q32 0 54 -22t22 -55t-22 -55t-54 -22z" />
    <glyph glyph-name="Agrave" unicode="&#xc0;" horiz-adv-x="705" 
d="M157 0h-149l286 675h117l286 -675h-149l-49 119h-293zM402 736l-206 92l59 104l188 -125zM446 248l-93 224l-93 -224h186z" />
    <glyph glyph-name="Aacute" unicode="&#xc1;" horiz-adv-x="705" 
d="M157 0h-149l286 675h117l286 -675h-149l-49 119h-293zM507 828l-206 -92l-41 71l189 125zM446 248l-93 224l-93 -224h186z" />
    <glyph glyph-name="Acircumflex" unicode="&#xc2;" horiz-adv-x="705" 
d="M157 0h-149l286 675h117l286 -675h-149l-49 119h-293zM234 734l-48 67l162 127h9l161 -127l-48 -67l-118 72zM446 248l-93 224l-93 -224h186z" />
    <glyph glyph-name="Atilde" unicode="&#xc3;" horiz-adv-x="705" 
d="M206 119l-49 -119h-149l286 675h117l286 -675h-149l-49 119h-293zM279 754h-90q0 51 31.5 86.5t77.5 35.5q30 0 59 -21q31 -20 39 -20q12 0 21 10.5t9 25.5h90q0 -52 -31.5 -87.5t-77.5 -35.5q-31 0 -60 20q-28 21 -38 21q-13 0 -21.5 -10t-8.5 -25zM446 248l-93 224
l-93 -224h186z" />
    <glyph glyph-name="Adieresis" unicode="&#xc4;" horiz-adv-x="705" 
d="M206 119l-49 -119h-149l286 675h117l286 -675h-149l-49 119h-293zM446 248l-93 224l-93 -224h186zM201 757q-21 21 -21 52t21 52t52 21t51 -21q21 -21 21 -52t-21 -52q-20 -20 -51 -20t-52 20zM400 757q-20 21 -20 52t20 52q21 21 52 21t51 -21q21 -21 21 -52t-21 -52
q-20 -20 -51 -20t-52 20z" />
    <glyph glyph-name="Aring" unicode="&#xc5;" horiz-adv-x="705" 
d="M206 119l-49 -119h-149l286 675h117l286 -675h-149l-49 119h-293zM353 965q48 0 81 -33.5t33 -81.5t-33 -81t-81 -33q-49 0 -82 33t-33 81t33 81.5t82 33.5zM446 248l-93 224l-93 -224h186zM353 817q14 0 23.5 9.5t9.5 23.5q0 15 -9.5 24.5t-23.5 9.5q-15 0 -24.5 -9.5
t-9.5 -24.5q0 -14 9.5 -23.5t24.5 -9.5z" />
    <glyph glyph-name="AE" unicode="&#xc6;" horiz-adv-x="982" 
d="M238 119l-70 -119h-160l404 675h536v-132h-326v-137h271v-131h-271v-144h331v-131h-474v119h-241zM313 248h166v282z" />
    <glyph glyph-name="Ccedilla" unicode="&#xc7;" horiz-adv-x="734" 
d="M34 337q0 148 101 249q103 101 253 101q105 0 190 -51.5t128 -139.5l-138 -51q-27 49 -74 77t-106 28q-89 0 -147 -61t-58 -151q0 -91 58 -152t147 -61q59 0 106 28t74 77l138 -51q-37 -75 -106.5 -124.5t-156.5 -62.5l-7 -28q3 -1 7.5 -2t16 -7t20.5 -14t16.5 -23.5
t7.5 -33.5q0 -43 -35 -71t-87 -28q-56 0 -96 28l-12 9l17 59q26 -23 67 -23q24 0 40.5 8.5t16.5 20.5t-19.5 21t-41.5 10l-21 2l17 70q-137 14 -227 111q-89 98 -89 236z" />
    <glyph glyph-name="Egrave" unicode="&#xc8;" horiz-adv-x="585" 
d="M50 675h501v-132h-358v-137h304v-131h-304v-144h363v-131h-506v675zM389 807l-42 -71l-206 92l59 104z" />
    <glyph glyph-name="Eacute" unicode="&#xc9;" horiz-adv-x="585" 
d="M50 675h501v-132h-358v-137h304v-131h-304v-144h363v-131h-506v675zM247 736l-42 71l189 125l59 -104z" />
    <glyph glyph-name="Ecircumflex" unicode="&#xca;" horiz-adv-x="585" 
d="M50 675h501v-132h-358v-137h304v-131h-304v-144h363v-131h-506v675zM180 734l-48 67l162 127h8l162 -127l-48 -67l-118 72z" />
    <glyph glyph-name="Edieresis" unicode="&#xcb;" horiz-adv-x="585" 
d="M556 0h-506v675h501v-132h-358v-137h304v-131h-304v-144h363v-131zM449 757q-20 -20 -51 -20t-52 20q-21 21 -21 52t21 52t52 21t51 -21q21 -21 21 -52t-21 -52zM249 757q-20 -20 -51 -20t-52 20q-20 21 -20 52t20 52q21 21 52 21t51 -21q21 -21 21 -52t-21 -52z" />
    <glyph glyph-name="Igrave" unicode="&#xcc;" horiz-adv-x="243" 
d="M193 0h-143v675h143v-675zM171 736l-207 92l59 104l189 -125z" />
    <glyph glyph-name="Iacute" unicode="&#xcd;" horiz-adv-x="243" 
d="M193 0h-143v675h143v-675zM70 736l-41 71l188 125l59 -104z" />
    <glyph glyph-name="Icircumflex" unicode="&#xce;" horiz-adv-x="243" 
d="M193 0h-143v675h143v-675zM121 806l-118 -72l-48 67l162 127h8l162 -127l-48 -67z" />
    <glyph glyph-name="Idieresis" unicode="&#xcf;" horiz-adv-x="243" 
d="M193 0h-143v675h143v-675zM22 882q31 0 51.5 -21t20.5 -52t-20.5 -51.5t-51.5 -20.5t-52 20.5t-21 51.5t20.5 52t52.5 21zM169 757q-20 21 -20 52t20 52q21 21 52 21t51 -21q21 -21 21 -52t-21 -52q-20 -20 -51 -20t-52 20z" />
    <glyph glyph-name="Eth" unicode="&#xd0;" horiz-adv-x="736" 
d="M8 279v117h65v279h276q151 0 252 -98q102 -98 102 -239q0 -144 -102 -241q-100 -97 -252 -97h-276v279h-65zM219 540v-144h166v-117h-166v-144h130q86 0 143 58q58 58 58 145q0 85 -58 143q-57 59 -143 59h-130z" />
    <glyph glyph-name="Ntilde" unicode="&#xd1;" horiz-adv-x="700" 
d="M187 0h-137v675h127l336 -430v430h137v-675h-126l-337 430v-430zM277 754h-91q0 51 32 86q32 36 78 36q30 0 59 -21q31 -20 39 -20q12 0 20.5 10.5t8.5 25.5h91q0 -52 -31.5 -87.5t-77.5 -35.5q-31 0 -60 20q-29 21 -39 21q-12 0 -20.5 -10t-8.5 -25z" />
    <glyph glyph-name="Ograve" unicode="&#xd2;" horiz-adv-x="775" 
d="M135 88q-101 101 -101 249t101 249q103 101 253 101q151 0 252 -101t101 -249t-101 -249q-100 -100 -252 -100t-253 100zM183 338q0 -91 58 -152t147 -61q88 0 146 61q59 62 59 152q0 89 -59 151q-58 61 -146 61q-89 0 -147 -61t-58 -151zM437 736l-206 92l59 104
l189 -125z" />
    <glyph glyph-name="Oacute" unicode="&#xd3;" horiz-adv-x="775" 
d="M135 88q-101 101 -101 249t101 249q103 101 253 101q151 0 252 -101t101 -249t-101 -249q-100 -100 -252 -100t-253 100zM183 338q0 -91 58 -152t147 -61q88 0 146 61q59 62 59 152q0 89 -59 151q-58 61 -146 61q-89 0 -147 -61t-58 -151zM337 736l-42 71l189 125
l59 -104z" />
    <glyph glyph-name="Ocircumflex" unicode="&#xd4;" horiz-adv-x="775" 
d="M135 88q-101 101 -101 249t101 249q103 101 253 101q151 0 252 -101t101 -249t-101 -249q-100 -100 -252 -100t-253 100zM183 338q0 -91 58 -152t147 -61q88 0 146 61q59 62 59 152q0 89 -59 151q-58 61 -146 61q-89 0 -147 -61t-58 -151zM388 806l-118 -72l-48 67
l162 127h8l162 -127l-48 -67z" />
    <glyph glyph-name="Otilde" unicode="&#xd5;" horiz-adv-x="775" 
d="M135 88q-101 101 -101 249t101 249q103 101 253 101q151 0 252 -101t101 -249t-101 -249q-100 -100 -252 -100t-253 100zM183 338q0 -91 58 -152t147 -61q88 0 146 61q59 62 59 152q0 89 -59 151q-58 61 -146 61q-89 0 -147 -61t-58 -151zM314 754h-90q0 51 31 86
q31 36 78 36q31 0 59 -21q31 -20 40 -20q11 0 20 10.5t9 25.5h90q0 -52 -31.5 -87.5t-77.5 -35.5q-29 0 -60 20q-29 21 -38 21q-12 0 -21 -10t-9 -25z" />
    <glyph glyph-name="Odieresis" unicode="&#xd6;" horiz-adv-x="775" 
d="M135 88q-101 101 -101 249t101 249q103 101 253 101q151 0 252 -101t101 -249t-101 -249q-100 -100 -252 -100t-253 100zM183 338q0 -91 58 -152t147 -61q88 0 146 61q59 62 59 152q0 89 -59 151q-58 61 -146 61q-89 0 -147 -61t-58 -151zM236 757q-20 21 -20 52t20 52
q21 21 52 21t51 -21q21 -21 21 -52t-21 -52q-20 -20 -51 -20t-52 20zM435 757q-20 21 -20 52t20 52q21 21 52 21t52 -21t21 -52t-21 -52q-21 -20 -52 -20t-52 20z" />
    <glyph glyph-name="multiply" unicode="&#xd7;" 
d="M215 338l-149 148l85 84l149 -148l149 149l85 -85l-149 -148l149 -149l-85 -84l-149 148l-149 -148l-85 84z" />
    <glyph glyph-name="Oslash" unicode="&#xd8;" horiz-adv-x="775" 
d="M127 32l27 39q-120 103 -120 267q0 148 101 249q101 100 253 100q94 0 168 -40l28 40l65 -45l-27 -39q119 -102 119 -265q0 -149 -101 -250q-100 -100 -252 -100q-92 0 -168 39l-28 -40zM539 484l-238 -341q39 -18 87 -18q88 0 146 61q59 62 59 152q0 88 -54 146z
M237 190l238 341q-37 19 -87 19q-89 0 -147 -61t-58 -151q0 -88 54 -148z" />
    <glyph glyph-name="Ugrave" unicode="&#xd9;" horiz-adv-x="681" 
d="M495 273v402h143v-402q0 -120 -86 -203q-85 -82 -212 -82t-212 82t-85 203v402h143v-402q0 -66 44 -110t110 -44q67 0 111 44t44 110zM390 736l-206 92l59 104l189 -125z" />
    <glyph glyph-name="Uacute" unicode="&#xda;" horiz-adv-x="681" 
d="M495 273v402h143v-402q0 -120 -86 -203q-85 -82 -212 -82t-212 82t-85 203v402h143v-402q0 -66 44 -110t110 -44q67 0 111 44t44 110zM290 736l-42 71l189 125l59 -104z" />
    <glyph glyph-name="Ucircumflex" unicode="&#xdb;" horiz-adv-x="681" 
d="M495 273v402h143v-402q0 -120 -86 -203q-85 -82 -212 -82t-212 82t-85 203v402h143v-402q0 -66 44 -110t110 -44q67 0 111 44t44 110zM341 806l-119 -72l-48 67l162 127h9l162 -127l-48 -67z" />
    <glyph glyph-name="Udieresis" unicode="&#xdc;" horiz-adv-x="681" 
d="M495 273v402h143v-402q0 -120 -86 -203q-85 -82 -212 -82t-212 82t-85 203v402h143v-402q0 -66 44 -110t110 -44q67 0 111 44t44 110zM189 757q-20 21 -20 52t20 52q21 21 52 21t51 -21q21 -21 21 -52t-21 -52q-20 -20 -51 -20t-52 20zM388 757q-20 21 -20 52t20 52
q21 21 52 21t52 -21t21 -52t-21 -52q-21 -20 -52 -20t-52 20z" />
    <glyph glyph-name="Yacute" unicode="&#xdd;" horiz-adv-x="669" 
d="M262 0v277l-254 398h163l161 -265l166 265h163l-257 -394v-281h-142zM490 828l-206 -92l-42 71l189 125z" />
    <glyph glyph-name="Thorn" unicode="&#xde;" horiz-adv-x="625" 
d="M50 0v675h143v-113h162q102 0 170 -65q69 -65 69 -159q0 -96 -68 -161q-67 -64 -171 -64h-162v-113h-143zM355 430h-162v-185h162q39 0 65 26.5t26 66.5q0 39 -26 65.5t-65 26.5z" />
    <glyph glyph-name="germandbls" unicode="&#xdf;" horiz-adv-x="548" 
d="M249 610q-34 0 -57.5 -23t-23.5 -57v-530h-130v545q0 82 59 136q59 55 151 55q84 0 143 -48q58 -48 58 -119q1 -33 -17.5 -64.5t-37 -55t-17.5 -37.5q0 -27 52 -70q97 -69 96 -178q0 -89 -63 -131t-198 -42v128q72 0 100 12t28 41q0 23 -15 42.5t-37 36t-44 35t-37 48
t-15 66.5q0 32 11 59t25 42t25 31t11 29q0 20 -19.5 34.5t-47.5 14.5z" />
    <glyph glyph-name="agrave" unicode="&#xe0;" horiz-adv-x="528" 
d="M237 -11q-91 0 -152 67t-61 169t61 169q62 68 152 68q70 0 124 -42v30h129v-450h-129v31q-54 -42 -124 -42zM159 226q0 -46 29 -77.5t71 -31.5t71 31.5t29 77.5q0 45 -29 76.5t-71 31.5t-71 -31.5t-29 -76.5zM359 599l-41 -71l-207 92l59 104z" />
    <glyph glyph-name="aacute" unicode="&#xe1;" horiz-adv-x="528" 
d="M237 -11q-91 0 -152 67t-61 169t61 169q62 68 152 68q70 0 124 -42v30h129v-450h-129v31q-54 -42 -124 -42zM159 226q0 -46 29 -77.5t71 -31.5t71 31.5t29 77.5q0 45 -29 76.5t-71 31.5t-71 -31.5t-29 -76.5zM423 620l-206 -92l-42 71l189 125z" />
    <glyph glyph-name="acircumflex" unicode="&#xe2;" horiz-adv-x="528" 
d="M237 -11q-91 0 -152 67t-61 169t61 169q62 68 152 68q70 0 124 -42v30h129v-450h-129v31q-54 -42 -124 -42zM159 226q0 -46 29 -77.5t71 -31.5t71 31.5t29 77.5q0 45 -29 76.5t-71 31.5t-71 -31.5t-29 -76.5zM150 526l-48 67l162 126h8l162 -126l-48 -67l-118 72z" />
    <glyph glyph-name="atilde" unicode="&#xe3;" horiz-adv-x="528" 
d="M237 -11q-91 0 -152 67t-61 169t61 169q62 68 152 68q70 0 124 -42v30h129v-450h-129v31q-54 -42 -124 -42zM159 226q0 -46 29 -77.5t71 -31.5t71 31.5t29 77.5q0 45 -29 76.5t-71 31.5t-71 -31.5t-29 -76.5zM194 545h-90q0 50 32 87q32 36 78 36q30 0 59 -21
q31 -20 39 -20q12 0 20.5 10.5t8.5 25.5h90q0 -52 -31 -87.5t-77 -35.5q-31 0 -60 20q-29 21 -39 21q-12 0 -21 -10.5t-9 -25.5z" />
    <glyph glyph-name="adieresis" unicode="&#xe4;" horiz-adv-x="528" 
d="M237 462q70 0 124 -42v30h129v-450h-129v31q-54 -42 -124 -42q-91 0 -152 67t-61 169t61 169q62 68 152 68zM159 226q0 -46 29 -77.5t71 -31.5t71 31.5t29 77.5q0 45 -29 76.5t-71 31.5t-71 -31.5t-29 -76.5zM169 529q-32 0 -52.5 20.5t-20.5 51.5t21 51.5t52 20.5
t51.5 -20.5t20.5 -51.5t-20.5 -51.5t-51.5 -20.5zM316 549q-20 21 -20 52t20 51q21 21 52 21t51 -21q21 -20 21 -51t-21 -52q-20 -20 -51 -20t-52 20z" />
    <glyph glyph-name="aring" unicode="&#xe5;" horiz-adv-x="528" 
d="M237 462q70 0 124 -42v30h129v-450h-129v31q-54 -42 -124 -42q-91 0 -152 67t-61 169t61 169q62 68 152 68zM154 642q0 48 33 81.5t81 33.5t81.5 -33.5t33.5 -81.5q0 -49 -33.5 -82t-81.5 -33t-81 33t-33 82zM159 226q0 -46 29 -77.5t71 -31.5t71 31.5t29 77.5
q0 45 -29 76.5t-71 31.5t-71 -31.5t-29 -76.5zM244 665q-14 -13 -7.5 -31.5t23 -23.5t32.5 8q15 15 8.5 33t-23.5 22.5t-33 -8.5z" />
    <glyph glyph-name="ae" unicode="&#xe6;" horiz-adv-x="857" 
d="M236 -11q-91 0 -152 67q-60 68 -60 169t60 169q62 68 152 68q70 0 125 -43v31h129v-30q56 42 128 42q93 0 156 -69q64 -67 64 -168q0 -19 -5 -47h-335q11 -36 41 -57.5t69 -21.5q54 0 89 41l125 -29q-27 -57 -80 -89.5t-119 -32.5q-75 0 -133 43v-32h-129v32
q-55 -43 -125 -43zM159 226q0 -46 29 -77.5t71 -31.5t71 31.5t29 77.5q0 45 -29 76.5t-71 31.5t-71 -31.5t-29 -76.5zM499 275h206q-11 34 -40 55t-65 21q-34 0 -62 -21t-39 -55z" />
    <glyph glyph-name="ccedilla" unicode="&#xe7;" horiz-adv-x="506" 
d="M204 -80l17 72q-86 13 -142 78q-55 64 -55 155q0 101 68 169q70 68 172 68q78 0 140 -42.5t88 -112.5l-131 -39q-11 30 -37.5 48t-59.5 18q-44 0 -74.5 -31.5t-30.5 -76.5q0 -46 30.5 -77.5t74.5 -31.5q33 0 59.5 17.5t37.5 47.5l131 -38q-22 -59 -69 -98.5t-110 -51.5
l-7 -30q3 -1 7.5 -2t16.5 -7t21 -14t16.5 -23.5t7.5 -33.5q0 -43 -35 -71t-87 -28q-57 0 -97 28l-12 9l17 59q26 -23 68 -23q24 0 40 8t16 21q0 12 -19.5 21t-41.5 10z" />
    <glyph glyph-name="egrave" unicode="&#xe8;" horiz-adv-x="519" 
d="M496 178h-335q11 -36 41 -57.5t69 -21.5q54 0 89 41l125 -29q-30 -57 -87.5 -89.5t-128.5 -32.5q-105 0 -175 67t-70 169q0 101 68 169q70 68 170 68q101 0 169 -68q69 -68 69 -169q0 -30 -4 -47zM161 275h207q-11 34 -40 55t-65 21q-34 0 -62.5 -21t-39.5 -55zM314 528
l-206 92l58 104l189 -125z" />
    <glyph glyph-name="eacute" unicode="&#xe9;" horiz-adv-x="519" 
d="M496 178h-335q11 -36 41 -57.5t69 -21.5q54 0 89 41l125 -29q-30 -57 -87.5 -89.5t-128.5 -32.5q-105 0 -175 67t-70 169q0 101 68 169q70 68 170 68q101 0 169 -68q69 -68 69 -169q0 -30 -4 -47zM161 275h207q-11 34 -40 55t-65 21q-34 0 -62.5 -21t-39.5 -55zM213 528
l-41 71l188 125l59 -104z" />
    <glyph glyph-name="ecircumflex" unicode="&#xea;" horiz-adv-x="519" 
d="M496 178h-335q11 -36 41 -57.5t69 -21.5q54 0 89 41l125 -29q-30 -57 -87.5 -89.5t-128.5 -32.5q-105 0 -175 67t-70 169q0 101 68 169q70 68 170 68q101 0 169 -68q69 -68 69 -169q0 -30 -4 -47zM161 275h207q-11 34 -40 55t-65 21q-34 0 -62.5 -21t-39.5 -55zM264 598
l-118 -72l-48 67l162 126h8l162 -126l-48 -67z" />
    <glyph glyph-name="edieresis" unicode="&#xeb;" horiz-adv-x="519" 
d="M496 178h-335q11 -36 41 -57.5t69 -21.5q54 0 89 41l125 -29q-30 -57 -87.5 -89.5t-128.5 -32.5q-105 0 -175 67t-70 169q0 101 68 169q70 68 170 68q101 0 169 -68q69 -68 69 -169q0 -30 -4 -47zM161 275h207q-11 34 -40 55t-65 21q-34 0 -62.5 -21t-39.5 -55zM165 529
q-32 0 -52.5 20.5t-20.5 51.5t21 51.5t52 20.5t51.5 -20.5t20.5 -51.5t-20.5 -51.5t-51.5 -20.5zM312 549q-20 21 -20 52t20 51q21 21 52 21t51 -21q21 -20 21 -51t-21 -52q-20 -20 -51 -20t-52 20z" />
    <glyph glyph-name="igrave" unicode="&#xec;" horiz-adv-x="205" 
d="M168 0h-130v450h130v-450zM-41 620l59 104l189 -125l-42 -71z" />
    <glyph glyph-name="iacute" unicode="&#xed;" horiz-adv-x="205" 
d="M168 0h-130v450h130v-450zM-3 599l188 125l60 -104l-207 -92z" />
    <glyph glyph-name="icircumflex" unicode="&#xee;" horiz-adv-x="209" 
d="M169 0h-129v450h129v-450zM0 529l-52 64l152 126h9l152 -126l-52 -64l-104 69z" />
    <glyph glyph-name="idieresis" unicode="&#xef;" horiz-adv-x="213" 
d="M171 0h-129v450h129v-450zM-26 550q-20 21 -20 51t20 50q20 21 49 21t48 -21q20 -20 20 -50t-20 -51q-19 -20 -48 -20t-49 20zM141 550q-20 21 -20 51t20 50q20 21 49 21t48 -21q20 -20 20 -50t-20 -51q-19 -20 -48 -20t-49 20z" />
    <glyph glyph-name="eth" unicode="&#xf0;" horiz-adv-x="529" 
d="M264 462q47 0 91 -16q-29 86 -99 119l-47 -74l-67 43l34 53q-33 5 -79 5v115q81 0 146 -15l41 64l67 -42l-31 -49q95 -47 140 -153.5t45 -286.5q0 -101 -69 -169q-68 -67 -172 -67t-172 67q-68 68 -68 169t68 169q70 68 172 68zM264 117q45 0 75.5 31t30.5 77t-30.5 77.5
t-75.5 31.5q-44 0 -74.5 -31.5t-30.5 -77.5t30.5 -77t74.5 -31z" />
    <glyph glyph-name="ntilde" unicode="&#xf1;" horiz-adv-x="501" 
d="M38 0v450h130v-45q46 57 123 57q72 0 122 -50t50 -123v-289h-130v255q0 37 -23.5 61.5t-58.5 24.5t-59 -24.5t-24 -61.5v-255h-130zM180 545h-90q0 52 31 87q31 36 78 36q31 0 59 -21q31 -20 39 -20q12 0 21 10.5t9 25.5h90q0 -52 -31.5 -87.5t-77.5 -35.5q-29 0 -60 20
q-29 21 -38 21q-13 0 -21.5 -10t-8.5 -26z" />
    <glyph glyph-name="ograve" unicode="&#xf2;" horiz-adv-x="529" 
d="M92 56q-68 68 -68 169t68 169q70 68 172 68t172 -68q69 -68 69 -169t-69 -169q-68 -67 -172 -67t-172 67zM264 117q45 0 75.5 31t30.5 77t-30.5 77.5t-75.5 31.5q-44 0 -74.5 -31.5t-30.5 -77.5t30.5 -77t74.5 -31zM314 528l-206 92l58 104l189 -125z" />
    <glyph glyph-name="oacute" unicode="&#xf3;" horiz-adv-x="529" 
d="M92 56q-68 68 -68 169t68 169q70 68 172 68t172 -68q69 -68 69 -169t-69 -169q-68 -67 -172 -67t-172 67zM264 117q45 0 75.5 31t30.5 77t-30.5 77.5t-75.5 31.5q-44 0 -74.5 -31.5t-30.5 -77.5t30.5 -77t74.5 -31zM213 528l-41 71l189 125l58 -104z" />
    <glyph glyph-name="ocircumflex" unicode="&#xf4;" horiz-adv-x="529" 
d="M92 56q-68 68 -68 169t68 169q70 68 172 68t172 -68q69 -68 69 -169t-69 -169q-68 -67 -172 -67t-172 67zM264 117q45 0 75.5 31t30.5 77t-30.5 77.5t-75.5 31.5q-44 0 -74.5 -31.5t-30.5 -77.5t30.5 -77t74.5 -31zM264 598l-118 -72l-48 67l162 126h8l162 -126l-48 -67z
" />
    <glyph glyph-name="otilde" unicode="&#xf5;" horiz-adv-x="529" 
d="M92 56q-68 68 -68 169t68 169q70 68 172 68t172 -68q69 -68 69 -169t-69 -169q-68 -67 -172 -67t-172 67zM264 117q45 0 75.5 31t30.5 77t-30.5 77.5t-75.5 31.5q-44 0 -74.5 -31.5t-30.5 -77.5t30.5 -77t74.5 -31zM191 545h-91q0 50 32 87q32 36 78 36q30 0 59 -21
q31 -20 39 -20q12 0 20.5 10t8.5 26h91q0 -52 -31.5 -87.5t-77.5 -35.5q-31 0 -60 20q-29 21 -39 21q-12 0 -20.5 -10t-8.5 -26z" />
    <glyph glyph-name="odieresis" unicode="&#xf6;" horiz-adv-x="529" 
d="M92 56q-68 68 -68 169t68 169q70 68 172 68t172 -68q69 -68 69 -169t-69 -169q-68 -67 -172 -67t-172 67zM264 117q45 0 75.5 31t30.5 77t-30.5 77.5t-75.5 31.5q-44 0 -74.5 -31.5t-30.5 -77.5t30.5 -77t74.5 -31zM165 529q-32 0 -52.5 20.5t-20.5 51.5t21 51.5t52 20.5
t51.5 -20.5t20.5 -51.5t-20.5 -51.5t-51.5 -20.5zM312 549q-20 21 -20 52t20 51q21 21 52 21t51 -21q21 -20 21 -51t-21 -52q-20 -20 -51 -20t-52 20z" />
    <glyph glyph-name="divide" unicode="&#xf7;" 
d="M60 278v120h480v-120h-480zM302 220q34 0 56 -22.5t22 -55.5t-22 -55.5t-56 -22.5q-33 0 -55.5 22.5t-22.5 55.5t22.5 55.5t55.5 22.5zM224 533q0 34 22.5 56t55.5 22q34 0 56 -22t22 -56q0 -33 -22 -55.5t-56 -22.5q-33 0 -55.5 22.5t-22.5 55.5z" />
    <glyph glyph-name="oslash" unicode="&#xf8;" horiz-adv-x="529" 
d="M264 462q54 0 106 -23l16 23l58 -41l-15 -22q76 -67 76 -174q0 -101 -69 -169q-68 -67 -172 -67q-55 0 -106 23l-16 -23l-58 40l15 22q-75 69 -75 174q0 101 68 169q70 68 172 68zM351 287l-116 -166q11 -4 29 -4q45 0 75.5 31t30.5 77q0 36 -19 62zM177 163l117 166
q-18 5 -30 5q-44 0 -74.5 -31.5t-30.5 -77.5q0 -33 18 -62z" />
    <glyph glyph-name="ugrave" unicode="&#xf9;" horiz-adv-x="501" 
d="M210 -11q-74 0 -123 49t-49 123v289h130v-254q0 -37 23.5 -62t58.5 -25t59 25t24 62v254h130v-450h-130v46q-47 -57 -123 -57zM342 599l-42 -71l-206 92l59 104z" />
    <glyph glyph-name="uacute" unicode="&#xfa;" horiz-adv-x="501" 
d="M210 -11q-74 0 -123 49t-49 123v289h130v-254q0 -37 23.5 -62t58.5 -25t59 25t24 62v254h130v-450h-130v46q-47 -57 -123 -57zM406 620l-206 -92l-42 71l189 125z" />
    <glyph glyph-name="ucircumflex" unicode="&#xfb;" horiz-adv-x="501" 
d="M38 161v289h130v-254q0 -37 23.5 -62t58.5 -25t59 25t24 62v254h130v-450h-130v46q-47 -57 -123 -57q-74 0 -123 49t-49 123zM251 598l-119 -72l-48 67l162 126h9l162 -126l-48 -67z" />
    <glyph glyph-name="udieresis" unicode="&#xfc;" horiz-adv-x="501" 
d="M38 161v289h130v-254q0 -37 23.5 -62t58.5 -25t59 25t24 62v254h130v-450h-130v46q-47 -57 -123 -57q-74 0 -123 49t-49 123zM402 549q-21 -20 -52 -20t-52 20q-20 21 -20 52t20 51q21 21 52 21t52 -21q21 -20 21 -51t-21 -52zM99 549q-20 21 -20 52t20 51q21 21 52 21
t51 -21q21 -20 21 -51t-21 -52q-20 -20 -51 -20t-52 20z" />
    <glyph glyph-name="yacute" unicode="&#xfd;" horiz-adv-x="480" 
d="M176 3l-170 447h134l98 -277l102 277h134l-199 -515q-32 -83 -85 -121.5t-135 -38.5h-14v124h15q83 0 111 79zM189 528l-42 71l189 125l59 -104z" />
    <glyph glyph-name="thorn" unicode="&#xfe;" horiz-adv-x="529" 
d="M168 -225h-130v941h130v-296q54 42 124 42q90 0 152 -68q61 -67 61 -169t-61 -169t-152 -67q-68 0 -124 41v-255zM270 334q-42 0 -71 -32t-29 -78q0 -45 29 -76t71 -31q41 0 70 31t29 76q0 46 -29 78t-70 32z" />
    <glyph glyph-name="ydieresis" unicode="&#xff;" horiz-adv-x="480" 
d="M176 3l-170 447h134l98 -277l102 277h134l-199 -515q-32 -83 -85 -121.5t-135 -38.5h-14v124h15q83 0 111 79zM141 529q-32 0 -52.5 20.5t-20.5 51.5t21 51.5t52 20.5t51.5 -20.5t20.5 -51.5t-20.5 -51.5t-51.5 -20.5zM391 549q-20 -20 -51 -20t-52 20q-20 21 -20 52
t20 51q21 21 52 21t51 -21q21 -20 21 -51t-21 -52z" />
    <glyph glyph-name="Amacron" unicode="&#x100;" horiz-adv-x="705" 
d="M157 0h-149l286 675h117l286 -675h-149l-49 119h-293zM215 765v100h275v-100h-275zM446 248l-93 224l-93 -224h186z" />
    <glyph glyph-name="amacron" unicode="&#x101;" horiz-adv-x="528" 
d="M237 462q70 0 124 -42v30h129v-450h-129v31q-54 -42 -124 -42q-91 0 -152 67t-61 169t61 169q62 68 152 68zM159 226q0 -46 29 -77.5t71 -31.5t71 31.5t29 77.5q0 45 -29 76.5t-71 31.5t-71 -31.5t-29 -76.5zM405 656v-99h-274v99h274z" />
    <glyph glyph-name="Abreve" unicode="&#x102;" horiz-adv-x="705" 
d="M206 119l-49 -119h-149l286 675h117l286 -675h-149l-49 119h-293zM201 883h93q0 -26 16.5 -43.5t41.5 -17.5t41 17.5t16 43.5h93q0 -63 -43 -106q-43 -42 -107 -42t-108 42q-43 43 -43 106zM446 248l-93 224l-93 -224h186z" />
    <glyph glyph-name="abreve" unicode="&#x103;" horiz-adv-x="528" 
d="M237 -11q-91 0 -152 67t-61 169t61 169q62 68 152 68q70 0 124 -42v30h129v-450h-129v31q-54 -42 -124 -42zM159 226q0 -46 29 -77.5t71 -31.5t71 31.5t29 77.5q0 45 -29 76.5t-71 31.5t-71 -31.5t-29 -76.5zM117 675h93q0 -26 16.5 -44t41.5 -18t41 18t16 44h93
q0 -62 -44 -106q-44 -42 -107 -42t-107 42q-43 43 -43 106z" />
    <glyph glyph-name="Aogonek" unicode="&#x104;" horiz-adv-x="705" 
d="M157 0h-149l286 675h117l286 -675h-24l-15 -15q-10 -11 -25 -35q-15 -26 -15 -45q0 -35 35 -35q25 0 43 18l5 5l36 -45q-5 -6 -15 -15q-9 -9 -40 -26q-29 -16 -60 -16q-41 0 -68.5 26t-27.5 65q0 26 14 56t30 46l14 16h-36l-49 119h-293zM446 248l-93 224l-93 -224h186z
" />
    <glyph glyph-name="aogonek" unicode="&#x105;" horiz-adv-x="528" 
d="M237 -11q-91 0 -152 67t-61 169t61 169q62 68 152 68q70 0 124 -42v30h129v-450h-18l-15 -15q-10 -11 -25 -35q-15 -26 -15 -45q0 -35 35 -35q26 0 42 18l6 5l36 -45q-4 -6 -15 -15q-9 -9 -40 -26q-29 -16 -59 -16q-41 0 -69 26t-28 65q0 26 13.5 55.5t29.5 46.5l15 16
h-22v31q-54 -42 -124 -42zM159 226q0 -46 29 -77.5t71 -31.5t71 31.5t29 77.5q0 45 -29 76.5t-71 31.5t-71 -31.5t-29 -76.5z" />
    <glyph glyph-name="Cacute" unicode="&#x106;" horiz-adv-x="734" 
d="M388 687q105 0 190 -51.5t128 -139.5l-138 -51q-27 49 -74 77t-106 28q-89 0 -147 -61t-58 -151q0 -91 58 -152t147 -61q59 0 106 28t74 77l138 -51q-43 -88 -128 -139.5t-190 -51.5q-152 0 -253 100q-101 101 -101 249t101 249q103 101 253 101zM335 736l-42 71l189 125
l59 -104z" />
    <glyph glyph-name="cacute" unicode="&#x107;" horiz-adv-x="506" 
d="M492 307l-131 -39q-11 30 -37.5 48t-59.5 18q-44 0 -74.5 -31.5t-30.5 -76.5q0 -46 30.5 -77.5t74.5 -31.5q33 0 59.5 17.5t37.5 47.5l131 -38q-27 -71 -88 -113t-140 -42q-104 0 -172 67q-68 68 -68 169t68 169q70 68 172 68q78 0 140 -42.5t88 -112.5zM213 528l-42 71
l189 125l59 -104z" />
    <glyph glyph-name="Ccircumflex" unicode="&#x108;" horiz-adv-x="734" 
d="M388 687q105 0 190 -51.5t128 -139.5l-138 -51q-27 49 -74 77t-106 28q-89 0 -147 -61t-58 -151q0 -91 58 -152t147 -61q59 0 106 28t74 77l138 -51q-43 -88 -128 -139.5t-190 -51.5q-152 0 -253 100q-101 101 -101 249t101 249q103 101 253 101zM386 806l-118 -72
l-48 67l162 127h8l162 -127l-48 -67z" />
    <glyph glyph-name="ccircumflex" unicode="&#x109;" horiz-adv-x="506" 
d="M492 307l-131 -39q-11 30 -37.5 48t-59.5 18q-44 0 -74.5 -31.5t-30.5 -76.5q0 -46 30.5 -77.5t74.5 -31.5q33 0 59.5 17.5t37.5 47.5l131 -38q-27 -71 -88 -113t-140 -42q-104 0 -172 67q-68 68 -68 169t68 169q70 68 172 68q78 0 140 -42.5t88 -112.5zM264 598
l-118 -72l-48 67l162 126h8l162 -126l-48 -67z" />
    <glyph glyph-name="Cdotaccent" unicode="&#x10a;" horiz-adv-x="734" 
d="M388 687q105 0 190 -51.5t128 -139.5l-138 -51q-27 49 -74 77t-106 28q-89 0 -147 -61t-58 -151q0 -91 58 -152t147 -61q59 0 106 28t74 77l138 -51q-43 -88 -128 -139.5t-190 -51.5q-152 0 -253 100q-101 101 -101 249t101 249q103 101 253 101zM308 815q0 33 22.5 55.5
t55.5 22.5t55.5 -22.5t22.5 -55.5q0 -34 -22.5 -56t-55.5 -22t-55.5 22t-22.5 56z" />
    <glyph glyph-name="cdotaccent" unicode="&#x10b;" horiz-adv-x="506" 
d="M492 307l-131 -39q-11 30 -37.5 48t-59.5 18q-44 0 -74.5 -31.5t-30.5 -76.5q0 -46 30.5 -77.5t74.5 -31.5q33 0 59.5 17.5t37.5 47.5l131 -38q-27 -71 -88 -113t-140 -42q-104 0 -172 67q-68 68 -68 169t68 169q70 68 172 68q78 0 140 -42.5t88 -112.5zM186 606
q0 34 22 56t56 22q33 0 55.5 -22t22.5 -56q0 -33 -22.5 -55t-55.5 -22q-34 0 -56 22t-22 55z" />
    <glyph glyph-name="Ccaron" unicode="&#x10c;" horiz-adv-x="734" 
d="M388 687q105 0 190 -51.5t128 -139.5l-138 -51q-27 49 -74 77t-106 28q-89 0 -147 -61t-58 -151q0 -91 58 -152t147 -61q59 0 106 28t74 77l138 -51q-43 -88 -128 -139.5t-190 -51.5q-152 0 -253 100q-101 101 -101 249t101 249q103 101 253 101zM386 855l118 73l48 -67
l-162 -127h-8l-162 127l48 67z" />
    <glyph glyph-name="ccaron" unicode="&#x10d;" horiz-adv-x="506" 
d="M492 307l-131 -39q-11 30 -37.5 48t-59.5 18q-44 0 -74.5 -31.5t-30.5 -76.5q0 -46 30.5 -77.5t74.5 -31.5q33 0 59.5 17.5t37.5 47.5l131 -38q-27 -71 -88 -113t-140 -42q-104 0 -172 67q-68 68 -68 169t68 169q70 68 172 68q78 0 140 -42.5t88 -112.5zM264 646l118 73
l48 -67l-162 -126h-8l-162 126l48 68z" />
    <glyph glyph-name="Dcaron" unicode="&#x10e;" horiz-adv-x="713" 
d="M326 0h-276v675h276q150 0 251 -98q102 -97 102 -240t-102 -240q-100 -97 -251 -97zM326 543h-133v-412h133q87 0 146 59q59 61 59 147q0 87 -59 146q-58 60 -146 60zM246 734h-9l-161 127l48 67l118 -73l118 73l48 -67z" />
    <glyph glyph-name="dcaron" unicode="&#x10f;" horiz-adv-x="672" 
d="M237 462q71 0 124 -43v306h129v-725h-129v31q-53 -42 -124 -42q-91 0 -152 67t-61 169t61 169q62 68 152 68zM533 677q0 26 17.5 43t43.5 17q30 0 49 -22.5t19 -55.5q0 -73 -89 -126l-1 -1l-32 32q41 34 43 52q-21 3 -35.5 20.5t-14.5 40.5zM159 226q0 -46 29 -77.5
t72 -31.5t72 31.5t29 77.5q0 45 -29 76.5t-72 31.5t-72 -31.5t-29 -76.5z" />
    <glyph glyph-name="Dcroat" unicode="&#x110;" horiz-adv-x="737" 
d="M8 280v115h66v280h275q151 0 252 -98q102 -98 102 -239q0 -144 -102 -241q-100 -97 -252 -97h-275v280h-66zM216 544v-149h169v-115h-169v-149h133q87 0 146 60q60 60 60 147q0 88 -60 146q-59 60 -146 60h-133z" />
    <glyph glyph-name="dslash" unicode="&#x111;" horiz-adv-x="535" 
d="M237 462q70 0 124 -42v113h-137v96h137v96h129v-96h41v-96h-41v-533h-129v31q-54 -42 -124 -42q-91 0 -152 67t-61 169t61 169q62 68 152 68zM159 226q0 -46 29 -77.5t71 -31.5t71 31.5t29 77.5q0 45 -29 76.5t-71 31.5t-71 -31.5t-29 -76.5z" />
    <glyph glyph-name="Emacron" unicode="&#x112;" horiz-adv-x="585" 
d="M50 675h501v-132h-358v-137h304v-131h-304v-144h363v-131h-506v675zM161 765v100h274v-100h-274z" />
    <glyph glyph-name="emacron" unicode="&#x113;" horiz-adv-x="519" 
d="M496 178h-335q11 -36 41 -57.5t69 -21.5q54 0 89 41l125 -29q-30 -57 -87.5 -89.5t-128.5 -32.5q-105 0 -175 67t-70 169q0 101 68 169q70 68 170 68q101 0 169 -68q69 -68 69 -169q0 -30 -4 -47zM161 275h207q-11 34 -40 55t-65 21q-34 0 -62.5 -21t-39.5 -55zM401 557
h-274v99h274v-99z" />
    <glyph glyph-name="Ebreve" unicode="&#x114;" horiz-adv-x="585" 
d="M556 0h-506v675h501v-132h-358v-137h304v-131h-304v-144h363v-131zM147 883h92q0 -26 17 -43.5t42 -17.5t41 17.5t16 43.5h92q0 -63 -43 -106q-44 -42 -107 -42t-107 42q-43 43 -43 106z" />
    <glyph glyph-name="ebreve" unicode="&#x115;" horiz-adv-x="519" 
d="M496 178h-335q11 -36 41 -57.5t69 -21.5q54 0 89 41l125 -29q-30 -57 -87.5 -89.5t-128.5 -32.5q-105 0 -175 67t-70 169q0 101 68 169q70 68 170 68q101 0 169 -68q69 -68 69 -169q0 -30 -4 -47zM161 275h207q-11 34 -40 55t-65 21q-34 0 -62.5 -21t-39.5 -55zM113 675
h93q0 -26 16.5 -44t41.5 -18t41 18t16 44h93q0 -62 -44 -106q-44 -42 -107 -42t-107 42q-43 43 -43 106z" />
    <glyph glyph-name="Edotaccent" unicode="&#x116;" horiz-adv-x="585" 
d="M50 675h501v-132h-358v-137h304v-131h-304v-144h363v-131h-506v675zM220 815q0 33 22 55.5t56 22.5q33 0 55 -22.5t22 -55.5q0 -34 -22 -56t-55 -22q-34 0 -56 22t-22 56z" />
    <glyph glyph-name="edotaccent" unicode="&#x117;" horiz-adv-x="519" 
d="M496 178h-335q11 -36 41 -57.5t69 -21.5q54 0 89 41l125 -29q-30 -57 -87.5 -89.5t-128.5 -32.5q-105 0 -175 67t-70 169q0 101 68 169q70 68 170 68q101 0 169 -68q69 -68 69 -169q0 -30 -4 -47zM161 275h207q-11 34 -40 55t-65 21q-34 0 -62.5 -21t-39.5 -55zM186 606
q0 34 22.5 56t55.5 22t55.5 -22t22.5 -56q0 -33 -22.5 -55t-55.5 -22t-55.5 22t-22.5 55z" />
    <glyph glyph-name="Eogonek" unicode="&#x118;" horiz-adv-x="585" 
d="M437 0h-387v675h501v-132h-358v-137h304v-131h-304v-144h363v-131h-30l-15 -15q-10 -11 -25 -35q-15 -26 -15 -45q0 -35 35 -35q26 0 42 18l6 5l36 -45q-4 -6 -15 -15q-9 -9 -40 -26q-29 -16 -60 -16q-41 0 -68.5 26t-27.5 65q0 26 13.5 55.5t29.5 46.5z" />
    <glyph glyph-name="eogonek" unicode="&#x119;" horiz-adv-x="519" 
d="M24 225q0 101 68 169q70 68 170 68q101 0 169 -68q69 -68 69 -169q0 -30 -4 -47h-335q11 -36 41 -57.5t69 -21.5q54 0 89 41l125 -29q-50 -93 -156 -115q-50 -55 -50 -91q0 -17 9.5 -26t25.5 -9q25 0 43 18l6 5l35 -45q-4 -6 -15 -15q-9 -9 -40 -26q-28 -16 -59 -16
q-41 0 -68.5 26t-27.5 65q0 54 49 109q-93 10 -154 76q-59 65 -59 158zM263 351q-34 0 -62.5 -21t-39.5 -55h207q-11 34 -40 55t-65 21z" />
    <glyph glyph-name="Ecaron" unicode="&#x11a;" horiz-adv-x="585" 
d="M50 675h501v-132h-358v-137h304v-131h-304v-144h363v-131h-506v675zM294 734l-162 127l48 67l118 -73l118 73l48 -67l-162 -127h-8z" />
    <glyph glyph-name="ecaron" unicode="&#x11b;" horiz-adv-x="519" 
d="M496 178h-335q11 -36 41 -57.5t69 -21.5q54 0 89 41l125 -29q-30 -57 -87.5 -89.5t-128.5 -32.5q-105 0 -175 67t-70 169q0 101 68 169q70 68 170 68q101 0 169 -68q69 -68 69 -169q0 -30 -4 -47zM161 275h207q-11 34 -40 55t-65 21q-34 0 -62.5 -21t-39.5 -55zM264 646
l119 73l48 -67l-163 -126h-8l-162 126l48 68z" />
    <glyph glyph-name="Gcircumflex" unicode="&#x11c;" horiz-adv-x="771" 
d="M34 337q0 150 103 250t256 100q105 0 191 -51q87 -52 130 -140l-138 -51q-26 49 -75 77t-108 28q-90 0 -150 -61t-60 -151t57 -152q58 -61 144 -61q65 0 117 35.5t71 94.5h-205v122h367q0 -5 1.5 -18.5t1.5 -17.5q-2 -153 -101 -252q-101 -101 -250 -101q-150 0 -251 100
q-101 101 -101 249zM386 806l-118 -72l-48 67l162 127h8l162 -127l-48 -67z" />
    <glyph glyph-name="gcircumflex" unicode="&#x11d;" horiz-adv-x="528" 
d="M237 -11q-91 0 -152 67t-61 169t61 169q62 68 152 68q70 0 124 -42v30h129v-467q0 -95 -66 -156q-64 -63 -163 -63q-78 0 -140 40q-62 41 -83 102l128 30q11 -22 36.5 -36t55.5 -14q44 0 73.5 27.5t29.5 67.5v50q-54 -42 -124 -42zM159 224q0 -45 29 -76t71 -31t71 31
t29 76q0 46 -29 78t-71 32t-71 -32t-29 -78zM261 598l-119 -72l-48 67l162 126h9l162 -126l-48 -67z" />
    <glyph glyph-name="Gbreve" unicode="&#x11e;" horiz-adv-x="771" 
d="M34 337q0 150 103 250t256 100q105 0 191 -51q87 -52 130 -140l-138 -51q-26 49 -75 77t-108 28q-90 0 -150 -61t-60 -151t57 -152q58 -61 144 -61q65 0 117 35.5t71 94.5h-205v122h367q0 -5 1.5 -18.5t1.5 -17.5q-2 -153 -101 -252q-101 -101 -250 -101q-150 0 -251 100
q-101 101 -101 249zM235 883h93q0 -26 16.5 -43.5t41.5 -17.5t41 17.5t16 43.5h93q0 -62 -44 -106q-44 -42 -107 -42t-107 42q-43 43 -43 106z" />
    <glyph glyph-name="gbreve" unicode="&#x11f;" horiz-adv-x="528" 
d="M237 -11q-91 0 -152 67t-61 169t61 169q62 68 152 68q70 0 124 -42v30h129v-467q0 -95 -66 -156q-64 -63 -163 -63q-78 0 -140 40q-62 41 -83 102l128 30q11 -22 36.5 -36t55.5 -14q44 0 73.5 27.5t29.5 67.5v50q-54 -42 -124 -42zM159 224q0 -45 29 -76t71 -31t71 31
t29 76q0 46 -29 78t-71 32t-71 -32t-29 -78zM110 675h92q0 -26 16.5 -44t41.5 -18t41.5 18t16.5 44h92q0 -63 -43 -106q-43 -42 -107 -42t-107 42q-43 43 -43 106z" />
    <glyph glyph-name="Gdotaccent" unicode="&#x120;" horiz-adv-x="771" 
d="M34 337q0 150 103 250t256 100q105 0 191 -51q87 -52 130 -140l-138 -51q-26 49 -75 77t-108 28q-90 0 -150 -61t-60 -151t57 -152q58 -61 144 -61q65 0 117 35.5t71 94.5h-205v122h367q0 -5 1.5 -18.5t1.5 -17.5q-2 -153 -101 -252q-101 -101 -250 -101q-150 0 -251 100
q-101 101 -101 249zM308 815q0 33 22.5 55.5t55.5 22.5t55.5 -22.5t22.5 -55.5q0 -34 -22.5 -56t-55.5 -22t-55.5 22t-22.5 56z" />
    <glyph glyph-name="gdotaccent" unicode="&#x121;" horiz-adv-x="528" 
d="M237 -11q-91 0 -152 67t-61 169t61 169q62 68 152 68q70 0 124 -42v30h129v-467q0 -95 -66 -156q-64 -63 -163 -63q-78 0 -140 40q-62 41 -83 102l128 30q11 -22 36.5 -36t55.5 -14q44 0 73.5 27.5t29.5 67.5v50q-54 -42 -124 -42zM159 224q0 -45 29 -76t71 -31t71 31
t29 76q0 46 -29 78t-71 32t-71 -32t-29 -78zM261 529q-34 0 -56 22t-22 55q0 34 22 56t56 22q33 0 55 -22t22 -56q0 -33 -22 -55t-55 -22z" />
    <glyph glyph-name="uni0122" unicode="&#x122;" horiz-adv-x="771" 
d="M34 337q0 150 103 250t256 100q105 0 191 -51q87 -52 130 -140l-138 -51q-26 49 -75 77t-108 28q-90 0 -150 -61t-60 -151t57 -152q58 -61 144 -61q65 0 117 35.5t71 94.5h-205v122h367q0 -5 1.5 -18.5t1.5 -17.5q-2 -153 -101 -252q-101 -101 -250 -101q-150 0 -251 100
q-101 101 -101 249zM465 -120q0 -75 -89 -126v-1h-1l-31 32q41 35 42 52q-21 3 -35.5 20.5t-14.5 40.5q0 25 17.5 42t43.5 17q30 0 49 -22t19 -55z" />
    <glyph glyph-name="uni0123" unicode="&#x123;" horiz-adv-x="528" 
d="M237 -11q-91 0 -152 67t-61 169t61 169q62 68 152 68q70 0 124 -42v30h129v-467q0 -95 -66 -156q-64 -63 -163 -63q-78 0 -140 40q-62 41 -83 102l128 30q11 -22 36.5 -36t55.5 -14q44 0 73.5 27.5t29.5 67.5v50q-54 -42 -124 -42zM159 224q0 -45 29 -76t71 -31t71 31
t29 76q0 46 -29 78t-71 32t-71 -32t-29 -78zM190 604q0 74 89 127q0 1 1 1l32 -33q-41 -34 -43 -51q21 -4 35.5 -21.5t14.5 -40.5q0 -25 -17.5 -42t-44.5 -17q-29 0 -48 22t-19 55z" />
    <glyph glyph-name="Hcircumflex" unicode="&#x124;" horiz-adv-x="694" 
d="M193 275v-275h-143v675h143v-268h309v268h142v-675h-142v275h-309zM229 734l-48 67l162 127h8l162 -127l-48 -67l-118 72z" />
    <glyph glyph-name="hcircumflex" unicode="&#x125;" horiz-adv-x="506" 
d="M168 255v-255h-130v725h130v-321q46 58 126 58q74 0 124 -50q51 -50 51 -123v-289h-130v255q0 37 -24.5 61.5t-60.5 24.5q-37 0 -61.5 -24.5t-24.5 -61.5zM104 831l-118 -72l-48 68l162 126h8l162 -126l-48 -67z" />
    <glyph glyph-name="Hbar" unicode="&#x126;" horiz-adv-x="735" 
d="M662 675v-91h65v-105h-65v-479h-143v275h-309v-275h-143v479h-59v105h59v91h143v-91h309v91h143zM519 407v72h-309v-72h309z" />
    <glyph glyph-name="hbar" unicode="&#x127;" horiz-adv-x="513" 
d="M174 725v-96h137v-96h-137v-129q49 58 127 58q74 0 124 -50t50 -123v-289h-129v255q0 37 -24.5 61.5t-61.5 24.5t-61.5 -24.5t-24.5 -61.5v-255h-129v533h-41v96h41v96h129z" />
    <glyph glyph-name="Itilde" unicode="&#x128;" horiz-adv-x="243" 
d="M193 0h-143v675h143v-675zM48 754h-91q0 51 32 86q31 36 78 36q31 0 59 -21q31 -20 39 -20q12 0 20.5 10.5t8.5 25.5h91q0 -52 -31.5 -87.5t-77.5 -35.5q-29 0 -60 20q-30 21 -39 21q-12 0 -20.5 -10t-8.5 -25z" />
    <glyph glyph-name="itilde" unicode="&#x129;" horiz-adv-x="218" 
d="M174 0h-129v450h129v-450zM43 545h-90q0 51 30 87t73 36q28 0 55 -21q29 -20 37 -20q11 0 19 10t8 26h90q0 -52 -29 -87.5t-72 -35.5q-27 0 -56 20q-29 21 -37 21q-11 0 -19.5 -10.5t-8.5 -25.5z" />
    <glyph glyph-name="Imacron" unicode="&#x12a;" horiz-adv-x="243" 
d="M193 0h-143v675h143v-675zM258 765h-274v100h274v-100z" />
    <glyph glyph-name="imacron" unicode="&#x12b;" horiz-adv-x="209" 
d="M170 0h-130v450h130v-450zM-27 557v99h263v-99h-263z" />
    <glyph glyph-name="Ibreve" unicode="&#x12c;" horiz-adv-x="243" 
d="M193 0h-143v675h143v-675zM-30 883h93q0 -26 16.5 -43.5t41.5 -17.5t41 17.5t16 43.5h93q0 -62 -44 -106q-43 -42 -107 -42t-107 42q-43 43 -43 106z" />
    <glyph glyph-name="ibreve" unicode="&#x12d;" horiz-adv-x="209" 
d="M169 0h-129v450h129v-450zM-41 675h92q0 -26 15.5 -44t38.5 -18t38 18t15 44h92q0 -63 -42 -106q-40 -42 -103 -42t-105 42q-41 44 -41 106z" />
    <glyph glyph-name="Iogonek" unicode="&#x12e;" horiz-adv-x="243" 
d="M26 -118q0 26 14 56t30 46l14 16h-34v675h143v-675h-20l-15 -15q-10 -11 -25 -35q-15 -26 -15 -45q0 -32 29 -35q34 0 54 23l36 -45q-5 -6 -15 -15q-9 -9 -40 -26q-29 -16 -59 -16q-41 0 -69 26t-28 65z" />
    <glyph glyph-name="iogonek" unicode="&#x12f;" horiz-adv-x="205" 
d="M103 -209q-41 0 -68.5 26t-27.5 65q0 26 13.5 55.5t29.5 46.5l15 16h-27v450h130v-450h-14l-15 -15q-10 -11 -25 -35q-15 -26 -15 -45q0 -35 34 -35q25 0 43 18l6 5l35 -45q-5 -6 -15 -15q-9 -9 -40 -26q-28 -16 -59 -16zM103 675q31 0 53 -19t26 -50q1 -2 1 -11
q0 -35 -23 -58q-22 -22 -57 -22q-36 0 -58 22t-22 58q0 35 22.5 57.5t57.5 22.5z" />
    <glyph glyph-name="Idot" unicode="&#x130;" horiz-adv-x="243" 
d="M193 0h-143v675h143v-675zM43 815q0 33 22.5 55.5t55.5 22.5t55.5 -22.5t22.5 -55.5q0 -34 -22.5 -56t-55.5 -22t-55.5 22t-22.5 56z" />
    <glyph glyph-name="dotlessi" unicode="&#x131;" horiz-adv-x="205" 
d="M168 0h-130v450h130v-450z" />
    <glyph glyph-name="IJ" unicode="&#x132;" horiz-adv-x="804" 
d="M193 0h-143v675h143v-675zM761 675v-425q0 -113 -78 -188q-79 -74 -196 -74q-74 0 -135.5 32t-97.5 87l118 77q38 -65 116 -65q57 0 97 38q39 37 39 94v424h137z" />
    <glyph glyph-name="ij" unicode="&#x133;" horiz-adv-x="415" 
d="M168 0h-130v450h130v-450zM45 537q-22 22 -22 58q0 35 22 57q23 23 58 23q34 0 57 -23t23 -57q0 -35 -23 -58q-22 -22 -57 -22q-36 0 -58 22zM248 450h130v-526q0 -63 -49 -106q-47 -43 -120 -43h-44v124h33q22 0 36 12.5t14 31.5v507zM313 675q35 0 57.5 -22.5
t22.5 -57.5t-22.5 -57.5t-57.5 -22.5q-34 0 -57 23t-23 57t23 57t57 23z" />
    <glyph glyph-name="Jcircumflex" unicode="&#x134;" horiz-adv-x="562" 
d="M519 675v-425q0 -112 -79 -187q-78 -75 -196 -75q-75 0 -135.5 31t-96.5 88l118 77q36 -65 116 -65q57 0 97 38q39 37 39 94v424h137zM447 806l-119 -72l-48 67l162 127h9l162 -127l-48 -67z" />
    <glyph glyph-name="jcircumflex" unicode="&#x135;" horiz-adv-x="210" 
d="M43 450h129v-526q0 -63 -49 -106q-47 -43 -119 -43h-45v124h34q21 0 35.5 12.5t14.5 31.5v507zM108 598l-119 -72l-47 67l162 126h8l162 -126l-48 -67z" />
    <glyph glyph-name="uni0136" unicode="&#x136;" horiz-adv-x="637" 
d="M50 0v675h143v-285l236 285h181l-273 -330l292 -345h-181l-255 301v-301h-143zM302 -163q-21 3 -35 20.5t-14 40.5q0 25 17.5 42t43.5 17q30 0 49 -22t19 -55q0 -22 -9.5 -43t-22 -35.5t-26.5 -26t-22.5 -16.5t-10.5 -6l-31 32q42 35 42 52z" />
    <glyph glyph-name="uni0137" unicode="&#x137;" horiz-adv-x="471" 
d="M168 0h-130v725h130v-451l127 176h154l-157 -217l172 -233h-155l-141 192v-192zM176 -102q0 25 17.5 42t43.5 17q30 0 49 -22t19 -55q0 -22 -9.5 -43t-22 -35.5t-26.5 -26t-22.5 -16.5t-10.5 -6l-31 32q42 35 42 52q-21 3 -35 20.5t-14 40.5z" />
    <glyph glyph-name="Lacute" unicode="&#x139;" horiz-adv-x="547" 
d="M525 0h-475v675h143v-544h332v-131zM32 807l189 125l59 -104l-206 -92z" />
    <glyph glyph-name="lacute" unicode="&#x13a;" horiz-adv-x="205" 
d="M168 0h-130v725h130v-725zM52 762l-42 70l189 125l59 -103z" />
    <glyph glyph-name="uni013B" unicode="&#x13b;" horiz-adv-x="547" 
d="M50 0v675h143v-544h332v-131h-475zM241 -102q0 25 17.5 42t43.5 17q30 0 48.5 -22t18.5 -55q0 -75 -89 -126v-1h-1l-31 32q42 35 42 52q-21 3 -35 20.5t-14 40.5z" />
    <glyph glyph-name="uni013C" unicode="&#x13c;" horiz-adv-x="205" 
d="M168 0h-130v725h130v-725zM167 -120q0 -75 -89 -126v-1h-1l-31 32q41 35 42 52q-21 3 -35.5 20.5t-14.5 40.5q0 25 17.5 42t43.5 17q30 0 49 -22t19 -55z" />
    <glyph glyph-name="Lcaron" unicode="&#x13d;" horiz-adv-x="547" 
d="M50 0v675h143v-544h332v-131h-475zM313 628q0 25 17.5 42t43.5 17q30 0 49 -22t19 -55q0 -71 -90 -127l-32 32q42 35 42 51q-21 4 -35 21.5t-14 40.5z" />
    <glyph glyph-name="lcaron" unicode="&#x13e;" horiz-adv-x="349" 
d="M168 0h-130v725h130v-725zM210 677q0 26 17.5 43t43.5 17q30 0 49 -22.5t19 -55.5q0 -73 -89 -126v-1h-1l-32 32q41 34 43 52q-21 3 -35.5 20.5t-14.5 40.5z" />
    <glyph glyph-name="Ldot" unicode="&#x13f;" horiz-adv-x="547" 
d="M50 0v675h143v-544h332v-131h-475zM448 284q-21 -21 -53 -21t-54 21q-21 22 -21 54t21 53q22 21 54 21t53 -21t21 -53t-21 -54z" />
    <glyph glyph-name="ldot" unicode="&#x140;" horiz-adv-x="409" 
d="M168 0h-130v725h130v-725zM232 338q0 32 21.5 54t53.5 22t54 -22t22 -54q0 -33 -22 -54.5t-54 -21.5t-53.5 21.5t-21.5 54.5z" />
    <glyph glyph-name="Lslash" unicode="&#x141;" horiz-adv-x="596" 
d="M99 212l-35 -21l-56 96l91 55v333h143v-248l98 59l55 -97l-153 -92v-166h332v-131h-475v212z" />
    <glyph glyph-name="lslash" unicode="&#x142;" horiz-adv-x="234" 
d="M182 725v-306l52 30v-111l-52 -30v-308h-130v235l-52 -30v111l52 30v379h130z" />
    <glyph glyph-name="Nacute" unicode="&#x143;" horiz-adv-x="700" 
d="M50 0v675h127l336 -430v430h137v-675h-126l-337 430v-430h-137zM505 828l-206 -92l-41 71l189 125z" />
    <glyph glyph-name="nacute" unicode="&#x144;" horiz-adv-x="501" 
d="M168 0h-130v450h130v-45q46 57 123 57q72 0 122 -50t50 -123v-289h-130v255q0 37 -23.5 61.5t-58.5 24.5t-59 -24.5t-24 -61.5v-255zM409 620l-207 -92l-41 71l189 125z" />
    <glyph glyph-name="uni0145" unicode="&#x145;" horiz-adv-x="700" 
d="M187 0h-137v675h127l336 -430v430h137v-675h-126l-337 430v-430zM343 -163q-21 3 -35.5 20.5t-14.5 40.5q0 25 17.5 42t43.5 17q30 0 49 -22t19 -55q0 -75 -89 -126q0 -1 -1 -1l-32 32q42 34 43 52z" />
    <glyph glyph-name="uni0146" unicode="&#x146;" horiz-adv-x="501" 
d="M168 0h-130v450h130v-45q46 57 123 57q72 0 122 -50t50 -123v-289h-130v255q0 37 -23.5 61.5t-58.5 24.5t-59 -24.5t-24 -61.5v-255zM244 -163q-21 3 -35 20.5t-14 40.5q0 25 17.5 42t43.5 17q30 0 49 -22t19 -55q0 -75 -89 -126l-1 -1l-32 32q42 35 42 52z" />
    <glyph glyph-name="Ncaron" unicode="&#x147;" horiz-adv-x="700" 
d="M187 0h-137v675h127l336 -430v430h137v-675h-126l-337 430v-430zM346 734l-162 127l48 67l118 -73l119 73l48 -67l-163 -127h-8z" />
    <glyph glyph-name="ncaron" unicode="&#x148;" horiz-adv-x="501" 
d="M168 255v-255h-130v450h130v-45q46 57 123 57q72 0 122 -50t50 -123v-289h-130v255q0 37 -23.5 61.5t-58.5 24.5t-59 -24.5t-24 -61.5zM258 526h-9l-162 126l48 68l118 -74l119 73l48 -67z" />
    <glyph glyph-name="Eng" unicode="&#x14a;" horiz-adv-x="700" 
d="M513 675h137v-650q0 -114 -78 -187q-78 -75 -196 -75l1 131q54 0 92.5 34t43.5 86l-326 416v-430h-137v675h127l336 -431v431z" />
    <glyph glyph-name="eng" unicode="&#x14b;" horiz-adv-x="501" 
d="M38 0v450h130v-45q46 57 123 57q72 0 122 -50t50 -123v-365q0 -64 -49 -106q-47 -43 -119 -43h-45v124h34q21 0 35 12t14 31v313q0 37 -23.5 61.5t-58.5 24.5t-59 -24.5t-24 -61.5v-255h-130z" />
    <glyph glyph-name="Omacron" unicode="&#x14c;" horiz-adv-x="775" 
d="M135 88q-101 101 -101 249t101 249q103 101 253 101q151 0 252 -101t101 -249t-101 -249q-100 -100 -252 -100t-253 100zM183 338q0 -91 58 -152t147 -61q88 0 146 61q59 62 59 152q0 89 -59 151q-58 61 -146 61q-89 0 -147 -61t-58 -151zM525 765h-275v100h275v-100z
" />
    <glyph glyph-name="omacron" unicode="&#x14d;" horiz-adv-x="529" 
d="M92 56q-68 68 -68 169t68 169q70 68 172 68t172 -68q69 -68 69 -169t-69 -169q-68 -67 -172 -67t-172 67zM264 117q45 0 75.5 31t30.5 77t-30.5 77.5t-75.5 31.5q-44 0 -74.5 -31.5t-30.5 -77.5t30.5 -77t74.5 -31zM401 557h-274v99h274v-99z" />
    <glyph glyph-name="Obreve" unicode="&#x14e;" horiz-adv-x="775" 
d="M135 88q-101 101 -101 249t101 249q103 101 253 101q151 0 252 -101t101 -249t-101 -249q-100 -100 -252 -100t-253 100zM183 338q0 -91 58 -152t147 -61q88 0 146 61q59 62 59 152q0 89 -59 151q-58 61 -146 61q-89 0 -147 -61t-58 -151zM237 883h92q0 -26 16.5 -43.5
t41.5 -17.5t41.5 17.5t16.5 43.5h92q0 -63 -43 -106q-43 -42 -107 -42q-63 0 -107 42q-43 43 -43 106z" />
    <glyph glyph-name="obreve" unicode="&#x14f;" horiz-adv-x="529" 
d="M92 56q-68 68 -68 169t68 169q70 68 172 68t172 -68q69 -68 69 -169t-69 -169q-68 -67 -172 -67t-172 67zM264 117q45 0 75.5 31t30.5 77t-30.5 77.5t-75.5 31.5q-44 0 -74.5 -31.5t-30.5 -77.5t30.5 -77t74.5 -31zM113 675h93q0 -26 16.5 -44t41.5 -18t41 18t16 44h93
q0 -62 -44 -106q-44 -42 -107 -42t-107 42q-43 43 -43 106z" />
    <glyph glyph-name="Ohungarumlaut" unicode="&#x150;" horiz-adv-x="775" 
d="M135 88q-101 101 -101 249t101 249q103 101 253 101q151 0 252 -101t101 -249t-101 -249q-100 -100 -252 -100t-253 100zM183 338q0 -91 58 -152t147 -61q88 0 146 61q59 62 59 152q0 89 -59 151q-58 61 -146 61q-89 0 -147 -61t-58 -151zM292 732l-63 53l126 166l90 -78
zM480 733l-63 52l125 166l91 -78z" />
    <glyph glyph-name="ohungarumlaut" unicode="&#x151;" horiz-adv-x="529" 
d="M92 56q-68 68 -68 169t68 169q70 68 172 68t172 -68q69 -68 69 -169t-69 -169q-68 -67 -172 -67t-172 67zM264 117q45 0 75.5 31t30.5 77t-30.5 77.5t-75.5 31.5q-44 0 -74.5 -31.5t-30.5 -77.5t30.5 -77t74.5 -31zM169 524l-63 53l126 166l90 -78zM356 524l-63 53
l126 166l90 -78z" />
    <glyph glyph-name="OE" unicode="&#x152;" horiz-adv-x="1131" 
d="M388 -12q-152 0 -253 100q-101 101 -101 249t101 249q103 101 253 101q122 0 215 -69v57h494v-132h-352v-137h297v-131h-297v-144h357v-131h-499v57q-93 -69 -215 -69zM183 338q0 -91 58 -152t147 -61q88 0 146 61q59 62 59 152q0 89 -59 151q-58 61 -146 61
q-89 0 -147 -61t-58 -151z" />
    <glyph glyph-name="oe" unicode="&#x153;" horiz-adv-x="865" 
d="M264 462q104 0 174 -70q70 70 172 70q100 0 168 -68t68 -169q0 -30 -4 -47h-335q11 -36 41 -57.5t69 -21.5q55 0 88 41l126 -29q-30 -57 -86.5 -89.5t-127.5 -32.5q-107 0 -178 70q-70 -70 -175 -70q-104 0 -172 67q-68 68 -68 169t68 169q70 68 172 68zM264 117
q45 0 75.5 31t30.5 77t-30.5 77.5t-75.5 31.5q-44 0 -74.5 -31.5t-30.5 -77.5t30.5 -77t74.5 -31zM507 275h207q-11 34 -40 55t-65 21q-34 0 -62.5 -21t-39.5 -55z" />
    <glyph glyph-name="Racute" unicode="&#x154;" horiz-adv-x="649" 
d="M193 0h-143v675h314q104 0 171 -64q69 -64 69 -160q0 -65 -33.5 -117.5t-90.5 -80.5l149 -253h-159l-134 227h-143v-227zM364 543h-171v-185h171q40 0 66 26.5t26 66.5t-26 66t-66 26zM433 828l-206 -92l-42 71l189 125z" />
    <glyph glyph-name="racute" unicode="&#x155;" horiz-adv-x="317" 
d="M168 450v-47q44 59 123 59q12 0 15 -1v-138q-20 12 -47 12q-39 0 -65 -26t-26 -66v-243h-130v450h130zM114 528l-41 71l189 125l58 -104z" />
    <glyph glyph-name="uni0156" unicode="&#x156;" horiz-adv-x="649" 
d="M50 675h314q104 0 171 -64q69 -64 69 -160q0 -65 -33.5 -117.5t-90.5 -80.5l149 -253h-159l-134 227h-143v-227h-143v675zM364 543h-171v-185h171q40 0 66 26.5t26 66.5t-26 66t-66 26zM323 -163q-21 3 -35.5 20.5t-14.5 40.5q0 25 18 42t44 17q30 0 48.5 -22t18.5 -55
q0 -75 -89 -126q0 -1 -1 -1l-31 32q42 35 42 52z" />
    <glyph glyph-name="uni0157" unicode="&#x157;" horiz-adv-x="317" 
d="M168 450v-47q44 59 123 59q12 0 15 -1v-138q-20 12 -47 12q-39 0 -65 -26t-26 -66v-243h-130v450h130zM173 -120q0 -75 -89 -126v-1h-1l-32 32q42 35 42 52q-20 3 -34.5 20.5t-14.5 40.5q0 25 17.5 42t43.5 17q30 0 49 -22t19 -55z" />
    <glyph glyph-name="Rcaron" unicode="&#x158;" horiz-adv-x="649" 
d="M193 0h-143v675h314q104 0 171 -64q69 -64 69 -160q0 -65 -33.5 -117.5t-90.5 -80.5l149 -253h-159l-134 227h-143v-227zM364 543h-171v-185h171q40 0 66 26.5t26 66.5t-26 66t-66 26zM274 734l-162 127l48 67l118 -73l118 73l48 -67l-162 -127h-8z" />
    <glyph glyph-name="rcaron" unicode="&#x159;" horiz-adv-x="317" 
d="M168 450v-47q44 59 123 59q12 0 15 -1v-138q-20 12 -47 12q-39 0 -65 -26t-26 -66v-243h-130v450h130zM165 646l119 73l48 -67l-163 -126h-8l-162 126l48 68z" />
    <glyph glyph-name="Sacute" unicode="&#x15a;" horiz-adv-x="583" 
d="M523 530l-141 -34q-7 25 -35 42.5t-64 17.5q-38 0 -64 -18t-26 -46q0 -35 62 -59q18 -7 99 -31q63 -18 103 -42q88 -45 93 -158q0 -98 -70 -156t-181 -58q-101 0 -175 48q-72 48 -93 123l143 35q8 -32 42.5 -53t82.5 -21q46 0 77.5 19.5t31.5 49.5q6 25 -38 51
q-8 4 -27 12q-21 8 -26 9l-28 9l-59 18l-53 21q-31 12 -52 28q-82 61 -75 145q0 91 64 148q65 57 167 57q91 0 157 -45q67 -43 85 -112zM238 736l-42 71l189 125l59 -104z" />
    <glyph glyph-name="sacute" unicode="&#x15b;" horiz-adv-x="418" 
d="M391 339l-119 -20q-12 38 -67 38q-52 0 -52 -29q0 -18 36 -30l80 -26q69 -22 99 -54.5t30 -83.5q0 -70 -50 -107.5t-136 -37.5q-84 0 -134 35t-59 99l119 17q10 -45 77 -45q26 0 42.5 9t16.5 24q0 22 -45 35l-82 24q-63 18 -91 48.5t-28 81.5q0 72 49 108.5t133 36.5
q78 0 125.5 -32.5t55.5 -90.5zM157 528l-41 71l189 125l59 -104z" />
    <glyph glyph-name="Scircumflex" unicode="&#x15c;" horiz-adv-x="583" 
d="M523 530l-141 -34q-7 25 -35 42.5t-64 17.5q-38 0 -64 -18t-26 -46q0 -35 62 -59q18 -7 99 -31q63 -18 103 -42q88 -45 93 -158q0 -98 -70 -156t-181 -58q-101 0 -175 48q-72 48 -93 123l143 35q8 -32 42.5 -53t82.5 -21q46 0 77.5 19.5t31.5 49.5q6 25 -38 51
q-8 4 -27 12q-21 8 -26 9l-28 9l-59 18l-53 21q-31 12 -52 28q-82 61 -75 145q0 91 64 148q65 57 167 57q91 0 157 -45q67 -43 85 -112zM289 806l-118 -72l-48 67l161 127h9l162 -127l-48 -67z" />
    <glyph glyph-name="scircumflex" unicode="&#x15d;" horiz-adv-x="418" 
d="M391 339l-119 -20q-12 38 -67 38q-52 0 -52 -29q0 -18 36 -30l80 -26q69 -22 99 -54.5t30 -83.5q0 -70 -50 -107.5t-136 -37.5q-84 0 -134 35t-59 99l119 17q10 -45 77 -45q26 0 42.5 9t16.5 24q0 22 -45 35l-82 24q-63 18 -91 48.5t-28 81.5q0 72 49 108.5t133 36.5
q78 0 125.5 -32.5t55.5 -90.5zM208 598l-118 -72l-48 67l162 126h9l161 -126l-48 -67z" />
    <glyph glyph-name="Scedilla" unicode="&#x15e;" horiz-adv-x="583" 
d="M250 -80l16 69q-88 7 -153 54q-62 46 -82 116l143 35q8 -32 42.5 -53t82.5 -21q46 0 77.5 19.5t31.5 49.5q6 25 -38 51q-8 4 -27 12q-21 8 -26 9l-28 9l-59 18l-53 21q-31 12 -52 28q-82 61 -75 145q0 91 64 148q65 57 167 57q91 0 157 -45q67 -43 85 -112l-141 -34
q-7 25 -35 42.5t-64 17.5q-38 0 -64 -18t-26 -46q0 -35 62 -59q18 -7 99 -31q63 -18 103 -42q88 -45 93 -158q0 -83 -51.5 -138.5t-139.5 -70.5l-6 -29q3 -1 7.5 -2t16 -7t20.5 -14t16.5 -23.5t7.5 -33.5q0 -43 -35 -71t-87 -28q-56 0 -96 28l-13 9l17 59q26 -23 68 -23
q23 0 40 8.5t17 20.5t-19.5 21t-42.5 10z" />
    <glyph glyph-name="scedilla" unicode="&#x15f;" horiz-adv-x="418" 
d="M160 -80l18 71q-141 13 -159 132l119 17q10 -45 77 -45q26 0 42.5 9t16.5 24q0 22 -45 35l-82 24q-63 18 -91 48.5t-28 81.5q0 72 49 108.5t133 36.5q78 0 125.5 -32.5t55.5 -90.5l-119 -20q-12 38 -67 38q-52 0 -52 -29q0 -18 36 -30l80 -26q69 -22 99 -54.5t30 -83.5
q0 -57 -33 -92.5t-94 -47.5l-8 -30q3 -1 7.5 -2t16 -7t20.5 -14t16.5 -23.5t7.5 -33.5q0 -43 -34.5 -71t-86.5 -28q-27 0 -54.5 9t-41.5 19l-13 9l17 59q26 -23 67 -23q24 0 40.5 8.5t16.5 20.5t-19.5 21t-42.5 10z" />
    <glyph glyph-name="Scaron" unicode="&#x160;" horiz-adv-x="583" 
d="M523 530l-141 -34q-7 25 -35 42.5t-64 17.5q-38 0 -64 -18t-26 -46q0 -35 62 -59q18 -7 99 -31q63 -18 103 -42q88 -45 93 -158q0 -98 -70 -156t-181 -58q-101 0 -175 48q-72 48 -93 123l143 35q8 -32 42.5 -53t82.5 -21q46 0 77.5 19.5t31.5 49.5q6 25 -38 51
q-8 4 -27 12q-21 8 -26 9l-28 9l-59 18l-53 21q-31 12 -52 28q-82 61 -75 145q0 91 64 148q65 57 167 57q91 0 157 -45q67 -43 85 -112zM289 855l118 73l48 -67l-162 -127h-9l-161 127l48 67z" />
    <glyph glyph-name="scaron" unicode="&#x161;" horiz-adv-x="418" 
d="M391 339l-119 -20q-12 38 -67 38q-52 0 -52 -29q0 -18 36 -30l80 -26q69 -22 99 -54.5t30 -83.5q0 -70 -50 -107.5t-136 -37.5q-84 0 -134 35t-59 99l119 17q10 -45 77 -45q26 0 42.5 9t16.5 24q0 22 -45 35l-82 24q-63 18 -91 48.5t-28 81.5q0 72 49 108.5t133 36.5
q78 0 125.5 -32.5t55.5 -90.5zM208 646l119 73l48 -67l-162 -126h-9l-162 126l48 68z" />
    <glyph glyph-name="uni0162" unicode="&#x162;" horiz-adv-x="614" 
d="M236 0v543h-215v132h572v-132h-215v-543h-142zM298 -163q-21 3 -35 20.5t-14 40.5q0 25 17.5 42t43.5 17q30 0 48.5 -22t18.5 -55q0 -75 -89 -126v-1h-1l-31 32q42 35 42 52z" />
    <glyph glyph-name="uni0163" unicode="&#x163;" horiz-adv-x="325" 
d="M8 337v113h62v87h129v-87h105v-113h-105v-168q0 -20 14 -33.5t35 -13.5h56v-122h-77q-65 0 -112 41q-45 41 -45 102v194h-62zM258 -120q0 -75 -89 -126l-1 -1l-32 32q42 34 43 52q-21 3 -35.5 20.5t-14.5 40.5q0 25 17.5 42t43.5 17q30 0 49 -22t19 -55z" />
    <glyph glyph-name="Tcaron" unicode="&#x164;" horiz-adv-x="614" 
d="M21 675h572v-132h-215v-543h-142v543h-215v132zM311 734h-8l-162 127l48 67l118 -73l119 73l48 -67z" />
    <glyph glyph-name="tcaron" unicode="&#x165;" horiz-adv-x="373" 
d="M8 337v113h62v87h129v-87h105v-113h-105v-168q0 -20 14 -33.5t35 -13.5h56v-122h-77q-65 0 -112 41q-45 41 -45 102v194h-62zM363 622q0 -70 -90 -127l-32 32q42 34 43 52q-21 3 -35.5 20.5t-14.5 40.5q0 25 17.5 42t43.5 17q30 0 49 -22t19 -55z" />
    <glyph glyph-name="Tbar" unicode="&#x166;" horiz-adv-x="615" 
d="M492 255h-114v-255h-142v255h-114v120h114v169h-215v131h572v-131h-215v-169h114v-120z" />
    <glyph glyph-name="tbar" unicode="&#x167;" horiz-adv-x="325" 
d="M70 337h-62v113h62v87h129v-87h105v-113h-105v-59h73v-85h-73v-24q0 -20 14 -33.5t35 -13.5h56v-122h-77q-65 0 -112 41q-45 41 -45 102v50h-46v85h46v59z" />
    <glyph glyph-name="Utilde" unicode="&#x168;" horiz-adv-x="681" 
d="M495 273v402h143v-402q0 -120 -86 -203q-85 -82 -212 -82t-212 82t-85 203v402h143v-402q0 -66 44 -110t110 -44q67 0 111 44t44 110zM267 754h-90q0 51 31 86q32 36 78 36q30 0 59 -21q31 -20 39 -20q12 0 21 10.5t9 25.5h90q0 -52 -31.5 -87.5t-77.5 -35.5
q-29 0 -60 20q-28 21 -38 21q-12 0 -21 -10t-9 -25z" />
    <glyph glyph-name="utilde" unicode="&#x169;" horiz-adv-x="501" 
d="M38 161v289h130v-254q0 -37 23.5 -62t58.5 -25t59 25t24 62v254h130v-450h-130v46q-47 -57 -123 -57q-74 0 -123 49t-49 123zM177 545h-90q0 52 31 87q32 36 78 36q30 0 59 -21q31 -20 39 -20q12 0 21 10.5t9 25.5h90q0 -52 -31.5 -87.5t-77.5 -35.5q-29 0 -60 20
q-29 21 -38 21q-12 0 -21 -10.5t-9 -25.5z" />
    <glyph glyph-name="Umacron" unicode="&#x16a;" horiz-adv-x="681" 
d="M495 273v402h143v-402q0 -120 -86 -203q-85 -82 -212 -82t-212 82t-85 203v402h143v-402q0 -66 44 -110t110 -44q67 0 111 44t44 110zM478 765h-275v100h275v-100z" />
    <glyph glyph-name="umacron" unicode="&#x16b;" horiz-adv-x="501" 
d="M210 -11q-74 0 -123 49t-49 123v289h130v-254q0 -37 23.5 -62t58.5 -25t59 25t24 62v254h130v-450h-130v46q-47 -57 -123 -57zM388 656v-99h-275v99h275z" />
    <glyph glyph-name="Ubreve" unicode="&#x16c;" horiz-adv-x="681" 
d="M495 273v402h143v-402q0 -120 -86 -203q-85 -82 -212 -82t-212 82t-85 203v402h143v-402q0 -66 44 -110t110 -44q67 0 111 44t44 110zM190 883h92q0 -26 16.5 -43.5t41.5 -17.5t41.5 17.5t16.5 43.5h92q0 -63 -43 -106q-43 -42 -107 -42t-107 42q-43 43 -43 106z" />
    <glyph glyph-name="ubreve" unicode="&#x16d;" horiz-adv-x="501" 
d="M38 161v289h130v-254q0 -37 23.5 -62t58.5 -25t59 25t24 62v254h130v-450h-130v46q-47 -57 -123 -57q-74 0 -123 49t-49 123zM100 675h92q0 -26 16.5 -44t41.5 -18t41.5 18t16.5 44h92q0 -63 -43 -106q-43 -42 -107 -42t-107 42q-43 43 -43 106z" />
    <glyph glyph-name="Uring" unicode="&#x16e;" horiz-adv-x="681" 
d="M495 273v402h143v-402q0 -120 -86 -203q-85 -82 -212 -82t-212 82t-85 203v402h143v-402q0 -66 44 -110t110 -44q67 0 111 44t44 110zM341 965q48 0 81.5 -33.5t33.5 -81.5t-33.5 -81t-81.5 -33q-49 0 -82 33t-33 81t33 81.5t82 33.5zM307 850q0 -20 16.5 -28.5t33.5 0
t17 28.5q0 21 -17 29.5t-33.5 0t-16.5 -29.5z" />
    <glyph glyph-name="uring" unicode="&#x16f;" horiz-adv-x="501" 
d="M38 161v289h130v-254q0 -37 23.5 -62t58.5 -25t59 25t24 62v254h130v-450h-130v46q-47 -57 -123 -57q-74 0 -123 49t-49 123zM251 527q-49 0 -82 33t-33 82q0 48 33 81.5t82 33.5q48 0 81.5 -33.5t33.5 -81.5q0 -49 -33.5 -82t-81.5 -33zM274 665q-13 15 -31.5 8.5
t-24 -23t8.5 -32.5q10 -9 24 -9t23 9q10 10 10 24t-10 23z" />
    <glyph glyph-name="Uhungarumlaut" unicode="&#x170;" horiz-adv-x="681" 
d="M495 273v402h143v-402q0 -120 -86 -203q-85 -82 -212 -82t-212 82t-85 203v402h143v-402q0 -66 44 -110t110 -44q67 0 111 44t44 110zM245 732l-63 53l126 166l90 -78zM432 733l-62 52l125 166l90 -78z" />
    <glyph glyph-name="uhungarumlaut" unicode="&#x171;" horiz-adv-x="501" 
d="M38 161v289h130v-254q0 -37 23.5 -62t58.5 -25t59 25t24 62v254h130v-450h-130v46q-47 -57 -123 -57q-74 0 -123 49t-49 123zM155 524l-63 53l126 166l90 -78zM495 665l-153 -141l-62 53l125 166z" />
    <glyph glyph-name="Uogonek" unicode="&#x172;" horiz-adv-x="681" 
d="M43 273v402h143v-402q0 -66 44 -110t110 -44q67 0 111 44t44 110v402h143v-402q0 -100 -62 -177q-62 -76 -159 -99q-52 -52 -52 -92q0 -35 35 -35q26 0 42 18l6 5l36 -45q-4 -6 -15 -15q-9 -9 -40 -26q-29 -16 -59 -16q-41 0 -69 26t-28 65q0 48 47 107q-118 7 -198 87
q-79 80 -79 197z" />
    <glyph glyph-name="uogonek" unicode="&#x173;" horiz-adv-x="501" 
d="M38 161v289h130v-254q0 -37 23.5 -62t58.5 -25t59 25t24 62v254h130v-450h-16l-15 -15q-10 -11 -25 -35q-15 -26 -15 -45q0 -17 9.5 -26t25.5 -9q25 0 43 18l6 5l35 -45q-5 -6 -15 -15q-9 -9 -40 -26q-29 -16 -59 -16q-41 0 -68.5 26t-27.5 65q0 26 13.5 55.5t29.5 46.5
l14 16h-25v46q-47 -57 -123 -57q-74 0 -123 49t-49 123z" />
    <glyph glyph-name="Wcircumflex" unicode="&#x174;" horiz-adv-x="968" 
d="M352 0h-117l-227 675h146l138 -446l134 446h117l135 -445l137 445h146l-227 -675h-117l-132 427zM484 806l-118 -72l-48 67l162 127h8l162 -127l-48 -67z" />
    <glyph glyph-name="wcircumflex" unicode="&#x175;" horiz-adv-x="674" 
d="M148 0l-142 450h131l70 -251l71 251h119l71 -249l69 249h131l-142 -450h-119l-69 236l-71 -236h-119zM337 598l-118 -72l-48 67l162 126h8l162 -126l-48 -67z" />
    <glyph glyph-name="Ycircumflex" unicode="&#x176;" horiz-adv-x="669" 
d="M262 277l-254 398h163l161 -265l166 265h163l-257 -394v-281h-142v277zM217 734l-48 67l161 127h9l162 -127l-48 -67l-118 72z" />
    <glyph glyph-name="ycircumflex" unicode="&#x177;" horiz-adv-x="480" 
d="M176 3l-170 447h134l98 -277l102 277h134l-199 -515q-32 -83 -85 -121.5t-135 -38.5h-14v124h15q83 0 111 79zM122 526l-48 67l162 126h8l162 -126l-48 -67l-118 72z" />
    <glyph glyph-name="Ydieresis" unicode="&#x178;" horiz-adv-x="669" 
d="M262 277l-254 398h163l161 -265l166 265h163l-257 -394v-281h-142v277zM382 861q21 21 52 21t52 -21t21 -52t-21 -52q-21 -20 -52 -20t-52 20q-20 21 -20 52t20 52zM183 757q-20 21 -20 52t20 52q21 21 52 21t51 -21q21 -21 21 -52t-21 -52q-20 -20 -51 -20t-52 20z" />
    <glyph glyph-name="Zacute" unicode="&#x179;" horiz-adv-x="608" 
d="M576 131v-131h-541v110l340 433h-337v132h535v-110l-340 -434h343zM254 736l-41 71l189 125l59 -104z" />
    <glyph glyph-name="zacute" unicode="&#x17a;" horiz-adv-x="428" 
d="M401 118v-118h-374v90l191 242h-187v118h365v-89l-190 -243h195zM369 620l-206 -92l-42 71l189 125z" />
    <glyph glyph-name="Zdotaccent" unicode="&#x17b;" horiz-adv-x="608" 
d="M576 0h-541v110l340 433h-337v132h535v-110l-340 -434h343v-131zM228 815q0 33 22 55.5t55 22.5q34 0 56 -22.5t22 -55.5q0 -34 -22 -56t-56 -22q-33 0 -55 22t-22 56z" />
    <glyph glyph-name="zdotaccent" unicode="&#x17c;" horiz-adv-x="428" 
d="M401 118v-118h-374v90l191 242h-187v118h365v-89l-190 -243h195zM136 606q0 34 22.5 56t55.5 22t55.5 -22t22.5 -56q0 -33 -22.5 -55t-55.5 -22t-55.5 22t-22.5 55z" />
    <glyph glyph-name="Zcaron" unicode="&#x17d;" horiz-adv-x="608" 
d="M576 0h-541v110l340 433h-337v132h535v-110l-340 -434h343v-131zM310 734h-9l-162 127l48 67l118 -73l119 73l48 -67z" />
    <glyph glyph-name="zcaron" unicode="&#x17e;" horiz-adv-x="428" 
d="M401 118v-118h-374v90l191 242h-187v118h365v-89l-190 -243h195zM210 526l-162 126l48 68l118 -74l118 73l48 -67l-162 -126h-8z" />
    <glyph glyph-name="uni018F" unicode="&#x18f;" horiz-adv-x="773" 
d="M388 687q152 0 252 -100q101 -101 101 -249q0 -149 -101 -250q-100 -100 -252 -100t-253 100q-101 101 -101 250q0 23 5 60h548q-19 68 -73.5 110t-125.5 42q-91 0 -151 -63l-141 55q48 69 124 107t168 38zM584 267h-393q21 -64 74.5 -103t122.5 -39t122 39t74 103z" />
    <glyph glyph-name="florin" unicode="&#x192;" horiz-adv-x="352" 
d="M-27 -225h-61l21 123h50q21 0 37 12.5t20 32.5l64 363h-65l20 110h64l29 160q10 62 66 106q55 43 127 43h61l-21 -123h-50q-21 0 -37 -12.5t-20 -32.5l-25 -141h100l-20 -110h-99l-68 -382q-10 -62 -67 -106q-55 -43 -126 -43z" />
    <glyph glyph-name="uni01DD" unicode="&#x1dd;" horiz-adv-x="519" 
d="M23 272h336q-12 36 -42 57.5t-69 21.5q-54 0 -88 -40l-125 29q30 57 86.5 89.5t127.5 32.5q105 0 176 -68t71 -169t-69 -169q-67 -67 -170 -67q-100 0 -170 68q-68 68 -68 168q0 30 4 47zM358 176h-207q12 -35 40.5 -56t64.5 -21q34 0 62 21t40 56z" />
    <glyph glyph-name="Aringacute" unicode="&#x1fa;" horiz-adv-x="705" 
d="M206 119l-49 -119h-149l282 667q-52 34 -52 97q0 48 33 81t82 33q40 0 68 -22l158 104l59 -104l-172 -77q1 -3 1 -15q0 -63 -52 -97l282 -667h-149l-49 119h-293zM446 248l-93 224l-93 -224h186zM353 730q20 0 28.5 17t0 33.5t-28.5 16.5q-21 0 -29.5 -16.5t0 -33.5
t29.5 -17z" />
    <glyph glyph-name="aringacute" unicode="&#x1fb;" horiz-adv-x="528" 
d="M237 462q70 0 124 -42v30h129v-450h-129v31q-54 -42 -124 -42q-91 0 -152 67t-61 169t61 169q62 68 152 68zM154 642q0 48 33 81.5t81 33.5q35 0 63 -19l155 103l59 -104l-164 -73q2 -18 2 -22q0 -49 -33.5 -82t-81.5 -33t-81 33t-33 82zM159 226q0 -46 29 -77.5
t71 -31.5t71 31.5t29 77.5q0 45 -29 76.5t-71 31.5t-71 -31.5t-29 -76.5zM244 665q-14 -13 -7.5 -31.5t23 -23.5t32.5 8q15 15 8.5 33t-23.5 22.5t-33 -8.5z" />
    <glyph glyph-name="AEacute" unicode="&#x1fc;" horiz-adv-x="982" 
d="M168 0h-160l404 675h536v-132h-326v-137h271v-131h-271v-144h331v-131h-474v119h-241zM313 248h166v282zM702 828l-206 -92l-42 71l189 125z" />
    <glyph glyph-name="aeacute" unicode="&#x1fd;" horiz-adv-x="857" 
d="M236 -11q-91 0 -152 67q-60 68 -60 169t60 169q62 68 152 68q70 0 125 -43v31h129v-30q56 42 128 42q93 0 156 -69q64 -67 64 -168q0 -19 -5 -47h-335q11 -36 41 -57.5t69 -21.5q54 0 89 41l125 -29q-27 -57 -80 -89.5t-119 -32.5q-75 0 -133 43v-32h-129v32
q-55 -43 -125 -43zM159 226q0 -46 29 -77.5t71 -31.5t71 31.5t29 77.5q0 45 -29 76.5t-71 31.5t-71 -31.5t-29 -76.5zM576 620l-207 -92l-41 71l189 125zM499 275h206q-11 34 -40 55t-65 21q-34 0 -62 -21t-39 -55z" />
    <glyph glyph-name="Oslashacute" unicode="&#x1fe;" horiz-adv-x="775" 
d="M127 32l27 39q-120 103 -120 267q0 148 101 249q101 100 253 100q94 0 168 -40l28 40l65 -45l-27 -39q119 -102 119 -265q0 -149 -101 -250q-100 -100 -252 -100q-92 0 -168 39l-28 -40zM539 484l-238 -341q39 -18 87 -18q88 0 146 61q59 62 59 152q0 88 -54 146z
M237 190l238 341q-37 19 -87 19q-89 0 -147 -61t-58 -151q0 -88 54 -148zM337 736l-42 71l189 125l59 -104z" />
    <glyph glyph-name="oslashacute" unicode="&#x1ff;" horiz-adv-x="529" 
d="M264 462q54 0 106 -23l16 23l58 -41l-15 -22q76 -67 76 -174q0 -101 -69 -169q-68 -67 -172 -67q-55 0 -106 23l-16 -23l-58 40l15 22q-75 69 -75 174q0 101 68 169q70 68 172 68zM351 287l-116 -166q11 -4 29 -4q45 0 75.5 31t30.5 77q0 36 -19 62zM177 163l117 166
q-18 5 -30 5q-44 0 -74.5 -31.5t-30.5 -77.5q0 -33 18 -62zM213 528l-41 71l189 125l58 -104z" />
    <glyph glyph-name="uni0218" unicode="&#x218;" horiz-adv-x="583" 
d="M523 530l-141 -34q-7 25 -35 42.5t-64 17.5q-38 0 -64 -18t-26 -46q0 -35 62 -59q18 -7 99 -31q63 -18 103 -42q88 -45 93 -158q0 -98 -70 -156t-181 -58q-101 0 -175 48q-72 48 -93 123l143 35q8 -32 42.5 -53t82.5 -21q46 0 77.5 19.5t31.5 49.5q6 25 -38 51
q-8 4 -27 12q-21 8 -26 9l-28 9l-59 18l-53 21q-31 12 -52 28q-82 61 -75 145q0 91 64 148q65 57 167 57q91 0 157 -45q67 -43 85 -112zM384 -120q0 -22 -9.5 -43t-22 -35.5t-26.5 -26t-22.5 -16.5t-10.5 -6l-31 32q42 35 42 52q-21 3 -35 20.5t-14 40.5q0 25 17.5 42
t43.5 17q30 0 49 -22t19 -55z" />
    <glyph glyph-name="uni0219" unicode="&#x219;" horiz-adv-x="418" 
d="M391 339l-119 -20q-12 38 -67 38q-52 0 -52 -29q0 -18 36 -30l80 -26q69 -22 99 -54.5t30 -83.5q0 -70 -50 -107.5t-136 -37.5q-84 0 -134 35t-59 99l119 17q10 -45 77 -45q26 0 42.5 9t16.5 24q0 22 -45 35l-82 24q-63 18 -91 48.5t-28 81.5q0 72 49 108.5t133 36.5
q78 0 125.5 -32.5t55.5 -90.5zM294 -120q0 -75 -89 -126l-1 -1l-32 32q42 34 43 52q-21 3 -35.5 20.5t-14.5 40.5q0 25 17.5 42t43.5 17q30 0 49 -22t19 -55z" />
    <glyph glyph-name="uni021A" unicode="&#x21a;" horiz-adv-x="614" 
d="M236 0v543h-215v132h572v-132h-215v-543h-142zM298 -163q-21 3 -35 20.5t-14 40.5q0 25 17.5 42t43.5 17q30 0 48.5 -22t18.5 -55q0 -75 -89 -126v-1h-1l-31 32q42 35 42 52z" />
    <glyph glyph-name="uni021B" unicode="&#x21b;" horiz-adv-x="325" 
d="M8 337v113h62v87h129v-87h105v-113h-105v-168q0 -20 14 -33.5t35 -13.5h56v-122h-77q-65 0 -112 41q-45 41 -45 102v194h-62zM258 -120q0 -75 -89 -126l-1 -1l-32 32q42 34 43 52q-21 3 -35.5 20.5t-14.5 40.5q0 25 17.5 42t43.5 17q30 0 49 -22t19 -55z" />
    <glyph glyph-name="uni0237" unicode="&#x237;" horiz-adv-x="210" 
d="M43 450h129v-526q0 -63 -49 -106q-47 -43 -119 -43h-45v124h34q21 0 35.5 12.5t14.5 31.5v507z" />
    <glyph glyph-name="uni0259" unicode="&#x259;" horiz-adv-x="519" 
d="M23 272h336q-12 36 -42 57.5t-69 21.5q-54 0 -88 -40l-125 29q30 57 86.5 89.5t127.5 32.5q105 0 176 -68t71 -169t-69 -169q-67 -67 -170 -67q-100 0 -170 68q-68 68 -68 168q0 30 4 47zM358 176h-207q12 -35 40.5 -56t64.5 -21q34 0 62 21t40 56z" />
    <glyph glyph-name="circumflex" unicode="&#x2c6;" horiz-adv-x="405" 
d="M202 745l-118 -72l-48 67l162 126h9l161 -126l-47 -67z" />
    <glyph glyph-name="caron" unicode="&#x2c7;" horiz-adv-x="405" 
d="M202 793l119 73l48 -67l-162 -126h-9l-162 126l48 68z" />
    <glyph glyph-name="breve" unicode="&#x2d8;" horiz-adv-x="373" 
d="M36 822h93q0 -26 16.5 -44t41.5 -18t41 18t16 44h93q0 -63 -43 -106q-43 -42 -107 -42q-65 0 -108 42q-43 43 -43 106z" />
    <glyph glyph-name="dotaccent" unicode="&#x2d9;" horiz-adv-x="228" 
d="M36 753q0 34 22.5 56t55.5 22t55.5 -22t22.5 -56q0 -33 -22.5 -55t-55.5 -22t-55.5 22t-22.5 55z" />
    <glyph glyph-name="ring" unicode="&#x2da;" horiz-adv-x="302" 
d="M151 904q48 0 81.5 -33.5t33.5 -81.5t-33.5 -81.5t-81.5 -33.5q-49 0 -82 33.5t-33 81.5t33 81.5t82 33.5zM127 813q-14 -14 -7.5 -32.5t23 -23t32.5 7.5q23 23 -1 47t-47 1z" />
    <glyph glyph-name="ogonek" unicode="&#x2db;" horiz-adv-x="283" 
d="M80 -16l14 16h89l-15 -15q-10 -11 -25 -35q-15 -26 -15 -45q0 -35 35 -35q25 0 43 18l5 5l36 -45q-5 -6 -15 -15q-9 -9 -40 -26q-29 -16 -60 -16q-41 0 -68.5 26t-27.5 65q0 26 14 56t30 46z" />
    <glyph glyph-name="tilde" unicode="&#x2dc;" horiz-adv-x="400" 
d="M127 692h-91q0 50 32 87q32 36 78 36q30 0 59 -21q31 -20 39 -20q12 0 20.5 10t8.5 26h90q0 -52 -31 -87.5t-77 -35.5q-31 0 -60 20q-29 21 -39 21q-12 0 -20.5 -10t-8.5 -26z" />
    <glyph glyph-name="hungarumlaut" unicode="&#x2dd;" horiz-adv-x="476" 
d="M99 671l-63 53l126 166l90 -78zM287 671l-63 53l125 166l91 -78z" />
    <glyph glyph-name="uni0394" unicode="&#x394;" horiz-adv-x="698" 
d="M691 0h-683l283 675h117zM490 128l-141 344l-140 -344h281z" />
    <glyph glyph-name="uni03A9" unicode="&#x3a9;" horiz-adv-x="777" 
d="M34 354q0 143 101 238q103 95 253 95q152 0 252 -96q101 -95 101 -238q0 -128 -85 -220h87v-133h-282v133q60 22 96 77t36 124q0 92 -59 154t-146 62q-88 0 -147 -62q-58 -61 -58 -153q0 -71 37 -126t98 -76v-133h-280v133h81q-85 92 -85 221z" />
    <glyph glyph-name="uni0400" unicode="&#x400;" horiz-adv-x="585" 
d="M50 675h501v-132h-358v-137h304v-131h-304v-144h363v-131h-506v675zM389 807l-42 -71l-206 92l59 104z" />
    <glyph glyph-name="uni0401" unicode="&#x401;" horiz-adv-x="585" 
d="M556 0h-506v675h501v-132h-358v-137h304v-131h-304v-144h363v-131zM449 757q-20 -20 -51 -20t-52 20q-21 21 -21 52t21 52t52 21t51 -21q21 -21 21 -52t-21 -52zM249 757q-20 -20 -51 -20t-52 20q-20 21 -20 52t20 52q21 21 52 21t51 -21q21 -21 21 -52t-21 -52z" />
    <glyph glyph-name="uni0402" unicode="&#x402;" horiz-adv-x="821" 
d="M236 0v544h-215v131h572v-131h-215v-123q56 15 124 15q129 0 201.5 -59.5t72.5 -167.5q0 -107 -73 -164t-199 -57v131q65 0 97.5 21t32.5 70q0 94 -135 94q-55 0 -121 -15v-289h-142z" />
    <glyph glyph-name="uni0403" unicode="&#x403;" horiz-adv-x="520" 
d="M193 544v-544h-143v675h449v-131h-306zM424 828l-206 -92l-41 71l189 125z" />
    <glyph glyph-name="uni0404" unicode="&#x404;" horiz-adv-x="734" 
d="M34 338q0 148 101 249q101 100 253 100q105 0 190 -51.5t128 -139.5l-138 -51q-27 49 -75 77t-105 28q-69 0 -123 -40.5t-74 -106.5h276v-125h-277q18 -69 72 -111t126 -42q57 0 105 28t75 77l138 -51q-43 -88 -128 -139.5t-190 -51.5q-153 0 -253 100q-101 101 -101 250
z" />
    <glyph glyph-name="uni0405" unicode="&#x405;" horiz-adv-x="583" 
d="M523 530l-141 -34q-7 25 -35 42.5t-64 17.5q-38 0 -64 -18t-26 -46q0 -35 62 -59q18 -7 99 -31q63 -18 103 -42q88 -45 93 -158q0 -98 -70 -156t-181 -58q-101 0 -175 48q-72 48 -93 123l143 35q8 -32 42.5 -53t82.5 -21q46 0 77.5 19.5t31.5 49.5q6 25 -38 51
q-8 4 -27 12q-21 8 -26 9l-28 9l-59 18l-53 21q-31 12 -52 28q-82 61 -75 145q0 91 64 148q65 57 167 57q91 0 157 -45q67 -43 85 -112z" />
    <glyph glyph-name="uni0406" unicode="&#x406;" horiz-adv-x="243" 
d="M193 0h-143v675h143v-675z" />
    <glyph glyph-name="uni0407" unicode="&#x407;" horiz-adv-x="243" 
d="M193 0h-143v675h143v-675zM22 882q31 0 51.5 -21t20.5 -52t-20.5 -51.5t-51.5 -20.5t-52 20.5t-21 51.5t20.5 52t52.5 21zM169 757q-20 21 -20 52t20 52q21 21 52 21t51 -21q21 -21 21 -52t-21 -52q-20 -20 -51 -20t-52 20z" />
    <glyph glyph-name="uni0408" unicode="&#x408;" horiz-adv-x="562" 
d="M519 675v-425q0 -112 -79 -187q-78 -75 -196 -75q-75 0 -135.5 31t-96.5 88l118 77q36 -65 116 -65q57 0 97 38q39 37 39 94v424h137z" />
    <glyph glyph-name="uni0409" unicode="&#x409;" horiz-adv-x="1065" 
d="M37 0h-29v131h29q44 -2 66.5 44.5t24.5 171.5v328h504v-232h162q102 0 170 -63t68 -158q0 -94 -68 -159q-68 -63 -170 -63h-305v544h-219v-197q0 -175 -61 -261t-172 -86zM632 312v-181h162q38 0 64 26t26 65q0 38 -26 64t-64 26h-162z" />
    <glyph glyph-name="uni040A" unicode="&#x40a;" horiz-adv-x="1078" 
d="M193 0h-143v675h143v-249h309v249h142v-249h163q103 0 170 -61q68 -62 68 -152t-68 -152q-67 -61 -170 -61h-305v294h-309v-294zM807 294h-163v-163h163q38 0 64 23.5t26 58.5q0 34 -26 57.5t-64 23.5z" />
    <glyph glyph-name="uni040B" unicode="&#x40b;" horiz-adv-x="819" 
d="M236 0v544h-215v131h572v-131h-215v-119q58 11 114 11q133 0 208 -60.5t75 -168.5v-207h-143v207q0 97 -143 97q-49 0 -111 -12v-292h-142z" />
    <glyph glyph-name="uni040C" unicode="&#x40c;" horiz-adv-x="637" 
d="M193 0h-143v675h143v-285l236 285h181l-273 -330l292 -345h-181l-255 301v-301zM466 828l-207 -92l-41 71l189 125z" />
    <glyph glyph-name="uni040D" unicode="&#x40d;" horiz-adv-x="700" 
d="M50 0v675h143v-435l325 435h132v-675h-142v435l-326 -435h-132zM441 805l-41 -71l-206 92l58 104z" />
    <glyph glyph-name="uni040E" unicode="&#x40e;" horiz-adv-x="679" 
d="M278 187l-270 488h156l190 -347l165 347h152l-222 -467q-52 -108 -116.5 -158t-152.5 -50h-64v131h53q65 0 109 56zM341 721q-79 0 -131 51t-52 127h103q0 -34 22.5 -55.5t57.5 -21.5q33 0 54.5 22t21.5 55h104q0 -76 -52 -127q-51 -51 -128 -51z" />
    <glyph glyph-name="uni040F" unicode="&#x40f;" horiz-adv-x="688" 
d="M50 0v675h143v-544h302v544h143v-675h-223v-164h-143v164h-222z" />
    <glyph glyph-name="uni0410" unicode="&#x410;" horiz-adv-x="705" 
d="M157 0h-149l286 675h117l286 -675h-149l-49 119h-293zM446 248l-93 224l-93 -224h186z" />
    <glyph glyph-name="uni0411" unicode="&#x411;" horiz-adv-x="631" 
d="M50 675h483v-131h-340v-111h162q102 0 170 -62t68 -154q0 -93 -68 -155t-170 -62h-305v675zM193 302v-171h162q38 0 64 24.5t26 61.5q0 36 -26 60.5t-64 24.5h-162z" />
    <glyph glyph-name="uni0412" unicode="&#x412;" horiz-adv-x="655" 
d="M398 0h-348v675h329q91 0 152 -54q61 -52 61 -132q0 -83 -63 -135q91 -57 91 -160q0 -84 -64 -139t-158 -55zM397 283h-204v-152h204q31 0 52.5 22t21.5 54t-21.5 54t-52.5 22zM377 543h-184v-135h184q26 0 44.5 16t21.5 42q1 2 1 10q0 29 -19 48t-48 19z" />
    <glyph glyph-name="uni0413" unicode="&#x413;" horiz-adv-x="520" 
d="M193 544v-544h-143v675h449v-131h-306z" />
    <glyph glyph-name="uni0414" unicode="&#x414;" horiz-adv-x="789" 
d="M160 0v-164h-142v295h78q62 26 62 213v331h509v-544h104v-295h-143v164h-468zM262 131h263v413h-224v-195q0 -135 -39 -218z" />
    <glyph glyph-name="uni0415" unicode="&#x415;" horiz-adv-x="585" 
d="M50 675h501v-132h-358v-137h304v-131h-304v-144h363v-131h-506v675z" />
    <glyph glyph-name="uni0416" unicode="&#x416;" horiz-adv-x="985" 
d="M184 0h-176l271 345l-252 330h176l219 -287v287h143v-284l217 284h176l-251 -330l271 -345h-176l-237 301v-301h-143v303z" />
    <glyph glyph-name="uni0417" unicode="&#x417;" horiz-adv-x="625" 
d="M315 -12q-101 0 -174 44.5t-110 123.5l138 52q37 -84 145 -84q57 0 92.5 23.5t35.5 60.5q0 32 -24.5 54t-59.5 22h-126v122h123q31 0 52 19.5t21 47.5q0 35 -31.5 56t-83.5 21q-101 0 -139 -83l-138 51q37 80 108.5 124.5t170.5 44.5q114 0 187 -55q74 -56 74 -140
q0 -90 -76 -145q90 -59 90 -156q0 -87 -78 -146q-78 -57 -197 -57z" />
    <glyph glyph-name="uni0418" unicode="&#x418;" horiz-adv-x="700" 
d="M182 0h-132v675h143v-435l325 435h132v-675h-142v435z" />
    <glyph glyph-name="uni0419" unicode="&#x419;" horiz-adv-x="700" 
d="M182 0h-132v675h143v-435l325 435h132v-675h-142v435zM173 899h103q0 -34 22.5 -55.5t56.5 -21.5q33 0 55 21.5t22 55.5h104q0 -76 -52 -127q-51 -51 -128 -51q-78 0 -131 51q-52 51 -52 127z" />
    <glyph glyph-name="uni041A" unicode="&#x41a;" horiz-adv-x="637" 
d="M50 0v675h143v-285l236 285h181l-273 -330l292 -345h-181l-255 301v-301h-143z" />
    <glyph glyph-name="uni041B" unicode="&#x41b;" horiz-adv-x="682" 
d="M37 0h-29v131h29q44 -2 66.5 44.5t24.5 171.5v328h504v-675h-143v544h-218v-197q0 -175 -61.5 -261t-172.5 -86z" />
    <glyph glyph-name="uni041C" unicode="&#x41c;" horiz-adv-x="849" 
d="M191 0h-141v675h141l233 -412l234 412h141v-675h-141v410l-187 -336h-94l-186 334v-408z" />
    <glyph glyph-name="uni041D" unicode="&#x41d;" horiz-adv-x="694" 
d="M193 0h-143v675h143v-268h309v268h142v-675h-142v275h-309v-275z" />
    <glyph glyph-name="uni041E" unicode="&#x41e;" horiz-adv-x="775" 
d="M135 88q-101 101 -101 249t101 249q103 101 253 101q151 0 252 -101t101 -249t-101 -249q-100 -100 -252 -100t-253 100zM183 338q0 -91 58 -152t147 -61q88 0 146 61q59 62 59 152q0 89 -59 151q-58 61 -146 61q-89 0 -147 -61t-58 -151z" />
    <glyph glyph-name="uni041F" unicode="&#x41f;" horiz-adv-x="694" 
d="M193 544v-544h-143v675h594v-675h-142v544h-309z" />
    <glyph glyph-name="uni0420" unicode="&#x420;" horiz-adv-x="625" 
d="M193 227v-227h-143v675h305q103 0 171 -64q69 -64 69 -160q0 -95 -69 -160q-68 -64 -171 -64h-162zM355 543h-162v-185h162q39 0 65.5 26.5t26.5 66.5t-26.5 66t-65.5 26z" />
    <glyph glyph-name="uni0421" unicode="&#x421;" horiz-adv-x="734" 
d="M388 687q105 0 190 -51.5t128 -139.5l-138 -51q-27 49 -74 77t-106 28q-89 0 -147 -61t-58 -151q0 -91 58 -152t147 -61q59 0 106 28t74 77l138 -51q-43 -88 -128 -139.5t-190 -51.5q-152 0 -253 100q-101 101 -101 249t101 249q103 101 253 101z" />
    <glyph glyph-name="uni0422" unicode="&#x422;" horiz-adv-x="615" 
d="M236 543h-215v132h572v-132h-215v-543h-142v543z" />
    <glyph glyph-name="uni0423" unicode="&#x423;" horiz-adv-x="679" 
d="M278 187l-270 488h156l190 -347l165 347h152l-222 -467q-52 -108 -116.5 -158t-152.5 -50h-64v131h53q65 0 109 56z" />
    <glyph glyph-name="uni0424" unicode="&#x424;" horiz-adv-x="836" 
d="M34 338q0 119 90 200t223 83v66h142v-66q134 -2 223 -83q90 -81 90 -200q0 -120 -90 -202q-89 -80 -223 -82v-66h-142v66q-132 2 -223 82q-90 83 -90 202zM489 484v-293q71 0 117 42q48 43 48 105t-48 104q-46 42 -117 42zM347 191v293q-71 0 -117 -42q-47 -42 -47 -104
q0 -61 47 -105q46 -42 117 -42z" />
    <glyph glyph-name="uni0425" unicode="&#x425;" horiz-adv-x="680" 
d="M255 344l-238 331h170l153 -213l153 213h170l-238 -331l248 -344h-170l-163 226l-162 -226h-170z" />
    <glyph glyph-name="uni0426" unicode="&#x426;" horiz-adv-x="759" 
d="M50 0v675h143v-544h302v544h143v-544h104v-295h-143v164h-549z" />
    <glyph glyph-name="uni0427" unicode="&#x427;" horiz-adv-x="644" 
d="M318 239q-136 0 -213 60.5t-77 168.5v207h143v-207q0 -97 148 -97q67 0 132 16v288h143v-675h-143v254q-69 -15 -133 -15z" />
    <glyph glyph-name="uni0428" unicode="&#x428;" horiz-adv-x="998" 
d="M50 0v675h143v-544h229v544h143v-544h241v544h142v-675h-898z" />
    <glyph glyph-name="uni0429" unicode="&#x429;" horiz-adv-x="1070" 
d="M50 675h143v-544h229v544h143v-544h241v544h142v-544h104v-295h-143v164h-859v675z" />
    <glyph glyph-name="uni042A" unicode="&#x42a;" horiz-adv-x="804" 
d="M228 0v544h-207v131h349v-232h163q103 0 170 -63q68 -63 68 -158q0 -94 -68 -159q-67 -63 -170 -63h-305zM370 312v-181h163q38 0 64 26t26 65q0 38 -26 64t-64 26h-163z" />
    <glyph glyph-name="uni042B" unicode="&#x42b;" horiz-adv-x="850" 
d="M355 0h-305v675h143v-232h162q103 0 170 -63q68 -63 68 -158q0 -94 -68 -159q-67 -63 -170 -63zM800 0h-143v675h143v-675zM193 312v-181h162q38 0 64 26t26 65q0 36 -23.5 61.5t-58.5 28.5h-8h-162z" />
    <glyph glyph-name="uni042C" unicode="&#x42c;" horiz-adv-x="626" 
d="M50 0v675h143v-232h162q103 0 170 -63q68 -63 68 -158q0 -94 -68 -159q-67 -63 -170 -63h-305zM193 312v-181h162q36 0 61.5 23.5t28.5 58.5q0 44 -24 71.5t-66 27.5h-162z" />
    <glyph glyph-name="uni042D" unicode="&#x42d;" horiz-adv-x="734" 
d="M29 179l137 51q27 -49 74.5 -77t106.5 -28q72 0 126 42t71 111h-249v125h248q-19 66 -72 106.5t-124 40.5q-59 0 -106.5 -28t-74.5 -77l-137 51q43 88 128 139.5t190 51.5q152 0 252 -100q101 -101 101 -249q0 -149 -101 -250q-100 -100 -252 -100q-105 0 -190 51.5
t-128 139.5z" />
    <glyph glyph-name="uni042E" unicode="&#x42e;" horiz-adv-x="1021" 
d="M50 0v675h143v-268h94q22 123 118 202q96 78 228 78q152 0 252 -100q102 -101 102 -249q0 -149 -101 -250q-100 -100 -253 -100q-132 0 -230 80q-97 81 -118 207h-92v-275h-143zM633 125q88 0 146 61q59 62 59 152t-59 151q-58 61 -146 61t-146 -61q-59 -61 -59 -151
t59 -152q58 -61 146 -61z" />
    <glyph glyph-name="uni042F" unicode="&#x42f;" horiz-adv-x="650" 
d="M332 233l-138 -233h-159l149 253q-63 26 -99 79t-36 121q0 95 68 158q67 64 169 64h314v-675h-143v233h-125zM198 453q0 -38 25 -63.5t63 -25.5h171v180h-171q-38 0 -63 -26t-25 -65z" />
    <glyph glyph-name="uni0430" unicode="&#x430;" horiz-adv-x="528" 
d="M237 462q70 0 124 -42v30h129v-450h-129v31q-54 -42 -124 -42q-91 0 -152 67t-61 169t61 169q62 68 152 68zM159 226q0 -46 29 -77.5t71 -31.5t71 31.5t29 77.5q0 45 -29 76.5t-71 31.5t-71 -31.5t-29 -76.5z" />
    <glyph glyph-name="uni0431" unicode="&#x431;" horiz-adv-x="553" 
d="M31 337q0 154 66 237.5t201 102.5q107 21 127 57l53 -74q-9 -36 -52.5 -64t-104.5 -43q-157 -25 -166 -159q50 68 145 68q92 0 160 -69q67 -68 67 -169q0 -100 -68 -168q-67 -67 -168 -67q-111 0 -186 88q-74 89 -74 260zM395 225q0 47 -30 78.5t-74 31.5t-74 -31.5
t-30 -78.5t30 -78.5t74 -31.5t74 32t30 78z" />
    <glyph glyph-name="uni0432" unicode="&#x432;" horiz-adv-x="479" 
d="M39 450h248q65 0 109 -36t44 -89t-40 -87q61 -37 61 -99q0 -61 -45 -100q-44 -39 -112 -39h-265v450zM166 184v-69h131q20 -1 28.5 17t0 36t-28.5 16h-131zM284 335h-118v-59h118q28 0 29 27q0 32 -29 32z" />
    <glyph glyph-name="uni0433" unicode="&#x433;" horiz-adv-x="343" 
d="M166 329v-329h-127v450h297v-121h-170z" />
    <glyph glyph-name="uni0434" unicode="&#x434;" horiz-adv-x="585" 
d="M138 -136h-127v257h74q21 36 21 148v181h389v-329h79v-257h-126v136h-310v-136zM212 121h157v208h-137v-71q0 -79 -20 -137z" />
    <glyph glyph-name="uni0435" unicode="&#x435;" horiz-adv-x="519" 
d="M496 178h-335q11 -36 41 -57.5t69 -21.5q54 0 89 41l125 -29q-30 -57 -87.5 -89.5t-128.5 -32.5q-105 0 -175 67t-70 169q0 101 68 169q70 68 170 68q101 0 169 -68q69 -68 69 -169q0 -30 -4 -47zM161 275h207q-11 34 -40 55t-65 21q-34 0 -62.5 -21t-39.5 -55z" />
    <glyph glyph-name="uni0436" unicode="&#x436;" horiz-adv-x="700" 
d="M156 0h-149l164 233l-144 217h147l113 -170v170h126v-169l113 169h147l-144 -217l164 -233h-149l-131 187v-187h-126v188z" />
    <glyph glyph-name="uni0437" unicode="&#x437;" horiz-adv-x="461" 
d="M15 126l128 32q13 -49 85 -49q36 0 59.5 12.5t23.5 31.5q0 13 -10 21.5t-25 8.5h-96v93h91q13 0 22.5 7.5t9.5 18.5q0 16 -21.5 27.5t-51.5 11.5q-69 0 -85 -49l-127 32q17 62 76 100q61 38 141 38q84 0 142 -41q57 -41 57 -100q0 -55 -46 -89q54 -38 54 -98
q0 -62 -60 -104t-150 -42q-82 0 -141 37.5t-76 100.5z" />
    <glyph glyph-name="uni0438" unicode="&#x438;" horiz-adv-x="513" 
d="M346 236l-201 -236h-104v450h126v-240l201 240h104v-450h-126v236z" />
    <glyph glyph-name="uni0439" unicode="&#x439;" horiz-adv-x="513" 
d="M41 0v450h126v-240l201 240h104v-450h-126v236l-201 -236h-104zM96 676h101q0 -26 17.5 -44.5t42.5 -18.5t41.5 18.5t16.5 44.5h101q0 -68 -46 -114q-45 -46 -113 -46q-69 0 -115 46t-46 114z" />
    <glyph glyph-name="uni043A" unicode="&#x43a;" horiz-adv-x="481" 
d="M167 199v-199h-126v450h126v-182l136 182h152l-161 -217l180 -233h-154z" />
    <glyph glyph-name="uni043B" unicode="&#x43b;" horiz-adv-x="515" 
d="M49 0h-38v121h29q25 0 37 28q13 27 13 114v187h384v-450h-126v330h-132v-95q0 -119 -43.5 -177t-123.5 -58z" />
    <glyph glyph-name="uni043C" unicode="&#x43c;" horiz-adv-x="602" 
d="M167 215v-215h-126v450h126l134 -231l134 231h126v-450h-126v215l-95 -163h-78z" />
    <glyph glyph-name="uni043D" unicode="&#x43d;" horiz-adv-x="514" 
d="M167 168v-168h-126v450h126v-161h180v161h126v-450h-126v168h-180z" />
    <glyph glyph-name="uni043E" unicode="&#x43e;" horiz-adv-x="529" 
d="M92 56q-68 68 -68 169t68 169q70 68 172 68t172 -68q69 -68 69 -169t-69 -169q-68 -67 -172 -67t-172 67zM264 117q45 0 75.5 31t30.5 77t-30.5 77.5t-75.5 31.5q-44 0 -74.5 -31.5t-30.5 -77.5t30.5 -77t74.5 -31z" />
    <glyph glyph-name="uni043F" unicode="&#x43f;" horiz-adv-x="504" 
d="M167 330v-330h-126v450h422v-450h-126v330h-170z" />
    <glyph glyph-name="uni0440" unicode="&#x440;" horiz-adv-x="528" 
d="M167 -225h-129v675h129v-30q54 42 124 42q90 0 152 -68t62 -169t-62 -169q-61 -67 -152 -67q-70 0 -124 42v-256zM269 334q-41 0 -71 -32q-29 -32 -29 -78q0 -45 29.5 -76t70.5 -31q42 0 71 31t29 76q0 46 -29 78t-71 32z" />
    <glyph glyph-name="uni0441" unicode="&#x441;" horiz-adv-x="506" 
d="M492 307l-131 -39q-11 30 -37.5 48t-59.5 18q-44 0 -74.5 -31.5t-30.5 -76.5q0 -46 30.5 -77.5t74.5 -31.5q33 0 59.5 17.5t37.5 47.5l131 -38q-27 -71 -88 -113t-140 -42q-104 0 -172 67q-68 68 -68 169t68 169q70 68 172 68q78 0 140 -42.5t88 -112.5z" />
    <glyph glyph-name="uni0442" unicode="&#x442;" horiz-adv-x="419" 
d="M147 0v330h-139v120h404v-120h-139v-330h-126z" />
    <glyph glyph-name="uni0443" unicode="&#x443;" horiz-adv-x="480" 
d="M167 -22l9 25l-170 447h134l98 -277l102 277h134l-199 -515q-32 -83 -85 -121.5t-135 -38.5h-14v124h15q83 0 111 79z" />
    <glyph glyph-name="uni0444" unicode="&#x444;" horiz-adv-x="700" 
d="M430 -15h-17v-210h-126v210h-17q-102 0 -172 68q-68 70 -68 172q0 103 68 171q69 69 172 69h12h5v260h126v-260h6h11q104 0 171 -69q69 -68 69 -171t-69 -172q-68 -68 -171 -68zM270 339q-47 0 -78 -33t-31 -81t31.5 -81t77.5 -33q13 0 17 1v226q-4 1 -17 1zM431 339
q-14 0 -18 -1v-226q4 -1 18 -1q46 0 77 33t31 81t-31 81t-77 33z" />
    <glyph glyph-name="uni0445" unicode="&#x445;" horiz-adv-x="496" 
d="M338 0l-90 131l-90 -131h-152l164 232l-154 218h152l80 -117l80 117h152l-154 -218l164 -232h-152z" />
    <glyph glyph-name="uni0446" unicode="&#x446;" horiz-adv-x="550" 
d="M41 0v450h126v-329h166v329h126v-329h79v-260h-126v139h-371z" />
    <glyph glyph-name="uni0447" unicode="&#x447;" horiz-adv-x="477" 
d="M27 305v145h131v-141q0 -42 63 -42q15 0 90 8v175h125v-450h-125v155q-59 -7 -98 -7q-84 0 -135 43.5t-51 113.5z" />
    <glyph glyph-name="uni0448" unicode="&#x448;" horiz-adv-x="728" 
d="M41 0v450h126v-330h134v330h126v-330h135v330h125v-450h-646z" />
    <glyph glyph-name="uni0449" unicode="&#x449;" horiz-adv-x="778" 
d="M41 450h126v-330h134v330h126v-330h135v330h125v-329h80v-264h-126v143h-600v450z" />
    <glyph glyph-name="uni044A" unicode="&#x44a;" horiz-adv-x="572" 
d="M151 0v330h-144v120h270v-132h113q71 0 117 -46q47 -45 47 -113q0 -67 -47 -114q-47 -45 -117 -45h-239zM388 198h-111v-77h111q15 0 25 11t10 27q0 17 -10 28t-25 11z" />
    <glyph glyph-name="uni044B" unicode="&#x44b;" horiz-adv-x="647" 
d="M41 0v450h126v-132h114q70 0 116 -46q47 -45 47 -113q0 -67 -47 -114q-47 -45 -116 -45h-240zM606 0h-126v450h126v-450zM283 198h-3h-113v-77h113q12 -1 20.5 7t10.5 19.5t0 23t-9.5 19.5t-18.5 8z" />
    <glyph glyph-name="uni044C" unicode="&#x44c;" horiz-adv-x="463" 
d="M281 0h-240v450h126v-132h114q70 0 116 -46q47 -45 47 -113q0 -67 -47 -114q-47 -45 -116 -45zM167 198v-77h113q12 -1 20.5 7t10.5 19.5t0 23t-9.5 19.5t-18.5 8h-3h-113z" />
    <glyph glyph-name="uni044D" unicode="&#x44d;" horiz-adv-x="515" 
d="M19 140l128 37q13 -39 56 -54t86.5 0.5t57.5 55.5h-142v98h139q-30 59 -98 59q-33 0 -60 -17.5t-39 -45.5l-128 37q26 69 87.5 110.5t139.5 41.5q102 0 172 -68q69 -68 69 -169t-69 -169q-68 -67 -172 -67q-78 0 -139.5 41t-87.5 110z" />
    <glyph glyph-name="uni044E" unicode="&#x44e;" horiz-adv-x="727" 
d="M41 0v450h126v-161h70q20 77 82 124q63 48 146 48q100 0 168 -68t68 -168q0 -101 -68 -169q-67 -67 -168 -67q-84 0 -148 50q-62 49 -82 129h-68v-168h-126zM539 303q-30 32 -74 32t-74 -32q-30 -31 -30 -78t30 -79q30 -31 74 -31t74 31q30 32 30 79t-30 78z" />
    <glyph glyph-name="uni044F" unicode="&#x44f;" horiz-adv-x="491" 
d="M166 0h-147l104 147q-42 19 -66.5 57.5t-24.5 86.5q0 68 47 113q46 46 117 46h254v-450h-126v131h-65zM198 252h126v78h-126q-15 0 -25.5 -11.5t-10.5 -27.5t10.5 -27.5t25.5 -11.5z" />
    <glyph glyph-name="uni0450" unicode="&#x450;" horiz-adv-x="519" 
d="M496 178h-335q11 -36 41 -57.5t69 -21.5q54 0 89 41l125 -29q-30 -57 -87.5 -89.5t-128.5 -32.5q-105 0 -175 67t-70 169q0 101 68 169q70 68 170 68q101 0 169 -68q69 -68 69 -169q0 -30 -4 -47zM161 275h207q-11 34 -40 55t-65 21q-34 0 -62.5 -21t-39.5 -55zM314 528
l-206 92l58 104l189 -125z" />
    <glyph glyph-name="uni0451" unicode="&#x451;" horiz-adv-x="519" 
d="M496 178h-335q11 -36 41 -57.5t69 -21.5q54 0 89 41l125 -29q-30 -57 -87.5 -89.5t-128.5 -32.5q-105 0 -175 67t-70 169q0 101 68 169q70 68 170 68q101 0 169 -68q69 -68 69 -169q0 -30 -4 -47zM161 275h207q-11 34 -40 55t-65 21q-34 0 -62.5 -21t-39.5 -55zM165 529
q-32 0 -52.5 20.5t-20.5 51.5t21 51.5t52 20.5t51.5 -20.5t20.5 -51.5t-20.5 -51.5t-51.5 -20.5zM312 549q-20 21 -20 52t20 51q21 21 52 21t51 -21q21 -20 21 -51t-21 -52q-20 -20 -51 -20t-52 20z" />
    <glyph glyph-name="uni0452" unicode="&#x452;" horiz-adv-x="513" 
d="M174 725v-96h137v-96h-137v-129q49 58 127 58q74 0 124 -50t50 -123v-365q0 -63 -49 -106q-47 -43 -119 -43h-45v124h34q21 0 35.5 12.5t14.5 31.5v312q0 37 -24.5 61.5t-61.5 24.5t-61.5 -24.5t-24.5 -61.5v-255h-129v533h-41v96h41v96h129z" />
    <glyph glyph-name="uni0453" unicode="&#x453;" horiz-adv-x="343" 
d="M166 329v-329h-127v450h297v-121h-170zM342 620l-206 -92l-41 71l188 125z" />
    <glyph glyph-name="uni0454" unicode="&#x454;" horiz-adv-x="515" 
d="M269 -11q-104 0 -172 67q-69 68 -69 169t69 169q70 68 172 68q79 0 140 -41.5t86 -110.5l-127 -37q-12 28 -39 45.5t-60 17.5q-67 0 -98 -59h150v-98h-153q14 -40 57.5 -55.5t86.5 -0.5t56 54l127 -37q-25 -69 -86.5 -110t-139.5 -41z" />
    <glyph glyph-name="uni0455" unicode="&#x455;" horiz-adv-x="418" 
d="M391 339l-119 -20q-12 38 -67 38q-52 0 -52 -29q0 -18 36 -30l80 -26q69 -22 99 -54.5t30 -83.5q0 -70 -50 -107.5t-136 -37.5q-84 0 -134 35t-59 99l119 17q10 -45 77 -45q26 0 42.5 9t16.5 24q0 22 -45 35l-82 24q-63 18 -91 48.5t-28 81.5q0 72 49 108.5t133 36.5
q78 0 125.5 -32.5t55.5 -90.5z" />
    <glyph glyph-name="uni0456" unicode="&#x456;" horiz-adv-x="205" 
d="M168 0h-130v450h130v-450zM45 537q-22 22 -22 58q0 35 22 57q23 23 58 23q34 0 57 -23t23 -57q0 -35 -23 -58q-22 -22 -57 -22q-36 0 -58 22z" />
    <glyph glyph-name="uni0457" unicode="&#x457;" horiz-adv-x="213" 
d="M171 0h-129v450h129v-450zM-26 550q-20 21 -20 51t20 50q20 21 49 21t48 -21q20 -20 20 -50t-20 -51q-19 -20 -48 -20t-49 20zM141 550q-20 21 -20 51t20 50q20 21 49 21t48 -21q20 -20 20 -50t-20 -51q-19 -20 -48 -20t-49 20z" />
    <glyph glyph-name="uni0458" unicode="&#x458;" horiz-adv-x="210" 
d="M43 450h129v-526q0 -63 -49 -106q-47 -43 -119 -43h-45v124h34q21 0 35.5 12.5t14.5 31.5v507zM108 675q34 0 57 -23t23 -57t-23 -57t-57 -23q-35 0 -58 23t-23 57t23 57t58 23z" />
    <glyph glyph-name="uni0459" unicode="&#x459;" horiz-adv-x="770" 
d="M49 0h-38v121h29q25 0 37 28q13 27 13 114v187h384v-132h115q70 0 116 -46q47 -45 47 -113q0 -67 -47 -114q-47 -45 -116 -45h-240v330h-133v-95q0 -119 -43.5 -177t-123.5 -58zM587 198h-113v-77h113q21 -1 29.5 18.5t0 39.5t-29.5 19z" />
    <glyph glyph-name="uni045A" unicode="&#x45a;" horiz-adv-x="769" 
d="M41 0v450h126v-154h180v154h126v-140h114q69 0 116 -44t47 -111t-47 -111t-116 -44h-240v176h-180v-176h-126zM473 190v-69h112q21 -2 29.5 16t0 36t-29.5 17h-112z" />
    <glyph glyph-name="uni045B" unicode="&#x45b;" horiz-adv-x="513" 
d="M174 725v-96h137v-96h-137v-129q49 58 127 58q74 0 124 -50t50 -123v-289h-129v255q0 37 -24.5 61.5t-61.5 24.5t-61.5 -24.5t-24.5 -61.5v-255h-129v533h-41v96h41v96h129z" />
    <glyph glyph-name="uni045C" unicode="&#x45c;" horiz-adv-x="481" 
d="M167 199v-199h-126v450h126v-182l136 182h152l-161 -217l180 -233h-154zM381 620l-206 -92l-42 71l189 125z" />
    <glyph glyph-name="uni045D" unicode="&#x45d;" horiz-adv-x="513" 
d="M346 236l-201 -236h-104v450h126v-240l201 240h104v-450h-126v236zM348 599l-42 -71l-206 92l59 104z" />
    <glyph glyph-name="uni045E" unicode="&#x45e;" horiz-adv-x="480" 
d="M176 3l-170 447h134l98 -277l102 277h134l-199 -515q-32 -83 -85 -121.5t-135 -38.5h-14v124h15q83 0 111 79zM80 676h101q0 -26 17 -44.5t42 -18.5t42 18.5t17 44.5h101q0 -68 -46 -114t-114 -46t-114 46t-46 114z" />
    <glyph glyph-name="uni045F" unicode="&#x45f;" horiz-adv-x="500" 
d="M41 0v450h126v-329h166v329h126v-450h-147v-139h-126v139h-145z" />
    <glyph glyph-name="uni0490" unicode="&#x490;" horiz-adv-x="501" 
d="M193 544v-544h-143v675h287v140h143v-271h-287z" />
    <glyph glyph-name="uni0491" unicode="&#x491;" horiz-adv-x="353" 
d="M167 330v-330h-126v450h178v105h126v-225h-178z" />
    <glyph glyph-name="uni04D8" unicode="&#x4d8;" horiz-adv-x="773" 
d="M388 687q152 0 252 -100q101 -101 101 -249q0 -149 -101 -250q-100 -100 -252 -100t-253 100q-101 101 -101 250q0 23 5 60h548q-19 68 -73.5 110t-125.5 42q-91 0 -151 -63l-141 55q48 69 124 107t168 38zM584 267h-393q21 -64 74.5 -103t122.5 -39t122 39t74 103z" />
    <glyph glyph-name="uni04D9" unicode="&#x4d9;" horiz-adv-x="519" 
d="M23 272h336q-12 36 -42 57.5t-69 21.5q-54 0 -88 -40l-125 29q30 57 86.5 89.5t127.5 32.5q105 0 176 -68t71 -169t-69 -169q-67 -67 -170 -67q-100 0 -170 68q-68 68 -68 168q0 30 4 47zM358 176h-207q12 -35 40.5 -56t64.5 -21q34 0 62 21t40 56z" />
    <glyph glyph-name="Wgrave" unicode="&#x1e80;" horiz-adv-x="968" 
d="M352 0h-117l-227 675h146l138 -446l134 446h117l135 -445l137 445h146l-227 -675h-117l-132 427zM386 932l189 -125l-41 -71l-207 92z" />
    <glyph glyph-name="wgrave" unicode="&#x1e81;" horiz-adv-x="674" 
d="M148 0l-142 450h131l70 -251l71 251h119l71 -249l69 249h131l-142 -450h-119l-69 236l-71 -236h-119zM239 724l189 -125l-41 -71l-206 92z" />
    <glyph glyph-name="Wacute" unicode="&#x1e82;" horiz-adv-x="968" 
d="M352 0h-117l-227 675h146l138 -446l134 446h117l135 -445l137 445h146l-227 -675h-117l-132 427zM639 828l-206 -92l-42 71l189 125z" />
    <glyph glyph-name="wacute" unicode="&#x1e83;" horiz-adv-x="674" 
d="M267 0h-119l-142 450h131l70 -251l71 251h119l71 -249l69 249h131l-142 -450h-119l-69 236zM492 620l-206 -92l-41 71l189 125z" />
    <glyph glyph-name="Wdieresis" unicode="&#x1e84;" horiz-adv-x="968" 
d="M352 0h-117l-227 675h146l138 -446l134 446h117l135 -445l137 445h146l-227 -675h-117l-132 427zM333 861q21 21 52 21t51 -21q21 -21 21 -52t-21 -52q-20 -20 -51 -20t-52 20q-21 21 -21 52t21 52zM512 815q1 14 5 21q18 46 67 46q31 0 51.5 -21t20.5 -52t-20.5 -51.5
t-51.5 -20.5q-33 0 -52.5 22t-19.5 56z" />
    <glyph glyph-name="wdieresis" unicode="&#x1e85;" horiz-adv-x="674" 
d="M267 0h-119l-142 450h131l70 -251l71 251h119l71 -249l69 249h131l-142 -450h-119l-69 236zM238 529q-32 0 -52.5 20.5t-20.5 51.5t21 51.5t52 20.5t51.5 -20.5t20.5 -51.5t-20.5 -51.5t-51.5 -20.5zM385 652q21 21 52 21t51 -21q21 -20 21 -51t-21 -52q-20 -20 -51 -20
t-52 20q-20 21 -20 52t20 51z" />
    <glyph glyph-name="Germandbls" unicode="&#x1e9e;" horiz-adv-x="623" 
d="M190 427v-427h-140v430q0 104 75 175q76 70 190 70h263v-99l-91 -160q48 -20 79 -73q33 -52 33 -115q0 -102 -87 -171q-86 -69 -214 -69l-1 140q65 0 111 29q45 29 45 73t-47 74q-46 30 -115 30l119 208h-85q-57 0 -96 -33t-39 -82z" />
    <glyph glyph-name="Ygrave" unicode="&#x1ef2;" horiz-adv-x="669" 
d="M262 0v277l-254 398h163l161 -265l166 265h163l-257 -394v-281h-142zM426 807l-42 -71l-206 92l59 104z" />
    <glyph glyph-name="ygrave" unicode="&#x1ef3;" horiz-adv-x="480" 
d="M176 3l-170 447h134l98 -277l102 277h134l-199 -515q-32 -83 -85 -121.5t-135 -38.5h-14v124h15q83 0 111 79zM290 528l-207 92l59 104l189 -125z" />
    <glyph glyph-name="figuredash" unicode="&#x2012;" 
d="M60 278v120h480v-120h-480z" />
    <glyph glyph-name="endash" unicode="&#x2013;" 
d="M55 168v114h490v-114h-490z" />
    <glyph glyph-name="emdash" unicode="&#x2014;" horiz-adv-x="1000" 
d="M55 168v114h890v-114h-890z" />
    <glyph glyph-name="quoteleft" unicode="&#x2018;" horiz-adv-x="212" 
d="M28 579q0 28 11.5 55t26 45.5t32 34t27 21.5t13.5 8l39 -40q-52 -49 -52 -75q26 -5 43 -26.5t17 -49.5q0 -31 -21 -51.5t-53 -20.5q-36 0 -59.5 28.5t-23.5 70.5z" />
    <glyph glyph-name="quoteright" unicode="&#x2019;" horiz-adv-x="212" 
d="M184 638q0 -57 -38.5 -102.5t-67.5 -59.5l-4 -3l-38 41q51 50 51 75q-26 5 -43 26t-17 49q0 31 21.5 52t52.5 21q37 0 60 -28t23 -71z" />
    <glyph glyph-name="quotesinglbase" unicode="&#x201a;" horiz-adv-x="212" 
d="M184 36q0 -28 -11.5 -55t-26 -45.5t-32 -34t-27 -21.5t-13.5 -8l-38 40q51 50 51 75q-26 5 -43 26.5t-17 49.5q0 31 21 51.5t53 20.5q37 0 60 -28t23 -71z" />
    <glyph glyph-name="quotereversed" unicode="&#x201b;" horiz-adv-x="212" 
d="M28 641q0 41 23.5 68.5t59.5 27.5q32 0 53 -21t21 -52q0 -28 -17 -49t-43 -26q0 -18 39 -55l13 -11l-39 -40q-4 2 -13 8t-27 21t-32.5 32.5t-26 43.5t-11.5 53z" />
    <glyph glyph-name="quotedblleft" unicode="&#x201c;" horiz-adv-x="392" 
d="M207 579q0 90 110 164l39 -40q-51 -49 -51 -75q26 -5 43 -26.5t17 -49.5q0 -31 -21.5 -51.5t-53.5 -20.5q-36 0 -59.5 28.5t-23.5 70.5zM28 579q0 28 11.5 55t26 45.5t32 34t27 21.5t13.5 8l39 -40q-52 -49 -52 -75q26 -5 43 -26.5t17 -49.5q0 -31 -21 -51.5t-53 -20.5
q-36 0 -59.5 28.5t-23.5 70.5z" />
    <glyph glyph-name="quotedblright" unicode="&#x201d;" horiz-adv-x="392" 
d="M184 638q0 -57 -38.5 -102.5t-67.5 -59.5l-4 -3l-38 41q51 50 51 75q-26 5 -43 26t-17 49q0 31 21.5 52t52.5 21q37 0 60 -28t23 -71zM364 638q0 -55 -35.5 -98.5t-67.5 -61.5l-7 -5l-39 41q52 49 52 75q-26 5 -43 26t-17 49q0 31 21 52t53 21q36 0 59.5 -28.5
t23.5 -70.5z" />
    <glyph glyph-name="quotedblbase" unicode="&#x201e;" horiz-adv-x="392" 
d="M184 36q0 -28 -11.5 -55t-26 -45.5t-32 -34t-27 -21.5t-13.5 -8l-38 40q51 50 51 75q-26 5 -43 26.5t-17 49.5q0 31 21 51.5t53 20.5q37 0 60 -28t23 -71zM364 36q0 -90 -110 -164l-39 40q52 49 52 75q-26 5 -43 26.5t-17 49.5q0 31 21 51.5t53 20.5q36 0 59.5 -28.5
t23.5 -70.5z" />
    <glyph glyph-name="uni201F" unicode="&#x201f;" horiz-adv-x="392" 
d="M207 641q0 41 23.5 68.5t59.5 27.5q32 0 53.5 -21t21.5 -52q0 -28 -17 -49t-43 -26q0 -19 38 -55l13 -11l-39 -40q-110 74 -110 158zM28 641q0 41 23.5 68.5t59.5 27.5q32 0 53 -21t21 -52q0 -28 -17 -49t-43 -26q0 -18 39 -55l13 -11l-39 -40q-4 2 -13 8t-27 21
t-32.5 32.5t-26 43.5t-11.5 53z" />
    <glyph glyph-name="dagger" unicode="&#x2020;" horiz-adv-x="442" 
d="M16 399v95h154v181h102v-181h154v-95h-154v-499h-102v499h-154z" />
    <glyph glyph-name="daggerdbl" unicode="&#x2021;" horiz-adv-x="442" 
d="M172 82h-156v94h156v223h-156v93h156v183h98v-183h156v-93h-156v-223h156v-94h-156v-182h-98v182z" />
    <glyph glyph-name="bullet" unicode="&#x2022;" horiz-adv-x="335" 
d="M167 367q60 0 101 -41t41 -101q0 -61 -41 -102q-40 -40 -101 -40t-101 40t-40 102q0 61 40 101q41 41 101 41z" />
    <glyph glyph-name="ellipsis" unicode="&#x2026;" horiz-adv-x="610" 
d="M26 65q0 32 21.5 53.5t53.5 21.5q33 0 54.5 -21.5t21.5 -53.5q0 -33 -21.5 -54.5t-54.5 -21.5q-32 0 -53.5 21.5t-21.5 54.5zM229 65q0 32 22 53.5t54 21.5t53.5 -21.5t21.5 -53.5q0 -33 -21.5 -54.5t-53.5 -21.5t-54 21.5t-22 54.5zM432 65q0 32 22 53.5t54 21.5
t54 -21.5t22 -53.5q0 -33 -22 -54.5t-54 -21.5t-54 21.5t-22 54.5z" />
    <glyph glyph-name="perthousand" unicode="&#x2030;" horiz-adv-x="1248" 
d="M207 0l-73 61l516 614l73 -61zM205 687q77 0 128 -52q52 -52 52 -129t-52 -129q-51 -52 -128 -52q-76 0 -128 52q-51 53 -51 129t51 129q52 52 128 52zM158 553q-19 -19 -19 -47t19 -47t47 -19t47 19t19 47t-19 47t-47 19t-47 -19zM469 169q0 77 51 129q52 52 128 52
q77 0 128 -52q52 -52 52 -129q0 -78 -52 -130q-51 -51 -128 -51q-76 0 -128 51q-51 52 -51 130zM601 216q-19 -19 -19 -47t19 -47t47 -19t47 19t19 47t-19 47t-47 19t-47 -19zM864 169q0 77 51 129q52 52 128 52q77 0 128 -52t51 -129t-51 -130q-51 -51 -128 -51
q-75 0 -128 51q-51 52 -51 130zM996 216q-19 -19 -19 -47t19 -47t47 -19t47 19t19 47t-19 47t-47 19t-47 -19z" />
    <glyph glyph-name="guilsinglleft" unicode="&#x2039;" horiz-adv-x="314" 
d="M206 39l-185 186l185 186l76 -76l-110 -110l110 -110z" />
    <glyph glyph-name="guilsinglright" unicode="&#x203a;" horiz-adv-x="314" 
d="M108 411l186 -186l-186 -186l-76 76l110 110l-110 110z" />
    <glyph glyph-name="fraction" unicode="&#x2044;" horiz-adv-x="587" 
d="M114 0h-114l473 675h114z" />
    <glyph glyph-name="Euro" unicode="&#x20ac;" horiz-adv-x="788" 
d="M89 369h-72v90h91q36 103 126 165q92 63 207 63q105 0 190.5 -51.5t128.5 -139.5l-139 -51q-27 49 -74 77t-106 28q-112 0 -170 -91h202v-90h-235q-2 -26 -2 -31q0 -6 2 -32h235v-90h-202q58 -91 170 -91q59 0 106 28t74 77l139 -51q-43 -88 -128.5 -139.5t-190.5 -51.5
q-116 0 -207 62q-89 64 -125 166h-92v90h72q-2 34 0 63z" />
    <glyph glyph-name="uni20B4" unicode="&#x20b4;" horiz-adv-x="614" 
d="M240 364h-209v90h354q28 22 28 44q0 24 -26 41t-64 17q-36 0 -64 -17.5t-34 -42.5l-142 34q18 69 84 112q68 45 158 45q98 0 164 -51q67 -51 67 -122q0 -28 -15 -60h41v-90h-139q-10 -7 -82 -47h221v-89h-355q-28 -25 -28 -45q0 -26 32 -44.5t77 -18.5q48 0 83 21.5
t42 52.5l143 -35q-21 -75 -94 -123q-72 -48 -173 -48q-107 0 -180 53q-72 54 -72 130q0 30 12 57h-38v89h131q40 29 78 47z" />
    <glyph glyph-name="uni2113" unicode="&#x2113;" horiz-adv-x="479" 
d="M107 183l-71 -33v126q31 13 71 37v236q0 82 44 135t112 53q69 0 114 -53q46 -52 46 -131q0 -158 -197 -298v-102q0 -45 41 -45q21 0 44 15.5t35 34.5l12 16l75 -75q-22 -28 -32 -38q-18 -19 -37 -34q-50 -38 -107 -38q-64 0 -107 49t-43 121v24zM226 556v-156
q78 76 78 151q0 29 -11 47.5t-29 18.5q-17 0 -27.5 -17t-10.5 -44z" />
    <glyph glyph-name="uni2116" unicode="&#x2116;" horiz-adv-x="1096" 
d="M187 430v-430h-137v675h127l336 -430v430h137v-675h-126zM1010 377q-51 -51 -128 -51t-128 51q-51 53 -51 129t51 129q52 52 128 52t127 -52q52 -52 52 -129q0 -76 -51 -129zM1047 164h-331v113h331v-113zM834 553q-19 -19 -19 -47t19 -47q20 -18 48 -18t47 18
q19 19 19 47t-19 47q-19 20 -47 20t-48 -20z" />
    <glyph glyph-name="uni2117" unicode="&#x2117;" horiz-adv-x="760" 
d="M34 338q0 143 101 244q102 102 245 102q144 0 244 -102q102 -101 102 -244q0 -144 -102 -246q-101 -101 -244 -101q-142 0 -245 101q-101 103 -101 246zM380 41q122 0 209 87t87 210q0 122 -87 209t-209 87q-123 0 -210 -87q-86 -88 -86 -209q0 -122 86 -210
q87 -87 210 -87zM342 151h-85v374h170q60 0 98 -37q39 -36 39 -91q0 -54 -40 -91q-38 -37 -97 -37h-85v-118zM427 446h-85v-97h85q21 0 34.5 13.5t13.5 34.5t-13.5 35t-34.5 14z" />
    <glyph glyph-name="trademark" unicode="&#x2122;" horiz-adv-x="727" 
d="M401 338h-74v337h74l114 -201l115 201h73v-337h-73v200l-90 -164h-50l-89 162v-198zM114 338v268h-105v69h285v-69h-105v-268h-75z" />
    <glyph glyph-name="estimated" unicode="&#x212e;" horiz-adv-x="758" 
d="M723 338h-534v-240q84 -66 190 -66q86 0 157.5 44t113.5 120h42q-40 -91 -127 -148q-85 -55 -186 -55q-141 0 -244 101q-101 101 -101 244q0 142 101 243t244 101q142 0 243 -101t101 -243zM189 577v-201h380v201q-84 66 -190 66t-190 -66z" />
    <glyph glyph-name="uni2150" unicode="&#x2150;" horiz-adv-x="824" 
d="M203 0h-111l474 675h110zM544 372h268v-81l-133 -291h-93l136 295h-178v77zM110 579l-61 -29l-31 70l116 55h59v-371h-83v275z" />
    <glyph glyph-name="uni2151" unicode="&#x2151;" horiz-adv-x="817" 
d="M515 69l74 34q16 -28 60 -28q30 0 49 14.5t19 35.5v32q-21 -29 -66 -29q-55 0 -94 36t-39 89t40 87q40 36 101 36t101 -35t40 -87v-127q0 -57 -43 -94q-43 -38 -106 -38q-46 0 -82.5 20t-53.5 54zM203 0h-111l474 675h110zM49 550l-31 70l116 55h59v-371h-83v275z
M698 283q-16 13 -39 13t-39 -12q-15 -12 -15 -31t15 -32q16 -13 39 -13t39 12q16 13 16 32t-16 31z" />
    <glyph glyph-name="uni2152" unicode="&#x2152;" horiz-adv-x="1088" 
d="M924 -5q-61 0 -104 38q-41 39 -41 97v112q0 57 41 95q42 39 104 39q64 0 104 -39q42 -37 42 -95v-112q0 -58 -42 -97q-41 -38 -104 -38zM203 0h-111l474 675h110zM568 247l-31 70l116 55h59v-372h-83v276zM49 550l-31 70l116 55h59v-371h-83v275zM862 243v-114
q0 -23 18 -38.5t44 -15.5q27 0 45 15.5t18 38.5v114q0 23 -18 38t-45 15q-26 0 -44 -15.5t-18 -37.5z" />
    <glyph glyph-name="onethird" unicode="&#x2153;" horiz-adv-x="821" 
d="M676 675l-473 -675h-111l474 675h110zM662 -5q-51 0 -89.5 24.5t-52.5 66.5l78 27q4 -17 20.5 -27.5t40.5 -10.5q25 0 42 12t17 30t-17 30t-41 12h-28v62h18q24 0 40.5 10.5t16.5 27.5q0 16 -14.5 26.5t-38.5 10.5q-44 0 -56 -30l-74 26q16 37 53 60.5t83 23.5
q57 0 95.5 -33t38.5 -83q0 -41 -41 -67q51 -25 51 -78q0 -52 -40.5 -86t-101.5 -34zM49 550l-31 70l116 55h59v-371h-83v275z" />
    <glyph glyph-name="twothirds" unicode="&#x2154;" horiz-adv-x="886" 
d="M198 561q0 16 -14 27.5t-34 11.5q-42 0 -63 -49l-77 38q20 42 57 66t83 24q58 0 96 -34q39 -33 39 -81q0 -56 -81 -130l-55 -51h139v-79h-267v60l132 125q45 41 45 72zM268 0h-111l474 675h110zM772 259q0 16 -14.5 26.5t-38.5 10.5q-43 0 -56 -30l-74 26q16 37 53 60.5
t83 23.5q57 0 95.5 -33t38.5 -83q0 -41 -41 -67q51 -25 51 -78q0 -52 -40.5 -86t-101.5 -34q-51 0 -89.5 24.5t-52.5 66.5l78 27q4 -17 20.5 -27.5t40.5 -10.5q25 0 42 12t17 30t-17 30t-41 12h-28v62h18q24 0 40.5 10.5t16.5 27.5z" />
    <glyph glyph-name="uni2155" unicode="&#x2155;" horiz-adv-x="826" 
d="M676 675l-473 -675h-111l474 675h110zM521 97l83 23q16 -45 62 -45q24 0 40.5 14t16.5 34q0 22 -19.5 36.5t-48.5 14.5h-106l20 198h207v-77h-138l-5 -46h43q58 0 95 -36q38 -36 38 -89q0 -54 -41 -92q-40 -37 -102 -37q-52 0 -91.5 28t-53.5 74zM49 550l-31 70l116 55
h59v-371h-83v275z" />
    <glyph glyph-name="uni2156" unicode="&#x2156;" horiz-adv-x="891" 
d="M198 561q0 16 -14 27.5t-34 11.5q-42 0 -63 -49l-77 38q20 42 57 66t83 24q58 0 96 -34q39 -33 39 -81q0 -56 -81 -130l-55 -51h139v-79h-267v60l132 125q45 41 45 72zM268 0h-111l474 675h110zM874 124q0 -54 -41 -92q-40 -37 -102 -37q-52 0 -91.5 28t-53.5 74l83 23
q17 -45 62 -45q24 0 40.5 14t16.5 34q0 22 -19.5 36.5t-48.5 14.5h-106l21 198h207v-77h-139l-5 -46h44q56 0 94 -36t38 -89z" />
    <glyph glyph-name="uni2157" unicode="&#x2157;" horiz-adv-x="909" 
d="M200 563q0 15 -15 26t-38 11q-43 0 -57 -30l-74 25q16 38 53 61t84 23q57 0 95.5 -32.5t38.5 -82.5q0 -44 -41 -67q50 -26 50 -79q0 -52 -40.5 -85.5t-101.5 -33.5q-52 0 -90 25t-51 66l77 27q4 -17 20.5 -28t40.5 -11q25 0 42 12.5t17 30.5q0 17 -16.5 29t-41.5 12h-28
v62h18q24 0 41 11t17 28zM285 0h-110l473 675h111zM892 124q0 -54 -41 -92q-40 -37 -102 -37q-53 0 -92.5 28t-53.5 74l84 23q17 -45 61 -45q25 0 41 14t16 34q0 22 -19 36.5t-48 14.5h-106l20 198h207v-77h-139l-5 -46h44q57 0 94 -36q39 -36 39 -89z" />
    <glyph glyph-name="uni2158" unicode="&#x2158;" horiz-adv-x="922" 
d="M298 0h-110l473 675h111zM15 371v80l188 224h79v-225h43v-79h-43v-67h-84v67h-183zM616 97l84 23q16 -45 61 -45q25 0 41.5 14t16.5 34q0 22 -19.5 36.5t-48.5 14.5h-106l20 198h207v-77h-139l-5 -46h44q58 0 95 -36q38 -36 38 -89q0 -54 -41 -92q-40 -37 -102 -37
q-53 0 -92.5 28t-53.5 74zM198 551l-84 -101h84v101z" />
    <glyph glyph-name="uni2159" unicode="&#x2159;" horiz-adv-x="826" 
d="M526 117v128q0 55 41 93q43 38 104 38q45 0 81 -20.5t53 -55.5l-75 -35q-18 31 -58 31q-27 0 -45 -14.5t-18 -35.5v-33q24 27 68 27q55 0 94 -36q40 -34 40 -87q0 -52 -41 -87t-102 -35t-101.5 35t-40.5 87zM676 675l-473 -675h-111l474 675h110zM110 579l-61 -29l-31 70
l116 55h59v-371h-83v275zM724 118q0 18 -16 30.5t-40 12.5t-39.5 -12.5t-15.5 -30.5q-3 -26 26 -37t58 -0.5t27 37.5z" />
    <glyph glyph-name="uni215A" unicode="&#x215a;" horiz-adv-x="887" 
d="M785 118q0 18 -15.5 30.5t-39.5 12.5t-40 -12.5t-16 -30.5q-2 -26 27 -37t58 -0.5t26 37.5zM866 300l-75 -35q-18 31 -57 31q-27 0 -45 -14.5t-18 -35.5v-33q23 27 67 27q55 0 94 -36q40 -34 40 -87q0 -52 -41 -87t-101 -35q-61 0 -102 35t-41 87v128q0 55 42 93
q43 38 104 38q45 0 80 -20t53 -56zM302 427q0 -55 -41 -91.5t-102 -36.5q-53 0 -92.5 28t-53.5 74l84 22q17 -45 61 -45q25 0 41 14t16 34q0 22 -19 36.5t-48 14.5h-106l20 198h207v-76h-139l-5 -46h44q57 0 94 -37q39 -36 39 -89zM738 675l-474 -675h-110l474 675h110z" />
    <glyph glyph-name="oneeighth" unicode="&#x215b;" horiz-adv-x="827" 
d="M524 108q0 54 48 85q-40 30 -40 77q0 45 38.5 75.5t96.5 30.5t96.5 -30.5t38.5 -75.5q0 -47 -40 -77q48 -35 48 -87q0 -47 -41 -79t-102 -32t-102 32q-41 33 -41 81zM203 0h-111l474 675h110zM110 579l-61 -29l-31 70l116 55h59v-371h-83v275zM707 142q-15 11 -40 11
t-41 -11q-15 -10 -15 -27t15 -29q16 -11 41 -11t40 11q16 11 16 28t-16 28zM619 264q-2 -21 23 -29.5t50 0t23 29.5q2 20 -23 28t-50 0t-23 -28z" />
    <glyph glyph-name="threeeighths" unicode="&#x215c;" horiz-adv-x="916" 
d="M607 108q0 54 48 85q-40 30 -40 77q0 45 38.5 75.5t96.5 30.5q57 0 95.5 -30.5t38.5 -75.5q0 -47 -40 -77q48 -35 48 -87q0 -47 -41 -79t-101 -32q-62 0 -102.5 32.5t-40.5 80.5zM759 675l-474 -675h-110l473 675h111zM154 299q-52 0 -90 25t-51 66l77 27q4 -17 20.5 -28
t40.5 -11q25 0 42 12.5t17 30.5q0 17 -16.5 29t-41.5 12h-28v62h18q24 0 41 11t17 28q0 15 -15 26t-38 11q-43 0 -57 -30l-74 25q16 38 53 61t84 23q57 0 95.5 -32.5t38.5 -82.5q0 -44 -41 -67q50 -26 50 -79q0 -52 -40.5 -85.5t-101.5 -33.5zM750 153q-25 0 -41 -10.5
t-16 -27.5t16 -28.5t41 -11.5q24 0 40 11t16 28t-16 28t-40 11zM701 264q0 -15 14 -24.5t35 -9.5q20 0 33.5 9.5t13.5 24.5q0 14 -13.5 23t-33.5 9q-21 0 -35 -9t-14 -23z" />
    <glyph glyph-name="fiveeighths" unicode="&#x215d;" horiz-adv-x="896" 
d="M729 75q24 0 40 11t16 28t-16 28t-40 11q-25 0 -41 -10.5t-16 -27.5t16 -28.5t41 -11.5zM681 264q0 -15 13.5 -24.5t34.5 -9.5q20 0 33.5 9.5t13.5 24.5q0 14 -13.5 23t-33.5 9q-21 0 -34.5 -9t-13.5 -23zM594 270q0 45 38.5 75.5t96.5 30.5q57 0 95.5 -30.5t38.5 -75.5
q0 -47 -40 -77q49 -34 49 -87q0 -47 -41 -79t-102 -32q-62 0 -102.5 32.5t-40.5 80.5q0 54 48 85q-40 30 -40 77zM302 427q0 -55 -41 -91.5t-102 -36.5q-53 0 -92.5 28t-53.5 74l84 22q17 -45 61 -45q25 0 41 14t16 34q0 22 -19 36.5t-48 14.5h-106l20 198h207v-76h-139
l-5 -46h44q57 0 94 -37q39 -36 39 -89zM738 675l-474 -675h-110l474 675h110z" />
    <glyph glyph-name="seveneighths" unicode="&#x215e;" horiz-adv-x="852" 
d="M644 142q-15 -10 -15 -27t15 -29q16 -11 41 -11t40 11q16 11 16 28t-16 28q-15 11 -40 11t-41 -11zM637 264q-2 -21 23 -29.5t50 0t23 29.5q2 20 -23 28t-50 0t-23 -28zM550 270q0 45 38.5 75.5t96.5 30.5t96 -30.5t38 -75.5q0 -46 -39 -77q48 -35 48 -87q0 -47 -41 -79
t-102 -32t-102 32q-41 33 -41 81q0 54 48 85q-40 30 -40 77zM51 304l137 295h-179v76h268v-81l-133 -290h-93zM694 675l-473 -675h-111l474 675h110z" />
    <glyph glyph-name="uni215F" unicode="&#x215f;" horiz-adv-x="676" 
d="M676 675l-473 -675h-111l474 675h110zM110 579l-61 -29l-31 70l116 55h59v-371h-83v275z" />
    <glyph glyph-name="arrowleft" unicode="&#x2190;" horiz-adv-x="665" 
d="M307 79l-258 259l258 258l74 -73l-121 -128h357v-115h-357l121 -127z" />
    <glyph glyph-name="arrowup" unicode="&#x2191;" horiz-adv-x="666" 
d="M74 363l259 259l258 -259l-73 -74l-128 122v-357h-115v357l-127 -122z" />
    <glyph glyph-name="arrowright" unicode="&#x2192;" horiz-adv-x="665" 
d="M358 596l259 -258l-259 -259l-74 74l122 128h-357v114h357l-122 128z" />
    <glyph glyph-name="arrowdown" unicode="&#x2193;" horiz-adv-x="666" 
d="M591 312l-258 -258l-259 258l74 74l127 -121v357h115v-357l128 121z" />
    <glyph glyph-name="uni2196" unicode="&#x2196;" horiz-adv-x="666" 
d="M132 173v366h366v-105l-177 -4l253 -253l-81 -81l-252 253l-5 -176h-104z" />
    <glyph glyph-name="uni2197" unicode="&#x2197;" horiz-adv-x="666" 
d="M208 539h366v-366h-105l-4 176l-253 -253l-80 81l252 253l-176 4v105z" />
    <glyph glyph-name="uni2198" unicode="&#x2198;" horiz-adv-x="666" 
d="M574 462v-366h-366v105l176 4l-252 253l80 81l253 -253l4 176h105z" />
    <glyph glyph-name="uni2199" unicode="&#x2199;" horiz-adv-x="666" 
d="M498 96h-366v366h104l5 -176l252 253l81 -81l-253 -253l177 -4v-105z" />
    <glyph glyph-name="emptyset" unicode="&#x2205;" horiz-adv-x="768" 
d="M384 687q90 0 163 -40l28 40h108l-64 -91q115 -103 115 -258q0 -145 -103 -248q-102 -102 -247 -102q-90 0 -163 40l-28 -40h-107l63 90q-54 49 -84.5 117t-30.5 143q0 144 102 246q103 103 248 103zM208 163l280 400q-49 23 -104 23q-103 0 -176 -73q-73 -72 -73 -175
q0 -105 73 -175zM384 89q103 0 176 73t73 176q0 101 -73 174l-280 -400q49 -23 104 -23z" />
    <glyph glyph-name="product" unicode="&#x220f;" horiz-adv-x="624" 
d="M187 547v-722h-137v850h524v-850h-137v722h-250z" />
    <glyph glyph-name="summation" unicode="&#x2211;" horiz-adv-x="493" 
d="M463 -47v-128h-433v109l184 316l-184 316v109h433v-128h-275l175 -297l-175 -297h275z" />
    <glyph glyph-name="minus" unicode="&#x2212;" 
d="M60 278v120h480v-120h-480z" />
    <glyph glyph-name="integral" unicode="&#x222b;" horiz-adv-x="304" 
d="M10 -175v123h28q21 0 35 13t14 32v583q0 62 48 106q47 43 119 43h40v-123h-28q-21 0 -35 -13t-14 -32v-583q0 -63 -48 -106q-47 -43 -119 -43h-40z" />
    <glyph glyph-name="approxequal" unicode="&#x2248;" 
d="M378 353q-46 0 -93 28q-47 29 -63 29q-20 0 -33 -14.5t-13 -36.5h-116q0 71 47 121q48 49 115 49q44 0 93 -29t64 -29q20 0 32.5 14t12.5 36h116q0 -71 -47 -120q-47 -48 -115 -48zM378 149q-46 0 -93 28q-47 29 -63 29q-20 0 -33 -14t-13 -36h-116q0 70 47 120
q48 49 115 49q44 0 93 -29t64 -29q19 0 32 14.5t13 36.5h116q0 -70 -48 -120q-46 -49 -114 -49z" />
    <glyph glyph-name="notequal" unicode="&#x2260;" 
d="M381 387l-46 -98h205v-120h-260l-48 -103h-114l48 103h-106v120h162l46 98h-208v119h263l48 103h113l-48 -103h104v-119h-159z" />
    <glyph glyph-name="lessequal" unicode="&#x2264;" 
d="M540 170l-480 197v103l480 198v-128l-293 -122l293 -120v-128zM60 16v118h480v-118h-480z" />
    <glyph glyph-name="greaterequal" unicode="&#x2265;" 
d="M540 470v-103l-480 -197v128l293 120l-293 122v128zM60 134h480v-118h-480v118z" />
    <glyph glyph-name="uni23F4" unicode="&#x23f4;" horiz-adv-x="371" 
d="M291 121l-246 217l246 217v-434z" />
    <glyph glyph-name="uni23F5" unicode="&#x23f5;" horiz-adv-x="371" 
d="M80 555l246 -217l-246 -217v434z" />
    <glyph glyph-name="uni23F6" unicode="&#x23f6;" horiz-adv-x="454" 
d="M10 215l217 246l217 -246h-434z" />
    <glyph glyph-name="uni23F7" unicode="&#x23f7;" horiz-adv-x="454" 
d="M444 461l-217 -246l-217 246h434z" />
    <glyph glyph-name="filledbox" unicode="&#x25a0;" horiz-adv-x="775" 
d="M725 0h-675v675h675v-675z" />
    <glyph glyph-name="H22073" unicode="&#x25a1;" horiz-adv-x="775" 
d="M725 0h-675v675h675v-675zM624 101v473h-473v-473h473z" />
    <glyph glyph-name="uni25A2" unicode="&#x25a2;" horiz-adv-x="775" 
d="M725 0h-675v675h675v-675zM624 101v473h-473v-473h473z" />
    <glyph glyph-name="triagup" unicode="&#x25b2;" horiz-adv-x="863" 
d="M30 0l402 695l401 -695h-803z" />
    <glyph glyph-name="uni25B3" unicode="&#x25b3;" horiz-adv-x="863" 
d="M432 695l401 -695h-803zM205 101h453l-226 392z" />
    <glyph glyph-name="triagdn" unicode="&#x25bc;" horiz-adv-x="863" 
d="M833 675l-401 -691l-402 691h803z" />
    <glyph glyph-name="uni25BD" unicode="&#x25bd;" horiz-adv-x="863" 
d="M30 675h803l-401 -695zM432 182l226 392h-453z" />
    <glyph glyph-name="uni25C6" unicode="&#x25c6;" horiz-adv-x="775" 
d="M388 -20l-358 358l358 357l357 -357z" />
    <glyph glyph-name="uni25C7" unicode="&#x25c7;" horiz-adv-x="775" 
d="M388 -20l-358 358l358 357l357 -357zM388 123l214 215l-214 214l-215 -214z" />
    <glyph glyph-name="lozenge" unicode="&#x25ca;" horiz-adv-x="610" 
d="M30 338l195 337h68l195 -337l-195 -338h-68zM259 143l112 195l-112 194l-112 -194z" />
    <glyph glyph-name="circle" unicode="&#x25cb;" horiz-adv-x="768" 
d="M34 338q0 144 102 246q103 103 248 103t247 -103q103 -102 103 -246q0 -145 -103 -248q-102 -102 -247 -102q-144 0 -248 102q-102 104 -102 248zM208 513q-73 -72 -73 -175t73 -176t176 -73t176 73t73 176t-73 175q-73 73 -176 73t-176 -73z" />
    <glyph glyph-name="H18533" unicode="&#x25cf;" horiz-adv-x="768" 
d="M34 338q0 144 102 246q103 103 248 103t247 -103q103 -102 103 -246q0 -145 -103 -248q-102 -102 -247 -102q-144 0 -248 102q-102 104 -102 248z" />
    <glyph glyph-name="uni25D0" unicode="&#x25d0;" horiz-adv-x="768" 
d="M34 338q0 144 102 246q103 103 248 103t247 -103q103 -102 103 -246q0 -145 -103 -248q-102 -102 -247 -102q-144 0 -248 102q-102 104 -102 248zM384 586v-497q103 0 176 73t73 176t-73 175q-73 73 -176 73z" />
    <glyph glyph-name="uni25D1" unicode="&#x25d1;" horiz-adv-x="768" 
d="M734 338q0 -145 -103 -248q-102 -102 -247 -102q-144 0 -248 102q-102 104 -102 248t102 246q103 103 248 103t247 -103q103 -102 103 -246zM384 89v497q-103 0 -176 -73q-73 -72 -73 -175t73 -176t176 -73z" />
    <glyph glyph-name="uni25D2" unicode="&#x25d2;" horiz-adv-x="768" 
d="M34 338q0 144 102 246q103 103 248 103t247 -103q103 -102 103 -246q0 -145 -103 -248q-102 -102 -247 -102q-144 0 -248 102q-102 104 -102 248zM135 338h498q0 103 -73 175q-73 73 -176 73t-176 -73q-73 -72 -73 -175z" />
    <glyph glyph-name="uni25D3" unicode="&#x25d3;" horiz-adv-x="768" 
d="M734 338q0 -145 -103 -248q-102 -102 -247 -102q-144 0 -248 102q-102 104 -102 248t102 246q103 103 248 103t247 -103q103 -102 103 -246zM633 338h-498q0 -103 73 -176t176 -73t176 73t73 176z" />
    <glyph glyph-name="uni25D4" unicode="&#x25d4;" horiz-adv-x="768" 
d="M34 338q0 144 102 246q103 103 248 103t247 -103q103 -102 103 -246q0 -145 -103 -248q-102 -102 -247 -102q-144 0 -248 102q-102 104 -102 248zM633 338h-249v248q-103 0 -176 -73q-73 -72 -73 -175t73 -176t176 -73t176 73t73 176z" />
    <glyph glyph-name="uni25D5" unicode="&#x25d5;" horiz-adv-x="768" 
d="M34 338q0 144 102 246q103 103 248 103t247 -103q103 -102 103 -246q0 -145 -103 -248q-102 -102 -247 -102q-144 0 -248 102q-102 104 -102 248zM135 338h249v248q-103 0 -176 -73q-73 -72 -73 -175z" />
    <glyph glyph-name="uni25D6" unicode="&#x25d6;" horiz-adv-x="434" 
d="M34 338q0 144 102 246q103 103 248 103v-699q-144 0 -248 102q-102 104 -102 248z" />
    <glyph glyph-name="uni25D7" unicode="&#x25d7;" horiz-adv-x="434" 
d="M400 338q0 -145 -103 -248q-102 -102 -247 -102v699q145 0 247 -103q103 -102 103 -246z" />
    <glyph glyph-name="uni25EF" unicode="&#x25ef;" horiz-adv-x="768" 
d="M34 338q0 144 102 246q103 103 248 103t247 -103q103 -102 103 -246q0 -145 -103 -248q-102 -102 -247 -102q-144 0 -248 102q-102 104 -102 248zM208 513q-73 -72 -73 -175t73 -176t176 -73t176 73t73 176t-73 175q-73 73 -176 73t-176 -73z" />
    <glyph glyph-name="uni2639" unicode="&#x2639;" horiz-adv-x="765" 
d="M197 453q0 26 18 44t44 18q27 0 45 -18t18 -44q0 -27 -18 -45t-45 -18q-26 0 -44 18t-18 45zM445 453q0 26 18 44t44 18q27 0 45 -18t18 -44q0 -27 -18 -45t-45 -18q-26 0 -44 18t-18 45zM220 143h-40q0 79 58 131q59 53 145 53q85 0 144 -53t59 -131h-40q0 61 -47 102
t-116 41t-116 -41t-47 -102zM140 95q-100 100 -100 243q0 142 100 242t243 100q142 0 242 -100t100 -242q0 -143 -100 -243t-242 -100q-143 0 -243 100zM167 553q-89 -89 -89 -215q0 -125 89 -216q91 -89 216 -89q126 0 215 89q89 91 89 216q0 126 -89 215t-215 89
q-125 0 -216 -89z" />
    <glyph glyph-name="smileface" unicode="&#x263a;" horiz-adv-x="765" 
d="M197 453q0 26 18 44t44 18q27 0 45 -18t18 -44q0 -27 -18 -45t-45 -18q-26 0 -44 18t-18 45zM445 453q0 26 18 44t44 18q27 0 45 -18t18 -44q0 -27 -18 -45t-45 -18q-26 0 -44 18t-18 45zM180 297h40q0 -61 47 -102t116 -41t116 41t47 102h40q0 -79 -59 -132
q-58 -52 -144 -52q-87 0 -145 52t-58 132zM140 95q-100 100 -100 243q0 142 100 242t243 100q142 0 242 -100t100 -242q0 -143 -100 -243t-242 -100q-143 0 -243 100zM167 553q-89 -89 -89 -215q0 -125 89 -216q91 -89 216 -89q126 0 215 89q89 91 89 216q0 126 -89 215
t-215 89q-125 0 -216 -89z" />
    <glyph glyph-name="invsmileface" unicode="&#x263b;" horiz-adv-x="765" 
d="M197 453q0 -27 18 -45t44 -18q27 0 45 18t18 45q0 26 -18 44t-45 18q-26 0 -44 -18t-18 -44zM445 453q0 -27 18 -45t44 -18q27 0 45 18t18 45q0 26 -18 44t-45 18q-26 0 -44 -18t-18 -44zM220 297h-40q0 -80 58 -132t145 -52q86 0 144 52q59 53 59 132h-40
q0 -61 -47 -102t-116 -41t-116 41t-47 102zM140 95q-100 100 -100 243q0 142 100 242t243 100q142 0 242 -100t100 -242q0 -143 -100 -243t-242 -100q-143 0 -243 100z" />
    <glyph glyph-name="commaaccent" horiz-adv-x="208" 
d="M168 -120q0 -75 -89 -126q0 -1 -1 -1l-31 32q42 35 42 52q-21 3 -35.5 20.5t-14.5 40.5q0 25 18 42t44 17q30 0 48.5 -22t18.5 -55z" />
    <glyph glyph-name="zero.fitted" 
d="M37 231v213q0 104 75 173q74 70 188 70t188 -70q75 -69 75 -173v-213q0 -103 -75 -174q-75 -69 -188 -69t-188 69q-75 71 -75 174zM174 446v-217q0 -47 36 -78q38 -32 90 -32t89 32q37 31 37 78v217q0 47 -37 78q-37 32 -89 32t-90 -32q-36 -32 -36 -78z" />
    <glyph glyph-name="one.fitted" 
d="M272 512l-126 -61l-55 118l220 106h98v-547h151v-128h-439v128h151v384z" />
    <glyph glyph-name="two.fitted" 
d="M393 474q0 34 -29 58t-70 24q-83 0 -123 -94l-126 61q34 76 100 120t149 44q101 0 171 -61t70 -147q0 -103 -146 -237l-117 -111h268v-131h-479v102l244 231q88 84 88 141z" />
    <glyph glyph-name="three.fitted" 
d="M389 480q0 32 -30.5 54t-77.5 22q-39 0 -69 -15.5t-42 -42.5l-123 53q30 62 94 99t145 37q104 0 175 -59q70 -58 70 -145q0 -83 -72 -132q90 -56 90 -152q0 -91 -74 -151q-73 -60 -184 -60q-92 0 -160 43q-68 44 -92 114l130 46q9 -32 41.5 -52t78.5 -20q50 0 83.5 24
t33.5 61q0 36 -33 59.5t-82 23.5h-51v115h34q49 0 82 22t33 56z" />
    <glyph glyph-name="four.fitted" 
d="M364 0v126h-334v132l340 417h131v-418h82v-131h-82v-126h-137zM364 469l-172 -212h172v212z" />
    <glyph glyph-name="five.fitted" 
d="M556 219q0 -99 -74 -165t-185 -66q-91 0 -162 48q-69 49 -97 130l138 37q15 -39 47 -61.5t74 -22.5q48 0 83 29q34 28 34 70q0 45 -38.5 75t-95.5 30h-190l36 352h371v-126h-258l-10 -100h71q108 0 182 -66t74 -164z" />
    <glyph glyph-name="six.fitted" 
d="M547 554l-125 -61q-34 63 -113 63q-54 0 -89.5 -31t-35.5 -77v-49q52 37 126 37q104 0 177 -65q72 -65 72 -161q0 -95 -73 -159q-74 -63 -182 -63q-111 0 -184 64t-73 160v235q0 103 75 171q75 69 188 69q78 0 141 -36t96 -97zM304 304q-49 0 -82 -26.5t-33 -64.5
q0 -40 33 -67t82 -27q48 0 80.5 26.5t32.5 64.5q0 40 -32.5 67t-80.5 27z" />
    <glyph glyph-name="seven.fitted" 
d="M145 0l246 549h-332v126h478v-133l-242 -542h-150z" />
    <glyph glyph-name="eight.fitted" 
d="M301 -12q-111 0 -184 58t-73 146q0 99 92 158q-78 57 -78 145q0 81 69 136q71 56 174 56q102 0 172 -56q69 -55 69 -137q0 -88 -78 -144q93 -58 93 -160q0 -86 -73 -144t-183 -58zM186 204q0 -36 32.5 -60.5t82.5 -24.5q49 0 81 24t32 60q0 35 -32 59t-81 24
q-50 0 -82.5 -23.5t-32.5 -58.5zM201 484q0 -31 28.5 -51.5t71.5 -20.5t71 20.5t28 51.5q0 30 -28.5 51t-70.5 21q-43 0 -71.5 -21t-28.5 -51z" />
    <glyph glyph-name="nine.fitted" 
d="M41 123l124 60q34 -64 119 -64q57 0 95 31t38 76v45q-47 -39 -123 -39q-103 0 -176 65q-71 66 -71 163q0 98 72 162q74 65 182 65q107 0 180 -65q73 -64 73 -161v-233q0 -103 -77 -172q-77 -68 -191 -68q-81 0 -147.5 37t-97.5 98zM301 363q47 0 79 27.5t32 68.5t-32 69
t-79 28q-48 0 -80 -27t-32 -68q0 -42 32 -70t80 -28z" />
    <glyph glyph-name="zero.sup" horiz-adv-x="327" 
d="M17 483v112q0 59 42 96q43 38 104 38t104 -38q42 -37 42 -96v-112q0 -57 -42 -96q-43 -38 -104 -38t-104 38q-42 39 -42 96zM101 596v-114q0 -23 18 -38.5t44 -15.5t44.5 16t18.5 38v114q0 23 -18.5 38.5t-44.5 15.5t-44 -15.5t-18 -38.5z" />
    <glyph glyph-name="one.sup" horiz-adv-x="242" 
d="M110 629l-61 -29l-31 70l116 55h59v-371h-83v275z" />
    <glyph glyph-name="two.sup" horiz-adv-x="307" 
d="M198 611q0 16 -14 27.5t-34 11.5q-42 0 -63 -49l-77 38q20 42 57 66t83 24q58 0 96 -34q39 -33 39 -81q0 -56 -81 -130l-55 -51h139v-79h-267v60l132 125q45 41 45 72z" />
    <glyph glyph-name="three.sup" horiz-adv-x="313" 
d="M200 613q0 15 -15 26t-38 11q-43 0 -57 -30l-74 25q16 38 53 61t84 23q57 0 95.5 -32.5t38.5 -82.5q0 -44 -41 -67q50 -26 50 -79q0 -52 -40.5 -85.5t-101.5 -33.5q-52 0 -90 25t-51 66l77 27q4 -17 20.5 -28t40.5 -11q25 0 42 12.5t17 30.5q0 17 -16.5 29t-41.5 12h-28
v62h18q24 0 41 11t17 28z" />
    <glyph glyph-name="four.sup" horiz-adv-x="338" 
d="M198 354v67h-183v80l188 224h79v-225h43v-79h-43v-67h-84zM198 601l-84 -101h84v101z" />
    <glyph glyph-name="five.sup" horiz-adv-x="319" 
d="M302 477q0 -55 -41 -91.5t-102 -36.5q-53 0 -92.5 28t-53.5 74l84 22q17 -45 61 -45q25 0 41 14t16 34q0 22 -19 36.5t-48 14.5h-106l20 198h207v-76h-139l-5 -46h44q57 0 94 -37q39 -36 39 -89z" />
    <glyph glyph-name="six.sup" horiz-adv-x="318" 
d="M297 654l-75 -36q-18 32 -58 32q-27 0 -45 -14.5t-18 -35.5v-33q24 27 68 27q55 0 94 -36q40 -36 40 -87q0 -52 -40.5 -87t-101.5 -35t-102 35t-41 87v127q0 56 41 94q41 37 104 37q45 0 81 -20t53 -55zM161 514q-24 0 -40 -12t-16 -30q0 -19 16 -31.5t40 -12.5
q23 0 39 12.5t16 31.5q0 18 -16 30t-39 12z" />
    <glyph glyph-name="seven.sup" horiz-adv-x="289" 
d="M51 354l137 295h-179v76h268v-81l-133 -290h-93z" />
    <glyph glyph-name="eight.sup" horiz-adv-x="319" 
d="M160 349q-62 0 -102.5 32t-40.5 80q0 53 48 85q-40 31 -40 78q0 45 38.5 75t96.5 30q57 0 95.5 -30.5t38.5 -75.5q0 -47 -40 -77q48 -34 48 -86q0 -47 -41 -79t-101 -32zM103 469q0 -18 16 -29.5t41 -11.5q24 0 40 11.5t16 28.5t-16 28t-40 11t-40.5 -11t-16.5 -27z
M160 583q20 0 33.5 10t13.5 24t-13.5 23.5t-33.5 9.5q-21 0 -34.5 -9.5t-13.5 -23.5t13.5 -24t34.5 -10z" />
    <glyph glyph-name="nine.sup" horiz-adv-x="318" 
d="M16 422l74 35q17 -29 60 -29q30 0 49 14.5t19 36.5v31q-22 -28 -66 -28q-55 0 -94 36t-39 89t40 87q41 35 101 35q61 0 101 -34.5t40 -87.5v-127q0 -57 -43 -94q-41 -37 -106 -37q-45 0 -82 20t-54 53zM160 561q24 0 39.5 12.5t15.5 32.5q0 19 -15.5 31.5t-39.5 12.5
q-23 0 -38.5 -12.5t-15.5 -31.5t15.5 -32t38.5 -13z" />
    <glyph glyph-name="zero.sub" horiz-adv-x="327" 
d="M17 30v112q0 57 42 95q42 39 104 39t104 -39q42 -37 42 -95v-112q0 -58 -42 -96q-42 -39 -104 -39t-104 39q-42 38 -42 96zM101 143v-114q0 -23 18 -38.5t44 -15.5t44.5 15.5t18.5 38.5v114q0 22 -18.5 37.5t-44.5 15.5t-44 -15.5t-18 -37.5z" />
    <glyph glyph-name="one.sub" horiz-adv-x="242" 
d="M110 176l-61 -29l-31 70l116 55h59v-372h-83v276z" />
    <glyph glyph-name="two.sub" horiz-adv-x="307" 
d="M198 158q0 16 -14 27t-34 11q-42 0 -63 -49l-77 38q20 42 57.5 66.5t82.5 24.5q57 0 95 -34q40 -34 40 -81q0 -58 -81 -130l-55 -52h139v-79h-267v61l132 124q45 43 45 73z" />
    <glyph glyph-name="three.sub" horiz-adv-x="313" 
d="M200 159q0 16 -15 26.5t-38 10.5q-43 0 -57 -30l-74 26q16 38 53 61t84 23q57 0 95.5 -33t38.5 -83q0 -41 -41 -67q50 -26 50 -78t-40.5 -86t-101.5 -34q-51 0 -89.5 25.5t-51.5 65.5l77 27q4 -17 20.5 -27.5t40.5 -10.5q25 0 42 12t17 30t-16.5 30t-41.5 12h-28v62h18
q25 0 41.5 10.5t16.5 27.5z" />
    <glyph glyph-name="four.sub" horiz-adv-x="338" 
d="M198 -100v67h-183v80l188 225h79v-225h43v-80h-43v-67h-84zM198 148l-84 -101h84v101z" />
    <glyph glyph-name="five.sub" horiz-adv-x="319" 
d="M302 24q0 -54 -41 -92q-40 -37 -102 -37q-53 0 -92.5 28t-53.5 74l84 23q17 -45 61 -45q25 0 41 14t16 34q0 22 -19 36.5t-48 14.5h-106l20 198h207v-77h-139l-5 -46h44q57 0 94 -36q39 -36 39 -89z" />
    <glyph glyph-name="six.sub" horiz-adv-x="318" 
d="M297 200l-75 -35q-18 31 -58 31q-27 0 -45 -14.5t-18 -35.5v-33q24 27 68 27q55 0 94 -36q40 -34 40 -87q0 -52 -41 -87t-101 -35q-61 0 -102 35t-41 87v128q0 55 41 93q43 38 104 38q45 0 81 -20.5t53 -55.5zM161 61q-24 0 -40 -12.5t-16 -30.5t16 -30.5t40 -12.5
q23 0 39 12t16 31q0 18 -16 30.5t-39 12.5z" />
    <glyph glyph-name="seven.sub" horiz-adv-x="289" 
d="M51 -100l136 295h-178v77h268v-81l-133 -291h-93z" />
    <glyph glyph-name="eight.sub" horiz-adv-x="319" 
d="M160 -105q-62 0 -102.5 32t-40.5 81q0 53 48 85q-40 30 -40 77q0 45 38.5 75.5t96.5 30.5q57 0 95.5 -30.5t38.5 -75.5q0 -47 -40 -77q48 -35 48 -87q0 -47 -41 -79t-101 -32zM160 -25q24 0 40 11t16 28t-16 28t-40 11q-25 0 -41 -10.5t-16 -27.5t16 -28.5t41 -11.5z
M112 164q0 -15 13.5 -24.5t34.5 -9.5q20 0 33.5 9.5t13.5 24.5q0 14 -13.5 23t-33.5 9q-21 0 -34.5 -9t-13.5 -23z" />
    <glyph glyph-name="nine.sub" horiz-adv-x="318" 
d="M16 -31l74 34q16 -28 60 -28q30 0 49 14.5t19 35.5v32q-21 -29 -66 -29q-55 0 -94 36t-39 89t40 87q41 36 101 36q61 0 101 -35t40 -87v-127q0 -57 -43 -94q-43 -38 -106 -38q-46 0 -82.5 20t-53.5 54zM160 108q24 0 39.5 12.5t15.5 31.5t-15.5 31.5t-39.5 12.5
q-23 0 -38.5 -12t-15.5 -31t15.5 -32t38.5 -13z" />
    <glyph glyph-name="exclamdown.case" horiz-adv-x="223" 
d="M111 686q32 0 53.5 -21t21.5 -53t-21.5 -53.5t-53.5 -21.5t-53 21.5t-21 53.5t21.5 53t52.5 21zM39 0l16 460h112l17 -460h-145z" />
    <glyph glyph-name="questiondown.case" horiz-adv-x="560" 
d="M173 203q0 -36 33.5 -61t82.5 -25q43 0 74.5 21t42.5 56l137 -38q-23 -77 -91.5 -123.5t-160.5 -46.5q-107 0 -181 62q-73 63 -73 157q0 44 17.5 80.5t46 59t50 34.5t44.5 20l18 5l7 52h118l15 -124q-2 -1 -10 -2.5t-21.5 -5.5t-31.5 -11q-48 -16 -81 -44t-36 -66z
M356 611q0 -33 -22 -55t-55 -22t-55 22t-22 55q0 32 22 54t55 22t55 -22t22 -54z" />
    <glyph glyph-name="dagger.case" horiz-adv-x="442" 
d="M16 399v95h154v181h102v-181h154v-95h-154v-399h-102v399h-154z" />
    <glyph glyph-name="daggerdbl.case" horiz-adv-x="442" 
d="M172 173h-156v93h156v143h-156v93h156v173h98v-173h156v-93h-156v-143h156v-93h-156v-173h-98v173z" />
    <glyph glyph-name="slash.case" horiz-adv-x="520" 
d="M114 -100h-114l407 875h114z" />
    <glyph glyph-name="backslash.case" horiz-adv-x="520" 
d="M114 775l407 -875h-114l-407 875h114z" />
    <glyph glyph-name="parenleft.case" horiz-adv-x="310" 
d="M162 758l15 17h123l-16 -20q-5 -7 -34 -56q-53 -95 -78 -211q-30 -150 -1 -299q29 -140 115 -271l14 -18h-123l-1 1q-80 89 -118 239q-24 93 -24 198q0 168 50 282q43 99 78 138z" />
    <glyph glyph-name="parenright.case" horiz-adv-x="310" 
d="M25 756l-15 19h123l15 -17q6 -6 35 -52q23 -36 44 -87q19 -45 34 -122q16 -74 16 -159q0 -153 -46 -270q-16 -44 -41 -86q-24 -41 -35 -56q-14 -18 -21 -25v-1h-1h-123q10 13 15 20q7 8 35 56q54 93 78 212q32 150 1 299q-30 148 -114 269z" />
    <glyph glyph-name="bracketleft.case" horiz-adv-x="316" 
d="M170 13h136v-113h-259v875h259v-113h-136v-649z" />
    <glyph glyph-name="bracketright.case" horiz-adv-x="316" 
d="M270 -100h-260v113h137v649h-137v113h260v-875z" />
    <glyph glyph-name="braceleft.case" horiz-adv-x="352" 
d="M278 775h64v-113h-57q-28 0 -46 -16.5t-18 -42.5v-119q0 -59 -24.5 -96.5t-69.5 -49.5q45 -12 69.5 -50t24.5 -97v-119q0 -25 18.5 -42t45.5 -17h57v-113h-64q-77 0 -129 52q-51 51 -51 129v118q0 24 -20.5 44.5t-45.5 30.5l-22 8v112l24 8q15 6 39 27q25 22 25 48v117
q0 78 51 129q52 52 129 52z" />
    <glyph glyph-name="braceright.case" horiz-adv-x="352" 
d="M10 662v113h64q77 0 128 -52q52 -52 52 -129v-117q0 -24 20.5 -44.5t45.5 -30.5l22 -8v-113l-25 -9q-13 -4 -39 -27q-24 -21 -24 -47v-117q0 -78 -52 -129q-51 -52 -128 -52h-64v113h57q28 0 46.5 17t18.5 42v119q0 58 25 96.5t68 50.5q-44 12 -68.5 50t-24.5 96v119
q0 25 -18.5 42t-46.5 17h-57z" />
    <glyph glyph-name="guillemotleft.case" horiz-adv-x="525" 
d="M206 152l-185 186l185 185l76 -76l-110 -109l110 -110zM417 152l-185 186l185 185l76 -76l-110 -109l110 -110z" />
    <glyph glyph-name="guillemotright.case" horiz-adv-x="526" 
d="M319 523l186 -185l-186 -186l-75 76l109 110l-109 109zM108 523l186 -185l-186 -186l-76 76l110 110l-110 109z" />
    <glyph glyph-name="guilsinglleft.case" horiz-adv-x="314" 
d="M206 152l-185 186l185 185l76 -76l-110 -109l110 -110z" />
    <glyph glyph-name="guilsinglright.case" horiz-adv-x="314" 
d="M108 523l186 -185l-186 -186l-76 76l110 110l-110 109z" />
    <glyph glyph-name="hyphen.case" horiz-adv-x="383" 
d="M55 281v114h273v-114h-273z" />
    <glyph glyph-name="endash.case" 
d="M55 281v114h490v-114h-490z" />
    <glyph glyph-name="emdash.case" horiz-adv-x="1000" 
d="M55 281v114h890v-114h-890z" />
    <glyph glyph-name="bar.case" horiz-adv-x="190" 
d="M146 -100h-102v875h102v-875z" />
    <glyph glyph-name="brokenbar.case" horiz-adv-x="190" 
d="M146 775v-357h-102v357h102zM44 -100v358h102v-358h-102z" />
    <glyph glyph-name="zero.dnom" horiz-adv-x="327" 
d="M17 130v112q0 58 42 95q42 39 104 39t104 -39q42 -37 42 -95v-112q0 -58 -42 -97q-43 -38 -104 -38t-104 38q-42 39 -42 97zM101 243v-114q0 -23 18 -38.5t44 -15.5t44.5 15.5t18.5 38.5v114q0 22 -18.5 37.5t-44.5 15.5t-44 -15.5t-18 -37.5z" />
    <glyph glyph-name="one.dnom" horiz-adv-x="242" 
d="M110 276l-61 -29l-31 70l116 55h59v-372h-83v276z" />
    <glyph glyph-name="two.dnom" horiz-adv-x="307" 
d="M198 258q0 16 -14 27t-34 11q-42 0 -63 -49l-77 38q20 42 57.5 66.5t82.5 24.5q57 0 95 -34q40 -34 40 -81q0 -58 -81 -130l-55 -52h139v-79h-267v61l132 124q45 43 45 73z" />
    <glyph glyph-name="three.dnom" horiz-adv-x="313" 
d="M200 259q0 16 -15 26.5t-38 10.5q-43 0 -57 -30l-74 26q16 38 53 61t84 23q57 0 95.5 -33t38.5 -83q0 -41 -41 -67q50 -26 50 -78t-40.5 -86t-101.5 -34q-51 0 -89.5 25.5t-51.5 65.5l77 27q4 -17 20.5 -27.5t40.5 -10.5q25 0 42 12t17 30t-16.5 30t-41.5 12h-28v62h18
q25 0 41.5 10.5t16.5 27.5z" />
    <glyph glyph-name="four.dnom" horiz-adv-x="338" 
d="M198 0v67h-183v80l188 225h79v-225h43v-80h-43v-67h-84zM198 248l-84 -101h84v101z" />
    <glyph glyph-name="five.dnom" horiz-adv-x="319" 
d="M302 124q0 -54 -41 -92q-40 -37 -102 -37q-53 0 -92.5 28t-53.5 74l84 23q17 -45 61 -45q25 0 41 14t16 34q0 22 -19 36.5t-48 14.5h-106l20 198h207v-77h-139l-5 -46h44q57 0 94 -36q39 -36 39 -89z" />
    <glyph glyph-name="six.dnom" horiz-adv-x="318" 
d="M297 300l-75 -35q-18 31 -58 31q-27 0 -45 -14.5t-18 -35.5v-33q24 27 68 27q55 0 94 -36q40 -34 40 -87q0 -52 -41 -87t-101 -35q-61 0 -102 35t-41 87v128q0 55 41 93q43 38 104 38q45 0 81 -20.5t53 -55.5zM161 161q-24 0 -40 -12.5t-16 -30.5t16 -30.5t40 -12.5
q23 0 39 12t16 31q0 18 -16 30.5t-39 12.5z" />
    <glyph glyph-name="seven.dnom" horiz-adv-x="289" 
d="M51 0l136 295h-178v77h268v-81l-133 -291h-93z" />
    <glyph glyph-name="eight.dnom" horiz-adv-x="319" 
d="M160 -5q-62 0 -102.5 32.5t-40.5 80.5q0 54 48 85q-40 30 -40 77q0 45 38.5 75.5t96.5 30.5q57 0 95.5 -30.5t38.5 -75.5q0 -47 -40 -77q48 -35 48 -87q0 -47 -41 -79t-101 -32zM160 75q24 0 40 11t16 28t-16 28t-40 11q-25 0 -41 -10.5t-16 -27.5t16 -28.5t41 -11.5z
M112 264q0 -15 13.5 -24.5t34.5 -9.5q20 0 33.5 9.5t13.5 24.5q0 14 -13.5 23t-33.5 9q-21 0 -34.5 -9t-13.5 -23z" />
    <glyph glyph-name="nine.dnom" horiz-adv-x="318" 
d="M16 69l74 34q16 -28 60 -28q30 0 49 14.5t19 35.5v32q-21 -29 -66 -29q-55 0 -94 36t-39 89t40 87q41 36 101 36q61 0 101 -35t40 -87v-127q0 -57 -43 -94q-43 -38 -106 -38q-46 0 -82.5 20t-53.5 54zM160 208q24 0 39.5 12.5t15.5 31.5t-15.5 31.5t-39.5 12.5
q-23 0 -38.5 -12t-15.5 -31t15.5 -32t38.5 -13z" />
    <glyph glyph-name="logo" horiz-adv-x="430" 
d="M20 518v102h23q71 0 121 -50t50 -121t-50 -121t-121 -50h-23v103q91 0 91 68q0 69 -91 69zM216 518v102h23q71 0 121 -50t50 -121t-50 -121t-121 -50h-23v103q92 0 92 68q0 69 -92 69zM53 216h-27v20h74v-20h-27v-116h-20v116zM139 160l-36 76h23l23 -50l24 50h23
l-36 -76v-60h-21v60zM228 100h-20v136h38q18 0 31 -12.5t13 -30.5t-13 -30.5t-31 -12.5h-18v-50zM246 216h-18v-46h18q10 0 16.5 6.5t6.5 16.5q0 9 -6.5 16t-16.5 7zM363 100h-60v136h60v-20h-39v-48h31v-20h-31v-28h39v-20z" />
    <glyph glyph-name="bullet.case" horiz-adv-x="335" 
d="M26 338q0 61 40 101q41 41 101 41t101 -41t41 -101q0 -61 -41 -102q-40 -40 -101 -40t-101 40t-40 102z" />
    <glyph glyph-name="zero.num" horiz-adv-x="327" 
d="M17 433v112q0 59 42 96q43 38 104 38t104 -38q42 -37 42 -96v-112q0 -57 -42 -96q-43 -38 -104 -38t-104 38q-42 39 -42 96zM101 546v-114q0 -23 18 -38.5t44 -15.5t44.5 16t18.5 38v114q0 23 -18.5 38.5t-44.5 15.5t-44 -15.5t-18 -38.5z" />
    <glyph glyph-name="one.num" horiz-adv-x="242" 
d="M110 579l-61 -29l-31 70l116 55h59v-371h-83v275z" />
    <glyph glyph-name="two.num" horiz-adv-x="307" 
d="M198 561q0 16 -14 27.5t-34 11.5q-42 0 -63 -49l-77 38q20 42 57 66t83 24q58 0 96 -34q39 -33 39 -81q0 -56 -81 -130l-55 -51h139v-79h-267v60l132 125q45 41 45 72z" />
    <glyph glyph-name="three.num" horiz-adv-x="313" 
d="M200 563q0 15 -15 26t-38 11q-43 0 -57 -30l-74 25q16 38 53 61t84 23q57 0 95.5 -32.5t38.5 -82.5q0 -44 -41 -67q50 -26 50 -79q0 -52 -40.5 -85.5t-101.5 -33.5q-52 0 -90 25t-51 66l77 27q4 -17 20.5 -28t40.5 -11q25 0 42 12.5t17 30.5q0 17 -16.5 29t-41.5 12h-28
v62h18q24 0 41 11t17 28z" />
    <glyph glyph-name="four.num" horiz-adv-x="338" 
d="M198 304v67h-183v80l188 224h79v-225h43v-79h-43v-67h-84zM198 551l-84 -101h84v101z" />
    <glyph glyph-name="five.num" horiz-adv-x="319" 
d="M302 427q0 -55 -41 -91.5t-102 -36.5q-53 0 -92.5 28t-53.5 74l84 22q17 -45 61 -45q25 0 41 14t16 34q0 22 -19 36.5t-48 14.5h-106l20 198h207v-76h-139l-5 -46h44q57 0 94 -37q39 -36 39 -89z" />
    <glyph glyph-name="six.num" horiz-adv-x="318" 
d="M297 604l-75 -36q-18 32 -58 32q-27 0 -45 -14.5t-18 -35.5v-33q24 27 68 27q55 0 94 -36q40 -36 40 -87q0 -52 -40.5 -87t-101.5 -35t-102 35t-41 87v127q0 56 41 94q41 37 104 37q45 0 81 -20t53 -55zM161 464q-24 0 -40 -12t-16 -30q0 -19 16 -31.5t40 -12.5
q23 0 39 12.5t16 31.5q0 18 -16 30t-39 12z" />
    <glyph glyph-name="seven.num" horiz-adv-x="289" 
d="M51 304l137 295h-179v76h268v-81l-133 -290h-93z" />
    <glyph glyph-name="eight.num" horiz-adv-x="319" 
d="M160 299q-62 0 -102.5 32t-40.5 80q0 53 48 85q-40 31 -40 78q0 45 38.5 75t96.5 30q57 0 95.5 -30.5t38.5 -75.5q0 -47 -40 -77q48 -34 48 -86q0 -47 -41 -79t-101 -32zM103 419q0 -18 16 -29.5t41 -11.5q24 0 40 11.5t16 28.5t-16 28t-40 11t-40.5 -11t-16.5 -27z
M160 533q20 0 33.5 10t13.5 24t-13.5 23.5t-33.5 9.5q-21 0 -34.5 -9.5t-13.5 -23.5t13.5 -24t34.5 -10z" />
    <glyph glyph-name="nine.num" horiz-adv-x="318" 
d="M16 372l74 35q17 -29 60 -29q30 0 49 14.5t19 36.5v31q-22 -28 -66 -28q-55 0 -94 36t-39 89t40 87q41 35 101 35q61 0 101 -34.5t40 -87.5v-127q0 -57 -43 -94q-41 -37 -106 -37q-45 0 -82 20t-54 53zM160 511q24 0 39.5 12.5t15.5 32.5q0 19 -15.5 31.5t-39.5 12.5
q-23 0 -38.5 -12.5t-15.5 -31.5t15.5 -32t38.5 -13z" />
    <glyph glyph-name="afii10021.1" horiz-adv-x="789" 
d="M771 0h-753v131h78q62 26 62 213v331h509v-544h104v-131zM262 131h263v413h-224v-195q0 -135 -39 -218z" />
    <glyph glyph-name="afii10040.1" horiz-adv-x="759" 
d="M50 675h143v-544h302v544h143v-544h104v-131h-692v675z" />
    <glyph glyph-name="afii10043.1" horiz-adv-x="1070" 
d="M50 0v675h143v-544h229v544h143v-544h241v544h142v-544h104v-131h-1002z" />
    <glyph glyph-name="germandbls.1" horiz-adv-x="541" 
d="M168 329v-329h-130v566q0 71 55 119q55 49 136 49h43v-126h-36q-29 0 -48.5 -15.5t-19.5 -38.5v-104h305v-86l-86 -135q61 -30 96.5 -89t35.5 -131q0 -106 -82 -176q-82 -71 -203 -71v127q65 0 109 35t44 86t-44 86t-109 35v89l71 109h-137z" />
    <glyph glyph-name="R.1" horiz-adv-x="646" 
d="M50 675h315q103 0 171 -60q69 -60 69 -149q0 -54 -26.5 -99t-74.5 -73q71 -59 86 -144l28 -150h-140l-24 137q-8 43 -42.5 72t-78.5 29h-140v-238h-143v675zM365 543h-172v-176h172q40 0 66 25t26 63t-26 63t-66 25z" />
    <glyph glyph-name="Racute.1" horiz-adv-x="649" 
d="M193 0h-143v675h315q103 0 171 -60q69 -60 69 -149q0 -54 -26.5 -99t-74.5 -73q71 -59 86 -144l28 -150h-140l-24 137q-8 43 -42.5 72t-78.5 29h-140v-238zM365 543h-172v-176h172q40 0 66 25t26 63t-26 63t-66 25zM227 736l-42 71l189 125l59 -104z" />
    <glyph glyph-name="Rcaron.1" horiz-adv-x="649" 
d="M193 238v-238h-143v675h315q103 0 171 -60q69 -60 69 -149q0 -54 -26.5 -99t-74.5 -73q71 -59 86 -144l28 -150h-140l-24 137q-8 43 -42.5 72t-78.5 29h-140zM365 543h-172v-176h172q40 0 66 25t26 63t-26 63t-66 25zM274 734h-8l-162 127l48 67l118 -73l118 73l48 -67z
" />
    <glyph glyph-name="Rcommaaccent.1" horiz-adv-x="649" 
d="M193 0h-143v675h315q103 0 171 -60q69 -60 69 -149q0 -54 -26.5 -99t-74.5 -73q71 -59 86 -144l28 -150h-140l-24 137q-8 43 -42.5 72t-78.5 29h-140v-238zM365 543h-172v-176h172q40 0 66 25t26 63t-26 63t-66 25zM273 -102q0 25 18 42t44 17q30 0 48.5 -22t18.5 -55
q0 -75 -89 -126q0 -1 -1 -1l-31 32q42 35 42 52q-21 3 -35.5 20.5t-14.5 40.5z" />
    <glyph glyph-name="u.1" horiz-adv-x="507" 
d="M38 195v255h131v-240q0 -40 24.5 -66.5t60.5 -26.5t60 26.5t24 66.5v240h131v-257q0 -87 -62 -146q-61 -58 -153 -58t-154 59t-62 147z" />
    <glyph glyph-name="uacute.1" horiz-adv-x="507" 
d="M38 195v255h131v-240q0 -40 24.5 -66.5t60.5 -26.5t60 26.5t24 66.5v240h131v-257q0 -87 -62 -146q-61 -58 -153 -58t-154 59t-62 147zM202 528l-41 71l189 125l59 -104z" />
    <glyph glyph-name="ubreve.1" horiz-adv-x="507" 
d="M38 195v255h131v-240q0 -40 24.5 -66.5t60.5 -26.5t60 26.5t24 66.5v240h131v-257q0 -87 -62 -146q-61 -58 -153 -58t-154 59t-62 147zM102 675h93q0 -26 16.5 -44t41.5 -18t41 18t16 44h93q0 -63 -43 -106q-44 -42 -107 -42q-65 0 -108 42q-43 43 -43 106z" />
    <glyph glyph-name="ucircumflex.1" horiz-adv-x="507" 
d="M38 195v255h131v-240q0 -40 24.5 -66.5t60.5 -26.5t60 26.5t24 66.5v240h131v-257q0 -87 -62 -146q-61 -58 -153 -58t-154 59t-62 147zM253 598l-118 -72l-48 67l162 126h9l161 -126l-47 -67z" />
    <glyph glyph-name="udieresis.1" horiz-adv-x="507" 
d="M38 195v255h131v-240q0 -40 24.5 -66.5t60.5 -26.5t60 26.5t24 66.5v240h131v-257q0 -87 -62 -146q-61 -58 -153 -58t-154 59t-62 147zM102 549q-20 21 -20 52t20 51q21 21 52 21t51 -21q21 -20 21 -51t-21 -52q-20 -20 -51 -20t-52 20zM301 549q-20 21 -20 52t20 51
q21 21 52 21t51 -21q21 -20 21 -51t-21 -52q-20 -20 -51 -20t-52 20z" />
    <glyph glyph-name="ugrave.1" horiz-adv-x="507" 
d="M38 195v255h131v-240q0 -40 24.5 -66.5t60.5 -26.5t60 26.5t24 66.5v240h131v-257q0 -87 -62 -146q-61 -58 -153 -58t-154 59t-62 147zM303 528l-206 92l59 104l189 -125z" />
    <glyph glyph-name="uhungarumlaut.1" horiz-adv-x="507" 
d="M38 195v255h131v-240q0 -40 24.5 -66.5t60.5 -26.5t60 26.5t24 66.5v240h131v-257q0 -87 -62 -146q-61 -58 -153 -58t-154 59t-62 147zM158 524l-63 53l126 166l90 -78zM345 524l-63 53l126 166l90 -78z" />
    <glyph glyph-name="umacron.1" horiz-adv-x="507" 
d="M38 195v255h131v-240q0 -40 24.5 -66.5t60.5 -26.5t60 26.5t24 66.5v240h131v-257q0 -87 -62 -146q-61 -58 -153 -58t-154 59t-62 147zM391 557h-275v99h275v-99z" />
    <glyph glyph-name="uogonek.1" horiz-adv-x="507" 
d="M38 195v255h131v-240q0 -40 24.5 -66.5t60.5 -26.5t60 26.5t24 66.5v240h131v-257q0 -74 -46 -129q-45 -54 -118 -70q-49 -49 -49 -89q0 -17 9.5 -26t25.5 -9q25 0 43 18l6 5l35 -45q-5 -6 -15 -15q-9 -9 -40 -26q-29 -16 -59 -16q-41 0 -68.5 26t-27.5 65q0 57 50 110
q-79 14 -128 69q-49 56 -49 134z" />
    <glyph glyph-name="uring.1" horiz-adv-x="507" 
d="M38 195v255h131v-240q0 -40 24.5 -66.5t60.5 -26.5t60 26.5t24 66.5v240h131v-257q0 -87 -62 -146q-61 -58 -153 -58t-154 59t-62 147zM139 642q0 48 33 81.5t82 33.5q48 0 81 -33.5t33 -81.5q0 -49 -33 -82t-81 -33q-49 0 -82 33t-33 82zM230 665q-15 -13 -8 -31.5
t23.5 -23.5t31.5 8q23 23 -0.5 46.5t-46.5 0.5z" />
    <glyph glyph-name="utilde.1" horiz-adv-x="507" 
d="M38 195v255h131v-240q0 -40 24.5 -66.5t60.5 -26.5t60 26.5t24 66.5v240h131v-257q0 -87 -62 -146q-61 -58 -153 -58t-154 59t-62 147zM180 545h-90q0 52 31 87q31 36 78 36q31 0 59 -21q31 -20 39 -20q12 0 21 10.5t9 25.5h90q0 -52 -31.5 -87.5t-77.5 -35.5
q-29 0 -60 20q-29 21 -38 21q-13 0 -21.5 -10t-8.5 -26z" />
    <glyph glyph-name="y.1" horiz-adv-x="480" 
d="M175 6l-169 444h134l98 -276l102 276h134l-261 -675h-123z" />
    <glyph glyph-name="yacute.1" horiz-adv-x="480" 
d="M175 6l-169 444h134l98 -276l102 276h134l-261 -675h-123zM395 620l-206 -92l-42 71l189 125z" />
    <glyph glyph-name="ycircumflex.1" horiz-adv-x="480" 
d="M175 6l-169 444h134l98 -276l102 276h134l-261 -675h-123zM240 598l-118 -72l-48 67l162 126h8l162 -126l-48 -67z" />
    <glyph glyph-name="ydieresis.1" horiz-adv-x="480" 
d="M175 6l-169 444h134l98 -276l102 276h134l-261 -675h-123zM141 529q-32 0 -52.5 20.5t-20.5 51.5t21 51.5t52 20.5t51.5 -20.5t20.5 -51.5t-20.5 -51.5t-51.5 -20.5zM391 549q-20 -20 -51 -20t-52 20q-20 21 -20 52t20 51q21 21 52 21t51 -21q21 -20 21 -51t-21 -52z" />
    <glyph glyph-name="ygrave.1" horiz-adv-x="480" 
d="M175 6l-169 444h134l98 -276l102 276h134l-261 -675h-123zM290 528l-207 92l59 104l189 -125z" />
    <glyph glyph-name="afii10085.1" horiz-adv-x="480" 
d="M175 6l-169 444h134l98 -276l102 276h134l-261 -675h-123z" />
    <glyph glyph-name="afii10110.1" horiz-adv-x="480" 
d="M90 -225l85 231l-169 444h134l98 -276l102 276h134l-261 -675h-123zM80 676h101q0 -26 17 -44.5t42 -18.5t42 18.5t17 44.5h101q0 -68 -46 -114t-114 -46t-114 46t-46 114z" />
    <glyph glyph-name="g.1" horiz-adv-x="528" 
d="M237 -11q-91 0 -152 67t-61 169t61 169q62 68 152 68q70 0 124 -42v30h129v-467q0 -95 -66 -156q-64 -63 -163 -63q-47 0 -88 15l43 115q22 -8 42 -8q44 0 73.5 27.5t29.5 67.5v50q-54 -42 -124 -42zM159 224q0 -45 29 -76t71 -31t71 31t29 76q0 46 -29 78t-71 32
t-71 -32t-29 -78z" />
    <glyph glyph-name="gbreve.1" horiz-adv-x="528" 
d="M237 -11q-91 0 -152 67t-61 169t61 169q62 68 152 68q70 0 124 -42v30h129v-467q0 -95 -66 -156q-64 -63 -163 -63q-47 0 -88 15l43 115q22 -8 42 -8q44 0 73.5 27.5t29.5 67.5v50q-54 -42 -124 -42zM159 224q0 -45 29 -76t71 -31t71 31t29 76q0 46 -29 78t-71 32
t-71 -32t-29 -78zM110 675h92q0 -26 16.5 -44t41.5 -18t41.5 18t16.5 44h92q0 -63 -43 -106q-43 -42 -107 -42t-107 42q-43 43 -43 106z" />
    <glyph glyph-name="gcircumflex.1" horiz-adv-x="528" 
d="M237 462q70 0 124 -42v30h129v-467q0 -95 -66 -156q-64 -63 -163 -63q-47 0 -88 15l43 115q22 -8 42 -8q44 0 73.5 27.5t29.5 67.5v50q-54 -42 -124 -42q-91 0 -152 67t-61 169t61 169q62 68 152 68zM159 224q0 -45 29 -76t71 -31t71 31t29 76q0 46 -29 78t-71 32
t-71 -32t-29 -78zM261 598l-119 -72l-48 67l162 126h9l162 -126l-48 -67z" />
    <glyph glyph-name="gcommaaccent.1" horiz-adv-x="528" 
d="M237 462q70 0 124 -42v30h129v-467q0 -95 -66 -156q-64 -63 -163 -63q-47 0 -88 15l43 115q22 -8 42 -8q44 0 73.5 27.5t29.5 67.5v50q-54 -42 -124 -42q-91 0 -152 67t-61 169t61 169q62 68 152 68zM159 224q0 -45 29 -76t71 -31t71 31t29 76q0 46 -29 78t-71 32
t-71 -32t-29 -78zM190 604q0 74 89 127q0 1 1 1l32 -33q-41 -34 -43 -51q21 -4 35.5 -21.5t14.5 -40.5q0 -25 -17.5 -42t-44.5 -17q-29 0 -48 22t-19 55z" />
    <glyph glyph-name="gdotaccent.1" horiz-adv-x="528" 
d="M237 -11q-91 0 -152 67t-61 169t61 169q62 68 152 68q70 0 124 -42v30h129v-467q0 -95 -66 -156q-64 -63 -163 -63q-47 0 -88 15l43 115q22 -8 42 -8q44 0 73.5 27.5t29.5 67.5v50q-54 -42 -124 -42zM159 224q0 -45 29 -76t71 -31t71 31t29 76q0 46 -29 78t-71 32
t-71 -32t-29 -78zM261 529q-34 0 -56 22t-22 55q0 34 22 56t56 22q33 0 55 -22t22 -56q0 -33 -22 -55t-55 -22z" />
    <glyph glyph-name="t.1" horiz-adv-x="325" 
d="M8 337v73l118 127h73v-87h105v-113h-105v-168q0 -20 14 -33.5t35 -13.5h56v-122h-77q-65 0 -112 41q-45 41 -45 102v194h-62z" />
    <glyph glyph-name="tbar.1" horiz-adv-x="325" 
d="M70 337h-62v73l118 127h73v-87h105v-113h-105v-59h73v-85h-73v-24q0 -20 14 -33.5t35 -13.5h56v-122h-77q-65 0 -112 41q-45 41 -45 102v50h-46v85h46v59z" />
    <glyph glyph-name="tcaron.1" horiz-adv-x="373" 
d="M8 337v73l118 127h73v-87h105v-113h-105v-168q0 -20 14 -33.5t35 -13.5h56v-122h-77q-65 0 -112 41q-45 41 -45 102v194h-62zM363 622q0 -70 -90 -127l-32 32q42 34 43 52q-21 3 -35.5 20.5t-14.5 40.5q0 25 17.5 42t43.5 17q30 0 49 -22t19 -55z" />
    <glyph glyph-name="tcommaaccent.1" horiz-adv-x="325" 
d="M8 337v73l118 127h73v-87h105v-113h-105v-168q0 -20 14 -33.5t35 -13.5h56v-122h-77q-65 0 -112 41q-45 41 -45 102v194h-62zM258 -120q0 -75 -89 -126l-1 -1l-32 32q42 34 43 52q-21 3 -35.5 20.5t-14.5 40.5q0 25 17.5 42t43.5 17q30 0 49 -22t19 -55z" />
    <glyph glyph-name="uni021B.1" horiz-adv-x="325" 
d="M8 337v73l118 127h73v-87h105v-113h-105v-168q0 -20 14 -33.5t35 -13.5h56v-122h-77q-65 0 -112 41q-45 41 -45 102v194h-62zM258 -120q0 -75 -89 -126l-1 -1l-32 32q42 34 43 52q-21 3 -35.5 20.5t-14.5 40.5q0 25 17.5 42t43.5 17q30 0 49 -22t19 -55z" />
    </font>
</defs>
</svg>
