<?xml version="1.0" standalone="no"?>
<!DOCTYPE svg PUBLIC "-//W3C//DTD SVG 1.1//EN" "http://www.w3.org/Graphics/SVG/1.1/DTD/svg11.dtd" >
<svg xmlns="http://www.w3.org/2000/svg" xmlns:xlink="http://www.w3.org/1999/xlink" version="1.1">
<metadata>
Created by FontForge 20170731 at Mon Apr 22 02:30:37 2019
 By Aleksey,,,
Copyright (c) 2019 by Oleh Lishchuk. All rights reserved. |DCNT
</metadata>
<defs>
<font id="MazzardM-Regular" horiz-adv-x="600" >
  <font-face 
    font-family="Mazzard M"
    font-weight="400"
    font-stretch="normal"
    units-per-em="1000"
    panose-1="0 0 0 0 0 0 0 0 0 0"
    ascent="755"
    descent="-245"
    x-height="450"
    cap-height="675"
    bbox="-107 -237 1167 945"
    underline-thickness="50"
    underline-position="-275"
    unicode-range="U+000D-FB04"
  />
<missing-glyph horiz-adv-x="333" 
 />
    <glyph glyph-name="f_f" unicode="ff" horiz-adv-x="574" 
d="M91 385h-75v65h75v142q0 56 38 94q37 39 95 39h60v-71h-55q-28 0 -46 -20t-18 -51v-133h201v142q0 56 38 94q38 39 95 39h59v-71h-54q-28 0 -46.5 -20t-18.5 -51v-133h120v-65h-120v-385h-73v385h-201v-385h-74v385z" />
    <glyph glyph-name="fi" unicode="fi" horiz-adv-x="499" 
d="M165 583v-133h119v-65h-119v-385h-74v385h-75v65h75v142q0 56 38 94q37 39 95 39h60v-71h-55q-28 0 -46 -20t-18 -51zM436 0h-74v450h74v-450zM362 560q-14 15 -14 37t14 36q15 14 37 14t36 -14q15 -14 15 -36t-15 -37q-14 -14 -36 -14t-37 14z" />
    <glyph glyph-name="fl" unicode="fl" horiz-adv-x="499" 
d="M165 583v-133h119v-65h-119v-385h-74v385h-75v65h75v142q0 56 38 94q37 39 95 39h60v-71h-55q-28 0 -46 -20t-18 -51zM436 0h-74v725h74v-725z" />
    <glyph glyph-name="f_f_i" unicode="ffi" horiz-adv-x="773" 
d="M91 0v385h-75v65h75v142q0 56 38 94q37 39 95 39h60v-71h-55q-28 0 -46 -20t-18 -51v-133h201v142q0 56 38 94q38 39 95 39h59v-71h-54q-28 0 -46.5 -20t-18.5 -51v-133h271v-450h-73v385h-198v-385h-73v385h-201v-385h-74zM623 597q-2 31 24.5 43.5t53 0t23.5 -43.5
q0 -22 -14 -36.5t-36 -14.5t-36.5 14t-14.5 37z" />
    <glyph glyph-name="f_f_l" unicode="ffl" horiz-adv-x="773" 
d="M91 0v385h-75v65h75v142q0 56 38 94q37 39 95 39h60v-71h-55q-28 0 -46 -20t-18 -51v-133h201v142q0 56 38 94q38 39 95 39h59v-71h-54q-28 0 -46.5 -20t-18.5 -51v-133h120v-65h-120v-385h-73v385h-201v-385h-74zM637 0v725h73v-725h-73z" />
    <glyph glyph-name="afii10104_afii10104" unicode="&#x457;&#x457;" horiz-adv-x="398" 
d="M137 0h-74v450h74v-450zM-25 561q-15 15 -15 37t15 36q14 15 36 15t36 -15q14 -14 14 -36t-14 -37q-14 -14 -36 -14t-36 14zM336 0h-74v450h74v-450zM200 649q21 0 35.5 -14.5t14.5 -36.5t-14.5 -36.5t-35.5 -14.5q-22 0 -36.5 14.5t-14.5 36.5t14.5 36.5t36.5 14.5z
M388 649q21 0 35.5 -14.5t14.5 -36.5t-14.5 -36.5t-35.5 -14.5q-22 0 -36.5 14.5t-14.5 36.5t14.5 36.5t36.5 14.5z" />
    <glyph glyph-name=".notdef" horiz-adv-x="333" 
 />
    <glyph glyph-name="uni0000" horiz-adv-x="0" 
 />
    <glyph glyph-name="uni0000" horiz-adv-x="0" 
 />
    <glyph glyph-name="uni000D" unicode="&#xd;" horiz-adv-x="250" 
 />
    <glyph glyph-name="space" unicode=" " horiz-adv-x="264" 
 />
    <glyph glyph-name="exclam" unicode="!" horiz-adv-x="221" 
d="M110 -10q-22 0 -37.5 15t-15.5 38t15 38.5t38 15.5t38.5 -15.5t15.5 -38.5t-15.5 -38t-38.5 -15zM144 203h-67l-8 472h84z" />
    <glyph glyph-name="quotedbl" unicode="&#x22;" horiz-adv-x="335" 
d="M126 469h-58l-7 206h73zM266 469h-58l-7 206h73z" />
    <glyph glyph-name="numbersign" unicode="#" horiz-adv-x="672" 
d="M24 187v65h155l31 171h-142v65h153l33 187h66l-33 -187h151l33 187h66l-33 -187h144v-65h-155l-31 -171h142l1 -65h-154l-33 -187h-66l33 187h-151l-33 -187h-66l33 187h-144zM276 423l-31 -171h151l31 171h-151z" />
    <glyph glyph-name="dollar" unicode="$" horiz-adv-x="596" 
d="M269 -121v112q-83 7 -142.5 51t-75.5 109l80 24q7 -44 56 -76q47 -31 115 -31q70 0 116 33q47 33 47 84q0 52 -50 78q-41 22 -102 37l-40 10l-38 11q-24 8 -38 14l-33 15q-7 3 -13 6.5t-10 5.5t-9.5 7t-7 6.5t-8.5 8t-9 8.5q-38 35 -38 102q0 78 54 130q56 53 143 60v112
h58v-112q78 -8 132.5 -48.5t69.5 -100.5l-81 -24q-8 42 -50.5 69t-99.5 27q-63 0 -104.5 -30.5t-41.5 -77.5q0 -50 55 -77q50 -24 131 -44q68 -16 113 -38q47 -21 71 -56t27 -93q0 -85 -61 -140q-61 -54 -158 -61v-111h-58z" />
    <glyph glyph-name="percent" unicode="%" horiz-adv-x="817" 
d="M165 0l-45 37l534 638l45 -38zM204 685q72 0 119 -48q48 -47 48 -118t-48 -119q-47 -48 -119 -48q-71 0 -119 48t-48 119t48 118q48 48 119 48zM204 615q-41 0 -68.5 -27.5t-27.5 -68.5t27.5 -69t68.5 -28t68.5 28t27.5 69t-28 68.5t-68 27.5zM494 37q-48 48 -48 119
t48 119t119 48t119 -48t48 -119t-48 -119q-49 -47 -119 -47t-119 47zM709 156q0 41 -27.5 69t-68.5 28t-69 -28t-28 -69t28 -68.5t69 -27.5t68.5 28t27.5 68z" />
    <glyph glyph-name="ampersand" unicode="&#x26;" horiz-adv-x="669" 
d="M278 -10q-97 0 -164 59q-65 60 -65 146q0 61 33.5 105t99.5 82q-57 81 -57 152q0 67 44.5 109t113.5 42q72 0 118 -43q48 -42 48 -106q0 -54 -36 -92.5t-115 -81.5l27 -29l144 -147q36 67 36 152h74q0 -113 -56 -207l129 -131h-108l-69 71q-84 -81 -197 -81zM423 124
l-150 153l-44 47q-52 -31 -77.5 -62t-25.5 -70q0 -53 44 -91q43 -37 110 -37q83 0 143 60zM250 419q62 33 86 51q39 29 39 67q0 32 -26 53.5t-63 21.5t-60.5 -22.5t-23.5 -58.5q0 -51 48 -112z" />
    <glyph glyph-name="quotesingle" unicode="'" horiz-adv-x="188" 
d="M126 469h-58l-7 206h73z" />
    <glyph glyph-name="parenleft" unicode="(" horiz-adv-x="291" 
d="M186 757l15 18h73l-17 -21q-9 -11 -36 -61q-54 -95 -83 -229q-32 -162 -1 -326q18 -85 38 -134q48 -112 83 -159l16 -20h-73l-1 1q-81 94 -122 252q-27 105 -27 223q0 89 15 170q17 85 38 134q45 109 82 152z" />
    <glyph glyph-name="parenright" unicode=")" horiz-adv-x="291" 
d="M32 755l-15 20h73l16 -19q10 -12 36 -57q28 -47 46 -95q20 -50 36 -132q16 -80 16 -171q0 -163 -48 -292q-19 -53 -43 -95q-29 -55 -58 -88l-1 -1h-73l16 21q12 15 37 61q56 98 82 230q34 160 1 326q-29 156 -121 292z" />
    <glyph glyph-name="asterisk" unicode="*" horiz-adv-x="420" 
d="M187 473l-100 -74l-36 63l113 50l-113 50l36 63l100 -74l-13 124h73l-14 -124l100 74l36 -63l-113 -50l113 -50l-36 -63l-100 74l14 -124h-73z" />
    <glyph glyph-name="plus" unicode="+" 
d="M265 308h-193v70h193v192h70v-192h193v-70h-193v-193h-70v193z" />
    <glyph glyph-name="comma" unicode="," horiz-adv-x="197" 
d="M155 19q0 -25 -9 -48.5t-20.5 -38.5t-25.5 -28t-21 -18t-10 -6l-24 25l13 14q8 10 20 32q14 23 12 39q-20 3 -33.5 18.5t-13.5 36.5t15.5 36t38.5 15q25 0 41.5 -21t16.5 -56z" />
    <glyph glyph-name="hyphen" unicode="-" horiz-adv-x="387" 
d="M67 191v68h253v-68h-253z" />
    <glyph glyph-name="period" unicode="." horiz-adv-x="192" 
d="M96 -10q-23 0 -38.5 15t-15.5 38t15.5 38.5t38.5 15.5t38 -15.5t15 -38.5t-15.5 -38t-37.5 -15z" />
    <glyph glyph-name="slash" unicode="/" horiz-adv-x="514" 
d="M71 -175h-71l443 950h71z" />
    <glyph glyph-name="zero" unicode="0" horiz-adv-x="626" 
d="M59 228v219q0 102 73 169q74 69 181 69q108 0 180 -69q73 -67 73 -169v-219q0 -102 -72 -170q-73 -68 -181 -68q-107 0 -181 68q-73 67 -73 170zM137 448v-221q0 -69 51 -116q50 -46 125 -46t124 46q51 47 51 116v221q0 68 -51 115q-50 47 -124 47q-73 0 -125 -47
q-51 -47 -51 -115z" />
    <glyph glyph-name="one" unicode="1" horiz-adv-x="418" 
d="M222 575l-138 -74l-34 69l196 105h54v-675h-78v575z" />
    <glyph glyph-name="two" unicode="2" horiz-adv-x="561" 
d="M418 482q0 53 -43 90q-44 38 -103 38q-53 0 -95 -30.5t-63 -84.5l-72 34q30 72 91 114t139 42q94 0 161 -59q66 -59 66 -142q0 -54 -33 -105.5t-108 -123.5l-187 -180h338v-75h-460v57l257 249q61 61 86.5 98.5t25.5 77.5z" />
    <glyph glyph-name="three" unicode="3" horiz-adv-x="568" 
d="M420 497q0 49 -43 80q-42 33 -106 33q-51 0 -91 -22t-58 -59l-70 35q27 56 85.5 88.5t133.5 32.5q99 0 164 -54q66 -53 66 -132q0 -48 -26.5 -87.5t-74.5 -63.5q54 -23 85.5 -66.5t31.5 -96.5q0 -84 -70 -139q-70 -56 -173 -56q-81 0 -143.5 35.5t-87.5 95.5l75 28
q16 -38 58 -61t98 -23q69 0 116 35q46 34 46 88q0 51 -46 85q-46 35 -112 35h-51v73h37q68 0 111 33q45 33 45 83z" />
    <glyph glyph-name="four" unicode="4" horiz-adv-x="633" 
d="M419 0v141h-376v75l381 459h73v-459h99v-75h-99v-141h-78zM419 556l-281 -340h281v340z" />
    <glyph glyph-name="five" unicode="5" horiz-adv-x="583" 
d="M282 -10q-80 0 -143 40t-93 107l77 22q21 -43 63.5 -68.5t95.5 -25.5q71 0 120 41q49 42 49 104q0 64 -51 106q-50 43 -126 43h-179l32 316h351v-72h-285l-18 -172h102q109 0 182 -63t73 -157q0 -93 -72 -158q-72 -63 -178 -63z" />
    <glyph glyph-name="six" unicode="6" horiz-adv-x="595" 
d="M533 568l-72 -36q-22 36 -61.5 57t-87.5 21q-75 0 -125 -47t-50 -115v-90q62 71 168 71q104 0 174 -64q71 -63 71 -157q0 -92 -71 -155t-174 -63q-105 0 -175 63t-70 157v237q0 101 72 169q74 69 181 69q71 0 129 -31t91 -86zM305 354q-70 0 -118 -42q-47 -41 -47 -102
t47 -103q48 -42 118 -42q69 0 116 41q48 42 48 102q0 62 -48 104q-47 42 -116 42z" />
    <glyph glyph-name="seven" unicode="7" horiz-adv-x="509" 
d="M23 675h444v-76l-242 -599h-84l244 603h-362v72z" />
    <glyph glyph-name="eight" unicode="8" horiz-adv-x="590" 
d="M295 -10q-105 0 -175 55q-69 55 -69 139q0 55 31.5 99t87.5 69q-48 24 -74.5 64.5t-26.5 88.5q0 77 64 128q64 52 162 52q96 0 160 -52q65 -51 65 -128q0 -48 -26.5 -88.5t-74.5 -64.5q56 -25 88 -69.5t32 -99.5q0 -83 -70 -138t-174 -55zM178 278q-46 -34 -46 -88
q0 -53 46 -89t117 -36q69 0 116 36t47 89t-47 88q-46 36 -116 36q-71 0 -117 -36zM150 499q0 -48 41 -80q43 -32 104 -32q62 0 103 32q42 31 42 80q0 47 -42 79q-41 32 -103 32q-61 0 -104 -32q-41 -32 -41 -79z" />
    <glyph glyph-name="nine" unicode="9" horiz-adv-x="593" 
d="M52 112l72 36q22 -39 63.5 -61t92.5 -22q77 0 127 46q52 46 52 115v88q-60 -80 -165 -80q-102 0 -173 65q-70 64 -70 161q0 96 69 160q71 65 174 65t173 -64q70 -63 70 -157v-237q0 -101 -74 -169t-183 -68q-74 0 -135 32.5t-93 89.5zM294 309q69 0 115 43q47 44 47 107
t-47 107t-115 44q-70 0 -116 -43q-47 -44 -47 -106q0 -64 47 -108t116 -44z" />
    <glyph glyph-name="colon" unicode=":" horiz-adv-x="192" 
d="M96 -10q-23 0 -38.5 15t-15.5 38t15.5 38.5t38.5 15.5t38 -15.5t15 -38.5t-15.5 -38t-37.5 -15zM57 368q-15 16 -15 39t15 38q16 15 39 15t38 -15t15 -38t-15 -39q-15 -15 -38 -15t-39 15z" />
    <glyph glyph-name="semicolon" unicode=";" horiz-adv-x="192" 
d="M57 368q-15 16 -15 39t15 38q16 15 39 15t38 -15t15 -38t-15 -39q-15 -15 -38 -15t-39 15zM154 19q0 -25 -9 -48.5t-20.5 -38.5t-25.5 -28t-21 -18t-10 -6l-24 25l13 14q8 10 20 32q13 23 12 39q-20 3 -33.5 18.5t-13.5 36.5t15.5 36t38.5 15q25 0 41.5 -21t16.5 -56z
" />
    <glyph glyph-name="less" unicode="&#x3c;" 
d="M513 100l-446 207v61l446 208v-77l-345 -161l345 -161v-77z" />
    <glyph glyph-name="equal" unicode="=" 
d="M72 413v70h456v-70h-456zM72 192v70h456v-70h-456z" />
    <glyph glyph-name="greater" unicode="&#x3e;" 
d="M533 368v-61l-446 -207v77l345 161l-345 161v77z" />
    <glyph glyph-name="question" unicode="?" horiz-adv-x="524" 
d="M403 489q0 51 -45 86q-44 36 -108 36q-55 0 -96 -27.5t-55 -72.5l-78 23q22 68 84 109.5t144 41.5q97 0 165 -57q67 -55 67 -140q0 -41 -18 -77.5t-45.5 -60.5t-51.5 -39t-46 -23l-18 -7l-4 -78h-70l-8 119q31 10 63 26q35 19 56 34q26 20 45 49t19 58zM210 44
q0 22 15 37.5t38 15.5t38.5 -15t15.5 -38t-15.5 -38.5t-38.5 -15.5t-38 15.5t-15 38.5z" />
    <glyph glyph-name="at" unicode="@" horiz-adv-x="907" 
d="M453 635q174 0 292 -115q119 -114 119 -276q0 -96 -45 -158q-43 -61 -114 -61q-39 0 -71 20t-46 53q-55 -73 -149 -73q-80 0 -134 57q-54 58 -54 143t54 142q54 58 134 58q85 0 139 -62v53h62v-270q0 -25 19.5 -42t46.5 -17q43 0 69 42.5t26 111.5q0 138 -101 234
q-100 97 -247 97q-148 0 -248 -100q-99 -99 -99 -247t99 -247q99 -100 244 -100q89 0 159 43l25 -57q-82 -49 -186 -49q-171 0 -288 118q-116 118 -116 292q0 175 117 292q118 118 293 118zM353 322q-37 -38 -37 -97q0 -58 37 -98q37 -39 94 -39q55 0 93 39q38 41 38 98
t-38 97q-37 40 -93 40q-57 0 -94 -40z" />
    <glyph glyph-name="A" unicode="A" horiz-adv-x="694" 
d="M103 0h-85l297 675h64l297 -675h-84l-68 155h-353zM491 230l-143 329l-144 -329h287z" />
    <glyph glyph-name="B" unicode="B" horiz-adv-x="667" 
d="M416 0h-338v675h319q82 0 136 -51q55 -49 55 -124q0 -94 -78 -143q52 -23 81.5 -67.5t29.5 -100.5q0 -81 -59 -135q-58 -54 -146 -54zM416 313h-257v-238h257q52 0 86 34q35 35 35 85q0 51 -34.5 85t-86.5 34zM397 600h-238v-211h238q46 0 76.5 30t30.5 75t-30.5 75.5
t-76.5 30.5z" />
    <glyph glyph-name="C" unicode="C" horiz-adv-x="750" 
d="M399 685q98 0 178 -46.5t125 -127.5l-78 -29q-36 58 -95 91.5t-130 33.5q-113 0 -189 -78q-76 -76 -76 -192t76 -192q77 -77 189 -77q71 0 130 33.5t95 91.5l78 -29q-45 -81 -125 -128t-178 -47q-149 0 -249 99q-99 100 -99 249t99 248q100 100 249 100z" />
    <glyph glyph-name="D" unicode="D" horiz-adv-x="742" 
d="M344 0h-266v675h266q149 0 247 -97q100 -97 100 -241q0 -143 -100 -240q-98 -97 -247 -97zM344 600h-185v-525h185q111 0 188 75q76 76 76 187q0 93 -56 164t-144 92l-36 6q-6 1 -28 1z" />
    <glyph glyph-name="E" unicode="E" horiz-adv-x="605" 
d="M78 675h484v-75h-403v-221h354v-75h-354v-229h408v-75h-489v675z" />
    <glyph glyph-name="F" unicode="F" horiz-adv-x="598" 
d="M78 675h484v-75h-403v-217h354v-75h-354v-308h-81v675z" />
    <glyph glyph-name="G" unicode="G" horiz-adv-x="792" 
d="M51 337q0 149 101 248q100 100 252 100q100 0 181.5 -46.5t126.5 -127.5l-78 -29q-36 58 -96.5 91.5t-133.5 33.5q-115 0 -193 -78q-77 -77 -77 -192q0 -114 75 -192q75 -77 185 -77q96 0 168 60q73 60 88 153h-277v76h367q2 -24 2 -28q-3 -145 -102 -242
q-100 -98 -244 -98q-147 0 -246 100q-99 101 -99 248z" />
    <glyph glyph-name="H" unicode="H" horiz-adv-x="728" 
d="M159 0h-81v675h81v-296h410v296h81v-675h-81v304h-410v-304z" />
    <glyph glyph-name="I" unicode="I" horiz-adv-x="237" 
d="M159 0h-81v675h81v-675z" />
    <glyph glyph-name="J" unicode="J" horiz-adv-x="575" 
d="M503 675v-433q0 -107 -74 -181q-73 -72 -184 -72q-69 0 -126 30.5t-93 84.5l68 44q23 -39 63 -61t89 -22q76 0 128 50q51 51 51 127v433h78z" />
    <glyph glyph-name="K" unicode="K" horiz-adv-x="618" 
d="M600 0h-103l-320 344l300 331h104l-300 -331zM78 0v675h81v-675h-81z" />
    <glyph glyph-name="L" unicode="L" horiz-adv-x="558" 
d="M78 675h81v-600h368v-75h-449v675z" />
    <glyph glyph-name="M" unicode="M" horiz-adv-x="869" 
d="M159 0h-81v675h81l275 -481l276 481h81v-675h-81v522l-249 -437h-53l-249 436v-521z" />
    <glyph glyph-name="N" unicode="N" horiz-adv-x="731" 
d="M156 0h-78v675h71l426 -535v535h78v-675h-71l-426 535v-535z" />
    <glyph glyph-name="O" unicode="O" horiz-adv-x="797" 
d="M399 -11q-149 0 -249 99q-99 100 -99 249t99 248q100 100 249 100t248 -100q99 -99 99 -248t-100 -249q-99 -99 -247 -99zM210 529q-76 -76 -76 -192t76 -192q77 -77 189 -77q113 0 188 77q76 76 76 192t-76 192q-75 78 -188 78t-189 -78z" />
    <glyph glyph-name="P" unicode="P" horiz-adv-x="634" 
d="M159 261v-261h-81v675h295q93 0 154 -60q63 -59 63 -147t-63 -148q-62 -59 -154 -59h-214zM373 600h-214v-263h214q58 0 95 37q38 38 38 94t-38 94t-95 38z" />
    <glyph glyph-name="Q" unicode="Q" horiz-adv-x="798" 
d="M399 -11q-149 0 -249 99q-99 100 -99 249t99 248q100 100 249 100t248 -100q99 -99 99 -248q0 -138 -89 -238l93 -93l-55 -55l-97 97q-89 -59 -199 -59zM399 68q77 0 141 39l-118 118l55 54l122 -122q64 74 64 180q0 116 -76 192q-75 78 -188 78t-189 -78
q-76 -76 -76 -192t76 -192q77 -77 189 -77z" />
    <glyph glyph-name="R" unicode="R" horiz-adv-x="655" 
d="M78 675h304q93 0 155 -59t62 -148q0 -68 -39 -121t-103 -74l167 -273h-90l-162 261h-213v-261h-81v675zM382 600h-223v-263h223q58 0 95 37q39 38 39 94t-39 94q-38 38 -95 38z" />
    <glyph glyph-name="S" unicode="S" horiz-adv-x="596" 
d="M526 535l-81 -24q-8 42 -50.5 69t-99.5 27q-63 0 -104.5 -30.5t-41.5 -77.5q0 -50 55 -77q50 -24 131 -44q68 -16 113 -38q47 -21 71 -56t27 -93q0 -91 -69 -146q-68 -56 -175 -56q-98 0 -165 46q-68 47 -86 116l80 24q7 -44 56 -76q47 -31 115 -31q70 0 116 33
q47 33 47 84q0 52 -50 78q-41 22 -102 37l-40 10l-38 11q-24 8 -38 14l-33 15q-7 3 -13 6.5t-10 5.5t-9.5 7t-7 6.5t-8.5 8t-9 8.5q-38 35 -38 102q0 84 63 137q63 54 161 54q90 0 152 -43q64 -42 81 -107z" />
    <glyph glyph-name="T" unicode="T" horiz-adv-x="647" 
d="M283 600h-257v75h595v-75h-257v-600h-81v600z" />
    <glyph glyph-name="U" unicode="U" horiz-adv-x="708" 
d="M559 270v405h81v-405q0 -119 -82 -200q-83 -80 -204 -80t-204 80q-82 81 -82 200v405h81v-405q0 -89 58 -147t147 -58q88 0 146 58q59 59 59 147z" />
    <glyph glyph-name="V" unicode="V" horiz-adv-x="685" 
d="M374 0h-64l-292 675h85l239 -558l240 558h85z" />
    <glyph glyph-name="W" unicode="W" horiz-adv-x="980" 
d="M314 0h-64l-232 675h83l181 -546l176 546h64l178 -545l180 545h83l-233 -675h-64l-176 535z" />
    <glyph glyph-name="X" unicode="X" horiz-adv-x="650" 
d="M276 344l-249 331h97l201 -267l200 267h97l-249 -331l259 -344h-97l-210 279l-210 -279h-97z" />
    <glyph glyph-name="Y" unicode="Y" horiz-adv-x="644" 
d="M281 274l-263 401h93l210 -324l212 324h94l-265 -397v-278h-81v274z" />
    <glyph glyph-name="Z" unicode="Z" horiz-adv-x="619" 
d="M580 75v-75h-535v62l420 538h-418v75h531v-62l-420 -538h422z" />
    <glyph glyph-name="bracketleft" unicode="[" horiz-adv-x="290" 
d="M136 -110h137v-65h-209v950h209v-65h-137v-820z" />
    <glyph glyph-name="backslash" unicode="\" horiz-adv-x="514" 
d="M71 775l443 -950h-71l-443 950h71z" />
    <glyph glyph-name="bracketright" unicode="]" horiz-adv-x="290" 
d="M226 -175h-209v65h137v820h-137v65h209v-950z" />
    <glyph glyph-name="asciicircum" unicode="^" 
d="M72 388l198 287h60l198 -286h-83l-145 203l-145 -204h-83z" />
    <glyph glyph-name="underscore" unicode="_" horiz-adv-x="264" 
d="M0 -118v68h264v-68h-264z" />
    <glyph glyph-name="grave" unicode="`" horiz-adv-x="311" 
d="M230 679l-176 90l37 65l166 -110z" />
    <glyph glyph-name="a" unicode="a" horiz-adv-x="560" 
d="M261 460q99 0 163 -72v62h74v-450h-74v62q-64 -72 -163 -72q-95 0 -159 67q-63 67 -63 168q0 99 63 167q65 68 159 68zM378 340q-43 46 -109 46t-109 -46q-44 -47 -44 -115t44 -115q43 -46 109 -46t109 46q44 47 44 115t-44 115z" />
    <glyph glyph-name="b" unicode="b" horiz-adv-x="560" 
d="M63 0v725h73v-337q64 72 163 72q95 0 158 -68q64 -67 64 -167q0 -101 -64 -168q-63 -67 -158 -67q-99 0 -163 72v-62h-73zM400 340q-43 46 -109 46t-109 -46q-44 -47 -44 -115t44 -115q43 -46 109 -46t109 46q45 46 45 115t-45 115z" />
    <glyph glyph-name="c" unicode="c" horiz-adv-x="519" 
d="M488 324l-74 -23q-19 39 -56 62t-84 23q-68 0 -113 -46t-45 -115t45 -115t113 -46q47 0 84 23t56 62l74 -23q-27 -63 -84.5 -99.5t-129.5 -36.5q-101 0 -168 67t-67 168t67 168t168 67q72 0 129.5 -36.5t84.5 -99.5z" />
    <glyph glyph-name="d" unicode="d" horiz-adv-x="560" 
d="M261 460q99 0 163 -72v337h73v-725h-73v62q-64 -72 -163 -72q-95 0 -159 67q-63 67 -63 168q0 99 63 167q65 68 159 68zM378 340q-43 46 -109 46t-109 -46q-44 -47 -44 -115t44 -115q43 -46 109 -46t109 46q44 47 44 115t-44 115z" />
    <glyph glyph-name="e" unicode="e" horiz-adv-x="536" 
d="M501 200h-386q7 -60 53 -101q46 -40 111 -40q86 0 133 65l71 -23q-31 -52 -85 -81.5t-119 -29.5q-104 0 -172 67q-68 68 -68 168t67 167q68 68 166 68t164 -68q67 -67 67 -167q0 -15 -2 -25zM116 259h311q-11 58 -54.5 95t-102.5 37q-57 0 -100 -37t-54 -95z" />
    <glyph glyph-name="f" unicode="f" horiz-adv-x="300" 
d="M165 583v-133h119v-65h-119v-385h-74v385h-75v65h75v142q0 56 38 94q37 39 95 39h60v-71h-55q-28 0 -46 -20t-18 -51z" />
    <glyph glyph-name="g" unicode="g" horiz-adv-x="560" 
d="M261 -10q-95 0 -159 67q-63 67 -63 168q0 99 63 167q65 68 159 68q99 0 163 -72v62h73v-458q0 -98 -66 -162q-65 -65 -163 -65q-68 0 -125.5 33t-83.5 86l74 23q17 -31 53.5 -50t78.5 -19q67 0 114 44t45 110v70q-64 -72 -163 -72zM378 340q-43 46 -109 46t-109 -46
q-44 -47 -44 -115t44 -115q43 -46 109 -46t109 46q44 47 44 115t-44 115z" />
    <glyph glyph-name="h" unicode="h" horiz-adv-x="540" 
d="M63 0v725h73v-350q52 85 161 85q79 0 130 -52q52 -51 52 -128v-280h-74v261q0 55 -37 91.5t-92 36.5q-60 0 -100 -37t-40 -92v-260h-73z" />
    <glyph glyph-name="i" unicode="i" horiz-adv-x="199" 
d="M137 0h-74v450h74v-450zM49 597q-2 31 24.5 43.5t53 0t23.5 -43.5q0 -22 -14 -36.5t-36 -14.5t-36.5 14t-14.5 37z" />
    <glyph glyph-name="j" unicode="j" horiz-adv-x="206" 
d="M69 450h74v-543q0 -56 -38 -94t-95 -38h-40v71h35q27 0 45.5 20t18.5 51v533zM69 560q-14 15 -14 37t14 36q15 14 37 14t36 -14q15 -14 15 -36t-15 -37q-14 -14 -36 -14t-37 14z" />
    <glyph glyph-name="k" unicode="k" horiz-adv-x="450" 
d="M63 0v725h73v-725h-73zM435 0h-92l-202 233l184 217h91l-184 -217z" />
    <glyph glyph-name="l" unicode="l" horiz-adv-x="199" 
d="M136 0h-73v725h73v-725z" />
    <glyph glyph-name="m" unicode="m" horiz-adv-x="831" 
d="M136 0h-73v450h73v-66q49 76 148 76q48 0 88.5 -23.5t61.5 -63.5q12 21 25 35q17 20 54.5 36t79.5 16q77 0 126 -48q50 -48 50 -120v-292h-73v273q0 49 -33 82.5t-83 33.5q-54 0 -91 -34q-36 -35 -36 -84v-271h-74v273q0 50 -33 83t-83 33q-54 0 -91 -34q-36 -35 -36 -84
v-271z" />
    <glyph glyph-name="n" unicode="n" horiz-adv-x="538" 
d="M63 0v450h73v-75q49 85 159 85q79 0 130 -51q52 -51 52 -128v-281h-74v261q0 55 -36.5 91.5t-91.5 36.5q-59 0 -99 -37t-40 -92v-260h-73z" />
    <glyph glyph-name="o" unicode="o" horiz-adv-x="548" 
d="M106 57q-67 67 -67 168t67 168t168 67q100 0 167 -67q68 -68 68 -168t-68 -168q-67 -67 -167 -67q-101 0 -168 67zM161 340q-45 -46 -45 -115t45 -115t113 -46t113 46t45 115t-45 115t-113 46t-113 -46z" />
    <glyph glyph-name="p" unicode="p" horiz-adv-x="560" 
d="M136 -225h-73v675h73v-62q64 72 163 72q95 0 158 -68q64 -67 64 -167q0 -101 -64 -168q-63 -67 -158 -67q-99 0 -163 72v-287zM400 340q-43 46 -109 46t-109 -46q-44 -47 -44 -115t44 -115q43 -46 109 -46t109 46q45 46 45 115t-45 115z" />
    <glyph glyph-name="q" unicode="q" horiz-adv-x="560" 
d="M261 460q99 0 163 -72v62h73v-675h-73v287q-64 -72 -163 -72q-95 0 -159 67q-63 67 -63 168q0 99 63 167q65 68 159 68zM378 340q-43 46 -109 46t-109 -46q-44 -47 -44 -115t44 -115q43 -46 109 -46t109 46q44 47 44 115t-44 115z" />
    <glyph glyph-name="r" unicode="r" horiz-adv-x="327" 
d="M136 254v-254h-73v450h73v-76q51 86 159 86h13v-82q-17 5 -33 5q-59 0 -99 -37t-40 -92z" />
    <glyph glyph-name="s" unicode="s" horiz-adv-x="416" 
d="M369 352l-69 -13q-7 25 -32.5 40.5t-63.5 15.5q-37 0 -61.5 -16t-24.5 -42q0 -37 48 -53l109 -39q103 -37 103 -123q0 -62 -47 -97t-122 -35q-72 0 -119 32.5t-56 86.5l70 11q6 -29 35 -47t71 -18t69.5 18t27.5 47q0 39 -59 60l-106 37q-95 35 -95 114q0 61 44.5 95
t117.5 34q65 0 108 -29.5t52 -78.5z" />
    <glyph glyph-name="t" unicode="t" horiz-adv-x="320" 
d="M14 385v65h73v93h73v-93h128v-65h-128v-243q0 -31 18.5 -51t46.5 -20h63v-71h-68q-57 0 -95 38q-38 40 -38 95v252h-73z" />
    <glyph glyph-name="u" unicode="u" horiz-adv-x="538" 
d="M61 169v281h74v-261q0 -55 36.5 -91.5t91.5 -36.5q60 0 98 37q40 37 40 92v260h74v-450h-74v74q-51 -84 -159 -84q-78 0 -130 51q-51 51 -51 128z" />
    <glyph glyph-name="v" unicode="v" horiz-adv-x="480" 
d="M206 0l-193 450h76l151 -356l151 356h76l-193 -450h-68z" />
    <glyph glyph-name="w" unicode="w" horiz-adv-x="676" 
d="M230 0h-64l-153 450h74l110 -337l109 337h65l108 -336l111 336h74l-153 -450h-65l-108 328z" />
    <glyph glyph-name="x" unicode="x" horiz-adv-x="472" 
d="M367 0l-131 171l-132 -171h-87l175 230l-167 220h87l124 -161l124 161h87l-167 -220l175 -230h-88z" />
    <glyph glyph-name="y" unicode="y" horiz-adv-x="463" 
d="M158 -71l34 83l-179 438h76l140 -349l145 349h76l-229 -546q-28 -67 -68.5 -98t-101.5 -31h-17v71h17q72 0 107 83z" />
    <glyph glyph-name="z" unicode="z" horiz-adv-x="440" 
d="M36 0v57l264 325h-260v68h361v-57l-265 -325h269v-68h-369z" />
    <glyph glyph-name="braceleft" unicode="{" horiz-adv-x="325" 
d="M236 775h72v-65h-69q-28 0 -46.5 -18t-18.5 -46v-230q0 -47 -22 -76.5t-59 -39.5q37 -10 59 -39.5t22 -75.5v-231q0 -28 18.5 -46t46.5 -18h69v-65h-72q-58 0 -95 39q-38 40 -38 97v229q0 25 -20.5 45t-45.5 27l-22 6v65q10 2 30 10q58 21 58 67v229q0 57 38 97
q37 39 95 39z" />
    <glyph glyph-name="bar" unicode="|" horiz-adv-x="186" 
d="M126 -175h-65v950h65v-950z" />
    <glyph glyph-name="braceright" unicode="}" horiz-adv-x="325" 
d="M17 710v65h73q56 0 94 -39q38 -40 38 -97v-229q0 -25 20.5 -45t45.5 -27l22 -5v-65q-10 -2 -31 -10q-57 -22 -57 -68v-229q0 -57 -38 -97q-38 -39 -94 -39h-73v65h69q28 0 46.5 18t18.5 46v231q0 46 22 75.5t59 39.5q-37 10 -59 39.5t-22 76.5v230q0 28 -18.5 46
t-46.5 18h-69z" />
    <glyph glyph-name="asciitilde" unicode="~" 
d="M385 265q-32 -1 -65.5 18t-61.5 38t-47 18q-28 0 -47 -19.5t-19 -48.5h-73q0 59 41 100t101 41q31 1 64.5 -18t62 -38t48.5 -18q29 0 47.5 19.5t17.5 48.5h74q0 -60 -42 -101q-40 -40 -101 -40z" />
    <glyph glyph-name="exclamdown" unicode="&#xa1;" horiz-adv-x="221" 
d="M110 460q23 0 38.5 -15t15.5 -38t-15.5 -38.5t-38.5 -15.5t-38 15.5t-15 38.5t15.5 38t37.5 15zM69 -203l8 450h67l9 -450h-84z" />
    <glyph glyph-name="cent" unicode="&#xa2;" horiz-adv-x="519" 
d="M245 -4v109q-89 10 -148 75q-58 64 -58 158q0 93 58 157q59 65 148 75v110h58v-110q63 -7 112 -42.5t73 -91.5l-74 -22q-19 39 -56 62t-84 23q-66 0 -113 -47q-45 -46 -45 -114q0 -70 45 -116q46 -46 113 -46q47 0 84 23t56 62l74 -22q-24 -56 -73 -91.5t-112 -42.5v-109
h-58z" />
    <glyph glyph-name="sterling" unicode="&#xa3;" horiz-adv-x="570" 
d="M520 0h-486v75h87v210h-69v59h69v140q0 84 59 143q59 58 145 58q72 0 134 -44q61 -43 84 -111l-78 -23q-14 45 -53.5 74.5t-85.5 29.5q-54 0 -91 -37q-37 -36 -37 -89v-141h207v-59h-207v-210h322v-75z" />
    <glyph glyph-name="currency" unicode="&#xa4;" horiz-adv-x="566" 
d="M107 116l-46 46l72 73q-31 43 -31 103q0 57 32 103l-73 73l46 46l73 -73q45 32 103 32t104 -32l73 73l45 -46l-73 -73q32 -47 32 -103q0 -57 -32 -104l73 -72l-45 -46l-73 73q-44 -32 -104 -32t-104 32zM283 221q50 0 83 33.5t33 83.5q0 49 -34 82q-33 34 -82 34t-83 -33
q-33 -33 -33 -83t33.5 -83.5t82.5 -33.5z" />
    <glyph glyph-name="yen" unicode="&#xa5;" horiz-adv-x="644" 
d="M281 256v19l-263 400h93l210 -323l212 323h94l-265 -398v-21h141v-59h-141v-63h141v-58h-141v-76h-81v76h-141v58h141v63h-141v59h141z" />
    <glyph glyph-name="brokenbar" unicode="&#xa6;" horiz-adv-x="186" 
d="M126 775v-393h-65v393h65zM61 -175v394h65v-394h-65z" />
    <glyph glyph-name="section" unicode="&#xa7;" horiz-adv-x="462" 
d="M233 -181q-75 0 -128.5 38.5t-66.5 99.5l68 25q8 -44 43 -71.5t83 -27.5q51 0 86 31t35 74q0 63 -64 90l-133 56q-47 20 -73.5 59t-26.5 86q0 75 60 121q-60 45 -60 122q0 72 50 119q51 48 128 48q66 0 116 -35.5t65 -92.5l-68 -25q-9 39 -39.5 63.5t-72.5 24.5
q-45 0 -76.5 -30.5t-31.5 -72.5q0 -30 15.5 -54.5t39.5 -33.5l137 -55q49 -20 77 -60t28 -88q0 -74 -62 -121q62 -45 62 -121q0 -73 -54 -121t-137 -48zM286 321l-108 44q-21 -9 -36 -34.5t-15 -54.5q0 -60 52 -82l118 -49q56 29 56 87q0 61 -67 89z" />
    <glyph glyph-name="dieresis" unicode="&#xa8;" horiz-adv-x="403" 
d="M68 694q-14 14 -14 36t14 36q15 15 37 15t36 -15q15 -14 15 -36t-15 -36q-14 -14 -36 -14t-37 14zM298 781q22 0 36.5 -14.5t14.5 -36.5t-14.5 -36t-36.5 -14q-21 0 -35.5 14t-14.5 36t14.5 36.5t35.5 14.5z" />
    <glyph glyph-name="copyright" unicode="&#xa9;" horiz-adv-x="790" 
d="M50 338q0 142 101 243t244 101q142 0 243 -101t101 -243q0 -143 -101 -244t-243 -101q-143 0 -244 101t-101 244zM395 647q-128 0 -219 -91q-90 -90 -90 -218t90 -219q91 -91 219 -91t218 91q91 91 91 219t-91 218q-91 91 -218 91zM214 338q0 77 52 129q53 53 132 53
q54 0 96.5 -24.5t66.5 -69.5l-52 -19q-36 62 -111 62q-54 0 -92 -38q-37 -37 -37 -93q0 -57 37 -94q38 -38 92 -38q75 0 111 62l52 -20q-24 -43 -67 -68t-96 -25q-80 0 -132 52t-52 131z" />
    <glyph glyph-name="ordfeminine" unicode="&#xaa;" horiz-adv-x="384" 
d="M173 679q69 0 112 -52v48h61v-315h-61v47q-43 -52 -112 -52q-64 0 -107 46t-43 116q0 69 43 115q44 47 107 47zM185 620q-42 0 -70.5 -29.5t-28.5 -72.5q0 -44 28.5 -74t70.5 -30q41 0 69.5 30t28.5 74q0 43 -28.5 72.5t-69.5 29.5z" />
    <glyph glyph-name="guillemotleft" unicode="&#xab;" horiz-adv-x="486" 
d="M204 53l-172 172l172 172l46 -46l-127 -126l127 -126zM392 53l-172 172l172 172l45 -46l-126 -126l126 -126z" />
    <glyph glyph-name="logicalnot" unicode="&#xac;" 
d="M461 164v139h-389v70h456v-209h-67z" />
    <glyph glyph-name="uni00AD" unicode="&#xad;" horiz-adv-x="387" 
d="M67 191v68h253v-68h-253z" />
    <glyph glyph-name="registered" unicode="&#xae;" horiz-adv-x="790" 
d="M50 338q0 142 101 243t244 101q142 0 243 -101t101 -243q0 -143 -101 -244t-243 -101q-143 0 -244 101t-101 244zM395 647q-128 0 -219 -91q-90 -90 -90 -218t90 -219q91 -91 219 -91t218 91q91 91 91 219t-91 218q-91 91 -218 91zM317 160h-54v356h163q51 0 85.5 -32.5
t34.5 -81.5q0 -35 -19.5 -63t-52.5 -41l84 -138h-61l-78 129h-102v-129zM426 467h-109v-128h109q27 0 46 18t19 45q0 28 -19 46.5t-46 18.5z" />
    <glyph glyph-name="overscore" unicode="&#xaf;" horiz-adv-x="364" 
d="M310 706h-256v63h256v-63z" />
    <glyph glyph-name="degree" unicode="&#xb0;" horiz-adv-x="388" 
d="M82 466q-45 45 -45 112t45 112t112 45t112 -45t45 -112t-45 -112t-112 -45t-112 45zM132 640q-24 -25 -24 -62t24 -62q25 -24 62 -24t62 24q25 25 25 62t-25 62t-62 25t-62 -25z" />
    <glyph glyph-name="plusminus" unicode="&#xb1;" 
d="M265 371h-193v70h193v193h70v-193h193v-70h-193v-170h-70v170zM72 63v70h456v-70h-456z" />
    <glyph glyph-name="twosuperior" unicode="&#xb2;" horiz-adv-x="308" 
d="M223 615q0 26 -22 45t-52 19q-56 0 -81 -61l-48 24q17 40 52 63.5t77 23.5q53 0 91 -33q37 -33 37 -79q0 -53 -78 -125l-93 -89h176v-49h-256v37l139 134q58 55 58 90z" />
    <glyph glyph-name="threesuperior" unicode="&#xb3;" horiz-adv-x="314" 
d="M225 622q0 24 -21.5 40.5t-53.5 16.5q-58 0 -77 -42l-45 17q15 34 48.5 54.5t76.5 20.5q54 0 90 -30t36 -76q0 -55 -55 -77q64 -25 64 -86q0 -48 -39 -79q-38 -32 -96 -32q-45 0 -80.5 21.5t-49.5 55.5l49 18q8 -20 29.5 -32.5t49.5 -12.5q36 0 59.5 18t23.5 44t-23 44
t-57 18h-28v40h20q34 0 56.5 17t22.5 42z" />
    <glyph glyph-name="acute" unicode="&#xb4;" horiz-adv-x="311" 
d="M81 677l-27 45l166 110l37 -65z" />
    <glyph glyph-name="mu" unicode="&#xb5;" horiz-adv-x="538" 
d="M242 -10q-60 0 -107 32v-247h-73l-1 393v282h74v-261q0 -55 36.5 -91.5t91.5 -36.5q60 0 98 37q40 37 40 92v260h74v-450h-74v74q-51 -84 -159 -84z" />
    <glyph glyph-name="paragraph" unicode="&#xb6;" horiz-adv-x="646" 
d="M239 675h375v-58h-103v-792h-65v792h-142v-792h-65v464q-83 0 -138 55t-55 138q0 82 55 137q56 56 138 56z" />
    <glyph glyph-name="middot" unicode="&#xb7;" horiz-adv-x="192" 
d="M96 391q22 0 37.5 -15.5t15.5 -37.5q3 -36 -32.5 -50t-59.5 11q-25 24 -11 59.5t50 32.5z" />
    <glyph glyph-name="cedilla" unicode="&#xb8;" horiz-adv-x="291" 
d="M109 -81l19 81h59l-11 -48q3 0 8 -1.5t17 -7t21.5 -12.5t17.5 -21t8 -31q0 -37 -30 -61t-75 -24q-54 0 -86 28l-11 9l16 40q25 -28 69 -28q25 0 42 10.5t17 25.5t-18.5 25t-41.5 13z" />
    <glyph glyph-name="onesuperior" unicode="&#xb9;" horiz-adv-x="231" 
d="M119 662l-75 -38l-19 44l109 57h37v-371h-52v308z" />
    <glyph glyph-name="ordmasculine" unicode="&#xba;" horiz-adv-x="377" 
d="M189 679q70 0 117 -47q48 -46 48 -115t-48 -115q-47 -47 -117 -47q-72 0 -119 46q-47 47 -47 116q0 68 47 115q49 47 119 47zM86 517q0 -43 29.5 -73t73.5 -30q43 0 72.5 30t29.5 73t-29.5 73t-72.5 30q-44 0 -73.5 -29.5t-29.5 -73.5z" />
    <glyph glyph-name="guillemotright" unicode="&#xbb;" horiz-adv-x="486" 
d="M282 397l172 -172l-172 -172l-45 46l126 126l-126 126zM95 397l172 -172l-172 -172l-46 46l126 126l-126 126z" />
    <glyph glyph-name="onequarter" unicode="&#xbc;" horiz-adv-x="755" 
d="M631 293l-138 -168h138v168zM631 0v75h-200v50l204 247h49v-247h52v-50h-52v-75h-53zM119 304v308l-75 -38l-19 44l109 57h37v-371h-52zM631 675l-474 -675h-68l474 675h68z" />
    <glyph glyph-name="onehalf" unicode="&#xbd;" horiz-adv-x="781" 
d="M119 304v308l-75 -38l-19 44l109 57h37v-371h-52zM631 675l-474 -675h-68l474 675h68zM695 262q0 26 -21.5 44.5t-51.5 18.5q-57 0 -81 -60l-48 23q17 40 52 63.5t77 23.5q52 0 90 -33q37 -31 37 -78q0 -54 -78 -126l-92 -88h176v-50h-257v38l139 133q58 55 58 91z" />
    <glyph glyph-name="threequarters" unicode="&#xbe;" horiz-adv-x="836" 
d="M511 75v50l205 247h48v-247h53v-50h-53v-75h-52v75h-201zM234 0h-68l475 675h68zM153 299q-45 0 -80.5 21.5t-49.5 55.5l49 18q8 -20 29.5 -32.5t49.5 -12.5q36 0 59.5 18t23.5 44t-23 44t-57 18h-28v40h20q34 0 56.5 17t22.5 42q0 24 -21.5 40.5t-53.5 16.5
q-58 0 -77 -42l-45 17q15 34 48.5 54.5t76.5 20.5q54 0 90 -30t36 -76q0 -55 -55 -77q64 -25 64 -86q0 -48 -39 -79q-38 -32 -96 -32zM712 293l-139 -168h139v168z" />
    <glyph glyph-name="questiondown" unicode="&#xbf;" horiz-adv-x="504" 
d="M117 -26q0 -48 42 -79q42 -33 103 -33q51 0 90.5 27.5t53.5 72.5l77 -23q-21 -68 -80.5 -109.5t-138.5 -41.5q-96 0 -160 54q-64 52 -64 132q0 37 17 72t43 57q54 46 92 59l18 7l5 78h69l8 -119q-33 -11 -61 -25q-28 -12 -53 -31q-25 -17 -43 -43.5t-18 -54.5zM196 406
q0 23 15 38.5t38 15.5t38.5 -15.5t15.5 -38.5t-15.5 -38t-38.5 -15t-38 15.5t-15 37.5z" />
    <glyph glyph-name="Agrave" unicode="&#xc0;" horiz-adv-x="694" 
d="M103 0h-85l297 675h64l297 -675h-84l-68 155h-353zM491 230l-143 329l-144 -329h287zM389 751l-176 90l37 66l165 -111z" />
    <glyph glyph-name="Aacute" unicode="&#xc1;" horiz-adv-x="694" 
d="M103 0h-85l297 675h64l297 -675h-84l-68 155h-353zM491 230l-143 329l-144 -329h287zM303 749l-26 45l165 110l37 -65z" />
    <glyph glyph-name="Acircumflex" unicode="&#xc2;" horiz-adv-x="694" 
d="M103 0h-85l297 675h64l297 -675h-84l-68 155h-353zM491 230l-143 329l-144 -329h287zM233 749l-33 42l144 115h7l143 -115l-32 -42l-115 79z" />
    <glyph glyph-name="Atilde" unicode="&#xc3;" horiz-adv-x="694" 
d="M171 155l-68 -155h-85l297 675h64l297 -675h-84l-68 155h-353zM491 230l-143 329l-144 -329h287zM263 763h-60q0 41 26.5 69.5t64.5 28.5q30 0 58 -24q29 -23 42 -23q15 0 26 12t11 30h60q0 -42 -26 -70t-65 -28q-30 0 -59 23q-29 24 -42 24q-15 0 -25.5 -12t-10.5 -30z
" />
    <glyph glyph-name="Adieresis" unicode="&#xc4;" horiz-adv-x="694" 
d="M171 155l-68 -155h-85l297 675h64l297 -675h-84l-68 155h-353zM491 230l-143 329l-144 -329h287zM407 839q15 14 37 14t36 -14q15 -14 15 -36t-15 -37q-14 -14 -36 -14t-37 14q-14 15 -14 37t14 36zM251 853q21 0 35.5 -14t14.5 -36t-14.5 -36.5t-35.5 -14.5
q-22 0 -36.5 14.5t-14.5 36.5t14.5 36t36.5 14z" />
    <glyph glyph-name="Aring" unicode="&#xc5;" horiz-adv-x="694" 
d="M171 155l-68 -155h-85l297 675h64l297 -675h-84l-68 155h-353zM491 230l-143 329l-144 -329h287zM347 945q43 0 72 -29t29 -72q0 -42 -29 -71.5t-72 -29.5q-42 0 -71 29.5t-29 71.5q0 43 29 72t71 29zM347 798q20 0 33.5 13.5t13.5 32.5t-13.5 32.5t-33.5 13.5
q-19 0 -32.5 -13t-13.5 -33t13.5 -33t32.5 -13z" />
    <glyph glyph-name="AE" unicode="&#xc6;" horiz-adv-x="957" 
d="M207 155l-97 -155h-92l426 675h470v-75h-354v-221h305v-75h-305v-229h359v-75h-440v155h-272zM254 230h225v359z" />
    <glyph glyph-name="Ccedilla" unicode="&#xc7;" horiz-adv-x="750" 
d="M51 337q0 149 99 248q100 100 249 100q98 0 178 -46.5t125 -127.5l-78 -29q-36 58 -95 91.5t-130 33.5q-113 0 -189 -78q-76 -76 -76 -192t76 -192q77 -77 189 -77q71 0 130 33.5t95 91.5l78 -29q-40 -73 -110 -119t-156 -54l-10 -39q3 0 8 -1.5t17 -7t21.5 -12.5
t17.5 -21t8 -31q0 -37 -30 -61t-75 -24q-54 0 -86 28l-11 9l16 40q25 -28 69 -28q25 0 42 10.5t17 25.5t-18.5 25t-41.5 13l-21 2l17 71q-141 7 -233 106q-92 100 -92 241z" />
    <glyph glyph-name="Egrave" unicode="&#xc8;" horiz-adv-x="605" 
d="M78 675h484v-75h-403v-221h354v-75h-354v-229h408v-75h-489v675zM357 751l-176 90l37 66l165 -111z" />
    <glyph glyph-name="Eacute" unicode="&#xc9;" horiz-adv-x="605" 
d="M78 675h484v-75h-403v-221h354v-75h-354v-229h408v-75h-489v675zM271 749l-26 45l165 110l37 -65z" />
    <glyph glyph-name="Ecircumflex" unicode="&#xca;" horiz-adv-x="605" 
d="M78 675h484v-75h-403v-221h354v-75h-354v-229h408v-75h-489v675zM201 749l-33 42l144 115h7l143 -115l-32 -42l-115 79z" />
    <glyph glyph-name="Edieresis" unicode="&#xcb;" horiz-adv-x="605" 
d="M78 675h484v-75h-403v-221h354v-75h-354v-229h408v-75h-489v675zM448 766q-14 -14 -36 -14t-37 14q-14 15 -14 37t14 36q15 14 37 14t36 -14q15 -14 15 -36t-15 -37zM219 853q21 0 35.5 -14t14.5 -36t-14.5 -36.5t-35.5 -14.5q-22 0 -36.5 14.5t-14.5 36.5t14.5 36
t36.5 14z" />
    <glyph glyph-name="Igrave" unicode="&#xcc;" horiz-adv-x="237" 
d="M159 0h-81v675h81v-675zM160 751l-176 90l37 66l165 -111z" />
    <glyph glyph-name="Iacute" unicode="&#xcd;" horiz-adv-x="237" 
d="M159 0h-81v675h81v-675zM74 749l-26 45l165 110l37 -65z" />
    <glyph glyph-name="Icircumflex" unicode="&#xce;" horiz-adv-x="237" 
d="M159 0h-81v675h81v-675zM118 828l-114 -79l-33 42l144 115h7l143 -115l-32 -42z" />
    <glyph glyph-name="Idieresis" unicode="&#xcf;" horiz-adv-x="237" 
d="M159 0h-81v675h81v-675zM22 853q21 0 35.5 -14t14.5 -36t-14.5 -36.5t-35.5 -14.5q-22 0 -36.5 14.5t-14.5 36.5t14.5 36t36.5 14zM178 766q-14 15 -14 37t14 36q15 14 37 14t36 -14q15 -14 15 -36t-15 -37q-14 -14 -36 -14t-37 14z" />
    <glyph glyph-name="Eth" unicode="&#xd0;" horiz-adv-x="753" 
d="M10 304v68h79v303h266q148 0 248 -97t100 -240q0 -144 -100 -241t-248 -97h-266v304h-79zM170 600v-228h212v-68h-212v-229h185q112 0 188 76t76 187t-76 186q-76 76 -188 76h-185z" />
    <glyph glyph-name="Ntilde" unicode="&#xd1;" horiz-adv-x="731" 
d="M156 0h-78v675h71l426 -535v535h78v-675h-71l-426 535v-535zM281 763h-60q0 41 26.5 69.5t65.5 28.5q29 0 57 -24q29 -23 43 -23q15 0 25.5 12t10.5 30h60q0 -42 -26 -70t-65 -28q-29 0 -58 23q-28 24 -42 24q-16 0 -26.5 -12t-10.5 -30z" />
    <glyph glyph-name="Ograve" unicode="&#xd2;" horiz-adv-x="797" 
d="M399 -11q-149 0 -249 99q-99 100 -99 249t99 248q100 100 249 100t248 -100q99 -99 99 -248t-100 -249q-99 -99 -247 -99zM210 529q-76 -76 -76 -192t76 -192q77 -77 189 -77q113 0 188 77q76 76 76 192t-76 192q-75 78 -188 78t-189 -78zM440 751l-176 90l37 66
l166 -111z" />
    <glyph glyph-name="Oacute" unicode="&#xd3;" horiz-adv-x="797" 
d="M399 -11q-149 0 -249 99q-99 100 -99 249t99 248q100 100 249 100t248 -100q99 -99 99 -248t-100 -249q-99 -99 -247 -99zM210 529q-76 -76 -76 -192t76 -192q77 -77 189 -77q113 0 188 77q76 76 76 192t-76 192q-75 78 -188 78t-189 -78zM354 749l-26 45l165 110l37 -65
z" />
    <glyph glyph-name="Ocircumflex" unicode="&#xd4;" horiz-adv-x="797" 
d="M399 -11q-149 0 -249 99q-99 100 -99 249t99 248q100 100 249 100t248 -100q99 -99 99 -248t-100 -249q-99 -99 -247 -99zM210 529q-76 -76 -76 -192t76 -192q77 -77 189 -77q113 0 188 77q76 76 76 192t-76 192q-75 78 -188 78t-189 -78zM399 828l-115 -79l-32 42
l143 115h7l143 -115l-32 -42z" />
    <glyph glyph-name="Otilde" unicode="&#xd5;" horiz-adv-x="797" 
d="M399 -11q-149 0 -249 99q-99 100 -99 249t99 248q100 100 249 100t248 -100q99 -99 99 -248t-100 -249q-99 -99 -247 -99zM210 529q-76 -76 -76 -192t76 -192q77 -77 189 -77q113 0 188 77q76 76 76 192t-76 192q-75 78 -188 78t-189 -78zM314 763h-59q0 41 26 69.5
t65 28.5q30 0 58 -24q29 -23 42 -23q15 0 26 12t11 30h60q0 -42 -26.5 -70t-65.5 -28q-29 0 -58 23q-29 24 -42 24q-16 0 -26.5 -12t-10.5 -30z" />
    <glyph glyph-name="Odieresis" unicode="&#xd6;" horiz-adv-x="797" 
d="M399 -11q-149 0 -249 99q-99 100 -99 249t99 248q100 100 249 100t248 -100q99 -99 99 -248t-100 -249q-99 -99 -247 -99zM210 529q-76 -76 -76 -192t76 -192q77 -77 189 -77q113 0 188 77q76 76 76 192t-76 192q-75 78 -188 78t-189 -78zM265 766q-14 15 -14 37t14 36
q15 14 37 14t36 -14q15 -14 15 -36t-15 -37q-14 -14 -36 -14t-37 14zM459 766q-14 15 -14 37t14 36t36 14t36 -14q15 -14 15 -36t-15 -37q-14 -14 -36 -14t-36 14z" />
    <glyph glyph-name="multiply" unicode="&#xd7;" 
d="M250 338l-156 155l50 50l156 -156l156 156l50 -49l-156 -156l156 -156l-50 -50l-156 156l-156 -156l-50 50z" />
    <glyph glyph-name="Oslash" unicode="&#xd8;" horiz-adv-x="797" 
d="M142 25l31 44q-122 101 -122 269q0 149 99 248q100 99 249 99q94 0 174 -44l30 44l53 -37l-30 -44q57 -48 88.5 -117t31.5 -149q0 -148 -99 -249q-99 -99 -248 -99q-97 0 -173 43l-31 -44zM578 537l-306 -438q56 -31 127 -31q113 0 188 77q75 78 75 193q0 123 -84 199z
M220 137l306 438q-56 32 -127 32q-112 0 -189 -77q-76 -76 -76 -192q0 -123 86 -201z" />
    <glyph glyph-name="Ugrave" unicode="&#xd9;" horiz-adv-x="708" 
d="M559 270v405h81v-405q0 -119 -82 -200q-83 -80 -204 -80t-204 80q-82 81 -82 200v405h81v-405q0 -89 58 -147t147 -58q88 0 146 58q59 59 59 147zM396 751l-176 90l37 66l165 -111z" />
    <glyph glyph-name="Uacute" unicode="&#xda;" horiz-adv-x="708" 
d="M559 270v405h81v-405q0 -119 -82 -200q-83 -80 -204 -80t-204 80q-82 81 -82 200v405h81v-405q0 -89 58 -147t147 -58q88 0 146 58q59 59 59 147zM310 749l-27 45l166 110l37 -65z" />
    <glyph glyph-name="Ucircumflex" unicode="&#xdb;" horiz-adv-x="708" 
d="M559 270v405h81v-405q0 -119 -82 -200q-83 -80 -204 -80t-204 80q-82 81 -82 200v405h81v-405q0 -89 58 -147t147 -58q88 0 146 58q59 59 59 147zM354 828l-115 -79l-32 42l143 115h7l144 -115l-33 -42z" />
    <glyph glyph-name="Udieresis" unicode="&#xdc;" horiz-adv-x="708" 
d="M559 270v405h81v-405q0 -119 -82 -200q-83 -80 -204 -80t-204 80q-82 81 -82 200v405h81v-405q0 -89 58 -147t147 -58q88 0 146 58q59 59 59 147zM207 803q0 22 14.5 36t36.5 14q21 0 35.5 -14t14.5 -36t-14.5 -36.5t-35.5 -14.5q-22 0 -36.5 14t-14.5 37zM451 853
q21 0 35.5 -14t14.5 -36t-14.5 -36.5t-35.5 -14.5q-22 0 -36.5 14.5t-14.5 36.5t14.5 36t36.5 14z" />
    <glyph glyph-name="Yacute" unicode="&#xdd;" horiz-adv-x="644" 
d="M281 0v274l-263 401h93l210 -324l212 324h94l-265 -397v-278h-81zM454 839l-176 -90l-26 45l165 110z" />
    <glyph glyph-name="Thorn" unicode="&#xde;" horiz-adv-x="634" 
d="M78 0v675h81v-130h214q93 0 155 -59t62 -148t-62 -148t-155 -59h-214v-131h-81zM373 469h-214v-263h214q57 0 95 37.5t38 94.5q0 56 -39 93q-38 38 -94 38z" />
    <glyph glyph-name="germandbls" unicode="&#xdf;" horiz-adv-x="545" 
d="M248 661q-48 0 -79.5 -31.5t-31.5 -79.5v-550h-74v560q0 76 51 125q53 50 131 50q77 0 127 -46q51 -47 51 -110q1 -34 -22 -66t-46 -57t-21 -42q0 -32 61 -76q32 -21 53 -39.5t40.5 -56t19.5 -82.5q0 -167 -231 -167v74q81 0 118 22.5t37 71.5q0 34 -18 61t-43.5 45.5
l-51 37t-43.5 45t-18 60.5q0 53 44 95t44 74q0 33 -28.5 57.5t-69.5 24.5z" />
    <glyph glyph-name="agrave" unicode="&#xe0;" horiz-adv-x="560" 
d="M261 -10q-95 0 -159 67q-63 67 -63 168q0 99 63 167q65 68 159 68q99 0 163 -72v62h74v-450h-74v62q-64 -72 -163 -72zM160 340q-44 -47 -44 -115t44 -115q43 -46 109 -46t109 46q44 47 44 115t-44 115q-43 46 -109 46t-109 -46zM349 592l-26 -46l-176 90l37 66z" />
    <glyph glyph-name="aacute" unicode="&#xe1;" horiz-adv-x="560" 
d="M261 -10q-95 0 -159 67q-63 67 -63 168q0 99 63 167q65 68 159 68q99 0 163 -72v62h74v-450h-74v62q-64 -72 -163 -72zM160 340q-44 -47 -44 -115t44 -115q43 -46 109 -46t109 46q44 47 44 115t-44 115q-43 46 -109 46t-109 -46zM413 634l-176 -90l-26 45l165 111z" />
    <glyph glyph-name="acircumflex" unicode="&#xe2;" horiz-adv-x="560" 
d="M261 -10q-95 0 -159 67q-63 67 -63 168q0 99 63 167q65 68 159 68q99 0 163 -72v62h74v-450h-74v62q-64 -72 -163 -72zM160 340q-44 -47 -44 -115t44 -115q43 -46 109 -46t109 46q44 47 44 115t-44 115q-43 46 -109 46t-109 -46zM166 544l-32 42l143 115h7l144 -115
l-33 -42l-114 79z" />
    <glyph glyph-name="atilde" unicode="&#xe3;" horiz-adv-x="560" 
d="M261 -10q-95 0 -159 67q-63 67 -63 168q0 99 63 167q65 68 159 68q99 0 163 -72v62h74v-450h-74v62q-64 -72 -163 -72zM378 340q-43 46 -109 46t-109 -46q-44 -47 -44 -115t44 -115q43 -46 109 -46t109 46q44 47 44 115t-44 115zM197 558h-60q0 42 26.5 70t64.5 28
q30 0 58 -24q29 -23 42 -23q15 0 26 12t11 30h60q0 -42 -26 -69.5t-65 -27.5q-30 0 -59 23t-42 23q-15 0 -25.5 -12t-10.5 -30z" />
    <glyph glyph-name="adieresis" unicode="&#xe4;" horiz-adv-x="560" 
d="M261 460q99 0 163 -72v62h74v-450h-74v62q-64 -72 -163 -72q-95 0 -159 67q-63 67 -63 168q0 99 63 167q65 68 159 68zM160 340q-44 -47 -44 -115t44 -115q43 -46 109 -46t109 46q44 47 44 115t-44 115q-43 46 -109 46t-109 -46zM185 648q21 0 35.5 -14t14.5 -36
t-14.5 -36t-35.5 -14q-22 0 -36.5 14t-14.5 36t14.5 36t36.5 14zM378 648q21 0 35.5 -14t14.5 -36t-14.5 -36t-35.5 -14q-22 0 -36.5 14t-14.5 36t14.5 36t36.5 14z" />
    <glyph glyph-name="aring" unicode="&#xe5;" horiz-adv-x="560" 
d="M261 460q99 0 163 -72v62h74v-450h-74v62q-64 -72 -163 -72q-95 0 -159 67q-63 67 -63 168q0 99 63 167q65 68 159 68zM160 340q-44 -47 -44 -115t44 -115q43 -46 109 -46t109 46q44 47 44 115t-44 115q-43 46 -109 46t-109 -46zM181 639q0 43 29 72t71 29t71.5 -29
t29.5 -72q0 -42 -29.5 -71t-71.5 -29t-71 29t-29 71zM235 639q0 -19 13.5 -32.5t32.5 -13.5t32.5 13.5t13.5 32.5q0 20 -13.5 33.5t-32.5 13.5t-32.5 -13.5t-13.5 -33.5z" />
    <glyph glyph-name="ae" unicode="&#xe6;" horiz-adv-x="921" 
d="M261 -10q-95 0 -159 67q-63 67 -63 168q0 99 63 167q65 68 159 68q99 0 163 -72v62h73v-65q65 75 167 75q94 0 159 -68t65 -167q0 -3 -2 -25h-386q7 -60 53 -101q46 -40 111 -40q85 0 132 65l72 -23q-30 -52 -82.5 -81.5t-115.5 -29.5q-106 0 -173 76v-66h-73v62
q-64 -72 -163 -72zM160 340q-44 -47 -44 -115t44 -115q43 -46 109 -46t109 46q44 47 44 115t-44 115q-43 46 -109 46t-109 -46zM501 259h311q-11 58 -54.5 95t-102.5 37q-58 0 -101 -37t-53 -95z" />
    <glyph glyph-name="ccedilla" unicode="&#xe7;" horiz-adv-x="519" 
d="M231 -81l17 72q-92 9 -150 75q-59 67 -59 159q0 101 67 168t168 67q72 0 129.5 -36.5t84.5 -99.5l-74 -23q-19 39 -56 62t-84 23q-68 0 -113 -46t-45 -115t45 -115t113 -46q47 0 84 23t56 62l74 -23q-24 -55 -71.5 -90.5t-109.5 -43.5l-9 -40q3 0 8 -1.5t17 -7
t21.5 -12.5t17.5 -21t8 -31q0 -37 -30 -61t-75 -24q-54 0 -86 28l-11 9l16 40q25 -28 69 -28q25 0 42 10.5t17 25.5t-18.5 25t-41.5 13z" />
    <glyph glyph-name="egrave" unicode="&#xe8;" horiz-adv-x="536" 
d="M501 200h-386q7 -60 53 -101q46 -40 111 -40q86 0 133 65l71 -23q-31 -52 -85 -81.5t-119 -29.5q-104 0 -172 67q-68 68 -68 168t67 167q68 68 166 68t164 -68q67 -67 67 -167q0 -15 -2 -25zM116 259h311q-11 58 -54.5 95t-102.5 37q-57 0 -100 -37t-54 -95zM315 546
l-176 90l37 66l165 -110z" />
    <glyph glyph-name="eacute" unicode="&#xe9;" horiz-adv-x="536" 
d="M501 200h-386q7 -60 53 -101q46 -40 111 -40q86 0 133 65l71 -23q-31 -52 -85 -81.5t-119 -29.5q-104 0 -172 67q-68 68 -68 168t67 167q68 68 166 68t164 -68q67 -67 67 -167q0 -15 -2 -25zM116 259h311q-11 58 -54.5 95t-102.5 37q-57 0 -100 -37t-54 -95zM229 544
l-27 45l166 111l37 -66z" />
    <glyph glyph-name="ecircumflex" unicode="&#xea;" horiz-adv-x="536" 
d="M501 200h-386q7 -60 53 -101q46 -40 111 -40q86 0 133 65l71 -23q-31 -52 -85 -81.5t-119 -29.5q-104 0 -172 67q-68 68 -68 168t67 167q68 68 166 68t164 -68q67 -67 67 -167q0 -15 -2 -25zM116 259h311q-11 58 -54.5 95t-102.5 37q-57 0 -100 -37t-54 -95zM273 623
l-115 -79l-32 42l143 115h7l144 -115l-33 -42z" />
    <glyph glyph-name="edieresis" unicode="&#xeb;" horiz-adv-x="536" 
d="M501 200h-386q7 -60 53 -101q46 -40 111 -40q86 0 133 65l71 -23q-31 -52 -85 -81.5t-119 -29.5q-104 0 -172 67q-68 68 -68 168t67 167q68 68 166 68t164 -68q67 -67 67 -167q0 -15 -2 -25zM116 259h311q-11 58 -54.5 95t-102.5 37q-57 0 -100 -37t-54 -95zM177 648
q21 0 35.5 -14t14.5 -36t-14.5 -36t-35.5 -14q-22 0 -36.5 14t-14.5 36t14.5 36t36.5 14zM370 648q21 0 35.5 -14t14.5 -36t-14.5 -36t-35.5 -14q-22 0 -36.5 14t-14.5 36t14.5 36t36.5 14z" />
    <glyph glyph-name="igrave" unicode="&#xec;" horiz-adv-x="199" 
d="M137 0h-74v450h74v-450zM-30 636l37 66l165 -111l-26 -44z" />
    <glyph glyph-name="iacute" unicode="&#xed;" horiz-adv-x="199" 
d="M137 0h-74v450h74v-450zM24 589l165 111l37 -66l-176 -89z" />
    <glyph glyph-name="icircumflex" unicode="&#xee;" horiz-adv-x="199" 
d="M137 0h-74v450h74v-450zM-15 544l-33 42l144 115h7l143 -115l-32 -42l-114 79z" />
    <glyph glyph-name="idieresis" unicode="&#xef;" horiz-adv-x="199" 
d="M137 0h-74v450h74v-450zM-25 561q-15 15 -15 37t15 36q14 15 36 15t36 -15q14 -14 14 -36t-14 -37q-14 -14 -36 -14t-36 14zM152 561q-14 15 -14 37t14 36q14 15 36 15t36 -15q15 -14 15 -36t-15 -37q-14 -14 -36 -14t-36 14z" />
    <glyph glyph-name="eth" unicode="&#xf0;" horiz-adv-x="548" 
d="M274 460q79 0 142 -45q-34 148 -147 193l-56 -89l-53 34l46 72q-42 8 -98 8v73q78 0 141 -15l48 76l52 -33l-40 -63q102 -43 151 -151.5t49 -294.5q0 -100 -68 -168q-67 -67 -167 -67q-101 0 -168 67t-67 168t67 168t168 67zM161 340q-45 -46 -45 -115t45 -115t113 -46
t113 46t45 115t-45 115t-113 46t-113 -46z" />
    <glyph glyph-name="ntilde" unicode="&#xf1;" horiz-adv-x="538" 
d="M136 0h-73v450h73v-75q49 85 159 85q79 0 130 -51q52 -51 52 -128v-281h-74v261q0 55 -36.5 91.5t-91.5 36.5q-59 0 -99 -37t-40 -92v-260zM189 558h-60q0 42 26 70t65 28q29 0 58 -24q29 -23 42 -23q15 0 26 12t11 30h60q0 -42 -26 -69.5t-65 -27.5q-30 0 -59 23t-42 23
q-15 0 -25.5 -12t-10.5 -30z" />
    <glyph glyph-name="ograve" unicode="&#xf2;" horiz-adv-x="548" 
d="M106 57q-67 67 -67 168t67 168t168 67q100 0 167 -67q68 -68 68 -168t-68 -168q-67 -67 -167 -67q-101 0 -168 67zM161 340q-45 -46 -45 -115t45 -115t113 -46t113 46t45 115t-45 115t-113 46t-113 -46zM316 546l-176 90l37 66l165 -110z" />
    <glyph glyph-name="oacute" unicode="&#xf3;" horiz-adv-x="548" 
d="M106 57q-67 67 -67 168t67 168t168 67q100 0 167 -67q68 -68 68 -168t-68 -168q-67 -67 -167 -67q-101 0 -168 67zM161 340q-45 -46 -45 -115t45 -115t113 -46t113 46t45 115t-45 115t-113 46t-113 -46zM230 544l-26 45l165 111l37 -66z" />
    <glyph glyph-name="ocircumflex" unicode="&#xf4;" horiz-adv-x="548" 
d="M106 57q-67 67 -67 168t67 168t168 67q100 0 167 -67q68 -68 68 -168t-68 -168q-67 -67 -167 -67q-101 0 -168 67zM161 340q-45 -46 -45 -115t45 -115t113 -46t113 46t45 115t-45 115t-113 46t-113 -46zM274 623l-114 -79l-33 42l144 115h7l143 -115l-33 -42z" />
    <glyph glyph-name="otilde" unicode="&#xf5;" horiz-adv-x="548" 
d="M106 57q-67 67 -67 168t67 168t168 67q100 0 167 -67q68 -68 68 -168t-68 -168q-67 -67 -167 -67q-101 0 -168 67zM161 340q-45 -46 -45 -115t45 -115t113 -46t113 46t45 115t-45 115t-113 46t-113 -46zM190 558h-60q0 42 26.5 70t64.5 28q29 0 58 -24q29 -23 42 -23
q15 0 26 12t11 30h60q0 -42 -26 -69.5t-65 -27.5q-30 0 -59 23t-42 23q-15 0 -25.5 -12t-10.5 -30z" />
    <glyph glyph-name="odieresis" unicode="&#xf6;" horiz-adv-x="548" 
d="M106 57q-67 67 -67 168t67 168t168 67q100 0 167 -67q68 -68 68 -168t-68 -168q-67 -67 -167 -67q-101 0 -168 67zM161 340q-45 -46 -45 -115t45 -115t113 -46t113 46t45 115t-45 115t-113 46t-113 -46zM178 648q21 0 35.5 -14t14.5 -36t-14.5 -36t-35.5 -14
q-22 0 -36.5 14t-14.5 36t14.5 36t36.5 14zM371 648q21 0 35.5 -14t14.5 -36t-14.5 -36t-35.5 -14q-22 0 -36.5 14t-14.5 36t14.5 36t36.5 14z" />
    <glyph glyph-name="divide" unicode="&#xf7;" 
d="M72 303v70h456v-70h-456zM247 154q0 23 15 38.5t38 15.5t38 -15.5t15 -38.5q0 -22 -15.5 -37.5t-37.5 -15.5t-37.5 15.5t-15.5 37.5zM262 482q-15 16 -15 39t15 38q16 15 38 15t37 -15q16 -15 16 -38t-15 -39q-15 -15 -38 -15t-38 15z" />
    <glyph glyph-name="oslash" unicode="&#xf8;" horiz-adv-x="548" 
d="M274 460q59 0 108 -25l17 25l53 -37l-17 -24q74 -68 74 -174q0 -100 -68 -168q-67 -67 -167 -67q-59 0 -108 25l-17 -25l-53 37l17 24q-74 68 -74 174q0 101 67 168t168 67zM390 334l-179 -256q31 -14 63 -14q68 0 113 46t45 115q0 67 -42 109zM158 116l180 256
q-31 14 -64 14q-68 0 -113 -46t-45 -115q0 -65 42 -109z" />
    <glyph glyph-name="ugrave" unicode="&#xf9;" horiz-adv-x="538" 
d="M242 -10q-78 0 -130 51q-51 51 -51 128v281h74v-261q0 -55 36.5 -91.5t91.5 -36.5q60 0 98 37q40 37 40 92v260h74v-450h-74v74q-51 -84 -159 -84zM336 592l-26 -46l-176 90l37 66z" />
    <glyph glyph-name="uacute" unicode="&#xfa;" horiz-adv-x="538" 
d="M61 169v281h74v-261q0 -55 36.5 -91.5t91.5 -36.5q60 0 98 37q40 37 40 92v260h74v-450h-74v74q-51 -84 -159 -84q-78 0 -130 51q-51 51 -51 128zM400 634l-176 -90l-26 45l165 111z" />
    <glyph glyph-name="ucircumflex" unicode="&#xfb;" horiz-adv-x="538" 
d="M61 169v281h74v-261q0 -55 36.5 -91.5t91.5 -36.5q60 0 98 37q40 37 40 92v260h74v-450h-74v74q-51 -84 -159 -84q-78 0 -130 51q-51 51 -51 128zM268 623l-114 -79l-33 42l144 115h7l143 -115l-33 -42z" />
    <glyph glyph-name="udieresis" unicode="&#xfc;" horiz-adv-x="538" 
d="M61 169v281h74v-261q0 -55 36.5 -91.5t91.5 -36.5q60 0 98 37q40 37 40 92v260h74v-450h-74v74q-51 -84 -159 -84q-78 0 -130 51q-51 51 -51 128zM365 648q21 0 35.5 -14t14.5 -36t-14.5 -36t-35.5 -14q-22 0 -36.5 14t-14.5 36t14.5 36t36.5 14zM172 548q-22 0 -36.5 14
t-14.5 36t14.5 36t36.5 14q21 0 35.5 -14t14.5 -36t-14.5 -36t-35.5 -14z" />
    <glyph glyph-name="yacute" unicode="&#xfd;" horiz-adv-x="463" 
d="M192 12l-179 438h76l140 -349l145 349h76l-229 -546q-28 -67 -68.5 -98t-101.5 -31h-17v71h17q72 0 107 83zM363 634l-176 -90l-26 45l165 111z" />
    <glyph glyph-name="thorn" unicode="&#xfe;" horiz-adv-x="561" 
d="M136 -225h-73v950h73v-337q64 72 163 72q95 0 158 -68q64 -67 64 -167q0 -101 -64 -168q-63 -67 -158 -67q-99 0 -163 72v-287zM400 340q-43 46 -109 46t-109 -46q-44 -47 -44 -115t44 -115q43 -46 109 -46t109 46q45 46 45 115t-45 115z" />
    <glyph glyph-name="ydieresis" unicode="&#xff;" horiz-adv-x="463" 
d="M192 12l-179 438h76l140 -349l145 349h76l-229 -546q-28 -67 -68.5 -98t-101.5 -31h-17v71h17q72 0 107 83zM292 562q-14 14 -14 36t14 36t36 14t36 -14q15 -14 15 -36t-15 -36q-14 -14 -36 -14t-36 14zM135 548q-22 0 -36.5 14t-14.5 36t14.5 36t36.5 14q21 0 35.5 -14
t14.5 -36t-14.5 -36t-35.5 -14z" />
    <glyph glyph-name="Amacron" unicode="&#x100;" horiz-adv-x="694" 
d="M103 0h-85l297 675h64l297 -675h-84l-68 155h-353zM491 230l-143 329l-144 -329h287zM220 778v63h255v-63h-255z" />
    <glyph glyph-name="amacron" unicode="&#x101;" horiz-adv-x="560" 
d="M261 460q99 0 163 -72v62h74v-450h-74v62q-64 -72 -163 -72q-95 0 -159 67q-63 67 -63 168q0 99 63 167q65 68 159 68zM378 340q-43 46 -109 46t-109 -46q-44 -47 -44 -115t44 -115q43 -46 109 -46t109 46q44 47 44 115t-44 115zM409 636v-63h-256v63h256z" />
    <glyph glyph-name="Abreve" unicode="&#x102;" horiz-adv-x="694" 
d="M171 155l-68 -155h-85l297 675h64l297 -675h-84l-68 155h-353zM491 230l-143 329l-144 -329h287zM214 878h60q0 -32 21.5 -54t52.5 -22t52 22t21 54h60q0 -56 -39 -95q-38 -38 -95 -38t-95 38q-38 40 -38 95z" />
    <glyph glyph-name="abreve" unicode="&#x103;" horiz-adv-x="560" 
d="M261 -10q-95 0 -159 67q-63 67 -63 168q0 99 63 167q65 68 159 68q99 0 163 -72v62h74v-450h-74v62q-64 -72 -163 -72zM160 340q-44 -47 -44 -115t44 -115q43 -46 109 -46t109 46q44 47 44 115t-44 115q-43 46 -109 46t-109 -46zM148 673h60q0 -32 21.5 -54t52.5 -22
t52 22t21 54h60q0 -57 -39 -94q-38 -38 -95 -38t-95 38t-38 94z" />
    <glyph glyph-name="Aogonek" unicode="&#x104;" horiz-adv-x="694" 
d="M103 0h-85l297 675h64l297 -675h-10q-4 -3 -15 -14q-7 -8 -25 -36q-15 -25 -15 -47q0 -20 11 -32t29 -12q28 0 49 21l6 7l26 -31q-1 -1 -3 -3.5t-4.5 -5t-5.5 -4.5q-10 -11 -35.5 -23.5t-47.5 -12.5q-36 0 -60 23.5t-24 59.5q0 25 13.5 52.5t30.5 43.5l14 14h-18l-68 155
h-353zM491 230l-143 329l-144 -329h287z" />
    <glyph glyph-name="aogonek" unicode="&#x105;" horiz-adv-x="560" 
d="M261 -10q-95 0 -159 67q-63 67 -63 168q0 99 63 167q65 68 159 68q99 0 163 -72v62h74v-450h-9l-16 -14q-7 -8 -25 -36q-15 -26 -15 -47q0 -20 11.5 -32t29.5 -12q29 0 48 21l7 7l26 -31q-1 -1 -3 -3.5t-4.5 -5t-5.5 -4.5q-10 -11 -35.5 -23.5t-47.5 -12.5
q-36 0 -60 23.5t-24 59.5q0 25 13.5 52.5t29.5 43.5l15 14h-9v62q-64 -72 -163 -72zM160 340q-44 -47 -44 -115t44 -115q43 -46 109 -46t109 46q44 47 44 115t-44 115q-43 46 -109 46t-109 -46z" />
    <glyph glyph-name="Cacute" unicode="&#x106;" horiz-adv-x="750" 
d="M399 685q98 0 178 -46.5t125 -127.5l-78 -29q-36 58 -95 91.5t-130 33.5q-113 0 -189 -78q-76 -76 -76 -192t76 -192q77 -77 189 -77q71 0 130 33.5t95 91.5l78 -29q-45 -81 -125 -128t-178 -47q-149 0 -249 99q-99 100 -99 249t99 248q100 100 249 100zM350 749l-26 45
l165 110l37 -65z" />
    <glyph glyph-name="cacute" unicode="&#x107;" horiz-adv-x="519" 
d="M488 324l-74 -23q-19 39 -56 62t-84 23q-68 0 -113 -46t-45 -115t45 -115t113 -46q47 0 84 23t56 62l74 -23q-27 -63 -84.5 -99.5t-129.5 -36.5q-101 0 -168 67t-67 168t67 168t168 67q72 0 129.5 -36.5t84.5 -99.5zM231 544l-26 45l165 111l37 -66z" />
    <glyph glyph-name="Ccircumflex" unicode="&#x108;" horiz-adv-x="750" 
d="M399 685q98 0 178 -46.5t125 -127.5l-78 -29q-36 58 -95 91.5t-130 33.5q-113 0 -189 -78q-76 -76 -76 -192t76 -192q77 -77 189 -77q71 0 130 33.5t95 91.5l78 -29q-45 -81 -125 -128t-178 -47q-149 0 -249 99q-99 100 -99 249t99 248q100 100 249 100zM395 828
l-115 -79l-32 42l143 115h7l144 -115l-33 -42z" />
    <glyph glyph-name="ccircumflex" unicode="&#x109;" horiz-adv-x="519" 
d="M488 324l-74 -23q-19 39 -56 62t-84 23q-68 0 -113 -46t-45 -115t45 -115t113 -46q47 0 84 23t56 62l74 -23q-27 -63 -84.5 -99.5t-129.5 -36.5q-101 0 -168 67t-67 168t67 168t168 67q72 0 129.5 -36.5t84.5 -99.5zM275 623l-115 -79l-32 42l143 115h8l143 -115l-33 -42
z" />
    <glyph glyph-name="Cdotaccent" unicode="&#x10a;" horiz-adv-x="750" 
d="M399 685q98 0 178 -46.5t125 -127.5l-78 -29q-36 58 -95 91.5t-130 33.5q-113 0 -189 -78q-76 -76 -76 -192t76 -192q77 -77 189 -77q71 0 130 33.5t95 91.5l78 -29q-45 -81 -125 -128t-178 -47q-149 0 -249 99q-99 100 -99 249t99 248q100 100 249 100zM357 766
q-15 15 -15 38t15 38t38 15t38 -16q15 -15 15 -37t-15 -37t-38 -15t-38 14z" />
    <glyph glyph-name="cdotaccent" unicode="&#x10b;" horiz-adv-x="519" 
d="M488 324l-74 -23q-19 39 -56 62t-84 23q-68 0 -113 -46t-45 -115t45 -115t113 -46q47 0 84 23t56 62l74 -23q-27 -63 -84.5 -99.5t-129.5 -36.5q-101 0 -168 67t-67 168t67 168t168 67q72 0 129.5 -36.5t84.5 -99.5zM222 599q0 23 15 38t38 15t38 -15t15 -38
q0 -22 -15 -37t-38 -15t-38 15t-15 37z" />
    <glyph glyph-name="Ccaron" unicode="&#x10c;" horiz-adv-x="750" 
d="M399 685q98 0 178 -46.5t125 -127.5l-78 -29q-36 58 -95 91.5t-130 33.5q-113 0 -189 -78q-76 -76 -76 -192t76 -192q77 -77 189 -77q71 0 130 33.5t95 91.5l78 -29q-45 -81 -125 -128t-178 -47q-149 0 -249 99q-99 100 -99 249t99 248q100 100 249 100zM395 826l114 80
l33 -42l-144 -115h-7l-143 115l32 42z" />
    <glyph glyph-name="ccaron" unicode="&#x10d;" horiz-adv-x="519" 
d="M488 324l-74 -23q-19 39 -56 62t-84 23q-68 0 -113 -46t-45 -115t45 -115t113 -46q47 0 84 23t56 62l74 -23q-27 -63 -84.5 -99.5t-129.5 -36.5q-101 0 -168 67t-67 168t67 168t168 67q72 0 129.5 -36.5t84.5 -99.5zM275 622l115 79l32 -42l-143 -115h-8l-143 115l32 42z
" />
    <glyph glyph-name="Dcaron" unicode="&#x10e;" horiz-adv-x="742" 
d="M344 0h-266v675h266q149 0 247 -97q100 -97 100 -241q0 -143 -100 -240q-98 -97 -247 -97zM344 600h-185v-525h185q111 0 188 75q76 76 76 187t-76 187t-188 76zM248 749l-143 115l32 42l115 -80l115 80l32 -42l-144 -115h-7z" />
    <glyph glyph-name="dcaron" unicode="&#x10f;" horiz-adv-x="669" 
d="M261 460q105 0 163 -82v347h73v-725h-73v72q-58 -82 -163 -82q-95 0 -159 67q-63 67 -63 168q0 99 63 167q65 68 159 68zM160 340q-44 -47 -44 -115t44 -115q43 -46 110 -46t110 46q44 47 44 115t-44 115q-43 46 -110 46t-110 -46zM564 691q0 19 13 31.5t33 12.5
q22 0 35.5 -16.5t13.5 -43.5q0 -30 -20 -59q-28 -37 -54 -49l-20 21l11 10q29 26 28 47q-17 2 -28.5 15t-11.5 31z" />
    <glyph glyph-name="Dcroat" unicode="&#x110;" horiz-adv-x="753" 
d="M10 304v68h79v303h266q148 0 248 -97t100 -240q0 -144 -100 -241t-248 -97h-266v304h-79zM170 600v-228h212v-68h-212v-229h185q112 0 188 76t76 187t-76 186q-76 76 -188 76h-185z" />
    <glyph glyph-name="dslash" unicode="&#x111;" horiz-adv-x="560" 
d="M261 460q99 0 163 -72v170h-166v62h166v105h73v-105h54v-62h-54v-558h-73v62q-64 -72 -163 -72q-95 0 -159 67q-63 67 -63 168q0 99 63 167q65 68 159 68zM378 340q-43 46 -109 46t-109 -46q-44 -47 -44 -115t44 -115q43 -46 109 -46t109 46q44 47 44 115t-44 115z" />
    <glyph glyph-name="Emacron" unicode="&#x112;" horiz-adv-x="605" 
d="M78 675h484v-75h-403v-221h354v-75h-354v-229h408v-75h-489v675zM188 778v63h255v-63h-255z" />
    <glyph glyph-name="emacron" unicode="&#x113;" horiz-adv-x="536" 
d="M501 200h-386q7 -60 53 -101q46 -40 111 -40q86 0 133 65l71 -23q-31 -52 -85 -81.5t-119 -29.5q-104 0 -172 67q-68 68 -68 168t67 167q68 68 166 68t164 -68q67 -67 67 -167q0 -15 -2 -25zM116 259h311q-11 58 -54.5 95t-102.5 37q-57 0 -100 -37t-54 -95zM401 573
h-256v63h256v-63z" />
    <glyph glyph-name="Ebreve" unicode="&#x114;" horiz-adv-x="605" 
d="M78 675h484v-75h-403v-221h354v-75h-354v-229h408v-75h-489v675zM182 878h60q0 -32 21.5 -54t52.5 -22t52 22t21 54h60q0 -56 -39 -95q-38 -38 -95 -38t-95 38q-38 40 -38 95z" />
    <glyph glyph-name="ebreve" unicode="&#x115;" horiz-adv-x="536" 
d="M501 200h-386q7 -60 53 -101q46 -40 111 -40q86 0 133 65l71 -23q-31 -52 -85 -81.5t-119 -29.5q-104 0 -172 67q-68 68 -68 168t67 167q68 68 166 68t164 -68q67 -67 67 -167q0 -15 -2 -25zM116 259h311q-11 58 -54.5 95t-102.5 37q-57 0 -100 -37t-54 -95zM140 673h60
q0 -32 21 -54t52 -22t52 22t21 54h60q0 -56 -38 -94t-95 -38t-95 38t-38 94z" />
    <glyph glyph-name="Edotaccent" unicode="&#x116;" horiz-adv-x="605" 
d="M78 675h484v-75h-403v-221h354v-75h-354v-229h408v-75h-489v675zM277 767q-15 15 -15 37t15 37q15 16 38 16t38 -16q15 -15 15 -37t-15 -37t-38 -15t-38 15z" />
    <glyph glyph-name="edotaccent" unicode="&#x117;" horiz-adv-x="536" 
d="M501 200h-386q7 -60 53 -101q46 -40 111 -40q86 0 133 65l71 -23q-31 -52 -85 -81.5t-119 -29.5q-104 0 -172 67q-68 68 -68 168t67 167q68 68 166 68t164 -68q67 -67 67 -167q0 -15 -2 -25zM116 259h311q-11 58 -54.5 95t-102.5 37q-57 0 -100 -37t-54 -95zM220 599
q0 23 15 38t38 15t38 -15t15 -38q0 -22 -15 -37t-38 -15t-38 15t-15 37z" />
    <glyph glyph-name="Eogonek" unicode="&#x118;" horiz-adv-x="605" 
d="M476 0h-398v675h484v-75h-403v-221h354v-75h-354v-229h408v-75h-36q-4 -3 -15 -14q-7 -8 -25 -36q-15 -25 -15 -47q0 -20 11.5 -32t29.5 -12q27 0 48 21l7 7l26 -31l-13 -13q-6 -7 -34 -22q-26 -14 -50 -14q-36 0 -60 23.5t-24 59.5q0 25 13.5 52.5t30.5 43.5z" />
    <glyph glyph-name="eogonek" unicode="&#x119;" horiz-adv-x="536" 
d="M269 -10q-100 5 -165 70q-65 68 -65 165q0 100 67 167q68 68 166 68t164 -68q67 -67 67 -167q0 -15 -2 -25h-386q7 -60 53 -101q46 -40 111 -40q86 0 133 65l71 -23q-52 -87 -153 -106q-50 -50 -50 -92q0 -20 11.5 -32t29.5 -12q28 0 47 21l7 7l26 -31q-1 -1 -3 -3.5
t-4.5 -5t-5.5 -4.5q-10 -11 -35.5 -23.5t-47.5 -12.5q-36 0 -60 23.5t-24 59.5q0 52 48 100zM116 259h311q-11 58 -54.5 95t-102.5 37q-57 0 -100 -37t-54 -95z" />
    <glyph glyph-name="Ecaron" unicode="&#x11a;" horiz-adv-x="605" 
d="M78 675h484v-75h-403v-221h354v-75h-354v-229h408v-75h-489v675zM312 749l-144 115l33 42l114 -80l115 80l32 -42l-143 -115h-7z" />
    <glyph glyph-name="ecaron" unicode="&#x11b;" horiz-adv-x="536" 
d="M501 200h-386q7 -60 53 -101q46 -40 111 -40q86 0 133 65l71 -23q-31 -52 -85 -81.5t-119 -29.5q-104 0 -172 67q-68 68 -68 168t67 167q68 68 166 68t164 -68q67 -67 67 -167q0 -15 -2 -25zM116 259h311q-11 58 -54.5 95t-102.5 37q-57 0 -100 -37t-54 -95zM273 622
l115 79l32 -42l-144 -115h-7l-143 115l32 42z" />
    <glyph glyph-name="Gcircumflex" unicode="&#x11c;" horiz-adv-x="792" 
d="M51 337q0 149 101 248q100 100 252 100q100 0 181.5 -46.5t126.5 -127.5l-78 -29q-36 58 -96.5 91.5t-133.5 33.5q-115 0 -193 -78q-77 -77 -77 -192q0 -114 75 -192q75 -77 185 -77q96 0 168 60q73 60 88 153h-277v76h367q2 -24 2 -28q-3 -145 -102 -242
q-100 -98 -244 -98q-147 0 -246 100q-99 101 -99 248zM395 828l-115 -79l-32 42l143 115h7l144 -115l-33 -42z" />
    <glyph glyph-name="gcircumflex" unicode="&#x11d;" horiz-adv-x="560" 
d="M261 460q99 0 163 -72v62h73v-458q0 -98 -66 -162q-65 -65 -163 -65q-68 0 -125.5 33t-83.5 86l74 23q17 -31 53.5 -50t78.5 -19q67 0 114 44t45 110v70q-64 -72 -163 -72q-95 0 -159 67q-63 67 -63 168q0 99 63 167q65 68 159 68zM160 340q-44 -47 -44 -115t44 -115
q43 -46 109 -46t109 46q44 47 44 115t-44 115q-43 46 -109 46t-109 -46zM159 544l-32 42l144 115h7l143 -115l-33 -42l-114 79z" />
    <glyph glyph-name="Gbreve" unicode="&#x11e;" horiz-adv-x="792" 
d="M51 337q0 149 101 248q100 100 252 100q100 0 181.5 -46.5t126.5 -127.5l-78 -29q-36 58 -96.5 91.5t-133.5 33.5q-115 0 -193 -78q-77 -77 -77 -192q0 -114 75 -192q75 -77 185 -77q96 0 168 60q73 60 88 153h-277v76h367q2 -24 2 -28q-3 -145 -102 -242
q-100 -98 -244 -98q-147 0 -246 100q-99 101 -99 248zM262 878h60q0 -32 21 -54t52 -22t52 22t21 54h60q0 -55 -38 -95q-38 -38 -95 -38t-95 38q-38 40 -38 95z" />
    <glyph glyph-name="gbreve" unicode="&#x11f;" horiz-adv-x="560" 
d="M261 -10q-95 0 -159 67q-63 67 -63 168q0 99 63 167q65 68 159 68q99 0 163 -72v62h73v-458q0 -98 -66 -162q-65 -65 -163 -65q-68 0 -125.5 33t-83.5 86l74 23q17 -31 53.5 -50t78.5 -19q67 0 114 44t45 110v70q-64 -72 -163 -72zM378 340q-43 46 -109 46t-109 -46
q-44 -47 -44 -115t44 -115q43 -46 109 -46t109 46q44 47 44 115t-44 115zM141 673h60q0 -32 21.5 -54t52.5 -22t52 22t21 54h60q0 -57 -39 -94q-38 -38 -95 -38t-95 38t-38 94z" />
    <glyph glyph-name="Gdotaccent" unicode="&#x120;" horiz-adv-x="792" 
d="M51 337q0 149 101 248q100 100 252 100q100 0 181.5 -46.5t126.5 -127.5l-78 -29q-36 58 -96.5 91.5t-133.5 33.5q-115 0 -193 -78q-77 -77 -77 -192q0 -114 75 -192q75 -77 185 -77q96 0 168 60q73 60 88 153h-277v76h367q2 -24 2 -28q-3 -145 -102 -242
q-100 -98 -244 -98q-147 0 -246 100q-99 101 -99 248zM357 766q-15 15 -15 38t15 38t38 15t38 -16q15 -15 15 -37t-15 -37t-38 -15t-38 14z" />
    <glyph glyph-name="gdotaccent" unicode="&#x121;" horiz-adv-x="560" 
d="M261 -10q-95 0 -159 67q-63 67 -63 168q0 99 63 167q65 68 159 68q99 0 163 -72v62h73v-458q0 -98 -66 -162q-65 -65 -163 -65q-68 0 -125.5 33t-83.5 86l74 23q17 -31 53.5 -50t78.5 -19q67 0 114 44t45 110v70q-64 -72 -163 -72zM378 340q-43 46 -109 46t-109 -46
q-44 -47 -44 -115t44 -115q43 -46 109 -46t109 46q44 47 44 115t-44 115zM221 599q0 23 15 38t38 15t38 -15t15 -38q0 -22 -15 -37t-38 -15t-38 15t-15 37z" />
    <glyph glyph-name="uni0122" unicode="&#x122;" horiz-adv-x="792" 
d="M51 337q0 149 101 248q100 100 252 100q100 0 181.5 -46.5t126.5 -127.5l-78 -29q-36 58 -96.5 91.5t-133.5 33.5q-115 0 -193 -78q-77 -77 -77 -192q0 -114 75 -192q75 -77 185 -77q96 0 168 60q73 60 88 153h-277v76h367q2 -24 2 -28q-3 -145 -102 -242
q-100 -98 -244 -98q-147 0 -246 100q-99 101 -99 248zM459 -116q0 -32 -19 -58q-11 -16 -24 -28.5t-21 -17t-11 -4.5l-20 21q6 4 11 9q29 26 28 48q-17 2 -28.5 15t-11.5 31t13.5 31t32.5 13q22 0 36 -16.5t14 -43.5z" />
    <glyph glyph-name="uni0123" unicode="&#x123;" horiz-adv-x="560" 
d="M261 -10q-95 0 -159 67q-63 67 -63 168q0 99 63 167q65 68 159 68q99 0 163 -72v62h73v-458q0 -98 -66 -162q-65 -65 -163 -65q-68 0 -125.5 33t-83.5 86l74 23q17 -31 53.5 -50t78.5 -19q67 0 113 44q46 43 46 110v70q-64 -72 -163 -72zM378 340q-43 46 -109 46
t-109 -46q-44 -47 -44 -115t44 -115q43 -46 109 -46t109 46q44 47 44 115t-44 115zM224 599q0 38 26.5 68.5t44.5 36.5l3 2l20 -20l-11 -10q-28 -25 -27 -48q17 -2 28.5 -15t11.5 -31q0 -19 -13 -31.5t-33 -12.5q-22 0 -36 17t-14 44z" />
    <glyph glyph-name="Hcircumflex" unicode="&#x124;" horiz-adv-x="728" 
d="M159 0h-81v675h81v-296h410v296h81v-675h-81v304h-410v-304zM249 749l-32 42l143 115h7l144 -115l-33 -42l-114 79z" />
    <glyph glyph-name="hcircumflex" unicode="&#x125;" horiz-adv-x="540" 
d="M136 260v-260h-73v725h73v-350q52 85 161 85q79 0 130 -52q52 -51 52 -128v-280h-74v261q0 55 -37 91.5t-92 36.5q-60 0 -100 -37t-40 -92zM99 853l-114 -79l-33 42l144 115h7l143 -115l-32 -42z" />
    <glyph glyph-name="Hbar" unicode="&#x126;" horiz-adv-x="744" 
d="M655 675v-116h79v-68h-79v-491h-81v304h-410v-304h-81v491h-73v68h73v116h81v-116h410v116h81zM574 379v112h-410v-112h410z" />
    <glyph glyph-name="hbar" unicode="&#x127;" horiz-adv-x="540" 
d="M136 725v-105h166v-62h-166v-183q52 85 161 85q79 0 130 -52q52 -51 52 -128v-280h-74v261q0 55 -37 91.5t-92 36.5q-60 0 -100 -37t-40 -92v-260h-73v558h-54v62h54v105h73z" />
    <glyph glyph-name="Itilde" unicode="&#x128;" horiz-adv-x="237" 
d="M159 0h-81v675h81v-675zM34 763h-60q0 41 26.5 69.5t65.5 28.5q28 0 57 -24q29 -23 43 -23q15 0 26 12t11 30h59q0 -42 -26 -70t-65 -28q-29 0 -58 23q-29 24 -42 24q-16 0 -26.5 -12t-10.5 -30z" />
    <glyph glyph-name="itilde" unicode="&#x129;" horiz-adv-x="205" 
d="M140 0h-74v450h74v-450zM18 558h-59q0 42 26 70t65 28q30 0 58 -24q29 -23 42 -23q15 0 26 12t11 30h60q0 -42 -26.5 -69.5t-65.5 -27.5q-28 0 -57 23t-43 23q-16 0 -26.5 -12t-10.5 -30z" />
    <glyph glyph-name="Imacron" unicode="&#x12a;" horiz-adv-x="237" 
d="M159 0h-81v675h81v-675zM246 778h-255v63h255v-63z" />
    <glyph glyph-name="imacron" unicode="&#x12b;" horiz-adv-x="199" 
d="M137 0h-74v450h74v-450zM-28 573v63h256v-63h-256z" />
    <glyph glyph-name="Ibreve" unicode="&#x12c;" horiz-adv-x="237" 
d="M159 0h-81v675h81v-675zM-15 878h60q0 -32 21.5 -54t52.5 -22t52 22t21 54h60q0 -55 -38 -95q-38 -38 -95 -38q-56 0 -96 38q-38 40 -38 95z" />
    <glyph glyph-name="ibreve" unicode="&#x12d;" horiz-adv-x="199" 
d="M137 0h-74v450h74v-450zM-34 673h60q0 -32 21.5 -54t52.5 -22t52 22t21 54h60q0 -56 -38 -94t-95 -38q-58 0 -96 38t-38 94z" />
    <glyph glyph-name="Iogonek" unicode="&#x12e;" horiz-adv-x="237" 
d="M38 -110q0 25 13.5 52.5t30.5 43.5l14 14h-18v675h81v-675h-7l-16 -14q-7 -8 -25 -36q-15 -25 -15 -47q0 -39 34 -43q1 -1 7 -1q28 0 49 21l6 7l26 -31q-1 -1 -3 -3.5t-4.5 -5t-5.5 -4.5q-10 -11 -35.5 -23.5t-47.5 -12.5q-36 0 -60 23.5t-24 59.5z" />
    <glyph glyph-name="iogonek" unicode="&#x12f;" horiz-adv-x="199" 
d="M102 -193q-36 0 -60 23.5t-24 59.5q0 25 13.5 52.5t30.5 43.5l14 14h-13v450h74v-450h-5q-4 -3 -15 -14q-7 -8 -25 -36q-15 -25 -15 -47q0 -20 11 -32t29 -12q28 0 49 21l6 7l26 -31q-1 -1 -3 -3.5t-4.5 -5t-5.5 -4.5q-10 -11 -35.5 -23.5t-47.5 -12.5zM100 546
q-22 0 -36.5 14t-14.5 37q0 22 14.5 36t36.5 14q20 0 34 -12t16 -32q0 -57 -50 -57z" />
    <glyph glyph-name="Idot" unicode="&#x130;" horiz-adv-x="237" 
d="M159 0h-81v675h81v-675zM119 857q22 0 37 -15.5t15 -37.5t-15 -37t-37 -15q-23 0 -38 14.5t-15 37.5t15 38t38 15z" />
    <glyph glyph-name="dotlessi" unicode="&#x131;" horiz-adv-x="199" 
d="M137 0h-74v450h74v-450z" />
    <glyph glyph-name="IJ" unicode="&#x132;" horiz-adv-x="811" 
d="M159 0h-81v675h81v-675zM740 675v-433q0 -107 -74 -181q-74 -72 -184 -72q-69 0 -126 30.5t-93 84.5l68 44q23 -39 63 -61t89 -22q76 0 128 50q51 51 51 127v433h78z" />
    <glyph glyph-name="ij" unicode="&#x133;" horiz-adv-x="405" 
d="M137 0h-74v450h74v-450zM49 597q-2 31 24.5 43.5t53 0t23.5 -43.5q0 -22 -14 -36.5t-36 -14.5t-36.5 14t-14.5 37zM268 450h74v-543q0 -56 -38 -94t-95 -38h-40v71h35q27 0 45.5 20t18.5 51v533zM268 560q-14 15 -14 37t14 36q15 14 37 14t36 -14q15 -14 15 -36t-15 -37
q-14 -14 -36 -14t-37 14z" />
    <glyph glyph-name="Jcircumflex" unicode="&#x134;" horiz-adv-x="575" 
d="M503 675v-433q0 -107 -74 -181q-73 -72 -184 -72q-69 0 -126 30.5t-93 84.5l68 44q23 -39 63 -61t89 -22q76 0 128 50q51 51 51 127v433h78zM461 828l-115 -79l-32 42l143 115h7l144 -115l-33 -42z" />
    <glyph glyph-name="jcircumflex" unicode="&#x135;" horiz-adv-x="205" 
d="M69 450h74v-543q0 -56 -38 -94t-95 -38h-40v71h35q27 0 45.5 20t18.5 51v533zM106 623l-114 -79l-33 42l144 115h7l143 -115l-32 -42z" />
    <glyph glyph-name="uni0136" unicode="&#x136;" horiz-adv-x="618" 
d="M497 0l-320 344l300 331h104l-300 -331l319 -344h-103zM78 0v675h81v-675h-81zM319 -56q22 0 36 -16.5t14 -43.5q0 -32 -19 -58q-11 -16 -24 -28.5t-20.5 -17t-10.5 -4.5l-20 21l11 9q28 25 27 48q-17 2 -28.5 15t-11.5 31t13.5 31t32.5 13z" />
    <glyph glyph-name="uni0137" unicode="&#x137;" horiz-adv-x="451" 
d="M136 0h-73v725h73v-725zM343 0l-202 233l184 217h91l-184 -217l203 -233h-92zM238 -56q22 0 36 -16.5t14 -43.5q0 -32 -19 -58q-11 -16 -24 -28.5t-21 -17t-11 -4.5l-20 21q6 4 11 9q29 26 28 48q-17 1 -28.5 14.5t-11.5 31.5t13 31t33 13z" />
    <glyph glyph-name="Lacute" unicode="&#x139;" horiz-adv-x="558" 
d="M527 0h-449v675h81v-600h368v-75zM49 794l165 110l37 -65l-176 -90z" />
    <glyph glyph-name="lacute" unicode="&#x13a;" horiz-adv-x="199" 
d="M136 0h-73v725h73v-725zM55 774l-26 45l165 111l37 -66z" />
    <glyph glyph-name="uni013B" unicode="&#x13b;" horiz-adv-x="558" 
d="M78 0v675h81v-600h368v-75h-449zM312 -56q22 0 36 -16.5t14 -43.5q0 -32 -19 -58q-11 -16 -24 -28.5t-20.5 -17t-10.5 -4.5l-21 21q6 4 11 9q29 26 28 48q-17 2 -28.5 15t-11.5 31t13.5 31t32.5 13z" />
    <glyph glyph-name="uni013C" unicode="&#x13c;" horiz-adv-x="199" 
d="M136 0h-73v725h73v-725zM148 -116q0 -32 -19 -58q-11 -16 -24 -28.5t-20.5 -17t-10.5 -4.5l-20 21q6 4 11 9q29 26 28 48q-17 1 -28.5 14.5t-11.5 31.5t13 31t32 13q22 0 36 -16.5t14 -43.5z" />
    <glyph glyph-name="Lcaron" unicode="&#x13d;" horiz-adv-x="558" 
d="M78 0v675h81v-600h368v-75h-449zM362 685q22 0 36 -16.5t14 -43.5q0 -58 -71 -107l-3 -1l-20 21l11 10q28 25 27 48q-17 2 -28.5 15t-11.5 31t13.5 30.5t32.5 12.5z" />
    <glyph glyph-name="lcaron" unicode="&#x13e;" horiz-adv-x="308" 
d="M136 0h-73v725h73v-725zM203 691q0 19 13 31.5t33 12.5q22 0 35.5 -16.5t13.5 -43.5q0 -30 -20 -59q-28 -37 -54 -49l-20 21l11 10q29 26 28 47q-17 2 -28.5 15t-11.5 31z" />
    <glyph glyph-name="Ldot" unicode="&#x13f;" horiz-adv-x="558" 
d="M78 0v675h81v-600h368v-75h-449zM398 391q22 0 37.5 -15.5t15.5 -37.5q3 -36 -32.5 -50t-59.5 11q-25 24 -11 59.5t50 32.5z" />
    <glyph glyph-name="ldot" unicode="&#x140;" horiz-adv-x="391" 
d="M136 0h-73v725h73v-725zM242 338q0 22 15 37.5t38 15.5t38 -15.5t15 -37.5q0 -23 -15 -38.5t-38 -15.5t-38 15.5t-15 38.5z" />
    <glyph glyph-name="Lslash" unicode="&#x141;" horiz-adv-x="578" 
d="M99 235l-52 -31l-34 58l86 51v362h80v-314l132 78l34 -59l-166 -98v-207h369v-75h-449v235z" />
    <glyph glyph-name="lslash" unicode="&#x142;" horiz-adv-x="206" 
d="M140 725v-340l66 37v-70l-66 -38v-314h-74v272l-66 -38v71l66 37v383h74z" />
    <glyph glyph-name="Nacute" unicode="&#x143;" horiz-adv-x="731" 
d="M78 0v675h71l426 -535v535h78v-675h-71l-426 535v-535h-78zM497 839l-176 -90l-26 45l165 110z" />
    <glyph glyph-name="nacute" unicode="&#x144;" horiz-adv-x="538" 
d="M136 260v-260h-73v450h73v-75q49 85 159 85q79 0 130 -51q52 -51 52 -128v-281h-74v261q0 55 -36.5 91.5t-91.5 36.5q-59 0 -99 -37t-40 -92zM405 634l-176 -90l-26 45l165 111z" />
    <glyph glyph-name="uni0145" unicode="&#x145;" horiz-adv-x="731" 
d="M156 0h-78v675h71l426 -535v535h78v-675h-71l-426 535v-535zM362 -146q-24 0 -34 23t1.5 45.5t38.5 21.5q22 0 36 -16.5t14 -43.5q0 -32 -19 -58q-11 -16 -24 -28.5t-20.5 -17t-10.5 -4.5l-20 21q6 4 11 9q28 25 27 48z" />
    <glyph glyph-name="uni0146" unicode="&#x146;" horiz-adv-x="538" 
d="M136 0h-73v450h73v-75q49 85 159 85q79 0 130 -51q52 -51 52 -128v-281h-74v261q0 55 -36.5 91.5t-91.5 36.5q-59 0 -99 -37t-40 -92v-260zM269 -146q-17 1 -28.5 14.5t-11.5 31.5t13 31t33 13q22 0 36 -16.5t14 -43.5q0 -32 -19 -58q-11 -16 -24 -28.5t-21 -17t-11 -4.5
l-20 21q6 4 11 9q29 26 28 48z" />
    <glyph glyph-name="Ncaron" unicode="&#x147;" horiz-adv-x="731" 
d="M156 0h-78v675h71l426 -535v535h78v-675h-71l-426 535v-535zM362 749l-144 115l33 42l114 -80l115 80l32 -42l-143 -115h-7z" />
    <glyph glyph-name="ncaron" unicode="&#x148;" horiz-adv-x="538" 
d="M63 0v450h73v-75q49 85 159 85q79 0 130 -51q52 -51 52 -128v-281h-74v261q0 55 -36.5 91.5t-91.5 36.5q-59 0 -99 -37t-40 -92v-260h-73zM269 544l-143 115l32 42l115 -79l115 79l32 -42l-144 -115h-7z" />
    <glyph glyph-name="Eng" unicode="&#x14a;" horiz-adv-x="731" 
d="M575 675h78v-660q0 -108 -74 -180t-184 -72v75q76 0 126 49q53 49 54 123l-419 524v-534h-78v675h71l426 -535v535z" />
    <glyph glyph-name="eng" unicode="&#x14b;" horiz-adv-x="538" 
d="M63 0v450h73v-75q49 85 160 85q78 0 129 -51q52 -51 52 -128v-374q0 -57 -39 -94q-38 -38 -94 -38h-40v71h35q27 0 45.5 20t18.5 51v344q0 55 -36.5 91.5t-91.5 36.5q-59 0 -99 -37t-40 -92v-260h-73z" />
    <glyph glyph-name="Omacron" unicode="&#x14c;" horiz-adv-x="797" 
d="M399 -11q-149 0 -249 99q-99 100 -99 249t99 248q100 100 249 100t248 -100q99 -99 99 -248t-100 -249q-99 -99 -247 -99zM210 529q-76 -76 -76 -192t76 -192q77 -77 189 -77q113 0 188 77q76 76 76 192t-76 192q-75 78 -188 78t-189 -78zM527 778h-256v63h256v-63z" />
    <glyph glyph-name="omacron" unicode="&#x14d;" horiz-adv-x="548" 
d="M106 57q-67 67 -67 168t67 168t168 67q100 0 167 -67q68 -68 68 -168t-68 -168q-67 -67 -167 -67q-101 0 -168 67zM161 340q-45 -46 -45 -115t45 -115t113 -46t113 46t45 115t-45 115t-113 46t-113 -46zM402 573h-255v63h255v-63z" />
    <glyph glyph-name="Obreve" unicode="&#x14e;" horiz-adv-x="797" 
d="M399 -11q-149 0 -249 99q-99 100 -99 249t99 248q100 100 249 100t248 -100q99 -99 99 -248t-100 -249q-99 -99 -247 -99zM210 529q-76 -76 -76 -192t76 -192q77 -77 189 -77q113 0 188 77q76 76 76 192t-76 192q-75 78 -188 78t-189 -78zM266 878h60q0 -32 21 -54
t52 -22t52 22t21 54h60q0 -55 -38 -95q-38 -38 -95 -38t-95 38q-38 40 -38 95z" />
    <glyph glyph-name="obreve" unicode="&#x14f;" horiz-adv-x="548" 
d="M106 57q-67 67 -67 168t67 168t168 67q100 0 167 -67q68 -68 68 -168t-68 -168q-67 -67 -167 -67q-101 0 -168 67zM161 340q-45 -46 -45 -115t45 -115t113 -46t113 46t45 115t-45 115t-113 46t-113 -46zM141 673h60q0 -32 21.5 -54t52.5 -22t52 22t21 54h60
q0 -57 -39 -94q-38 -38 -95 -38t-95 38t-38 94z" />
    <glyph glyph-name="Ohungarumlaut" unicode="&#x150;" horiz-adv-x="797" 
d="M399 -11q-149 0 -249 99q-99 100 -99 249t99 248q100 100 249 100t248 -100q99 -99 99 -248t-100 -249q-99 -99 -247 -99zM210 529q-76 -76 -76 -192t76 -192q77 -77 189 -77q113 0 188 77q76 76 76 192t-76 192q-75 78 -188 78t-189 -78zM313 742l-39 35l119 145l55 -51
zM481 742l-39 35l119 145l55 -51z" />
    <glyph glyph-name="ohungarumlaut" unicode="&#x151;" horiz-adv-x="548" 
d="M106 57q-67 67 -67 168t67 168t168 67q100 0 167 -67q68 -68 68 -168t-68 -168q-67 -67 -167 -67q-101 0 -168 67zM161 340q-45 -46 -45 -115t45 -115t113 -46t113 46t45 115t-45 115t-113 46t-113 -46zM188 537l-39 35l119 145l55 -51zM357 537l-39 35l118 145l56 -51z
" />
    <glyph glyph-name="OE" unicode="&#x152;" horiz-adv-x="1186" 
d="M399 -11q-149 0 -249 99q-99 100 -99 249t99 248q100 100 249 100q82 0 152 -32.5t118 -91.5v114h474v-75h-393v-221h344v-75h-344v-229h398v-75h-479v113q-49 -58 -119 -91t-151 -33zM210 529q-76 -76 -76 -192t76 -192q77 -77 189 -77q113 0 188 77q76 76 76 192
t-76 192q-75 78 -188 78t-189 -78z" />
    <glyph glyph-name="oe" unicode="&#x153;" horiz-adv-x="929" 
d="M274 460q63 0 114.5 -27.5t82.5 -76.5q31 49 82.5 76.5t113.5 27.5q99 0 163 -67q66 -67 66 -168q0 -15 -2 -25h-386q7 -60 53 -101q46 -40 111 -40q83 0 133 65l71 -23q-31 -52 -84.5 -81.5t-117.5 -29.5q-63 0 -116 28t-86 77q-31 -49 -83 -77t-115 -28q-101 0 -168 67
t-67 168t67 168t168 67zM161 110q45 -46 113 -46t113 46t45 115t-45 115t-113 46t-113 -46t-45 -115t45 -115zM509 259h311q-11 58 -54.5 95t-102.5 37q-57 0 -100 -37t-54 -95z" />
    <glyph glyph-name="Racute" unicode="&#x154;" horiz-adv-x="655" 
d="M78 675h304q93 0 155 -59t62 -148q0 -68 -39 -121t-103 -74l167 -273h-90l-162 261h-213v-261h-81v675zM382 600h-223v-263h223q58 0 95 37q39 38 39 94t-39 94q-38 38 -95 38zM418 839l-176 -90l-26 45l165 110z" />
    <glyph glyph-name="racute" unicode="&#x155;" horiz-adv-x="327" 
d="M63 0v450h73v-76q51 86 159 86h13v-82q-17 5 -33 5q-59 0 -99 -37t-40 -92v-254h-73zM307 634l-176 -90l-26 45l165 111z" />
    <glyph glyph-name="uni0156" unicode="&#x156;" horiz-adv-x="655" 
d="M78 675h304q93 0 155 -59t62 -148q0 -68 -39 -121t-103 -74l167 -273h-90l-162 261h-213v-261h-81v675zM382 600h-223v-263h223q58 0 95 37q39 38 39 94t-39 94q-38 38 -95 38zM340 -146q-17 2 -28.5 15t-11.5 31t13.5 31t32.5 13q22 0 36 -16.5t14 -43.5q0 -32 -19 -58
q-11 -16 -24 -28.5t-20.5 -17t-10.5 -4.5l-20 21l11 9q28 25 27 48z" />
    <glyph glyph-name="uni0157" unicode="&#x157;" horiz-adv-x="327" 
d="M136 0h-73v450h73v-76q51 86 159 86h13v-82q-17 5 -33 5q-59 0 -99 -37t-40 -92v-254zM104 -56q22 0 36 -16.5t14 -43.5q0 -32 -19 -58q-11 -16 -24 -28.5t-20.5 -17t-10.5 -4.5l-20 21l11 9q28 25 27 48q-17 2 -28.5 15t-11.5 31t13.5 31t32.5 13z" />
    <glyph glyph-name="Rcaron" unicode="&#x158;" horiz-adv-x="655" 
d="M78 675h304q93 0 155 -59t62 -148q0 -68 -39 -121t-103 -74l167 -273h-90l-162 261h-213v-261h-81v675zM382 600h-223v-263h223q58 0 95 37q39 38 39 94t-39 94q-38 38 -95 38zM283 749l-144 115l33 42l114 -80l115 80l33 -42l-144 -115h-7z" />
    <glyph glyph-name="rcaron" unicode="&#x159;" horiz-adv-x="327" 
d="M136 0h-73v450h73v-76q51 86 159 86h13v-82q-17 5 -33 5q-59 0 -99 -37t-40 -92v-254zM178 544h-7l-143 115l32 42l115 -79l115 79l32 -42z" />
    <glyph glyph-name="Sacute" unicode="&#x15a;" horiz-adv-x="596" 
d="M526 535l-81 -24q-8 42 -50.5 69t-99.5 27q-63 0 -104.5 -30.5t-41.5 -77.5q0 -50 55 -77q50 -24 131 -44q68 -16 113 -38q47 -21 71 -56t27 -93q0 -91 -69 -146q-68 -56 -175 -56q-98 0 -165 46q-68 47 -86 116l80 24q7 -44 56 -76q47 -31 115 -31q70 0 116 33
q47 33 47 84q0 52 -50 78q-41 22 -102 37l-40 10l-38 11q-24 8 -38 14l-33 15q-7 3 -13 6.5t-10 5.5t-9.5 7t-7 6.5t-8.5 8t-9 8.5q-38 35 -38 102q0 84 63 137q63 54 161 54q90 0 152 -43q64 -42 81 -107zM254 749l-26 45l165 110l37 -65z" />
    <glyph glyph-name="sacute" unicode="&#x15b;" horiz-adv-x="416" 
d="M369 352l-69 -13q-7 25 -32.5 40.5t-63.5 15.5q-37 0 -61.5 -16t-24.5 -42q0 -37 48 -53l109 -39q103 -37 103 -123q0 -62 -47 -97t-122 -35q-72 0 -119 32.5t-56 86.5l70 11q6 -29 35 -47t71 -18t69.5 18t27.5 47q0 39 -59 60l-106 37q-95 35 -95 114q0 61 44.5 95
t117.5 34q65 0 108 -29.5t52 -78.5zM162 544l-26 45l165 111l37 -66z" />
    <glyph glyph-name="Scircumflex" unicode="&#x15c;" horiz-adv-x="596" 
d="M526 535l-81 -24q-8 42 -50.5 69t-99.5 27q-63 0 -104.5 -30.5t-41.5 -77.5q0 -50 55 -77q50 -24 131 -44q68 -16 113 -38q47 -21 71 -56t27 -93q0 -91 -69 -146q-68 -56 -175 -56q-98 0 -165 46q-68 47 -86 116l80 24q7 -44 56 -76q47 -31 115 -31q70 0 116 33
q47 33 47 84q0 52 -50 78q-41 22 -102 37l-40 10l-38 11q-24 8 -38 14l-33 15q-7 3 -13 6.5t-10 5.5t-9.5 7t-7 6.5t-8.5 8t-9 8.5q-38 35 -38 102q0 84 63 137q63 54 161 54q90 0 152 -43q64 -42 81 -107zM299 828l-115 -79l-33 42l144 115h7l143 -115l-32 -42z" />
    <glyph glyph-name="scircumflex" unicode="&#x15d;" horiz-adv-x="416" 
d="M369 352l-69 -13q-7 25 -32.5 40.5t-63.5 15.5q-37 0 -61.5 -16t-24.5 -42q0 -37 48 -53l109 -39q103 -37 103 -123q0 -62 -47 -97t-122 -35q-72 0 -119 32.5t-56 86.5l70 11q6 -29 35 -47t71 -18t69.5 18t27.5 47q0 39 -59 60l-106 37q-95 35 -95 114q0 61 44.5 95
t117.5 34q65 0 108 -29.5t52 -78.5zM206 623l-114 -79l-33 42l144 115h7l143 -115l-32 -42z" />
    <glyph glyph-name="Scedilla" unicode="&#x15e;" horiz-adv-x="596" 
d="M51 151l80 24q7 -44 56 -76q47 -31 115 -31q70 0 116 33q47 33 47 84q0 52 -50 78q-41 22 -102 37l-40 10l-38 11q-24 8 -38 14l-33 15q-7 3 -13 6.5t-10 5.5t-9.5 7t-7 6.5t-8.5 8t-9 8.5q-38 35 -38 102q0 84 63 137q63 54 161 54q90 0 152 -43q64 -42 81 -107l-81 -24
q-8 42 -50.5 69t-99.5 27q-63 0 -104.5 -30.5t-41.5 -77.5q0 -50 55 -77q50 -24 131 -44q68 -16 113 -38q47 -21 71 -56t27 -93q0 -80 -55 -134q-56 -55 -144 -65l-10 -40q3 0 8 -1.5t17.5 -7t22 -12.5t17.5 -21t8 -31q0 -37 -30 -61t-75 -24q-54 0 -86 28l-11 9l16 40
q25 -28 68 -28q25 0 42.5 10.5t17.5 25.5t-18.5 25t-41.5 13l-21 2l16 70q-91 4 -155 49t-81 113z" />
    <glyph glyph-name="scedilla" unicode="&#x15f;" horiz-adv-x="416" 
d="M172 -81l17 72q-65 4 -106 35.5t-49 82.5l70 11q6 -29 35 -47t71 -18t69.5 18t27.5 47q0 39 -59 60l-106 37q-95 35 -95 114q0 61 44.5 95t117.5 34q65 0 108 -29.5t52 -78.5l-69 -13q-7 25 -32.5 40.5t-63.5 15.5q-37 0 -61.5 -16t-24.5 -42q0 -37 48 -53l109 -39
q103 -37 103 -123q0 -53 -35 -86.5t-95 -42.5l-9 -41q3 0 8 -1.5t17 -7t21.5 -12.5t17.5 -21t8 -31q0 -37 -30 -61t-75 -24q-54 0 -86 28l-11 9l16 40q25 -28 69 -28q25 0 42 10.5t17 25.5t-19 25t-42 13z" />
    <glyph glyph-name="Scaron" unicode="&#x160;" horiz-adv-x="596" 
d="M526 535l-81 -24q-8 42 -50.5 69t-99.5 27q-63 0 -104.5 -30.5t-41.5 -77.5q0 -50 55 -77q50 -24 131 -44q68 -16 113 -38q47 -21 71 -56t27 -93q0 -91 -69 -146q-68 -56 -175 -56q-98 0 -165 46q-68 47 -86 116l80 24q7 -44 56 -76q47 -31 115 -31q70 0 116 33
q47 33 47 84q0 52 -50 78q-41 22 -102 37l-40 10l-38 11q-24 8 -38 14l-33 15q-7 3 -13 6.5t-10 5.5t-9.5 7t-7 6.5t-8.5 8t-9 8.5q-38 35 -38 102q0 84 63 137q63 54 161 54q90 0 152 -43q64 -42 81 -107zM299 826l114 80l33 -42l-144 -115h-7l-144 115l33 42z" />
    <glyph glyph-name="scaron" unicode="&#x161;" horiz-adv-x="416" 
d="M369 352l-69 -13q-7 25 -32.5 40.5t-63.5 15.5q-37 0 -61.5 -16t-24.5 -42q0 -37 48 -53l109 -39q103 -37 103 -123q0 -62 -47 -97t-122 -35q-72 0 -119 32.5t-56 86.5l70 11q6 -29 35 -47t71 -18t69.5 18t27.5 47q0 39 -59 60l-106 37q-95 35 -95 114q0 61 44.5 95
t117.5 34q65 0 108 -29.5t52 -78.5zM206 622l115 79l33 -42l-144 -115h-7l-144 115l33 42z" />
    <glyph glyph-name="uni0162" unicode="&#x162;" horiz-adv-x="647" 
d="M283 0v600h-257v75h595v-75h-257v-600h-81zM320 -146q-17 2 -28.5 15t-11.5 31t13.5 31t32.5 13q22 0 36 -16.5t14 -43.5q0 -32 -19 -58q-11 -16 -24 -28.5t-20.5 -17t-10.5 -4.5l-20 21q6 4 11 9q28 25 27 48z" />
    <glyph glyph-name="uni0163" unicode="&#x163;" horiz-adv-x="320" 
d="M14 385v65h73v93h73v-93h128v-65h-128v-243q0 -31 18.5 -51t46.5 -20h63v-71h-68q-57 0 -95 38q-38 40 -38 95v252h-73zM236 -116q0 -32 -19 -58q-11 -16 -24 -28.5t-21 -17t-11 -4.5l-20 21q6 4 11 9q29 26 28 48q-17 1 -28.5 14.5t-11.5 31.5t13 31t33 13
q22 0 36 -16.5t14 -43.5z" />
    <glyph glyph-name="Tcaron" unicode="&#x164;" horiz-adv-x="647" 
d="M26 675h595v-75h-257v-600h-81v600h-257v75zM320 749l-144 115l33 42l114 -80l115 80l32 -42l-143 -115h-7z" />
    <glyph glyph-name="tcaron" unicode="&#x165;" horiz-adv-x="337" 
d="M14 385v65h73v93h73v-93h128v-65h-128v-243q0 -31 18.5 -51t46.5 -20h63v-71h-68q-57 0 -95 38q-38 40 -38 95v252h-73zM317 628q0 -39 -26.5 -69t-44.5 -37l-3 -2l-20 21l11 10q28 25 27 47q-17 2 -28.5 15t-11.5 31q0 19 13 31.5t33 12.5q22 0 36 -16.5t14 -43.5z" />
    <glyph glyph-name="Tbar" unicode="&#x166;" horiz-adv-x="647" 
d="M498 295h-134v-295h-81v295h-134v71h134v234h-257v75h595v-75h-257v-234h134v-71z" />
    <glyph glyph-name="tbar" unicode="&#x167;" horiz-adv-x="320" 
d="M87 385h-73v65h73v93h73v-93h128v-65h-128v-109h89v-61h-89v-73q0 -31 18.5 -51t46.5 -20h63v-71h-68q-57 0 -95 38q-38 40 -38 95v82h-59v61h59v109z" />
    <glyph glyph-name="Utilde" unicode="&#x168;" horiz-adv-x="708" 
d="M559 270v405h81v-405q0 -119 -82 -200q-83 -80 -204 -80t-204 80q-82 81 -82 200v405h81v-405q0 -89 58 -147t147 -58q88 0 146 58q59 59 59 147zM269 763h-59q0 41 26 69.5t65 28.5q30 0 58 -24q29 -23 42 -23q15 0 26 12t11 30h60q0 -42 -26.5 -70t-64.5 -28
q-30 0 -59 23q-28 24 -42 24q-16 0 -26.5 -12t-10.5 -30z" />
    <glyph glyph-name="utilde" unicode="&#x169;" horiz-adv-x="538" 
d="M61 169v281h74v-261q0 -55 36.5 -91.5t91.5 -36.5q60 0 98 37q40 37 40 92v260h74v-450h-74v74q-51 -84 -159 -84q-78 0 -130 51q-51 51 -51 128zM184 558h-60q0 42 26.5 70t64.5 28q29 0 58 -24q29 -23 42 -23q15 0 26 12t11 30h60q0 -42 -26 -69.5t-65 -27.5
q-30 0 -59 23t-42 23q-15 0 -25.5 -12t-10.5 -30z" />
    <glyph glyph-name="Umacron" unicode="&#x16a;" horiz-adv-x="708" 
d="M559 270v405h81v-405q0 -119 -82 -200q-83 -80 -204 -80t-204 80q-82 81 -82 200v405h81v-405q0 -89 58 -147t147 -58q88 0 146 58q59 59 59 147zM482 778h-256v63h256v-63z" />
    <glyph glyph-name="umacron" unicode="&#x16b;" horiz-adv-x="538" 
d="M61 169v281h74v-261q0 -55 36.5 -91.5t91.5 -36.5q60 0 98 37q40 37 40 92v260h74v-450h-74v74q-51 -84 -159 -84q-78 0 -130 51q-51 51 -51 128zM396 636v-63h-255v63h255z" />
    <glyph glyph-name="Ubreve" unicode="&#x16c;" horiz-adv-x="708" 
d="M559 270v405h81v-405q0 -119 -82 -200q-83 -80 -204 -80t-204 80q-82 81 -82 200v405h81v-405q0 -89 58 -147t147 -58q88 0 146 58q59 59 59 147zM221 878h60q0 -32 21 -54t52 -22t52 22t21 54h60q0 -55 -38 -95q-38 -38 -95 -38t-95 38q-38 40 -38 95z" />
    <glyph glyph-name="ubreve" unicode="&#x16d;" horiz-adv-x="538" 
d="M61 169v281h74v-261q0 -55 36.5 -91.5t91.5 -36.5q60 0 98 37q40 37 40 92v260h74v-450h-74v74q-51 -84 -159 -84q-78 0 -130 51q-51 51 -51 128zM135 673h60q0 -32 21.5 -54t52.5 -22t52 22t21 54h60q0 -57 -39 -94q-38 -38 -95 -38t-95 38t-38 94z" />
    <glyph glyph-name="Uring" unicode="&#x16e;" horiz-adv-x="708" 
d="M559 270v405h81v-405q0 -119 -82 -200q-83 -80 -204 -80t-204 80q-82 81 -82 200v405h81v-405q0 -89 58 -147t147 -58q88 0 146 58q59 59 59 147zM253 844q0 43 29 72t72 29q42 0 71.5 -29t29.5 -72q0 -42 -29.5 -71.5t-71.5 -29.5q-43 0 -72 29.5t-29 71.5zM321 877
q-13 -13 -13 -33t13 -33t33 -13t33 13t13 33t-13 33t-33 13t-33 -13z" />
    <glyph glyph-name="uring" unicode="&#x16f;" horiz-adv-x="538" 
d="M242 -10q-78 0 -130 51q-51 51 -51 128v281h74v-261q0 -55 36.5 -91.5t91.5 -36.5q60 0 98 37q40 37 40 92v260h74v-450h-74v74q-51 -84 -159 -84zM268 539q-42 0 -71 29t-29 71q0 43 29 72t71 29q43 0 72 -29t29 -72q0 -42 -29 -71t-72 -29zM268 686q-19 0 -32.5 -13.5
t-13.5 -33.5q0 -30 28.5 -42t50.5 9q22 22 10 51t-43 29z" />
    <glyph glyph-name="Uhungarumlaut" unicode="&#x170;" horiz-adv-x="708" 
d="M559 270v405h81v-405q0 -119 -82 -200q-83 -80 -204 -80t-204 80q-82 81 -82 200v405h81v-405q0 -89 58 -147t147 -58q88 0 146 58q59 59 59 147zM268 742l-39 35l119 145l55 -51zM436 742l-38 35l118 145l55 -51z" />
    <glyph glyph-name="uhungarumlaut" unicode="&#x171;" horiz-adv-x="538" 
d="M61 169v281h74v-261q0 -55 36.5 -91.5t91.5 -36.5q60 0 98 37q40 37 40 92v260h74v-450h-74v74q-51 -84 -159 -84q-78 0 -130 51q-51 51 -51 128zM486 666l-135 -129l-39 35l118 145zM182 537l-39 35l119 145l55 -51z" />
    <glyph glyph-name="Uogonek" unicode="&#x172;" horiz-adv-x="708" 
d="M68 270v405h81v-405q0 -89 58 -147t147 -58q88 0 146 58q59 59 59 147v405h81v-405q0 -102 -63 -179q-62 -76 -162 -95q-51 -46 -51 -93q0 -20 11.5 -32t29.5 -12q27 0 48 21l7 7l26 -31q-1 -1 -3 -3.5t-4.5 -5t-5.5 -4.5q-6 -7 -34 -22q-26 -14 -50 -14q-35 0 -59 23.5
t-24 59.5q0 49 48 100q-121 0 -204 80q-82 81 -82 200z" />
    <glyph glyph-name="uogonek" unicode="&#x173;" horiz-adv-x="538" 
d="M61 169v281h74v-261q0 -55 36.5 -91.5t91.5 -36.5q60 0 98 37q40 37 40 92v260h74v-450h-6l-16 -14q-7 -8 -25 -36q-15 -26 -15 -47q0 -20 11.5 -32t29.5 -12q27 0 48 21l7 7l26 -31l-13 -13q-10 -11 -35.5 -23.5t-47.5 -12.5q-36 0 -60 23.5t-24 59.5q0 25 13.5 52.5
t29.5 43.5l15 14h-12v74q-51 -84 -159 -84q-78 0 -130 51q-51 51 -51 128z" />
    <glyph glyph-name="Wcircumflex" unicode="&#x174;" horiz-adv-x="980" 
d="M314 0h-64l-232 675h83l181 -546l176 546h64l178 -545l180 545h83l-233 -675h-64l-176 535zM375 749l-32 42l143 115h7l144 -115l-33 -42l-114 79z" />
    <glyph glyph-name="wcircumflex" unicode="&#x175;" horiz-adv-x="677" 
d="M166 0l-153 450h74l110 -337l109 337h65l108 -336l111 336h74l-153 -450h-65l-108 328l-108 -328h-64zM338 623l-114 -79l-33 42l144 115h7l143 -115l-33 -42z" />
    <glyph glyph-name="Ycircumflex" unicode="&#x176;" horiz-adv-x="644" 
d="M281 0v274l-263 401h93l210 -324l212 324h94l-265 -397v-278h-81zM208 749l-33 42l144 115h7l143 -115l-32 -42l-115 79z" />
    <glyph glyph-name="ycircumflex" unicode="&#x177;" horiz-adv-x="463" 
d="M192 12l-179 438h76l140 -349l145 349h76l-229 -546q-28 -67 -68.5 -98t-101.5 -31h-17v71h17q72 0 107 83zM117 544l-33 42l144 115h7l143 -115l-32 -42l-115 79z" />
    <glyph glyph-name="Ydieresis" unicode="&#x178;" horiz-adv-x="644" 
d="M281 274l-263 401h93l210 -324l212 324h94l-265 -397v-278h-81v274zM382 839q15 14 37 14t36 -14q15 -14 15 -36t-15 -37q-14 -14 -36 -14t-37 14q-14 15 -14 37t14 36zM226 853q21 0 35.5 -14t14.5 -36t-14.5 -36.5t-35.5 -14.5q-22 0 -36.5 14.5t-14.5 36.5t14.5 36
t36.5 14z" />
    <glyph glyph-name="Zacute" unicode="&#x179;" horiz-adv-x="619" 
d="M580 75v-75h-535v62l420 538h-418v75h531v-62l-420 -538h422zM444 839l-176 -90l-26 45l165 110z" />
    <glyph glyph-name="zacute" unicode="&#x17a;" horiz-adv-x="441" 
d="M405 68v-68h-369v57l264 325h-260v68h361v-57l-265 -325h269zM352 634l-176 -90l-26 45l165 111z" />
    <glyph glyph-name="Zdotaccent" unicode="&#x17b;" horiz-adv-x="619" 
d="M580 0h-535v62l420 538h-418v75h531v-62l-420 -538h422v-75zM313 857q22 0 37 -15.5t15 -37.5t-15 -37t-37 -15q-23 0 -38 14.5t-15 37.5t15 38t38 15z" />
    <glyph glyph-name="zdotaccent" unicode="&#x17c;" horiz-adv-x="441" 
d="M36 0v57l264 325h-260v68h361v-57l-265 -325h269v-68h-369zM274 599q0 -22 -15 -37t-38 -15t-38 14.5t-15 37.5t15 38t38 15t38 -15t15 -38z" />
    <glyph glyph-name="Zcaron" unicode="&#x17d;" horiz-adv-x="619" 
d="M580 0h-535v62l420 538h-418v75h531v-62l-420 -538h422v-75zM316 749h-7l-144 115l33 42l114 -80l115 80l33 -42z" />
    <glyph glyph-name="zcaron" unicode="&#x17e;" horiz-adv-x="441" 
d="M405 68v-68h-369v57l264 325h-260v68h361v-57l-265 -325h269zM224 544h-7l-143 115l32 42l115 -79l114 79l33 -42z" />
    <glyph glyph-name="uni018F" unicode="&#x18f;" horiz-adv-x="795" 
d="M399 685q149 0 248 -100q99 -99 99 -247t-99 -249q-99 -99 -248 -99q-147 0 -248 99q-100 100 -100 249q0 3 2 35h607q-12 103 -85 168q-74 66 -176 66q-132 0 -209 -101l-79 32q48 70 123 108.5t165 38.5zM659 298h-521q14 -101 86 -165q74 -65 175 -65q103 0 174 64
q72 63 86 166z" />
    <glyph glyph-name="florin" unicode="&#x192;" horiz-adv-x="309" 
d="M-47 -225h-60l13 71h54q28 0 50 20t27 51l75 424h-75l11 65h76l32 186q10 57 55 95q46 38 102 38h59l-12 -71h-55q-27 0 -49 -20t-28 -51l-31 -177h120l-12 -65h-119l-77 -433q-11 -57 -55 -94q-45 -39 -101 -39z" />
    <glyph glyph-name="uni01DD" unicode="&#x1dd;" horiz-adv-x="536" 
d="M35 250h386q-7 60 -54 101q-44 40 -110 40q-83 0 -133 -65l-71 23q31 52 85 81.5t119 29.5q104 0 171 -67q69 -67 69 -168t-67 -168t-166 -67q-98 0 -165 67q-66 67 -66 168q0 15 2 25zM420 191h-311q11 -58 54.5 -95t102.5 -37q57 0 100 37t54 95z" />
    <glyph glyph-name="Aringacute" unicode="&#x1fa;" horiz-adv-x="694" 
d="M171 155l-68 -155h-85l293 665q-29 11 -46.5 36.5t-17.5 57.5q0 43 29 72t71 29q41 0 69 -27l144 96l37 -65l-152 -78q3 -14 3 -27q0 -32 -17.5 -57.5t-46.5 -36.5l292 -665h-84l-68 155h-353zM491 230l-143 329l-144 -329h287zM347 713q20 0 33.5 13.5t13.5 32.5
t-13.5 32.5t-33.5 13.5q-19 0 -32.5 -13.5t-13.5 -32.5t13.5 -32.5t32.5 -13.5z" />
    <glyph glyph-name="aringacute" unicode="&#x1fb;" horiz-adv-x="560" 
d="M261 460q99 0 163 -72v62h74v-450h-74v62q-64 -72 -163 -72q-95 0 -159 67q-63 67 -63 168q0 99 63 167q65 68 159 68zM160 340q-44 -47 -44 -115t44 -115q43 -46 109 -46t109 46q44 47 44 115t-44 115q-43 46 -109 46t-109 -46zM181 639q0 43 29 72t71 29q35 0 61 -20
l143 95l37 -65l-146 -75q6 -17 6 -36q0 -42 -29.5 -71t-71.5 -29t-71 29t-29 71zM235 639q0 -19 13.5 -32.5t32.5 -13.5t32.5 13.5t13.5 32.5q0 20 -13.5 33.5t-32.5 13.5t-32.5 -13.5t-13.5 -33.5z" />
    <glyph glyph-name="AEacute" unicode="&#x1fc;" horiz-adv-x="957" 
d="M110 0h-92l426 675h470v-75h-354v-221h305v-75h-305v-229h359v-75h-440v155h-272zM254 230h225v359zM664 839l-176 -90l-26 45l165 110z" />
    <glyph glyph-name="aeacute" unicode="&#x1fd;" horiz-adv-x="921" 
d="M261 -10q-95 0 -159 67q-63 67 -63 168q0 99 63 167q65 68 159 68q99 0 163 -72v62h73v-65q65 75 167 75q94 0 159 -68t65 -167q0 -3 -2 -25h-386q7 -60 53 -101q46 -40 111 -40q85 0 132 65l72 -23q-30 -52 -82.5 -81.5t-115.5 -29.5q-106 0 -173 76v-66h-73v62
q-64 -72 -163 -72zM160 340q-44 -47 -44 -115t44 -115q43 -46 109 -46t109 46q44 47 44 115t-44 115q-43 46 -109 46t-109 -46zM501 259h311q-11 58 -54.5 95t-102.5 37q-58 0 -101 -37t-53 -95zM589 634l-176 -90l-26 45l165 111z" />
    <glyph glyph-name="Oslashacute" unicode="&#x1fe;" horiz-adv-x="797" 
d="M142 25l31 44q-122 101 -122 269q0 149 99 248q100 99 249 99q94 0 174 -44l30 44l53 -37l-30 -44q57 -48 88.5 -117t31.5 -149q0 -148 -99 -249q-99 -99 -248 -99q-97 0 -173 43l-31 -44zM578 537l-306 -438q56 -31 127 -31q113 0 188 77q75 78 75 193q0 123 -84 199z
M220 137l306 438q-56 32 -127 32q-112 0 -189 -77q-76 -76 -76 -192q0 -123 86 -201zM354 749l-26 45l165 110l37 -65z" />
    <glyph glyph-name="oslashacute" unicode="&#x1ff;" horiz-adv-x="548" 
d="M274 460q59 0 108 -25l17 25l53 -37l-17 -24q74 -68 74 -174q0 -100 -68 -168q-67 -67 -167 -67q-59 0 -108 25l-17 -25l-53 37l17 24q-74 68 -74 174q0 101 67 168t168 67zM390 334l-179 -256q31 -14 63 -14q68 0 113 46t45 115q0 67 -42 109zM158 116l180 256
q-31 14 -64 14q-68 0 -113 -46t-45 -115q0 -65 42 -109zM230 544l-26 45l165 111l37 -66z" />
    <glyph glyph-name="uni0218" unicode="&#x218;" horiz-adv-x="596" 
d="M526 535l-81 -24q-8 42 -50.5 69t-99.5 27q-63 0 -104.5 -30.5t-41.5 -77.5q0 -50 55 -77q50 -24 131 -44q68 -16 113 -38q47 -21 71 -56t27 -93q0 -91 -69 -146q-68 -56 -175 -56q-98 0 -165 46q-68 47 -86 116l80 24q7 -44 56 -76q47 -31 115 -31q70 0 116 33
q47 33 47 84q0 52 -50 78q-41 22 -102 37l-40 10l-38 11q-24 8 -38 14l-33 15q-7 3 -13 6.5t-10 5.5t-9.5 7t-7 6.5t-8.5 8t-9 8.5q-38 35 -38 102q0 84 63 137q63 54 161 54q90 0 152 -43q64 -42 81 -107zM373 -116q0 -32 -19 -58q-11 -16 -24 -28.5t-20.5 -17t-10.5 -4.5
l-20 21l11 9q28 25 27 48q-17 2 -28.5 15t-11.5 31t13.5 31t32.5 13q22 0 36 -16.5t14 -43.5z" />
    <glyph glyph-name="uni0219" unicode="&#x219;" horiz-adv-x="416" 
d="M369 352l-69 -13q-7 25 -32.5 40.5t-63.5 15.5q-37 0 -61.5 -16t-24.5 -42q0 -37 48 -53l109 -39q103 -37 103 -123q0 -62 -47 -97t-122 -35q-72 0 -119 32.5t-56 86.5l70 11q6 -29 35 -47t71 -18t69.5 18t27.5 47q0 39 -59 60l-106 37q-95 35 -95 114q0 61 44.5 95
t117.5 34q65 0 108 -29.5t52 -78.5zM274 -116q0 -32 -19 -58q-11 -16 -24 -28.5t-20.5 -17t-10.5 -4.5l-20 21l11 9q28 25 27 48q-17 2 -28.5 15t-11.5 31t13.5 31t32.5 13q22 0 36 -16.5t14 -43.5z" />
    <glyph glyph-name="uni021A" unicode="&#x21a;" horiz-adv-x="647" 
d="M283 0v600h-257v75h595v-75h-257v-600h-81zM320 -146q-17 2 -28.5 15t-11.5 31t13.5 31t32.5 13q22 0 36 -16.5t14 -43.5q0 -32 -19 -58q-11 -16 -24 -28.5t-20.5 -17t-10.5 -4.5l-20 21q6 4 11 9q28 25 27 48z" />
    <glyph glyph-name="uni021B" unicode="&#x21b;" horiz-adv-x="320" 
d="M14 385v65h73v93h73v-93h128v-65h-128v-243q0 -31 18.5 -51t46.5 -20h63v-71h-68q-57 0 -95 38q-38 40 -38 95v252h-73zM236 -116q0 -32 -19 -58q-11 -16 -24 -28.5t-21 -17t-11 -4.5l-20 21q6 4 11 9q29 26 28 48q-17 1 -28.5 14.5t-11.5 31.5t13 31t33 13
q22 0 36 -16.5t14 -43.5z" />
    <glyph glyph-name="uni0237" unicode="&#x237;" horiz-adv-x="206" 
d="M69 450h74v-543q0 -56 -38 -94t-95 -38h-40v71h35q27 0 45.5 20t18.5 51v533z" />
    <glyph glyph-name="uni0259" unicode="&#x259;" horiz-adv-x="536" 
d="M35 250h386q-7 60 -54 101q-44 40 -110 40q-83 0 -133 -65l-71 23q31 52 85 81.5t119 29.5q104 0 171 -67q69 -67 69 -168t-67 -168t-166 -67q-98 0 -165 67q-66 67 -66 168q0 15 2 25zM420 191h-311q11 -58 54.5 -95t102.5 -37q57 0 100 37t54 95z" />
    <glyph glyph-name="circumflex" unicode="&#x2c6;" horiz-adv-x="403" 
d="M202 756l-115 -79l-33 42l144 115h7l143 -115l-32 -42z" />
    <glyph glyph-name="caron" unicode="&#x2c7;" horiz-adv-x="403" 
d="M202 754l114 80l33 -42l-144 -115h-7l-144 115l33 42z" />
    <glyph glyph-name="breve" unicode="&#x2d8;" horiz-adv-x="375" 
d="M54 806h60q0 -33 21 -55t53 -22q31 0 52 22t21 55h60q0 -55 -38 -95q-38 -38 -95 -38q-56 0 -96 38q-38 40 -38 95z" />
    <glyph glyph-name="dotaccent" unicode="&#x2d9;" horiz-adv-x="214" 
d="M69 694q-15 16 -15 38t15 37q15 16 38 16t38 -16q15 -15 15 -37t-15 -38q-15 -15 -38 -15t-38 15z" />
    <glyph glyph-name="ring" unicode="&#x2da;" horiz-adv-x="310" 
d="M54 772q0 42 29 71.5t72 29.5q42 0 71.5 -29.5t29.5 -71.5q0 -43 -29.5 -72t-71.5 -29q-43 0 -72 29t-29 72zM122 805q-13 -13 -13 -33t13 -33q14 -13 33 -13t32 13q14 13 14 33t-14 33q-13 13 -32 13t-33 -13z" />
    <glyph glyph-name="ogonek" unicode="&#x2db;" horiz-adv-x="289" 
d="M98 -14l15 14h55q-4 -3 -15 -14q-7 -8 -25 -36q-15 -25 -15 -47q0 -20 11.5 -32t29.5 -12q27 0 48 21l7 7l26 -31l-13 -13q-6 -7 -34 -22q-26 -14 -50 -14q-36 0 -60 23.5t-24 59.5q0 25 14 52.5t30 43.5z" />
    <glyph glyph-name="tilde" unicode="&#x2dc;" horiz-adv-x="397" 
d="M114 691h-60q0 41 26.5 69.5t65.5 28.5q30 0 58 -24q29 -23 42 -23q15 0 26 12t11 30h59q0 -42 -26 -70t-65 -28q-29 0 -58 23q-29 24 -42 24q-16 0 -26.5 -12t-10.5 -30z" />
    <glyph glyph-name="hungarumlaut" unicode="&#x2dd;" horiz-adv-x="451" 
d="M93 670l-39 35l119 145l55 -51zM262 670l-39 35l118 144l56 -50z" />
    <glyph glyph-name="uni0394" unicode="&#x394;" horiz-adv-x="688" 
d="M670 0h-652l294 675h64zM553 75l-209 483l-209 -483h418z" />
    <glyph glyph-name="uni03A9" unicode="&#x3a9;" horiz-adv-x="803" 
d="M53 345q0 145 99 243q100 97 248 97t248 -98q100 -97 100 -243q0 -81 -33.5 -151t-94.5 -118h132v-75h-270v75q82 25 132 96t50 163q0 118 -76 195q-75 78 -188 78q-112 0 -189 -78q-75 -78 -75 -194q0 -95 51 -165q53 -71 135 -95v-75h-267v75h128q-62 48 -96 118
t-34 152z" />
    <glyph glyph-name="uni0400" unicode="&#x400;" horiz-adv-x="605" 
d="M78 675h484v-75h-403v-221h354v-75h-354v-229h408v-75h-489v675zM357 751l-176 90l37 66l165 -111z" />
    <glyph glyph-name="uni0401" unicode="&#x401;" horiz-adv-x="605" 
d="M78 675h484v-75h-403v-221h354v-75h-354v-229h408v-75h-489v675zM448 766q-14 -14 -36 -14t-37 14q-14 15 -14 37t14 36q15 14 37 14t36 -14q15 -14 15 -36t-15 -37zM219 853q21 0 35.5 -14t14.5 -36t-14.5 -36.5t-35.5 -14.5q-22 0 -36.5 14.5t-14.5 36.5t14.5 36
t36.5 14z" />
    <glyph glyph-name="uni0402" unicode="&#x402;" horiz-adv-x="858" 
d="M283 0v600h-257v75h595v-75h-257v-200q80 20 153 20q131 0 203 -57.5t72 -162.5q0 -103 -69 -156.5t-188 -53.5l-1 75q178 0 178 135q0 145 -197 145q-71 0 -151 -20v-325h-81z" />
    <glyph glyph-name="uni0403" unicode="&#x403;" horiz-adv-x="534" 
d="M159 600v-600h-81v675h430v-75h-349zM419 839l-176 -90l-26 45l165 110z" />
    <glyph glyph-name="uni0404" unicode="&#x404;" horiz-adv-x="750" 
d="M399 685q98 0 178 -46.5t125 -127.5l-78 -29q-36 58 -95 91.5t-130 33.5q-102 0 -175 -64q-74 -65 -87 -164h352v-75h-353q11 -104 84 -170q74 -66 179 -66q71 0 130 33.5t95 91.5l78 -29q-45 -81 -125 -127.5t-178 -46.5q-149 0 -249 99q-99 101 -99 249q0 149 99 248
q100 99 249 99z" />
    <glyph glyph-name="uni0405" unicode="&#x405;" horiz-adv-x="596" 
d="M526 535l-81 -24q-8 42 -50.5 69t-99.5 27q-63 0 -104.5 -30.5t-41.5 -77.5q0 -50 55 -77q50 -24 131 -44q68 -16 113 -38q47 -21 71 -56t27 -93q0 -91 -69 -146q-68 -56 -175 -56q-98 0 -165 46q-68 47 -86 116l80 24q7 -44 56 -76q47 -31 115 -31q70 0 116 33
q47 33 47 84q0 52 -50 78q-41 22 -102 37l-40 10l-38 11q-24 8 -38 14l-33 15q-7 3 -13 6.5t-10 5.5t-9.5 7t-7 6.5t-8.5 8t-9 8.5q-38 35 -38 102q0 84 63 137q63 54 161 54q90 0 152 -43q64 -42 81 -107z" />
    <glyph glyph-name="uni0406" unicode="&#x406;" horiz-adv-x="237" 
d="M159 0h-81v675h81v-675z" />
    <glyph glyph-name="uni0407" unicode="&#x407;" horiz-adv-x="237" 
d="M159 0h-81v675h81v-675zM22 853q21 0 35.5 -14t14.5 -36t-14.5 -36.5t-35.5 -14.5q-22 0 -36.5 14.5t-14.5 36.5t14.5 36t36.5 14zM178 766q-14 15 -14 37t14 36q15 14 37 14t36 -14q15 -14 15 -36t-15 -37q-14 -14 -36 -14t-37 14z" />
    <glyph glyph-name="uni0408" unicode="&#x408;" horiz-adv-x="575" 
d="M503 675v-433q0 -107 -74 -181q-73 -72 -184 -72q-69 0 -126 30.5t-93 84.5l68 44q23 -39 63 -61t89 -22q76 0 128 50q51 51 51 127v433h78z" />
    <glyph glyph-name="uni0409" unicode="&#x409;" horiz-adv-x="1103" 
d="M42 0h-24v75h24q34 0 57 21q55 51 55 251v328h478v-265h211q92 0 154 -59t62 -146q0 -88 -62 -147q-61 -58 -154 -58h-292v600h-317v-253q0 -347 -192 -347zM632 334v-259h211q57 0 94.5 37t37.5 93t-37.5 92.5t-94.5 36.5h-211z" />
    <glyph glyph-name="uni040A" unicode="&#x40a;" horiz-adv-x="1121" 
d="M159 0h-81v675h81v-281h410v281h81v-281h212q92 0 153 -57q62 -56 62 -140t-62 -141q-62 -56 -153 -56h-293v319h-410v-319zM862 319h-212v-244h212q55 0 93 35t38 87t-38 87t-93 35z" />
    <glyph glyph-name="uni040B" unicode="&#x40b;" horiz-adv-x="858" 
d="M283 0v600h-257v75h595v-75h-257v-197q73 17 145 17q135 0 209 -57.5t74 -164.5v-198h-80v198q0 147 -203 147q-71 0 -145 -17v-328h-81z" />
    <glyph glyph-name="uni040C" unicode="&#x40c;" horiz-adv-x="618" 
d="M600 0h-103l-320 344l300 331h104l-300 -331zM78 0v675h81v-675h-81zM443 839l-176 -90l-26 45l165 110z" />
    <glyph glyph-name="uni040D" unicode="&#x40d;" horiz-adv-x="731" 
d="M572 537l-421 -537h-73v675h81v-537l420 537h74v-675h-81v537zM433 796l-26 -45l-176 90l37 66z" />
    <glyph glyph-name="uni040E" unicode="&#x40e;" horiz-adv-x="657" 
d="M311 167l-293 508h89l244 -425l202 425h86l-249 -525q-72 -150 -199 -150h-70v75h64q76 0 126 92zM329 743q-73 0 -123 44q-49 43 -49 110h68q0 -38 29.5 -63.5t74.5 -25.5q44 0 73 25.5t29 63.5h68q0 -67 -49 -110q-49 -44 -121 -44z" />
    <glyph glyph-name="uni040F" unicode="&#x40f;" horiz-adv-x="710" 
d="M78 0v675h81v-600h392v600h81v-675h-237v-164h-80v164h-237z" />
    <glyph glyph-name="uni0410" unicode="&#x410;" horiz-adv-x="694" 
d="M103 0h-85l297 675h64l297 -675h-84l-68 155h-353zM491 230l-143 329l-144 -329h287z" />
    <glyph glyph-name="uni0411" unicode="&#x411;" horiz-adv-x="640" 
d="M78 675h447v-75h-366v-190h212q91 0 153 -59t62 -146q0 -88 -62 -147q-61 -58 -153 -58h-293v675zM159 334v-259h212q56 0 93.5 37t37.5 93q0 54 -38 92q-37 37 -93 37h-212z" />
    <glyph glyph-name="uni0412" unicode="&#x412;" horiz-adv-x="669" 
d="M416 0h-338v675h319q82 0 136 -51q55 -49 55 -124q0 -94 -78 -143q52 -23 81.5 -67.5t29.5 -100.5q0 -81 -59 -135q-58 -54 -146 -54zM416 313h-257v-238h257q52 0 86 34q35 35 35 85q0 51 -34.5 85t-86.5 34zM397 600h-238v-211h238q46 0 76.5 30t30.5 75t-30.5 75.5
t-76.5 30.5z" />
    <glyph glyph-name="uni0413" unicode="&#x413;" horiz-adv-x="534" 
d="M159 600v-600h-81v675h430v-75h-349z" />
    <glyph glyph-name="uni0414" unicode="&#x414;" horiz-adv-x="802" 
d="M104 0v-164h-81v239h75q88 25 88 269v331h481v-600h112v-239h-81v164h-594zM209 75h377v525h-319v-252q0 -188 -58 -273z" />
    <glyph glyph-name="uni0415" unicode="&#x415;" horiz-adv-x="605" 
d="M78 675h484v-75h-403v-221h354v-75h-354v-229h408v-75h-489v675z" />
    <glyph glyph-name="uni0416" unicode="&#x416;" horiz-adv-x="957" 
d="M940 0h-102l-304 344l284 331h102l-285 -331zM119 0h-101l304 344l-285 331h101l286 -331zM519 675v-675h-80v675h80z" />
    <glyph glyph-name="uni0417" unicode="&#x417;" horiz-adv-x="617" 
d="M308 -10q-192 0 -266 162l78 30q52 -114 187 -114q79 0 129 35q50 36 50 92q0 47 -36 82q-35 35 -87 35h-131v75h129q45 0 76.5 30.5t31.5 73.5q0 52 -45.5 84t-118.5 32q-131 0 -183 -114l-77 29q73 163 261 163q107 0 177 -53q70 -52 70 -134q0 -96 -87 -147
q48 -24 76 -67.5t28 -95.5q0 -86 -75 -142q-74 -56 -187 -56z" />
    <glyph glyph-name="uni0418" unicode="&#x418;" horiz-adv-x="731" 
d="M572 537l-421 -537h-73v675h81v-537l420 537h74v-675h-81v537z" />
    <glyph glyph-name="uni0419" unicode="&#x419;" horiz-adv-x="731" 
d="M572 537l-421 -537h-73v675h81v-537l420 537h74v-675h-81v537zM197 897h68q0 -38 30 -63.5t74 -25.5t73 25.5t29 63.5h68q0 -67 -49 -110q-49 -44 -120 -44q-70 0 -122 42q-51 42 -51 112z" />
    <glyph glyph-name="uni041A" unicode="&#x41a;" horiz-adv-x="618" 
d="M600 0h-103l-320 344l300 331h104l-300 -331zM78 0v675h81v-675h-81z" />
    <glyph glyph-name="uni041B" unicode="&#x41b;" horiz-adv-x="710" 
d="M42 0h-24v75h24q34 0 57 21q55 51 55 251v328h478v-675h-81v600h-316v-253q0 -347 -193 -347z" />
    <glyph glyph-name="uni041C" unicode="&#x41c;" horiz-adv-x="869" 
d="M159 0h-81v675h81l275 -481l276 481h81v-675h-81v522l-249 -437h-53l-249 436v-521z" />
    <glyph glyph-name="uni041D" unicode="&#x41d;" horiz-adv-x="728" 
d="M159 0h-81v675h81v-296h410v296h81v-675h-81v304h-410v-304z" />
    <glyph glyph-name="uni041E" unicode="&#x41e;" horiz-adv-x="797" 
d="M399 -11q-149 0 -249 99q-99 100 -99 249t99 248q100 100 249 100t248 -100q99 -99 99 -248t-100 -249q-99 -99 -247 -99zM210 529q-76 -76 -76 -192t76 -192q77 -77 189 -77q113 0 188 77q76 76 76 192t-76 192q-75 78 -188 78t-189 -78z" />
    <glyph glyph-name="uni041F" unicode="&#x41f;" horiz-adv-x="728" 
d="M159 600v-600h-81v675h572v-675h-81v600h-410z" />
    <glyph glyph-name="uni0420" unicode="&#x420;" horiz-adv-x="636" 
d="M159 261v-261h-81v675h295q93 0 154 -60q63 -59 63 -147t-63 -148q-62 -59 -154 -59h-214zM373 600h-214v-263h214q58 0 95 37q38 38 38 94t-38 94t-95 38z" />
    <glyph glyph-name="uni0421" unicode="&#x421;" horiz-adv-x="750" 
d="M399 685q98 0 178 -46.5t125 -127.5l-78 -29q-36 58 -95 91.5t-130 33.5q-113 0 -189 -78q-76 -76 -76 -192t76 -192q77 -77 189 -77q71 0 130 33.5t95 91.5l78 -29q-45 -81 -125 -128t-178 -47q-149 0 -249 99q-99 100 -99 249t99 248q100 100 249 100z" />
    <glyph glyph-name="uni0422" unicode="&#x422;" horiz-adv-x="647" 
d="M283 600h-257v75h595v-75h-257v-600h-81v600z" />
    <glyph glyph-name="uni0423" unicode="&#x423;" horiz-adv-x="657" 
d="M311 167l-293 508h89l244 -425l202 425h86l-249 -525q-72 -150 -199 -150h-70v75h64q76 0 126 92z" />
    <glyph glyph-name="uni0424" unicode="&#x424;" horiz-adv-x="826" 
d="M51 338q0 119 90 197q91 77 231 79v71h81v-71q142 -2 231 -79q91 -78 91 -197q0 -120 -91 -198q-89 -77 -231 -79v-71h-81v71q-140 2 -231 79q-90 78 -90 198zM691 338q0 87 -67 142q-68 56 -171 56v-397q103 0 171 56q67 55 67 143zM372 139v397q-104 -2 -171 -57
t-67 -141q0 -87 67 -142q67 -56 171 -57z" />
    <glyph glyph-name="uni0425" unicode="&#x425;" horiz-adv-x="650" 
d="M276 344l-249 331h97l201 -267l200 267h97l-249 -331l259 -344h-97l-210 279l-210 -279h-97z" />
    <glyph glyph-name="uni0426" unicode="&#x426;" horiz-adv-x="768" 
d="M78 0v675h81v-600h392v600h81v-600h112v-239h-81v164h-585z" />
    <glyph glyph-name="uni0427" unicode="&#x427;" horiz-adv-x="669" 
d="M344 255q-141 0 -218.5 57.5t-77.5 164.5v198h81v-198q0 -147 214 -147q87 0 167 21v324h81v-675h-81v276q-77 -21 -166 -21z" />
    <glyph glyph-name="uni0428" unicode="&#x428;" horiz-adv-x="1048" 
d="M78 0v675h81v-600h322v600h81v-600h328v600h80v-675h-892z" />
    <glyph glyph-name="uni0429" unicode="&#x429;" horiz-adv-x="1106" 
d="M78 675h81v-600h322v600h81v-600h328v600h80v-600h113v-239h-81v164h-924v675z" />
    <glyph glyph-name="uni042A" unicode="&#x42a;" horiz-adv-x="822" 
d="M269 0v600h-243v75h324v-265h212q91 0 153 -59t62 -146q0 -88 -62 -147q-61 -58 -153 -58h-293zM350 334v-259h212q56 0 93.5 37t37.5 93q0 54 -38 92q-37 37 -93 37h-212z" />
    <glyph glyph-name="uni042B" unicode="&#x42b;" horiz-adv-x="854" 
d="M371 0h-293v675h81v-265h212q91 0 153 -59t62 -146q0 -88 -62 -147q-61 -58 -153 -58zM159 334v-259h212q56 0 93.5 37t37.5 93q0 48 -29 83t-75 43q-7 3 -19 3h-8h-212zM776 0h-81v675h81v-675z" />
    <glyph glyph-name="uni042C" unicode="&#x42c;" horiz-adv-x="630" 
d="M78 0v675h81v-265h212q91 0 153 -59t62 -146q0 -88 -62 -147q-61 -58 -153 -58h-293zM159 334v-259h212q48 0 84 29t44 74q3 7 3 19q0 61 -36 99t-95 38h-212z" />
    <glyph glyph-name="uni042D" unicode="&#x42d;" horiz-adv-x="750" 
d="M48 164l78 29q34 -58 93.5 -91.5t131.5 -33.5q105 0 178 66t84 170h-315v75h314q-13 99 -87 164q-71 64 -174 64q-72 0 -131.5 -33.5t-93.5 -91.5l-78 29q44 81 124.5 127.5t178.5 46.5q149 0 248 -99q100 -99 100 -248t-100 -249q-99 -99 -248 -99q-98 0 -178 46.5
t-125 127.5z" />
    <glyph glyph-name="uni042E" unicode="&#x42e;" horiz-adv-x="1039" 
d="M78 0v675h81v-296h137q14 134 110 220q98 86 235 86q149 0 248 -100q99 -99 99 -247t-99 -249q-99 -99 -248 -99q-140 0 -238 89q-97 89 -108 225h-136v-304h-81zM376 338q0 -117 76 -193q77 -77 189 -77q113 0 188 77q76 76 76 193q0 116 -76 192q-75 77 -188 77
q-112 0 -189 -77q-76 -76 -76 -192z" />
    <glyph glyph-name="uni042F" unicode="&#x42f;" horiz-adv-x="654" 
d="M299 263l-161 -263h-91l164 271q-70 17 -113 71.5t-43 126.5q0 88 62 147t155 59h304v-675h-81v263h-196zM272 339h223v261h-223q-57 0 -95 -38t-38 -93t38 -93q37 -37 95 -37z" />
    <glyph glyph-name="uni0430" unicode="&#x430;" horiz-adv-x="560" 
d="M261 460q99 0 163 -72v62h73v-450h-73v62q-64 -72 -163 -72q-95 0 -159 67q-63 67 -63 168q0 99 63 167q65 68 159 68zM378 340q-43 46 -109 46t-109 -46q-44 -47 -44 -115t44 -115q43 -46 109 -46t109 46q44 47 44 115t-44 115z" />
    <glyph glyph-name="uni0431" unicode="&#x431;" horiz-adv-x="565" 
d="M42 338q0 151 62.5 231t187.5 96q123 18 149 66l34 -43q-11 -34 -60 -59q-49 -26 -105 -35q-103 -15 -149 -77.5t-44 -180.5q19 56 67.5 90t113.5 34q96 0 162 -68t66 -168t-66 -167t-165 -67q-109 0 -181 87q-72 89 -72 261zM296 64q66 0 109 46q44 47 44 115t-44 115
q-43 46 -109 46q-67 0 -110 -46q-44 -47 -44 -115t44 -115q43 -46 110 -46z" />
    <glyph glyph-name="uni0432" unicode="&#x432;" horiz-adv-x="486" 
d="M63 450h232q48 0 85 -26t48 -66q0 -7 3 -19q0 -65 -47 -100q68 -36 68 -108q0 -57 -39.5 -94t-99.5 -37h-250v450zM137 202v-131h176q27 0 45 18.5t18 46.5t-18 47t-45 19h-176zM295 379h-158v-115h158q26 0 43 16.5t17 41.5t-17 41t-43 16z" />
    <glyph glyph-name="uni0433" unicode="&#x433;" horiz-adv-x="368" 
d="M137 379v-379h-74v450h290v-71h-216z" />
    <glyph glyph-name="uni0434" unicode="&#x434;" horiz-adv-x="582" 
d="M94 -136h-74v207h67q39 35 39 151v228h354v-379h82v-207h-74v136h-394v-136zM169 71h237v308h-206v-160q0 -93 -31 -148z" />
    <glyph glyph-name="uni0435" unicode="&#x435;" horiz-adv-x="536" 
d="M501 200h-386q7 -60 53 -101q46 -40 111 -40q86 0 133 65l71 -23q-31 -52 -85 -81.5t-119 -29.5q-104 0 -172 67q-68 68 -68 168t67 167q68 68 166 68t164 -68q67 -67 67 -167q0 -15 -2 -25zM116 259h311q-11 58 -54.5 95t-102.5 37q-57 0 -100 -37t-54 -95z" />
    <glyph glyph-name="uni0436" unicode="&#x436;" horiz-adv-x="654" 
d="M638 0h-89l-183 233l167 217h87l-166 -217zM104 0h-88l184 233l-167 217h87l168 -217zM363 450v-450h-73v450h73z" />
    <glyph glyph-name="uni0437" unicode="&#x437;" horiz-adv-x="468" 
d="M36 115l74 19q28 -73 121 -73q53 0 87.5 22.5t34.5 55.5q0 27 -20 44.5t-50 17.5h-110v62h105q28 0 47 16t19 39q0 31 -31.5 51t-79.5 20q-93 0 -120 -73l-74 19q21 59 73.5 92t124.5 33q78 0 131 -38q52 -37 52 -94q0 -59 -56 -94q65 -36 65 -104q0 -59 -56 -100
q-55 -40 -140 -40q-73 0 -125 33t-72 92z" />
    <glyph glyph-name="uni0438" unicode="&#x438;" horiz-adv-x="540" 
d="M404 326l-279 -326h-62v450h74v-328l278 328h63v-450h-74v326z" />
    <glyph glyph-name="uni0439" unicode="&#x439;" horiz-adv-x="540" 
d="M63 0v450h74v-328l278 328h63v-450h-74v326l-279 -326h-62zM121 680h65q0 -33 24 -55.5t60 -22.5q35 0 59 22.5t24 55.5h65q0 -60 -43 -100q-41 -40 -105 -40q-63 0 -106 40t-43 100z" />
    <glyph glyph-name="uni043A" unicode="&#x43a;" horiz-adv-x="454" 
d="M438 0h-91l-203 233l184 217h91l-184 -217zM137 450v-450h-74v450h74z" />
    <glyph glyph-name="uni043B" unicode="&#x43b;" horiz-adv-x="521" 
d="M50 0h-30v71h25q64 0 64 142v237h349v-450h-74v379h-202v-181q0 -99 -35 -148.5t-97 -49.5z" />
    <glyph glyph-name="uni043C" unicode="&#x43c;" horiz-adv-x="615" 
d="M137 310v-310h-74v450h74l171 -298l170 298h74v-450h-74v308l-148 -256h-45z" />
    <glyph glyph-name="uni043D" unicode="&#x43d;" horiz-adv-x="539" 
d="M137 194v-194h-74v450h74v-186h265v186h74v-450h-74v194h-265z" />
    <glyph glyph-name="uni043E" unicode="&#x43e;" horiz-adv-x="548" 
d="M106 57q-67 67 -67 168t67 168t168 67q100 0 167 -67q68 -68 68 -168t-68 -168q-67 -67 -167 -67q-101 0 -168 67zM161 340q-45 -46 -45 -115t45 -115t113 -46t113 46t45 115t-45 115t-113 46t-113 -46z" />
    <glyph glyph-name="uni043F" unicode="&#x43f;" horiz-adv-x="532" 
d="M137 379v-379h-74v450h406v-450h-73v379h-259z" />
    <glyph glyph-name="uni0440" unicode="&#x440;" horiz-adv-x="560" 
d="M136 -225h-73v675h73v-62q64 72 163 72q95 0 158 -68q64 -67 64 -167q0 -101 -64 -168q-63 -67 -158 -67q-99 0 -163 72v-287zM400 340q-43 46 -109 46t-109 -46q-44 -47 -44 -115t44 -115q43 -46 109 -46t109 46q45 46 45 115t-45 115z" />
    <glyph glyph-name="uni0441" unicode="&#x441;" horiz-adv-x="519" 
d="M488 324l-74 -23q-19 39 -56 62t-84 23q-68 0 -113 -46t-45 -115t45 -115t113 -46q47 0 84 23t56 62l74 -23q-27 -63 -84.5 -99.5t-129.5 -36.5q-101 0 -168 67t-67 168t67 168t168 67q72 0 129.5 -36.5t84.5 -99.5z" />
    <glyph glyph-name="uni0442" unicode="&#x442;" horiz-adv-x="441" 
d="M184 0v379h-168v71h409v-71h-168v-379h-73z" />
    <glyph glyph-name="uni0443" unicode="&#x443;" horiz-adv-x="463" 
d="M158 -71l34 83l-179 438h76l140 -349l145 349h76l-229 -546q-28 -67 -68.5 -98t-101.5 -31h-17v71h17q72 0 107 83z" />
    <glyph glyph-name="uni0444" unicode="&#x444;" horiz-adv-x="680" 
d="M405 -10q-16 0 -28 2v-217h-74v217q-12 -2 -27 -2q-101 0 -168 67t-67 168t67 168t168 67q15 0 27 -2v267h74v-267q12 2 28 2q101 0 168 -67t67 -168t-67 -168t-168 -67zM276 386q-67 0 -114 -47q-45 -47 -45 -114q0 -69 45 -115q46 -46 114 -46q3 0 27 2v318
q-24 2 -27 2zM405 386q-4 0 -28 -2v-318q24 -2 28 -2q67 0 112 46q46 46 46 115q0 68 -46 114q-45 47 -112 47z" />
    <glyph glyph-name="uni0445" unicode="&#x445;" horiz-adv-x="472" 
d="M367 0l-131 171l-132 -171h-87l175 230l-167 220h87l124 -161l124 161h87l-167 -220l175 -230h-88z" />
    <glyph glyph-name="uni0446" unicode="&#x446;" horiz-adv-x="567" 
d="M63 0v450h74v-379h254v379h74v-379h82v-207h-74v136h-410z" />
    <glyph glyph-name="uni0447" unicode="&#x447;" horiz-adv-x="483" 
d="M41 308v142h76v-142q0 -33 26 -53t74 -20q42 0 130 11v204h73v-450h-73v175q-90 -11 -134 -11q-78 0 -125 40t-47 104z" />
    <glyph glyph-name="uni0448" unicode="&#x448;" horiz-adv-x="757" 
d="M63 0v450h74v-379h204v379h74v-379h206v379h73v-450h-631z" />
    <glyph glyph-name="uni0449" unicode="&#x449;" horiz-adv-x="796" 
d="M63 450h74v-379h204v379h74v-379h206v379h73v-379h82v-207h-73v136h-640v450z" />
    <glyph glyph-name="uni044A" unicode="&#x44a;" horiz-adv-x="578" 
d="M178 0v379h-162v71h235v-162h149q63 0 104 -41q42 -40 42 -103q0 -62 -42 -103q-41 -41 -104 -41h-222zM400 217h-149v-146h149q29 0 49 21t20 52t-20 52t-49 21z" />
    <glyph glyph-name="uni044B" unicode="&#x44b;" horiz-adv-x="639" 
d="M286 0h-223v450h74v-162h149q62 0 103 -41q42 -40 42 -103q0 -51 -28.5 -88.5t-75.5 -50.5q-8 -2 -30 -5h-11zM577 0h-74v450h74v-450zM286 217h-149v-146h149q29 0 48.5 21t19.5 52t-19.5 52t-48.5 21z" />
    <glyph glyph-name="uni044C" unicode="&#x44c;" horiz-adv-x="464" 
d="M286 0h-223v450h74v-162h149q60 0 100 -37t45 -97q0 -68 -39.5 -111t-105.5 -43zM137 217v-146h149q29 0 48.5 21t19.5 52t-19.5 52t-48.5 21h-149z" />
    <glyph glyph-name="uni044D" unicode="&#x44d;" horiz-adv-x="521" 
d="M33 126l74 22q19 -39 56.5 -61.5t83.5 -22.5q60 0 103 36.5t53 94.5h-203v68h202q-12 54 -55 88.5t-100 34.5q-46 0 -83.5 -23t-56.5 -62l-74 22q27 63 84.5 100t129.5 37q101 0 168 -67t67 -168t-67 -168t-168 -67q-72 0 -129.5 36.5t-84.5 99.5z" />
    <glyph glyph-name="uni044E" unicode="&#x44e;" horiz-adv-x="736" 
d="M63 0v450h74v-186h101q14 86 76 141t152 55q98 0 164 -68q67 -67 67 -167q0 -101 -67 -168q-66 -67 -164 -67q-91 0 -155 57q-64 59 -74 147h-100v-194h-74zM466 386q-67 0 -110 -46q-44 -47 -44 -115t44 -115q43 -46 110 -46q66 0 109 46q45 46 45 115t-45 115
q-43 46 -109 46z" />
    <glyph glyph-name="uni044F" unicode="&#x44f;" horiz-adv-x="497" 
d="M130 0h-87l116 166q-50 10 -82 49t-32 92q0 61 41 102q43 41 104 41h244v-450h-73v163h-117zM190 234h171v145h-171q-29 0 -48.5 -20.5t-19.5 -51.5t19.5 -52t48.5 -21z" />
    <glyph glyph-name="uni0450" unicode="&#x450;" horiz-adv-x="536" 
d="M501 200h-386q7 -60 53 -101q46 -40 111 -40q86 0 133 65l71 -23q-31 -52 -85 -81.5t-119 -29.5q-104 0 -172 67q-68 68 -68 168t67 167q68 68 166 68t164 -68q67 -67 67 -167q0 -15 -2 -25zM116 259h311q-11 58 -54.5 95t-102.5 37q-57 0 -100 -37t-54 -95zM315 546
l-176 90l37 66l165 -110z" />
    <glyph glyph-name="uni0451" unicode="&#x451;" horiz-adv-x="536" 
d="M501 200h-386q7 -60 53 -101q46 -40 111 -40q86 0 133 65l71 -23q-31 -52 -85 -81.5t-119 -29.5q-104 0 -172 67q-68 68 -68 168t67 167q68 68 166 68t164 -68q67 -67 67 -167q0 -15 -2 -25zM116 259h311q-11 58 -54.5 95t-102.5 37q-57 0 -100 -37t-54 -95zM177 648
q21 0 35.5 -14t14.5 -36t-14.5 -36t-35.5 -14q-22 0 -36.5 14t-14.5 36t14.5 36t36.5 14zM370 648q21 0 35.5 -14t14.5 -36t-14.5 -36t-35.5 -14q-22 0 -36.5 14t-14.5 36t14.5 36t36.5 14z" />
    <glyph glyph-name="uni0452" unicode="&#x452;" horiz-adv-x="540" 
d="M136 725v-105h166v-62h-166v-183q52 85 161 85q79 0 130 -52q52 -51 52 -128v-373q0 -56 -38 -94t-94 -38h-40v71h34q28 0 46.5 20t18.5 51v344q0 55 -37 91q-37 37 -93 37q-60 0 -100 -37t-40 -92v-260h-73v558h-54v62h54v105h73z" />
    <glyph glyph-name="uni0453" unicode="&#x453;" horiz-adv-x="368" 
d="M137 379v-379h-74v450h290v-71h-216zM337 634l-176 -90l-26 45l165 111z" />
    <glyph glyph-name="uni0454" unicode="&#x454;" horiz-adv-x="521" 
d="M274 -10q-101 0 -168 67t-67 168t67 168t168 67q73 0 130.5 -37t83.5 -100l-74 -22q-19 39 -56 62t-84 23q-57 0 -99.5 -34.5t-54.5 -88.5h217v-68h-219q11 -58 54 -94.5t102 -36.5q47 0 84 22.5t56 61.5l74 -22q-27 -63 -84.5 -99.5t-129.5 -36.5z" />
    <glyph glyph-name="uni0455" unicode="&#x455;" horiz-adv-x="416" 
d="M369 352l-69 -13q-7 25 -32.5 40.5t-63.5 15.5q-37 0 -61.5 -16t-24.5 -42q0 -37 48 -53l109 -39q103 -37 103 -123q0 -62 -47 -97t-122 -35q-72 0 -119 32.5t-56 86.5l70 11q6 -29 35 -47t71 -18t69.5 18t27.5 47q0 39 -59 60l-106 37q-95 35 -95 114q0 61 44.5 95
t117.5 34q65 0 108 -29.5t52 -78.5z" />
    <glyph glyph-name="uni0456" unicode="&#x456;" horiz-adv-x="199" 
d="M136 0h-73v450h73v-450zM49 597q-2 31 24.5 43.5t53 0t23.5 -43.5q0 -22 -14 -36.5t-36 -14.5t-36.5 14t-14.5 37z" />
    <glyph glyph-name="uni0457" unicode="&#x457;" horiz-adv-x="199" 
d="M137 0h-74v450h74v-450zM-25 561q-15 15 -15 37t15 36q14 15 36 15t36 -15q14 -14 14 -36t-14 -37q-14 -14 -36 -14t-36 14zM152 561q-14 15 -14 37t14 36q14 15 36 15t36 -15q15 -14 15 -36t-15 -37q-14 -14 -36 -14t-36 14z" />
    <glyph glyph-name="uni0458" unicode="&#x458;" horiz-adv-x="206" 
d="M69 450h74v-543q0 -56 -38 -94t-95 -38h-40v71h35q27 0 45.5 20t18.5 51v533zM69 560q-14 15 -14 37t14 36q15 14 37 14t36 -14q15 -14 15 -36t-15 -37q-14 -14 -36 -14t-37 14z" />
    <glyph glyph-name="uni0459" unicode="&#x459;" horiz-adv-x="785" 
d="M50 0h-30v71h25q64 0 64 142v237h349v-162h149q62 0 103 -41q42 -40 42 -103q0 -62 -42 -103q-41 -41 -103 -41h-223v379h-202v-181q0 -99 -35 -148.5t-97 -49.5zM607 217h-149v-146h149q29 0 49 21t20 52t-20 52t-49 21z" />
    <glyph glyph-name="uni045A" unicode="&#x45a;" horiz-adv-x="803" 
d="M137 205v-205h-74v450h74v-174h265v174h74v-174h149q63 0 103 -40q42 -39 42 -98q0 -58 -42 -99q-40 -39 -103 -39h-223v205h-265zM625 205h-149v-134h149q29 0 49 19t20 48q0 28 -20 47.5t-49 19.5z" />
    <glyph glyph-name="uni045B" unicode="&#x45b;" horiz-adv-x="540" 
d="M136 725v-105h166v-62h-166v-183q52 85 161 85q79 0 130 -52q52 -51 52 -128v-280h-74v261q0 55 -37 91.5t-92 36.5q-60 0 -100 -37t-40 -92v-260h-73v558h-54v62h54v105h73z" />
    <glyph glyph-name="uni045C" unicode="&#x45c;" horiz-adv-x="454" 
d="M347 0l-203 233l184 217h91l-184 -217l203 -233h-91zM137 450v-450h-74v450h74zM356 634l-176 -90l-26 45l165 111z" />
    <glyph glyph-name="uni045D" unicode="&#x45d;" horiz-adv-x="540" 
d="M404 326l-279 -326h-62v450h74v-328l278 328h63v-450h-74v326zM337 592l-26 -46l-176 90l37 66z" />
    <glyph glyph-name="uni045E" unicode="&#x45e;" horiz-adv-x="463" 
d="M192 12l-179 438h76l140 -349l145 349h76l-229 -546q-28 -67 -68.5 -98t-101.5 -31h-17v71h17q72 0 107 83zM83 680h65q0 -33 24 -55.5t60 -22.5q35 0 59 22.5t24 55.5h65q0 -60 -43 -100q-41 -40 -105 -40q-63 0 -106 40t-43 100z" />
    <glyph glyph-name="uni045F" unicode="&#x45f;" horiz-adv-x="527" 
d="M63 0v450h74v-379h254v379h74v-450h-165v-136h-74v136h-163z" />
    <glyph glyph-name="uni0490" unicode="&#x490;" horiz-adv-x="515" 
d="M159 600v-600h-81v675h330v147h81v-222h-330z" />
    <glyph glyph-name="uni0491" unicode="&#x491;" horiz-adv-x="365" 
d="M137 379v-379h-74v450h213v117h73v-188h-212z" />
    <glyph glyph-name="uni04D8" unicode="&#x4d8;" horiz-adv-x="795" 
d="M399 685q149 0 248 -100q99 -99 99 -247t-99 -249q-99 -99 -248 -99q-147 0 -248 99q-100 100 -100 249q0 3 2 35h607q-12 103 -85 168q-74 66 -176 66q-132 0 -209 -101l-79 32q48 70 123 108.5t165 38.5zM659 298h-521q14 -101 86 -165q74 -65 175 -65q103 0 174 64
q72 63 86 166z" />
    <glyph glyph-name="uni04D9" unicode="&#x4d9;" horiz-adv-x="536" 
d="M35 250h386q-7 60 -54 101q-44 40 -110 40q-83 0 -133 -65l-71 23q31 52 85 81.5t119 29.5q104 0 171 -67q69 -67 69 -168t-67 -168t-166 -67q-98 0 -165 67q-66 67 -66 168q0 15 2 25zM420 191h-311q11 -58 54.5 -95t102.5 -37q57 0 100 37t54 95z" />
    <glyph glyph-name="Wgrave" unicode="&#x1e80;" horiz-adv-x="980" 
d="M314 0h-64l-232 675h83l181 -546l176 546h64l178 -545l180 545h83l-233 -675h-64l-176 535zM532 751l-176 90l37 66l165 -111z" />
    <glyph glyph-name="wgrave" unicode="&#x1e81;" horiz-adv-x="677" 
d="M166 0l-153 450h74l110 -337l109 337h65l108 -336l111 336h74l-153 -450h-65l-108 328l-108 -328h-64zM241 702l165 -110l-26 -46l-176 90z" />
    <glyph glyph-name="Wacute" unicode="&#x1e82;" horiz-adv-x="980" 
d="M314 0h-64l-232 675h83l181 -546l176 546h64l178 -545l180 545h83l-233 -675h-64l-176 535zM622 839l-176 -90l-26 45l165 110z" />
    <glyph glyph-name="wacute" unicode="&#x1e83;" horiz-adv-x="677" 
d="M166 0l-153 450h74l110 -337l109 337h65l108 -336l111 336h74l-153 -450h-65l-108 328l-108 -328h-64zM470 634l-176 -90l-26 45l165 111z" />
    <glyph glyph-name="Wdieresis" unicode="&#x1e84;" horiz-adv-x="980" 
d="M314 0h-64l-232 675h83l181 -546l176 546h64l178 -545l180 545h83l-233 -675h-64l-176 535zM394 853q21 0 35.5 -14t14.5 -36t-14.5 -36.5t-35.5 -14.5q-22 0 -36.5 14t-14.5 37q0 22 14.5 36t36.5 14zM587 853q21 0 35.5 -14t14.5 -36t-14.5 -36.5t-35.5 -14.5
q-22 0 -36.5 14.5t-14.5 36.5t14.5 36t36.5 14z" />
    <glyph glyph-name="wdieresis" unicode="&#x1e85;" horiz-adv-x="677" 
d="M230 0h-64l-153 450h74l110 -337l109 337h65l108 -336l111 336h74l-153 -450h-65l-108 328zM435 648q21 0 36 -14.5t15 -35.5t-15 -35.5t-36 -14.5q-22 0 -36.5 14t-14.5 36t14.5 36t36.5 14zM242 648q21 0 35.5 -14t14.5 -36t-14.5 -36t-35.5 -14q-22 0 -36.5 14
t-14.5 36t14.5 36t36.5 14z" />
    <glyph glyph-name="Germandbls" unicode="&#x1e9e;" horiz-adv-x="637" 
d="M157 437v-437h-79v438q0 101 71 169q73 68 179 68h251v-59l-135 -192q65 -17 108 -73q44 -58 44 -129q0 -100 -81 -166t-198 -66l1 79q83 0 139 43q58 43 58 111q0 65 -55 108q-55 44 -138 44l154 224h-147q-73 0 -123 -47q-49 -46 -49 -115z" />
    <glyph glyph-name="Ygrave" unicode="&#x1ef2;" horiz-adv-x="644" 
d="M281 0v274l-263 401h93l210 -324l212 324h94l-265 -397v-278h-81zM390 796l-26 -45l-176 90l37 66z" />
    <glyph glyph-name="ygrave" unicode="&#x1ef3;" horiz-adv-x="463" 
d="M192 12l-179 438h76l140 -349l145 349h76l-229 -546q-28 -67 -68.5 -98t-101.5 -31h-17v71h17q72 0 107 83zM273 546l-176 90l37 66l165 -110z" />
    <glyph glyph-name="figuredash" unicode="&#x2012;" 
d="M72 303v70h456v-70h-456z" />
    <glyph glyph-name="endash" unicode="&#x2013;" 
d="M67 191v68h466v-68h-466z" />
    <glyph glyph-name="emdash" unicode="&#x2014;" horiz-adv-x="1000" 
d="M67 191v68h866v-68h-866z" />
    <glyph glyph-name="quoteleft" unicode="&#x2018;" horiz-adv-x="197" 
d="M42 606q0 82 85 139l24 -25l-13 -14q-3 -3 -20 -32q-12 -23 -11 -39q20 -2 33 -17.5t13 -36.5q0 -22 -15 -36.5t-38 -14.5q-26 0 -42 20.5t-16 55.5z" />
    <glyph glyph-name="quoteright" unicode="&#x2019;" horiz-adv-x="197" 
d="M155 658q0 -40 -23 -75q-32 -49 -63 -63l-24 25l13 14q10 12 20 31q14 23 12 40q-20 2 -33.5 17.5t-13.5 36.5q0 22 15.5 36.5t38.5 14.5q25 0 41.5 -21t16.5 -56z" />
    <glyph glyph-name="quotesinglbase" unicode="&#x201a;" horiz-adv-x="197" 
d="M155 19q0 -25 -9 -48.5t-20.5 -38.5t-25.5 -28t-21 -18t-10 -6l-24 25l13 14q8 10 20 32q14 23 12 39q-20 3 -33.5 18.5t-13.5 36.5t15.5 36t38.5 15q25 0 41.5 -21t16.5 -56z" />
    <glyph glyph-name="quotereversed" unicode="&#x201b;" horiz-adv-x="197" 
d="M42 663q0 33 16 52.5t42 19.5q23 0 38 -14.5t15 -36.5q0 -21 -13 -36.5t-33 -17.5q-1 -30 33 -62l11 -10l-24 -25l-1 1q-15 9 -45 36q-39 39 -39 93z" />
    <glyph glyph-name="quotedblleft" unicode="&#x201c;" horiz-adv-x="342" 
d="M187 606q0 82 85 139l24 -25l-13 -14q-3 -3 -20 -32q-12 -23 -11 -39q20 -2 33 -17.5t13 -36.5q0 -22 -15 -36.5t-38 -14.5q-26 0 -42 20.5t-16 55.5zM42 606q0 82 85 139l24 -25l-13 -14q-3 -3 -20 -32q-12 -23 -11 -39q20 -2 33 -17.5t13 -36.5q0 -22 -15 -36.5
t-38 -14.5q-26 0 -42 20.5t-16 55.5z" />
    <glyph glyph-name="quotedblright" unicode="&#x201d;" horiz-adv-x="342" 
d="M155 658q0 -40 -23 -75q-32 -49 -63 -63l-24 25l13 14q10 12 20 31q14 23 12 40q-20 2 -33.5 17.5t-13.5 36.5q0 22 15.5 36.5t38.5 14.5q25 0 41.5 -21t16.5 -56zM300 658q0 -40 -23 -75q-32 -49 -63 -63l-24 25l13 14q10 12 20 31q14 23 12 40q-20 2 -33.5 17.5
t-13.5 36.5q0 22 15.5 36.5t38.5 14.5q25 0 41.5 -21t16.5 -56z" />
    <glyph glyph-name="quotedblbase" unicode="&#x201e;" horiz-adv-x="342" 
d="M155 19q0 -25 -9 -48.5t-20.5 -38.5t-25.5 -28t-21 -18t-10 -6l-24 25l13 14q8 10 20 32q14 23 12 39q-20 3 -33.5 18.5t-13.5 36.5t15.5 36t38.5 15q25 0 41.5 -21t16.5 -56zM300 19q0 -25 -9 -48.5t-20.5 -38.5t-25.5 -28t-21 -18t-10 -6l-24 25l13 14q8 10 20 32
q13 23 12 39q-20 3 -33.5 18.5t-13.5 36.5t15.5 36t38.5 15q25 0 41.5 -21t16.5 -56z" />
    <glyph glyph-name="uni201F" unicode="&#x201f;" horiz-adv-x="342" 
d="M187 663q0 33 16 52.5t42 19.5q23 0 38 -14.5t15 -36.5q0 -21 -13 -36.5t-33 -17.5q-1 -29 32 -62l12 -10l-24 -25l-1 1q-15 9 -45 36q-39 39 -39 93zM42 663q0 33 16 52.5t42 19.5q23 0 38 -14.5t15 -36.5q0 -21 -13 -36.5t-33 -17.5q-1 -30 33 -62l11 -10l-24 -25l-1 1
q-15 9 -45 36q-39 39 -39 93z" />
    <glyph glyph-name="dagger" unicode="&#x2020;" horiz-adv-x="468" 
d="M25 419v60h176v196h65v-196h176v-60h-176v-519h-65v519h-176z" />
    <glyph glyph-name="daggerdbl" unicode="&#x2021;" horiz-adv-x="468" 
d="M203 97h-178v58h178v264h-178v59h178v197h62v-197h177v-59h-177v-264h177v-58h-177v-197h-62v197z" />
    <glyph glyph-name="bullet" unicode="&#x2022;" horiz-adv-x="298" 
d="M72 148q-30 32 -30 77q0 46 30 76q31 31 77 31t76 -31q31 -30 31 -76t-31 -77q-30 -30 -76 -30q-45 0 -77 30z" />
    <glyph glyph-name="ellipsis" unicode="&#x2026;" horiz-adv-x="575" 
d="M96 -10q-23 0 -38.5 15t-15.5 38t15.5 38.5t38.5 15.5t38 -15.5t15 -38.5t-15.5 -38t-37.5 -15zM249 5q-15 15 -15 38t15 38q15 16 38 16t38 -16q16 -15 16 -38t-16 -38q-15 -15 -38 -15t-38 15zM440 5q-15 15 -15 38t15 38q16 16 39 16t38 -16q15 -15 15 -38t-15 -38
t-38 -15t-39 15z" />
    <glyph glyph-name="perthousand" unicode="&#x2030;" horiz-adv-x="1204" 
d="M165 0l-45 37l534 638l45 -38zM204 685q72 0 119 -48q48 -47 48 -118t-48 -119q-47 -48 -119 -48q-71 0 -119 48t-48 119t48 118q48 48 119 48zM204 615q-41 0 -68.5 -27.5t-27.5 -68.5t27.5 -69t68.5 -28t68.5 28t27.5 69t-28 68.5t-68 27.5zM494 37q-48 48 -48 119
t48 119t119 48t119 -48t48 -119t-48 -119q-49 -47 -119 -47t-119 47zM709 156q0 41 -27.5 69t-68.5 28t-69 -28t-28 -69t28 -68.5t69 -27.5t68.5 28t27.5 68zM1000 323q72 0 119 -48q48 -48 48 -119t-48 -119q-47 -47 -119 -47q-70 0 -119 47q-47 49 -47 119t47 119
q48 48 119 48zM904 156q0 -40 28 -68t68 -28t69 27q28 28 28 69t-28 69t-69 28t-68.5 -28t-27.5 -69z" />
    <glyph glyph-name="guilsinglleft" unicode="&#x2039;" horiz-adv-x="299" 
d="M204 53l-172 172l172 172l46 -46l-127 -126l127 -126z" />
    <glyph glyph-name="guilsinglright" unicode="&#x203a;" horiz-adv-x="299" 
d="M95 397l172 -172l-172 -172l-46 46l126 126l-126 126z" />
    <glyph glyph-name="fraction" unicode="&#x2044;" horiz-adv-x="546" 
d="M72 0h-72l474 675h72z" />
    <glyph glyph-name="Euro" unicode="&#x20ac;" horiz-adv-x="821" 
d="M125 388h-98v59h111q33 107 122 172q90 66 209 66q98 0 179 -46t125 -127l-78 -30q-36 58 -95.5 91.5t-130.5 33.5q-83 0 -148 -43.5t-95 -116.5h274v-59h-291q-4 -19 -4 -50q0 -32 4 -51h291v-59h-274q30 -73 96 -116.5t147 -43.5q72 0 131 33.5t95 91.5l78 -29
q-44 -81 -124.5 -127.5t-179.5 -46.5q-117 0 -208 65q-90 66 -123 173h-111v59h98q-3 25 -3 51t3 50z" />
    <glyph glyph-name="uni20B4" unicode="&#x20b4;" horiz-adv-x="615" 
d="M95 241h-54v59h115q30 21 148 75h-263v59h370q55 34 55 75t-43 69q-43 29 -103 29q-57 0 -99.5 -27t-50.5 -69l-81 24q17 65 80 107q64 43 153 43q96 0 160 -49t64 -119q0 -45 -36 -83h65v-59h-137q-22 -13 -82 -41q-61 -28 -72 -34h291v-59h-386q-39 -31 -39 -68
q0 -42 47 -74q47 -31 116 -31q68 0 115 31q49 32 56 76l80 -24q-18 -69 -86 -116q-68 -45 -165 -45q-103 0 -174 51q-70 52 -70 127q0 38 26 73z" />
    <glyph glyph-name="uni2113" unicode="&#x2113;" horiz-adv-x="466" 
d="M124 216l-80 -37v77q36 14 80 39v265q0 76 39 125q41 50 102 50q63 0 103 -49q41 -50 41 -124q0 -167 -211 -303v-121q0 -32 18.5 -53.5t47.5 -21.5q24 0 48.5 16.5t37.5 36.5l12 17l46 -46q-6 -10 -28 -34q-58 -63 -123 -63q-56 0 -95 44q-38 44 -38 108v74zM198 564
v-221q138 103 138 216q0 44 -19.5 73t-50.5 29q-30 0 -49 -27.5t-19 -69.5z" />
    <glyph glyph-name="uni2116" unicode="&#x2116;" horiz-adv-x="1088" 
d="M156 535v-535h-78v675h71l426 -535v535h78v-675h-71zM884 685q68 0 112 -45q45 -44 45 -112q0 -67 -45 -112q-46 -44 -112 -44t-112 44q-45 45 -45 112t45 112t112 45zM822 590q-25 -25 -25 -62t25 -62q25 -24 62 -24t62 24q25 25 25 62t-25 62t-62 25t-62 -25zM1034 228
h-301v70h301v-70z" />
    <glyph glyph-name="uni2117" unicode="&#x2117;" horiz-adv-x="790" 
d="M50 338q0 142 101 243t244 101q142 0 243 -101t101 -243q0 -143 -101 -244t-243 -101q-143 0 -244 101t-101 244zM395 647q-128 0 -219 -91q-90 -90 -90 -218t90 -219q91 -91 219 -91t218 91q91 91 91 219t-91 218q-91 91 -218 91zM340 160h-54v356h157q52 0 86.5 -32.5
t34.5 -81.5q0 -48 -34.5 -80.5t-86.5 -32.5h-103v-129zM443 467h-103v-128h103q28 0 46.5 18t18.5 45q0 28 -18.5 46.5t-46.5 18.5z" />
    <glyph glyph-name="trademark" unicode="&#x2122;" horiz-adv-x="752" 
d="M404 338h-48v337h48l133 -233l133 233h47v-337h-47v250l-118 -210h-31l-117 208v-248zM135 338v292h-123v45h294v-45h-123v-292h-48z" />
    <glyph glyph-name="estimated" unicode="&#x212e;" horiz-adv-x="791" 
d="M740 338h-535v-240q84 -66 190 -66q86 0 158.5 44t113.5 120h42q-40 -91 -127 -148q-85 -55 -187 -55q-143 0 -243 100q-101 101 -101 245q0 143 100 243q101 101 244 101t244 -101t101 -243zM205 577v-201h381v201q-86 66 -191 66q-106 0 -190 -66z" />
    <glyph glyph-name="uni2150" unicode="&#x2150;" horiz-adv-x="779" 
d="M119 304v308l-75 -38l-19 44l109 57h37v-371h-52zM631 675l-474 -675h-68l474 675h68zM567 0l136 324h-196v48h250v-51l-133 -321h-57z" />
    <glyph glyph-name="uni2151" unicode="&#x2151;" horiz-adv-x="788" 
d="M626 179q25 -2 45.5 11.5t29 33t5 42.5t-21.5 38q-26 20 -58 20.5t-58.5 -20.5t-23.5 -51q0 -32 23.5 -53t58.5 -21zM492 63l45 22q25 -39 80 -39q40 0 66 22.5t26 56.5v53q-12 -22 -36 -35.5t-51 -13.5q-54 0 -94 35q-38 36 -38 89q0 52 39 87t97 35t96.5 -34.5
t38.5 -85.5v-129q0 -55 -41 -93q-40 -37 -102 -37q-88 0 -126 67zM119 304v308l-75 -38l-19 44l109 57h37v-371h-52zM631 675l-474 -675h-68l474 675h68z" />
    <glyph glyph-name="uni2152" unicode="&#x2152;" horiz-adv-x="1056" 
d="M797 244v-117q0 -35 25.5 -58t63.5 -23t63.5 23.5t25.5 57.5v117q0 34 -25.5 57.5t-63.5 23.5t-63.5 -23t-25.5 -58zM604 0v308l-75 -38l-19 44l109 58h37v-372h-52zM745 128v116q0 56 40 93q41 38 101 38q59 0 100 -38t41 -93v-116q0 -56 -41 -94t-100 -38
q-60 0 -101 38q-40 37 -40 94zM119 304v308l-75 -38l-19 44l109 57h37v-371h-52zM631 675l-474 -675h-68l474 675h68z" />
    <glyph glyph-name="onethird" unicode="&#x2153;" horiz-adv-x="786" 
d="M119 304v308l-75 -38l-19 44l109 57h37v-371h-52zM631 675l-474 -675h-68l474 675h68zM622 325q-58 0 -77 -42l-46 18q15 34 48.5 54t77.5 20q54 0 90 -30t36 -76q0 -53 -55 -77q64 -25 64 -85q0 -48 -38.5 -79.5t-96.5 -31.5q-47 0 -81.5 20.5t-48.5 56.5l49 18
q16 -45 79 -45q36 0 59.5 18t23.5 44t-23 43.5t-57 17.5h-28v41h20q34 0 56.5 16.5t22.5 41.5t-21.5 41t-53.5 16z" />
    <glyph glyph-name="twothirds" unicode="&#x2154;" horiz-adv-x="864" 
d="M223 565q0 26 -22 45t-52 19q-56 0 -81 -61l-48 24q17 40 52 63.5t77 23.5q53 0 91 -33q37 -33 37 -79q0 -53 -78 -125l-93 -89h176v-49h-256v37l139 134q58 55 58 90zM234 0h-68l475 675h68zM700 325q-58 0 -77 -42l-46 18q15 34 48.5 54t77.5 20q54 0 90 -30t36 -76
q0 -51 -56 -77q65 -26 65 -85q0 -48 -38.5 -79.5t-96.5 -31.5q-47 0 -81.5 20.5t-48.5 56.5l48 18q18 -45 80 -45q36 0 59.5 18t23.5 44t-23 43.5t-57 17.5h-28v41h19q34 0 57 16.5t23 41.5t-21.5 41t-53.5 16z" />
    <glyph glyph-name="uni2155" unicode="&#x2155;" horiz-adv-x="792" 
d="M119 304v308l-75 -38l-19 44l109 57h37v-371h-52zM631 675l-474 -675h-68l474 675h68zM766 119q0 -52 -40 -88q-40 -35 -98 -35q-47 0 -83 23t-51 62l52 15q23 -50 81 -50q36 0 60.5 21t24.5 51q0 32 -26 53t-64 21h-101l19 180h196v-48h-153l-9 -84h59q57 0 95 -35
t38 -86z" />
    <glyph glyph-name="uni2156" unicode="&#x2156;" horiz-adv-x="870" 
d="M223 565q0 26 -22 45t-52 19q-56 0 -81 -61l-48 24q17 40 52 63.5t77 23.5q53 0 91 -33q37 -33 37 -79q0 -53 -78 -125l-93 -89h176v-49h-256v37l139 134q58 55 58 90zM234 0h-68l475 675h68zM844 119q0 -52 -40 -88q-40 -35 -98 -35q-47 0 -83 23t-51 62l52 15
q23 -50 81 -50q36 0 60.5 21t24.5 51q0 32 -26 53t-64 21h-101l19 180h196v-48h-153l-9 -84h59q56 0 94 -35q39 -35 39 -86z" />
    <glyph glyph-name="uni2157" unicode="&#x2157;" horiz-adv-x="881" 
d="M225 572q0 24 -21.5 40.5t-53.5 16.5q-58 0 -77 -42l-45 17q15 34 48.5 54.5t76.5 20.5q54 0 90 -30t36 -76q0 -55 -55 -77q64 -25 64 -86q0 -48 -39 -79q-38 -32 -96 -32q-45 0 -80.5 21.5t-49.5 55.5l49 18q8 -20 29.5 -32.5t49.5 -12.5q36 0 59.5 18t23.5 44t-23 44
t-57 18h-28v40h20q34 0 56.5 17t22.5 42zM246 0h-68l474 675h68zM855 119q0 -52 -40 -88q-40 -35 -98 -35q-47 0 -83 23t-51 62l52 15q23 -50 81 -50q36 0 61 21t25 51q0 32 -26 53t-65 21h-101l19 180h196v-48h-153l-9 -84h59q57 0 95 -35t38 -86z" />
    <glyph glyph-name="uni2158" unicode="&#x2158;" horiz-adv-x="908" 
d="M223 596l-139 -167h139v167zM223 304v75h-201v50l205 246h48v-246h53v-50h-53v-75h-52zM747 675l-474 -675h-69l475 675h68zM882 119q0 -52 -40 -88q-40 -35 -98 -35q-47 0 -83 23t-51 62l52 15q23 -50 81 -50q36 0 60.5 21t24.5 51q0 32 -26 53t-64 21h-101l19 180h196
v-48h-153l-9 -84h59q56 0 94 -35q39 -35 39 -86z" />
    <glyph glyph-name="uni2159" unicode="&#x2159;" horiz-adv-x="797" 
d="M556 117q0 -30 23.5 -50.5t58.5 -20.5t58.5 20.5t23.5 50.5q0 29 -23.5 49.5t-58.5 20.5t-58.5 -20.5t-23.5 -49.5zM766 308l-47 -23q-24 40 -77 40q-38 0 -63.5 -22.5t-25.5 -56.5v-53q29 44 90 44q55 0 93 -35q39 -34 39 -86t-40 -86q-38 -34 -97 -34t-97 34
q-39 35 -39 86v129q0 56 40 93t100 37q87 0 124 -67zM119 304v308l-75 -38l-19 44l109 57h37v-371h-52zM631 675l-474 -675h-68l474 675h68z" />
    <glyph glyph-name="uni215A" unicode="&#x215a;" horiz-adv-x="871" 
d="M713 187q-35 0 -59 -20.5t-24 -49.5q0 -30 24 -50.5t59 -20.5t58.5 20.5t23.5 50.5q0 29 -24 49.5t-58 20.5zM840 308l-46 -23q-25 40 -77 40q-38 0 -63.5 -22.5t-25.5 -56.5v-53q29 44 89 44q55 0 93 -35q39 -34 39 -86q0 -51 -39 -86q-38 -34 -97 -34q-58 0 -98 34
q-39 35 -39 86v129q0 56 40 93t101 37q86 0 123 -67zM156 299q-46 0 -82 23.5t-52 62.5l52 15q22 -51 81 -51q36 0 61 21t25 52t-26.5 52.5t-64.5 21.5h-101l19 179h196v-48h-153l-9 -83h59q57 0 95 -35t38 -87t-40 -88q-40 -35 -98 -35zM705 675l-474 -675h-68l474 675h68z
" />
    <glyph glyph-name="oneeighth" unicode="&#x215b;" horiz-adv-x="795" 
d="M634 217q30 0 50.5 15.5t20.5 38.5t-20.5 38.5t-50.5 15.5q-31 0 -51.5 -15.5t-20.5 -38.5t20.5 -38.5t51.5 -15.5zM634 46q35 0 58.5 17.5t23.5 44.5q0 26 -23.5 43t-58.5 17q-36 0 -59.5 -17t-23.5 -43t23.5 -44t59.5 -18zM508 276q0 42 36 70.5t90 28.5q53 0 89 -28.5
t36 -70.5q0 -53 -50 -82q61 -31 61 -91q0 -46 -39 -76.5t-97 -30.5q-59 0 -98 30.5t-39 76.5q0 60 61 91q-50 29 -50 82zM119 304v308l-75 -38l-19 44l109 57h37v-371h-52zM631 675l-474 -675h-68l474 675h68z" />
    <glyph glyph-name="threeeighths" unicode="&#x215c;" horiz-adv-x="888" 
d="M586 103q0 59 62 91q-51 28 -51 82q0 42 36 70.5t90 28.5q53 0 89 -28.5t36 -70.5q0 -53 -50 -82q61 -31 61 -91q0 -46 -39 -76.5t-97 -30.5q-59 0 -98 30.5t-39 76.5zM720 675l-474 -675h-68l474 675h68zM153 299q-45 0 -80.5 21.5t-49.5 55.5l49 18q8 -20 29.5 -32.5
t49.5 -12.5q36 0 59.5 18t23.5 44t-23 44t-57 18h-28v40h20q34 0 56.5 17t22.5 42q0 24 -21.5 40.5t-53.5 16.5q-58 0 -77 -42l-45 17q15 34 48.5 54.5t76.5 20.5q54 0 90 -30t36 -76q0 -55 -55 -77q64 -25 64 -86q0 -48 -39 -79q-38 -32 -96 -32zM723 168q-36 0 -59.5 -17
t-23.5 -43t23.5 -44t59.5 -18q35 0 58.5 17.5t23.5 44.5q0 26 -23.5 43t-58.5 17zM723 325q-31 0 -51.5 -15.5t-20.5 -38.5t20.5 -38.5t51.5 -15.5q30 0 50.5 15.5t20.5 38.5t-20.5 38.5t-50.5 15.5z" />
    <glyph glyph-name="fiveeighths" unicode="&#x215d;" horiz-adv-x="873" 
d="M708 46q35 0 58.5 17.5t23.5 44.5q0 26 -23.5 43t-58.5 17q-36 0 -59.5 -17t-23.5 -43t23.5 -44t59.5 -18zM656 309q-20 -15 -20 -38t20 -39q21 -15 52 -15t51 15q21 16 21 39t-21 38q-20 16 -51 16t-52 -16zM582 276q0 42 36 70.5t90 28.5q53 0 89.5 -28.5t36.5 -70.5
q0 -52 -51 -82q61 -31 61 -91q0 -46 -39 -76.5t-97 -30.5t-97 30.5t-39 76.5q0 61 61 91q-51 28 -51 82zM156 299q-46 0 -82 23.5t-52 62.5l52 15q22 -51 81 -51q36 0 61 21t25 52t-26.5 52.5t-64.5 21.5h-101l19 179h196v-48h-153l-9 -83h59q57 0 95 -35t38 -87t-40 -88
q-40 -35 -98 -35zM705 675l-474 -675h-68l474 675h68z" />
    <glyph glyph-name="seveneighths" unicode="&#x215e;" horiz-adv-x="825" 
d="M608 309q-20 -15 -20 -38t20 -39q21 -15 52 -15t51 15q21 16 21 39t-21 38q-20 16 -51 16t-52 -16zM660 46q35 0 58.5 17.5t23.5 44.5q0 26 -23.5 43t-58.5 17q-36 0 -59.5 -17t-23.5 -43t23.5 -44t59.5 -18zM534 276q0 42 36 70.5t90 28.5q53 0 89.5 -28.5t36.5 -70.5
q0 -52 -51 -82q61 -31 61 -91q0 -46 -39 -76.5t-97 -30.5t-97 30.5t-39 76.5q0 61 61 91q-51 28 -51 82zM71 304l136 323h-195v48h249v-51l-132 -320h-58zM657 675l-474 -675h-68l474 675h68z" />
    <glyph glyph-name="uni215F" unicode="&#x215f;" horiz-adv-x="631" 
d="M119 304v308l-75 -38l-19 44l109 57h37v-371h-52zM631 675l-474 -675h-68l474 675h68z" />
    <glyph glyph-name="arrowleft" unicode="&#x2190;" horiz-adv-x="655" 
d="M295 104l-234 234l234 233l44 -45l-151 -154h407v-68h-407l151 -155z" />
    <glyph glyph-name="arrowup" unicode="&#x2191;" horiz-adv-x="656" 
d="M94 371l234 234l233 -234l-44 -45l-155 151v-406h-68v406l-155 -151z" />
    <glyph glyph-name="arrowright" unicode="&#x2192;" horiz-adv-x="655" 
d="M361 571l234 -233l-234 -234l-45 45l151 155h-406v68h406l-151 154z" />
    <glyph glyph-name="arrowdown" unicode="&#x2193;" horiz-adv-x="656" 
d="M561 304l-233 -233l-234 233l45 45l155 -151v407h68v-407l155 151z" />
    <glyph glyph-name="uni2196" unicode="&#x2196;" horiz-adv-x="656" 
d="M139 196v330h330v-63l-216 -3l288 -287l-48 -48l-288 287l-2 -216h-64z" />
    <glyph glyph-name="uni2197" unicode="&#x2197;" horiz-adv-x="656" 
d="M210 526h331v-330h-64l-2 216l-288 -287l-48 48l288 287l-217 3v63z" />
    <glyph glyph-name="uni2198" unicode="&#x2198;" horiz-adv-x="656" 
d="M541 455v-330h-331v63l217 3l-288 287l48 48l288 -287l2 216h64z" />
    <glyph glyph-name="uni2199" unicode="&#x2199;" horiz-adv-x="656" 
d="M469 125h-330v330h64l2 -216l288 287l48 -48l-288 -287l216 -3v-63z" />
    <glyph glyph-name="emptyset" unicode="&#x2205;" horiz-adv-x="798" 
d="M399 685q97 0 174 -47l34 47h72l-57 -81q59 -50 92 -119t33 -147q0 -145 -102 -247q-103 -101 -246 -101q-95 0 -175 47l-33 -47h-72l57 81q-60 48 -92.5 117.5t-32.5 149.5q0 143 102 245t246 102zM214 124l322 460q-61 37 -137 37q-117 0 -200 -83t-83 -200
q0 -128 98 -214zM399 54q117 0 200 83t83 201q0 127 -98 213l-322 -460q64 -37 137 -37z" />
    <glyph glyph-name="product" unicode="&#x220f;" horiz-adv-x="646" 
d="M156 602v-777h-78v850h490v-850h-77v777h-335z" />
    <glyph glyph-name="summation" unicode="&#x2211;" horiz-adv-x="499" 
d="M469 -102v-73h-439v63l219 362l-219 362v63h439v-73h-348l213 -352l-213 -352h348z" />
    <glyph glyph-name="minus" unicode="&#x2212;" 
d="M72 303v70h456v-70h-456z" />
    <glyph glyph-name="integral" unicode="&#x222b;" horiz-adv-x="278" 
d="M10 -175v71h28q28 0 46 20t18 51v625q0 56 38 94q39 39 95 39h33v-71h-27q-28 0 -46.5 -20t-18.5 -51v-625q0 -56 -38 -94q-38 -39 -95 -39h-33z" />
    <glyph glyph-name="approxequal" unicode="&#x2248;" 
d="M385 367q-32 -1 -65.5 18t-61.5 37.5t-47 17.5q-28 0 -47 -19t-19 -48h-73q0 59 41 100t101 41q31 1 64.5 -18t62 -38t48.5 -18q28 0 46.5 19.5t18.5 48.5h74q0 -60 -42 -101q-40 -40 -101 -40zM385 163q-32 -1 -65.5 18t-61.5 38t-47 18q-28 0 -47 -19.5t-19 -48.5h-73
q0 59 41 100t101 41q31 1 64.5 -18t62 -38t48.5 -18q28 0 46.5 19.5t18.5 48.5h74q0 -60 -42 -101q-40 -40 -101 -40z" />
    <glyph glyph-name="notequal" unicode="&#x2260;" 
d="M372 413l-71 -151h227v-70h-259l-54 -115h-71l54 115h-126v70h158l71 151h-229v70h261l54 115h71l-54 -115h124v-70h-156z" />
    <glyph glyph-name="lessequal" unicode="&#x2264;" 
d="M528 178l-456 203v60l456 203v-76l-350 -157l350 -157v-76zM72 47v70h456v-70h-456z" />
    <glyph glyph-name="greaterequal" unicode="&#x2265;" 
d="M528 441v-60l-456 -203v76l350 157l-350 157v76zM72 117h456v-70h-456v70z" />
    <glyph glyph-name="uni23F4" unicode="&#x23f4;" horiz-adv-x="371" 
d="M291 121l-246 217l246 217v-434z" />
    <glyph glyph-name="uni23F5" unicode="&#x23f5;" horiz-adv-x="371" 
d="M80 555l246 -217l-246 -217v434z" />
    <glyph glyph-name="uni23F6" unicode="&#x23f6;" horiz-adv-x="454" 
d="M10 215l217 246l217 -246h-434z" />
    <glyph glyph-name="uni23F7" unicode="&#x23f7;" horiz-adv-x="454" 
d="M444 461l-217 -246l-217 246h434z" />
    <glyph glyph-name="filledbox" unicode="&#x25a0;" horiz-adv-x="831" 
d="M753 0h-675v675h675v-675z" />
    <glyph glyph-name="H22073" unicode="&#x25a1;" horiz-adv-x="831" 
d="M753 0h-675v675h675v-675zM688 65v545h-545v-545h545z" />
    <glyph glyph-name="uni25A2" unicode="&#x25a2;" horiz-adv-x="831" 
d="M753 0h-675v675h675v-675zM688 65v545h-545v-545h545z" />
    <glyph glyph-name="triagup" unicode="&#x25b2;" horiz-adv-x="863" 
d="M30 0l402 695l401 -695h-803z" />
    <glyph glyph-name="uni25B3" unicode="&#x25b3;" horiz-adv-x="863" 
d="M432 695l401 -695h-803zM142 65h579l-289 501z" />
    <glyph glyph-name="triagdn" unicode="&#x25bc;" horiz-adv-x="863" 
d="M833 675l-401 -695l-402 695h803z" />
    <glyph glyph-name="uni25BD" unicode="&#x25bd;" horiz-adv-x="863" 
d="M30 675h803l-401 -695zM432 109l289 501h-579z" />
    <glyph glyph-name="uni25C6" unicode="&#x25c6;" horiz-adv-x="775" 
d="M388 -20l-358 358l358 357l357 -357z" />
    <glyph glyph-name="uni25C7" unicode="&#x25c7;" horiz-adv-x="775" 
d="M388 -20l-358 358l358 357l357 -357zM388 71l266 267l-266 266l-267 -266z" />
    <glyph glyph-name="lozenge" unicode="&#x25ca;" horiz-adv-x="592" 
d="M30 338l195 337h48l195 -337l-195 -338h-48zM249 89l144 249l-144 248l-144 -248z" />
    <glyph glyph-name="circle" unicode="&#x25cb;" horiz-adv-x="798" 
d="M51 338q0 143 102 245t246 102t246 -102t102 -245q0 -145 -102 -247q-103 -101 -246 -101t-246 101q-102 102 -102 247zM116 338q0 -118 83 -201t200 -83t200 83t83 201q0 117 -83 200t-200 83t-200 -83t-83 -200z" />
    <glyph glyph-name="H18533" unicode="&#x25cf;" horiz-adv-x="798" 
d="M51 338q0 143 102 245t246 102t246 -102t102 -245q0 -145 -102 -247q-103 -101 -246 -101t-246 101q-102 102 -102 247z" />
    <glyph glyph-name="uni25D0" unicode="&#x25d0;" horiz-adv-x="798" 
d="M51 338q0 143 102 245t246 102t246 -102t102 -245q0 -145 -102 -247q-103 -101 -246 -101t-246 101q-102 102 -102 247zM399 621v-567q117 0 200 83t83 201q0 117 -83 200t-200 83z" />
    <glyph glyph-name="uni25D1" unicode="&#x25d1;" horiz-adv-x="798" 
d="M747 338q0 -145 -102 -247q-103 -101 -246 -101t-246 101q-102 102 -102 247q0 143 102 245t246 102t246 -102t102 -245zM399 54v567q-117 0 -200 -83t-83 -200q0 -118 83 -201t200 -83z" />
    <glyph glyph-name="uni25D2" unicode="&#x25d2;" horiz-adv-x="798" 
d="M51 338q0 143 102 245t246 102t246 -102t102 -245q0 -145 -102 -247q-103 -101 -246 -101t-246 101q-102 102 -102 247zM116 338h566q0 117 -83 200t-200 83t-200 -83t-83 -200z" />
    <glyph glyph-name="uni25D3" unicode="&#x25d3;" horiz-adv-x="798" 
d="M153 583q102 102 246 102t246 -102q102 -101 102 -245t-102 -246t-246 -102t-246 102t-102 246t102 245zM682 338h-566q0 -118 83 -201t200 -83t200 83t83 201z" />
    <glyph glyph-name="uni25D4" unicode="&#x25d4;" horiz-adv-x="798" 
d="M51 338q0 143 102 245t246 102t246 -102t102 -245q0 -145 -102 -247q-103 -101 -246 -101t-246 101q-102 102 -102 247zM682 338h-283v283q-117 0 -200 -83t-83 -200q0 -118 83 -201t200 -83t200 83t83 201z" />
    <glyph glyph-name="uni25D5" unicode="&#x25d5;" horiz-adv-x="798" 
d="M51 338q0 143 102 245t246 102t246 -102t102 -245q0 -145 -102 -247q-103 -101 -246 -101t-246 101q-102 102 -102 247zM116 338h283v283q-117 0 -200 -83t-83 -200z" />
    <glyph glyph-name="uni25D6" unicode="&#x25d6;" horiz-adv-x="477" 
d="M51 338q0 143 102 245t246 102v-695q-143 0 -246 101q-102 102 -102 247z" />
    <glyph glyph-name="uni25D7" unicode="&#x25d7;" horiz-adv-x="477" 
d="M426 338q0 -145 -102 -247q-103 -101 -246 -101v695q144 0 246 -102t102 -245z" />
    <glyph glyph-name="uni25EF" unicode="&#x25ef;" horiz-adv-x="798" 
d="M51 338q0 143 102 245t246 102t246 -102t102 -245q0 -145 -102 -247q-103 -101 -246 -101t-246 101q-102 102 -102 247zM116 338q0 -118 83 -201t200 -83t200 83t83 201q0 117 -83 200t-200 83t-200 -83t-83 -200z" />
    <glyph glyph-name="uni2639" unicode="&#x2639;" horiz-adv-x="765" 
d="M197 453q0 26 18 44t44 18q27 0 45 -18t18 -44q0 -27 -18 -45t-45 -18q-26 0 -44 18t-18 45zM445 453q0 26 18 44t44 18q27 0 45 -18t18 -44q0 -27 -18 -45t-45 -18q-26 0 -44 18t-18 45zM220 143h-40q0 79 58 131q59 53 145 53q85 0 144 -53t59 -131h-40q0 61 -47 102
t-116 41t-116 -41t-47 -102zM140 95q-100 100 -100 243q0 142 100 242t243 100q142 0 242 -100t100 -242q0 -143 -100 -243t-242 -100q-143 0 -243 100zM167 553q-89 -89 -89 -215q0 -125 89 -216q91 -89 216 -89q126 0 215 89q89 91 89 216q0 126 -89 215t-215 89
q-125 0 -216 -89z" />
    <glyph glyph-name="smileface" unicode="&#x263a;" horiz-adv-x="765" 
d="M197 453q0 26 18 44t44 18q27 0 45 -18t18 -44q0 -27 -18 -45t-45 -18q-26 0 -44 18t-18 45zM445 453q0 26 18 44t44 18q27 0 45 -18t18 -44q0 -27 -18 -45t-45 -18q-26 0 -44 18t-18 45zM180 297h40q0 -61 47 -102t116 -41t116 41t47 102h40q0 -79 -59 -132
q-58 -52 -144 -52q-87 0 -145 52t-58 132zM140 95q-100 100 -100 243q0 142 100 242t243 100q142 0 242 -100t100 -242q0 -143 -100 -243t-242 -100q-143 0 -243 100zM167 553q-89 -89 -89 -215q0 -125 89 -216q91 -89 216 -89q126 0 215 89q89 91 89 216q0 126 -89 215
t-215 89q-125 0 -216 -89z" />
    <glyph glyph-name="invsmileface" unicode="&#x263b;" horiz-adv-x="765" 
d="M197 453q0 -27 18 -45t44 -18q27 0 45 18t18 45q0 26 -18 44t-45 18q-26 0 -44 -18t-18 -44zM445 453q0 -27 18 -45t44 -18q27 0 45 18t18 45q0 26 -18 44t-45 18q-26 0 -44 -18t-18 -44zM220 297h-40q0 -80 58 -132t145 -52q86 0 144 52q59 53 59 132h-40
q0 -61 -47 -102t-116 -41t-116 41t-47 102zM140 95q-100 100 -100 243q0 142 100 242t243 100q142 0 242 -100t100 -242q0 -143 -100 -243t-242 -100q-143 0 -243 100z" />
    <glyph glyph-name="commaaccent" horiz-adv-x="213" 
d="M155 -116q0 -32 -19 -58q-11 -16 -24 -28.5t-20.5 -17t-10.5 -4.5l-20 21q6 4 11 9q28 25 27 48q-17 2 -28.5 15t-11.5 31t13.5 31t32.5 13q22 0 36 -16.5t14 -43.5z" />
    <glyph glyph-name="zero.fitted" 
d="M50 228v219q0 101 72 169q72 69 179 69t177 -69q72 -68 72 -169v-219q0 -102 -71 -170t-178 -68q-106 0 -179 68q-72 68 -72 170zM301 610q-74 0 -124 -47q-49 -46 -49 -115v-221q0 -70 49 -116t124 -46q73 0 122 46q50 47 50 116v221q0 68 -50 115t-122 47z" />
    <glyph glyph-name="one.fitted" 
d="M299 575l-156 -84l-34 69l214 115h54v-603h171v-72h-418v72h169v503z" />
    <glyph glyph-name="two.fitted" 
d="M438 482q0 53 -43 90q-44 38 -104 38q-52 0 -94 -31t-63 -84l-72 34q30 72 91 114t138 42q94 0 161 -59q67 -58 67 -142q0 -54 -33 -105.5t-108 -123.5l-187 -180h337v-75h-460v57l258 249q61 61 86.5 98.5t25.5 77.5z" />
    <glyph glyph-name="three.fitted" 
d="M436 497q0 49 -43 80q-42 33 -106 33q-51 0 -91 -22t-58 -59l-70 35q27 56 85.5 88.5t133.5 32.5q99 0 164 -54q66 -53 66 -132q0 -48 -26.5 -87.5t-74.5 -63.5q54 -23 85.5 -66.5t31.5 -96.5q0 -84 -70 -139q-70 -56 -173 -56q-81 0 -143.5 35.5t-87.5 95.5l75 28
q16 -38 58 -61t98 -23q69 0 116 35q46 34 46 88q0 51 -46 85q-46 35 -112 35h-51v73h37q68 0 111 33q45 33 45 83z" />
    <glyph glyph-name="four.fitted" 
d="M403 0v141h-366v75l371 459h73v-459h96v-75h-96v-141h-78zM403 553l-271 -337h271v337z" />
    <glyph glyph-name="five.fitted" 
d="M291 -10q-81 0 -144 39t-92 108l77 22q21 -43 63.5 -68.5t95.5 -25.5q71 0 120 42t49 103q0 64 -51 106q-50 43 -126 43h-179l32 316h351v-72h-285l-18 -172h102q108 0 182 -63q73 -63 73 -157q0 -93 -72 -158q-72 -63 -178 -63z" />
    <glyph glyph-name="six.fitted" 
d="M534 568l-72 -36q-22 36 -61.5 57t-87.5 21q-74 0 -124 -47t-50 -115v-91q61 72 168 72q104 0 174 -64q70 -63 70 -157q0 -92 -71 -155q-70 -63 -173 -63q-105 0 -176 63q-70 63 -70 157v237q0 101 72 169q74 69 182 69q71 0 128.5 -31.5t90.5 -85.5zM307 354
q-70 0 -118 -42q-47 -41 -47 -102q0 -62 47 -104q49 -41 118 -41t116 41q47 42 47 102q0 62 -47 104t-116 42z" />
    <glyph glyph-name="seven.fitted" 
d="M72 675h444v-76l-242 -599h-84l244 603h-362v72z" />
    <glyph glyph-name="eight.fitted" 
d="M301 -10q-105 0 -175 55q-69 55 -69 139q0 55 31.5 99t87.5 69q-48 24 -74.5 64.5t-26.5 88.5q0 77 64 128q64 52 162 52q96 0 160 -52q65 -53 65 -128q0 -48 -27 -88.5t-74 -64.5q55 -25 87 -70t32 -99q0 -83 -70 -138q-68 -55 -173 -55zM184 278q-47 -35 -47 -88
t47 -89q46 -36 117 -36q69 0 116 36q46 36 46 89q0 54 -46 88q-47 36 -116 36q-71 0 -117 -36zM156 499q0 -48 41 -80q43 -32 104 -32q62 0 103 32t41 80q0 47 -42 79q-41 32 -102 32t-104 -32q-41 -32 -41 -79z" />
    <glyph glyph-name="nine.fitted" 
d="M56 112l72 36q22 -39 63.5 -61t92.5 -22q77 0 127 46q52 46 52 115v88q-60 -80 -166 -80q-102 0 -173 65q-70 64 -70 161q0 96 70 160q71 65 173 65q105 0 173 -64q70 -63 70 -157v-237q0 -101 -74 -169t-183 -68q-74 0 -134 32.5t-93 89.5zM135 461q0 -66 46 -109
t116 -43q69 0 115 43q47 44 47 107t-47 107t-115 44q-70 0 -116 -43t-46 -106z" />
    <glyph glyph-name="zero.sup" horiz-adv-x="340" 
d="M29 481v116q0 57 40 94q41 38 101 38q59 0 100 -38t41 -94v-116q0 -56 -41 -94t-100 -38q-60 0 -101 38q-40 37 -40 94zM81 598v-117q0 -35 26 -58.5t63 -23.5t63 23.5t26 58.5v117q0 34 -25.5 57.5t-63.5 23.5t-63.5 -23.5t-25.5 -57.5z" />
    <glyph glyph-name="one.sup" horiz-adv-x="231" 
d="M119 662l-75 -38l-19 44l109 57h37v-371h-52v308z" />
    <glyph glyph-name="two.sup" horiz-adv-x="308" 
d="M223 615q0 26 -22 45t-52 19q-56 0 -81 -61l-48 24q17 40 52 63.5t77 23.5q53 0 91 -33q37 -33 37 -79q0 -53 -78 -125l-93 -89h176v-49h-256v37l139 134q58 55 58 90z" />
    <glyph glyph-name="three.sup" horiz-adv-x="314" 
d="M225 622q0 24 -21.5 40.5t-53.5 16.5q-58 0 -77 -42l-45 17q15 34 48.5 54.5t76.5 20.5q54 0 90 -30t36 -76q0 -55 -55 -77q64 -25 64 -86q0 -48 -39 -79q-38 -32 -96 -32q-45 0 -80.5 21.5t-49.5 55.5l49 18q8 -20 29.5 -32.5t49.5 -12.5q36 0 59.5 18t23.5 44t-23 44
t-57 18h-28v40h20q34 0 56.5 17t22.5 42z" />
    <glyph glyph-name="four.sup" horiz-adv-x="346" 
d="M223 354v75h-201v50l205 246h48v-246h53v-50h-53v-75h-52zM223 646l-138 -167h138v167z" />
    <glyph glyph-name="five.sup" horiz-adv-x="320" 
d="M156 349q-46 0 -82 23.5t-52 62.5l52 15q22 -51 81 -51q36 0 61 21t25 52t-26.5 52.5t-64.5 21.5h-101l19 179h196v-48h-153l-9 -83h59q57 0 95 -35t38 -87t-40 -88q-40 -35 -98 -35z" />
    <glyph glyph-name="six.sup" horiz-adv-x="325" 
d="M294 662l-47 -23q-24 40 -77 40q-37 0 -62.5 -23t-25.5 -56v-53q29 44 89 44q55 0 93 -35q39 -34 39 -86t-39 -86q-40 -35 -97 -35t-98 35q-39 34 -39 86v129q0 56 40 93t100 37q87 0 124 -67zM167 541q-36 0 -59.5 -20.5t-23.5 -50.5t23.5 -50.5t59.5 -20.5
q35 0 58.5 20.5t23.5 50.5t-23.5 50.5t-58.5 20.5z" />
    <glyph glyph-name="seven.sup" horiz-adv-x="284" 
d="M71 354l136 323h-195v48h249v-51l-132 -320h-58z" />
    <glyph glyph-name="eight.sup" horiz-adv-x="323" 
d="M26 457q0 59 61 90q-51 29 -51 82q0 43 36 71.5t90 28.5q53 0 89 -28.5t36 -71.5q0 -53 -50 -82q61 -31 61 -91q0 -46 -39 -76.5t-97 -30.5t-97 31t-39 77zM162 399q35 0 58.5 18t23.5 44t-23.5 43.5t-58.5 17.5q-36 0 -59.5 -17.5t-23.5 -43.5t23.5 -44t59.5 -18z
M90 625q0 -24 20.5 -39.5t51.5 -15.5t51 15.5t20 39.5q0 23 -20 38.5t-51 15.5t-51.5 -15.5t-20.5 -38.5z" />
    <glyph glyph-name="nine.sup" horiz-adv-x="323" 
d="M27 416l45 23q25 -40 80 -40q40 0 66 23t26 57v52q-26 -48 -87 -48q-54 0 -94 35q-38 36 -38 89q0 52 39 87t97 35t96.5 -34.5t38.5 -85.5v-129q0 -56 -41 -94q-40 -37 -102 -37q-41 0 -74.5 18t-51.5 49zM161 679q-35 0 -58.5 -21t-23.5 -52t23.5 -52t58.5 -21t58 21
t23 52t-23.5 52t-57.5 21z" />
    <glyph glyph-name="zero.sub" horiz-adv-x="340" 
d="M29 28v116q0 56 40 93q41 38 101 38q59 0 100 -38t41 -93v-116q0 -56 -41 -94t-100 -38q-60 0 -101 38q-40 37 -40 94zM81 144v-117q0 -34 25.5 -57.5t63.5 -23.5t63.5 23.5t25.5 57.5v117q0 34 -25.5 57.5t-63.5 23.5t-63.5 -23.5t-25.5 -57.5z" />
    <glyph glyph-name="one.sub" horiz-adv-x="231" 
d="M119 209l-75 -39l-19 44l109 58h37v-372h-52v309z" />
    <glyph glyph-name="two.sub" horiz-adv-x="308" 
d="M223 162q0 26 -22 44.5t-52 18.5q-57 0 -81 -60l-48 23q17 40 52 63.5t77 23.5q53 0 91 -33q37 -31 37 -78q0 -52 -78 -126l-93 -88h176v-50h-256v38l139 133q58 58 58 91z" />
    <glyph glyph-name="three.sub" horiz-adv-x="314" 
d="M150 225q-58 0 -77 -42l-45 18q15 34 48.5 54t76.5 20q54 0 90 -30t36 -76q0 -53 -55 -77q64 -25 64 -85q0 -48 -38.5 -79.5t-96.5 -31.5q-47 0 -81.5 20.5t-48.5 56.5l49 17q18 -44 79 -44q36 0 59.5 18t23.5 44t-23 43.5t-57 17.5h-28v41h20q34 0 56.5 16.5t22.5 41.5
t-21.5 41t-53.5 16z" />
    <glyph glyph-name="four.sub" horiz-adv-x="346" 
d="M223 -100v75h-201v50l205 247h48v-247h53v-50h-53v-75h-52zM223 193l-139 -168h139v168z" />
    <glyph glyph-name="five.sub" horiz-adv-x="320" 
d="M294 19q0 -53 -40 -87q-39 -36 -98 -36q-47 0 -82.5 23t-51.5 62l52 15q23 -50 81 -50q36 0 61 20.5t25 51.5q0 32 -26 53t-65 21h-101l19 180h196v-48h-153l-9 -84h59q57 0 95 -35t38 -86z" />
    <glyph glyph-name="six.sub" horiz-adv-x="325" 
d="M294 208l-47 -23q-24 40 -77 40q-38 0 -63 -22.5t-25 -56.5v-53q29 44 89 44q55 0 93 -35q39 -35 39 -86q0 -50 -39 -85q-40 -35 -97 -35t-98 35q-39 35 -39 85v129q0 56 40 93t100 37q87 0 124 -67zM167 87q-36 0 -59.5 -20t-23.5 -50t23.5 -50.5t59.5 -20.5
q35 0 58.5 20.5t23.5 50.5q0 29 -24 49.5t-58 20.5z" />
    <glyph glyph-name="seven.sub" horiz-adv-x="284" 
d="M71 -100l136 324h-195v48h249v-51l-132 -321h-58z" />
    <glyph glyph-name="eight.sub" horiz-adv-x="323" 
d="M26 3q0 60 61 91q-51 30 -51 82q0 42 36 70.5t90 28.5q53 0 89 -28.5t36 -70.5q0 -53 -50 -82q61 -31 61 -91q0 -46 -39 -76.5t-97 -30.5t-97 30.5t-39 76.5zM79 8q0 -27 23.5 -44.5t59.5 -17.5q35 0 58.5 17.5t23.5 44.5q0 26 -23.5 43t-58.5 17q-36 0 -59.5 -17
t-23.5 -43zM110 209q-20 -15 -20 -38t20 -39q21 -15 52 -15t51 15q20 16 20 39t-20 38q-20 16 -51 16t-52 -16z" />
    <glyph glyph-name="nine.sub" horiz-adv-x="323" 
d="M27 -37l45 22q26 -39 80 -39q40 0 66 22.5t26 56.5v53q-12 -22 -36 -35.5t-51 -13.5q-54 0 -94 35q-38 36 -38 89q0 52 39 87t97 35t96.5 -34.5t38.5 -85.5v-129q0 -54 -41 -92t-102 -38q-88 0 -126 67zM161 79q25 -2 45.5 11.5t29 33t5 42.5t-21.5 38q-26 20 -58 20.5
t-58.5 -20.5t-23.5 -51q0 -32 23.5 -53t58.5 -21z" />
    <glyph glyph-name="exclamdown.case" horiz-adv-x="221" 
d="M57 632q0 22 15.5 37.5t37.5 15.5q35 3 49.5 -32.5t-11.5 -59.5q-25 -25 -58 -10.5t-33 49.5zM69 0l8 472h67l9 -472h-84z" />
    <glyph glyph-name="questiondown.case" horiz-adv-x="520" 
d="M117 187q0 -51 44 -87q45 -36 109 -36q55 0 96.5 27.5t55.5 72.5l77 -22q-21 -68 -83 -110t-144 -42q-98 0 -165 57t-67 140q0 40 18 77t45 60q57 49 97 64l19 7l4 77h70l8 -118q-27 -9 -64 -27q-35 -19 -56 -34q-27 -20 -45.5 -48.5t-18.5 -57.5zM204 632q0 22 15 37.5
t38 15.5t38.5 -15t15.5 -38t-15.5 -38t-38.5 -15t-38 15t-15 38z" />
    <glyph glyph-name="dagger.case" horiz-adv-x="468" 
d="M25 419v60h176v196h65v-196h176v-60h-176v-419h-65v419h-176z" />
    <glyph glyph-name="daggerdbl.case" horiz-adv-x="468" 
d="M203 191h-178v58h178v177h-178v58h178v191h62v-191h177v-58h-177v-177h177v-58h-177v-191h-62v191z" />
    <glyph glyph-name="slash.case" horiz-adv-x="479" 
d="M71 -100h-71l408 875h71z" />
    <glyph glyph-name="backslash.case" horiz-adv-x="479" 
d="M71 775l408 -875h-71l-408 875h71z" />
    <glyph glyph-name="parenleft.case" horiz-adv-x="291" 
d="M186 758l15 17h73l-17 -20q-11 -13 -36 -55q-55 -89 -83 -211q-32 -151 -1 -301q14 -64 40.5 -125.5t41 -84t39.5 -60.5l16 -18h-73l-1 1q-82 90 -123 236q-26 96 -26 201q0 163 53 280q47 105 82 140z" />
    <glyph glyph-name="parenright.case" horiz-adv-x="291" 
d="M32 756l-15 19h73l16 -18q9 -9 36 -52q28 -45 46 -87q20 -46 36 -123q16 -73 16 -157q0 -151 -48 -268q-19 -49 -43 -87q-25 -44 -58 -82l-1 -1h-73l16 20q14 16 37 55q57 92 82 212q34 147 1 301q-31 148 -121 268z" />
    <glyph glyph-name="bracketleft.case" horiz-adv-x="290" 
d="M136 -36h137v-64h-209v875h209v-65h-137v-746z" />
    <glyph glyph-name="bracketright.case" horiz-adv-x="290" 
d="M226 -100h-209v65h137v745h-137v65h209v-875z" />
    <glyph glyph-name="braceleft.case" horiz-adv-x="325" 
d="M236 775h72v-65h-69q-28 0 -46.5 -18.5t-18.5 -45.5v-193q0 -46 -22.5 -75.5t-59.5 -39.5q82 -24 82 -116v-193q0 -27 18.5 -45.5t46.5 -18.5h69v-65h-72q-58 0 -95 39q-38 40 -38 97v191q0 26 -20.5 46t-45.5 27l-22 6v65q10 2 30 10q58 21 58 67v191q0 57 38 97
q37 39 95 39z" />
    <glyph glyph-name="braceright.case" horiz-adv-x="325" 
d="M17 710v65h73q56 0 94 -39q38 -40 38 -97v-191q0 -25 20.5 -45t45.5 -27l22 -5v-66q-10 -2 -31 -10q-57 -22 -57 -68v-191q0 -57 -38 -97q-38 -39 -95 -39h-72v65h69q28 0 46.5 18.5t18.5 45.5v193q0 46 22.5 76t59.5 40q-37 9 -59.5 39t-22.5 76v193q0 28 -18.5 46
t-46.5 18h-69z" />
    <glyph glyph-name="guillemotleft.case" horiz-adv-x="486" 
d="M204 166l-172 172l172 172l46 -46l-127 -126l127 -127zM392 166l-172 172l172 172l45 -46l-126 -126l126 -127z" />
    <glyph glyph-name="guillemotright.case" horiz-adv-x="486" 
d="M282 510l172 -172l-172 -172l-45 45l126 127l-126 126zM94 510l172 -172l-172 -172l-45 45l126 127l-126 126z" />
    <glyph glyph-name="guilsinglleft.case" horiz-adv-x="299" 
d="M204 166l-172 172l172 172l46 -46l-127 -126l127 -127z" />
    <glyph glyph-name="guilsinglright.case" horiz-adv-x="299" 
d="M94 510l172 -172l-172 -172l-45 45l126 127l-126 126z" />
    <glyph glyph-name="hyphen.case" horiz-adv-x="387" 
d="M67 304v68h253v-68h-253z" />
    <glyph glyph-name="endash.case" 
d="M67 304v68h466v-68h-466z" />
    <glyph glyph-name="emdash.case" horiz-adv-x="1000" 
d="M67 304v68h866v-68h-866z" />
    <glyph glyph-name="bar.case" horiz-adv-x="186" 
d="M126 -100h-65v875h65v-875z" />
    <glyph glyph-name="brokenbar.case" horiz-adv-x="186" 
d="M126 775v-355h-65v355h65zM61 -100v357h65v-357h-65z" />
    <glyph glyph-name="zero.dnom" horiz-adv-x="340" 
d="M29 128v116q0 56 40 93q41 38 101 38q59 0 100 -38t41 -93v-116q0 -56 -41 -94t-100 -38q-60 0 -101 38q-40 37 -40 94zM81 244v-117q0 -34 25.5 -57.5t63.5 -23.5t63.5 23.5t25.5 57.5v117q0 34 -25.5 57.5t-63.5 23.5t-63.5 -23.5t-25.5 -57.5z" />
    <glyph glyph-name="one.dnom" horiz-adv-x="231" 
d="M119 309l-75 -39l-19 44l109 58h37v-372h-52v309z" />
    <glyph glyph-name="two.dnom" horiz-adv-x="308" 
d="M223 262q0 26 -22 44.5t-52 18.5q-57 0 -81 -60l-48 23q17 40 52 63.5t77 23.5q53 0 91 -33q37 -31 37 -78q0 -52 -78 -126l-93 -88h176v-50h-256v38l139 133q58 58 58 91z" />
    <glyph glyph-name="three.dnom" horiz-adv-x="314" 
d="M150 325q-58 0 -77 -42l-45 18q15 34 48.5 54t76.5 20q54 0 90 -30t36 -76q0 -53 -55 -77q64 -25 64 -85q0 -48 -38.5 -79.5t-96.5 -31.5q-47 0 -81.5 20.5t-48.5 56.5l49 18q8 -20 29.5 -32.5t49.5 -12.5q36 0 59.5 18t23.5 44t-23 43.5t-57 17.5h-28v41h20
q34 0 56.5 16.5t22.5 41.5t-21.5 41t-53.5 16z" />
    <glyph glyph-name="four.dnom" horiz-adv-x="346" 
d="M223 0v75h-201v50l205 247h48v-247h53v-50h-53v-75h-52zM223 293l-139 -168h139v168z" />
    <glyph glyph-name="five.dnom" horiz-adv-x="320" 
d="M294 119q0 -52 -40 -88q-40 -35 -98 -35q-47 0 -82.5 23t-51.5 62l52 15q23 -50 81 -50q36 0 61 21t25 51q0 32 -26 53t-65 21h-101l19 180h196v-48h-153l-9 -84h59q57 0 95 -35t38 -86z" />
    <glyph glyph-name="six.dnom" horiz-adv-x="325" 
d="M294 308l-47 -23q-24 40 -77 40q-38 0 -63 -22.5t-25 -56.5v-53q29 44 89 44q55 0 93 -35q39 -34 39 -86q0 -51 -39 -86q-38 -34 -97 -34q-58 0 -98 34q-39 35 -39 86v129q0 56 40 93t100 37q87 0 124 -67zM167 187q-36 0 -59.5 -20t-23.5 -50t23.5 -50.5t59.5 -20.5
q35 0 58.5 20.5t23.5 50.5q0 29 -24 49.5t-58 20.5z" />
    <glyph glyph-name="seven.dnom" horiz-adv-x="284" 
d="M71 0l136 324h-195v48h249v-51l-132 -321h-58z" />
    <glyph glyph-name="eight.dnom" horiz-adv-x="323" 
d="M26 103q0 60 61 91q-51 30 -51 82q0 42 36 70.5t90 28.5q53 0 89 -28.5t36 -70.5q0 -53 -50 -82q61 -31 61 -91q0 -46 -39 -76.5t-97 -30.5t-97 30.5t-39 76.5zM162 46q35 0 58.5 17.5t23.5 44.5q0 26 -23.5 43t-58.5 17q-36 0 -59.5 -17t-23.5 -43t23.5 -44t59.5 -18z
M110 309q-20 -15 -20 -38t20 -39q21 -15 52 -15t51 15q20 16 20 39t-20 38q-20 16 -51 16t-52 -16z" />
    <glyph glyph-name="nine.dnom" horiz-adv-x="323" 
d="M27 63l45 22q26 -39 80 -39q40 0 66 22.5t26 56.5v53q-12 -22 -36 -35.5t-51 -13.5q-54 0 -94 35q-38 36 -38 89q0 52 39 87t97 35t96.5 -34.5t38.5 -85.5v-129q0 -55 -41 -93q-40 -37 -102 -37q-88 0 -126 67zM161 179q25 -2 45.5 11.5t29 33t5 42.5t-21.5 38
q-26 20 -58 20.5t-58.5 -20.5t-23.5 -51q0 -32 23.5 -53t58.5 -21z" />
    <glyph glyph-name="logo" horiz-adv-x="430" 
d="M20 518v102h23q71 0 121 -50t50 -121t-50 -121t-121 -50h-23v103q91 0 91 68q0 69 -91 69zM216 518v102h23q71 0 121 -50t50 -121t-50 -121t-121 -50h-23v103q92 0 92 68q0 69 -92 69zM53 216h-27v20h74v-20h-27v-116h-20v116zM139 160l-36 76h23l23 -50l24 50h23
l-36 -76v-60h-21v60zM228 100h-20v136h38q18 0 31 -12.5t13 -30.5t-13 -30.5t-31 -12.5h-18v-50zM246 216h-18v-46h18q10 0 16.5 6.5t6.5 16.5q0 9 -6.5 16t-16.5 7zM363 100h-60v136h60v-20h-39v-48h31v-20h-31v-28h39v-20z" />
    <glyph glyph-name="bullet.case" horiz-adv-x="298" 
d="M72 261q-30 31 -30 77t30 76q31 30 77 30t76 -30q31 -30 31 -76t-31 -77q-30 -30 -76 -30q-45 0 -77 30z" />
    <glyph glyph-name="zero.num" horiz-adv-x="340" 
d="M29 431v116q0 57 40 94q41 38 101 38q59 0 100 -38t41 -94v-116q0 -56 -41 -94t-100 -38q-60 0 -101 38q-40 37 -40 94zM81 548v-117q0 -35 26 -58.5t63 -23.5t63 23.5t26 58.5v117q0 34 -25.5 57.5t-63.5 23.5t-63.5 -23.5t-25.5 -57.5z" />
    <glyph glyph-name="one.num" horiz-adv-x="231" 
d="M119 612l-75 -38l-19 44l109 57h37v-371h-52v308z" />
    <glyph glyph-name="two.num" horiz-adv-x="308" 
d="M223 565q0 26 -22 45t-52 19q-56 0 -81 -61l-48 24q17 40 52 63.5t77 23.5q53 0 91 -33q37 -33 37 -79q0 -53 -78 -125l-93 -89h176v-49h-256v37l139 134q58 55 58 90z" />
    <glyph glyph-name="three.num" horiz-adv-x="314" 
d="M225 572q0 24 -21.5 40.5t-53.5 16.5q-58 0 -77 -42l-45 17q15 34 48.5 54.5t76.5 20.5q54 0 90 -30t36 -76q0 -55 -55 -77q64 -25 64 -86q0 -48 -39 -79q-38 -32 -96 -32q-45 0 -80.5 21.5t-49.5 55.5l49 18q8 -20 29.5 -32.5t49.5 -12.5q36 0 59.5 18t23.5 44t-23 44
t-57 18h-28v40h20q34 0 56.5 17t22.5 42z" />
    <glyph glyph-name="four.num" horiz-adv-x="346" 
d="M223 304v75h-201v50l205 246h48v-246h53v-50h-53v-75h-52zM223 596l-138 -167h138v167z" />
    <glyph glyph-name="five.num" horiz-adv-x="320" 
d="M156 299q-46 0 -82 23.5t-52 62.5l52 15q22 -51 81 -51q36 0 61 21t25 52t-26.5 52.5t-64.5 21.5h-101l19 179h196v-48h-153l-9 -83h59q57 0 95 -35t38 -87t-40 -88q-40 -35 -98 -35z" />
    <glyph glyph-name="six.num" horiz-adv-x="325" 
d="M294 612l-47 -23q-24 40 -77 40q-37 0 -62.5 -23t-25.5 -56v-53q29 44 89 44q55 0 93 -35q39 -34 39 -86t-39 -86q-40 -35 -97 -35t-98 35q-39 34 -39 86v129q0 56 40 93t100 37q87 0 124 -67zM167 491q-36 0 -59.5 -20.5t-23.5 -50.5t23.5 -50.5t59.5 -20.5
q35 0 58.5 20.5t23.5 50.5t-23.5 50.5t-58.5 20.5z" />
    <glyph glyph-name="seven.num" horiz-adv-x="284" 
d="M71 304l136 323h-195v48h249v-51l-132 -320h-58z" />
    <glyph glyph-name="eight.num" horiz-adv-x="323" 
d="M26 407q0 59 61 90q-51 29 -51 82q0 43 36 71.5t90 28.5q53 0 89 -28.5t36 -71.5q0 -53 -50 -82q61 -31 61 -91q0 -46 -39 -76.5t-97 -30.5t-97 31t-39 77zM162 349q35 0 58.5 18t23.5 44t-23.5 43.5t-58.5 17.5q-36 0 -59.5 -17.5t-23.5 -43.5t23.5 -44t59.5 -18z
M90 575q0 -24 20.5 -39.5t51.5 -15.5t51 15.5t20 39.5q0 23 -20 38.5t-51 15.5t-51.5 -15.5t-20.5 -38.5z" />
    <glyph glyph-name="nine.num" horiz-adv-x="323" 
d="M27 366l45 23q25 -40 80 -40q40 0 66 23t26 57v52q-26 -48 -87 -48q-54 0 -94 35q-38 36 -38 89q0 52 39 87t97 35t96.5 -34.5t38.5 -85.5v-129q0 -56 -41 -94q-40 -37 -102 -37q-41 0 -74.5 18t-51.5 49zM161 629q-35 0 -58.5 -21t-23.5 -52t23.5 -52t58.5 -21t58 21
t23 52t-23.5 52t-57.5 21z" />
    <glyph glyph-name="afii10021.1" horiz-adv-x="802" 
d="M779 0h-756v75h75q88 25 88 269v331h481v-600h112v-75zM209 75h377v525h-319v-252q0 -188 -58 -273z" />
    <glyph glyph-name="afii10040.1" horiz-adv-x="768" 
d="M78 675h81v-600h392v600h81v-600h112v-75h-666v675z" />
    <glyph glyph-name="afii10043.1" horiz-adv-x="1106" 
d="M78 0v675h81v-600h322v600h81v-600h328v600h80v-600h113v-75h-1005z" />
    <glyph glyph-name="germandbls.1" horiz-adv-x="538" 
d="M137 379v-379h-74v566q0 71 50 119q51 48 127 48h32v-74h-32q-44 0 -73.5 -27t-29.5 -67v-115h313v-55l-113 -150q75 -24 119.5 -87t44.5 -147q0 -106 -75 -176q-73 -70 -185 -70v74q80 0 132 49q54 50 54 123t-54 123q-52 49 -132 49v57l107 139h-211z" />
    <glyph glyph-name="R.1" horiz-adv-x="650" 
d="M78 675h304q94 0 155 -57q62 -56 62 -140q0 -57 -30.5 -103.5t-82.5 -70.5q72 -47 88 -126l41 -178h-80l-38 163q-10 46 -49 77q-37 31 -85 31h-204v-271h-81v675zM382 600h-223v-253h223q57 0 95.5 36t38.5 90t-38.5 90.5t-95.5 36.5z" />
    <glyph glyph-name="Racute.1" horiz-adv-x="655" 
d="M159 0h-81v675h304q94 0 155 -57q62 -56 62 -140q0 -57 -30.5 -103.5t-82.5 -70.5q72 -47 88 -126l41 -178h-80l-38 163q-10 46 -49 77q-37 31 -85 31h-204v-271zM382 600h-223v-253h223q57 0 95.5 36t38.5 90t-38.5 90.5t-95.5 36.5zM418 839l-176 -90l-26 45l165 110z
" />
    <glyph glyph-name="Rcaron.1" horiz-adv-x="655" 
d="M159 271v-271h-81v675h304q94 0 155 -57q62 -56 62 -140q0 -57 -30.5 -103.5t-82.5 -70.5q72 -47 88 -126l41 -178h-80l-38 163q-10 46 -49 77q-37 31 -85 31h-204zM382 600h-223v-253h223q57 0 95.5 36t38.5 90t-38.5 90.5t-95.5 36.5zM283 749h-7l-143 115l32 42
l115 -80l115 80l32 -42z" />
    <glyph glyph-name="Rcommaaccent.1" horiz-adv-x="655" 
d="M159 0h-81v675h304q94 0 155 -57q62 -56 62 -140q0 -57 -30.5 -103.5t-82.5 -70.5q72 -47 88 -126l41 -178h-80l-38 163q-10 46 -49 77q-37 31 -85 31h-204v-271zM382 600h-223v-253h223q57 0 95.5 36t38.5 90t-38.5 90.5t-95.5 36.5zM346 -56q22 0 36 -16.5t14 -43.5
q0 -32 -19 -58q-11 -16 -24 -28.5t-20.5 -17t-10.5 -4.5l-20 21l11 9q28 25 27 48q-17 2 -28.5 15t-11.5 31t13.5 31t32.5 13z" />
    <glyph glyph-name="u.1" horiz-adv-x="536" 
d="M61 197v253h74v-247q0 -60 38 -99.5t95 -39.5t95 39.5t38 99.5v247h74v-253q0 -89 -59 -148t-148 -59t-148 59t-59 148z" />
    <glyph glyph-name="uacute.1" horiz-adv-x="536" 
d="M61 197v253h74v-247q0 -60 38 -99.5t95 -39.5t95 39.5t38 99.5v247h74v-253q0 -89 -59 -148t-148 -59t-148 59t-59 148zM226 544l-26 45l165 111l37 -66z" />
    <glyph glyph-name="ubreve.1" horiz-adv-x="536" 
d="M61 197v253h74v-247q0 -60 38 -99.5t95 -39.5t95 39.5t38 99.5v247h74v-253q0 -89 -59 -148t-148 -59t-148 59t-59 148zM137 673h60q0 -32 21.5 -54t52.5 -22t52 22t21 54h60q0 -56 -38 -94t-95 -38q-56 0 -96 38q-38 38 -38 94z" />
    <glyph glyph-name="ucircumflex.1" horiz-adv-x="536" 
d="M61 197v253h74v-247q0 -60 38 -99.5t95 -39.5t95 39.5t38 99.5v247h74v-253q0 -89 -59 -148t-148 -59t-148 59t-59 148zM270 623l-114 -79l-33 42l144 115h7l143 -115l-32 -42z" />
    <glyph glyph-name="udieresis.1" horiz-adv-x="536" 
d="M61 197v253h74v-247q0 -60 38 -99.5t95 -39.5t95 39.5t38 99.5v247h74v-253q0 -89 -59 -148t-148 -59t-148 59t-59 148zM137 562q-14 14 -14 36t14 36q15 14 37 14t36 -14q15 -14 15 -36t-15 -36q-14 -14 -36 -14t-37 14zM331 562q-14 14 -14 36t14 36t36 14t36 -14
q15 -14 15 -36t-15 -36q-14 -14 -36 -14t-36 14z" />
    <glyph glyph-name="ugrave.1" horiz-adv-x="536" 
d="M61 197v253h74v-247q0 -60 38 -99.5t95 -39.5t95 39.5t38 99.5v247h74v-253q0 -89 -59 -148t-148 -59t-148 59t-59 148zM312 546l-176 90l37 66l165 -110z" />
    <glyph glyph-name="uhungarumlaut.1" horiz-adv-x="536" 
d="M61 197v253h74v-247q0 -60 38 -99.5t95 -39.5t95 39.5t38 99.5v247h74v-253q0 -89 -59 -148t-148 -59t-148 59t-59 148zM185 537l-39 35l119 145l55 -51zM353 537l-39 35l119 145l55 -51z" />
    <glyph glyph-name="umacron.1" horiz-adv-x="536" 
d="M61 197v253h74v-247q0 -60 38 -99.5t95 -39.5t95 39.5t38 99.5v247h74v-253q0 -89 -59 -148t-148 -59t-148 59t-59 148zM399 573h-256v63h256v-63z" />
    <glyph glyph-name="uogonek.1" horiz-adv-x="536" 
d="M61 197v253h74v-247q0 -60 38 -99.5t95 -39.5t95 39.5t38 99.5v247h74v-253q0 -77 -46 -133t-119 -70q-49 -49 -49 -91q0 -20 11.5 -32t29.5 -12q27 0 48 21l6 7l26 -31l-13 -13q-10 -11 -35.5 -23.5t-47.5 -12.5q-36 0 -60 23.5t-24 59.5q0 47 48 101q-82 6 -136 64
q-53 59 -53 142z" />
    <glyph glyph-name="uring.1" horiz-adv-x="536" 
d="M61 197v253h74v-247q0 -60 38 -99.5t95 -39.5t95 39.5t38 99.5v247h74v-253q0 -89 -59 -148t-148 -59t-148 59t-59 148zM170 639q0 43 29 72t72 29q42 0 71.5 -29t29.5 -72q0 -42 -29.5 -71t-71.5 -29q-43 0 -72 29t-29 71zM225 639q0 -19 13.5 -32.5t32.5 -13.5
t32.5 13.5t13.5 32.5q0 20 -13.5 33.5t-32.5 13.5t-32.5 -13.5t-13.5 -33.5z" />
    <glyph glyph-name="utilde.1" horiz-adv-x="536" 
d="M61 197v253h74v-247q0 -60 38 -99.5t95 -39.5t95 39.5t38 99.5v247h74v-253q0 -89 -59 -148t-148 -59t-148 59t-59 148zM186 558h-60q0 42 26.5 70t65.5 28q28 0 57 -24q29 -23 43 -23q15 0 26 12t11 30h59q0 -42 -26 -69.5t-65 -27.5q-29 0 -58 23t-42 23
q-16 0 -26.5 -12t-10.5 -30z" />
    <glyph glyph-name="y.1" horiz-adv-x="463" 
d="M192 13l-179 437h76l140 -348l145 348h76l-283 -675h-74z" />
    <glyph glyph-name="yacute.1" horiz-adv-x="463" 
d="M192 13l-179 437h76l140 -348l145 348h76l-283 -675h-74zM363 634l-176 -90l-26 45l165 111z" />
    <glyph glyph-name="ycircumflex.1" horiz-adv-x="463" 
d="M192 13l-179 437h76l140 -348l145 348h76l-283 -675h-74zM231 623l-114 -79l-33 42l144 115h7l143 -115l-32 -42z" />
    <glyph glyph-name="ydieresis.1" horiz-adv-x="463" 
d="M192 13l-179 437h76l140 -348l145 348h76l-283 -675h-74zM364 562q-14 -14 -36 -14t-36 14t-14 36t14 36t36 14t36 -14q15 -14 15 -36t-15 -36zM135 548q-22 0 -36.5 14t-14.5 36t14.5 36t36.5 14q21 0 35.5 -14t14.5 -36t-14.5 -36t-35.5 -14z" />
    <glyph glyph-name="ygrave.1" horiz-adv-x="463" 
d="M192 13l-179 437h76l140 -348l145 348h76l-283 -675h-74zM273 546l-176 90l37 66l165 -110z" />
    <glyph glyph-name="afii10085.1" horiz-adv-x="463" 
d="M192 13l-179 437h76l140 -348l145 348h76l-283 -675h-74z" />
    <glyph glyph-name="afii10110.1" horiz-adv-x="463" 
d="M93 -225l99 238l-179 437h76l140 -348l145 348h76l-283 -675h-74zM83 680h65q0 -33 24 -55.5t60 -22.5q35 0 59 22.5t24 55.5h65q0 -60 -43 -100q-41 -40 -105 -40q-63 0 -106 40t-43 100z" />
    <glyph glyph-name="g.1" horiz-adv-x="560" 
d="M261 -10q-95 0 -159 67q-63 67 -63 168q0 99 63 167q65 68 159 68q99 0 163 -72v62h73v-458q0 -98 -66 -162q-65 -65 -163 -65q-46 0 -88 16l28 67q29 -10 57 -10q67 0 113 44q46 43 46 110v70q-64 -72 -163 -72zM160 340q-44 -47 -44 -115t44 -115q43 -46 109 -46
t109 46q44 47 44 115t-44 115q-43 46 -109 46t-109 -46z" />
    <glyph glyph-name="gbreve.1" horiz-adv-x="560" 
d="M261 -10q-95 0 -159 67q-63 67 -63 168q0 99 63 167q65 68 159 68q99 0 163 -72v62h73v-458q0 -98 -66 -162q-65 -65 -163 -65q-46 0 -88 16l28 67q29 -10 57 -10q67 0 113 44q46 43 46 110v70q-64 -72 -163 -72zM378 340q-43 46 -109 46t-109 -46q-44 -47 -44 -115
t44 -115q43 -46 109 -46t109 46q44 47 44 115t-44 115zM141 673h60q0 -32 21.5 -54t52.5 -22t52 22t21 54h60q0 -57 -39 -94q-38 -38 -95 -38t-95 38t-38 94z" />
    <glyph glyph-name="gcircumflex.1" horiz-adv-x="560" 
d="M261 -10q-95 0 -159 67q-63 67 -63 168q0 99 63 167q65 68 159 68q99 0 163 -72v62h73v-458q0 -98 -66 -162q-65 -65 -163 -65q-46 0 -88 16l28 67q29 -10 57 -10q67 0 113 44q46 43 46 110v70q-64 -72 -163 -72zM378 340q-43 46 -109 46t-109 -46q-44 -47 -44 -115
t44 -115q43 -46 109 -46t109 46q44 47 44 115t-44 115zM159 544l-32 42l144 115h7l143 -115l-33 -42l-114 79z" />
    <glyph glyph-name="gcommaaccent.1" horiz-adv-x="560" 
d="M261 -10q-95 0 -159 67q-63 67 -63 168q0 99 63 167q65 68 159 68q99 0 163 -72v62h73v-458q0 -98 -66 -162q-65 -65 -163 -65q-46 0 -88 16l28 67q29 -10 57 -10q67 0 113 44q46 43 46 110v70q-64 -72 -163 -72zM378 340q-43 46 -109 46t-109 -46q-44 -47 -44 -115
t44 -115q43 -46 109 -46t109 46q44 47 44 115t-44 115zM224 599q0 38 26.5 68.5t44.5 36.5l3 2l20 -20l-11 -10q-28 -25 -27 -48q17 -2 28.5 -15t11.5 -31q0 -19 -13 -31.5t-33 -12.5q-22 0 -36 17t-14 44z" />
    <glyph glyph-name="gdotaccent.1" horiz-adv-x="560" 
d="M261 -10q-95 0 -159 67q-63 67 -63 168q0 99 63 167q65 68 159 68q99 0 163 -72v62h73v-458q0 -98 -66 -162q-65 -65 -163 -65q-46 0 -88 16l28 67q29 -10 57 -10q67 0 113 44q46 43 46 110v70q-64 -72 -163 -72zM160 340q-44 -47 -44 -115t44 -115q43 -46 109 -46
t109 46q44 47 44 115t-44 115q-43 46 -109 46t-109 -46zM221 599q0 23 15 38t38 15t38 -15t15 -38q0 -22 -15 -37t-38 -15t-38 15t-15 37z" />
    <glyph glyph-name="t.1" horiz-adv-x="320" 
d="M14 385v39l105 110h41v-84h128v-65h-128v-243q0 -31 18.5 -51t46.5 -20h63v-71h-68q-57 0 -95 38q-38 40 -38 95v252h-73z" />
    <glyph glyph-name="tbar.1" horiz-adv-x="320" 
d="M87 385h-73v39l105 110h41v-84h128v-65h-128v-109h89v-61h-89v-73q0 -31 18.5 -51t46.5 -20h63v-71h-68q-57 0 -95 38q-38 40 -38 95v82h-59v61h59v109z" />
    <glyph glyph-name="tcaron.1" horiz-adv-x="337" 
d="M14 385v39l105 110h41v-84h128v-65h-128v-243q0 -31 18.5 -51t46.5 -20h63v-71h-68q-57 0 -95 38q-38 40 -38 95v252h-73zM317 628q0 -39 -26.5 -69t-44.5 -37l-3 -2l-20 21l11 10q28 25 27 47q-17 2 -28.5 15t-11.5 31q0 19 13 31.5t33 12.5q22 0 36 -16.5t14 -43.5z
" />
    <glyph glyph-name="tcommaaccent.1" horiz-adv-x="320" 
d="M14 385v39l105 110h41v-84h128v-65h-128v-243q0 -31 18.5 -51t46.5 -20h63v-71h-68q-57 0 -95 38q-38 40 -38 95v252h-73zM236 -116q0 -32 -19 -58q-11 -16 -24 -28.5t-21 -17t-11 -4.5l-20 21q6 4 11 9q29 26 28 48q-17 1 -28.5 14.5t-11.5 31.5t13 31t33 13
q22 0 36 -16.5t14 -43.5z" />
    <glyph glyph-name="uni021B.1" horiz-adv-x="320" 
d="M14 385v39l105 110h41v-84h128v-65h-128v-243q0 -31 18.5 -51t46.5 -20h63v-71h-68q-57 0 -95 38q-38 40 -38 95v252h-73zM236 -116q0 -32 -19 -58q-11 -16 -24 -28.5t-21 -17t-11 -4.5l-20 21q6 4 11 9q29 26 28 48q-17 1 -28.5 14.5t-11.5 31.5t13 31t33 13
q22 0 36 -16.5t14 -43.5z" />
    </font>
</defs>
</svg>
