<svg width="268" height="42" viewBox="0 0 268 42" fill="none" xmlns="http://www.w3.org/2000/svg">
<path d="M228.907 36.8796L223.258 25.0833H218.712V36.8796H210.14V5.18518H226.505C229.492 5.18518 232.479 6.15741 234.557 8.36111C236.375 10.2407 237.349 12.7685 237.349 15.4259C237.349 17.3704 236.765 19.1204 235.791 20.5463C234.752 22.037 233.323 23.2037 231.57 23.9815L238.258 36.9444L228.907 36.8796ZM229.557 15.3611C229.557 13.4815 227.998 12.1852 226.18 12.1852H218.777V18.6667H226.18C227.998 18.6667 229.557 17.2407 229.557 15.3611ZM170.008 36.8796L158.06 20.2222L169.229 5.18518H178.645L167.541 20.0926L179.1 36.8796H170.008ZM156.371 36.8796L145.267 21.3241V36.8796H136.76V5.18518H145.267V19.1204L155.592 5.18518H165.008L153.969 20.0926L165.528 36.8796H156.371ZM107.992 36.8796V5.18518H133.383V12.1204H116.564V17.8241H131.37V23.9815H116.564V29.9444H133.383V36.8796H107.992ZM75.4582 36.8796L91.5629 12.1204H77.0167V5.18518H105.719L89.4849 29.9444H105.265V36.8796H75.4582ZM181.437 36.8796V5.18518H206.828V12.1204H190.009V17.8241H204.815V23.9815H190.009V29.9444H206.828V36.8796H181.437ZM39.4175 9.59259H9.54592C5.58469 9.59259 1.88321 10.8889 1.88321 15.4259C1.88321 22.1667 1.88321 28.9074 1.88321 35.6481C1.88321 38.1111 3.89629 40.1204 6.36395 40.1204H52.3402L51.1064 42H6.36395C2.85728 42 0 39.1481 0 35.6481V15.4907C0.0649382 8.10185 2.14296 5.18518 9.80567 5.18518H53.3143L36.1706 29.1667H25.4558L39.4175 9.59259ZM19.0918 32.4074H48.9634C52.9246 32.4074 56.6261 31.1111 56.5612 26.5741C56.5612 19.8333 56.5612 13.0926 56.5612 6.35185C56.5612 3.88889 54.5481 1.87963 52.1454 1.87963H6.16913L7.33802 0H52.0805C55.5871 0 58.4444 2.85185 58.4444 6.35185V26.5741C58.4444 33.963 56.3664 36.8796 48.6387 36.8796H5.13012L22.2738 12.8981H33.0536L19.0918 32.4074ZM257.805 12.1204V36.8796H249.233V12.1204H238.973V5.18518H268V12.1204H257.805Z" fill="#0086C7"/>
</svg>
