<svg width="53" height="53" viewBox="0 0 53 53" fill="none" xmlns="http://www.w3.org/2000/svg">
<path d="M38.0108 31.9498C38.0108 30.3633 37.4469 28.7768 36.5445 27.5303C35.3038 25.9438 34.0631 24.3573 32.8224 22.7708C31.3561 21.071 30.0026 19.2579 28.9875 17.2182C26.5061 12.1187 28.3108 6.11279 32.2585 2.8265C34.0631 1.35334 36.0934 0.333461 38.3492 0.10682C45.7934 -0.79974 51.2074 4.18634 52.2225 10.4189C52.7864 13.8186 51.8841 16.7649 49.9667 19.4846C48.726 21.1844 47.3725 22.7708 46.019 24.4706C44.7783 25.9438 43.5376 27.417 42.748 29.2301C42.4097 30.1366 42.1841 30.9299 42.1841 32.0631C44.2143 32.0631 46.2446 32.0631 48.2748 32.0631C48.2748 33.4229 48.2748 34.7828 48.2748 36.2559C48.0492 36.2559 47.7108 36.2559 47.4853 36.2559C44.3271 36.2559 41.2818 36.2559 38.1236 36.2559C37.3341 36.2559 36.6573 36.5959 36.319 37.3891C35.8678 38.0691 35.9806 38.8623 36.4317 39.5422C36.8829 40.1088 37.4469 40.4488 38.1236 40.4488C40.7178 40.4488 43.4248 40.4488 46.019 40.4488C49.1771 40.4488 51.6585 42.3752 52.2225 45.5482C53.012 49.4011 49.7411 52.8007 46.4702 52.8007C35.191 52.8007 23.9119 52.8007 12.6328 52.8007C12.4072 52.8007 12.1816 52.8007 11.8433 52.8007C11.8433 51.4408 11.8433 50.1943 11.8433 48.7211C12.1816 48.7211 12.52 48.7211 12.7456 48.7211C23.6863 48.7211 34.7399 48.7211 45.6806 48.7211C46.2446 48.7211 46.8085 48.6078 47.2597 48.2679C48.0492 47.8146 48.2748 46.908 48.0492 46.0015C47.8236 45.0949 47.0341 44.6416 46.1318 44.6416C43.5376 44.6416 40.9434 44.6416 38.3492 44.6416C37.7852 44.6416 37.2213 44.6416 36.6573 44.5283C34.0631 44.075 31.9201 41.6953 31.8073 39.0889C31.5817 36.2559 33.1608 33.6496 35.755 32.743C36.5445 32.2897 37.3341 32.1764 38.0108 31.9498ZM40.1538 25.2639C40.9434 24.244 41.8457 23.1108 42.6353 22.0909C43.9887 20.5044 45.3422 18.918 46.5829 17.2182C48.0492 15.2917 48.726 13.0253 48.162 10.6456C46.8085 4.86626 40.3794 2.2599 35.5294 5.54618C32.8224 7.47263 31.5817 10.1923 32.1457 13.5919C32.484 15.5184 33.4992 16.9915 34.6271 18.4647C36.319 20.7311 38.2364 22.9975 40.1538 25.2639Z" fill="#34A5EA"/>
<path d="M0 37.842C0 31.496 0 25.1501 0 18.8042C1.69187 17.8976 3.49652 16.9911 5.18839 16.1978C8.00817 14.7247 10.828 13.3648 13.6477 11.8917C14.0989 11.665 14.3245 11.665 14.7756 11.8917C19.1745 14.1581 23.6861 16.3111 28.085 18.5775C28.4234 18.6909 28.5362 18.8042 28.5362 19.2575C28.5362 25.3768 28.5362 31.6094 28.5362 37.7286C28.5362 37.7286 28.5362 37.7286 28.5362 37.842C26.6187 38.8618 24.5885 39.8817 22.5582 40.7883C19.964 42.0348 17.3698 43.3946 14.7756 44.6412C14.4373 44.8678 14.0989 44.8678 13.7605 44.7545C9.24888 42.6014 4.62444 40.2217 0 37.842ZM4.06048 23.5636C4.06048 23.7903 4.06048 23.9036 4.06048 23.9036C4.06048 27.5298 4.06048 31.2694 4.06048 34.8956C4.06048 35.3489 4.28606 35.4622 4.62444 35.5756C7.6698 37.162 10.828 38.6352 13.8733 40.2217C14.2117 40.335 14.4373 40.335 14.7756 40.2217C17.821 38.6352 20.8664 37.162 23.9117 35.6889C24.3629 35.4622 24.5885 35.2356 24.5885 34.669C24.5885 31.1561 24.5885 27.7565 24.5885 24.2435C24.5885 24.0169 24.5885 23.7903 24.5885 23.5636C24.3629 23.6769 24.1373 23.7903 23.9117 23.9036C20.9792 25.3767 17.9338 26.8499 15.0012 28.4364C14.5501 28.663 14.2117 28.663 13.7605 28.4364C11.3919 27.1899 8.91051 25.9434 6.54189 24.8102C5.63956 24.3569 4.96281 23.9036 4.06048 23.5636ZM14.3245 24.0169C16.8059 22.7704 19.4001 21.5239 21.9943 20.164C21.7687 20.0507 21.6559 19.9374 21.5431 19.9374C19.2873 18.8042 17.0315 17.671 14.7756 16.5378C14.4373 16.3111 14.0989 16.4245 13.7605 16.6511C11.6175 17.671 9.58725 18.8042 7.44422 19.8241C7.21863 19.9374 6.99305 20.0507 6.65468 20.2773C9.24888 21.5239 11.8431 22.7704 14.3245 24.0169Z" fill="#182339"/>
<path d="M38.1235 12.3455C38.1235 11.2123 39.0259 10.3057 40.041 10.1924C41.1689 10.1924 42.184 11.0989 42.184 12.2321C42.184 13.3653 41.2817 14.2719 40.1538 14.2719C39.0259 14.3852 38.1235 13.4787 38.1235 12.3455Z" fill="#36A6EB"/>
</svg>
