<svg width="53" height="53" viewBox="0 0 53 53" fill="none" xmlns="http://www.w3.org/2000/svg">
<path d="M45.2293 26.136C44.5525 25.796 43.9886 25.5693 43.5374 25.2294C42.7479 24.7761 42.0711 24.5495 41.1688 25.3427C41.1688 22.5097 41.1688 19.79 41.1688 16.957C40.3792 17.297 39.7025 17.6369 39.0258 17.9769C34.4013 20.2433 29.7769 22.623 25.1525 24.8894C24.7013 25.1161 24.4757 25.456 24.4757 26.0226C24.4757 30.2155 24.4757 34.4083 24.4757 38.4878C24.4757 38.7145 24.4757 39.0544 24.4757 39.3944C23.1222 39.3944 21.7687 39.3944 20.4152 39.3944C20.4152 39.0544 20.4152 38.8278 20.4152 38.4878C20.4152 34.295 20.4152 30.1022 20.4152 25.9093C20.4152 25.456 20.4152 25.2294 19.9641 25.0027C14.7757 22.3964 9.58728 19.79 4.39888 17.1837C4.28609 17.0703 4.17327 17.0703 3.94769 16.957C3.94769 17.297 3.94769 17.5236 3.94769 17.7503C3.94769 23.8695 3.94769 30.1021 3.94769 36.2214C3.94769 36.788 4.06049 37.0147 4.62445 37.3546C10.4896 40.301 16.2419 43.134 22.1071 46.0803C22.4455 46.1936 22.8966 46.1936 23.235 46.0803C24.8141 45.4004 26.3932 44.4938 28.085 43.7006C28.085 45.287 28.085 46.6469 28.085 48.0067C28.085 48.12 27.8594 48.3467 27.7466 48.46C26.1676 49.2533 24.5885 50.0465 23.0094 50.8397C22.7838 50.953 22.2199 50.8397 21.9943 50.6131C15.114 47.2135 8.23377 43.7006 1.35351 40.301C0.225596 39.7344 0 39.1678 0 38.0346C0.112791 29.3089 0 20.6966 0 11.9709C0 11.4043 0.225589 11.0644 0.676754 10.8377C7.66981 7.32481 14.6629 3.81189 21.6559 0.298968C22.4455 -0.154313 23.0094 -0.0409925 23.7989 0.298968C30.792 3.81189 37.7851 7.32481 44.7781 10.8377C45.2293 11.0644 45.4549 11.291 45.4549 11.8576C45.4549 16.3904 45.4549 21.0365 45.4549 25.5693C45.2293 25.6827 45.2293 25.9093 45.2293 26.136ZM39.4769 13.1041C39.2513 12.9908 39.1385 12.8775 39.0258 12.8775C33.7246 10.1578 28.4234 7.55145 23.1222 4.83177C22.671 4.60513 22.2199 4.71845 21.7687 4.94509C18.1594 6.75821 14.5501 8.57133 10.9408 10.3845C9.1361 11.291 7.33145 12.1976 5.5268 13.1041C5.75238 13.2175 5.97793 13.4441 6.20352 13.4441C11.3919 16.0505 16.5803 18.6568 21.7687 21.2632C22.3327 21.6031 22.7838 21.6031 23.4606 21.2632C27.4083 19.2234 31.356 17.297 35.3037 15.2572C36.5444 14.5773 38.0106 13.8974 39.4769 13.1041Z" fill="#34A5EA"/>
<path d="M31.9199 41.2071C31.9199 39.1674 31.9199 37.1276 31.9199 35.2012C31.9199 34.7479 32.0327 34.5212 32.4839 34.2946C35.642 32.7081 38.6874 31.2349 41.8455 29.6485C42.1839 29.5351 42.6351 29.5351 42.8607 29.6485C46.0188 31.1216 49.0642 32.7081 52.1095 34.2946C52.3351 34.4079 52.5607 34.7479 52.5607 35.0878C52.5607 39.1674 52.5607 43.3602 52.5607 47.4397C52.5607 47.6664 52.3351 48.0063 52.1095 48.1196C48.9514 49.7061 45.906 51.2926 42.7479 52.8791C42.4095 52.9924 41.9583 52.9924 41.62 52.8791C38.4618 51.4059 35.4164 49.8194 32.2583 48.233C31.8071 48.0063 31.8071 47.7797 31.8071 47.4397C32.0327 45.2866 31.9199 43.2469 31.9199 41.2071ZM48.5002 39.1674C48.1618 39.2807 47.9363 39.394 47.5979 39.5073C46.0188 40.3006 44.4398 41.0938 42.7479 41.887C42.4095 42.0004 41.9583 42.0004 41.7327 41.887C40.0409 41.0938 38.4618 40.3006 36.8827 39.394C36.6571 39.2807 36.4316 39.1674 36.0932 39.054C36.0932 40.9805 36.0932 42.7936 36.0932 44.6067C36.0932 44.8334 36.3188 45.2866 36.5444 45.4C38.2362 46.3065 40.0409 47.2131 41.7327 48.0063C41.9583 48.1196 42.4095 48.1196 42.6351 48.0063C44.4397 47.0998 46.2444 46.1932 48.049 45.2866C48.2746 45.1733 48.5002 44.9467 48.5002 44.72C48.5002 43.1336 48.5002 41.2071 48.5002 39.1674ZM45.906 35.7678C44.6653 35.2012 43.6502 34.6346 42.5223 34.068C42.4095 34.068 42.2967 33.9546 42.1839 33.9546C41.056 34.5212 39.9281 35.0878 38.5746 35.6544C39.8153 36.221 40.8304 36.7876 41.8455 37.2409C42.0711 37.3542 42.4095 37.3542 42.5223 37.2409C43.6502 37.0143 44.7781 36.4477 45.906 35.7678Z" fill="#182338"/>
</svg>
