<svg width="53" height="54" viewBox="0 0 53 54" fill="none" xmlns="http://www.w3.org/2000/svg">
<path d="M46.6955 12.4653C46.6955 11.1054 46.6955 9.8589 46.6955 8.38574C48.3874 8.38574 49.7409 8.95234 50.8688 9.97222C52.1095 11.2187 52.8991 12.6919 52.8991 14.505C52.8991 21.1909 52.8991 27.8768 52.8991 34.5627C52.8991 37.9623 50.0793 40.682 46.8083 40.682C42.4095 40.682 38.0106 40.682 33.6118 40.682C33.2734 40.682 33.0478 40.682 32.7094 40.682C32.7094 43.515 32.7094 46.2346 32.7094 48.9543C35.4164 48.9543 38.1234 48.9543 40.9432 48.9543C40.9432 50.3142 40.9432 51.674 40.9432 53.0339C31.3559 53.0339 21.7687 53.0339 12.0687 53.0339C12.0687 51.674 12.0687 50.4275 12.0687 48.9543C14.7756 48.9543 17.4826 48.9543 20.1896 48.9543C20.1896 46.1213 20.1896 43.4016 20.1896 40.5686C19.8512 40.5686 19.6257 40.5686 19.4001 40.5686C15.114 40.5686 10.828 40.5686 6.4291 40.5686C2.70699 40.7953 0 38.0756 0 34.336C0 27.7635 0 21.1909 0 14.505C0 11.4454 2.25582 8.83902 5.30119 8.38574C5.52677 8.38574 5.86514 8.38574 6.09072 8.38574C6.09072 9.74558 6.09072 11.1054 6.09072 12.4653C4.39886 13.0319 4.06048 13.4851 4.06048 15.4116C4.06048 21.6442 4.06048 27.7635 4.06048 33.9961C4.06048 35.9225 4.73723 36.7158 6.65468 36.7158C19.7385 36.7158 32.935 36.7158 46.0188 36.7158C47.9363 36.7158 48.613 35.9225 48.613 34.1094C48.613 27.8768 48.613 21.5309 48.613 15.2983C48.7258 13.5985 48.2746 12.9185 46.6955 12.4653ZM24.3629 49.0676C25.8292 49.0676 27.0699 49.0676 28.4234 49.0676C28.4234 46.348 28.4234 43.6283 28.4234 40.9086C27.0699 40.9086 25.7164 40.9086 24.3629 40.9086C24.3629 43.6283 24.3629 46.2346 24.3629 49.0676Z" fill="#33A5EA"/>
<path d="M26.3933 29.1233C23.1224 29.1233 19.9642 29.1233 16.6933 29.1233C13.0839 29.1233 10.377 26.4036 10.377 22.7773C10.377 17.338 10.377 11.8986 10.377 6.34592C10.377 2.71968 13.0839 0 16.6933 0C23.2351 0 29.777 0 36.3189 0C39.9282 0 42.6352 2.71968 42.6352 6.34592C42.6352 11.7853 42.6352 17.2247 42.6352 22.7773C42.6352 26.4036 39.9282 29.1233 36.3189 29.1233C32.9352 29.1233 29.6642 29.1233 26.3933 29.1233ZM14.4374 12.5785C14.4374 12.8052 14.4374 12.9185 14.4374 13.0318C14.4374 16.2048 14.4374 19.4911 14.4374 22.664C14.4374 24.1372 15.3398 25.0437 16.806 25.0437C23.2351 25.0437 29.6642 25.0437 36.0933 25.0437C37.6724 25.0437 38.462 24.2505 38.462 22.664C38.462 19.4911 38.462 16.3181 38.462 13.2585C38.462 13.0318 38.462 12.9185 38.462 12.6919C30.341 12.5785 22.4456 12.5785 14.4374 12.5785ZM38.462 8.38569C38.462 7.81909 38.462 7.36581 38.462 6.91253C38.462 4.98608 37.6724 4.30616 35.8678 4.30616C30.5666 4.30616 25.2654 4.30616 20.077 4.30616C18.9491 4.30616 17.8212 4.30616 16.6933 4.30616C15.5653 4.30616 14.663 4.98608 14.5502 6.11929C14.4374 6.91253 14.5502 7.70577 14.5502 8.49901C22.4456 8.38569 30.4538 8.38569 38.462 8.38569Z" fill="#162137"/>
<path d="M18.1592 18.8113C18.1592 17.6781 19.0615 16.6582 20.1894 16.6582C21.3173 16.6582 22.2197 17.5648 22.2197 18.698C22.2197 19.8312 21.3173 20.851 20.1894 20.851C19.0615 20.851 18.1592 19.9445 18.1592 18.8113Z" fill="#1C263C"/>
<path d="M26.3931 18.8113C26.3931 17.6781 27.4082 16.6582 28.5361 16.6582C29.664 16.6582 30.5663 17.6781 30.5663 18.698C30.5663 19.8312 29.664 20.7377 28.5361 20.7377C27.4082 20.851 26.3931 19.9445 26.3931 18.8113Z" fill="#1B263C"/>
</svg>
