<svg width="54" height="54" viewBox="0 0 54 54" fill="none" xmlns="http://www.w3.org/2000/svg">
<path d="M41.7411 30.181C40.6132 28.2545 39.5981 26.5547 38.6958 24.7416C38.1318 23.7217 37.4551 23.0418 36.44 22.4752C32.1539 20.0955 29.8981 16.3559 30.0109 11.4832C30.2365 6.49709 32.8306 2.98417 37.3423 0.944404C43.0946 -1.54864 49.7493 1.05772 52.4563 6.83705C55.0505 12.3897 52.9075 19.3023 47.4935 22.2486C46.2528 22.9285 45.2377 23.8351 44.5609 25.0816C43.7714 26.8947 42.7563 28.4812 41.7411 30.181ZM41.7411 21.7953C42.7563 20.3221 43.997 19.4156 45.3505 18.7357C48.283 17.2625 49.8621 13.8629 49.2982 10.6899C48.7342 7.29033 45.6888 4.57065 42.4179 4.34401C38.8086 4.11737 35.5376 6.38377 34.5225 9.78337C33.5074 13.183 34.9737 16.9225 38.019 18.6223C39.3725 19.4156 40.726 20.2088 41.7411 21.7953Z" fill="#182338"/>
<path d="M11.8517 47.6327C11.1749 46.3862 10.4982 45.253 9.82143 44.1198C9.59585 43.7798 9.48306 43.4399 9.25748 43.0999C8.46794 41.5134 7.45282 40.4936 5.87374 39.587C1.02372 36.8673 -1.11932 31.088 0.572544 25.8753C2.26441 20.5492 7.22724 17.1496 12.754 17.6029C17.9424 17.9429 22.3413 21.9091 23.3564 27.2351C24.3715 32.3345 21.8901 37.5472 17.1529 40.0403C16.1377 40.6069 15.3482 41.2868 14.897 42.3067C13.9947 44.0065 12.8668 45.8196 11.8517 47.6327ZM11.8517 39.247C12.8668 37.7739 14.1075 36.8673 15.5738 36.1874C18.5064 34.6009 19.9726 31.2013 19.4087 28.0283C18.7319 24.6287 15.7994 22.0224 12.4156 21.9091C8.69351 21.7957 5.64815 23.9488 4.52024 27.4617C3.50511 30.748 4.97141 34.3743 8.01677 36.1874C9.37026 36.8673 10.8365 37.6606 11.8517 39.247Z" fill="#33A5EA"/>
<path d="M19.8596 48.4255C19.8596 49.5587 18.8445 50.5786 17.7166 50.4653C16.5887 50.4653 15.5735 49.4454 15.6863 48.3122C15.6863 47.179 16.7015 46.2725 17.8294 46.2725C18.9573 46.2725 19.8596 47.2923 19.8596 48.4255Z" fill="#33A5EA"/>
<path d="M23.8074 42.873C24.9353 42.873 25.9504 43.8929 25.8376 45.0261C25.8376 46.1593 24.8225 47.1792 23.6946 47.0659C22.5667 47.0659 21.5516 46.046 21.6644 44.9128C21.7771 43.8929 22.6795 42.873 23.8074 42.873Z" fill="#33A5EA"/>
<path d="M13.9948 51.8248C13.9948 52.958 13.0925 53.8646 11.8518 53.8646C10.7239 53.8646 9.70879 52.8447 9.82158 51.7115C9.82158 50.5783 10.8367 49.5584 11.9646 49.6717C13.0925 49.785 13.9948 50.6916 13.9948 51.8248Z" fill="#33A5EA"/>
<path d="M43.8842 35.1668C43.8842 36.3 42.8691 37.3198 41.7412 37.2065C40.6133 37.2065 39.7109 36.1866 39.7109 35.0534C39.7109 33.9202 40.6133 33.0137 41.854 33.0137C42.9819 33.0137 43.8842 34.0336 43.8842 35.1668Z" fill="#33A5EA"/>
<path d="M33.7329 38.4538C33.7329 37.2073 34.6353 36.4141 35.876 36.4141C37.0039 36.4141 38.019 37.3206 37.9062 38.5671C37.9062 39.7003 36.8911 40.7202 35.7632 40.6069C34.6353 40.6069 33.7329 39.7003 33.7329 38.4538Z" fill="#33A5EA"/>
<path d="M29.7856 43.893C28.5449 43.893 27.6426 42.9865 27.6426 41.8533C27.6426 40.7201 28.5449 39.7002 29.6728 39.7002C30.8008 39.7002 31.8159 40.6068 31.8159 41.74C31.8159 42.9865 30.9135 43.893 29.7856 43.893Z" fill="#33A5EA"/>
<path d="M41.7412 14.3161C40.3877 14.3161 39.3726 13.1829 39.3726 11.9364C39.3726 10.5765 40.5005 9.55664 41.7412 9.55664C42.9819 9.55664 44.2226 10.6898 44.1098 11.9364C44.1098 13.1829 42.9819 14.3161 41.7412 14.3161Z" fill="#182338"/>
<path d="M14.2202 29.3875C14.2202 30.7474 13.0922 31.8806 11.8515 31.8806C10.6108 31.8806 9.48291 30.8607 9.48291 29.5009C9.48291 28.141 10.498 27.0078 11.8515 27.0078C13.0922 26.8945 14.2202 28.0277 14.2202 29.3875Z" fill="#33A5EA"/>
</svg>
