<svg width="42" height="53" viewBox="0 0 42 53" fill="none" xmlns="http://www.w3.org/2000/svg">
<path d="M14.4373 38.4659C9.47448 43.452 4.73723 48.0981 0 52.8575C0 52.6309 0 52.4042 0 52.1776C0 36.9927 0 21.8078 0 6.62293C0 2.65673 2.59422 0.0503645 6.54191 0.0503645C13.4222 0.0503645 20.3024 -0.0629556 27.2955 0.0503645C34.6269 0.163685 40.8304 6.16965 41.2816 13.3088C41.8455 20.9013 36.6572 27.5871 29.2129 28.8337C29.1001 28.8337 29.1001 28.8337 28.8745 28.947C28.8745 36.8794 28.8745 44.9251 28.8745 52.8575C24.0245 48.0981 19.2873 43.3386 14.4373 38.4659ZM16.5803 4.24321C16.2419 4.24321 16.0163 4.24321 15.7908 4.24321C12.7454 4.24321 9.70007 4.24321 6.65471 4.24321C4.85005 4.24321 4.06049 5.03645 4.06049 6.84957C4.06049 18.6349 4.06049 30.4201 4.06049 42.2054C4.06049 42.4321 4.06049 42.6587 4.06049 42.9987C4.17328 42.9987 4.17329 42.9987 4.28609 43.112C7.66982 39.7124 11.0536 36.3128 14.5501 32.6865C18.0466 36.1995 21.3176 39.5991 24.7013 42.9987C24.7013 38.3526 24.7013 33.7064 24.7013 29.0603C18.9489 27.9271 14.8884 24.7541 13.0838 19.2015C11.2791 13.5355 12.6326 8.66269 16.5803 4.24321ZM26.8443 4.24321C21.4303 4.12989 16.5803 8.77601 16.4675 14.3287C16.3547 19.9947 20.8664 24.8675 26.2804 24.9808C32.1455 25.0941 36.9955 20.6746 37.1083 14.8953C37.2211 9.11597 32.7095 4.35653 26.8443 4.24321Z" fill="#33A5EA"/>
<path d="M28.7616 12.516C30.2279 12.516 31.4686 12.516 32.9349 12.516C32.9349 13.8759 32.9349 15.2357 32.9349 16.5956C31.5814 16.5956 30.2279 16.5956 28.8744 16.5956C28.8744 17.9554 28.8744 19.3153 28.8744 20.7884C27.5209 20.7884 26.1674 20.7884 24.8139 20.7884C24.8139 19.4286 24.8139 18.0687 24.8139 16.7089C23.4604 16.7089 22.1069 16.7089 20.6406 16.7089C20.6406 15.2357 20.6406 13.9892 20.6406 12.516C21.9941 12.516 23.3476 12.516 24.7011 12.516C24.7011 11.1562 24.7011 9.79636 24.7011 8.43652C26.0546 8.43652 27.4081 8.43652 28.7616 8.43652C28.7616 9.79636 28.7616 11.0429 28.7616 12.516Z" fill="#182339"/>
</svg>
