<svg width="53" height="53" viewBox="0 0 53 53" fill="none" xmlns="http://www.w3.org/2000/svg">
<path d="M43.8759 26.5286C43.7631 36.3875 35.7549 44.2066 25.8293 44.2066C16.2421 44.0933 8.23389 36.0475 8.23389 26.4153C8.23389 16.1032 15.9037 8.51074 26.1677 8.51074C36.3189 8.51074 43.9887 16.3298 43.8759 26.5286ZM30.2282 29.475C30.2282 27.2086 30.2282 25.0555 30.2282 22.9024C27.4084 22.9024 24.7014 22.9024 21.8816 22.9024C21.8816 25.0555 21.8816 27.2086 21.8816 29.475C24.7014 29.475 27.4084 29.475 30.2282 29.475ZM34.4014 29.475C35.9805 29.475 37.5596 29.475 39.1387 29.475C39.2515 29.475 39.477 29.2483 39.5898 29.0217C40.041 27.0952 40.041 25.1688 39.5898 23.2424C39.5898 23.129 39.3642 22.9024 39.2515 22.9024C37.6724 22.9024 36.0933 22.9024 34.5142 22.9024C34.4014 25.0555 34.4014 27.2086 34.4014 29.475ZM17.8211 29.475C17.8211 27.2086 17.8211 25.0555 17.8211 22.7891C16.2421 22.7891 14.663 22.7891 13.0839 22.7891C12.9711 22.7891 12.7455 23.0157 12.7455 23.129C12.2944 25.0555 12.2944 26.9819 12.7455 28.9084C12.7455 29.0217 12.9711 29.3616 13.1967 29.3616C14.663 29.475 16.2421 29.475 17.8211 29.475ZM22.5584 33.6678C23.0095 35.7076 23.6863 37.634 24.927 39.3338C25.7165 40.3537 26.5061 40.3537 27.1828 39.3338C28.4235 37.634 29.1003 35.7076 29.5514 33.6678C27.2956 33.6678 25.0398 33.6678 22.5584 33.6678ZM29.5514 18.7095C29.1003 16.6698 28.4235 14.7433 27.07 13.0435C26.2805 12.137 25.6037 12.137 25.0398 13.0435C24.2502 14.1767 23.6863 15.4233 23.1223 16.6698C22.8968 17.2364 22.784 17.9163 22.5584 18.5962C25.0398 18.7096 27.1828 18.7095 29.5514 18.7095ZM14.4374 33.6678C15.7909 35.7076 17.4828 37.294 19.7386 38.5406C19.2874 36.8408 18.8363 35.2543 18.3851 33.6678C17.1444 33.6678 15.9037 33.6678 14.4374 33.6678ZM32.484 38.4272C34.627 37.294 36.3189 35.7076 37.6724 33.5545C36.4317 33.5545 35.3038 33.5545 34.1759 33.5545C33.9503 33.5545 33.7247 33.6678 33.6119 33.8944C33.2735 35.3676 32.9352 36.8408 32.484 38.4272ZM19.7386 14.0634C17.5956 15.1966 15.9037 16.6698 14.663 18.8229C15.9037 18.8229 17.0316 18.8229 18.0467 18.8229C18.2723 18.8229 18.4979 18.5962 18.6107 18.4829C18.9491 16.8964 19.2874 15.5366 19.7386 14.0634ZM37.6724 18.7095C36.3189 16.6698 34.627 15.0833 32.484 14.0634C32.9352 15.5366 33.2735 17.0097 33.7247 18.4829C33.7247 18.5962 34.0631 18.8229 34.1759 18.8229C35.3038 18.7095 36.3189 18.7095 37.6724 18.7095Z" fill="#34A5EA"/>
<path d="M0 26.3018C1.35349 26.3018 2.70699 26.3018 3.94769 26.3018C4.06048 27.6616 4.17327 29.0214 4.39885 30.268C5.97792 39.7868 14.2117 47.3793 23.7989 48.1725C29.3257 48.6258 34.7397 47.4926 39.9281 45.6795C41.2816 45.2262 42.635 44.6596 44.3269 43.9797C43.0862 43.5264 42.0711 43.0731 41.056 42.6199C41.5071 41.3733 42.0711 40.1268 42.5223 38.767C45.7932 40.0135 48.9514 41.3733 52.1095 42.6199C50.8688 45.9061 49.5153 49.0791 48.2746 52.2521C47.0339 51.7988 45.7932 51.2322 44.5525 50.7789C44.8909 49.8723 45.2293 48.8525 45.6804 47.8326C44.4397 48.2859 43.199 48.8525 42.0711 49.1924C36.0932 51.4588 30.0024 52.592 23.5733 52.1387C19.7384 51.9121 16.2419 50.6656 12.971 48.6258C6.31631 44.433 2.03023 38.5403 0.451158 30.8346C0.225575 29.8147 0.225572 28.6815 0.112781 27.6616C-1.0328e-05 27.3216 0 26.755 0 26.3018Z" fill="#192439"/>
<path d="M6.76748 4.54457C9.92563 3.41137 12.971 2.16485 16.1291 1.3716C21.2047 0.0117639 26.3931 -0.554837 31.5815 0.691684C42.5223 3.41137 49.2897 10.4372 51.7711 21.5426C52.1095 23.0157 52.1095 24.6022 52.3351 26.302C50.8688 26.302 49.5153 26.302 48.2746 26.302C48.1618 24.9422 48.049 23.6957 47.8235 22.3358C46.2444 12.8169 38.0106 5.22449 28.4234 4.43125C22.8966 3.97797 17.5954 4.99785 12.5198 6.92429C11.0535 7.49089 9.70004 8.05749 8.00817 8.73741C9.24887 9.19069 10.1512 9.64397 11.2791 10.0973C10.828 11.3438 10.264 12.5903 9.81284 13.9501C6.54189 12.7036 3.38374 11.4571 0.225586 10.0973C1.46629 6.92429 2.81978 3.63801 4.06048 0.465044C5.30118 0.918325 6.54189 1.48492 7.78259 1.93821C7.44422 2.95809 7.10585 3.86465 6.76748 4.77121L6.65468 4.88453C6.65468 4.54457 6.65469 4.54457 6.76748 4.54457Z" fill="#192439"/>
</svg>
