<svg width="203" height="41" viewBox="0 0 203 41" fill="none" xmlns="http://www.w3.org/2000/svg">
<g clip-path="url(#clip0_811_1455)">
<path d="M200.17 38.7245H201.018V34.2695H203V33.4431H198.224V34.2695H200.194L200.17 38.7245ZM193.256 35.6946C193.316 35.2542 193.532 34.8501 193.865 34.5569C194.196 34.2698 194.622 34.1162 195.059 34.1257C195.496 34.1196 195.921 34.2728 196.253 34.5569C196.596 34.8471 196.825 35.2505 196.898 35.6946H193.256ZM197.77 36.3772C197.77 36.2455 197.77 36.1497 197.77 36.0898C197.781 35.7256 197.717 35.363 197.581 35.0249C197.445 34.6868 197.241 34.3807 196.982 34.1257C196.732 33.8666 196.43 33.6625 196.097 33.5264C195.764 33.3903 195.407 33.3252 195.047 33.3353C194.688 33.3274 194.331 33.3935 193.998 33.5294C193.666 33.6654 193.364 33.8683 193.113 34.1257C192.857 34.383 192.656 34.6898 192.523 35.0275C192.389 35.3652 192.326 35.7267 192.337 36.0898C192.327 36.4549 192.393 36.8181 192.531 37.1562C192.669 37.4943 192.875 37.8 193.137 38.0539C193.403 38.3117 193.717 38.5143 194.061 38.65C194.405 38.7856 194.773 38.8517 195.143 38.8443C195.62 38.8534 196.091 38.7378 196.509 38.5089C196.928 38.28 197.28 37.9457 197.531 37.5389L196.707 37.2754C196.528 37.5199 196.291 37.7165 196.019 37.848C195.746 37.9795 195.445 38.042 195.143 38.0299C194.665 38.0462 194.2 37.8792 193.841 37.5629C193.492 37.256 193.27 36.8285 193.22 36.3653L197.77 36.3772ZM188.516 34.1856C188.756 34.1785 188.994 34.2241 189.215 34.3193C189.436 34.4144 189.633 34.5568 189.793 34.7365C189.969 34.9134 190.107 35.125 190.197 35.358C190.288 35.5909 190.329 35.8401 190.319 36.0898C190.328 36.3394 190.286 36.5882 190.195 36.8209C190.105 37.0536 189.968 37.2654 189.793 37.4431C189.631 37.6194 189.433 37.7587 189.213 37.8516C188.992 37.9446 188.755 37.9891 188.516 37.982C188.275 37.9862 188.037 37.9405 187.815 37.8478C187.593 37.7551 187.392 37.6173 187.226 37.4431C187.055 37.2632 186.921 37.0508 186.833 36.8184C186.745 36.586 186.704 36.3383 186.712 36.0898C186.703 35.8413 186.744 35.5934 186.832 35.3609C186.92 35.1284 187.054 34.9161 187.226 34.7365C187.39 34.5584 187.589 34.4172 187.812 34.3222C188.034 34.2273 188.274 34.1807 188.516 34.1856ZM188.42 33.3353C188.073 33.3241 187.727 33.389 187.408 33.5256C187.088 33.6621 186.802 33.8669 186.569 34.1257C186.321 34.3868 186.128 34.6951 186 35.0325C185.873 35.3699 185.815 35.7294 185.829 36.0898C185.817 36.45 185.876 36.809 186.003 37.1461C186.13 37.4832 186.323 37.7917 186.569 38.0539C186.805 38.3084 187.092 38.5103 187.411 38.6465C187.73 38.7827 188.074 38.8501 188.42 38.8443C188.786 38.8561 189.149 38.7834 189.483 38.6318C189.816 38.4802 190.11 38.2538 190.343 37.9701V38.7245H191.19V33.4431H190.343V34.1976C190.109 33.9161 189.814 33.6919 189.481 33.5425C189.148 33.393 188.785 33.3221 188.42 33.3353ZM182.629 38.7245H183.476V34.2695H185.447V33.4431H180.67V34.2695H182.653L182.629 38.7245ZM177.41 37.982C177.164 37.9891 176.92 37.9448 176.691 37.852C176.463 37.7593 176.257 37.62 176.085 37.4431C175.909 37.2659 175.77 37.0546 175.677 36.8219C175.585 36.5893 175.541 36.3402 175.548 36.0898C175.539 35.8393 175.583 35.5898 175.675 35.3569C175.768 35.124 175.907 34.9128 176.085 34.7365C176.254 34.5556 176.46 34.413 176.689 34.318C176.917 34.223 177.163 34.1779 177.41 34.1856C177.659 34.1785 177.907 34.2238 178.137 34.3187C178.368 34.4136 178.576 34.5559 178.748 34.7365C178.934 34.9087 179.082 35.118 179.183 35.3511C179.284 35.5841 179.335 35.8358 179.333 36.0898C179.34 36.3402 179.296 36.5893 179.203 36.8219C179.111 37.0546 178.972 37.2659 178.796 37.4431C178.616 37.6259 178.399 37.7683 178.161 37.8612C177.922 37.9541 177.666 37.9953 177.41 37.982ZM175.44 38.0539C175.7 38.3107 176.007 38.5129 176.346 38.6486C176.684 38.7843 177.046 38.8509 177.41 38.8443C177.773 38.8506 178.133 38.7839 178.469 38.6482C178.806 38.5124 179.112 38.3103 179.369 38.0539C179.631 37.8 179.837 37.4943 179.975 37.1562C180.112 36.8181 180.178 36.4549 180.169 36.0898C180.181 35.7244 180.116 35.3606 179.978 35.0222C179.84 34.6837 179.632 34.3783 179.369 34.1257C179.113 33.8671 178.808 33.6635 178.471 33.5276C178.134 33.3917 177.773 33.3262 177.41 33.3353C177.046 33.326 176.683 33.3913 176.344 33.5272C176.005 33.6631 175.698 33.8667 175.44 34.1257C175.184 34.383 174.984 34.6898 174.85 35.0275C174.717 35.3652 174.653 35.7267 174.664 36.0898C174.655 36.4527 174.72 36.8135 174.853 37.1509C174.986 37.4884 175.186 37.7954 175.44 38.0539ZM171.082 37.982C170.837 37.9811 170.595 37.9296 170.371 37.8307C170.147 37.7318 169.946 37.5876 169.78 37.4072C169.609 37.2272 169.476 37.0148 169.387 36.7825C169.299 36.5501 169.258 36.3024 169.267 36.0539C169.257 35.8053 169.298 35.5574 169.386 35.325C169.475 35.0925 169.609 34.8802 169.78 34.7006C169.948 34.5212 170.152 34.3795 170.378 34.2845C170.605 34.1896 170.848 34.1437 171.094 34.1497C171.334 34.1426 171.573 34.1882 171.793 34.2833C172.014 34.3785 172.211 34.5209 172.371 34.7006C172.545 34.8792 172.681 35.0911 172.771 35.3236C172.862 35.5561 172.904 35.8045 172.897 36.0539C172.903 36.3031 172.86 36.5511 172.77 36.7835C172.679 37.0158 172.544 37.2278 172.371 37.4072C172.211 37.5915 172.013 37.7385 171.79 37.8378C171.567 37.9371 171.325 37.9863 171.082 37.982ZM168.12 34.8922C168.047 35.942 168.343 36.9844 168.956 37.8383C169.312 38.2685 169.791 38.5778 170.329 38.7238C170.867 38.8697 171.436 38.8453 171.959 38.6537C172.483 38.4622 172.934 38.1129 173.251 37.6539C173.569 37.1948 173.737 36.6485 173.733 36.0898C173.743 35.7277 173.681 35.3672 173.55 35.0297C173.419 34.6922 173.221 34.3848 172.968 34.1257C172.724 33.8693 172.429 33.6667 172.102 33.5306C171.775 33.3946 171.424 33.3281 171.07 33.3353C170.61 33.3195 170.156 33.4516 169.776 33.7122C169.396 33.9729 169.109 34.3486 168.956 34.7844C168.89 34.4467 168.9 34.0983 168.986 33.765C169.072 33.4317 169.231 33.122 169.453 32.8588C169.674 32.5956 169.951 32.3855 170.264 32.2442C170.577 32.1028 170.918 32.0337 171.261 32.0419L173.124 31.8503V31C172.73 31 172.085 31.0958 171.201 31.1916C169.123 31.4192 168.12 32.5329 168.12 34.8922ZM164.24 34.1856C164.481 34.1792 164.722 34.225 164.944 34.3201C165.167 34.4151 165.366 34.5572 165.529 34.7365C165.703 34.9151 165.839 35.127 165.929 35.3595C166.02 35.592 166.062 35.8404 166.055 36.0898C166.061 36.3391 166.018 36.5871 165.927 36.8194C165.837 37.0517 165.702 37.2637 165.529 37.4431C165.364 37.6185 165.164 37.757 164.941 37.8499C164.719 37.9427 164.48 37.9877 164.24 37.982C163.999 37.9855 163.761 37.9395 163.539 37.8468C163.317 37.7541 163.117 37.6167 162.95 37.4431C162.779 37.2632 162.645 37.0508 162.557 36.8184C162.469 36.586 162.428 36.3383 162.436 36.0898C162.427 35.8413 162.468 35.5934 162.556 35.3609C162.644 35.1284 162.778 34.9161 162.95 34.7365C163.114 34.559 163.314 34.4182 163.536 34.3233C163.758 34.2284 163.998 34.1815 164.24 34.1856ZM164.144 33.3353C163.797 33.3241 163.451 33.389 163.132 33.5256C162.812 33.6621 162.526 33.8669 162.293 34.1257C162.047 34.3883 161.855 34.6969 161.728 35.0339C161.601 35.3709 161.542 35.7297 161.553 36.0898C161.534 36.8164 161.8 37.5215 162.293 38.0539C162.53 38.3078 162.816 38.5093 163.135 38.6454C163.454 38.7816 163.798 38.8493 164.144 38.8443C164.512 38.8579 164.878 38.7861 165.213 38.6345C165.549 38.4828 165.845 38.2554 166.078 37.9701V38.7245H166.926V33.4431H166.078V34.1976C165.844 33.9144 165.547 33.6893 165.212 33.5398C164.876 33.3902 164.511 33.3203 164.144 33.3353ZM157.971 34.1856C158.212 34.1792 158.453 34.225 158.675 34.3201C158.898 34.4151 159.097 34.5572 159.26 34.7365C159.434 34.9151 159.57 35.127 159.66 35.3595C159.751 35.592 159.793 35.8404 159.786 36.0898C159.792 36.3391 159.749 36.5871 159.658 36.8194C159.568 37.0517 159.433 37.2637 159.26 37.4431C159.095 37.6185 158.894 37.757 158.672 37.8499C158.45 37.9427 158.211 37.9877 157.971 37.982C157.722 37.986 157.475 37.9368 157.246 37.8376C157.018 37.7385 156.813 37.5918 156.645 37.4072C156.474 37.2272 156.34 37.0148 156.252 36.7825C156.164 36.5501 156.123 36.3024 156.132 36.0539C156.123 35.564 156.307 35.0905 156.645 34.7365C156.813 34.5544 157.019 34.4109 157.248 34.3158C157.477 34.2207 157.723 34.1763 157.971 34.1856ZM156.144 41V37.9701C156.376 38.2538 156.67 38.4802 157.003 38.6318C157.337 38.7834 157.7 38.8561 158.066 38.8443C158.412 38.8478 158.755 38.7794 159.074 38.6434C159.392 38.5074 159.679 38.3067 159.917 38.0539C160.414 37.5227 160.684 36.8179 160.669 36.0898C160.687 35.3611 160.417 34.6548 159.917 34.1257C159.681 33.8706 159.395 33.6683 159.076 33.5321C158.757 33.3959 158.413 33.3288 158.066 33.3353C157.701 33.3221 157.338 33.393 157.005 33.5425C156.672 33.6919 156.377 33.9161 156.144 34.1976V33.4431H155.296V41H156.144ZM148.764 35.9701C148.654 35.9686 148.546 35.9449 148.446 35.9003C148.345 35.8557 148.255 35.7911 148.18 35.7105C148.105 35.6299 148.048 35.535 148.01 35.4314C147.973 35.3278 147.957 35.2177 147.964 35.1078C147.957 34.9985 147.973 34.8889 148.011 34.786C148.048 34.683 148.106 34.5888 148.181 34.5092C148.256 34.4295 148.346 34.3661 148.446 34.3228C148.547 34.2795 148.655 34.2573 148.764 34.2575H150.782V35.9701H148.764ZM149.397 36.7964H150.782V38.7126H151.642V33.4431H148.764C148.319 33.4431 147.892 33.6146 147.57 33.9222C147.362 34.1414 147.216 34.4121 147.146 34.7065C147.076 35.0009 147.086 35.3085 147.173 35.5982C147.26 35.8878 147.423 36.1491 147.643 36.3553C147.864 36.5616 148.135 36.7055 148.43 36.7725L147.092 38.7245H148.095L149.397 36.7964ZM143.152 34.1856C143.394 34.1784 143.634 34.2239 143.857 34.319C144.08 34.4141 144.279 34.5566 144.441 34.7365C144.617 34.9134 144.755 35.125 144.845 35.358C144.936 35.5909 144.977 35.8401 144.967 36.0898C144.971 36.3334 144.927 36.5754 144.836 36.8016C144.746 37.0278 144.612 37.2337 144.441 37.4072C144.274 37.5777 144.074 37.7132 143.853 37.8056C143.633 37.898 143.397 37.9456 143.158 37.9456C142.919 37.9456 142.682 37.898 142.462 37.8056C142.242 37.7132 142.042 37.5777 141.874 37.4072C141.701 37.2278 141.566 37.0158 141.476 36.7835C141.386 36.5511 141.342 36.3031 141.349 36.0539C141.341 35.8045 141.384 35.5561 141.474 35.3236C141.564 35.0911 141.7 34.8792 141.874 34.7006C142.039 34.5293 142.238 34.3949 142.458 34.3061C142.678 34.2174 142.915 34.1763 143.152 34.1856ZM143.068 33.3353C142.721 33.3241 142.375 33.389 142.056 33.5256C141.736 33.6621 141.45 33.8669 141.217 34.1257C140.969 34.3868 140.776 34.6951 140.649 35.0325C140.521 35.3699 140.463 35.7294 140.477 36.0898C140.465 36.45 140.524 36.809 140.651 37.1461C140.778 37.4832 140.971 37.7917 141.217 38.0539C141.453 38.3084 141.74 38.5103 142.059 38.6465C142.378 38.7827 142.722 38.8501 143.068 38.8443C143.434 38.8561 143.798 38.7834 144.131 38.6318C144.464 38.4802 144.758 38.2538 144.991 37.9701V38.7245H145.898V33.4431H145.05V34.1976C144.811 33.9077 144.506 33.6786 144.162 33.5288C143.818 33.379 143.443 33.3127 143.068 33.3353ZM136.883 34.1856C137.125 34.1784 137.365 34.2239 137.588 34.319C137.811 34.4141 138.01 34.5566 138.172 34.7365C138.355 34.9103 138.499 35.1205 138.596 35.3536C138.692 35.5867 138.739 35.8375 138.734 36.0898C138.733 36.336 138.683 36.5795 138.587 36.8058C138.49 37.0321 138.349 37.2367 138.172 37.4072C138.005 37.5777 137.805 37.7132 137.584 37.8056C137.364 37.898 137.128 37.9456 136.889 37.9456C136.65 37.9456 136.413 37.898 136.193 37.8056C135.973 37.7132 135.773 37.5777 135.605 37.4072C135.432 37.2278 135.297 37.0158 135.207 36.7835C135.117 36.5511 135.073 36.3031 135.08 36.0539C135.072 35.8045 135.115 35.5561 135.205 35.3236C135.295 35.0911 135.431 34.8792 135.605 34.7006C135.77 34.5293 135.969 34.3949 136.189 34.3061C136.409 34.2174 136.646 34.1763 136.883 34.1856ZM135.068 41V37.9701C135.299 38.2522 135.591 38.4776 135.922 38.6291C136.253 38.7806 136.614 38.8542 136.978 38.8443C137.325 38.8501 137.669 38.7827 137.987 38.6465C138.306 38.5103 138.593 38.3084 138.829 38.0539C139.077 37.7923 139.271 37.4841 139.4 37.1471C139.53 36.81 139.591 36.4507 139.581 36.0898C139.593 35.7287 139.533 35.3688 139.403 35.0315C139.274 34.6941 139.079 34.3862 138.829 34.1257C138.596 33.8669 138.31 33.6621 137.991 33.5256C137.671 33.389 137.326 33.3241 136.978 33.3353C136.615 33.324 136.255 33.3957 135.924 33.5451C135.593 33.6945 135.3 33.9177 135.068 34.1976V33.4431H134.208V41H135.068ZM130.291 37.9701C130.044 37.9726 129.798 37.9239 129.57 37.827C129.342 37.7302 129.136 37.5873 128.966 37.4072C128.789 37.23 128.651 37.0187 128.558 36.786C128.466 36.5533 128.422 36.3042 128.428 36.0539C128.42 35.8034 128.464 35.5539 128.556 35.321C128.649 35.0881 128.788 34.8769 128.966 34.7006C129.319 34.3474 129.798 34.149 130.297 34.149C130.796 34.149 131.275 34.3474 131.629 34.7006C131.806 34.8769 131.946 35.0881 132.038 35.321C132.131 35.5539 132.174 35.8034 132.166 36.0539C132.173 36.3042 132.129 36.5533 132.036 36.786C131.944 37.0187 131.805 37.23 131.629 37.4072C131.457 37.5903 131.25 37.736 131.02 37.8349C130.79 37.9338 130.542 37.9839 130.291 37.982V37.9701ZM128.333 38.0419C128.59 38.2983 128.896 38.5004 129.232 38.6362C129.569 38.7719 129.929 38.8386 130.291 38.8323C130.656 38.8389 131.018 38.7724 131.356 38.6366C131.694 38.5009 132.002 38.2987 132.262 38.0419C132.519 37.7857 132.722 37.4793 132.858 37.1416C132.993 36.8038 133.059 36.4418 133.05 36.0778C133.061 35.7136 132.997 35.351 132.861 35.0129C132.725 34.6749 132.521 34.3687 132.262 34.1138C132.004 33.8548 131.696 33.6511 131.358 33.5152C131.019 33.3793 130.656 33.314 130.291 33.3234C129.928 33.3143 129.567 33.3797 129.231 33.5156C128.894 33.6516 128.588 33.8551 128.333 34.1138C128.073 34.3687 127.869 34.6749 127.734 35.0129C127.598 35.351 127.534 35.7136 127.545 36.0778C127.534 36.4438 127.599 36.8081 127.734 37.148C127.87 37.4879 128.074 37.7963 128.333 38.0539V38.0419ZM124.404 38.7245H125.252V34.2695H127.234V33.4431H122.458V34.2695H124.404V38.7245ZM119.186 37.982C118.928 37.9915 118.67 37.945 118.431 37.8458C118.192 37.7466 117.977 37.597 117.801 37.4072C117.625 37.2362 117.484 37.0316 117.388 36.8054C117.291 36.5791 117.241 36.3358 117.24 36.0898C117.232 35.8393 117.275 35.5898 117.368 35.3569C117.46 35.124 117.599 34.9128 117.777 34.7365C118.131 34.3833 118.609 34.185 119.109 34.185C119.608 34.185 120.086 34.3833 120.44 34.7365C120.618 34.9128 120.757 35.124 120.849 35.3569C120.942 35.5898 120.985 35.8393 120.977 36.0898C120.982 36.3325 120.94 36.5738 120.851 36.7998C120.763 37.0259 120.632 37.2323 120.464 37.4072C120.293 37.5915 120.086 37.7379 119.856 37.8369C119.626 37.936 119.377 37.9854 119.126 37.982H119.186ZM117.228 38.0539C117.757 38.5612 118.46 38.8443 119.192 38.8443C119.924 38.8443 120.628 38.5612 121.156 38.0539C121.414 37.7977 121.617 37.4913 121.753 37.1535C121.888 36.8158 121.954 36.4538 121.945 36.0898C121.956 35.7256 121.891 35.363 121.756 35.0249C121.62 34.6868 121.416 34.3807 121.156 34.1257C120.628 33.6185 119.924 33.3353 119.192 33.3353C118.46 33.3353 117.757 33.6185 117.228 34.1257C116.968 34.3807 116.764 34.6868 116.628 35.0249C116.493 35.363 116.429 35.7256 116.44 36.0898C116.423 36.4495 116.479 36.809 116.604 37.1465C116.729 37.484 116.921 37.7927 117.168 38.0539H117.228ZM112.463 33.4431H111.616V38.7245H112.463V33.4431ZM116.046 38.7245L113.657 35.994L115.819 33.4431H114.78L112.607 35.994L114.995 38.7245H116.046ZM108.224 38.497C108.224 37.9701 107.95 37.6228 107.556 37.6228C107.476 37.6195 107.396 37.6326 107.322 37.6614C107.247 37.6902 107.179 37.7339 107.122 37.79C107.065 37.8462 107.02 37.9134 106.99 37.9876C106.96 38.0618 106.945 38.1414 106.947 38.2216C106.947 38.3707 107 38.5149 107.096 38.6288C107.192 38.7427 107.325 38.819 107.472 38.8443C107.469 38.99 107.423 39.1316 107.341 39.2515C107.275 39.3729 107.195 39.4856 107.102 39.5868C107.064 39.6467 107.015 39.6994 106.959 39.7425L107.245 40.0299C107.517 39.8712 107.747 39.649 107.916 39.3822C108.084 39.1153 108.186 38.8117 108.212 38.497H108.224ZM103.054 34.1856C103.296 34.1792 103.536 34.225 103.759 34.3201C103.981 34.4151 104.181 34.5572 104.343 34.7365C104.517 34.9151 104.653 35.127 104.744 35.3595C104.834 35.592 104.877 35.8404 104.869 36.0898C104.869 36.5826 104.676 37.0557 104.332 37.4072C104.166 37.5825 103.966 37.7211 103.744 37.8139C103.522 37.9068 103.283 37.9518 103.042 37.9461C102.796 37.9546 102.55 37.911 102.322 37.8182C102.094 37.7253 101.887 37.5853 101.716 37.4072C101.545 37.2272 101.412 37.0148 101.324 36.7825C101.236 36.5501 101.195 36.3024 101.203 36.0539C101.194 35.564 101.379 35.0905 101.716 34.7365C101.885 34.5544 102.09 34.4109 102.319 34.3158C102.548 34.2207 102.794 34.1763 103.042 34.1856H103.054ZM102.911 33.3353C102.563 33.3241 102.218 33.389 101.898 33.5256C101.578 33.6621 101.292 33.8669 101.06 34.1257C100.814 34.3883 100.622 34.6969 100.495 35.0339C100.368 35.3709 100.308 35.7297 100.319 36.0898C100.301 36.8164 100.566 37.5215 101.06 38.0539C101.296 38.3078 101.583 38.5093 101.902 38.6454C102.221 38.7816 102.564 38.8493 102.911 38.8443C103.278 38.8579 103.644 38.7861 103.98 38.6345C104.315 38.4828 104.612 38.2554 104.845 37.9701V38.7245H105.693V33.4431H104.845V34.1976C104.61 33.9144 104.314 33.6893 103.978 33.5398C103.643 33.3902 103.277 33.3203 102.911 33.3353ZM94.3131 35.012L96.0564 38.0778H96.5938L98.3252 35.0359V38.7245H99.185V33.4431H98.3252L96.3191 36.9521L94.3131 33.4431H93.4533V38.7245H94.3131V35.012ZM87.841 35.6587C87.9007 35.2182 88.117 34.8142 88.45 34.521C88.7811 34.2339 89.2066 34.0803 89.6441 34.0898C90.0811 34.0837 90.5054 34.2369 90.8382 34.521C91.1813 34.8112 91.4099 35.2146 91.483 35.6587H87.841ZM92.3547 36.3413C92.3547 36.2096 92.3547 36.1138 92.3547 36.0539C92.3659 35.6897 92.3017 35.327 92.166 34.989C92.0304 34.6509 91.8263 34.3447 91.5666 34.0898C91.3165 33.8307 91.0154 33.6265 90.6823 33.4905C90.3493 33.3544 89.9917 33.2893 89.6322 33.2994C89.273 33.2915 88.916 33.3575 88.5833 33.4935C88.2505 33.6294 87.9492 33.8324 87.6977 34.0898C87.442 34.347 87.2412 34.6539 87.1078 34.9916C86.9743 35.3293 86.911 35.6908 86.9216 36.0539C86.9119 36.419 86.978 36.7822 87.1158 37.1203C87.2535 37.4584 87.4598 37.7641 87.7216 38.018C87.9902 38.2881 88.3108 38.5007 88.6639 38.6428C89.017 38.7848 89.3952 38.8534 89.7755 38.8443C90.2523 38.8534 90.7233 38.7378 91.142 38.5089C91.5608 38.28 91.9129 37.9457 92.1637 37.5389L91.3398 37.2754C91.1604 37.5199 90.924 37.7165 90.6513 37.848C90.3786 37.9795 90.0779 38.042 89.7755 38.0299C89.2981 38.0462 88.8326 37.8792 88.4739 37.5629C88.1244 37.256 87.9028 36.8285 87.853 36.3653L92.3547 36.3413ZM83.805 38.7245H84.6528V34.2695H86.635V33.4431H81.8586V34.2695H83.805V38.7245ZM81.2974 34.9281C81.0796 34.444 80.7246 34.0348 80.2765 33.7516C79.8285 33.4683 79.3073 33.3236 78.7778 33.3353C78.4149 33.3262 78.054 33.3917 77.7172 33.5276C77.3805 33.6635 77.075 33.8671 76.8195 34.1257C76.5599 34.3807 76.3558 34.6868 76.2201 35.0249C76.0844 35.363 76.0202 35.7256 76.0314 36.0898C76.0223 36.4538 76.0876 36.8158 76.2231 37.1535C76.3586 37.4913 76.5616 37.7977 76.8195 38.0539C77.1397 38.3629 77.5284 38.5913 77.9538 38.7202C78.3791 38.8491 78.8289 38.8749 79.2661 38.7954C79.7033 38.7158 80.1155 38.5333 80.4686 38.2628C80.8218 37.9924 81.1058 37.6416 81.2974 37.2395L80.4376 36.988C80.2813 37.2928 80.043 37.5475 79.7496 37.7232C79.4562 37.899 79.1195 37.9886 78.7778 37.982C78.5193 37.9915 78.2619 37.945 78.0229 37.8458C77.7839 37.7466 77.5689 37.597 77.3927 37.4072C77.2162 37.23 77.0775 37.0187 76.9851 36.786C76.8928 36.5533 76.8486 36.3042 76.8553 36.0539C76.8472 35.8034 76.8907 35.5539 76.9832 35.321C77.0756 35.0881 77.215 34.8769 77.3927 34.7006C77.5629 34.5209 77.7688 34.3791 77.9971 34.2842C78.2255 34.1893 78.4711 34.1435 78.7181 34.1497C79.0598 34.1431 79.3965 34.2328 79.6899 34.4085C79.9833 34.5842 80.2216 34.8389 80.3779 35.1437L81.2974 34.9281ZM74.0134 34.9281V38.7245H74.8612V33.4431H74.1447L70.8609 37.3114V33.4431H70.0012V38.7245H70.6699L74.0134 34.9281ZM65.6547 31.5509C65.1722 31.5411 64.6926 31.6292 64.2449 31.8099C63.7972 31.9906 63.3905 32.2602 63.0492 32.6025C62.708 32.9447 62.4392 33.3526 62.259 33.8017C62.0788 34.2507 61.991 34.7316 62.0007 35.2156C61.9912 36.1664 62.3578 37.0823 63.0204 37.7625C63.6829 38.4426 64.5872 38.8317 65.5353 38.8443C66.1886 38.8581 66.8332 38.6925 67.3994 38.3653C67.9655 38.0381 68.4317 37.5618 68.7474 36.988L67.8638 36.6527C67.6244 37.0564 67.2831 37.3897 66.8742 37.6189C66.4654 37.8481 66.0036 37.9651 65.5353 37.9581C65.1761 37.966 64.8191 37.8999 64.4863 37.764C64.1536 37.628 63.8522 37.4251 63.6008 37.1677C63.3462 36.9022 63.1466 36.5888 63.0134 36.2455C62.8801 35.9022 62.816 35.5359 62.8247 35.1677C62.8152 34.8029 62.879 34.44 63.0124 34.1005C63.1457 33.761 63.3458 33.4519 63.6008 33.1916C63.8499 32.9303 64.1506 32.7239 64.4837 32.5858C64.8167 32.4476 65.1749 32.3807 65.5353 32.3892C66.0026 32.3798 66.4642 32.4944 66.8731 32.7216C67.282 32.9487 67.6238 33.2803 67.8638 33.6826L68.7474 33.3473C68.4301 32.7757 67.9633 32.3019 67.3972 31.9769C66.8312 31.6518 66.1874 31.488 65.5353 31.503L65.6547 31.5509Z" fill="#162137"/>
<path d="M144.341 26.4724H152.113V6.79983H156.5C159.754 6.79983 162.46 9.5901 162.46 13.541C162.46 17.492 159.766 20.1884 156.5 20.1884H155.486V26.449H156.44C163.997 26.449 170.172 20.9622 170.172 13.5528C170.158 11.8103 169.792 10.088 169.095 8.48623C168.398 6.88441 167.383 5.43512 166.11 4.22281C164.838 3.0105 163.333 2.05942 161.683 1.425C160.033 0.790584 158.271 0.485515 156.5 0.527573H144.341V26.4724ZM140.932 26.4724H133.16V6.79983H128.774C125.531 6.79983 122.813 9.5901 122.813 13.541C122.813 17.492 125.507 20.1884 128.774 20.1884H129.727V26.449H128.774C121.216 26.449 115.042 20.9622 115.042 13.5528C115.055 11.8053 115.423 10.078 116.124 8.47228C116.825 6.86651 117.845 5.41453 119.124 4.20143C120.403 2.98832 121.915 2.03851 123.572 1.40766C125.229 0.776799 126.997 0.477592 128.774 0.527573H140.932V26.4724ZM188.219 20.7277C184.059 20.7277 181.186 17.8671 181.186 13.4824C181.186 9.0977 184.059 6.23708 188.219 6.23708C192.379 6.23708 195.216 9.13287 195.216 13.4824C195.216 17.832 192.439 20.7277 188.219 20.7277ZM188.219 27C197.028 27 203 21.7477 203 13.4824C203 5.21711 197.028 0 188.219 0C179.41 0 173.367 5.21711 173.367 13.4824C173.367 21.7477 179.327 26.9648 188.219 26.9648V27ZM92 26.4724H99.7719V15.4168H100.141L107.508 26.4724H116.687L106.888 12.8962L116.579 0.527573H107.401L100.141 10.6335H99.7719V0.527573H92V26.4724Z" fill="#162137"/>
<path fill-rule="evenodd" clip-rule="evenodd" d="M81 27H84V1H81V27Z" fill="#1F4D73"/>
<path fill-rule="evenodd" clip-rule="evenodd" d="M78 27H80V1H78V27Z" fill="#2979AE"/>
<path d="M76 1H75V27H76V1Z" fill="#32A4EA"/>
<path d="M88 1H85V27H88V1Z" fill="#162137"/>
<path d="M38 27H45.5255V11.4211H45.8952L51.4886 27H57.4995L63.1167 11.3859H63.4745V27H71V1H62.0434H60.5287H60.0278L54.494 16.3909L48.9722 1H48.2924H46.9566H38V27Z" fill="#32A4EA"/>
<path d="M27.5536 18.0342H0.324219V18.9307H27.5536V18.0342Z" fill="white"/>
<path fill-rule="evenodd" clip-rule="evenodd" d="M20.0414 14.4476C21.6124 14.4476 22.8583 13.2579 22.8583 11.758C22.8583 10.258 21.5582 9.06836 20.0414 9.06836C18.4705 9.06836 17.2246 10.3097 17.2246 11.758C17.2246 13.2062 18.4705 14.4476 20.0414 14.4476Z" fill="#BCBEC0"/>
<path fill-rule="evenodd" clip-rule="evenodd" d="M6.89691 14.4476C8.46783 14.4476 9.71373 13.2579 9.71373 11.758C9.71373 10.258 8.46783 9.06836 6.89691 9.06836C5.32599 9.06836 4.08008 10.258 4.08008 11.758C4.08008 13.2579 5.32599 14.4476 6.89691 14.4476Z" fill="#BCBEC0"/>
<path d="M27.5536 1H0.324219V18.9308H27.5536V1Z" fill="#002B46"/>
<path fill-rule="evenodd" clip-rule="evenodd" d="M6.40291 17.1374C9.24696 17.1374 11.592 14.7466 11.592 11.7841C11.592 8.82165 9.29685 6.37891 6.40291 6.37891C3.55887 6.37891 1.26367 8.76967 1.26367 11.7841C1.26367 14.7466 3.55887 17.1374 6.40291 17.1374Z" fill="white"/>
<path fill-rule="evenodd" clip-rule="evenodd" d="M14.4076 16.2416L12.0333 9.96582L11.0619 12.2527L10.6842 11.4018L9.71289 11.5082L11.4936 16.2416H14.4076Z" fill="white"/>
<path fill-rule="evenodd" clip-rule="evenodd" d="M6.89691 9.06836C8.46783 9.06836 9.71373 10.258 9.71373 11.758C9.71373 13.2579 8.46783 14.4476 6.89691 14.4476C5.32599 14.4476 4.08008 13.2579 4.08008 11.758C4.08008 10.258 5.38016 9.06836 6.89691 9.06836Z" fill="#ED1C2E"/>
<path fill-rule="evenodd" clip-rule="evenodd" d="M6.89691 9.06836C8.46783 9.06836 9.71373 10.258 9.71373 11.758C9.71373 13.2579 8.46783 14.4476 6.89691 14.4476C5.32599 14.4476 4.08008 13.2579 4.08008 11.758C4.08008 10.258 5.38016 9.06836 6.89691 9.06836Z" fill="#D22E12"/>
<path fill-rule="evenodd" clip-rule="evenodd" d="M19.5474 17.1374C22.3915 17.1374 24.7366 14.7466 24.7366 11.7841C24.7366 8.82165 22.3915 6.37891 19.5474 6.37891C16.7034 6.37891 14.4082 8.82165 14.4082 11.7841C14.4082 14.7466 16.7034 17.1374 19.5474 17.1374Z" fill="white"/>
<path fill-rule="evenodd" clip-rule="evenodd" d="M26.6151 15.3446L21.8077 1.89648H19.1035L23.961 15.3446H26.6151Z" fill="white"/>
<path fill-rule="evenodd" clip-rule="evenodd" d="M20.0414 9.06836C21.6124 9.06836 22.8583 10.258 22.8583 11.758C22.8583 13.2579 21.6124 14.4476 20.0414 14.4476C18.4705 14.4476 17.2246 13.2579 17.2246 11.758C17.2246 10.258 18.4705 9.06836 20.0414 9.06836Z" fill="#ED1C2E"/>
<path fill-rule="evenodd" clip-rule="evenodd" d="M20.0414 9.06836C21.6124 9.06836 22.8583 10.258 22.8583 11.758C22.8583 13.2579 21.6124 14.4476 20.0414 14.4476C18.4705 14.4476 17.2246 13.2579 17.2246 11.758C17.2246 10.258 18.4705 9.06836 20.0414 9.06836Z" fill="#D22E12"/>
<path fill-rule="evenodd" clip-rule="evenodd" d="M19.1028 5.48259L18.0993 2.79297H10.6523L11.603 5.48259H19.1028Z" fill="white"/>
<path d="M27.5536 18.9316H0.324219V27.0005H27.5536V18.9316Z" fill="#D22E12"/>
<path d="M19.1865 25.1002L20.3933 21.6746H21.7051L22.8594 25.1002H21.5477L21.4427 24.672H20.5508L20.4458 25.1002H19.1865ZM20.8131 23.8691H21.3378L21.2329 23.4945C21.1804 23.2804 21.1279 23.1733 21.1279 23.0663C21.1279 22.9592 21.0755 22.8522 21.0755 22.7451C21.0755 22.8522 21.0755 22.9592 21.023 23.0663C21.023 23.1733 20.9705 23.3339 20.918 23.4945L20.8131 23.8691ZM17.7698 21.6746H18.9766V25.1002H17.7698V21.6746ZM14.5691 24.779L14.9364 23.8156C15.0938 23.9227 15.2512 24.0297 15.4087 24.0832C15.5661 24.1368 15.671 24.1903 15.776 24.1903C15.8809 24.1903 15.9334 24.1903 15.9858 24.1368C16.0383 24.0832 16.0383 24.0832 16.0383 24.0297C16.0383 23.9227 15.9334 23.8691 15.671 23.8156C15.6185 23.8156 15.5136 23.7621 15.5136 23.7621C15.2512 23.7086 15.0938 23.6015 14.9364 23.4409C14.779 23.2804 14.7265 23.0663 14.7265 22.8522C14.7265 22.4775 14.8315 22.2099 15.0938 21.9422C15.3562 21.7281 15.671 21.6211 16.0908 21.6211C16.3007 21.6211 16.4581 21.6211 16.6679 21.6746C16.8778 21.7281 17.0352 21.7817 17.2451 21.8887L16.8778 22.7986C16.7729 22.6916 16.668 22.6381 16.5105 22.5845C16.4056 22.531 16.3007 22.531 16.1957 22.531C16.0908 22.531 16.0383 22.531 15.9858 22.5845C15.9334 22.6381 15.9334 22.6381 15.9334 22.6916C15.9334 22.7986 16.0908 22.8522 16.4581 22.9592C16.5105 22.9592 16.563 22.9592 16.563 23.0127C16.7729 23.0663 16.9828 23.1733 17.0877 23.3339C17.2451 23.4945 17.2976 23.7085 17.2976 23.9226C17.2976 24.2973 17.1402 24.6185 16.8778 24.8326C16.6155 25.0467 16.2482 25.2072 15.8284 25.2072C15.6185 25.2072 15.4087 25.1537 15.1463 25.1002C15.0414 24.9931 14.8315 24.9396 14.5691 24.779ZM11.7357 24.779L12.103 23.8156C12.2604 23.9227 12.4179 24.0297 12.5753 24.0832C12.7327 24.1368 12.8376 24.1903 12.9426 24.1903C13.0475 24.1903 13.1 24.1903 13.1524 24.1368C13.2049 24.0832 13.2049 24.0832 13.2049 24.0297C13.2049 23.9227 13.1 23.8691 12.8376 23.8156C12.7851 23.8156 12.6802 23.7621 12.6802 23.7621C12.4179 23.7086 12.2604 23.6015 12.103 23.4409C11.9456 23.2804 11.8931 23.0663 11.8931 22.8522C11.8931 22.4775 11.9981 22.2099 12.2604 21.9422C12.5228 21.7281 12.8376 21.6211 13.2574 21.6211C13.4673 21.6211 13.6247 21.6211 13.8345 21.6746C14.0444 21.7281 14.2018 21.7817 14.4117 21.8887L14.0444 22.7986C13.9395 22.6916 13.8345 22.6381 13.6771 22.5845C13.5722 22.531 13.4673 22.531 13.3623 22.531C13.2574 22.531 13.2049 22.531 13.1524 22.5845C13.1 22.6381 13.1 22.6381 13.1 22.6916C13.1 22.7986 13.2574 22.8522 13.6247 22.9592C13.6771 22.9592 13.7296 22.9592 13.7296 23.0127C13.9395 23.0663 14.1494 23.1733 14.2543 23.3339C14.4117 23.4945 14.4642 23.7085 14.4642 23.9226C14.4642 24.2973 14.3068 24.6185 14.0444 24.8326C13.7821 25.0467 13.4148 25.2072 12.995 25.2072C12.7851 25.2072 12.5753 25.1537 12.3129 25.1002C12.1555 24.9931 11.9456 24.9396 11.7357 24.779ZM8.32516 23.548V21.6746H9.53198V23.548C9.53198 23.7621 9.53198 23.9226 9.58445 23.9762C9.63692 24.0832 9.74186 24.0832 9.8468 24.0832C9.95174 24.0832 10.0567 24.0297 10.1092 23.9762C10.1616 23.8691 10.1616 23.7621 10.1616 23.548V21.6746H11.3684V23.548C11.3684 23.8156 11.3684 23.9762 11.316 24.1368C11.2635 24.2973 11.211 24.4044 11.1586 24.5114C11.0011 24.7255 10.8437 24.8861 10.6339 24.9931C10.424 25.1002 10.1616 25.1537 9.8468 25.1537C9.53198 25.1537 9.26963 25.1002 9.05975 24.9931C8.84986 24.8861 8.63998 24.7255 8.53504 24.5114C8.48257 24.4044 8.43011 24.2973 8.37764 24.1368C8.37764 23.9762 8.32516 23.7621 8.32516 23.548ZM5.01953 25.1002V21.6746H6.54118C6.96094 21.6746 7.32823 21.7817 7.53811 21.9958C7.74799 22.2099 7.9054 22.4775 7.9054 22.8522C7.9054 23.1198 7.85293 23.2804 7.74799 23.4409C7.64305 23.6015 7.48564 23.7085 7.27576 23.7085L8.16775 25.1002H6.80353L6.22635 23.9762V25.1002H5.01953ZM6.22635 22.531V23.1733H6.43623C6.54117 23.1733 6.64611 23.1198 6.69858 23.0663C6.75105 23.0127 6.80353 22.9057 6.80353 22.7986C6.80353 22.6916 6.75105 22.5845 6.69858 22.531C6.64611 22.4775 6.54117 22.424 6.43623 22.424H6.22635V22.531Z" fill="#FFFDFD"/>
</g>
<defs>
<clipPath id="clip0_811_1455">
<rect width="203" height="41" fill="white"/>
</clipPath>
</defs>
</svg>
