<svg width="32" height="18" viewBox="0 0 32 18" fill="none" xmlns="http://www.w3.org/2000/svg">
<path d="M29.2243 3.00305e-08L27.4775 0L27.4775 16.5407L29.2243 16.5407L29.2243 3.00305e-08Z" fill="#225787"/>
<path d="M26.3129 2.00203e-08L25.1484 0L25.1484 16.5407L26.3129 16.5407L26.3129 2.00203e-08Z" fill="#0078AE"/>
<path d="M23.4016 1.00103e-08L22.8193 0L22.8193 16.5407L23.4016 16.5407L23.4016 1.00103e-08Z" fill="#00A3E0"/>
<path d="M31.9999 4.00408e-08L29.6709 0L29.6709 16.5407L31.9999 16.5407L31.9999 4.00408e-08Z" fill="#002B46"/>
<path fill-rule="evenodd" clip-rule="evenodd" d="M0.111328 17.1111L4.88686 17.1111L4.88686 6.8575L5.11121 6.8575L8.66882 17.1111L12.4828 17.1111L16.0725 6.82485L16.2969 6.82485L16.2969 17.1111L21.0724 17.1111L21.0724 3.60366e-07L15.3674 2.62285e-07L14.4059 2.45754e-07L14.0854 2.40244e-07L10.5919 10.123L7.0663 1.19571e-07L6.64964 1.12408e-07L5.78428 9.75303e-08L0.111328 0L0.111328 17.1111Z" fill="#162137"/>
</svg>
