<svg width="34" height="34" viewBox="0 0 34 34" fill="none" xmlns="http://www.w3.org/2000/svg">
<rect width="34" height="34" fill="white"/>
<path fill-rule="evenodd" clip-rule="evenodd" d="M16.9996 4.2502C11.9264 4.2502 7.64961 8.72272 7.64961 14.4502C7.64961 17.3101 8.88171 20.2405 10.5793 22.8972C12.2664 25.5374 14.3375 27.7898 15.8435 29.2666C16.501 29.9113 17.4983 29.9113 18.1557 29.2666C19.6617 27.7898 21.7328 25.5374 23.42 22.8972C25.1175 20.2405 26.3496 17.3101 26.3496 14.4502C26.3496 8.72272 22.0728 4.2502 16.9996 4.2502ZM5.09961 14.4502C5.09961 7.50274 10.3368 1.7002 16.9996 1.7002C23.6624 1.7002 28.8996 7.50274 28.8996 14.4502C28.8996 18.005 27.3874 21.4241 25.5687 24.2702C23.7396 27.1327 21.5227 29.5363 19.9411 31.0873C18.292 32.7044 15.7072 32.7044 14.0581 31.0873C12.4765 29.5363 10.2596 27.1327 8.43048 24.2702C6.61183 21.4241 5.09961 18.005 5.09961 14.4502ZM16.9996 11.0574C15.5913 11.0574 14.4496 12.1991 14.4496 13.6074C14.4496 15.0157 15.5913 16.1574 16.9996 16.1574C18.4079 16.1574 19.5496 15.0157 19.5496 13.6074C19.5496 12.1991 18.4079 11.0574 16.9996 11.0574ZM11.8996 13.6074C11.8996 10.7908 14.183 8.50741 16.9996 8.50741C19.8163 8.50741 22.0996 10.7908 22.0996 13.6074C22.0996 16.4241 19.8163 18.7074 16.9996 18.7074C14.183 18.7074 11.8996 16.4241 11.8996 13.6074Z" fill="#32A5EB"/>
</svg>
