<svg width="433" height="501" viewBox="0 0 433 501" fill="none" xmlns="http://www.w3.org/2000/svg">
<path d="M281.527 475.292C277.307 477.705 271.428 477.252 265.098 473.483L137.888 399.905C124.926 392.366 114.375 374.122 114.375 359.195V26.2829C114.375 18.8949 116.937 13.6178 121.158 11.2053L130.653 5.62666C134.873 3.21425 140.752 3.5158 147.233 7.28519L274.594 80.8636C287.556 88.4024 298.106 106.646 298.106 121.573V454.485C298.106 462.024 295.393 467.301 291.173 469.714L281.527 475.292Z" fill="#32A5EB"/>
<path d="M275.498 477.705C272.032 477.705 268.414 476.65 264.495 474.388L137.285 400.81C124.022 393.12 113.32 374.575 113.32 359.196V26.2835C113.32 18.7447 115.883 13.166 120.555 10.3013C120.555 10.3013 120.706 10.3013 120.706 10.1505L130.201 4.57184H130.352C135.024 2.00866 141.355 2.61176 147.836 6.38115L274.895 80.1104C288.159 87.7999 298.86 106.345 298.86 121.724V454.637C298.86 462.326 296.298 468.056 291.475 470.77L281.979 476.348C281.979 476.348 281.829 476.348 281.829 476.499C279.869 477.253 277.759 477.705 275.498 477.705ZM121.61 12.1106C117.39 14.523 115.129 19.6494 115.129 26.4343V359.347C115.129 373.972 125.378 391.763 138.19 399.151L265.4 472.73C271.278 476.047 276.855 476.65 280.924 474.388H281.075L290.42 468.96C294.489 466.548 296.75 461.572 296.75 454.637V121.724C296.75 107.099 286.501 89.3077 273.69 81.9197L146.63 8.34123C140.752 5.02417 135.175 4.42107 131.106 6.6827C131.106 6.6827 131.106 6.6827 130.955 6.6827L121.61 12.1106Z" fill="#162137"/>
<path d="M281.527 475.293C277.307 477.705 271.428 477.253 265.098 473.484L137.888 399.905C124.926 392.367 114.375 374.123 114.375 359.196V201.937L291.776 99.5605C295.695 106.647 298.106 114.487 298.106 121.725V454.637C298.106 462.176 295.393 467.453 291.173 469.865L281.527 475.293Z" fill="#162137"/>
<path d="M275.498 477.705C272.032 477.705 268.414 476.65 264.495 474.388L137.285 400.81C124.022 393.12 113.32 374.575 113.32 359.196V201.937C113.32 201.635 113.471 201.183 113.772 201.032L291.173 98.6557C291.475 98.5049 291.626 98.5049 291.927 98.5049C292.229 98.5049 292.379 98.8064 292.53 98.9572C296.75 106.496 299.011 114.487 299.011 121.574V454.486C299.011 462.175 296.449 467.905 291.626 470.619L282.13 476.197C282.13 476.197 281.979 476.197 281.979 476.348C279.869 477.253 277.759 477.705 275.498 477.705ZM115.28 202.54V359.346C115.28 373.972 125.529 391.763 138.34 399.151L265.551 472.73C271.429 476.047 277.006 476.65 281.075 474.388H281.226L290.571 468.96C294.64 466.548 296.901 461.572 296.901 454.637V121.724C296.901 115.241 294.942 108.004 291.173 101.068L115.28 202.54Z" fill="#162137"/>
<path d="M114.223 359.348C114.223 374.275 124.773 392.519 137.735 400.057L264.946 473.636C277.908 481.174 288.458 474.993 288.458 460.066V127.154C288.458 112.227 277.908 93.9831 264.946 86.4443L137.735 12.8658C124.773 5.32707 114.223 11.5089 114.223 26.4356V359.348Z" fill="white"/>
<path d="M275.498 477.706C272.032 477.706 268.264 476.651 264.495 474.389L137.285 400.811C124.022 393.121 113.32 374.576 113.32 359.197V26.2847C113.32 15.4288 118.897 8.49316 127.338 8.49316C130.804 8.49316 134.572 9.54859 138.34 11.8102L265.551 85.3887C278.814 93.0782 289.515 111.624 289.515 127.003V459.915C289.515 465.343 288.159 469.715 285.747 472.882C283.185 476.048 279.718 477.706 275.498 477.706ZM127.187 10.604C119.801 10.604 115.129 16.635 115.129 26.2847V359.197C115.129 373.822 125.378 391.614 138.19 399.002L265.4 472.58C268.866 474.691 272.333 475.596 275.348 475.596C278.814 475.596 281.829 474.239 283.939 471.525C286.2 468.811 287.255 464.74 287.255 459.764V126.852C287.255 112.227 277.005 94.4352 264.345 87.0472L137.285 13.7703C133.668 11.6594 130.352 10.604 127.187 10.604Z" fill="#162137"/>
<path d="M120.105 250.185V237.369L277.912 146.149V158.965L120.105 250.185ZM120.105 32.4648V209.023L277.31 118.256C275.501 109.963 269.623 101.218 262.689 97.1474L135.479 23.569C126.888 18.895 120.105 22.8151 120.105 32.4648ZM120.105 312.455V365.377C120.105 375.027 126.888 386.938 135.328 391.763L262.539 465.341C270.979 470.166 277.762 466.246 277.762 456.596V221.386L120.105 312.455Z" fill="#32A5EB"/>
<path d="M201.342 71.5166C201.342 70.0088 200.287 68.1995 199.081 67.4456C197.725 66.6918 196.82 67.2949 196.82 68.8026C196.82 70.3104 197.875 72.1197 199.081 72.8736C200.287 73.6274 201.342 73.0243 201.342 71.5166Z" fill="#162137"/>
<path d="M199.984 74.2303C199.532 74.2303 198.929 74.0795 198.477 73.7779C196.819 72.8733 195.613 70.7624 195.613 68.9531C195.613 66.8423 197.573 65.6361 199.532 66.6915C201.19 67.5961 202.396 69.707 202.396 71.6671C202.396 72.421 202.245 73.0241 201.793 73.4764C201.341 73.9287 200.738 74.2303 199.984 74.2303ZM198.025 68.1992C197.723 68.1992 197.723 68.6516 197.723 68.8023C197.723 69.8578 198.628 71.3655 199.532 71.9686C199.834 72.1194 199.984 72.1194 200.135 72.1194C200.436 72.1194 200.436 71.6671 200.436 71.5163C200.436 70.4609 199.532 68.9531 198.628 68.35C198.176 68.1992 198.025 68.1992 198.025 68.1992Z" fill="#162137"/>
<path d="M123.566 55.2969V171.243C123.566 217.531 196.064 269.549 196.064 269.549C196.064 269.549 268.562 301.212 268.562 255.074V139.128C236.458 120.583 208.725 92.3876 196.064 78.064C183.403 77.7624 155.67 73.993 123.566 55.2969Z" fill="#162137"/>
<path d="M240.829 281.309C220.331 281.309 195.914 270.755 195.612 270.604C192.447 268.343 122.512 217.531 122.512 171.394V55.297C122.512 54.9955 122.662 54.5432 122.964 54.3924C123.265 54.2416 123.718 54.2416 124.019 54.3924C157.932 73.9932 185.665 76.7071 196.065 77.0087C196.366 77.0087 196.667 77.1595 196.818 77.3103C207.218 89.0707 235.102 118.472 269.165 138.224C269.467 138.374 269.617 138.676 269.617 139.128V255.075C269.617 264.423 266.754 271.358 260.875 275.731C256.203 279.5 249.42 281.309 240.829 281.309ZM124.622 57.1063V171.394C124.622 216.627 196.065 268.343 196.818 268.946C196.818 268.946 220.934 279.349 240.98 279.349C249.119 279.349 255.449 277.691 259.82 274.374C265.096 270.454 267.658 263.97 267.658 255.376V140.033C234.047 120.432 206.314 91.3324 195.612 79.4211C184.911 78.818 157.63 75.8025 124.622 57.1063Z" fill="#162137"/>
<path d="M152.052 104.751C139.391 104.45 111.658 100.53 79.5539 81.9844L69.3047 87.8646V203.811C69.3047 250.099 141.802 302.117 141.802 302.117C141.802 302.117 183.251 320.21 203.599 309.052L213.848 303.172C220.329 299.553 224.549 292.919 224.549 281.762V165.816C192.445 147.27 164.712 119.075 152.052 104.751Z" fill="#32A5EB"/>
<path d="M186.569 313.877C166.071 313.877 141.654 303.323 141.503 303.172C138.338 300.911 68.4023 250.099 68.4023 203.962V87.8648C68.4023 87.5632 68.5531 87.1109 68.8545 86.9601L79.1037 81.0799C79.4051 80.9291 79.8573 80.9291 80.1587 81.0799C114.071 100.681 141.804 103.395 152.204 103.696C152.506 103.696 152.807 103.847 152.958 103.998C163.358 115.758 191.392 145.31 225.305 164.911C225.606 165.062 225.757 165.363 225.757 165.816V281.762C225.757 292.316 221.989 299.704 214.754 303.926L214.604 304.077L204.354 309.957C204.204 309.957 204.204 310.108 204.053 310.108C199.381 312.671 193.502 313.877 186.569 313.877ZM70.211 88.4679V203.962C70.211 249.195 141.654 300.911 142.407 301.514C142.407 301.514 166.523 311.917 186.569 311.917C193.352 311.917 198.928 310.711 203.149 308.449C203.149 308.449 203.299 308.449 203.299 308.299L213.096 302.569L213.247 302.418C220.03 298.649 223.496 291.713 223.496 281.913V166.57C189.885 146.969 162.152 117.869 151.451 105.958C140.599 105.656 113.016 102.641 79.4051 83.3415L70.211 88.4679Z" fill="#162137"/>
<path d="M141.8 302.268C141.8 302.268 183.249 320.361 203.596 309.204L213.846 303.323C220.327 299.705 224.547 293.071 224.547 281.913V165.967L85.4297 246.179C106.832 277.088 141.8 302.268 141.8 302.268Z" fill="#162137"/>
<path d="M186.567 313.878C166.068 313.878 141.651 303.323 141.501 303.173C140.898 302.871 105.93 277.39 84.6781 246.783C84.5274 246.481 84.5273 246.33 84.5273 246.029C84.5273 245.727 84.8288 245.576 84.9795 245.426L224.097 165.062C224.398 164.912 224.85 164.912 225.152 165.062C225.453 165.213 225.604 165.515 225.604 165.967V281.913C225.604 292.468 221.836 299.856 214.601 304.077L214.451 304.228L204.201 310.108C204.051 310.108 204.051 310.259 203.9 310.259C199.378 312.671 193.5 313.878 186.567 313.878ZM86.9389 246.481C108.04 276.485 142.104 301.062 142.405 301.363C142.405 301.363 166.521 311.767 186.567 311.767C193.349 311.767 198.926 310.561 203.146 308.299C203.146 308.299 203.297 308.299 203.297 308.148L213.094 302.419L213.245 302.268C220.027 298.499 223.494 291.563 223.494 281.763V167.475L86.9389 246.481Z" fill="#162137"/>
<path d="M69.3047 87.8643V203.811C69.3047 250.099 141.802 302.116 141.802 302.116C141.802 302.116 214.3 333.779 214.3 287.642V171.695C182.196 153.15 154.463 124.955 141.802 110.631C129.142 110.33 101.409 106.56 69.3047 87.8643Z" fill="white"/>
<path d="M186.568 313.877C166.069 313.877 141.652 303.323 141.351 303.172C138.185 300.91 68.25 250.099 68.25 203.962V87.8644C68.25 87.5629 68.4007 87.1105 68.7022 86.9598C69.0036 86.809 69.4558 86.809 69.7572 86.9598C103.67 106.561 131.403 109.275 141.803 109.576C142.104 109.576 142.406 109.727 142.556 109.878C152.956 121.638 180.84 151.039 214.903 170.791C215.205 170.942 215.356 171.243 215.356 171.696V287.642C215.356 296.99 212.492 303.926 206.614 308.298C201.941 312.068 195.159 313.877 186.568 313.877ZM70.2094 89.6737V203.962C70.2094 249.194 141.652 300.91 142.406 301.513C142.406 301.513 166.521 311.917 186.568 311.917C194.707 311.917 201.037 310.258 205.408 306.941C210.683 303.021 213.245 296.538 213.245 287.943V172.6C179.634 152.999 151.901 123.9 141.2 111.988C130.649 111.385 103.368 108.37 70.2094 89.6737Z" fill="#162137"/>
<path d="M141.803 111.687C141.502 111.687 141.05 111.536 140.899 111.235C140.598 110.783 140.748 110.18 141.2 109.878L151.45 103.998C151.902 103.696 152.505 103.847 152.806 104.299C153.108 104.752 152.957 105.355 152.505 105.656L142.256 111.536C142.105 111.687 141.954 111.687 141.803 111.687Z" fill="#162137"/>
<path d="M242.335 81.5698C237.211 78.705 232.689 78.4035 229.373 80.2128L222.289 84.2837C218.973 86.2438 216.863 90.3147 216.863 96.195C216.863 107.955 225.153 122.128 235.251 128.009C240.376 131.024 245.048 131.175 248.364 129.215L255.298 125.295C258.614 123.335 260.724 119.264 260.724 113.383C260.724 101.774 252.434 87.45 242.335 81.5698Z" fill="#32A5EB"/>
<path d="M243.389 131.627C240.676 131.627 237.662 130.722 234.647 128.913C224.247 122.882 215.656 108.257 215.656 96.1945C215.656 90.1635 217.766 85.6402 221.534 83.3786L228.618 79.3077C232.387 77.1968 237.36 77.6491 242.636 80.6647C253.036 86.6957 261.627 101.321 261.627 113.383C261.627 119.414 259.517 124.088 255.598 126.199L248.665 130.119C247.157 131.174 245.349 131.627 243.389 131.627ZM229.674 81.117L222.59 85.1879C219.424 86.9972 217.616 90.9174 217.616 96.1945C217.616 107.503 225.604 121.525 235.552 127.254C238.265 128.762 240.978 129.667 243.239 129.667C244.897 129.667 246.253 129.214 247.61 128.611L254.543 124.54C257.708 122.731 259.517 118.811 259.517 113.534C259.517 102.226 251.528 88.2034 241.581 82.474C237.21 79.9108 232.839 79.4585 229.674 81.117C229.824 81.117 229.674 81.117 229.674 81.117Z" fill="#162137"/>
<path d="M248.363 129.366L255.296 125.445C258.612 123.485 260.722 119.414 260.722 113.534L235.25 128.159C240.375 131.024 244.896 131.326 248.363 129.366Z" fill="#162137"/>
<path d="M243.389 131.627C240.676 131.627 237.662 130.723 234.647 129.064C234.346 128.913 234.195 128.612 234.195 128.16C234.195 127.858 234.346 127.406 234.647 127.255L260.12 112.63C260.421 112.479 260.873 112.479 261.175 112.63C261.476 112.78 261.627 113.082 261.627 113.534C261.627 119.565 259.517 124.239 255.598 126.35L248.665 130.27C247.157 131.175 245.349 131.627 243.389 131.627ZM237.361 128.16C241.279 129.969 245.047 130.12 247.76 128.612L254.694 124.541C257.557 122.882 259.215 119.716 259.517 115.344L237.361 128.16Z" fill="#162137"/>
<path d="M253.64 117.452C253.64 129.212 245.35 133.886 235.251 128.006C225.002 122.126 216.863 107.802 216.863 96.1926C216.863 84.4321 225.153 79.7581 235.251 85.6383C245.35 91.5186 253.64 105.842 253.64 117.452Z" fill="white"/>
<path d="M243.389 131.626C240.676 131.626 237.662 130.721 234.647 128.912C224.247 122.881 215.656 108.255 215.656 96.1934C215.656 87.5992 220.027 82.0205 226.81 82.0205C229.523 82.0205 232.537 82.9252 235.552 84.7345C245.952 90.7655 254.543 105.391 254.543 117.453C254.543 121.674 253.488 125.293 251.528 127.705C249.569 130.269 246.705 131.626 243.389 131.626ZM226.96 84.1314C221.384 84.1314 217.766 88.8054 217.766 96.1934C217.766 107.502 225.755 121.524 235.702 127.253C241.43 130.57 247.007 130.269 250.021 126.65C251.679 124.539 252.583 121.373 252.583 117.604C252.583 106.295 244.595 92.2732 234.647 86.5438C231.934 85.036 229.372 84.1314 226.96 84.1314Z" fill="#162137"/>
<path d="M232.99 114.589H232.839C232.538 114.589 232.237 114.287 232.086 113.985L226.66 101.019C226.509 100.566 226.66 99.9634 227.263 99.6618C227.715 99.511 228.318 99.6618 228.619 100.265L233.442 111.875L242.184 102.677C242.636 102.225 243.239 102.225 243.692 102.677C244.144 103.13 244.144 103.733 243.692 104.185L233.895 114.438C233.593 114.438 233.292 114.589 232.99 114.589Z" fill="#162137"/>
<g clip-path="url(#clip0_850_8361)">
<path d="M175.713 206.826L171.191 203.961V247.686L175.713 250.551V206.826Z" fill="#225787"/>
<path d="M168.182 202.001L165.168 200.041V243.766L168.182 245.726V202.001Z" fill="#0078AE"/>
<path d="M160.792 197.027L159.285 196.122V239.847L160.792 240.752V197.027Z" fill="#00A3E0"/>
<path d="M181.595 210.745L175.566 206.825V250.55L181.595 254.47V210.745Z" fill="#002B46"/>
<path d="M102.012 202.454L114.07 210.294V183.758L114.672 184.059L123.565 216.476L133.211 222.809L142.255 202.002L142.858 202.303V228.99L154.915 236.831V192.654L140.597 183.305L138.185 181.647L137.432 181.044L128.69 201.549L119.496 169.585L118.441 168.831L116.33 167.474L102.012 158.126V202.454Z" fill="#00A3E0"/>
</g>
<defs>
<clipPath id="clip0_850_8361">
<rect width="79.5817" height="96.3455" fill="white" transform="translate(102.012 158.126)"/>
</clipPath>
</defs>
</svg>
