<svg width="289" height="40" viewBox="0 0 289 40" fill="none" xmlns="http://www.w3.org/2000/svg">
<path d="M206.455 39.2661H217.386V30.0183V10.2018H223.56C228.103 10.2018 231.935 14.3119 231.935 20.1835C231.935 26.055 228.174 30.0183 223.56 30.0183H222.212V39.2661H223.56C234.207 39.2661 242.866 31.1193 242.866 20.1835C242.866 9.24771 234.207 0.954142 223.56 0.954142H206.455V39.2661ZM201.629 39.2661H190.699V30.0183V10.2018H184.524C179.982 10.2018 176.149 14.3119 176.149 20.1835C176.149 26.055 179.911 30.0183 184.524 30.0183H185.873V39.2661H184.524C173.878 39.2661 165.219 31.1193 165.219 20.1835C165.219 9.24771 173.878 0.954142 184.524 0.954142H201.629V39.2661ZM268.204 30.7523C262.313 30.7523 258.267 26.4954 258.267 20.0367C258.267 13.578 262.313 9.32111 268.204 9.32111C274.095 9.32111 278.069 13.578 278.069 20.0367C278.069 26.4954 274.095 30.7523 268.204 30.7523ZM268.204 40C280.624 40 288.999 32.2202 288.999 19.9633C288.999 7.70643 280.624 0 268.204 0C255.783 0 247.337 7.70643 247.337 19.9633C247.337 32.2202 255.783 40 268.204 40ZM132.783 39.2661H143.713V22.8991H144.21L154.573 39.2661H167.49L153.721 19.156L167.348 0.880743H154.431L144.21 15.8532H143.713V0.880743H132.783V39.2661Z" fill="#002B46"/>
<path d="M122.369 1.29004H118.464V38.7094H122.369V1.29004Z" fill="#225787"/>
<path d="M115.86 1.29004H113.257V38.7094H115.86V1.29004Z" fill="#0078AE"/>
<path d="M109.352 1.29004H108.05V38.7094H109.352V1.29004Z" fill="#00A3E0"/>
<path d="M127.576 1.29004H122.369V38.7094H127.576V1.29004Z" fill="#002B46"/>
<path fill-rule="evenodd" clip-rule="evenodd" d="M58 39H68.4801V16.229H68.9725L76.7798 39H85.1498L93.0275 16.1565H93.5199V39H104V1H91.4801H89.37H88.6667L81 23.4809L73.263 1H72.3486H70.4495H58V39Z" fill="#00A3E0"/>
<path d="M37.7523 25.8066H0V27.097H37.7523V25.8066Z" fill="white"/>
<path fill-rule="evenodd" clip-rule="evenodd" d="M27.338 20.6453C29.516 20.6453 31.2434 18.9331 31.2434 16.7743C31.2434 14.6155 29.4409 12.9033 27.338 12.9033C25.16 12.9033 23.4326 14.6899 23.4326 16.7743C23.4326 18.8586 25.16 20.6453 27.338 20.6453Z" fill="#BCBEC0"/>
<path fill-rule="evenodd" clip-rule="evenodd" d="M9.11244 20.6453C11.2905 20.6453 13.0178 18.9331 13.0178 16.7743C13.0178 14.6155 11.2905 12.9033 9.11244 12.9033C6.93443 12.9033 5.20703 14.6155 5.20703 16.7743C5.20703 18.9331 6.93443 20.6453 9.11244 20.6453Z" fill="#BCBEC0"/>
<path d="M37.7523 1.29004H0V27.0965H37.7523V1.29004Z" fill="#002B46"/>
<path fill-rule="evenodd" clip-rule="evenodd" d="M8.42708 24.5161C12.3702 24.5161 15.6216 21.0752 15.6216 16.8116C15.6216 12.5479 12.4394 9.03223 8.42708 9.03223C4.48394 9.03223 1.30176 12.4731 1.30176 16.8116C1.30176 21.0752 4.48394 24.5161 8.42708 24.5161Z" fill="white"/>
<path fill-rule="evenodd" clip-rule="evenodd" d="M19.5266 23.2256L16.2347 14.1934L14.888 17.4848L14.3643 16.2601L13.0176 16.4131L15.4865 23.2256H19.5266Z" fill="white"/>
<path fill-rule="evenodd" clip-rule="evenodd" d="M9.11244 12.9033C11.2905 12.9033 13.0178 14.6155 13.0178 16.7743C13.0178 18.9331 11.2905 20.6453 9.11244 20.6453C6.93443 20.6453 5.20703 18.9331 5.20703 16.7743C5.20703 14.6155 7.00953 12.9033 9.11244 12.9033Z" fill="#ED1C2E"/>
<path fill-rule="evenodd" clip-rule="evenodd" d="M9.11244 12.9033C11.2905 12.9033 13.0178 14.6155 13.0178 16.7743C13.0178 18.9331 11.2905 20.6453 9.11244 20.6453C6.93443 20.6453 5.20703 18.9331 5.20703 16.7743C5.20703 14.6155 7.00953 12.9033 9.11244 12.9033Z" fill="#D22E12"/>
<path fill-rule="evenodd" clip-rule="evenodd" d="M26.6527 24.5161C30.5958 24.5161 33.8472 21.0752 33.8472 16.8116C33.8472 12.5479 30.5958 9.03223 26.6527 9.03223C22.7095 9.03223 19.5273 12.5479 19.5273 16.8116C19.5273 21.0752 22.7095 24.5161 26.6527 24.5161Z" fill="white"/>
<path fill-rule="evenodd" clip-rule="evenodd" d="M36.4505 21.9359L29.7853 2.58105H26.0361L32.7708 21.9359H36.4505Z" fill="white"/>
<path fill-rule="evenodd" clip-rule="evenodd" d="M27.338 12.9033C29.516 12.9033 31.2434 14.6155 31.2434 16.7743C31.2434 18.9331 29.516 20.6453 27.338 20.6453C25.16 20.6453 23.4326 18.9331 23.4326 16.7743C23.4326 14.6155 25.16 12.9033 27.338 12.9033Z" fill="#ED1C2E"/>
<path fill-rule="evenodd" clip-rule="evenodd" d="M27.338 12.9033C29.516 12.9033 31.2434 14.6155 31.2434 16.7743C31.2434 18.9331 29.516 20.6453 27.338 20.6453C25.16 20.6453 23.4326 18.9331 23.4326 16.7743C23.4326 14.6155 25.16 12.9033 27.338 12.9033Z" fill="#D22E12"/>
<path fill-rule="evenodd" clip-rule="evenodd" d="M26.0365 7.74206L24.6452 3.87109H14.3203L15.6384 7.74206H26.0365Z" fill="white"/>
<path d="M37.7523 27.0967H0V38.7096H37.7523V27.0967Z" fill="#D22E12"/>
<path d="M26.1507 35.975L27.8239 31.0448H29.6426L31.243 35.975H29.4243L29.2788 35.3587H28.0421L27.8966 35.975H26.1507ZM28.4059 34.2032H29.1333L28.9879 33.664C28.9151 33.3558 28.8423 33.2018 28.8423 33.0477C28.8423 32.8936 28.7696 32.7396 28.7696 32.5855C28.7696 32.7396 28.7696 32.8936 28.6969 33.0477C28.6969 33.2018 28.6241 33.4329 28.5514 33.664L28.4059 34.2032ZM24.1865 31.0448H25.8597V35.975H24.1865V31.0448ZM19.7489 35.5128L20.2581 34.1262C20.4764 34.2802 20.6946 34.4343 20.9128 34.5113C21.1311 34.5884 21.2766 34.6654 21.4221 34.6654C21.5676 34.6654 21.6403 34.6654 21.7131 34.5884C21.7858 34.5113 21.7858 34.5113 21.7858 34.4343C21.7858 34.2802 21.6403 34.2032 21.2766 34.1262C21.2038 34.1262 21.0583 34.0491 21.0583 34.0491C20.6946 33.9721 20.4764 33.818 20.2581 33.5869C20.0399 33.3558 19.9671 33.0477 19.9671 32.7395C19.9671 32.2003 20.1126 31.8152 20.4764 31.43C20.8401 31.1218 21.2766 30.9678 21.8586 30.9678C22.1496 30.9678 22.3678 30.9678 22.6588 31.0448C22.9498 31.1218 23.168 31.1989 23.459 31.3529L22.9498 32.6625C22.8043 32.5085 22.6588 32.4314 22.4406 32.3544C22.2951 32.2773 22.1496 32.2774 22.0041 32.2774C21.8586 32.2774 21.7858 32.2773 21.7131 32.3544C21.6403 32.4314 21.6403 32.4314 21.6403 32.5085C21.6403 32.6625 21.8586 32.7396 22.3678 32.8936C22.4405 32.8936 22.5133 32.8936 22.5133 32.9707C22.8043 33.0477 23.0953 33.2018 23.2408 33.4329C23.459 33.664 23.5318 33.9721 23.5318 34.2802C23.5318 34.8195 23.3135 35.2817 22.9498 35.5898C22.586 35.898 22.0768 36.1291 21.4948 36.1291C21.2038 36.1291 20.9128 36.052 20.5491 35.975C20.4036 35.8209 20.1126 35.7439 19.7489 35.5128ZM15.8205 35.5128L16.3297 34.1262C16.548 34.2802 16.7662 34.4343 16.9845 34.5113C17.2027 34.5884 17.3482 34.6654 17.4937 34.6654C17.6392 34.6654 17.7119 34.6654 17.7847 34.5884C17.8574 34.5113 17.8574 34.5113 17.8574 34.4343C17.8574 34.2802 17.7119 34.2032 17.3482 34.1262C17.2755 34.1262 17.13 34.0491 17.13 34.0491C16.7662 33.9721 16.548 33.818 16.3297 33.5869C16.1115 33.3558 16.0387 33.0477 16.0387 32.7395C16.0387 32.2003 16.1842 31.8152 16.548 31.43C16.9117 31.1218 17.3482 30.9678 17.9302 30.9678C18.2212 30.9678 18.4394 30.9678 18.7304 31.0448C19.0214 31.1218 19.2397 31.1989 19.5306 31.3529L19.0214 32.6625C18.8759 32.5085 18.7304 32.4314 18.5122 32.3544C18.3667 32.2773 18.2212 32.2774 18.0757 32.2774C17.9302 32.2774 17.8574 32.2773 17.7847 32.3544C17.7119 32.4314 17.7119 32.4314 17.7119 32.5085C17.7119 32.6625 17.9302 32.7396 18.4394 32.8936C18.5122 32.8936 18.5849 32.8936 18.5849 32.9707C18.8759 33.0477 19.1669 33.2018 19.3124 33.4329C19.5306 33.664 19.6034 33.9721 19.6034 34.2802C19.6034 34.8195 19.3851 35.2817 19.0214 35.5898C18.6577 35.898 18.1484 36.1291 17.5664 36.1291C17.2755 36.1291 16.9845 36.052 16.6207 35.975C16.4025 35.8209 16.1115 35.7439 15.8205 35.5128ZM11.0919 33.741V31.0448H12.7651V33.741C12.7651 34.0491 12.7651 34.2802 12.8378 34.3573C12.9106 34.5113 13.0561 34.5113 13.2016 34.5113C13.3471 34.5113 13.4926 34.4343 13.5653 34.3573C13.6381 34.2032 13.6381 34.0491 13.6381 33.741V31.0448H15.3113V33.741C15.3113 34.1262 15.3113 34.3573 15.2385 34.5884C15.1658 34.8195 15.093 34.9735 15.0203 35.1276C14.802 35.4357 14.5838 35.6668 14.2928 35.8209C14.0018 35.975 13.6381 36.052 13.2016 36.052C12.7651 36.052 12.4014 35.975 12.1104 35.8209C11.8194 35.6668 11.5284 35.4357 11.3829 35.1276C11.3101 34.9735 11.2374 34.8195 11.1647 34.5884C11.1647 34.3573 11.0919 34.0491 11.0919 33.741ZM6.50879 35.975V31.0448H8.61848C9.20046 31.0448 9.70969 31.1989 10.0007 31.507C10.2917 31.8152 10.5099 32.2003 10.5099 32.7395C10.5099 33.1247 10.4372 33.3558 10.2917 33.5869C10.1462 33.818 9.92794 33.9721 9.63694 33.9721L10.8737 35.975H8.98222L8.18199 34.3573V35.975H6.50879ZM8.18199 32.2774V33.2018H8.47298C8.61847 33.2018 8.76397 33.1247 8.83671 33.0477C8.90946 32.9707 8.98222 32.8166 8.98222 32.6625C8.98222 32.5085 8.90946 32.3544 8.83671 32.2774C8.76397 32.2003 8.61847 32.1233 8.47298 32.1233H8.18199V32.2774Z" fill="#FFFDFD"/>
</svg>
