<svg width="61" height="38" viewBox="0 0 61 38" fill="none" xmlns="http://www.w3.org/2000/svg">
<path d="M51.6636 8.30976L50.3889 5.65181H49.3632V8.30976H47.4291V1.16833H51.1215C51.7955 1.16833 52.4695 1.38739 52.9383 1.88394C53.3486 2.30746 53.5684 2.87702 53.5684 3.47579C53.5684 3.91391 53.4365 4.30822 53.2167 4.62952C52.9823 4.96541 52.66 5.22829 52.2644 5.40354L53.7735 8.32437L51.6636 8.30976ZM51.8101 3.46118C51.8101 3.03766 51.4585 2.74558 51.0482 2.74558H49.3779V4.206H51.0482C51.4585 4.206 51.8101 3.8847 51.8101 3.46118ZM38.3741 8.30976L35.6781 4.5565L38.1983 1.16833H40.3228L37.8173 4.52729L40.4254 8.30976H38.3741ZM35.2971 8.30976L32.7916 4.80477V8.30976H30.8722V1.16833H32.7916V4.30822L35.1213 1.16833H37.2459L34.755 4.52729L37.3631 8.30976H35.2971ZM24.3812 8.30976V1.16833H30.1102V2.73098H26.3153V4.01614H29.656V5.40354H26.3153V6.74712H30.1102V8.30976H24.3812V8.30976ZM17.0405 8.30976L20.6742 2.73098H17.3921V1.16833H23.8684L20.2054 6.74712H23.7658V8.30976H17.0405V8.30976ZM40.9529 8.30976V1.16833H46.6819V2.73098H42.887V4.01614H46.2276V5.40354H42.887V6.74712H46.6819V8.30976H40.9529V8.30976ZM8.90853 2.16141H2.16852C1.27474 2.16141 0.439562 2.4535 0.439562 3.47579C0.439562 4.99462 0.439562 6.51345 0.439562 8.03228C0.439562 8.58724 0.89378 9.03997 1.45056 9.03997H11.8243L11.5459 9.46349H1.45056C0.659345 9.46349 0.0146484 8.82091 0.0146484 8.03228V3.49039C0.0293006 1.82552 0.498171 1.16833 2.22713 1.16833H12.0441L8.17592 6.57187H5.75831L8.90853 2.16141ZM4.32239 7.30208H11.0624C11.9562 7.30208 12.7914 7.00999 12.7767 5.9877C12.7767 4.46887 12.7767 2.95004 12.7767 1.43121C12.7767 0.876249 12.3225 0.42352 11.7804 0.42352H1.40661L1.67035 0H11.7657C12.5569 0 13.2016 0.642583 13.2016 1.43121V5.9877C13.2016 7.65258 12.7327 8.30976 10.9891 8.30976H1.17217L5.04035 2.90623H7.47261L4.32239 7.30208ZM58.1838 2.73098V8.30976H56.2497V2.73098H53.9347V1.16833H60.4842V2.73098H58.1838Z" fill="#0086C7"/>
<path d="M10.5203 26.7399C10.5203 27.9374 10.0514 28.8867 9.09901 29.5731C8.14662 30.2595 6.88653 30.5954 5.28944 30.5954C3.06231 30.5954 1.28939 29.982 0 28.7698L1.26009 27.5285C2.19783 28.507 3.53118 28.9889 5.26014 28.9889C6.3444 28.9889 7.17957 28.799 7.78031 28.4193C8.38105 28.0396 8.68875 27.4847 8.68875 26.7399C8.68875 25.6299 7.97079 25.002 6.54953 24.8851L4.42496 24.7099C1.86083 24.5054 0.586088 23.3663 0.586088 21.3071C0.586088 20.168 1.02565 19.2771 1.90478 18.6053C2.78392 17.9336 3.92679 17.5977 5.31874 17.5977C7.26749 17.5977 8.82062 18.0504 9.94884 18.9558L8.71805 20.168C7.82427 19.4962 6.6814 19.1603 5.28944 19.1603C4.36635 19.1603 3.6484 19.3502 3.15022 19.7153C2.65205 20.0804 2.40296 20.5915 2.40296 21.2487C2.40296 22.3586 3.15022 22.9866 4.6594 23.1034L6.72536 23.2787C7.94149 23.3809 8.87923 23.7022 9.53858 24.2279C10.1833 24.7975 10.5203 25.6153 10.5203 26.7399Z" fill="#67C6E4"/>
<path fill-rule="evenodd" clip-rule="evenodd" d="M60.2202 30.3913C57.0553 30.3913 54.4912 27.8356 54.4912 24.6811V13.2314H56.396V17.9924H60.2202V19.8909H56.396V24.6665C56.396 26.7695 58.1103 28.4782 60.2202 28.4782V30.3913Z" fill="#67C6E4"/>
<path fill-rule="evenodd" clip-rule="evenodd" d="M53.0853 18.0215C50.1256 18.2552 47.7959 20.7086 47.7959 23.7171V30.3766H49.7007V23.7171C49.7007 21.7601 51.1806 20.1537 53.0707 19.9346V18.0215H53.0853Z" fill="#67C6E4"/>
<path fill-rule="evenodd" clip-rule="evenodd" d="M39.6637 28.478C42.0374 28.478 43.9714 26.5649 43.9714 24.1844C43.9714 21.8185 42.052 19.8908 39.6637 19.8908C37.29 19.8908 35.356 21.8039 35.356 24.1844C35.3706 26.5649 37.29 28.478 39.6637 28.478ZM39.6637 30.3912C41.334 30.3912 42.8432 29.734 43.9714 28.6679V30.3766H45.8762V24.199C45.8762 20.7816 43.0923 18.0068 39.6637 18.0068C36.2351 18.0068 33.4512 20.7816 33.4512 24.199C33.4512 27.6164 36.2351 30.3912 39.6637 30.3912Z" fill="#67C6E4"/>
<path fill-rule="evenodd" clip-rule="evenodd" d="M31.5459 23.2351C31.5459 20.3435 29.1869 17.9922 26.2858 17.9922C24.5129 17.9922 22.9304 18.8684 21.978 20.212C21.0256 18.8684 19.4579 17.9922 17.6703 17.9922C14.7692 17.9922 12.4102 20.3435 12.4102 23.2351V30.3619H14.3296V23.2351C14.3296 21.395 15.8241 19.9053 17.6703 19.9053C19.5165 19.9053 21.011 21.395 21.011 23.2351V30.3619H22.9158V23.2351C22.9158 21.395 24.4103 19.9053 26.2565 19.9053C28.1027 19.9053 29.5972 21.395 29.5972 23.2351V30.3619H31.502V23.2351H31.5459Z" fill="#67C6E4"/>
<path d="M60.1914 37.9708H59.5028V37.299H60.1914V37.9708ZM60.2354 33.5604L60.1035 36.6564H59.6053L59.4735 33.5604H60.2354ZM57.7445 36.1453C57.7445 35.9847 57.7152 35.8386 57.6566 35.7218C57.5394 35.4589 57.3342 35.3275 57.0412 35.3275C56.8947 35.3275 56.7628 35.3567 56.6602 35.4297C56.543 35.5027 56.4698 35.6049 56.4112 35.7218C56.3672 35.8386 56.3379 35.9701 56.3379 36.1453H57.7445ZM58.3745 36.5834H56.3379C56.3379 36.8609 56.4112 37.0654 56.543 37.226C56.6749 37.3867 56.88 37.4597 57.1438 37.4597C57.3196 37.4597 57.4515 37.4305 57.5687 37.3867C57.6859 37.3428 57.7885 37.2552 57.9057 37.1384L58.3159 37.5181C58.1401 37.6933 57.9789 37.8102 57.8031 37.8832C57.6273 37.9562 57.4075 38 57.1438 38C56.7188 38 56.3672 37.8686 56.1181 37.6203C55.8544 37.3574 55.7372 36.9485 55.7372 36.3936C55.7372 35.897 55.8544 35.5027 56.1035 35.2106C56.3379 34.9332 56.6749 34.7871 57.0852 34.7871C57.4954 34.7871 57.8324 34.9186 58.0668 35.196C58.3013 35.4735 58.4185 35.8386 58.4185 36.2913V36.5834H58.3745ZM55.5467 35.0938L55.0631 35.5757C54.9166 35.4297 54.7701 35.3713 54.5943 35.3713C54.4185 35.3713 54.2719 35.4297 54.1401 35.5611C54.0228 35.6926 53.9642 35.8678 53.9642 36.0723V37.9708H53.3342V34.8309H53.9496V35.1668C54.0375 35.05 54.1547 34.9624 54.3012 34.8893C54.4478 34.8163 54.6089 34.7871 54.7848 34.7871C55.0925 34.7871 55.3415 34.8893 55.5467 35.0938ZM51.6199 37.2552C51.7664 37.1092 51.8397 36.8171 51.8397 36.3936C51.8397 35.9701 51.7664 35.678 51.6199 35.5319C51.5027 35.4151 51.3415 35.3567 51.151 35.3567C50.9605 35.3567 50.814 35.4151 50.6968 35.5319C50.5503 35.678 50.477 35.9701 50.477 36.3936C50.477 36.8171 50.5503 37.1092 50.6968 37.2552C50.814 37.372 50.9752 37.4451 51.151 37.4451C51.3415 37.4451 51.5027 37.3867 51.6199 37.2552ZM52.4697 36.3936C52.4697 36.9631 52.3378 37.372 52.1034 37.6349C51.869 37.8832 51.5466 38 51.1657 38C50.7847 38 50.4624 37.8832 50.2279 37.6349C49.9788 37.372 49.8616 36.9631 49.8616 36.3936C49.8616 36.1015 49.8909 35.8678 49.9495 35.678C50.0081 35.4881 50.0961 35.3129 50.2426 35.1668C50.477 34.9186 50.7994 34.8017 51.1803 34.8017C51.5759 34.8017 51.8836 34.9186 52.1181 35.1668C52.2646 35.3129 52.3525 35.4881 52.4111 35.678C52.4404 35.8678 52.4697 36.1161 52.4697 36.3936ZM49.0118 37.9708H48.3818V36.0577C48.3818 35.824 48.3231 35.6488 48.2059 35.5319C48.0887 35.4151 47.9422 35.3567 47.7517 35.3567C47.5759 35.3567 47.4147 35.4151 47.2828 35.5319C47.151 35.6488 47.0924 35.8094 47.0924 36.0285V37.9708H46.4623V36.0577C46.4623 35.824 46.4037 35.6488 46.2865 35.5319C46.1693 35.4151 46.0227 35.3567 45.8323 35.3567C45.6418 35.3567 45.4806 35.4151 45.3634 35.5319C45.2462 35.6488 45.1729 35.824 45.1729 36.0577V37.9708H44.5429V34.8309H45.1583V35.1522C45.3781 34.9186 45.6564 34.8017 45.9934 34.8017C46.3891 34.8017 46.6821 34.9478 46.8872 35.2544C47.1363 34.9478 47.4733 34.8017 47.8689 34.8017C48.2059 34.8017 48.4697 34.8893 48.6601 35.0938C48.8799 35.3129 48.9971 35.6049 48.9971 35.9847V37.9708H49.0118ZM42.2425 37.9708H41.8615C41.5831 37.9708 41.3634 37.8832 41.2168 37.7225C41.0703 37.5473 40.997 37.3428 40.997 37.1092V35.3859H40.6307V34.904H40.997V33.9547H41.6271V34.904H42.2425V35.3859H41.6271V37.08C41.6271 37.3282 41.7443 37.4451 41.9787 37.4451H42.2425V37.9708ZM39.4586 36.1453C39.4586 35.9847 39.4293 35.8386 39.3707 35.7218C39.2534 35.4589 39.0483 35.3275 38.7553 35.3275C38.6087 35.3275 38.4769 35.3567 38.3743 35.4297C38.2571 35.5027 38.1838 35.6049 38.1252 35.7218C38.0813 35.8386 38.052 35.9701 38.052 36.1453H39.4586ZM40.0886 36.5834H38.0373C38.0373 36.8609 38.1106 37.0654 38.2424 37.226C38.3743 37.3867 38.5794 37.4597 38.8285 37.4597C39.0043 37.4597 39.1362 37.4305 39.2534 37.3867C39.3707 37.3428 39.4732 37.2552 39.5904 37.1384L40.0007 37.5181C39.8249 37.6933 39.6637 37.8102 39.4879 37.8832C39.312 37.9562 39.0923 38 38.8285 38C38.4036 38 38.052 37.8686 37.8029 37.6203C37.5391 37.3574 37.4219 36.9485 37.4219 36.3936C37.4219 35.897 37.5391 35.5027 37.7882 35.2106C38.0227 34.9332 38.3597 34.7871 38.7699 34.7871C39.1802 34.7871 39.5172 34.9186 39.7516 35.196C39.986 35.4735 40.1033 35.8386 40.1033 36.2913V36.5834H40.0886ZM36.66 36.2621C36.66 36.8171 36.5281 37.226 36.2644 37.5035C35.942 37.8394 35.5464 38 35.0483 38C34.594 38 34.1984 37.8394 33.8907 37.5327C33.8028 37.4451 33.7296 37.3574 33.6856 37.2552C33.627 37.153 33.583 37.0654 33.5537 36.9777C33.5244 36.8901 33.4951 36.7733 33.4805 36.6126C33.4658 36.452 33.4658 36.3352 33.4658 36.2329C33.4658 36.1453 33.4658 35.9847 33.4658 35.751C33.4658 35.5319 33.4658 35.3713 33.4658 35.2691C33.4658 35.1814 33.4805 35.05 33.4805 34.8893C33.4951 34.7287 33.5098 34.6119 33.5537 34.5242C33.583 34.4366 33.627 34.349 33.6856 34.2468C33.7442 34.1445 33.8175 34.0569 33.8907 33.9693C34.1984 33.648 34.594 33.502 35.0483 33.502C35.5025 33.502 35.8541 33.6334 36.1325 33.8817C36.4109 34.1445 36.5867 34.4658 36.6453 34.8601H35.9713C35.9127 34.6119 35.8102 34.422 35.649 34.2906C35.4878 34.1591 35.2827 34.0861 35.0483 34.0861C34.7845 34.0861 34.5647 34.1737 34.3889 34.3636C34.2863 34.4804 34.2131 34.6265 34.1691 34.8017C34.1398 34.977 34.1105 35.2837 34.1105 35.7218C34.1105 36.1599 34.1252 36.4666 34.1691 36.6564C34.1984 36.8317 34.2717 36.9777 34.3889 37.1092C34.5501 37.2844 34.7699 37.372 35.0483 37.372C35.3413 37.372 35.5904 37.2698 35.7662 37.0654C35.9127 36.8901 35.986 36.6564 35.986 36.3644V36.1161H35.0483V35.5465H36.66V36.2621V36.2621Z" fill="#7E7E7D"/>
<path fill-rule="evenodd" clip-rule="evenodd" d="M35.8392 16.0939C36.6305 16.0939 37.2752 15.4513 37.2752 14.6627C37.2752 13.874 36.6305 13.2314 35.8392 13.2314C35.048 13.2314 34.4033 13.874 34.4033 14.6627C34.418 15.4513 35.048 16.0939 35.8392 16.0939Z" fill="#0086C7"/>
<path fill-rule="evenodd" clip-rule="evenodd" d="M39.6635 16.0939C40.4547 16.0939 41.0994 15.4513 41.0994 14.6627C41.0994 13.874 40.4547 13.2314 39.6635 13.2314C38.8722 13.2314 38.2275 13.874 38.2275 14.6627C38.2422 15.4513 38.8722 16.0939 39.6635 16.0939Z" fill="#E3000F"/>
<path fill-rule="evenodd" clip-rule="evenodd" d="M43.4877 16.0939C44.2789 16.0939 44.9236 15.4513 44.9236 14.6627C44.9236 13.874 44.2789 13.2314 43.4877 13.2314C42.6965 13.2314 42.0518 13.874 42.0518 14.6627C42.0664 15.4513 42.6965 16.0939 43.4877 16.0939Z" fill="#005675"/>
</svg>
