<svg width="752" height="400" viewBox="0 0 752 400" fill="none" xmlns="http://www.w3.org/2000/svg">
<path opacity="0.1" d="M332.002 0.5H496.344V399.5H384.041V159.783V159.283H383.541H378.154H377.8L377.683 159.617L293.227 399.5H203.437L119.341 160.16L119.223 159.825H118.869H113.303H112.803V160.325V399.5H0.5V0.5H164.841L247.86 236.948L248.332 238.291L248.804 236.949L332.002 0.5ZM687.754 0.5V399.5H650.328V0.5H687.754ZM623.834 0.5V399.5H599.516V0.5H623.834ZM548.519 399.5V0.5H560.089V399.5H548.519ZM701.146 399.5V0.5H751.5V399.5H701.146Z" stroke="#32A5EB"/>
</svg>
