<svg width="447" height="69" viewBox="0 0 447 69" fill="none" xmlns="http://www.w3.org/2000/svg">
<path d="M381.797 60.588L372.374 41.2083H364.792V60.588H350.495V8.51852H377.789C382.772 8.51852 387.754 10.1157 391.22 13.7361C394.253 16.8241 395.877 20.9769 395.877 25.3426C395.877 28.537 394.902 31.412 393.278 33.7546C391.545 36.2037 389.162 38.1204 386.237 39.3981L397.394 60.6944L381.797 60.588ZM382.88 25.2361C382.88 22.1481 380.28 20.0185 377.248 20.0185H364.9V30.6667H377.248C380.28 30.6667 382.88 28.3241 382.88 25.2361ZM283.559 60.588L263.629 33.2222L282.259 8.51852H297.964L279.443 33.0093L298.722 60.588H283.559ZM260.813 60.588L242.292 35.0324V60.588H228.103V8.51852H242.292V31.412L259.513 8.51852H275.219L256.806 33.0093L276.085 60.588H260.813ZM180.121 60.588V8.51852H222.471V19.912H194.418V29.2824H219.113V39.3981H194.418V49.1944H222.471V60.588H180.121ZM125.858 60.588L152.719 19.912H128.457V8.51852H176.331L149.253 49.1944H175.572V60.588H125.858ZM302.621 60.588V8.51852H344.971V19.912H316.918V29.2824H341.613V39.3981H316.918V49.1944H344.971V60.588H302.621ZM65.7449 15.7593H15.9217C9.31476 15.7593 3.14102 17.8889 3.14102 25.3426C3.14102 36.4167 3.14102 47.4907 3.14102 58.5648C3.14102 62.6111 6.49867 65.912 10.6145 65.912H87.2988L85.2409 69H10.6145C4.76569 69 0 64.3148 0 58.5648V25.4491C0.108311 13.3102 3.57427 8.51852 16.355 8.51852H88.9234L60.3293 47.9167H42.458L65.7449 15.7593ZM31.8435 53.2407H81.6666C88.2736 53.2407 94.4473 51.1111 94.339 43.6574C94.339 32.5833 94.339 21.5093 94.339 10.4352C94.339 6.38889 90.9814 3.08796 86.9738 3.08796H10.2896L12.2392 0H86.8655C92.7143 0 97.48 4.68519 97.48 10.4352V43.6574C97.48 55.7963 94.0141 60.588 81.125 60.588H8.55658L37.1507 21.1898H55.1304L31.8435 53.2407ZM429.995 19.912V60.588H415.698V19.912H398.585V8.51852H447V19.912H429.995Z" fill="white"/>
</svg>
