<svg width="26" height="26" viewBox="0 0 26 26" fill="none" xmlns="http://www.w3.org/2000/svg">
<path fill-rule="evenodd" clip-rule="evenodd" d="M0 6.86111C0 3.07182 3.07182 0 6.86111 0H19.1389C22.9282 0 26 3.07182 26 6.86111V19.1389C26 22.9282 22.9282 26 19.1389 26H6.86111C3.07182 26 0 22.9282 0 19.1389V6.86111ZM6.86111 2.16667C4.26844 2.16667 2.16667 4.26844 2.16667 6.86111V19.1389C2.16667 21.7316 4.26844 23.8333 6.86111 23.8333H19.1389C21.7316 23.8333 23.8333 21.7316 23.8333 19.1389V6.86111C23.8333 4.26844 21.7316 2.16667 19.1389 2.16667H6.86111ZM18.3108 7.41463C18.8028 7.75502 18.9258 8.42984 18.5854 8.92189L12.0902 18.3108C11.8919 18.5975 11.5677 18.7712 11.2191 18.7776C10.8705 18.784 10.5401 18.6221 10.3315 18.3428L7.43768 14.4695C7.07959 13.9902 7.17785 13.3113 7.65717 12.9532C8.13648 12.5952 8.81533 12.6934 9.17343 13.1727L11.1655 15.8391L16.8035 7.68922C17.1439 7.19718 17.8187 7.07424 18.3108 7.41463Z" fill="#32A5EB"/>
</svg>
