<svg width="188" height="29" viewBox="0 0 188 29" fill="none" xmlns="http://www.w3.org/2000/svg">
<path d="M160.577 25.4645L156.614 17.3194H153.425V25.4645H147.412V3.58025H158.891C160.987 3.58025 163.082 4.25154 164.54 5.77315C165.815 7.07099 166.499 8.81636 166.499 10.6512C166.499 11.9938 166.089 13.2022 165.405 14.1867C164.677 15.216 163.674 16.0216 162.444 16.5586L167.136 25.5093L160.577 25.4645ZM161.032 10.6065C161.032 9.30864 159.939 8.41358 158.663 8.41358H153.47V12.8889H158.663C159.939 12.8889 161.032 11.9043 161.032 10.6065ZM119.26 25.4645L110.878 13.963L118.713 3.58025H125.318L117.528 13.8735L125.637 25.4645H119.26ZM109.693 25.4645L101.904 14.7238V25.4645H95.936V3.58025H101.904V13.2022L109.147 3.58025H115.752L108.008 13.8735L116.116 25.4645H109.693ZM75.7558 25.4645V3.58025H93.5672V8.36883H81.7688V12.3071H92.1551V16.5586H81.7688V20.6759H93.5672V25.4645H75.7558ZM52.9334 25.4645L64.2307 8.36883H54.0267V3.58025H74.1614L62.773 20.6759H73.8425V25.4645H52.9334ZM127.277 25.4645V3.58025H145.088V8.36883H133.29V12.3071H143.676V16.5586H133.29V20.6759H145.088V25.4645H127.277ZM27.6511 6.62346H6.69639C3.91762 6.62346 1.32106 7.51852 1.32106 10.6512C1.32106 15.3056 1.32106 19.9599 1.32106 24.6142C1.32106 26.3148 2.73322 27.7022 4.46426 27.7022H36.7163L35.8507 29H4.46426C2.00436 29 0 27.0309 0 24.6142V10.696C0.0455537 5.59414 1.50327 3.58025 6.8786 3.58025H37.3996L25.3734 20.1389H17.857L27.6511 6.62346ZM13.3928 22.3765H34.3475C37.1262 22.3765 39.7228 21.4815 39.6772 18.3488C39.6772 13.6944 39.6772 9.04012 39.6772 4.3858C39.6772 2.68519 38.2651 1.29784 36.5796 1.29784H4.3276L5.14756 0H36.534C38.9939 0 40.9983 1.96914 40.9983 4.3858V18.3488C40.9983 23.4506 39.5406 25.4645 34.1197 25.4645H3.59874L15.6249 8.90586H23.1868L13.3928 22.3765ZM180.848 8.36883V25.4645H174.835V8.36883H167.638V3.58025H188V8.36883H180.848Z" fill="#0086C7"/>
</svg>
