<svg width="183" height="29" viewBox="0 0 183 29" fill="none" xmlns="http://www.w3.org/2000/svg">
<g clip-path="url(#clip0_818_3944)">
<path d="M7.86432 28.8918C7.92773 28.8656 8.05419 28.864 8.14532 28.8882C8.23646 28.9125 8.18457 28.9339 8.03002 28.9359C7.87547 28.9378 7.8009 28.918 7.86432 28.8918ZM26.8867 28.698C26.9543 28.6704 27.0351 28.6738 27.0662 28.7055C27.0974 28.7373 27.0421 28.7599 26.9433 28.7558C26.8342 28.7512 26.812 28.7285 26.8867 28.698V28.698ZM14.7421 27.7118C14.7421 27.5803 14.7634 27.5266 14.7894 27.5923C14.8154 27.658 14.8154 27.7655 14.7894 27.8313C14.7634 27.897 14.7421 27.8432 14.7421 27.7118ZM8.73253 26.8992C8.6684 26.8204 8.637 26.7558 8.66276 26.7558C8.68854 26.7558 8.76207 26.8204 8.82621 26.8992C8.89034 26.9781 8.92174 27.0426 8.89598 27.0426C8.8702 27.0426 8.79667 26.9781 8.73253 26.8992ZM1.55797 24.1509L1.37954 23.9358L1.59029 24.1179C1.78835 24.289 1.84369 24.366 1.76873 24.366C1.75095 24.366 1.65612 24.2692 1.55797 24.1509ZM22.3524 24.1509L22.174 23.9358L22.3848 24.1179C22.5007 24.2181 22.5955 24.3149 22.5955 24.333C22.5955 24.4095 22.5201 24.353 22.3524 24.1509ZM6.57816 24.127C6.51402 24.0481 6.48262 23.9836 6.50838 23.9836C6.53415 23.9836 6.60769 24.0481 6.67182 24.127C6.73596 24.2059 6.76736 24.2704 6.7416 24.2704C6.71582 24.2704 6.64229 24.2059 6.57816 24.127ZM1.16016 23.1233C1.16016 22.9918 1.18139 22.938 1.2074 23.0038C1.23338 23.0695 1.23338 23.177 1.2074 23.2427C1.18141 23.3085 1.16016 23.2547 1.16016 23.1233ZM78.586 23.2437C78.908 23.225 79.4349 23.225 79.7569 23.2437C80.0789 23.2623 79.8154 23.2776 79.1715 23.2776C78.5275 23.2776 78.264 23.2623 78.586 23.2437ZM74.8861 23.153C74.9763 23.1289 75.1238 23.1289 75.214 23.153C75.3041 23.177 75.2304 23.1967 75.05 23.1967C74.8697 23.1967 74.796 23.177 74.8861 23.153ZM82.7057 23.1561C82.7691 23.1299 82.8955 23.1284 82.9867 23.1526C83.0778 23.1768 83.0259 23.1983 82.8714 23.2002C82.7168 23.2022 82.6423 23.1823 82.7057 23.1561V23.1561ZM45.0581 23.0518C45.7438 23.0354 46.8397 23.0355 47.4935 23.0519C48.1473 23.0683 47.5863 23.0817 46.2469 23.0816C44.9074 23.0815 44.3725 23.0681 45.0581 23.0518V23.0518ZM60.7416 23.0522L64.6517 23.0256L64.6765 15.164L64.7013 7.30249L64.7004 15.189L64.6996 23.0755L60.7655 23.0771L56.8314 23.0788L60.7415 23.0522L60.7416 23.0522ZM73.6274 23.058C73.6951 23.0304 73.7758 23.0338 73.807 23.0655C73.8381 23.0973 73.7828 23.1199 73.684 23.1158C73.5749 23.1112 73.5527 23.0885 73.6274 23.058V23.058ZM84.1183 23.058C84.186 23.0304 84.2668 23.0338 84.2979 23.0655C84.329 23.0973 84.2737 23.1199 84.1749 23.1158C84.0658 23.1112 84.0436 23.0885 84.1183 23.058V23.058ZM160.177 23.0518C160.863 23.0355 161.959 23.0355 162.612 23.0519C163.266 23.0683 162.705 23.0817 161.366 23.0816C160.026 23.0816 159.491 23.0682 160.177 23.0518V23.0518ZM84.9614 22.9624C85.029 22.9348 85.1098 22.9382 85.1409 22.9699C85.172 23.0017 85.1167 23.0243 85.018 23.0201C84.9088 23.0156 84.8866 22.9929 84.9614 22.9624V22.9624ZM115.56 15.1412C115.56 10.7773 115.571 9.00604 115.585 11.205C115.599 13.4041 115.599 16.9745 115.585 19.1394C115.571 21.3042 115.56 19.505 115.56 15.1412H115.56ZM129.917 22.9644C129.981 22.9378 130.086 22.9378 130.151 22.9644C130.215 22.9909 130.162 23.0126 130.034 23.0126C129.905 23.0126 129.852 22.9909 129.917 22.9644ZM166.89 15.1889C166.89 10.8514 166.902 9.07691 166.916 11.2457C166.93 13.4145 166.93 16.9634 166.916 19.1322C166.902 21.301 166.89 19.5265 166.89 15.1889ZM2.5252 21.6266C2.58861 21.6005 2.71507 21.5989 2.8062 21.6231C2.89734 21.6473 2.84545 21.6688 2.6909 21.6707C2.53634 21.6727 2.46178 21.6528 2.5252 21.6266V21.6266ZM11.7768 20.829C11.87 20.7238 11.9674 20.6378 11.9931 20.6378C12.0189 20.6378 11.9637 20.7238 11.8704 20.829C11.7772 20.9342 11.6798 21.0202 11.6541 21.0202C11.6283 21.0202 11.6835 20.9342 11.7768 20.829ZM13.7731 19.3298C13.8407 19.3022 13.9215 19.3056 13.9526 19.3373C13.9837 19.3691 13.9284 19.3917 13.8297 19.3875C13.7206 19.3829 13.6984 19.3603 13.7731 19.3298V19.3298ZM69.25 19.0525C69.2545 18.9412 69.2767 18.9185 69.3066 18.9948C69.3336 19.0638 69.3303 19.1462 69.2992 19.178C69.268 19.2098 69.2459 19.1533 69.25 19.0525ZM78.6288 19.1331C78.9743 19.1148 79.5644 19.1146 79.9401 19.1328C80.3159 19.151 80.0332 19.166 79.312 19.1662C78.5907 19.1664 78.2833 19.1514 78.6288 19.1331V19.1331ZM76.3438 19.043C76.4115 19.0154 76.4922 19.0188 76.5234 19.0505C76.5545 19.0823 76.4992 19.1049 76.4004 19.1008C76.2913 19.0962 76.2691 19.0735 76.3438 19.043V19.043ZM82.1454 19.045C82.2098 19.0185 82.3152 19.0185 82.3796 19.045C82.444 19.0715 82.3913 19.0932 82.2625 19.0932C82.1337 19.0932 82.081 19.0715 82.1454 19.045ZM111.315 18.9171C111.315 18.7857 111.336 18.7319 111.362 18.7976C111.388 18.8633 111.388 18.9709 111.362 19.0366C111.336 19.1023 111.315 19.0486 111.315 18.9171ZM9.15405 18.7259C9.24729 18.6208 9.34466 18.5347 9.37042 18.5347C9.39619 18.5347 9.34096 18.6208 9.24771 18.7259C9.15447 18.8311 9.0571 18.9171 9.03134 18.9171C9.00557 18.9171 9.0608 18.8311 9.15405 18.7259ZM12.3299 18.702L12.1514 18.4869L12.3622 18.6691C12.5603 18.8402 12.6156 18.9171 12.5406 18.9171C12.5229 18.9171 12.428 18.8203 12.3299 18.702ZM89.2951 18.7658C89.2996 18.6544 89.3218 18.6317 89.3517 18.708C89.3787 18.777 89.3754 18.8595 89.3443 18.8912C89.3132 18.923 89.291 18.8665 89.2951 18.7658H89.2951ZM171.667 13.1337C171.667 9.9265 171.678 8.62832 171.693 10.2488C171.707 11.8694 171.707 14.4934 171.693 16.0801C171.678 17.6667 171.667 16.3409 171.667 13.1337H171.667ZM15.8748 18.66C15.9649 18.636 16.1125 18.636 16.2026 18.66C16.2928 18.6841 16.219 18.7038 16.0387 18.7038C15.8584 18.7038 15.7846 18.6841 15.8748 18.66ZM59.9195 12.7991C59.9195 9.77594 59.9314 8.53919 59.9459 10.0508C59.9604 11.5624 59.9604 14.0358 59.9459 15.5474C59.9314 17.059 59.9195 15.8223 59.9195 12.7991ZM69.1706 17.77C69.1706 17.586 69.1899 17.5107 69.2135 17.6027C69.237 17.6947 69.237 17.8453 69.2135 17.9373C69.1899 18.0293 69.1706 17.954 69.1706 17.77ZM89.3888 17.8098C89.3933 17.6985 89.4155 17.6758 89.4454 17.7521C89.4724 17.8211 89.4691 17.9035 89.438 17.9353C89.4068 17.9671 89.3847 17.9106 89.3887 17.8098H89.3888ZM9.77029 17.3319C9.77479 17.2205 9.79698 17.1978 9.82688 17.2741C9.85392 17.3431 9.8506 17.4256 9.81948 17.4573C9.78836 17.4891 9.76622 17.4326 9.77028 17.3319H9.77029ZM135.294 17.1964C135.294 17.065 135.315 17.0112 135.341 17.0769C135.367 17.1427 135.367 17.2502 135.341 17.3159C135.315 17.3816 135.294 17.3279 135.294 17.1964ZM84.6116 17.0451C84.6161 16.9337 84.6383 16.9111 84.6682 16.9873C84.6953 17.0563 84.692 17.1388 84.6608 17.1705C84.6297 17.2023 84.6076 17.1458 84.6116 17.0451ZM130.509 16.5671C130.514 16.4557 130.536 16.4331 130.566 16.5093C130.593 16.5784 130.59 16.6608 130.559 16.6926C130.527 16.7243 130.505 16.6679 130.509 16.5671ZM6.39082 16.0132C6.39082 15.9934 6.46458 15.9181 6.55474 15.8459C6.7033 15.727 6.70661 15.7304 6.5901 15.882C6.46774 16.0412 6.39082 16.0919 6.39082 16.0132ZM89.5088 15.1889C89.5088 14.6895 89.5246 14.4851 89.5439 14.7349C89.5632 14.9846 89.5632 15.3933 89.5439 15.643C89.5246 15.8928 89.5088 15.6884 89.5088 15.1889ZM84.7312 15.1412C84.7314 14.668 84.7475 14.4864 84.7669 14.7378C84.7862 14.9891 84.786 15.3762 84.7663 15.5981C84.7467 15.82 84.7308 15.6143 84.7311 15.1412H84.7312ZM13.5858 14.9325C13.6534 14.9048 13.7342 14.9082 13.7653 14.94C13.7964 14.9718 13.7411 14.9944 13.6423 14.9902C13.5332 14.9856 13.511 14.963 13.5858 14.9325V14.9325ZM13.9604 14.9325C14.028 14.9048 14.1088 14.9082 14.14 14.94C14.1711 14.9718 14.1158 14.9944 14.017 14.9902C13.9079 14.9856 13.8857 14.963 13.9604 14.9325V14.9325ZM17.3649 14.4242C17.3649 14.2928 17.3861 14.239 17.4121 14.3047C17.4381 14.3704 17.4381 14.478 17.4121 14.5437C17.3861 14.6094 17.3649 14.5556 17.3649 14.4242ZM7.77828 13.8809C7.8459 13.8533 7.92669 13.8567 7.95782 13.8885C7.98893 13.9202 7.93364 13.9428 7.83488 13.9387C7.72576 13.9341 7.70356 13.9114 7.77828 13.8809V13.8809ZM73.9334 13.6037C73.9379 13.4923 73.9601 13.4697 73.99 13.5459C74.0171 13.6149 74.0137 13.6974 73.9826 13.7291C73.9515 13.7609 73.9293 13.7045 73.9334 13.6037ZM106.53 13.4125C106.535 13.3011 106.557 13.2785 106.587 13.3547C106.614 13.4237 106.61 13.5062 106.579 13.538C106.548 13.5697 106.526 13.5133 106.53 13.4125H106.53ZM12.2362 13.2532L12.0578 13.0381L12.2685 13.2202C12.4666 13.3913 12.5219 13.4683 12.447 13.4683C12.4292 13.4683 12.3344 13.3715 12.2362 13.2532ZM69.1672 13.0381C69.1691 12.8804 69.1901 12.8274 69.2138 12.9204C69.2376 13.0134 69.236 13.1425 69.2103 13.2072C69.1847 13.2719 69.1653 13.1958 69.1672 13.0381ZM135.294 13.0859C135.294 12.9544 135.315 12.9007 135.341 12.9664C135.367 13.0321 135.367 13.1397 135.341 13.2054C135.315 13.2711 135.294 13.2173 135.294 13.0859ZM16.0153 13.1182C16.0797 13.0916 16.1851 13.0916 16.2495 13.1182C16.3139 13.1447 16.2612 13.1664 16.1324 13.1664C16.0036 13.1664 15.9509 13.1447 16.0153 13.1182ZM111.318 12.6557C111.32 12.498 111.341 12.445 111.365 12.538C111.389 12.631 111.387 12.7601 111.361 12.8248C111.336 12.8895 111.316 12.8134 111.318 12.6557H111.318ZM89.3888 12.5521C89.3933 12.4408 89.4155 12.4181 89.4454 12.4944C89.4724 12.5634 89.4691 12.6459 89.438 12.6776C89.4068 12.7094 89.3847 12.6529 89.3887 12.5521H89.3888ZM5.74253 11.9786C5.74702 11.8672 5.76922 11.8446 5.79912 11.9208C5.82617 11.9898 5.82284 12.0723 5.79172 12.1041C5.7606 12.1358 5.73846 12.0794 5.74253 11.9786ZM69.25 11.883C69.2545 11.7716 69.2767 11.749 69.3066 11.8252C69.3336 11.8942 69.3303 11.9767 69.2992 12.0085C69.268 12.0402 69.2459 11.9838 69.25 11.883ZM89.2951 11.5962C89.2996 11.4848 89.3218 11.4622 89.3517 11.5385C89.3787 11.6075 89.3754 11.6899 89.3443 11.7217C89.3132 11.7534 89.291 11.697 89.2951 11.5962H89.2951ZM5.74253 11.5006C5.74702 11.3893 5.76922 11.3666 5.79912 11.4429C5.82617 11.5119 5.82284 11.5943 5.79172 11.6261C5.7606 11.6578 5.73846 11.6014 5.74253 11.5006ZM111.315 11.174C111.315 11.0426 111.336 10.9888 111.362 11.0545C111.388 11.1202 111.388 11.2278 111.362 11.2935C111.336 11.3592 111.315 11.3054 111.315 11.174ZM77.0405 11.2037C77.1307 11.1797 77.2782 11.1797 77.3683 11.2037C77.4585 11.2277 77.3847 11.2474 77.2044 11.2474C77.0241 11.2474 76.9503 11.2277 77.0405 11.2037ZM81.3006 11.2069C81.3641 11.1807 81.4905 11.1791 81.5816 11.2033C81.6728 11.2276 81.6209 11.249 81.4663 11.2509C81.3118 11.2529 81.2372 11.2331 81.3006 11.2069V11.2069ZM1.40117 10.3465C1.46459 10.3203 1.59104 10.3188 1.68218 10.343C1.77331 10.3672 1.72143 10.3887 1.56688 10.3906C1.41232 10.3926 1.33775 10.3727 1.40117 10.3465V10.3465ZM6.34398 10.218C6.43723 10.1129 6.5346 10.0269 6.56036 10.0269C6.58613 10.0269 6.5309 10.1129 6.43765 10.218C6.34441 10.3232 6.24704 10.4092 6.22128 10.4092C6.1955 10.4092 6.25073 10.3232 6.34398 10.218ZM16.1072 10.3465C16.1706 10.3203 16.297 10.3188 16.3882 10.343C16.4793 10.3672 16.4274 10.3887 16.2729 10.3906C16.1183 10.3926 16.0438 10.3727 16.1072 10.3465V10.3465ZM7.67986 9.57688C7.79637 9.55401 7.96497 9.55488 8.05453 9.57879C8.14408 9.60272 8.04876 9.62143 7.84268 9.62036C7.63661 9.61932 7.56334 9.59973 7.67986 9.57686V9.57688ZM13.7672 9.29439C13.8316 9.26787 13.937 9.26787 14.0014 9.29439C14.0658 9.32091 14.0131 9.34261 13.8843 9.34261C13.7555 9.34261 13.7028 9.32091 13.7672 9.29439ZM17.5448 9.01516C17.5493 8.9038 17.5715 8.88114 17.6014 8.9574C17.6284 9.02641 17.6251 9.10886 17.594 9.14062C17.5629 9.17239 17.5407 9.11593 17.5448 9.01516H17.5448ZM133.912 8.66465L133.734 8.44956L133.944 8.63167C134.142 8.8028 134.198 8.87973 134.123 8.87973C134.105 8.87973 134.01 8.78294 133.912 8.66465ZM7.95977 8.52964C8.02417 8.50312 8.12954 8.50312 8.19394 8.52964C8.25834 8.55616 8.20566 8.57786 8.07685 8.57786C7.94806 8.57786 7.89537 8.55616 7.95977 8.52964ZM74.0021 7.28494C74.0697 7.25732 74.1505 7.26072 74.1816 7.29249C74.2128 7.32425 74.1574 7.34684 74.0587 7.34269C73.9496 7.33811 73.9274 7.31545 74.0021 7.28494ZM84.493 7.28494C84.5606 7.25732 84.6414 7.26072 84.6726 7.29249C84.7037 7.32425 84.6484 7.34684 84.5496 7.34269C84.4405 7.33811 84.4183 7.31545 84.493 7.28494ZM107.342 7.28692C107.407 7.26041 107.512 7.26041 107.577 7.28692C107.641 7.31344 107.588 7.33514 107.459 7.33514C107.331 7.33514 107.278 7.31344 107.342 7.28692ZM129.729 7.28692C129.794 7.26041 129.899 7.26041 129.963 7.28692C130.028 7.31344 129.975 7.33514 129.846 7.33514C129.717 7.33514 129.665 7.31344 129.729 7.28692ZM75.0266 7.19133C75.091 7.16481 75.1964 7.16481 75.2608 7.19133C75.3252 7.21785 75.2725 7.23955 75.1437 7.23955C75.0149 7.23955 74.9622 7.21785 75.0266 7.19133ZM83.4627 7.18935C83.5303 7.16173 83.6111 7.16513 83.6422 7.1969C83.6733 7.22866 83.618 7.25125 83.5193 7.2471C83.4101 7.24252 83.3879 7.21986 83.4627 7.18935ZM76.8063 7.09159C76.9222 7.06881 77.1119 7.06881 77.2278 7.09159C77.3438 7.11438 77.2489 7.13302 77.0171 7.13302C76.7852 7.13302 76.6904 7.11438 76.8063 7.09159ZM81.4442 7.09047C81.5866 7.0685 81.7974 7.06909 81.9126 7.09177C82.0278 7.11446 81.9113 7.13244 81.6537 7.13172C81.3961 7.131 81.3018 7.11244 81.4442 7.09047V7.09047ZM5.56953 6.01194C5.56953 5.82792 5.58882 5.75264 5.61237 5.84465C5.63594 5.93666 5.63594 6.08722 5.61237 6.17923C5.58879 6.27124 5.56953 6.19596 5.56953 6.01194ZM11.3789 5.86855C11.3778 5.65824 11.3962 5.56095 11.4196 5.65235C11.4431 5.74374 11.4439 5.91581 11.4214 6.03472C11.399 6.15363 11.3798 6.07886 11.3788 5.86855H11.3789ZM16.8817 3.19192C17.0027 3.06047 17.1228 2.95293 17.1485 2.95293C17.1743 2.95293 17.0964 3.06047 16.9754 3.19192C16.8544 3.32336 16.7343 3.4309 16.7086 3.4309C16.6828 3.4309 16.7607 3.32336 16.8817 3.19192ZM13.7731 3.17441C13.8407 3.1468 13.9215 3.15019 13.9526 3.18196C13.9837 3.21372 13.9284 3.23632 13.8297 3.23217C13.7206 3.22758 13.6984 3.20493 13.7731 3.17441V3.17441ZM14.1419 3.1764C14.2063 3.14988 14.3117 3.14988 14.3761 3.1764C14.4405 3.20292 14.3878 3.22461 14.259 3.22461C14.1302 3.22461 14.0775 3.20292 14.1419 3.1764ZM23.7956 0.115397C23.8633 0.0877832 23.9441 0.0911792 23.9752 0.122945C24.0063 0.15471 23.951 0.177303 23.8522 0.173152C23.7431 0.168563 23.7209 0.145914 23.7956 0.115397ZM27.0741 0.115397C27.1417 0.0877832 27.2225 0.0911792 27.2536 0.122945C27.2847 0.15471 27.2294 0.177303 27.1306 0.173152C27.0215 0.168563 26.9993 0.145914 27.0741 0.115397ZM25.148 0.0154673C25.3412 -0.00515576 25.6573 -0.00515576 25.8505 0.0154673C26.0437 0.0360903 25.8856 0.0529653 25.4992 0.0529653C25.1129 0.0529653 24.9548 0.0360925 25.148 0.0154673Z" fill="#A7A5A5"/>
<path d="M24.2636 28.6985C24.3312 28.6709 24.412 28.6743 24.4431 28.706C24.4743 28.7378 24.4189 28.7604 24.3202 28.7562C24.2111 28.7516 24.1889 28.729 24.2636 28.6985V28.6985ZM26.6053 28.6985C26.6729 28.6709 26.7537 28.6743 26.7849 28.706C26.816 28.7378 26.7607 28.7604 26.6619 28.7562C26.5528 28.7516 26.5306 28.729 26.6053 28.6985V28.6985ZM24.5388 24.9648C24.8607 24.9462 25.3876 24.9462 25.7096 24.9648C26.0316 24.9835 25.7682 24.9988 25.1242 24.9988C24.4802 24.9988 24.2168 24.9835 24.5388 24.9648ZM6.11682 22.8768C6.12131 22.7654 6.14351 22.7428 6.17341 22.819C6.20046 22.888 6.19713 22.9705 6.16601 23.0022C6.13489 23.034 6.11275 22.9775 6.11681 22.8768H6.11682ZM9.01315 21.642C8.94902 21.5632 8.91762 21.4986 8.94338 21.4986C8.96915 21.4986 9.04269 21.5632 9.10682 21.642C9.17096 21.7209 9.20235 21.7854 9.17659 21.7854C9.15082 21.7854 9.07729 21.7209 9.01315 21.642ZM7.67659 21.1491C7.74001 21.123 7.86646 21.1214 7.9576 21.1456C8.04873 21.1698 7.99685 21.1913 7.84229 21.1932C7.68774 21.1952 7.61317 21.1753 7.67659 21.1491V21.1491ZM7.72521 19.2341C7.81536 19.21 7.96289 19.21 8.05305 19.2341C8.14321 19.2581 8.06944 19.2778 7.88913 19.2778C7.70882 19.2778 7.63505 19.2581 7.72521 19.2341ZM5.93687 17.2925C5.93687 17.161 5.95812 17.1073 5.98412 17.173C6.0101 17.2387 6.0101 17.3463 5.98412 17.412C5.95813 17.4777 5.93687 17.4239 5.93687 17.2925ZM15.9194 15.7959C15.9829 15.7697 16.1093 15.7681 16.2005 15.7923C16.2916 15.8166 16.2397 15.838 16.0851 15.8399C15.9306 15.8419 15.856 15.8221 15.9194 15.7959V15.7959ZM12.3384 15.5718C12.4316 15.4666 12.529 15.3806 12.5548 15.3806C12.5805 15.3806 12.5253 15.4666 12.4321 15.5718C12.3388 15.6769 12.2414 15.763 12.2157 15.763C12.1899 15.763 12.2451 15.6769 12.3384 15.5718ZM13.679 13.8814C13.7466 13.8538 13.8274 13.8572 13.8586 13.8889C13.8897 13.9207 13.8344 13.9433 13.7356 13.9391C13.6265 13.9346 13.6043 13.9119 13.679 13.8814V13.8814ZM1.49623 13.6922C1.56063 13.6657 1.66601 13.6657 1.7304 13.6922C1.7948 13.7187 1.74212 13.7404 1.61332 13.7404C1.48452 13.7404 1.43184 13.7187 1.49623 13.6922ZM15.1016 9.78836C15.0375 9.70949 15.0061 9.64497 15.0318 9.64497C15.0576 9.64497 15.1312 9.70949 15.1953 9.78836C15.2594 9.86722 15.2908 9.93175 15.2651 9.93175C15.2393 9.93175 15.1658 9.86722 15.1016 9.78836ZM9.66883 7.88818C9.66883 7.86833 9.7426 7.79305 9.83276 7.72089C9.98132 7.60199 9.98463 7.60537 9.86812 7.75698C9.74576 7.91622 9.66884 7.96686 9.66884 7.88818L9.66883 7.88818ZM22.1034 4.12533C22.4254 4.10666 22.9522 4.10666 23.2742 4.12533C23.5962 4.14399 23.3328 4.15927 22.6888 4.15927C22.0448 4.15927 21.7814 4.144 22.1034 4.12533ZM32.965 4.12543C33.2849 4.10682 33.8329 4.10669 34.1827 4.12513C34.5326 4.14357 34.2709 4.1588 33.6012 4.15896C32.9315 4.15913 32.6452 4.14404 32.965 4.12543V4.12543Z" fill="#7786A4"/>
<path d="M75.4016 23.1554C75.466 23.1289 75.5714 23.1289 75.6358 23.1554C75.7002 23.1819 75.6475 23.2036 75.5187 23.2036C75.3899 23.2036 75.3372 23.1819 75.4016 23.1554ZM82.4326 23.1534C82.5002 23.1258 82.581 23.1292 82.6121 23.161C82.6433 23.1927 82.5879 23.2153 82.4892 23.2112C82.3801 23.2066 82.3579 23.1839 82.4326 23.1534V23.1534ZM43.9033 15.1888C43.9033 10.8512 43.9148 9.07678 43.9288 11.2456C43.9429 13.4144 43.9429 16.9633 43.9288 19.1321C43.9148 21.3009 43.9033 19.5264 43.9033 15.1888ZM97.5711 20.8289C97.5711 19.5933 97.5845 19.0879 97.6008 19.7056C97.6171 20.3234 97.6171 21.3343 97.6008 21.9521C97.5845 22.5699 97.5711 22.0644 97.5711 20.8289ZM111.34 21.0679C111.34 19.9637 111.353 19.499 111.37 20.035C111.387 20.5711 111.387 21.4744 111.37 22.0425C111.353 22.6106 111.34 22.172 111.34 21.0679H111.34ZM129.542 22.9642C129.607 22.9377 129.712 22.9377 129.776 22.9642C129.841 22.9907 129.788 23.0124 129.659 23.0124C129.53 23.0124 129.478 22.9907 129.542 22.9642ZM144.125 20.5899C144.125 19.2229 144.138 18.6504 144.154 19.3176C144.17 19.9849 144.17 21.1033 144.154 21.8031C144.138 22.5028 144.125 21.9569 144.125 20.5899H144.125ZM159.022 15.1888C159.022 10.8512 159.034 9.07678 159.048 11.2456C159.062 13.4144 159.062 16.9633 159.048 19.1321C159.034 21.3009 159.022 19.5264 159.022 15.1888ZM60.2581 19.5304C60.2626 19.419 60.2847 19.3964 60.3146 19.4726C60.3417 19.5416 60.3384 19.6241 60.3073 19.6559C60.2761 19.6876 60.254 19.6312 60.2581 19.5304H60.2581ZM77.6028 19.1379C77.693 19.1138 77.8405 19.1138 77.9306 19.1379C78.0208 19.1619 77.947 19.1816 77.7667 19.1816C77.5864 19.1816 77.5126 19.1619 77.6028 19.1379ZM80.6939 19.1379C80.784 19.1138 80.9316 19.1138 81.0217 19.1379C81.1119 19.1619 81.0381 19.1816 80.8578 19.1816C80.6775 19.1816 80.6037 19.1619 80.6939 19.1379ZM174.363 18.9409C175.844 18.9262 178.267 18.9262 179.749 18.9409C181.23 18.9557 180.018 18.9678 177.056 18.9678C174.093 18.9678 172.882 18.9557 174.363 18.9409ZM69.164 17.2919C69.164 17.1604 69.1852 17.1067 69.2112 17.1724C69.2372 17.2381 69.2372 17.3457 69.2112 17.4114C69.1852 17.4771 69.164 17.4233 69.164 17.2919ZM84.7056 16.089C84.7101 15.9776 84.7323 15.955 84.7622 16.0312C84.7893 16.1002 84.7859 16.1827 84.7548 16.2145C84.7237 16.2462 84.7015 16.1898 84.7056 16.089ZM130.625 15.141C130.626 14.8256 130.643 14.708 130.664 14.8799C130.685 15.0517 130.684 15.3098 130.663 15.4534C130.641 15.5971 130.624 15.4565 130.625 15.141H130.625ZM97.5723 14.4919C97.5468 14.4241 97.5387 13.682 97.5543 12.8429L97.5828 11.3173L97.6037 12.9174L97.6245 14.5175L101.488 14.5436L105.352 14.5696L101.485 14.5924C98.3981 14.6107 97.6093 14.5904 97.5723 14.4919L97.5723 14.4919ZM84.7056 14.1771C84.7101 14.0658 84.7323 14.0431 84.7622 14.1194C84.7893 14.1884 84.7859 14.2708 84.7548 14.3026C84.7237 14.3343 84.7015 14.2779 84.7056 14.1771ZM144.125 14.013C144.1 13.9446 144.092 13.3101 144.108 12.603L144.137 11.3173L144.157 12.6787L144.178 14.0402L149.681 14.0656L155.184 14.091L149.678 14.1142C145.23 14.1328 144.163 14.1134 144.125 14.013L144.125 14.013ZM69.164 13.4681C69.164 13.3367 69.1852 13.2829 69.2112 13.3486C69.2372 13.4144 69.2372 13.5219 69.2112 13.5876C69.1852 13.6533 69.164 13.5996 69.164 13.4681ZM135.287 13.4124C135.291 13.301 135.313 13.2784 135.343 13.3546C135.37 13.4236 135.367 13.5061 135.336 13.5378C135.305 13.5696 135.283 13.5131 135.287 13.4124H135.287ZM111.329 11.8908C111.33 11.5754 111.347 11.4578 111.368 11.6297C111.389 11.8015 111.388 12.0596 111.367 12.2032C111.346 12.3469 111.329 12.2063 111.329 11.8908H111.329ZM155.833 9.35758C155.833 8.22718 155.846 7.76475 155.863 8.32995C155.879 8.89515 155.879 9.82002 155.863 10.3852C155.846 10.9504 155.833 10.488 155.833 9.35758ZM81.7769 11.2042C81.8445 11.1765 81.9253 11.1799 81.9565 11.2117C81.9876 11.2435 81.9323 11.2661 81.8335 11.2619C81.7244 11.2573 81.7022 11.2347 81.7769 11.2042V11.2042ZM106.827 7.28421C106.918 7.26017 107.065 7.26017 107.155 7.28421C107.245 7.30826 107.172 7.32793 106.991 7.32793C106.811 7.32793 106.737 7.30826 106.827 7.28421ZM129.169 7.28251C129.285 7.25965 129.454 7.26052 129.543 7.28443C129.633 7.30835 129.537 7.32706 129.331 7.326C129.125 7.32496 129.052 7.30537 129.169 7.2825V7.28251ZM83.182 7.18921C83.2496 7.1616 83.3304 7.16499 83.3615 7.19676C83.3926 7.22853 83.3373 7.25112 83.2385 7.24697C83.1294 7.24238 83.1072 7.21973 83.182 7.18921ZM77.6041 7.09032C77.7465 7.06835 77.9572 7.06894 78.0724 7.09162C78.1876 7.11431 78.0712 7.13229 77.8136 7.13157C77.556 7.13085 77.4617 7.11229 77.6041 7.09032V7.09032ZM80.6015 7.09032C80.7439 7.06835 80.9546 7.06894 81.0698 7.09162C81.185 7.11431 81.0686 7.13229 80.811 7.13157C80.5534 7.13085 80.4591 7.11229 80.6015 7.09032V7.09032Z" fill="#8A857C"/>
<path d="M12.48 28.6199C12.4159 28.541 12.3845 28.4765 12.4102 28.4765C12.436 28.4765 12.5095 28.541 12.5737 28.6199C12.6378 28.6988 12.6692 28.7633 12.6434 28.7633C12.6177 28.7633 12.5441 28.6988 12.48 28.6199ZM12.1127 27.656C12.1172 27.5446 12.1394 27.522 12.1693 27.5982C12.1964 27.6673 12.193 27.7497 12.1619 27.7815C12.1308 27.8132 12.1086 27.7568 12.1127 27.656H12.1127ZM8.92059 24.2343C8.92059 24.2144 8.99435 24.1392 9.08451 24.067C9.23307 23.9481 9.23638 23.9515 9.11987 24.1031C8.99751 24.2623 8.92059 24.313 8.92059 24.2343V24.2343ZM31.8624 23.5295L31.6353 23.2666L31.8929 23.4984C32.0345 23.6259 32.1504 23.7442 32.1504 23.7613C32.1504 23.8362 32.0746 23.7752 31.8624 23.5295ZM4.0646 23.1233C4.0646 22.9918 4.08588 22.938 4.11185 23.0038C4.13784 23.0695 4.13784 23.177 4.11185 23.2427C4.08586 23.3085 4.0646 23.2547 4.0646 23.1233ZM6.6257 21.6893C6.71895 21.5842 6.81632 21.4982 6.84208 21.4982C6.86785 21.4982 6.81262 21.5842 6.71937 21.6893C6.62613 21.7945 6.52876 21.8805 6.503 21.8805C6.47723 21.8805 6.53245 21.7945 6.6257 21.6893ZM21.5171 13.0381C21.5171 8.14845 21.5285 6.16215 21.5424 8.62409C21.5564 11.086 21.5563 15.0866 21.5424 17.5143C21.5285 19.942 21.5171 17.9277 21.5171 13.0381ZM6.4852 18.6781C6.42107 18.5993 6.38967 18.5347 6.41542 18.5347C6.4412 18.5347 6.51473 18.5993 6.57887 18.6781C6.643 18.757 6.6744 18.8215 6.64864 18.8215C6.62287 18.8215 6.54933 18.757 6.4852 18.6781ZM0.677734 16.9691C0.677734 16.9493 0.751502 16.874 0.841657 16.8019C0.99022 16.6829 0.993533 16.6863 0.877024 16.8379C0.754659 16.9972 0.67774 17.0478 0.67774 16.9691H0.677734ZM9.14586 15.9298L8.96742 15.7147L9.17817 15.8968C9.37623 16.068 9.43157 16.1449 9.35661 16.1449C9.33884 16.1449 9.244 16.0481 9.14586 15.9298ZM2.69161 13.1815C2.78486 13.0763 2.88223 12.9903 2.90799 12.9903C2.93376 12.9903 2.87853 13.0763 2.78528 13.1815C2.69204 13.2866 2.59467 13.3727 2.56891 13.3727C2.54314 13.3727 2.59836 13.2866 2.69161 13.1815ZM9.2016 13.3366C9.2016 13.3167 9.27536 13.2414 9.36552 13.1693C9.51408 13.0504 9.51739 13.0538 9.40088 13.2054C9.27851 13.3646 9.2016 13.4152 9.2016 13.3366V13.3366ZM12.2458 10.0269C12.3391 9.92172 12.4364 9.83568 12.4622 9.83568C12.488 9.83568 12.4327 9.92172 12.3395 10.0269C12.2463 10.132 12.1489 10.2181 12.1231 10.2181C12.0974 10.2181 12.1526 10.132 12.2458 10.0269ZM13.8598 8.53026C13.9233 8.50407 14.0497 8.50248 14.1408 8.52672C14.232 8.55095 14.1801 8.57238 14.0255 8.57433C13.871 8.57628 13.7964 8.55644 13.8598 8.53026V8.53026ZM17.1634 8.06719C17.0993 7.98833 17.0679 7.9238 17.0937 7.9238C17.1194 7.9238 17.193 7.98833 17.2571 8.06719C17.3212 8.14606 17.3526 8.21058 17.3269 8.21058C17.3011 8.21058 17.2276 8.14606 17.1634 8.06719ZM6.29786 7.78041C6.23373 7.70155 6.20233 7.63702 6.22809 7.63702C6.25386 7.63702 6.3274 7.70155 6.39153 7.78041C6.45567 7.85928 6.48706 7.9238 6.46131 7.9238C6.43553 7.9238 6.36199 7.85928 6.29786 7.78041ZM27.743 5.94023L27.4202 5.58175L27.7714 5.91118C27.9646 6.09237 28.1227 6.25368 28.1227 6.26966C28.1227 6.34266 28.0434 6.27389 27.743 5.94023ZM12.1522 4.00445C12.2454 3.89929 12.3428 3.81326 12.3685 3.81326C12.3943 3.81326 12.3391 3.89929 12.2458 4.00445C12.1526 4.1096 12.0552 4.19564 12.0295 4.19564C12.0037 4.19564 12.0589 4.1096 12.1522 4.00445ZM34.7732 3.76546C34.709 3.6866 34.6776 3.62207 34.7034 3.62207C34.7292 3.62207 34.8027 3.6866 34.8668 3.76546C34.931 3.84433 34.9624 3.90885 34.9366 3.90885C34.9109 3.90885 34.8373 3.84433 34.7732 3.76546Z" fill="#52638B"/>
<path d="M75.8237 23.1529C75.9138 23.1289 76.0614 23.1289 76.1515 23.1529C76.2417 23.177 76.1679 23.1966 75.9876 23.1966C75.8073 23.1966 75.7335 23.177 75.8237 23.1529ZM81.9572 23.1561C82.0206 23.1299 82.1471 23.1283 82.2382 23.1526C82.3294 23.1768 82.2775 23.1982 82.1229 23.2002C81.9684 23.2021 81.8938 23.1823 81.9572 23.1561V23.1561ZM74.0967 23.0579C74.1643 23.0303 74.2451 23.0337 74.2762 23.0655C74.3073 23.0972 74.252 23.1198 74.1533 23.1157C74.0441 23.1111 74.0219 23.0884 74.0967 23.0579V23.0579ZM83.6509 23.0579C83.7185 23.0303 83.7993 23.0337 83.8304 23.0655C83.8615 23.0972 83.8062 23.1198 83.7075 23.1157C83.5984 23.1111 83.5762 23.0884 83.6509 23.0579V23.0579ZM119.052 22.956C120.971 22.9415 124.111 22.9415 126.03 22.956C127.949 22.9704 126.379 22.9822 122.541 22.9822C118.703 22.9822 117.133 22.9704 119.052 22.956ZM70.2738 21.8327C70.2097 21.7538 70.1783 21.6893 70.204 21.6893C70.2298 21.6893 70.3033 21.7538 70.3675 21.8327C70.4316 21.9116 70.463 21.9761 70.4373 21.9761C70.4115 21.9761 70.3379 21.9116 70.2738 21.8327ZM60.1114 19.7785C60.0786 19.7243 60.1162 19.7083 60.1996 19.741C60.3618 19.8045 60.3915 19.873 60.2568 19.873C60.2083 19.873 60.1429 19.8305 60.1114 19.7785ZM77.1819 19.1406C77.2463 19.114 77.3517 19.114 77.4161 19.1406C77.4805 19.1671 77.4278 19.1888 77.299 19.1888C77.1702 19.1888 77.1175 19.1671 77.1819 19.1406ZM81.2096 19.1406C81.274 19.114 81.3794 19.114 81.4438 19.1406C81.5082 19.1671 81.4555 19.1888 81.3267 19.1888C81.1979 19.1888 81.1452 19.1671 81.2096 19.1406ZM122.283 18.9411C123.352 18.9258 125.102 18.9258 126.171 18.9411C127.24 18.9564 126.365 18.969 124.227 18.969C122.089 18.969 121.214 18.9564 122.283 18.9411ZM69.2508 18.6701C69.2553 18.5588 69.2775 18.5361 69.3074 18.6124C69.3345 18.6814 69.3312 18.7638 69.3 18.7956C69.2689 18.8274 69.2468 18.7709 69.2509 18.6701H69.2508ZM155.178 16.1449C155.178 15.0145 155.191 14.552 155.208 15.1172C155.224 15.6824 155.224 16.6073 155.208 17.1725C155.191 17.7377 155.178 17.2753 155.178 16.1449ZM89.397 17.292C89.397 17.1606 89.4183 17.1068 89.4443 17.1725C89.4703 17.2382 89.4703 17.3458 89.4443 17.4115C89.4183 17.4772 89.397 17.4234 89.397 17.292ZM69.1766 16.6706C69.1773 16.4077 69.1955 16.3116 69.217 16.4569C69.2385 16.6022 69.238 16.8173 69.2157 16.9348C69.1935 17.0524 69.1759 16.9335 69.1766 16.6706H69.1766ZM135.298 16.575C135.3 16.4173 135.321 16.3644 135.345 16.4574C135.369 16.5504 135.367 16.6794 135.341 16.7441C135.316 16.8089 135.296 16.7328 135.298 16.575H135.298ZM84.7136 16.4316C84.7136 16.3002 84.7349 16.2464 84.7608 16.3122C84.7868 16.3779 84.7868 16.4854 84.7608 16.5511C84.7348 16.6169 84.7136 16.5631 84.7136 16.4316ZM130.611 15.8581C130.611 15.7266 130.633 15.6729 130.659 15.7386C130.685 15.8043 130.685 15.9119 130.659 15.9776C130.633 16.0433 130.611 15.9895 130.611 15.8581ZM73.866 15.1889C73.866 14.742 73.8821 14.5592 73.9018 14.7826C73.9215 15.0061 73.9215 15.3717 73.9018 15.5952C73.8821 15.8187 73.866 15.6358 73.866 15.1889ZM105.382 14.5501C105.45 14.5224 105.53 14.5258 105.562 14.5576C105.593 14.5894 105.537 14.612 105.439 14.6078C105.33 14.6032 105.307 14.5806 105.382 14.5501V14.5501ZM130.611 14.4242C130.611 14.2927 130.633 14.239 130.659 14.3047C130.685 14.3704 130.685 14.4779 130.659 14.5437C130.633 14.6094 130.611 14.5556 130.611 14.4242ZM69.1734 13.994C69.1724 13.7837 69.1907 13.6864 69.2141 13.7778C69.2376 13.8692 69.2384 14.0413 69.216 14.1602C69.1936 14.2791 69.1744 14.2043 69.1734 13.994H69.1734ZM84.7062 13.8904C84.7107 13.7791 84.7329 13.7564 84.7628 13.8327C84.7898 13.9017 84.7865 13.9841 84.7554 14.0159C84.7243 14.0477 84.7021 13.9912 84.7062 13.8904ZM135.295 13.755C135.295 13.6236 135.316 13.5698 135.342 13.6355C135.368 13.7012 135.368 13.8088 135.342 13.8745C135.316 13.9402 135.295 13.8865 135.295 13.755ZM89.397 13.0859C89.397 12.9544 89.4183 12.9006 89.4443 12.9664C89.4703 13.0321 89.4703 13.1396 89.4443 13.2053C89.4183 13.2711 89.397 13.2173 89.397 13.0859ZM69.2508 12.2653C69.2553 12.154 69.2775 12.1313 69.3074 12.2076C69.3345 12.2766 69.3312 12.359 69.3 12.3908C69.2689 12.4226 69.2468 12.3661 69.2509 12.2653H69.2508ZM76.5321 11.2043C76.5997 11.1767 76.6805 11.1801 76.7116 11.2118C76.7427 11.2436 76.6874 11.2662 76.5886 11.262C76.4795 11.2574 76.4573 11.2348 76.5321 11.2043V11.2043ZM82.0585 11.2043C82.1261 11.1767 82.2069 11.1801 82.238 11.2118C82.2692 11.2436 82.2138 11.2662 82.1151 11.262C82.006 11.2574 81.9838 11.2348 82.0585 11.2043V11.2043ZM130.485 7.38051C130.553 7.35289 130.634 7.35629 130.665 7.38806C130.696 7.41982 130.641 7.44242 130.542 7.43826C130.433 7.43368 130.411 7.41103 130.485 7.38051V7.38051ZM74.3777 7.28492C74.4453 7.2573 74.5261 7.2607 74.5572 7.29246C74.5883 7.32423 74.533 7.34682 74.4343 7.34267C74.3251 7.33808 74.303 7.31543 74.3777 7.28492ZM96.2903 7.27856C98.2094 7.26411 101.35 7.26411 103.269 7.27856C105.188 7.293 103.618 7.30482 99.7795 7.30482C95.9414 7.30482 94.3713 7.293 96.2903 7.27856ZM118.904 7.27857C120.742 7.26408 123.777 7.26407 125.649 7.27855C127.52 7.29303 126.016 7.30489 122.307 7.3049C118.598 7.30491 117.066 7.29306 118.904 7.27857V7.27857ZM143.506 7.27854C145.79 7.26428 149.499 7.26429 151.749 7.27855C153.999 7.29281 152.131 7.30448 147.597 7.30447C143.064 7.30447 141.223 7.2928 143.506 7.27854ZM75.5895 7.19131C75.6539 7.16479 75.7593 7.16479 75.8237 7.19131C75.8881 7.21783 75.8354 7.23953 75.7066 7.23953C75.5778 7.23953 75.5251 7.21783 75.5895 7.19131ZM82.9015 7.18933C82.9691 7.16171 83.0499 7.16511 83.0811 7.19687C83.1122 7.22864 83.0569 7.25123 82.9581 7.24708C82.849 7.2425 82.8268 7.21984 82.9015 7.18933ZM78.7779 7.08816C79.1019 7.06944 79.6077 7.06959 79.9019 7.0885C80.1962 7.10741 79.9311 7.12273 79.3128 7.12254C78.6946 7.12235 78.4539 7.10688 78.7779 7.08816V7.08816Z" fill="#706A5F"/>
<path d="M13.0745 28.9462C12.9123 28.8977 12.6489 28.706 12.4891 28.5203C12.2518 28.2445 12.1986 28.1 12.1989 27.7319C12.2 26.3482 13.837 25.8871 14.5444 27.0712C15.1252 28.0434 14.1625 29.2714 13.0745 28.9462ZM7.37589 28.6512C7.06332 28.4003 6.83032 27.8692 6.90803 27.5848C7.08673 26.9308 7.42998 26.6598 8.07968 26.6598C8.78574 26.6598 9.24056 27.359 9.021 28.1069C8.81828 28.7974 7.92586 29.0927 7.37589 28.6512ZM23.954 28.6533C22.4295 28.4814 20.7005 27.9433 19.1983 27.1735C17.938 26.5275 16.3486 25.3386 15.674 24.537C15.2109 23.9868 15.0331 23.9463 14.3064 24.2255C13.4678 24.5476 12.9347 24.5338 12.3199 24.174C10.4618 23.0864 11.2732 20.1929 13.4292 20.2181C13.9893 20.2247 14.5848 20.499 14.9617 20.924C15.6267 21.6739 16.8337 21.524 17.2852 20.6354C17.6192 19.9782 17.3244 19.1073 16.6589 18.7851C16.1593 18.5431 15.6638 18.5887 15.0415 18.9341C13.9529 19.5384 12.7744 19.291 12.14 18.325C11.4661 17.2988 11.7142 16.0759 12.7466 15.3354C13.1073 15.0767 13.2254 15.0451 13.8305 15.0451C14.4676 15.0451 14.544 15.0687 15.0636 15.4266C15.5282 15.7466 15.6941 15.8082 16.0931 15.809C17.5046 15.8116 17.9494 13.891 16.691 13.2269C16.2638 13.0015 15.8943 13.0588 15.1379 13.4678C14.5502 13.7856 14.3399 13.8502 13.8934 13.8502C12.4198 13.8502 11.391 12.521 11.7343 11.0606C11.8273 10.6649 11.9535 10.4559 12.3299 10.0741C13.1976 9.19395 14.3445 9.11404 15.1792 9.87559C15.3687 10.0485 15.6159 10.2392 15.7284 10.2994C16.0645 10.4791 16.6355 10.4302 16.9852 10.1918C17.9074 9.56307 17.7857 8.19839 16.7705 7.78383C16.2517 7.57197 15.9069 7.64645 15.2282 8.11695C14.7242 8.46634 14.6325 8.49589 14.0719 8.48941C13.7371 8.48554 13.3289 8.43186 13.1648 8.37014C11.4453 7.72314 10.9043 5.48772 12.1369 4.12295C12.7219 3.47533 13.1357 3.29271 14.0251 3.28963C14.6643 3.28742 14.8465 3.32569 15.2645 3.54992C16.049 3.97078 16.1489 3.94088 17.2744 2.94831C17.6801 2.59056 18.2415 2.14235 18.5221 1.95229C19.1172 1.54915 20.2895 0.970724 20.633 0.91077C20.7641 0.887881 21.1645 0.781089 21.5228 0.673454C22.9259 0.251973 23.7918 0.135314 25.4995 0.137732C27.3065 0.140297 28.1539 0.267156 29.7112 0.768258C31.4159 1.3168 33.3437 2.44395 34.7548 3.71721L35.2315 4.14738L33.8313 4.11472L32.431 4.08205L32.426 10.4239L32.4209 16.7658L32.0146 15.6187C31.1734 13.244 29.2537 8.21958 28.9619 7.6291C28.1786 6.04412 26.9405 4.94109 25.359 4.41916C24.6862 4.19713 24.4518 4.17062 23.0641 4.15962L21.5186 4.14738L21.4928 12.7986C21.4772 18.0471 21.5032 21.7582 21.5591 22.2337C21.6688 23.1679 21.956 23.8028 22.4928 24.2977C23.1186 24.8747 23.4199 24.9636 24.9141 25.0124L26.2489 25.0559L26.2538 18.3776L26.2587 11.6993L26.5707 12.5597C26.9244 13.5346 29.6419 19.9222 30.0957 20.845C30.5913 21.8531 31.3599 22.9875 31.9468 23.5773C32.7031 24.3372 33.4789 24.7469 34.6135 24.9855L34.8757 25.0407L34.3325 25.4996C31.4639 27.9228 27.6778 29.0733 23.954 28.6533V28.6533ZM7.4019 24.562C6.21134 24.1761 5.8092 22.664 6.65464 21.752C7.0144 21.364 7.3501 21.2109 7.84131 21.2109C8.65737 21.2109 9.26326 21.6703 9.49692 22.4662C9.70668 23.1807 9.31914 24.0492 8.62556 24.4191C8.2946 24.5956 7.71456 24.6633 7.4019 24.562ZM1.9045 24.3501C1.25576 23.8945 1.069 23.0968 1.4516 22.4158C1.97409 21.4857 3.24875 21.4549 3.84504 22.358C4.02984 22.6379 4.05973 22.7832 4.02792 23.2471C3.99464 23.7323 3.94737 23.8451 3.64972 24.1488C3.35207 24.4526 3.24161 24.5008 2.76618 24.5348C2.31152 24.5673 2.17087 24.5371 1.9045 24.3501ZM1.53182 19.2909C0.282604 19.0212 0.0223971 17.4881 1.08804 16.6761C1.44925 16.4009 2.24971 16.403 2.61405 16.6802C3.00331 16.9763 3.22196 17.4191 3.22196 17.9112C3.22196 18.8414 2.43308 19.4854 1.53182 19.2909V19.2909ZM7.06555 19.0436C6.64564 18.8324 6.12592 18.1919 6.05311 17.7958C5.69548 15.8502 7.821 14.6151 9.16549 15.9873C9.38971 16.2161 9.60384 16.5522 9.67089 16.7806C9.91726 17.6198 9.50202 18.6117 8.7378 19.0096C8.28183 19.247 7.50151 19.2629 7.06555 19.0436ZM7.22334 13.7183C6.06177 13.2946 5.49799 11.9319 6.02483 10.8212C6.89726 8.98197 9.6403 9.43901 9.91295 11.469C10.0019 12.1311 9.80771 12.685 9.30836 13.1939C8.69825 13.8158 7.98358 13.9955 7.22334 13.7183ZM0.958348 13.5516C0.385332 13.3184 0 12.7081 0 12.0339C0 10.2445 2.32687 9.79339 3.04232 11.444C3.37486 12.2112 3.03599 13.1112 2.26041 13.5205C1.96246 13.6777 1.3068 13.6934 0.958348 13.5516V13.5516ZM7.42084 8.40758C6.77617 8.20745 6.19691 7.70689 5.86484 7.06298C5.61016 6.56915 5.62603 5.4234 5.89472 4.9056C6.29873 4.12703 7.24949 3.52601 8.07713 3.52601C9.32343 3.52601 10.5125 4.73954 10.5125 6.01145C10.5125 7.56768 8.85454 8.85265 7.42084 8.40758H7.42084Z" fill="#283E70"/>
<path d="M74.9285 23.1135C72.3944 22.9725 71.253 22.6601 70.425 21.8812C69.5955 21.1009 69.3823 20.2719 69.2399 17.273C69.0107 12.4475 69.54 9.01573 70.6307 8.25505C71.7203 7.49509 74.3973 7.15918 79.3641 7.15918C83.3478 7.15918 85.5448 7.34926 87.0519 7.82433C88.1424 8.16808 88.505 8.55107 88.911 9.78801C89.3009 10.9759 89.4166 12.1899 89.4209 15.1413C89.4262 18.7759 89.2047 20.313 88.4982 21.5433C87.9721 22.4595 86.4186 22.8883 82.7779 23.1221C81.0661 23.232 76.9774 23.2275 74.9285 23.1135V23.1135ZM83.0948 19.0164C83.4236 18.9573 83.8172 18.8432 83.9694 18.7629C84.5755 18.443 84.8485 17.0191 84.7643 14.6155C84.703 12.8637 84.5391 12.1036 84.1424 11.7322C83.6601 11.2807 83.1145 11.2219 79.4058 11.2219C74.9215 11.2219 74.4968 11.309 74.1674 12.2958C73.9576 12.9239 73.8064 14.8558 73.8773 16.0016C73.9506 17.1868 74.0824 17.9031 74.3123 18.3651C74.4629 18.6676 74.5676 18.7443 75.0093 18.8753C75.2952 18.9601 75.8955 19.0656 76.3434 19.1097C77.4443 19.218 82.3501 19.1503 83.0948 19.0164ZM43.9521 15.1891V7.35037H47.7856H51.6191L55.6598 13.1491C57.8822 16.3383 59.8039 19.156 59.9303 19.4105C60.347 20.2498 60.4804 19.9031 60.1569 18.8216C59.9808 18.2332 59.9709 17.9128 59.9702 12.7753L59.9695 7.35037H62.3112H64.653V15.1891V23.0278L60.7891 23.0264L56.9253 23.025L52.9912 17.3823C50.8274 14.2788 48.9253 11.5016 48.7643 11.2106C48.6032 10.9196 48.4241 10.6332 48.3662 10.5741C48.194 10.3985 48.2374 10.985 48.447 11.6675C48.6235 12.2418 48.6332 12.5541 48.6344 17.6506L48.6356 23.0278H46.2939H43.9521L43.9521 15.1891ZM92.8473 15.1891V7.35037H100.298C106.723 7.35037 107.847 7.37115 108.465 7.5014C110.53 7.93682 111.294 9.13716 111.298 11.9544C111.3 13.1947 111.126 14.3145 110.846 14.87C110.618 15.3211 110.167 15.7694 109.628 16.0799L109.22 16.3147L109.79 16.6244C110.103 16.7948 110.506 17.0799 110.686 17.258C111.223 17.7902 111.3 18.2351 111.3 20.7987V23.0278H108.964H106.628L106.599 21.2832C106.571 19.6192 106.559 19.5238 106.345 19.2171C105.938 18.634 105.908 18.6305 101.515 18.6305H97.5307V20.8291V23.0278H95.189H92.8473L92.8473 15.1891ZM105.858 14.4906C106.377 14.3052 106.564 13.9537 106.602 13.0904C106.627 12.5332 106.595 12.2569 106.478 12.0049C106.181 11.3657 106.178 11.3653 101.615 11.3653H97.5307V12.9904V14.6155L101.535 14.6101C104.385 14.6063 105.631 14.5718 105.858 14.4906V14.4906ZM139.401 15.1891V7.35037H147.597H155.793V9.35784V11.3653H149.936H144.079L144.105 12.7275L144.131 14.0897L149.634 14.1144L155.137 14.1391V16.1458V18.1525H149.611H144.084V20.5901V23.0278H141.742H139.401V15.1891ZM159.071 15.1891V7.35037H161.413H163.755V15.1891V23.0278H161.413H159.071V15.1891ZM166.939 15.1891V7.35037H169.281H171.623V13.1816V19.0128H177.009H182.395V21.0203V23.0278H174.667H166.939V15.1891ZM115.609 15.1413V7.34207L123.313 7.37588C130.398 7.40698 131.07 7.4237 131.673 7.58378C133.971 8.19395 134.729 9.14915 135.156 11.9731C135.349 13.2543 135.373 16.8894 135.197 18.1525C134.796 21.0227 134.04 22.0366 131.828 22.673C131.124 22.8754 130.969 22.8798 123.36 22.9098L115.609 22.9404V15.1413ZM129.425 18.6783C129.914 18.4285 130.02 18.3236 130.242 17.8657C130.572 17.1851 130.733 15.8773 130.653 14.5199C130.552 12.8149 130.264 12.0677 129.547 11.6485L129.144 11.4131L124.718 11.3857L120.292 11.3582V15.1218C120.292 17.1918 120.324 18.9177 120.362 18.9572C120.401 18.9967 122.33 19.0146 124.648 18.997L128.863 18.965L129.425 18.6783Z" fill="#312718"/>
</g>
<defs>
<clipPath id="clip0_818_3944">
<rect width="182.395" height="29" fill="white"/>
</clipPath>
</defs>
</svg>
