<svg width="267" height="475" viewBox="0 0 267 475" fill="none" xmlns="http://www.w3.org/2000/svg">
<path d="M214.206 472.277C209.986 474.689 204.108 474.237 197.778 470.467L70.5675 396.889C57.6053 389.35 47.0547 371.106 47.0547 356.18V23.2673C47.0547 15.8793 49.617 10.6021 53.8372 8.18972L63.3328 2.61103C67.553 0.198622 73.4312 0.500173 79.9123 4.26956L207.273 77.848C220.235 85.3868 230.786 103.631 230.786 118.557V451.47C230.786 459.008 228.073 464.286 223.853 466.698L214.206 472.277Z" fill="#32A5EB"/>
<path d="M208.178 474.69C204.711 474.69 201.094 473.634 197.175 471.373L69.9649 397.794C56.7013 390.105 46 371.559 46 356.18V23.2679C46 15.7291 48.5623 10.1504 53.2347 7.28569C53.2347 7.28569 53.3854 7.28569 53.3854 7.13491L62.881 1.55622H63.0317C67.7041 -1.00696 74.0345 -0.403863 80.5156 3.36552L207.575 77.0947C220.839 84.7843 231.54 103.33 231.54 118.709V451.621C231.54 459.311 228.978 465.04 224.155 467.754L214.659 473.333C214.659 473.333 214.508 473.333 214.508 473.483C212.549 474.237 210.439 474.69 208.178 474.69ZM54.2898 9.09499C50.0695 11.5074 47.8087 16.6338 47.8087 23.4187V356.331C47.8087 370.956 58.0578 388.748 70.8693 396.136L198.079 469.714C203.958 473.031 209.534 473.634 213.604 471.373H213.755L223.1 465.945C227.169 463.532 229.43 458.557 229.43 451.621V118.709C229.43 104.084 219.181 86.292 206.369 78.904L79.3098 5.32561C73.4316 2.00855 67.8549 1.40544 63.7853 3.66708C63.7853 3.66708 63.7853 3.66708 63.6346 3.66708L54.2898 9.09499Z" fill="#162137"/>
<path d="M214.206 472.277C209.986 474.69 204.108 474.237 197.778 470.468L70.5675 396.89C57.6053 389.351 47.0547 371.107 47.0547 356.18V198.921L224.456 96.5449C228.374 103.631 230.786 111.472 230.786 118.709V451.621C230.786 459.16 228.073 464.437 223.853 466.85L214.206 472.277Z" fill="#162137"/>
<path d="M208.178 474.69C204.711 474.69 201.094 473.634 197.175 471.373L69.9649 397.794C56.7013 390.105 46 371.559 46 356.18V198.921C46 198.62 46.1507 198.167 46.4522 198.017L223.853 95.64C224.155 95.4893 224.305 95.4893 224.607 95.4893C224.908 95.4893 225.059 95.7908 225.21 95.9416C229.43 103.48 231.691 111.471 231.691 118.558V451.47C231.691 459.16 229.128 464.889 224.305 467.603L214.81 473.182C214.81 473.182 214.659 473.182 214.659 473.333C212.549 474.237 210.439 474.69 208.178 474.69ZM47.9594 199.524V356.331C47.9594 370.956 58.2086 388.748 71.02 396.136L198.23 469.714C204.108 473.031 209.685 473.634 213.755 471.373H213.905L223.25 465.945C227.32 463.532 229.581 458.557 229.581 451.621V118.709C229.581 112.225 227.621 104.988 223.853 98.0524L47.9594 199.524Z" fill="#162137"/>
<path d="M46.9023 356.332C46.9023 371.259 57.453 389.503 70.4151 397.042L197.625 470.62C210.587 478.159 221.138 471.977 221.138 457.05V124.138C221.138 109.211 210.587 90.9674 197.625 83.4287L70.4151 9.85022C57.453 2.31145 46.9023 8.49324 46.9023 23.42V356.332Z" fill="white"/>
<path d="M208.178 474.691C204.711 474.691 200.943 473.635 197.175 471.374L69.9649 397.795C56.7013 390.106 46 371.56 46 356.181V23.269C46 12.4132 51.5768 5.47754 60.0173 5.47754C63.4839 5.47754 67.2519 6.53297 71.02 8.7946L198.23 82.373C211.494 90.0626 222.195 108.608 222.195 123.987V456.899C222.195 462.327 220.839 466.7 218.427 469.866C215.865 473.032 212.398 474.691 208.178 474.691ZM59.8665 7.5884C52.4811 7.5884 47.8087 13.6194 47.8087 23.269V356.181C47.8087 370.807 58.0578 388.598 70.8693 395.986L198.079 469.564C201.546 471.675 205.013 472.58 208.027 472.58C211.494 472.58 214.508 471.223 216.618 468.509C218.879 465.795 219.934 461.724 219.934 456.749V123.836C219.934 109.211 209.685 91.4196 197.024 84.0316L69.9649 10.7547C66.3476 8.64382 63.0317 7.5884 59.8665 7.5884Z" fill="#162137"/>
<path d="M52.7852 247.169V234.353L210.592 143.134V155.95L52.7852 247.169ZM52.7852 29.4491V206.007L209.989 115.24C208.181 106.948 202.302 98.2028 195.369 94.1318L68.1589 20.5534C59.5677 15.8794 52.7852 19.7995 52.7852 29.4491ZM52.7852 309.439V362.361C52.7852 372.011 59.5677 383.922 68.0082 388.747L195.218 462.326C203.659 467.15 210.441 463.23 210.441 453.581V218.371L52.7852 309.439Z" fill="#32A5EB"/>
<path d="M134.022 68.501C134.022 66.9932 132.967 65.1839 131.761 64.43C130.404 63.6761 129.5 64.2792 129.5 65.787C129.5 67.2948 130.555 69.1041 131.761 69.8579C132.967 70.6118 134.022 70.0087 134.022 68.501Z" fill="#162137"/>
<path d="M132.664 71.2146C132.212 71.2146 131.609 71.0639 131.157 70.7623C129.499 69.8577 128.293 67.7468 128.293 65.9375C128.293 63.8266 130.252 62.6204 132.212 63.6759C133.87 64.5805 135.076 66.6914 135.076 68.6515C135.076 69.4053 134.925 70.0084 134.473 70.4608C134.02 70.9131 133.418 71.2146 132.664 71.2146ZM130.705 65.1836C130.403 65.1836 130.403 65.6359 130.403 65.7867C130.403 66.8421 131.307 68.3499 132.212 68.953C132.513 69.1038 132.664 69.1038 132.815 69.1038C133.116 69.1038 133.116 68.6515 133.116 68.5007C133.116 67.4453 132.212 65.9375 131.307 65.3344C130.855 65.1836 130.705 65.1836 130.705 65.1836Z" fill="#162137"/>
<path d="M175.015 78.5541C169.891 75.6894 165.369 75.3878 162.053 77.1971L154.969 81.2681C151.653 83.2282 149.543 87.2991 149.543 93.1794C149.543 104.94 157.833 119.113 167.931 124.993C173.056 128.008 177.728 128.159 181.044 126.199L187.977 122.279C191.293 120.319 193.403 116.248 193.403 110.368C193.403 98.758 185.114 84.4344 175.015 78.5541Z" fill="#32A5EB"/>
<path d="M176.069 128.611C173.356 128.611 170.342 127.706 167.327 125.897C156.927 119.866 148.336 105.241 148.336 93.1789C148.336 87.1479 150.446 82.6246 154.214 80.363L161.298 76.292C165.066 74.1812 170.04 74.6335 175.315 77.649C185.715 83.68 194.306 98.3053 194.306 110.367C194.306 116.398 192.196 121.072 188.278 123.183L181.344 127.103C179.837 128.159 178.028 128.611 176.069 128.611ZM162.353 78.1014L155.269 82.1723C152.104 83.9816 150.295 87.9018 150.295 93.1789C150.295 104.487 158.284 118.509 168.231 124.239C170.944 125.746 173.657 126.651 175.918 126.651C177.576 126.651 178.933 126.199 180.289 125.596L187.222 121.525C190.388 119.715 192.196 115.795 192.196 110.518C192.196 99.2099 184.208 85.1878 174.26 79.4583C169.889 76.8951 165.518 76.4428 162.353 78.1014C162.504 78.1014 162.353 78.1014 162.353 78.1014Z" fill="#162137"/>
<path d="M181.043 126.35L187.976 122.43C191.292 120.47 193.402 116.399 193.402 110.519L167.93 125.144C173.054 128.009 177.576 128.31 181.043 126.35Z" fill="#162137"/>
<path d="M176.069 128.612C173.356 128.612 170.342 127.707 167.327 126.049C167.026 125.898 166.875 125.596 166.875 125.144C166.875 124.842 167.026 124.39 167.327 124.239L192.799 109.614C193.101 109.463 193.553 109.463 193.854 109.614C194.156 109.765 194.307 110.066 194.307 110.519C194.307 116.55 192.196 121.224 188.278 123.335L181.344 127.255C179.837 128.159 178.029 128.612 176.069 128.612ZM170.04 125.144C173.959 126.953 177.727 127.104 180.44 125.596L187.373 121.525C190.237 119.867 191.895 116.701 192.196 112.328L170.04 125.144Z" fill="#162137"/>
<path d="M186.319 114.436C186.319 126.197 178.03 130.871 167.931 124.991C157.682 119.11 149.543 104.787 149.543 93.177C149.543 81.4165 157.833 76.7425 167.931 82.6227C178.03 88.5029 186.319 102.827 186.319 114.436Z" fill="white"/>
<path d="M176.069 128.61C173.356 128.61 170.342 127.705 167.327 125.896C156.927 119.865 148.336 105.24 148.336 93.1778C148.336 84.5836 152.707 79.0049 159.489 79.0049C162.202 79.0049 165.217 79.9095 168.231 81.7188C178.631 87.7499 187.222 102.375 187.222 114.437C187.222 118.659 186.167 122.277 184.208 124.69C182.249 127.253 179.385 128.61 176.069 128.61ZM159.64 81.1157C154.063 81.1157 150.446 85.7898 150.446 93.1778C150.446 104.486 158.434 118.508 168.382 124.238C174.11 127.555 179.686 127.253 182.701 123.634C184.359 121.524 185.263 118.357 185.263 114.588C185.263 103.28 177.275 89.2576 167.327 83.5281C164.614 82.0204 162.052 81.1157 159.64 81.1157Z" fill="#162137"/>
<path d="M165.67 111.573H165.519C165.218 111.573 164.916 111.271 164.766 110.97L159.34 98.0032C159.189 97.5508 159.34 96.9477 159.942 96.6462C160.395 96.4954 160.997 96.6462 161.299 97.2493L166.122 108.859L174.864 99.6617C175.316 99.2094 175.919 99.2094 176.371 99.6617C176.823 100.114 176.823 100.717 176.371 101.169L166.574 111.422C166.273 111.422 165.971 111.573 165.67 111.573Z" fill="#162137"/>
<g clip-path="url(#clip0_1025_2820)">
<path d="M1.94531 102.111C1.94531 101.962 1.94531 101.812 2.09489 101.812L10.4714 97.1802C10.9201 96.8813 11.5184 96.8813 12.2663 97.1802L263.71 242.272C265.056 243.019 266.103 245.111 266.103 246.904V439.065C266.103 439.962 265.804 440.559 265.355 441.008L256.53 445.939L247.855 435.479L251.295 433.985L12.1167 295.916C10.7705 295.169 9.72346 293.077 9.72346 291.284V112.571L1.94531 102.111Z" fill="white"/>
<path d="M246.358 435.03L249.2 433.835L11.667 296.663C10.0217 295.766 8.82503 293.375 8.82503 291.134V112.869L1.34603 102.709C1.04687 102.41 1.04688 102.111 1.04688 101.663C1.04688 101.364 1.34603 101.065 1.64519 100.915L9.87208 96.4327C10.62 95.8349 11.667 95.8349 12.5645 96.4327L264.008 241.525C265.654 242.421 266.85 244.812 266.85 247.053V439.214C266.85 440.41 266.401 441.306 265.654 441.904L256.23 447.134L246.358 435.03ZM10.7696 97.9269L3.14099 102.111L10.62 112.122V291.134C10.62 292.628 11.5175 294.421 12.5645 295.019L253.238 433.835L249.2 435.628L256.679 444.594L264.756 440.111C264.906 439.961 265.055 439.663 265.055 438.915V246.904C265.055 245.41 264.158 243.617 263.111 243.019L11.667 97.9269C11.5175 97.9269 11.3679 97.7775 11.2183 97.7775C11.0687 97.7775 10.9191 97.7775 10.7696 97.9269Z" fill="#162137"/>
<path d="M3.29171 300.846L254.735 445.938C256.082 446.686 257.129 445.938 257.129 444.145V251.686C257.129 249.892 256.082 247.801 254.735 247.053L3.29171 102.111C1.9455 101.364 0.898438 102.111 0.898438 103.904V296.065C0.898437 297.858 1.9455 299.95 3.29171 300.846Z" fill="#162137"/>
<path d="M254.286 446.536L2.84202 301.593C1.34622 300.697 0 298.157 0 296.065V103.904C0 102.559 0.448739 101.662 1.34622 101.214C2.09412 100.766 2.9916 100.766 3.7395 101.214L255.183 246.306C256.829 247.203 258.025 249.593 258.025 251.835V443.996C258.025 445.341 257.576 446.237 256.679 446.685C256.38 446.835 255.931 446.984 255.632 446.984C255.333 446.984 254.884 446.835 254.286 446.536ZM2.2437 102.708C1.94454 102.858 1.79496 103.157 1.79496 103.904V296.065C1.79496 297.559 2.69244 299.352 3.7395 299.95L255.183 445.042C255.333 445.191 255.632 445.341 255.931 445.191C256.081 445.042 256.38 444.743 256.38 443.996V251.685C256.38 250.191 255.482 248.398 254.435 247.8L2.84202 102.858C2.69244 102.858 2.54286 102.708 2.2437 102.708Z" fill="#162137"/>
<path d="M3.74009 297.261L254.436 441.904C254.885 442.203 255.184 441.904 255.184 441.307V250.789C255.184 250.192 254.885 249.594 254.436 249.445L3.74009 104.801C3.29135 104.652 2.99219 104.801 2.99219 105.399V295.916C2.99219 296.364 3.29135 296.962 3.74009 297.261Z" fill="white"/>
<path d="M253.986 442.651L3.29039 298.007C2.54249 297.559 2.09375 296.663 2.09375 295.915V105.398C2.09375 104.801 2.39291 104.352 2.84165 104.053C3.29039 103.755 3.73913 103.904 4.18787 104.053L254.884 248.697C255.632 249.145 256.08 250.042 256.08 250.789V441.306C256.08 441.904 255.781 442.352 255.332 442.651C255.183 442.801 254.884 442.801 254.734 442.801C254.435 442.801 254.285 442.651 253.986 442.651ZM3.88871 295.766C3.88871 296.065 4.03829 296.364 4.18787 296.364L254.285 440.709V250.789C254.285 250.49 254.136 250.191 253.986 250.191L3.88871 105.996V295.766Z" fill="#162137"/>
<path d="M0.898438 296.363V285.306L257.278 433.237V444.294C257.278 445.938 256.082 446.685 254.586 445.788L3.59087 300.846C2.09508 300.099 0.898438 298.007 0.898438 296.363Z" fill="#162137"/>
<path d="M254.136 446.536L3.14118 301.743C1.34622 300.697 0 298.306 0 296.363V283.812L257.726 432.49L258.175 432.789V444.294C258.175 445.49 257.726 446.386 256.978 446.835C256.679 446.984 256.23 447.133 255.782 447.133C255.333 446.984 254.734 446.835 254.136 446.536ZM1.79496 286.949V296.363C1.79496 297.708 2.84202 299.501 4.03866 300.099L255.183 444.892C255.632 445.191 255.931 445.191 256.23 445.041C256.38 444.892 256.529 444.593 256.529 444.145V433.685L1.79496 286.949Z" fill="#162137"/>
<path d="M113.185 356.414L112.512 357.578L145.018 376.342L145.691 375.178L113.185 356.414Z" fill="white"/>
<path d="M265.515 243.298L256.922 248.451L257.846 249.989L266.438 244.836L265.515 243.298Z" fill="#162137"/>
<path d="M25.7216 104.292L17.1289 109.445L18.0528 110.983L26.6455 105.83L25.7216 104.292Z" fill="#162137"/>
<path d="M265.538 425.429L256.945 430.582L257.869 432.119L266.462 426.967L265.538 425.429Z" fill="#162137"/>
<path d="M265.975 418.862L257.383 424.015L258.307 425.552L266.898 420.399L265.975 418.862Z" fill="#162137"/>
<path d="M31.2597 107.437L22.668 112.591L23.592 114.128L32.1837 108.974L31.2597 107.437Z" fill="#162137"/>
<path d="M266.022 252.554L257.43 257.707L258.354 259.244L266.946 254.092L266.022 252.554Z" fill="#162137"/>
<path d="M161.398 367.639C161.697 369.582 163.492 371.524 163.792 371.973C163.492 371.973 161.548 371.674 161.398 373.467C161.099 371.524 159.304 369.582 158.855 369.134C159.304 368.984 161.099 369.283 161.398 367.639C161.398 367.49 161.398 367.49 161.398 367.639Z" fill="#162137"/>
<path d="M154.219 363.456C154.518 365.399 156.313 367.341 156.612 367.789C156.313 367.789 154.368 367.491 154.219 369.284C153.919 367.341 152.125 365.399 151.676 364.95C152.125 364.95 153.919 365.1 154.219 363.456Z" fill="#162137"/>
<path d="M147.187 359.271C147.487 361.214 149.282 363.157 149.581 363.605C149.282 363.605 147.337 363.306 147.187 365.099C146.888 363.157 145.093 361.214 144.645 360.766C144.944 360.766 146.888 361.065 147.187 359.271C147.038 359.271 147.187 359.271 147.187 359.271Z" fill="#162137"/>
<path d="M140.008 355.237C140.307 357.18 142.102 359.122 142.401 359.571C142.102 359.571 140.157 359.272 140.008 361.065C139.709 359.122 137.914 357.18 137.465 356.732C137.764 356.732 139.709 356.881 140.008 355.237Z" fill="#162137"/>
<path d="M132.828 351.054C133.127 352.996 134.922 354.939 135.221 355.387C134.922 355.387 132.978 355.088 132.828 356.881C132.529 354.939 130.734 352.996 130.285 352.548C130.584 352.548 132.529 352.697 132.828 351.054Z" fill="#162137"/>
<path d="M125.648 347.019C125.947 348.961 127.742 350.904 128.042 351.352C127.742 351.352 125.798 351.053 125.648 352.846C125.349 350.904 123.554 348.961 123.105 348.513C123.554 348.363 125.349 348.662 125.648 347.019C125.648 346.869 125.648 347.019 125.648 347.019Z" fill="#162137"/>
<path d="M118.617 342.835C118.916 344.777 120.711 346.72 121.01 347.168C120.711 347.168 118.767 346.869 118.617 348.663C118.318 346.72 116.523 344.777 116.074 344.329C116.373 344.329 118.168 344.479 118.617 342.835C118.468 342.835 118.468 342.835 118.617 342.835Z" fill="#162137"/>
<path d="M111.437 338.801C111.737 340.743 113.531 342.686 113.831 343.134C113.531 343.134 111.587 342.835 111.437 344.628C111.138 342.686 109.343 340.743 108.895 340.295C109.194 340.145 111.138 340.444 111.437 338.801C111.437 338.651 111.437 338.651 111.437 338.801Z" fill="#162137"/>
<path d="M104.258 334.616C104.557 336.559 106.352 338.501 106.651 338.95C106.352 338.95 104.407 338.651 104.258 340.444C103.959 338.501 102.164 336.559 101.715 336.11C102.014 336.11 103.959 336.26 104.258 334.616Z" fill="#162137"/>
<path d="M97.078 330.433C97.3772 332.375 99.1721 334.318 99.4713 334.766C99.1721 334.766 97.2276 334.467 97.078 336.26C96.7789 334.318 94.9839 332.375 94.5352 331.927C94.9839 331.927 96.7789 332.076 97.078 330.433Z" fill="#162137"/>
<path d="M232.894 408.731C233.194 410.674 234.989 412.616 235.288 413.065C234.989 413.065 233.044 412.766 232.894 414.559C232.595 412.616 230.8 410.674 230.352 410.226C230.651 410.226 232.595 410.525 232.894 408.731Z" fill="#162137"/>
<path d="M225.715 404.697C226.014 406.64 227.809 408.582 228.108 409.031C227.809 409.031 225.864 408.732 225.715 410.525C225.416 408.582 223.621 406.64 223.172 406.192C223.621 406.192 225.416 406.341 225.715 404.697Z" fill="#162137"/>
<path d="M218.535 400.514C218.834 402.456 220.629 404.399 220.928 404.847C220.629 404.847 218.685 404.548 218.535 406.341C218.236 404.399 216.441 402.456 215.992 402.008C216.441 402.008 218.236 402.157 218.535 400.514Z" fill="#162137"/>
<path d="M211.508 396.479C211.807 398.422 213.602 400.364 213.901 400.813C213.602 400.813 211.657 400.514 211.508 402.307C211.209 400.364 209.414 398.422 208.965 397.974C209.264 397.824 211.209 398.123 211.508 396.479C211.358 396.33 211.508 396.33 211.508 396.479Z" fill="#162137"/>
<path d="M204.328 392.295C204.627 394.237 206.422 396.18 206.721 396.628C206.422 396.628 204.478 396.329 204.328 398.122C204.029 396.18 202.234 394.237 201.785 393.789C202.084 393.789 204.029 393.939 204.328 392.295Z" fill="#162137"/>
<path d="M197.144 388.261C197.444 390.203 199.239 392.146 199.538 392.594C199.239 392.594 197.294 392.295 197.144 394.088C196.845 392.146 195.05 390.203 194.602 389.755C194.901 389.605 196.845 389.904 197.144 388.261C197.144 388.111 197.144 388.111 197.144 388.261Z" fill="#162137"/>
<path d="M189.965 384.076C190.264 386.019 192.059 387.961 192.358 388.409C192.059 388.409 190.114 388.111 189.965 389.904C189.666 387.961 187.871 386.019 187.422 385.57C187.871 385.57 189.666 385.72 189.965 384.076Z" fill="#162137"/>
<path d="M182.785 379.893C183.084 381.835 184.879 383.778 185.178 384.226C184.879 384.226 182.935 383.927 182.785 385.72C182.486 383.778 180.691 381.835 180.242 381.387C180.691 381.387 182.486 381.536 182.785 379.893Z" fill="#162137"/>
<path d="M175.758 375.858C176.057 377.801 177.852 379.743 178.151 380.192C177.852 380.192 175.907 379.893 175.758 381.686C175.459 379.743 173.664 377.801 173.215 377.353C173.514 377.353 175.459 377.502 175.758 375.858C175.608 375.709 175.758 375.858 175.758 375.858Z" fill="#162137"/>
<path d="M168.578 371.674C168.877 373.616 170.672 375.559 170.971 376.007C170.672 376.007 168.728 375.708 168.578 377.501C168.279 375.559 166.484 373.616 166.035 373.168C166.334 373.168 168.279 373.318 168.578 371.674Z" fill="#162137"/>
<path d="M161.398 359.271C161.697 361.214 163.492 363.157 163.792 363.605C163.492 363.605 161.548 363.306 161.398 365.099C161.099 363.157 159.304 361.214 158.855 360.766C159.304 360.766 161.099 360.915 161.398 359.271Z" fill="#162137"/>
<path d="M154.219 355.237C154.518 357.18 156.313 359.122 156.612 359.57C156.313 359.57 154.368 359.272 154.219 361.065C153.919 359.122 152.125 357.18 151.676 356.731C152.125 356.582 153.919 356.881 154.219 355.237C154.219 355.088 154.219 355.088 154.219 355.237Z" fill="#162137"/>
<path d="M147.187 351.054C147.487 352.996 149.282 354.939 149.581 355.387C149.282 355.387 147.337 355.088 147.187 356.881C146.888 354.939 145.093 352.996 144.645 352.548C144.944 352.548 146.888 352.697 147.187 351.054C147.038 351.054 147.187 351.054 147.187 351.054Z" fill="#162137"/>
<path d="M140.008 346.869C140.307 348.812 142.102 350.754 142.401 351.202C142.102 351.202 140.157 350.904 140.008 352.697C139.709 350.754 137.914 348.812 137.465 348.363C137.764 348.363 139.709 348.662 140.008 346.869Z" fill="#162137"/>
<path d="M132.828 342.835C133.127 344.777 134.922 346.72 135.221 347.168C134.922 347.168 132.978 346.869 132.828 348.663C132.529 346.72 130.734 344.777 130.285 344.329C130.584 344.329 132.529 344.479 132.828 342.835Z" fill="#162137"/>
<path d="M125.648 338.651C125.947 340.594 127.742 342.536 128.042 342.985C127.742 342.985 125.798 342.686 125.648 344.479C125.349 342.536 123.554 340.594 123.105 340.146C123.554 340.146 125.349 340.295 125.648 338.651Z" fill="#162137"/>
<path d="M118.617 334.616C118.916 336.559 120.711 338.501 121.01 338.95C120.711 338.95 118.767 338.651 118.617 340.444C118.318 338.501 116.523 336.559 116.074 336.11C116.373 335.961 118.168 336.26 118.617 334.616C118.468 334.467 118.468 334.616 118.617 334.616Z" fill="#162137"/>
<path d="M111.437 330.433C111.737 332.375 113.531 334.318 113.831 334.766C113.531 334.766 111.587 334.467 111.437 336.26C111.138 334.318 109.343 332.375 108.895 331.927C109.194 331.927 111.138 332.076 111.437 330.433Z" fill="#162137"/>
<path d="M104.258 326.398C104.557 328.341 106.352 330.283 106.651 330.732C106.352 330.732 104.407 330.433 104.258 332.226C103.959 330.283 102.164 328.341 101.715 327.892C102.014 327.743 103.959 328.042 104.258 326.398C104.258 326.249 104.258 326.249 104.258 326.398Z" fill="#162137"/>
<path d="M97.078 322.215C97.3772 324.157 99.1721 326.1 99.4713 326.548C99.1721 326.548 97.2276 326.249 97.078 328.042C96.7789 326.1 94.9839 324.157 94.5352 323.709C94.9839 323.709 96.7789 323.859 97.078 322.215Z" fill="#162137"/>
<path d="M232.894 400.514C233.194 402.456 234.989 404.399 235.288 404.847C234.989 404.847 233.044 404.548 232.894 406.341C232.595 404.399 230.8 402.456 230.352 402.008C230.651 402.008 232.595 402.157 232.894 400.514Z" fill="#162137"/>
<path d="M225.715 396.329C226.014 398.272 227.809 400.214 228.108 400.662C227.809 400.662 225.864 400.364 225.715 402.157C225.416 400.214 223.621 398.272 223.172 397.823C223.621 397.823 225.416 398.122 225.715 396.329Z" fill="#162137"/>
<path d="M218.535 392.295C218.834 394.237 220.629 396.18 220.928 396.628C220.629 396.628 218.685 396.329 218.535 398.122C218.236 396.18 216.441 394.237 215.992 393.789C216.441 393.789 218.236 393.939 218.535 392.295Z" fill="#162137"/>
<path d="M211.508 388.111C211.807 390.054 213.602 391.996 213.901 392.445C213.602 392.445 211.657 392.146 211.508 393.939C211.209 391.996 209.414 390.054 208.965 389.606C209.264 389.606 211.209 389.755 211.508 388.111C211.358 388.111 211.508 388.111 211.508 388.111Z" fill="#162137"/>
<path d="M204.328 384.076C204.627 386.019 206.422 387.961 206.721 388.41C206.422 388.41 204.478 388.111 204.328 389.904C204.029 387.961 202.234 386.019 201.785 385.57C202.084 385.421 204.029 385.72 204.328 384.076C204.328 383.927 204.328 384.076 204.328 384.076Z" fill="#162137"/>
<path d="M197.144 379.893C197.444 381.835 199.239 383.778 199.538 384.226C199.239 384.226 197.294 383.927 197.144 385.72C196.845 383.778 195.05 381.835 194.602 381.387C194.901 381.387 196.845 381.536 197.144 379.893Z" fill="#162137"/>
<path d="M189.965 375.858C190.264 377.801 192.059 379.743 192.358 380.191C192.059 380.191 190.114 379.893 189.965 381.686C189.666 379.743 187.871 377.801 187.422 377.352C187.871 377.203 189.666 377.502 189.965 375.858C189.965 375.709 189.965 375.709 189.965 375.858Z" fill="#162137"/>
<path d="M182.785 371.674C183.084 373.616 184.879 375.559 185.178 376.007C184.879 376.007 182.935 375.708 182.785 377.501C182.486 375.559 180.691 373.616 180.242 373.168C180.691 373.168 182.486 373.318 182.785 371.674Z" fill="#162137"/>
<path d="M175.758 367.49C176.057 369.433 177.852 371.375 178.151 371.824C177.852 371.824 175.907 371.525 175.758 373.318C175.459 371.375 173.664 369.433 173.215 368.984C173.514 368.984 175.459 369.134 175.758 367.49C175.608 367.49 175.758 367.49 175.758 367.49Z" fill="#162137"/>
<path d="M168.578 363.456C168.877 365.399 170.672 367.341 170.971 367.789C170.672 367.789 168.728 367.491 168.578 369.284C168.279 367.341 166.484 365.399 166.035 364.95C166.334 364.95 168.279 365.1 168.578 363.456C168.578 363.307 168.578 363.456 168.578 363.456Z" fill="#162137"/>
<path d="M161.398 351.054C161.697 352.996 163.492 354.939 163.792 355.387C163.492 355.387 161.548 355.088 161.398 356.881C161.099 354.939 159.304 352.996 158.855 352.548C159.304 352.548 161.099 352.697 161.398 351.054Z" fill="#162137"/>
<path d="M154.219 346.869C154.518 348.812 156.313 350.754 156.612 351.202C156.313 351.202 154.368 350.904 154.219 352.697C153.919 350.754 152.125 348.812 151.676 348.363C152.125 348.363 153.919 348.513 154.219 346.869Z" fill="#162137"/>
<path d="M147.187 342.835C147.487 344.777 149.282 346.72 149.581 347.168C149.282 347.168 147.337 346.869 147.187 348.662C146.888 346.72 145.093 344.777 144.645 344.329C144.944 344.18 146.888 344.478 147.187 342.835C147.038 342.685 147.187 342.685 147.187 342.835Z" fill="#162137"/>
<path d="M140.008 338.651C140.307 340.594 142.102 342.536 142.401 342.985C142.102 342.985 140.157 342.686 140.008 344.479C139.709 342.536 137.914 340.594 137.465 340.146C137.764 340.146 139.709 340.295 140.008 338.651Z" fill="#162137"/>
<path d="M132.828 334.467C133.127 336.409 134.922 338.352 135.221 338.8C134.922 338.8 132.978 338.501 132.828 340.294C132.529 338.352 130.734 336.409 130.285 335.961C130.584 335.961 132.529 336.26 132.828 334.467Z" fill="#162137"/>
<path d="M125.648 330.433C125.947 332.375 127.742 334.318 128.042 334.766C127.742 334.766 125.798 334.467 125.648 336.26C125.349 334.318 123.554 332.375 123.105 331.927C123.554 331.927 125.349 332.076 125.648 330.433Z" fill="#162137"/>
<path d="M118.617 326.249C118.916 328.192 120.711 330.134 121.01 330.582C120.711 330.582 118.767 330.283 118.617 332.077C118.318 330.134 116.523 328.192 116.074 327.743C116.373 327.743 118.168 327.893 118.617 326.249C118.468 326.249 118.468 326.249 118.617 326.249Z" fill="#162137"/>
<path d="M111.437 322.215C111.737 324.157 113.531 326.1 113.831 326.548C113.531 326.548 111.587 326.249 111.437 328.042C111.138 326.1 109.343 324.157 108.895 323.709C109.194 323.56 111.138 323.859 111.437 322.215C111.437 322.065 111.437 322.215 111.437 322.215Z" fill="#162137"/>
<path d="M104.258 318.03C104.557 319.973 106.352 321.915 106.651 322.364C106.352 322.364 104.407 322.065 104.258 323.858C103.959 321.915 102.164 319.973 101.715 319.525C102.014 319.525 103.959 319.674 104.258 318.03Z" fill="#162137"/>
<path d="M97.078 313.996C97.3772 315.938 99.1721 317.881 99.4713 318.329C99.1721 318.329 97.2276 318.03 97.078 319.823C96.7789 317.881 94.9839 315.938 94.5352 315.49C94.9839 315.341 96.7789 315.64 97.078 313.996C97.078 313.846 97.078 313.846 97.078 313.996Z" fill="#162137"/>
<path d="M232.894 392.295C233.194 394.237 234.989 396.18 235.288 396.628C234.989 396.628 233.044 396.329 232.894 398.122C232.595 396.18 230.8 394.237 230.352 393.789C230.651 393.64 232.595 393.938 232.894 392.295C232.894 392.145 232.894 392.145 232.894 392.295Z" fill="#162137"/>
<path d="M225.715 388.111C226.014 390.054 227.809 391.996 228.108 392.445C227.809 392.445 225.864 392.146 225.715 393.939C225.416 391.996 223.621 390.054 223.172 389.606C223.621 389.606 225.416 389.755 225.715 388.111Z" fill="#162137"/>
<path d="M218.535 383.927C218.834 385.869 220.629 387.812 220.928 388.26C220.629 388.26 218.685 387.961 218.535 389.754C218.236 387.812 216.441 385.869 215.992 385.421C216.441 385.421 218.236 385.72 218.535 383.927Z" fill="#162137"/>
<path d="M211.508 379.893C211.807 381.835 213.602 383.778 213.901 384.226C213.602 384.226 211.657 383.927 211.508 385.72C211.209 383.778 209.414 381.835 208.965 381.387C209.264 381.387 211.209 381.536 211.508 379.893C211.358 379.893 211.508 379.893 211.508 379.893Z" fill="#162137"/>
<path d="M204.328 375.709C204.627 377.652 206.422 379.594 206.721 380.042C206.422 380.042 204.478 379.743 204.328 381.537C204.029 379.594 202.234 377.652 201.785 377.203C202.084 377.203 204.029 377.353 204.328 375.709Z" fill="#162137"/>
<path d="M197.144 371.674C197.444 373.616 199.239 375.559 199.538 376.007C199.239 376.007 197.294 375.708 197.144 377.501C196.845 375.559 195.05 373.616 194.602 373.168C194.901 373.019 196.845 373.318 197.144 371.674C197.144 371.524 197.144 371.674 197.144 371.674Z" fill="#162137"/>
<path d="M189.965 367.49C190.264 369.433 192.059 371.375 192.358 371.824C192.059 371.824 190.114 371.525 189.965 373.318C189.666 371.375 187.871 369.433 187.422 368.984C187.871 368.984 189.666 369.134 189.965 367.49Z" fill="#162137"/>
<path d="M182.785 363.456C183.084 365.398 184.879 367.341 185.178 367.789C184.879 367.789 182.935 367.49 182.785 369.283C182.486 367.341 180.691 365.398 180.242 364.95C180.691 364.801 182.486 365.099 182.785 363.456C182.785 363.306 182.785 363.306 182.785 363.456Z" fill="#162137"/>
<path d="M175.758 359.271C176.057 361.214 177.852 363.157 178.151 363.605C177.852 363.605 175.907 363.306 175.758 365.099C175.459 363.157 173.664 361.214 173.215 360.766C173.514 360.766 175.459 360.915 175.758 359.271C175.608 359.271 175.758 359.271 175.758 359.271Z" fill="#162137"/>
<path d="M168.578 355.088C168.877 357.03 170.672 358.973 170.971 359.421C170.672 359.421 168.728 359.122 168.578 360.915C168.279 358.973 166.484 357.03 166.035 356.582C166.334 356.582 168.279 356.732 168.578 355.088Z" fill="#162137"/>
<path d="M161.398 342.686C161.697 344.628 163.492 346.571 163.792 347.019C163.492 347.019 161.548 346.72 161.398 348.513C161.099 346.571 159.304 344.628 158.855 344.18C159.304 344.18 161.099 344.329 161.398 342.686Z" fill="#162137"/>
<path d="M154.219 338.651C154.518 340.594 156.313 342.536 156.612 342.985C156.313 342.985 154.368 342.686 154.219 344.479C153.919 342.536 152.125 340.594 151.676 340.146C152.125 340.146 153.919 340.295 154.219 338.651Z" fill="#162137"/>
<path d="M147.187 334.467C147.487 336.409 149.282 338.352 149.581 338.8C149.282 338.8 147.337 338.501 147.187 340.294C146.888 338.352 145.093 336.409 144.645 335.961C144.944 335.961 146.888 336.11 147.187 334.467C147.038 334.467 147.187 334.467 147.187 334.467Z" fill="#162137"/>
<path d="M140.008 330.432C140.307 332.375 142.102 334.317 142.401 334.766C142.102 334.766 140.157 334.467 140.008 336.26C139.709 334.317 137.914 332.375 137.465 331.927C137.764 331.777 139.709 332.076 140.008 330.432C140.008 330.283 140.008 330.283 140.008 330.432Z" fill="#162137"/>
<path d="M132.828 326.249C133.127 328.192 134.922 330.134 135.221 330.582C134.922 330.582 132.978 330.283 132.828 332.077C132.529 330.134 130.734 328.192 130.285 327.743C130.584 327.743 132.529 327.893 132.828 326.249Z" fill="#162137"/>
<path d="M125.648 322.215C125.947 324.157 127.742 326.1 128.042 326.548C127.742 326.548 125.798 326.249 125.648 328.042C125.349 326.1 123.554 324.157 123.105 323.709C123.554 323.559 125.349 323.858 125.648 322.215C125.648 322.065 125.648 322.065 125.648 322.215Z" fill="#162137"/>
<path d="M118.617 318.03C118.916 319.973 120.711 321.915 121.01 322.364C120.711 322.364 118.767 322.065 118.617 323.858C118.318 321.915 116.523 319.973 116.074 319.525C116.373 319.525 118.168 319.674 118.617 318.03C118.468 318.03 118.468 318.03 118.617 318.03Z" fill="#162137"/>
<path d="M111.437 313.847C111.737 315.789 113.531 317.732 113.831 318.18C113.531 318.18 111.587 317.881 111.437 319.674C111.138 317.732 109.343 315.789 108.895 315.341C109.194 315.341 111.138 315.49 111.437 313.847Z" fill="#162137"/>
<path d="M104.258 309.813C104.557 311.755 106.352 313.698 106.651 314.146C106.352 314.146 104.407 313.847 104.258 315.64C103.959 313.698 102.164 311.755 101.715 311.307C102.014 311.307 103.959 311.456 104.258 309.813C104.258 309.663 104.258 309.813 104.258 309.813Z" fill="#162137"/>
<path d="M97.078 305.628C97.3772 307.57 99.1721 309.513 99.4713 309.961C99.1721 309.961 97.2276 309.662 97.078 311.456C96.7789 309.513 94.9839 307.57 94.5352 307.122C94.9839 307.122 96.7789 307.272 97.078 305.628Z" fill="#162137"/>
<path d="M89.8983 326.398C90.1975 328.341 91.9924 330.284 92.2916 330.732C91.9924 330.732 90.0479 330.433 89.8983 332.226C89.5992 330.284 87.8042 328.341 87.3555 327.893C87.8042 327.893 89.5992 328.042 89.8983 326.398C89.8983 326.249 89.8983 326.398 89.8983 326.398Z" fill="#162137"/>
<path d="M82.8671 322.215C83.1662 324.157 84.9612 326.1 85.2604 326.548C84.9612 326.548 83.0167 326.249 82.8671 328.042C82.5679 326.1 80.773 324.157 80.3242 323.709C80.6234 323.709 82.5679 323.859 82.8671 322.215C82.7175 322.215 82.8671 322.215 82.8671 322.215Z" fill="#162137"/>
<path d="M75.6874 318.179C75.9865 320.122 77.7815 322.065 78.0807 322.513C77.7815 322.513 75.837 322.214 75.6874 324.007C75.3882 322.065 73.5933 320.122 73.1445 319.674C73.4437 319.524 75.3882 319.823 75.6874 318.179C75.6874 318.03 75.6874 318.03 75.6874 318.179Z" fill="#162137"/>
<path d="M68.5077 313.996C68.8069 315.939 70.6018 317.881 70.901 318.329C70.6018 318.329 68.6573 318.031 68.5077 319.824C68.2085 317.881 66.4136 315.939 65.9648 315.49C66.264 315.49 68.2085 315.64 68.5077 313.996Z" fill="#162137"/>
<path d="M89.8983 318.03C90.1975 319.973 91.9924 321.915 92.2916 322.364C91.9924 322.364 90.0479 322.065 89.8983 323.858C89.5992 321.915 87.8042 319.973 87.3555 319.525C87.8042 319.525 89.5992 319.674 89.8983 318.03Z" fill="#162137"/>
<path d="M82.8671 313.996C83.1662 315.939 84.9612 317.881 85.2604 318.329C84.9612 318.329 83.0167 318.031 82.8671 319.824C82.5679 317.881 80.773 315.939 80.3242 315.49C80.6234 315.49 82.5679 315.64 82.8671 313.996C82.7175 313.996 82.8671 313.996 82.8671 313.996Z" fill="#162137"/>
<path d="M75.6874 309.812C75.9865 311.755 77.7815 313.698 78.0807 314.146C77.7815 314.146 75.837 313.847 75.6874 315.64C75.3882 313.698 73.5933 311.755 73.1445 311.307C73.4437 311.307 75.3882 311.456 75.6874 309.812Z" fill="#162137"/>
<path d="M68.5077 305.778C68.8069 307.721 70.6018 309.663 70.901 310.111C70.6018 310.111 68.6573 309.813 68.5077 311.606C68.2085 309.663 66.4136 307.721 65.9648 307.272C66.264 307.123 68.2085 307.422 68.5077 305.778C68.5077 305.629 68.5077 305.629 68.5077 305.778Z" fill="#162137"/>
<path d="M89.8983 309.812C90.1975 311.755 91.9924 313.698 92.2916 314.146C91.9924 314.146 90.0479 313.847 89.8983 315.64C89.5992 313.698 87.8042 311.755 87.3555 311.307C87.8042 311.307 89.5992 311.456 89.8983 309.812Z" fill="#162137"/>
<path d="M82.8671 305.628C83.1662 307.57 84.9612 309.513 85.2604 309.961C84.9612 309.961 83.0167 309.662 82.8671 311.456C82.5679 309.513 80.773 307.57 80.3242 307.122C80.6234 307.122 82.5679 307.272 82.8671 305.628C82.7175 305.628 82.8671 305.628 82.8671 305.628Z" fill="#162137"/>
<path d="M75.6874 301.594C75.9865 303.536 77.7815 305.479 78.0807 305.927C77.7815 305.927 75.837 305.628 75.6874 307.421C75.3882 305.479 73.5933 303.536 73.1445 303.088C73.4437 303.088 75.3882 303.237 75.6874 301.594Z" fill="#162137"/>
<path d="M68.5077 297.41C68.8069 299.353 70.6018 301.295 70.901 301.743C70.6018 301.743 68.6573 301.445 68.5077 303.238C68.2085 301.295 66.4136 299.353 65.9648 298.904C66.264 298.904 68.2085 299.054 68.5077 297.41Z" fill="#162137"/>
<path d="M89.8983 301.594C90.1975 303.536 91.9924 305.479 92.2916 305.927C91.9924 305.927 90.0479 305.628 89.8983 307.421C89.5992 305.479 87.8042 303.536 87.3555 303.088C87.8042 302.938 89.5992 303.237 89.8983 301.594C89.8983 301.444 89.8983 301.444 89.8983 301.594Z" fill="#162137"/>
<path d="M82.8671 297.41C83.1662 299.353 84.9612 301.295 85.2604 301.743C84.9612 301.743 83.0167 301.445 82.8671 303.238C82.5679 301.295 80.773 299.353 80.3242 298.904C80.6234 298.904 82.5679 299.054 82.8671 297.41C82.7175 297.41 82.8671 297.41 82.8671 297.41Z" fill="#162137"/>
<path d="M75.6874 293.226C75.9865 295.168 77.7815 297.111 78.0807 297.559C77.7815 297.559 75.837 297.26 75.6874 299.053C75.3882 297.111 73.5933 295.168 73.1445 294.72C73.4437 294.72 75.3882 295.019 75.6874 293.226Z" fill="#162137"/>
<path d="M68.5077 289.191C68.8069 291.134 70.6018 293.076 70.901 293.525C70.6018 293.525 68.6573 293.226 68.5077 295.019C68.2085 293.076 66.4136 291.134 65.9648 290.686C66.264 290.686 68.2085 290.835 68.5077 289.191Z" fill="#162137"/>
<path d="M232.894 383.927C233.194 385.869 234.989 387.812 235.288 388.26C234.989 388.26 233.044 387.961 232.894 389.754C232.595 387.812 230.8 385.869 230.352 385.421C230.651 385.421 232.595 385.57 232.894 383.927Z" fill="#162137"/>
<path d="M225.715 379.892C226.014 381.835 227.809 383.777 228.108 384.226C227.809 384.226 225.864 383.927 225.715 385.72C225.416 383.777 223.621 381.835 223.172 381.387C223.621 381.237 225.416 381.536 225.715 379.892C225.715 379.743 225.715 379.743 225.715 379.892Z" fill="#162137"/>
<path d="M218.535 375.709C218.834 377.652 220.629 379.594 220.928 380.042C220.629 380.042 218.685 379.743 218.535 381.537C218.236 379.594 216.441 377.652 215.992 377.203C216.441 377.203 218.236 377.353 218.535 375.709Z" fill="#162137"/>
<path d="M211.508 371.675C211.807 373.617 213.602 375.56 213.901 376.008C213.602 376.008 211.657 375.709 211.508 377.502C211.209 375.56 209.414 373.617 208.965 373.169C209.264 373.019 211.209 373.318 211.508 371.675C211.358 371.525 211.508 371.525 211.508 371.675Z" fill="#162137"/>
<path d="M204.328 367.49C204.627 369.433 206.422 371.375 206.721 371.824C206.422 371.824 204.478 371.525 204.328 373.318C204.029 371.375 202.234 369.433 201.785 368.984C202.084 368.984 204.029 369.134 204.328 367.49Z" fill="#162137"/>
<path d="M197.144 363.307C197.444 365.249 199.239 367.192 199.538 367.64C199.239 367.64 197.294 367.341 197.144 369.134C196.845 367.192 195.05 365.249 194.602 364.801C194.901 364.801 196.845 364.95 197.144 363.307Z" fill="#162137"/>
<path d="M189.965 359.271C190.264 361.214 192.059 363.157 192.358 363.605C192.059 363.605 190.114 363.306 189.965 365.099C189.666 363.157 187.871 361.214 187.422 360.766C187.871 360.766 189.666 360.915 189.965 359.271C189.965 359.122 189.965 359.271 189.965 359.271Z" fill="#162137"/>
<path d="M182.785 355.088C183.084 357.03 184.879 358.973 185.178 359.421C184.879 359.421 182.935 359.122 182.785 360.915C182.486 358.973 180.691 357.03 180.242 356.582C180.691 356.582 182.486 356.732 182.785 355.088Z" fill="#162137"/>
<path d="M175.758 351.053C176.057 352.996 177.852 354.939 178.151 355.387C177.852 355.387 175.907 355.088 175.758 356.881C175.459 354.939 173.664 352.996 173.215 352.548C173.514 352.398 175.459 352.697 175.758 351.053C175.608 350.904 175.758 350.904 175.758 351.053Z" fill="#162137"/>
<path d="M168.578 346.869C168.877 348.812 170.672 350.754 170.971 351.202C170.672 351.202 168.728 350.904 168.578 352.697C168.279 350.754 166.484 348.812 166.035 348.363C166.334 348.363 168.279 348.513 168.578 346.869Z" fill="#162137"/>
<path d="M55.9419 261.547L30.8125 247.053V240.777L55.9419 255.272V261.547Z" fill="#32A5EB"/>
<path d="M56.988 263.191L29.9141 247.651V239.134L56.988 254.674V263.191ZM31.709 246.605L55.0435 260.053V255.869L31.709 242.421V246.605Z" fill="#162137"/>
<path d="M100.667 287.398L61.9258 264.984V258.708L100.667 281.122V287.398Z" fill="#32A5EB"/>
<path d="M101.563 289.041L61.0273 265.582V257.064L101.563 280.524V289.041ZM62.9719 264.536L99.6189 285.754V281.72L62.9719 260.352V264.536Z" fill="#162137"/>
<path d="M100.666 274.248L30.8125 234.053V218.513L100.666 258.708V274.248Z" fill="white"/>
<path d="M101.563 275.892L29.9141 234.501V216.869L101.563 258.26V275.892ZM31.709 233.455L99.6183 272.605V259.306L31.709 220.156V233.455Z" fill="#162137"/>
<path d="M100.367 251.536L30.8125 211.49V204.766L100.367 244.812V251.536Z" fill="#32A5EB"/>
<path d="M101.413 253.18L29.9141 211.938V202.973L101.413 244.214V253.18ZM31.709 210.892L99.4687 249.892V245.409L31.709 206.409V210.892Z" fill="#162137"/>
<path d="M142.102 307.421L113.383 290.835V282.467L142.102 299.053V307.421Z" fill="#32A5EB"/>
<path d="M142.999 309.065L112.484 291.432V280.823L142.999 298.455V309.065ZM114.429 290.237L141.204 305.628V299.501L114.429 284.111V290.237Z" fill="#162137"/>
<path d="M225.718 355.088L149.582 311.605V303.237L225.718 346.72V355.088Z" fill="#32A5EB"/>
<path d="M226.615 356.732L148.684 312.054V301.444L226.615 346.122V356.732ZM150.479 311.008L224.67 353.444V347.318L150.479 304.881V311.008Z" fill="#162137"/>
<path d="M186.225 276.639L113.828 235.099V215.076L186.225 256.616V276.639Z" fill="#32A5EB"/>
<path d="M187.122 278.283L112.781 235.697V213.433L187.122 256.019V278.283ZM114.726 234.651L185.178 274.996V257.214L114.726 216.869V234.651Z" fill="#162137"/>
<path d="M226.016 299.353L193.707 280.824V260.801L226.016 279.33V299.353Z" fill="white"/>
<path d="M227.062 300.996L192.809 281.272V259.008L227.062 278.732V300.996ZM194.753 280.226L225.118 297.709V279.927L194.753 262.445V280.226Z" fill="#162137"/>
<path d="M113.383 259.156L226.465 323.858V308.019L113.383 243.168V259.156Z" fill="#32A5EB"/>
<path d="M227.362 325.501L112.484 259.605V241.524L227.362 307.421V325.501ZM114.429 258.559L225.417 322.214V308.467L114.429 244.812V258.559Z" fill="#162137"/>
<path d="M113.383 274.996L226.465 339.697V331.03L113.383 266.329V274.996Z" fill="white"/>
<path d="M227.362 341.341L112.484 275.444V264.536L227.362 330.433V341.341ZM114.429 274.398L225.417 338.053V331.628L114.429 267.973V274.398Z" fill="#162137"/>
</g>
<defs>
<clipPath id="clip0_1025_2820">
<rect width="267" height="351" fill="white" transform="translate(0 95.9844)"/>
</clipPath>
</defs>
</svg>
