<svg width="214" height="88" viewBox="0 0 214 88" fill="none" xmlns="http://www.w3.org/2000/svg">
<path d="M37 48.3551C37 52.5933 35.351 55.9528 32.0014 58.382C28.6518 60.8112 24.2201 62 18.6031 62C10.7702 62 4.53482 59.8292 0 55.5393L4.43175 51.1461C7.7298 54.609 12.4192 56.3146 18.5 56.3146C22.3134 56.3146 25.2507 55.6427 27.3635 54.2989C29.4763 52.9551 30.5585 50.991 30.5585 48.3551C30.5585 44.427 28.0334 42.2045 23.0348 41.791L15.5627 41.1708C6.54457 40.4472 2.06128 36.4157 2.06128 29.1281C2.06128 25.0966 3.60724 21.9438 6.69916 19.5663C9.79109 17.1888 13.8106 16 18.7061 16C25.5599 16 31.0223 17.6022 34.9902 20.8067L30.6616 25.0966C27.5181 22.7191 23.4986 21.5303 18.6031 21.5303C15.3565 21.5303 12.8315 22.2022 11.0794 23.4944C9.3273 24.7865 8.45125 26.5955 8.45125 28.9213C8.45125 32.8494 11.0794 35.0719 16.3872 35.4854L23.6532 36.1056C27.9304 36.4674 31.2284 37.6045 33.5474 39.4652C35.8148 41.4809 37 44.3753 37 48.3551Z" fill="#67C6E4"/>
<path fill-rule="evenodd" clip-rule="evenodd" d="M214 61C202.951 61 194 51.9149 194 40.7013V0H200.65V16.9243H214V23.6732H200.65V40.6494C200.65 48.1251 206.634 54.1991 214 54.1991V61Z" fill="#67C6E4"/>
<path fill-rule="evenodd" clip-rule="evenodd" d="M189 17C178.368 17.8322 170 26.5697 170 37.2837V61H176.842V37.2837C176.842 30.3144 182.158 24.5934 188.947 23.8132V17H189Z" fill="#67C6E4"/>
<path fill-rule="evenodd" clip-rule="evenodd" d="M141 54.2028C149.406 54.2028 156.255 47.4057 156.255 38.9481C156.255 30.5425 149.458 23.6934 141 23.6934C132.594 23.6934 125.745 30.4906 125.745 38.9481C125.797 47.4057 132.594 54.2028 141 54.2028ZM141 61C146.915 61 152.259 58.6651 156.255 54.8774V60.9481H163V39C163 26.8585 153.142 17 141 17C128.858 17 119 26.8585 119 39C119 51.1415 128.858 61 141 61Z" fill="#67C6E4"/>
<path fill-rule="evenodd" clip-rule="evenodd" d="M112 35.6494C112 25.3636 103.617 17 93.3078 17C87.0077 17 81.3844 20.1169 78 24.8961C74.6156 20.1169 69.0444 17 62.6922 17C52.3828 17 44 25.3636 44 35.6494V61H50.8208V35.6494C50.8208 29.1039 56.1317 23.8052 62.6922 23.8052C69.2527 23.8052 74.5636 29.1039 74.5636 35.6494V61H81.3323V35.6494C81.3323 29.1039 86.6432 23.8052 93.2037 23.8052C99.7642 23.8052 105.075 29.1039 105.075 35.6494V61H111.844V35.6494H112Z" fill="#67C6E4"/>
<path d="M213.844 87.8961H211.4V85.5065H213.844V87.8961ZM214 72.2078L213.532 83.2208H211.764L211.296 72.2078H214ZM205.16 81.4026C205.16 80.8312 205.056 80.3117 204.848 79.8961C204.432 78.961 203.704 78.4935 202.664 78.4935C202.144 78.4935 201.677 78.5974 201.313 78.8571C200.897 79.1169 200.637 79.4805 200.429 79.8961C200.273 80.3117 200.169 80.7792 200.169 81.4026H205.16ZM207.396 82.961H200.169C200.169 83.948 200.429 84.6753 200.897 85.2467C201.365 85.8182 202.092 86.0779 203.028 86.0779C203.652 86.0779 204.12 85.974 204.536 85.8182C204.952 85.6623 205.316 85.3506 205.732 84.9351L207.188 86.2857C206.564 86.9091 205.992 87.3247 205.368 87.5844C204.744 87.8441 203.964 88 203.028 88C201.521 88 200.273 87.5325 199.389 86.6493C198.453 85.7143 198.037 84.2597 198.037 82.2857C198.037 80.5195 198.453 79.1169 199.337 78.0779C200.169 77.0909 201.365 76.5714 202.82 76.5714C204.276 76.5714 205.472 77.039 206.304 78.026C207.136 79.013 207.552 80.3117 207.552 81.9221V82.961H207.396ZM197.361 77.6623L195.645 79.3766C195.125 78.8571 194.605 78.6493 193.981 78.6493C193.357 78.6493 192.837 78.8571 192.369 79.3247C191.953 79.7922 191.745 80.4156 191.745 81.1429V87.8961H189.509V76.7273H191.693V77.9221C192.005 77.5065 192.421 77.1948 192.941 76.9351C193.461 76.6753 194.033 76.5714 194.657 76.5714C195.749 76.5714 196.633 76.9351 197.361 77.6623ZM183.425 85.3506C183.945 84.8312 184.205 83.7922 184.205 82.2857C184.205 80.7792 183.945 79.7403 183.425 79.2208C183.009 78.8052 182.437 78.5974 181.761 78.5974C181.085 78.5974 180.565 78.8052 180.149 79.2208C179.629 79.7403 179.369 80.7792 179.369 82.2857C179.369 83.7922 179.629 84.8312 180.149 85.3506C180.565 85.7662 181.137 86.026 181.761 86.026C182.437 86.026 183.009 85.8182 183.425 85.3506ZM186.441 82.2857C186.441 84.3117 185.973 85.7662 185.141 86.7013C184.309 87.5844 183.165 88 181.813 88C180.461 88 179.317 87.5844 178.485 86.7013C177.602 85.7662 177.186 84.3117 177.186 82.2857C177.186 81.2467 177.29 80.4156 177.498 79.7403C177.706 79.0649 178.018 78.4416 178.537 77.9221C179.369 77.039 180.513 76.6234 181.865 76.6234C183.269 76.6234 184.361 77.039 185.193 77.9221C185.713 78.4416 186.025 79.0649 186.233 79.7403C186.337 80.4156 186.441 81.2987 186.441 82.2857ZM174.17 87.8961H171.934V81.0909C171.934 80.2597 171.726 79.6364 171.31 79.2208C170.894 78.8052 170.374 78.5974 169.698 78.5974C169.074 78.5974 168.502 78.8052 168.034 79.2208C167.566 79.6364 167.358 80.2078 167.358 80.987V87.8961H165.122V81.0909C165.122 80.2597 164.914 79.6364 164.498 79.2208C164.082 78.8052 163.562 78.5974 162.886 78.5974C162.21 78.5974 161.638 78.8052 161.222 79.2208C160.806 79.6364 160.546 80.2597 160.546 81.0909V87.8961H158.31V76.7273H160.494V77.8701C161.274 77.039 162.262 76.6234 163.458 76.6234C164.862 76.6234 165.902 77.1429 166.63 78.2338C167.514 77.1429 168.71 76.6234 170.114 76.6234C171.31 76.6234 172.246 76.9351 172.922 77.6623C173.702 78.4416 174.118 79.4805 174.118 80.8312V87.8961H174.17ZM150.147 87.8961H148.795C147.807 87.8961 147.027 87.5844 146.507 87.013C145.987 86.3896 145.727 85.6623 145.727 84.8312V78.7013H144.427V76.987H145.727V73.6104H147.963V76.987H150.147V78.7013H147.963V84.7273C147.963 85.6104 148.379 86.026 149.211 86.026H150.147V87.8961ZM140.267 81.4026C140.267 80.8312 140.163 80.3117 139.955 79.8961C139.539 78.961 138.811 78.4935 137.771 78.4935C137.251 78.4935 136.783 78.5974 136.419 78.8571C136.003 79.1169 135.743 79.4805 135.535 79.8961C135.379 80.3117 135.275 80.7792 135.275 81.4026H140.267ZM142.503 82.961H135.223C135.223 83.948 135.483 84.6753 135.951 85.2467C136.419 85.8182 137.147 86.0779 138.031 86.0779C138.655 86.0779 139.123 85.974 139.539 85.8182C139.955 85.6623 140.319 85.3506 140.735 84.9351L142.191 86.2857C141.567 86.9091 140.995 87.3247 140.371 87.5844C139.747 87.8441 138.967 88 138.031 88C136.523 88 135.275 87.5325 134.391 86.6493C133.455 85.7143 133.039 84.2597 133.039 82.2857C133.039 80.5195 133.455 79.1169 134.339 78.0779C135.171 77.0909 136.367 76.5714 137.823 76.5714C139.279 76.5714 140.475 77.039 141.307 78.026C142.139 79.013 142.555 80.3117 142.555 81.9221V82.961H142.503ZM130.336 81.8182C130.336 83.7922 129.868 85.2467 128.932 86.2338C127.788 87.4286 126.384 88 124.616 88C123.004 88 121.6 87.4286 120.508 86.3377C120.196 86.026 119.936 85.7143 119.78 85.3506C119.572 84.987 119.416 84.6753 119.312 84.3636C119.208 84.0519 119.104 83.6364 119.052 83.0649C119 82.4935 119 82.0779 119 81.7143C119 81.4026 119 80.8312 119 80C119 79.2208 119 78.6494 119 78.2857C119 77.974 119.052 77.5065 119.052 76.9351C119.104 76.3636 119.156 75.948 119.312 75.6364C119.416 75.3247 119.572 75.013 119.78 74.6494C119.988 74.2857 120.248 73.974 120.508 73.6623C121.6 72.5195 123.004 72 124.616 72C126.228 72 127.476 72.4675 128.464 73.3507C129.452 74.2857 130.076 75.4286 130.284 76.8312H127.892C127.684 75.9481 127.32 75.2727 126.748 74.8052C126.176 74.3377 125.448 74.0779 124.616 74.0779C123.68 74.0779 122.9 74.3896 122.276 75.0649C121.912 75.4805 121.652 76 121.496 76.6234C121.392 77.2468 121.288 78.3377 121.288 79.8961C121.288 81.4545 121.34 82.5455 121.496 83.2208C121.6 83.8442 121.86 84.3636 122.276 84.8312C122.848 85.4545 123.628 85.7662 124.616 85.7662C125.656 85.7662 126.54 85.4026 127.164 84.6753C127.684 84.0519 127.944 83.2208 127.944 82.1818V81.2987H124.616V79.2727H130.336V81.8182Z" fill="#7E7E7D"/>
<path fill-rule="evenodd" clip-rule="evenodd" d="M127 10C129.755 10 132 7.7551 132 5C132 2.2449 129.755 0 127 0C124.245 0 122 2.2449 122 5C122.051 7.7551 124.245 10 127 10Z" fill="#0086C7"/>
<path fill-rule="evenodd" clip-rule="evenodd" d="M141 10C143.755 10 146 7.7551 146 5C146 2.2449 143.755 0 141 0C138.245 0 136 2.2449 136 5C136.051 7.7551 138.245 10 141 10Z" fill="#E3000F"/>
<path fill-rule="evenodd" clip-rule="evenodd" d="M154.5 10C157.531 10 160 7.7551 160 5C160 2.2449 157.531 0 154.5 0C151.469 0 149 2.2449 149 5C149.056 7.7551 151.469 10 154.5 10Z" fill="#005675"/>
</svg>
