<svg width="94" height="19" viewBox="0 0 94 19" fill="none" xmlns="http://www.w3.org/2000/svg">
<g clip-path="url(#clip0_811_1442)">
<path d="M88.9892 12.4956C90.3832 10.4129 91.8148 8.33017 93.2088 6.24748C93.4726 6.24748 93.6986 6.24748 94 6.24748C93.7363 6.61286 93.5102 6.97825 93.2465 7.34363C91.9655 9.24363 90.6846 11.1071 89.4413 13.0071C89.3659 13.1167 89.3659 13.2263 89.3659 13.3359C89.3659 14.6879 89.3659 16.0398 89.3659 17.3552C89.3659 17.4282 89.3659 17.5379 89.3659 17.6475C89.1399 17.6475 88.9515 17.6475 88.6878 17.6475C88.6878 17.5744 88.6878 17.4648 88.6878 17.3917C88.6878 16.0398 88.6878 14.7244 88.6878 13.3725C88.6878 13.1898 88.6124 13.0071 88.5371 12.8609C87.0677 10.7052 85.5984 8.51286 84.1291 6.35709C84.0914 6.32055 84.0914 6.28401 84.0537 6.21094C84.3174 6.21094 84.5435 6.21094 84.8449 6.21094C86.1635 8.33017 87.5575 10.4129 88.9892 12.4956Z" fill="#162137"/>
<path d="M88.9889 1.75391C89.8178 1.75391 90.4959 2.4116 90.4959 3.21544C90.4959 4.01929 89.8178 4.67698 88.9889 4.67698C88.16 4.67698 87.4819 4.01929 87.4819 3.21544C87.4442 2.4116 88.16 1.75391 88.9889 1.75391ZM88.9512 2.33852C88.4615 2.33852 88.0847 2.74044 88.047 3.21544C88.047 3.69044 88.4238 4.09237 88.9512 4.09237C89.441 4.09237 89.8178 3.72698 89.8554 3.21544C89.8554 2.70391 89.4787 2.33852 88.9512 2.33852Z" fill="#162137"/>
<path d="M76.9334 17.648C76.6697 17.648 76.4813 17.648 76.2176 17.648C76.2176 14.0673 76.2176 10.4865 76.2176 6.8692C74.7482 6.8692 73.2789 6.8692 71.8096 6.8692C71.8096 6.64997 71.8096 6.43074 71.8096 6.24805C74.8613 6.24805 77.9506 6.24805 81.04 6.24805C81.1531 6.46728 81.3038 6.64997 81.4168 6.8692C79.9474 6.8692 78.3651 6.8692 76.8957 6.8692C76.9334 10.523 76.9334 14.0673 76.9334 17.648Z" fill="#162137"/>
<path d="M66.8359 6.24805C67.062 6.24805 67.288 6.24805 67.5141 6.24805C67.5141 10.048 67.5141 13.848 67.5141 17.648C67.288 17.648 67.0997 17.648 66.8359 17.648C66.8359 13.8846 66.8359 10.0846 66.8359 6.24805Z" fill="#162137"/>
<path d="M56.3242 17.648C56.3242 13.848 56.3242 10.048 56.3242 6.24805C56.5503 6.24805 56.7386 6.24805 57.0024 6.24805C57.0024 9.82882 57.0024 13.4096 57.0024 17.0269C59.3006 17.0269 61.5988 17.0269 63.897 17.0269C63.7839 17.2461 63.7086 17.4654 63.6332 17.648C61.222 17.648 58.7731 17.648 56.3242 17.648Z" fill="#162137"/>
<path d="M53.4985 17.6478C53.2348 17.6478 53.0464 17.6478 52.7827 17.6478C51.125 13.9575 49.4296 10.2671 47.6965 6.46707C45.9635 10.2305 44.3058 13.9575 42.6104 17.6478C42.3843 17.6478 42.1583 17.6478 41.8945 17.6478C43.816 13.4094 45.7374 9.20745 47.6965 4.85938C49.6557 9.20745 51.5771 13.4459 53.4985 17.6478Z" fill="#162137"/>
<path d="M33.4551 15.7852C33.5681 15.5659 33.6435 15.3102 33.7565 15.0544C33.9072 15.2371 34.0202 15.4198 34.0956 15.5659C34.8114 16.5525 35.7533 17.064 36.9966 17.0275C38.5412 16.9544 39.5585 15.9679 39.7469 14.7986C39.8599 14.0313 39.5585 13.4467 38.9934 12.9352C38.3905 12.3871 37.5994 12.0583 36.8835 11.6929C36.2807 11.364 35.6779 11.0717 35.1505 10.7063C33.9825 9.82941 33.7188 8.36787 34.5477 7.1621C34.9244 6.57749 35.5272 6.2121 36.2054 6.06595C37.2603 5.81018 38.2398 5.99287 39.1441 6.57749C39.3701 6.76018 39.4831 6.90633 39.5585 7.08902C39.6338 7.34479 39.7092 7.56402 39.7845 7.85633C39.7092 7.78326 39.5962 7.74672 39.5208 7.67364C38.9557 7.23518 38.3905 6.86979 37.6747 6.6871C36.7328 6.46787 35.7156 6.76018 35.2258 7.41787C34.51 8.36787 34.6984 9.57364 35.7909 10.2679C36.5445 10.7429 37.3356 11.1083 38.1268 11.5102C38.805 11.839 39.4455 12.2409 39.8976 12.8256C40.8394 14.0313 40.6887 15.6025 39.5585 16.6256C37.8254 18.2333 34.7737 17.9044 33.5304 15.9313C33.5304 15.8948 33.4928 15.8217 33.4551 15.7852Z" fill="#162137"/>
<path d="M26.5981 12.2401C26.1083 12.2401 25.6185 12.2401 25.1288 12.2401C25.1288 14.0305 25.1288 15.8209 25.1288 17.6478C24.9027 17.6478 24.6767 17.6478 24.4883 17.6478C24.4883 13.8478 24.4883 10.0478 24.4883 6.21128C24.6013 6.21128 24.7143 6.21128 24.8274 6.21128C25.6939 6.21128 26.5604 6.17474 27.3893 6.24782C29.0847 6.39398 30.1019 7.52667 30.1019 9.1709C30.1019 10.7786 29.16 11.8747 27.54 12.1305C27.4646 12.1305 27.427 12.1671 27.3139 12.1671C28.4819 13.994 29.6875 15.7844 30.8554 17.6113C30.5917 17.6113 30.3656 17.6113 30.0642 17.6113C28.934 15.894 27.766 14.0671 26.5981 12.2401ZM25.1288 11.5459C25.8823 11.5459 26.5981 11.619 27.3139 11.5459C28.5949 11.4363 29.2731 10.7421 29.4238 9.49974C29.5745 8.33051 28.8963 7.2709 27.8037 6.97859C27.427 6.86898 27.0125 6.86898 26.5981 6.83244C26.1083 6.7959 25.6185 6.83244 25.1288 6.83244C25.1288 8.44013 25.1288 10.0478 25.1288 11.5459Z" fill="#162137"/>
<path d="M21.6253 17.0996C21.5499 17.3188 21.4746 17.5015 21.3992 17.7208C19.1387 17.7208 15.974 17.7208 13.6758 17.7208C13.7511 17.5015 13.8642 17.3188 13.9395 17.0996C16.1624 17.0996 19.3271 17.0996 21.6253 17.0996Z" fill="#162137"/>
<path d="M13.6006 6.90631C13.6759 6.68708 13.7513 6.50439 13.8266 6.28516C16.0872 6.28516 21.4747 6.28516 21.4747 6.28516C21.4747 6.28516 21.2864 6.68708 21.211 6.90631C18.9505 6.90631 15.8611 6.90631 13.6006 6.90631Z" fill="#162137"/>
<path d="M13.8647 12.2409C13.7894 12.0582 13.714 11.8755 13.6387 11.6562C15.5224 11.6562 18.2727 11.6562 20.1565 11.6562C20.2319 11.8389 20.3449 12.0216 20.4202 12.2409C18.5365 12.2409 15.7862 12.2409 13.8647 12.2409Z" fill="#162137"/>
<path d="M11.604 6.28418C11.3403 6.28418 11.1519 6.28418 10.8882 6.28418C9.19279 10.0111 7.53507 13.7015 5.802 17.465C4.06894 13.7015 2.41122 10.0111 0.715832 6.28418C0.48978 6.28418 0.263727 6.28418 0 6.28418C1.92144 10.5226 3.84289 14.688 5.802 18.9996C7.76112 14.688 9.68256 10.5226 11.604 6.28418Z" fill="#162137"/>
</g>
<defs>
<clipPath id="clip0_811_1442">
<rect width="94" height="19" fill="white"/>
</clipPath>
</defs>
</svg>
