<svg width="434" height="243" viewBox="0 0 434 243" fill="none" xmlns="http://www.w3.org/2000/svg">
<g clip-path="url(#clip0_1035_2821)">
<path d="M127.01 196.626L1.26758 123.838L120.992 54.8477L246.734 127.636L127.01 196.626Z" fill="#32A5EB"/>
<path d="M1.26758 123.838V246.945L127.01 319.733V196.626L1.26758 123.838Z" fill="#32A5EB"/>
<path d="M127.01 211.818L1.26758 139.03L120.992 70.0391L246.734 142.827L127.01 211.818Z" fill="white"/>
<path d="M121.625 53.5821L120.991 53.2656L0 123.206V247.579L127.009 321L247.367 251.693L248 251.376V127.003L121.625 53.5821ZM125.742 317.519L2.53384 245.996V126.054L95.3359 179.537L125.742 197.576V317.519ZM3.80077 123.839L120.991 56.1139L244.199 127.32L127.009 195.044L3.80077 123.839Z" fill="#162137"/>
<path d="M188.138 160.866L62.7129 87.7611L64.6133 85.8623L190.672 159.283L188.138 160.866Z" fill="#162137"/>
<path d="M190.354 283.656L187.82 285.238V160.549L190.354 159.283V283.656Z" fill="#32A5EB"/>
<path d="M115.923 151.372L91.8516 165.297L120.041 181.753L143.795 168.145L115.923 151.372ZM120.041 174.474L104.204 165.297L116.24 158.334L132.076 167.512L120.041 174.474Z" fill="#32A5EB"/>
<path d="M120.04 172.893L101.67 162.133L116.24 153.588L134.61 164.348L120.04 172.893ZM106.421 162.133L119.724 170.044L129.225 164.348L115.923 156.436L106.421 162.133Z" fill="#162137"/>
<path d="M120.358 179.854L89.6348 162.132L115.923 146.941L146.646 164.664L120.358 179.854ZM94.3857 162.132L120.041 177.006L141.262 164.664L115.607 149.79L94.3857 162.132Z" fill="#162137"/>
<path d="M63.9792 282.391H61.4453V159.916L62.0788 159.283L183.387 90.6094L184.653 92.8247L63.9792 161.182V282.391Z" fill="#162137"/>
<path d="M216.96 102.952C214.11 93.4576 208.725 87.4446 201.124 85.5458C178.953 79.5328 143.479 107.699 130.81 118.459C132.393 112.762 133.977 102.952 132.393 86.1787C130.176 67.8234 114.973 54.8481 101.354 52.3164C90.5848 50.4175 82.033 54.8481 77.2821 64.3423C66.1965 87.4446 114.656 117.509 124.792 123.206C121.941 127.636 118.14 127.32 113.389 126.687C109.905 126.37 105.788 125.738 101.987 127.953C93.4353 133.016 90.9015 142.827 90.9015 143.143L93.4353 143.776C93.4353 143.776 95.9692 134.599 103.571 130.168C106.421 128.269 109.905 128.586 113.389 129.219C118.14 129.852 123.525 130.485 127.326 124.472L127.642 124.788L127.959 124.472C127.959 124.472 127.959 124.472 128.276 124.472C129.226 124.788 130.81 125.105 132.71 125.421C135.877 126.687 139.678 128.902 140.628 134.282C141.895 139.662 145.062 144.093 149.813 146.308C152.03 147.258 154.564 147.89 156.781 147.89C159.315 147.89 162.166 147.258 164.7 145.992L163.433 143.776C159.315 145.992 154.564 145.992 150.764 144.093C146.646 142.194 144.112 138.713 142.845 133.966C142.212 131.118 140.945 128.902 139.361 127.32C150.13 129.535 165.967 131.75 180.853 131.75C194.789 131.75 207.458 129.535 214.11 122.889C218.227 117.826 219.494 111.18 216.96 102.952ZM79.8159 65.6081C83.3 58.3293 89.3178 54.5317 96.9194 54.5317C98.1863 54.5317 99.7699 54.5317 101.037 54.8481C113.706 57.0634 127.959 69.4058 129.859 86.1787C132.393 108.648 128.276 118.459 126.692 121.623C118.774 116.876 69.3638 87.1281 79.8159 65.6081ZM211.893 120.99C197.64 135.865 148.546 126.687 132.393 123.206C131.443 122.889 130.493 122.573 129.859 122.573C139.045 114.661 178.002 82.0646 200.49 88.0775C207.142 89.9764 211.893 95.3564 214.426 103.901C216.643 111.18 216.01 116.876 211.893 120.99Z" fill="#162137"/>
</g>
<g clip-path="url(#clip1_1035_2821)">
<path d="M340.15 45.9229V73.3587L393.056 103.767V76.331L340.15 45.9229Z" fill="#32A5EB"/>
<path d="M432.85 53.2382L393.056 76.3301L340.15 45.922L379.945 22.8301L432.85 53.2382Z" fill="#32A5EB"/>
<path d="M432.85 62.6132L393.056 85.7051L340.15 55.297L379.945 32.2051L432.85 62.6132Z" fill="white"/>
<path d="M379.944 21.459L339 45.2368V74.0445L393.056 105.138L434 81.3607V52.553L379.944 21.459ZM391.906 101.938L341.07 72.6727V47.7517L391.906 76.788V101.938ZM342.22 45.9227L379.944 23.9739L430.78 53.0103L393.056 74.959L342.22 45.9227Z" fill="#162137"/>
<path d="M393.055 103.767L393.285 118.856L342.91 90.0487V74.959L393.055 103.767Z" fill="#32A5EB"/>
<path d="M393.055 102.395L341.76 73.1299V90.506L393.055 120L428.709 99.4226V81.5893L393.055 102.395ZM344.06 89.3628V77.0166L391.905 104.453L392.135 117.027L344.06 89.3628Z" fill="#162137"/>
<path d="M392.365 104.224V101.709L428.249 80.9033V83.4183L392.365 104.224Z" fill="#32A5EB"/>
<path d="M407.778 66.4994L356.482 37.0058L357.633 35.1768L410.078 65.3562L407.778 66.4994Z" fill="#162137"/>
<path d="M406.397 112.455L403.867 114.055L407.778 93.021V66.4996L410.078 65.3564V93.2496L406.397 112.455Z" fill="#32A5EB"/>
<path d="M431.471 73.8154V54.153L433.771 52.7812V72.4436L431.471 73.8154Z" fill="#32A5EB"/>
<path d="M408.927 47.5233C408.467 46.1515 407.317 44.3224 404.097 43.6365C399.956 42.9506 396.046 46.8374 393.746 50.2668C393.746 49.3523 393.746 48.2092 393.746 47.066C393.516 43.8651 388.915 39.0639 385.235 38.6066C384.085 38.378 381.785 38.6066 380.634 41.8074C378.334 48.2092 387.535 53.6963 390.755 55.5254L390.525 55.9827L391.906 56.2113L393.056 56.6686V56.2113C394.436 56.4399 396.736 56.4399 399.036 56.4399C402.487 56.4399 405.707 55.9827 407.087 54.8395C408.467 53.4677 409.617 50.2669 408.927 47.5233ZM382.475 42.722C382.935 41.1216 383.855 40.8929 384.545 40.8929H384.775C387.535 41.1216 391.216 45.4656 391.446 47.5233C391.676 49.8096 391.446 52.0959 391.216 53.6963C387.305 51.6386 380.864 47.066 382.475 42.722ZM405.247 53.6963C404.327 54.6109 398.806 54.8395 393.746 54.3822C395.816 50.9527 399.956 45.2369 403.637 45.9228C405.247 46.1515 406.397 47.066 406.627 48.2092C407.317 50.0382 406.397 52.3245 405.247 53.6963Z" fill="#162137"/>
<path d="M395.356 63.985C394.436 63.985 393.516 63.7564 392.596 63.2991C389.836 61.9273 390.526 59.641 390.986 58.2692C391.216 57.5833 391.446 56.8974 391.216 56.6688C391.216 56.4402 390.756 56.2115 390.296 55.9829C388.226 55.297 386.615 55.297 385.235 56.2115C383.165 57.3547 382.705 59.641 382.705 59.641L380.635 59.1838C380.635 58.9551 381.555 55.9829 384.315 54.3825C386.155 53.2393 388.456 53.2393 391.216 54.1538C392.366 54.6111 393.056 55.0684 393.516 55.7543C393.976 56.8974 393.746 58.0406 393.286 59.1838C392.826 60.7842 392.826 61.0128 393.746 61.4701C396.736 62.8419 399.037 60.3269 399.037 60.0983L400.877 61.4701C399.727 62.6132 397.887 63.985 395.356 63.985Z" fill="#162137"/>
<path d="M401.566 20.7735C401.566 20.7735 401.796 27.4038 394.435 28.3183C388.915 29.0042 385.464 29.9188 384.544 30.376C384.314 30.376 383.394 29.9188 383.394 29.6901L383.164 26.2607C383.164 26.2607 388.225 23.9743 388.455 23.9743C388.685 23.9743 392.825 24.203 394.665 23.2884C396.505 22.1453 395.815 20.5448 395.125 18.9444C394.435 17.344 395.815 16.8867 395.815 16.8867L400.876 19.4017L401.106 19.6303C401.106 19.8589 401.336 20.3162 401.566 20.7735Z" fill="#32A5EB"/>
<path d="M384.544 31.0617C384.314 31.0617 384.084 31.0617 383.854 30.833C383.624 30.6044 382.704 30.1471 382.474 29.6899V29.4612L382.014 25.3458L382.704 25.1172C387.994 22.8309 388.224 22.8309 388.454 22.8309H388.684C392.365 23.0595 393.745 22.3736 394.205 22.145C395.125 21.6877 395.355 21.0018 394.435 18.9441C393.975 18.0296 393.975 17.3437 394.205 16.8864C394.435 15.9719 395.355 15.7433 395.355 15.7433L395.815 15.5146L401.566 18.4869L401.796 18.7155C402.256 19.1728 402.486 19.8587 402.716 20.5446V20.7732C402.716 20.7732 402.946 28.3181 394.895 29.2326C389.374 29.9185 385.924 30.833 385.234 31.0617C384.774 31.0617 384.544 31.0617 384.544 31.0617ZM384.314 29.2326L384.544 29.4612C385.924 29.004 389.144 28.0894 394.435 27.6322C400.646 26.9463 400.646 21.6877 400.646 21.0018C400.646 20.7732 400.416 20.3159 400.186 20.0873L395.815 17.801C395.815 18.0296 395.815 18.0296 396.045 18.2582C396.505 19.1728 397.885 22.145 395.125 23.7454C393.975 24.4313 391.675 24.8886 388.684 24.6599C388.224 24.8886 386.154 25.8031 384.314 26.7176V29.2326Z" fill="#162137"/>
<path d="M401.336 20.088C398.806 15.5154 387.764 25.1179 385.924 29.2333C385.464 30.1478 384.084 30.6051 382.934 30.1478L381.094 29.2333C381.094 29.2333 382.474 16.8872 391.215 14.8295C397.886 13.4577 401.336 20.088 401.336 20.088Z" fill="white"/>
<path d="M383.854 31.2906C383.394 31.2906 382.934 31.2906 382.474 31.062L379.943 29.9189V29.233C379.943 28.7757 381.324 16.2009 390.754 14.1432C397.885 12.5428 401.566 19.1731 401.796 19.6304L400.185 20.5449C399.955 20.0877 399.495 19.859 398.575 19.859C394.895 20.0877 387.764 26.718 386.384 29.6902C386.154 30.6048 385.004 31.2906 383.854 31.2906ZM382.014 28.7757L383.164 29.4616C383.854 29.6902 384.774 29.4616 385.004 29.0043C386.614 25.3462 393.975 18.4872 398.345 18.03C396.735 16.6582 394.435 15.2864 391.215 15.9723C384.314 17.3441 382.474 26.2607 382.014 28.7757Z" fill="#162137"/>
<path d="M362.923 20.3166C362.923 20.3166 362.693 27.4042 369.593 28.3187C374.654 29.0046 378.104 29.9191 379.024 30.3764C379.254 30.3764 380.175 29.6905 380.175 29.6905L380.405 26.0324C380.405 26.0324 376.264 24.4319 376.034 24.4319C375.804 24.4319 371.434 23.9747 369.593 22.8315C367.983 21.6884 368.443 19.8593 369.133 18.2589C369.824 16.6584 368.673 16.2012 368.673 16.2012L363.843 18.9448L363.613 19.1734C363.153 19.1734 362.923 19.6307 362.923 20.3166Z" fill="#32A5EB"/>
<path d="M378.794 31.0619C378.564 31.0619 378.564 31.0619 378.334 31.0619C377.644 30.8333 374.423 29.6901 369.133 29.0042C363.152 28.3183 361.772 23.0598 362.002 20.3162C362.002 19.6303 362.462 18.9444 362.922 18.4871L363.382 18.0298L368.443 15.0576H368.903C368.903 15.0576 369.823 15.5149 370.053 16.2008C370.283 16.658 370.283 17.3439 369.823 18.2585C368.903 20.3162 369.133 21.2307 370.053 21.688C371.433 22.6025 375.344 23.2884 376.034 23.2884C376.264 23.2884 376.494 23.2884 380.634 24.8888L381.324 25.1174L380.864 29.6901C380.634 30.376 379.484 30.8333 379.484 30.8333C379.254 31.0619 379.024 31.0619 378.794 31.0619ZM363.842 20.3162C363.842 21.0021 363.842 26.4892 369.593 27.1751C374.423 27.861 377.644 28.7756 378.794 29.2328C378.794 29.2328 379.024 29.2328 379.024 29.0042L379.254 26.2606C377.644 25.5747 376.034 25.1174 375.574 25.1174C375.344 25.1174 370.743 24.6602 368.903 23.2884C366.373 21.4593 367.753 18.4871 368.213 17.5726C368.213 17.3439 368.443 17.1153 368.443 16.8867L364.302 19.173C364.072 19.6303 363.842 20.0875 363.842 20.3162Z" fill="#162137"/>
<path d="M363.152 19.401C365.683 14.5997 376.034 24.6596 377.644 29.0036C378.104 30.1467 379.484 30.604 380.404 30.1467L382.244 29.2322C382.244 29.2322 381.094 16.2002 372.583 14.1425C366.373 12.542 363.152 19.401 363.152 19.401Z" fill="white"/>
<path d="M379.485 31.2905C379.025 31.2905 378.795 31.2905 378.565 31.0618C377.875 30.8332 377.184 30.3759 376.954 29.69C375.574 26.2606 368.904 19.4016 365.453 19.173C364.763 19.173 364.303 19.4016 364.073 19.8588L362.463 19.173C363.613 16.4294 367.523 11.8567 373.044 13.2285C382.015 15.5148 383.165 28.5469 383.395 29.0041V29.69L381.095 30.8332C380.405 31.0618 379.945 31.2905 379.485 31.2905ZM365.683 17.3439C370.284 17.8012 377.184 25.5747 378.335 29.0041C378.335 29.2328 378.565 29.4614 379.025 29.4614C379.255 29.69 379.715 29.4614 379.945 29.4614L381.095 28.7755C380.635 26.2606 379.025 16.8866 372.354 15.0576C369.364 14.143 367.063 15.7435 365.683 17.3439Z" fill="#162137"/>
<path d="M384.774 29.4604C384.774 29.2318 384.774 29.0031 384.774 29.0031C384.774 28.3172 384.314 26.7168 382.014 26.7168C379.944 26.7168 379.254 28.0886 379.254 28.7745C379.254 29.0031 379.254 29.2318 379.254 29.4604C379.484 30.1463 380.174 30.6035 380.864 30.6035H382.934C384.084 30.6035 384.774 30.1463 384.774 29.4604Z" fill="#162137"/>
<path d="M383.164 31.5185H381.093C379.943 31.5185 378.793 30.8326 378.563 29.6895C378.333 29.2322 378.333 28.775 378.563 28.5463C379.023 26.7173 380.403 25.8027 382.244 25.8027C384.544 25.8027 385.694 27.4032 385.694 29.0036C385.694 29.2322 385.694 29.6895 385.694 29.9181C385.464 30.8326 384.314 31.5185 383.164 31.5185ZM382.244 27.6318C381.093 27.6318 380.633 28.0891 380.403 29.0036V29.2322C380.403 29.6895 380.863 29.9181 381.323 29.9181H383.394C383.854 29.9181 384.084 29.6895 384.314 29.4609V29.2322C383.854 27.6318 382.704 27.6318 382.244 27.6318Z" fill="#162137"/>
</g>
<path d="M294.458 160.978L289.566 180.15L320.875 210.279L325.571 191.302L294.458 160.978Z" fill="#32A5EB"/>
<path d="M357.074 182.107L325.57 191.302L294.457 160.977L325.766 151.782L357.074 182.107Z" fill="#32A5EB"/>
<path d="M355.51 188.562L324.006 197.758L292.697 167.629L324.201 158.434L355.51 188.562Z" fill="white"/>
<path d="M325.96 151L293.673 160.391L288.781 180.346L320.677 211.258L352.964 201.867L358.051 181.911L325.96 151ZM320.481 208.714L290.542 179.759L294.847 162.347L324.786 191.302L320.481 208.714ZM295.826 161.369L325.569 152.761L355.507 181.716L325.764 190.324L295.826 161.369Z" fill="#162137"/>
<path d="M320.872 210.28L318.329 220.844L288.781 192.085L291.325 181.716L320.872 210.28Z" fill="#32A5EB"/>
<path d="M321.07 209.497L290.935 180.15L288 192.28L318.33 221.627L346.508 213.41L349.639 201.084L321.07 209.497ZM289.565 191.889L291.718 183.281L319.896 210.671L317.939 219.474L289.565 191.889Z" fill="#162137"/>
<path d="M320.287 210.476L320.874 208.715L349.052 200.498L348.66 202.259L320.287 210.476Z" fill="#32A5EB"/>
<path d="M337.506 186.998L307.176 157.652L308.35 156.674L339.267 186.607L337.506 186.998Z" fill="#162137"/>
<path d="M328.508 218.692L326.551 219.279L332.812 205.388L337.509 186.998L339.27 186.411L334.378 205.975L328.508 218.692Z" fill="#32A5EB"/>
<path d="M267.768 57.5187L225.502 15.2601L280.292 0.586914L322.558 42.8456L267.768 57.5187Z" fill="#32A5EB"/>
<path d="M225.503 15.2598L212.588 63.9747L254.659 106.233L267.769 57.5185L225.503 15.2598Z" fill="#32A5EB"/>
<path d="M266.008 63.5842L223.938 21.3255L278.727 6.65234L320.798 48.911L266.008 63.5842Z" fill="white"/>
<path d="M280.683 0.195639L280.487 0L225.11 14.8688L212 64.1706L254.658 106.821L309.643 91.9518H309.839L322.949 42.65L280.683 0.195639ZM254.462 105.255L213.174 63.975L225.893 16.4339L257.006 47.3454L267.181 57.7144L254.462 105.255ZM226.676 15.4557L280.292 0.978211L321.58 42.2587L267.964 56.7362L226.676 15.4557Z" fill="#162137"/>
<path d="M295.557 49.6933L253.682 7.43457L254.66 6.84766L296.731 49.302L295.557 49.6933Z" fill="#162137"/>
<path d="M283.422 98.6026L282.248 98.9939L295.554 49.6921L296.728 49.3008L283.422 98.6026Z" fill="#32A5EB"/>
<path d="M233.525 84.7132L232.547 84.5176L245.462 35.8027H245.853L301.23 21.3252L301.621 22.499L246.44 36.7809L233.525 84.7132Z" fill="#162137"/>
<defs>
<clipPath id="clip0_1035_2821">
<rect width="248" height="191" fill="white" transform="translate(0 52)"/>
</clipPath>
<clipPath id="clip1_1035_2821">
<rect width="95" height="107" fill="white" transform="translate(339 13)"/>
</clipPath>
</defs>
</svg>
